<?xml version="1.0" encoding="UTF-8" standalone="no"?>
<svg width="480px" height="480px" viewBox="0 0 480 480" version="1.1" xmlns="http://www.w3.org/2000/svg" xmlns:xlink="http://www.w3.org/1999/xlink" xmlns:sketch="http://www.bohemiancoding.com/sketch/ns">
    <!-- Generator: Sketch 3.2.2 (9983) - http://www.bohemiancoding.com/sketch -->
    <title>accounts_warning_icon</title>
    <desc>Created with Sketch.</desc>
    <defs></defs>
    <g id="Page-1" stroke="none" stroke-width="1" fill="none" fill-rule="evenodd" sketch:type="MSPage">
        <g id="accounts_warning_icon" sketch:type="MSLayerGroup" transform="translate(133.000000, 40.000000)" fill="#646464">
            <g id="#646464ff" sketch:type="MSShapeGroup">
                <path d="M51.92,2.43 C82.18,-0.25 112.62,-0.46 142.97,0.61 C163.46,1.61 184.1,2.83 204.13,7.54 C209.19,9.21 215.21,9.75 218.83,14.11 C221.51,17.83 220.99,22.63 221,26.96 C220.99,88.61 221,150.27 221,211.92 C216.38,210.98 211.7,210.4 207,210.15 L207,39 L15,39 L15,349 C49.27,349 83.53,348.99 117.8,349 C129.88,372.33 152.05,390.08 177.43,396.81 C151.38,399.66 125.14,400.21 98.95,399.9 C78.31,399.56 57.64,398.65 37.17,395.87 C28.58,394.61 19.94,393.2 11.74,390.27 C8.14,388.96 4.37,387.09 2.47,383.57 C0.42,380.07 1.11,375.85 1,371.98 C1.01,255.32 0.99,138.66 1,22 C0.72,17.3 3.14,12.51 7.62,10.71 C21.86,5.68 36.97,3.9 51.92,2.43 L51.92,2.43 Z M107.29,365.43 C100.42,367.97 99.41,378.5 105.72,382.25 C111.4,386.44 120.41,381.97 120.54,374.92 C121.3,368.12 113.5,362.45 107.29,365.43 L107.29,365.43 Z" id="Shape"></path>
            </g>
        </g>
        <g id="#f86161ff" sketch:type="MSLayerGroup" transform="translate(240.000000, 250.000000)" fill="#F86161">
            <path d="M40.36,17.31 C57.55,5.09 78.94,-1.01 100,0.15 C104.7,0.4 109.38,0.98 114,1.92 C135.62,6.25 155.53,18.47 169.23,35.74 C183.69,53.67 191.16,77.02 189.85,100.01 C188.89,119.41 181.75,138.44 169.7,153.67 C159.17,167.16 144.88,177.65 128.89,183.76 C110.36,190.89 89.61,191.87 70.43,186.81 C45.05,180.08 22.88,162.33 10.8,139 C0.54,119.53 -2.54,96.42 2.16,74.92 C7.03,51.81 21.02,30.84 40.36,17.31 L40.36,17.31 Z M90.09,45.18 C89.86,45.41 89.4,45.89 89.17,46.13 C88.76,69.73 89.14,93.37 88.98,116.99 C88.92,118.51 88.84,121.1 91.05,120.94 C94.2,120.64 98.31,122.11 100.83,119.9 C101.24,96.61 100.85,73.29 101.03,49.98 C100.81,48.37 101.56,46.19 99.89,45.16 C96.64,44.87 93.34,44.85 90.09,45.18 L90.09,45.18 Z M90.14,133.16 C89.89,133.41 89.4,133.91 89.16,134.16 C88.86,137.38 88.86,140.64 89.16,143.86 C89.4,144.11 89.89,144.59 90.14,144.84 C93.48,144.89 97.31,145.66 100.39,144.39 C101.67,141.33 100.89,137.47 100.84,134.13 C100.59,133.89 100.11,133.41 99.87,133.16 C96.63,132.86 93.36,132.86 90.14,133.16 L90.14,133.16 Z" id="Shape" sketch:type="MSShapeGroup"></path>
        </g>
        <g id="#ffffffff" sketch:type="MSLayerGroup" transform="translate(328.000000, 294.000000)" fill="#FFFFFF">
            <path d="M2.09,1.18 C5.34,0.85 8.64,0.87 11.89,1.16 C13.56,2.19 12.81,4.37 13.03,5.98 C12.85,29.29 13.24,52.61 12.83,75.9 C10.31,78.11 6.2,76.64 3.05,76.94 C0.84,77.1 0.92,74.51 0.98,72.99 C1.14,49.37 0.76,25.73 1.17,2.13 C1.4,1.89 1.86,1.41 2.09,1.18 L2.09,1.18 Z" id="Shape" sketch:type="MSShapeGroup"></path>
            <path d="M2.14,89.16 C5.36,88.86 8.63,88.86 11.87,89.16 C12.11,89.41 12.59,89.89 12.84,90.13 C12.89,93.47 13.67,97.33 12.39,100.39 C9.31,101.66 5.48,100.89 2.14,100.84 C1.89,100.59 1.4,100.11 1.16,99.86 C0.86,96.64 0.86,93.38 1.16,90.16 C1.4,89.91 1.89,89.41 2.14,89.16 L2.14,89.16 Z" id="Shape" sketch:type="MSShapeGroup"></path>
        </g>
    </g>
</svg>