<?xml version="1.0" encoding="UTF-8"?>
<svg width="72px" height="72px" viewBox="0 0 72 72" version="1.1" xmlns="http://www.w3.org/2000/svg" xmlns:xlink="http://www.w3.org/1999/xlink">
    <!-- Generator: Sketch Beta 47 (45292) - http://www.bohemiancoding.com/sketch -->
    <title>Icons/Dark/groupdetail</title>
    <desc>Created with Sketch Beta.</desc>
    <defs></defs>
    <g id="Demo" stroke="none" stroke-width="1" fill="none" fill-rule="evenodd">
        <g id="Icons/Dark/groupdetail" fill-rule="nonzero" fill="#000000">
            <g id="common_icons_groupdetail">
                <path d="M5.1,59.4 L54.9,59.4 L54.9,57.94639 C54.9,57.2581781 54.1940369,56.1300598 53.5794285,55.8302618 L36.5983684,47.5471203 C32.0186229,45.3131796 30.8867183,39.9087391 34.1680098,36.0191054 L35.2526075,34.7334263 C36.906585,32.7728059 38.4,28.6931728 38.4,26.1305571 L38.4,21.0006224 C38.4,16.3647426 34.6367694,12.6 30,12.6 C25.3689265,12.6 21.6,16.3656081 21.6,20.9987411 L21.6,26.1278716 C21.6,28.6969917 23.0872402,32.7614514 24.7472353,34.7289353 L25.8318329,36.014438 C29.1199092,39.9115804 27.9756429,45.3109509 23.4021584,47.5427608 L6.4210989,55.8293298 C5.81105128,56.1270263 5.1,57.2660312 5.1,57.94639 L5.1,59.4 Z M21.9957381,37.050414 C19.7889529,34.4348555 18,29.5484894 18,26.1278716 L18,20.9987411 C18,14.3720194 23.3860685,9 30,9 C36.627417,9 42,14.3789407 42,21.0006224 L42,26.1305571 C42,29.5478878 40.2027972,34.448581 38.0042615,37.0547191 L36.9196638,38.3403982 C35.1510972,40.436852 35.7035631,43.1051928 38.176647,44.3115311 L55.1577071,52.5946727 C57.0036045,53.4950776 58.5,55.8755104 58.5,57.94639 L58.5,60.0046856 C58.5,61.6589521 57.1472238,63 55.4957112,63 L4.50428883,63 C2.84506593,63 1.5,61.6672664 1.5,60.0046856 L1.5,57.94639 C1.5,55.8911231 2.99445272,53.4957236 4.84229282,52.5939981 L21.8233523,44.307429 C24.2861314,43.1056201 24.8587772,40.4437873 23.0803357,38.3359167 L21.9957381,37.050414 Z" id="Combined-Shape"></path>
                <path d="M42.7777292,12.6011751 C43.8731292,12.2119288 45.0525747,12 46.2812636,12 L46.7187364,12 C52.4889689,12 57.1666667,16.6791328 57.1666667,22.426958 L57.1666667,26.2244475 C57.1666667,29.1003989 55.5868254,33.1469954 53.6412679,35.2592177 L52.4580904,36.5437512 C50.8964191,38.239202 51.3030005,40.420994 53.3855974,41.426276 L67.6854375,48.3288939 C69.2398775,49.0792313 70.5,51.0974236 70.5,52.8310962 L70.5,54.9240909 C70.5,56.0705838 69.5627043,57 68.4066354,57 L61.5,57 C61.5,55.7342646 60.8277214,54.5708921 59.7367505,53.9421541 L47.1843326,46.7080635 C45.7297049,45.8697462 44.8333333,44.3185828 44.8333333,42.6396791 L44.8333333,19.2391302 C44.8333333,16.7755651 44.0744623,14.4892437 42.7777292,12.6011751 Z M61.5,53.4 L66.9,53.4 L66.9,52.8310962 C66.9,52.4754359 66.427335,51.7190677 66.1204794,51.5709467 L51.8206393,44.6683287 C47.5622146,42.6127617 46.6113391,37.5776493 49.810184,34.1047777 L50.9933615,32.8202442 C52.3271193,31.372231 53.5666667,28.1960877 53.5666667,26.2244475 L53.5666667,22.426958 C53.5666667,18.6646617 50.4980413,15.6 46.7187364,15.6 L46.2812636,15.6 C45.6155554,15.6 44.9660457,15.6938623 44.344559,15.8762273 C44.662543,16.9415735 44.8333333,18.0704068 44.8333333,19.2391302 L44.8333333,42.6396791 C44.8333333,44.3185828 45.7297049,45.8697462 47.1843326,46.7080635 L59.7367505,53.9421541 C60.8277214,54.5708921 61.5,55.7342646 61.5,56.9934424 L61.5,53.4 Z" id="Combined-Shape"></path>
            </g>
        </g>
    </g>
</svg>