<?xml version="1.0" encoding="UTF-8" standalone="no"?>
<svg width="96px" height="96px" viewBox="0 0 96 96" version="1.1" xmlns="http://www.w3.org/2000/svg" xmlns:xlink="http://www.w3.org/1999/xlink" xmlns:sketch="http://www.bohemiancoding.com/sketch/ns">
    <!-- Generator: Sketch 3.3.3 (12081) - http://www.bohemiancoding.com/sketch -->
    <title>actionbar_create_biz_chat_icon</title>
    <desc>Created with Sketch.</desc>
    <defs></defs>
    <g id="Page-1" stroke="none" stroke-width="1" fill="none" fill-rule="evenodd" sketch:type="MSPage">
        <g id="#ffffffff" sketch:type="MSLayerGroup" transform="translate(9.000000, 21.000000)" fill="#FFFFFF">
            <path d="M16,3 C27.5711319,-2.86091385 43.5190923,-0.135183633 52,10 C55.0159949,12.6876859 56.7026065,16.060031 58,20 C53.8483407,22.3869084 54.9561152,27.7090459 55,32 C51.8922705,32.1060268 48.8284258,31.6683183 46,32 C40.4253077,34.334361 40.3853879,43.5162916 46,46 C47.0320347,45.8043133 48.2396087,46.0032717 49,46 C42.6408567,51.1861383 33.9583,53.9218165 25,53 C21.6131016,52.4296284 18.130099,50.7583777 15,50 C10.9644948,49.7038982 7.61123151,51.2955654 4,52 C4.4276274,48.2017622 7.4315924,44.0733751 5,41 C0.834845331,35.2893613 -0.871726151,28.4252962 3.55271368e-15,22 C1.9625797,13.6526342 8.11022902,6.75872529 16,3 L16,3 Z" id="Shape" sketch:type="MSShapeGroup"></path>
            <path d="M59,25 C60.0223838,23.5076444 63.9890571,23.5274376 65,25 C65.3972262,28.960668 65.119559,32.5135453 65,36 C68.6201483,36.0862159 72.041404,35.9575602 75,36 C78.4079148,35.7101453 78.4872482,39.8964048 77,42 C73.3404896,42.5288989 69.1853992,41.7272747 65,42 C65.1691424,45.2009794 65.2980593,48.4272692 65,52 C65.2683093,54.5631577 60.7562183,54.4443986 59,53 C58.3365476,49.4763082 59.0802988,45.6463261 59,42 C55.440876,41.9449998 52.0196203,42.063759 49,42 C45.1671921,42.5091057 45.1176086,35.621076 49,36 C51.9700369,35.9575602 55.411126,36.0862159 59,36 C58.9315486,32.5135453 58.6439648,28.9705645 59,25 L59,25 Z" id="Shape" sketch:type="MSShapeGroup"></path>
        </g>
    </g>
</svg>