<?xml version="1.0" encoding="UTF-8" standalone="no"?>
<svg width="90px" height="90px" viewBox="0 0 90 90" version="1.1" xmlns="http://www.w3.org/2000/svg" xmlns:xlink="http://www.w3.org/1999/xlink">
    <!-- Generator: Sketch 41.2 (35397) - http://www.bohemiancoding.com/sketch -->
    <title>android actionsheet</title>
    <desc>Created with Sketch.</desc>
    <defs></defs>
    <g id="♦️Slice♦️" stroke="none" stroke-width="1" fill="none" fill-rule="evenodd">
        <g id="Artboard" transform="translate(-245.000000, -283.000000)">
            <g id="More-Copy" transform="translate(245.000000, 283.000000)">
                <rect id="Rectangle-1" fill-opacity="0.495074728" fill="#000000" x="0" y="0" width="90" height="90"></rect>
                <path d="M45,27 C47.7614237,27 50,24.7614237 50,22 C50,19.2385763 47.7614237,17 45,17 C42.2385763,17 40,19.2385763 40,22 C40,24.7614237 42.2385763,27 45,27 Z M45,50 C47.7614237,50 50,47.7614237 50,45 C50,42.2385763 47.7614237,40 45,40 C42.2385763,40 40,42.2385763 40,45 C40,47.7614237 42.2385763,50 45,50 Z M45,73 C47.7614237,73 50,70.7614237 50,68 C50,65.2385763 47.7614237,63 45,63 C42.2385763,63 40,65.2385763 40,68 C40,70.7614237 42.2385763,73 45,73 Z" id="Rectangle-1" fill="#FFFFFF"></path>
            </g>
        </g>
    </g>
</svg>