<?xml version="1.0" encoding="UTF-8" standalone="no"?>
<svg width="30px" height="30px" viewBox="0 0 30 30" version="1.1" xmlns="http://www.w3.org/2000/svg" xmlns:xlink="http://www.w3.org/1999/xlink">
    <!-- Generator: Sketch 3.7.1 (28215) - http://www.bohemiancoding.com/sketch -->
    <title>Disable App</title>
    <desc>Created with Sketch.</desc>
    <defs></defs>
    <g id="Page-1" stroke="none" stroke-width="1" fill="none" fill-rule="evenodd">
        <g id="右上角弹出框图标" transform="translate(-30.000000, 0.000000)" fill="#FFFFFF">
            <path d="M48.870226,11.0388347 L46,13.9090607 L47.1686086,15.0776694 L50.0388347,12.2074433 L52.9090607,15.0776694 L54.0776694,13.9090607 L51.2074433,11.0388347 L54.0776694,8.16860864 L52.9090607,7 L50.0388347,9.87022605 L47.1686086,7 L46,8.16860864 L48.870226,11.0388347 Z M37.9970301,7 C37.4463856,7 37,7.45303631 37,7.99703014 L37,14.0029699 C37,14.5536144 37.4530363,15 37.9970301,15 L44.0029699,15 C44.5536144,15 45,14.5469637 45,14.0029699 L45,7.99703014 C45,7.4463856 44.5469637,7 44.0029699,7 L37.9970301,7 Z M37.9970301,16 C37.4463856,16 37,16.4530363 37,16.9970301 L37,23.0029699 C37,23.5536144 37.4530363,24 37.9970301,24 L44.0029699,24 C44.5536144,24 45,23.5469637 45,23.0029699 L45,16.9970301 C45,16.4463856 44.5469637,16 44.0029699,16 L37.9970301,16 Z M46.9970301,16 C46.4463856,16 46,16.4530363 46,16.9970301 L46,23.0029699 C46,23.5536144 46.4530363,24 46.9970301,24 L53.0029699,24 C53.5536144,24 54,23.5469637 54,23.0029699 L54,16.9970301 C54,16.4463856 53.5469637,16 53.0029699,16 L46.9970301,16 Z" id="Combined-Shape"></path>
        </g>
    </g>
</svg>