<?xml version="1.0" encoding="UTF-8"?>
<svg width="130px" height="96px" viewBox="0 0 130 96" version="1.1" xmlns="http://www.w3.org/2000/svg" xmlns:xlink="http://www.w3.org/1999/xlink">
    <!-- Generator: Sketch 47.1 (45422) - http://www.bohemiancoding.com/sketch -->
    <title>Wechatsystem video @3x light </title>
    <desc>Created with Sketch.</desc>
    <defs></defs>
    <g id="Titlebar替换" stroke="none" stroke-width="1" fill="none" fill-rule="evenodd">
        <g id="Slice" transform="translate(-238.000000, -408.000000)" fill="#000000">
            <g id="Wechatsystem-Video-@3x-Copy" transform="translate(238.000000, 408.000000)">
                <path d="M85,62 L85,35 C85,33.8132405 84.1908645,33 83,33 L49,33 C47.8112641,33 47,33.8163894 47,35 L47,62 C47,63.1867595 47.8091355,64 49,64 L83,64 C84.1887359,64 85,63.1836106 85,62 Z M89,43 C93.4094613,38.8302685 99.6155532,32.7983953 100,32 C101.655314,31.7243066 103,32.3902315 103,34 L103,63 C103,64.420935 101.784013,65.3474391 100,65 C99.8615663,64.3061348 93.5169983,58.0959992 89,53 L89,43 L89,43 Z" id="Rectangle-41"></path>
            </g>
        </g>
    </g>
</svg>