<?xml version="1.0" encoding="UTF-8" standalone="no"?>
<svg width="44px" height="40px" viewBox="0 0 44 40" version="1.1" xmlns="http://www.w3.org/2000/svg" xmlns:xlink="http://www.w3.org/1999/xlink">
    <!-- Generator: Sketch 44 (41411) - http://www.bohemiancoding.com/sketch -->
    <title>icoMinipro</title>
    <desc>Created with Sketch.</desc>
    <defs></defs>
    <g id="=-Slice-=" stroke="none" stroke-width="1" fill="none" fill-rule="evenodd">
        <g id="Artboard" transform="translate(-298.000000, -661.000000)" fill="#7586DB">
            <path d="M322,663 C320,664 316.5,668.199111 317,672 L317,689 C316.5,691.797 313.4775,695.222222 310,695 C306.02175,695.222222 303,691.797 303,689 C303,686.676444 305,683 307,683 C309,683 311,681 310,679 C309,677 306,677.870333 305,678 C304,678.129667 300,681 299,683 C298,685 298,686.841111 298,689 C298,694.978389 302.7195,701 310,701 C312.23025,701 315,700 317,699 C319,698 322.5,692.800889 322,689 L322,672 C322.5,669.203 325.52175,666.777778 329,667 C332.9775,666.777778 337,669.203 337,672 C337,674.414556 335,677 332,678 C329,679 328,680 329,682 C330,684 333,683 334,683 C335,683 339,680 340,678 C341,676 342,674.158889 342,672 C342,666.021611 336.2805,661 329,661 C326.76975,661 324,662 322,663 Z" id="icoMinipro"></path>
        </g>
    </g>
</svg>