<?xml version="1.0" encoding="UTF-8" standalone="no"?>
<svg width="58px" height="58px" viewBox="0 0 58 58" version="1.1" xmlns="http://www.w3.org/2000/svg" xmlns:xlink="http://www.w3.org/1999/xlink">
    <!-- Generator: Sketch 39.1 (31720) - http://www.bohemiancoding.com/sketch -->
    <title>Search@3x </title>
    <desc>Created with Sketch.</desc>
    <defs></defs>
    <g id="尝试版" stroke="none" stroke-width="1" fill="none" fill-rule="evenodd">
        <g id="SLICE" transform="translate(-249.000000, -79.000000)" fill="#FFFFFF">
            <path d="M277,118.906 L277,141 L283,141 L283,118.619507 C292.684878,116.751788 300,108.230163 300,98 C300,86.4020203 290.59798,77 279,77 C267.40202,77 258,86.4020203 258,98 C258,108.923412 266.340135,117.898881 277,118.906 Z M279,113 C287.284271,113 294,106.284271 294,98 C294,89.7157288 287.284271,83 279,83 C270.715729,83 264,89.7157288 264,98 C264,106.284271 270.715729,113 279,113 Z" id="Rectangle-13" transform="translate(279.000000, 109.000000) rotate(-45.000000) translate(-279.000000, -109.000000) "></path>
        </g>
    </g>
</svg>