<?xml version="1.0" encoding="UTF-8" standalone="no"?>
<svg width="68px" height="68px" viewBox="0 0 68 68" version="1.1" xmlns="http://www.w3.org/2000/svg" xmlns:xlink="http://www.w3.org/1999/xlink">
    <!-- Generator: Sketch 39.1 (31720) - http://www.bohemiancoding.com/sketch -->
    <title>loading_darkversion</title>
    <desc>Created with Sketch.</desc>
    <defs></defs>
    <g id="尝试版" stroke="none" stroke-width="1" fill="none" fill-rule="evenodd">
        <g id="SLICE" transform="translate(-560.000000, -666.000000)" fill="">
            <path d="M589.53125,669.164097 C589.53125,667.416615 590.951405,666 592.695313,666 C594.442776,666 595.859375,667.408975 595.859375,669.164097 L595.859375,681.997193 C595.859375,683.744676 594.43922,685.16129 592.695313,685.16129 C590.947849,685.16129 589.53125,683.752315 589.53125,681.997193 L589.53125,669.164097 Z M606.760115,673.102112 C607.773697,671.541333 609.857329,671.095597 611.431227,672.117699 L611.710069,672.298781 C613.276271,673.315884 613.725935,675.403089 612.710675,676.966452 L605.705279,687.753817 C604.691696,689.314597 602.608065,689.760332 601.034166,688.73823 L600.755324,688.557148 C599.189122,687.540045 598.739458,685.452841 599.754718,683.889478 L606.760115,673.102112 Z M621.03554,684.486304 C622.722194,683.699805 624.725418,684.425956 625.518528,686.126787 L625.65904,686.428117 C626.448272,688.12063 625.723559,690.128965 624.034114,690.916766 L612.376768,696.352676 C610.690114,697.139176 608.68689,696.413024 607.89378,694.712194 L607.753268,694.410864 C606.964036,692.718351 607.688749,690.710015 609.378194,689.922214 L621.03554,684.486304 Z M625.487637,700.227298 C627.330542,700.486301 628.615096,702.186337 628.353916,704.044732 L628.307643,704.373977 C628.04774,706.223285 626.346127,707.51291 624.500171,707.253477 L611.76289,705.463369 C609.919984,705.204366 608.63543,703.50433 608.896611,701.645935 L608.942883,701.31669 C609.202786,699.467382 610.9044,698.177757 612.750355,698.43719 L625.487637,700.227298 Z M619.024637,717.125797 C620.429164,718.346734 620.580576,720.472122 619.349377,721.888455 L619.13125,722.139381 C617.906072,723.548787 615.776599,723.703593 614.369747,722.480635 L604.662327,714.042103 C603.2578,712.821167 603.106388,710.695778 604.337587,709.279446 L604.555714,709.02852 C605.780892,707.619113 607.910365,707.464308 609.317216,708.687265 L619.024637,717.125797 Z M605.019611,728.451144 C605.532576,730.240068 604.501991,732.105034 602.698031,732.622311 L602.37843,732.713955 C600.583292,733.228703 598.713052,732.198739 598.199238,730.406855 L594.653864,718.042666 C594.140898,716.253742 595.171483,714.388777 596.975443,713.8715 L597.295044,713.779855 C599.090183,713.265108 600.960422,714.295071 601.474237,716.086956 L605.019611,728.451144 Z M588.817987,730.406855 C588.305021,732.195779 586.442754,733.231232 584.638794,732.713955 L584.319193,732.622311 C582.524055,732.107563 581.483799,730.243029 581.997614,728.451144 L585.542988,716.086956 C586.055954,714.298032 587.91822,713.262578 589.72218,713.779855 L590.041781,713.8715 C591.83692,714.386247 592.877175,716.250782 592.363361,718.042666 L588.817987,730.406855 Z M573.457841,722.480635 C572.053314,723.701572 569.927538,723.555713 568.696339,722.139381 L568.478212,721.888455 C567.253034,720.479048 567.3961,718.348755 568.802952,717.125797 L578.510372,708.687265 C579.914899,707.466329 582.040676,707.612187 583.271875,709.02852 L583.490002,709.279446 C584.71518,710.688852 584.572113,712.819146 583.165262,714.042103 L573.457841,722.480635 Z M564.23473,707.253477 C562.391825,707.512481 560.688439,706.232373 560.427258,704.373977 L560.380986,704.044732 C560.121083,702.195425 561.401309,700.48673 563.247265,700.227298 L575.984546,698.43719 C577.827452,698.178186 579.530838,699.458294 579.792018,701.31669 L579.838291,701.645935 C580.098194,703.495242 578.817967,705.203937 576.972012,705.463369 L564.23473,707.253477 Z M565.081319,690.916766 C563.394665,690.130267 562.663282,688.128947 563.456393,686.428117 L563.596905,686.126787 C564.386137,684.434274 566.390448,683.698503 568.079893,684.486304 L579.737239,689.922214 C581.423893,690.708714 582.155276,692.710033 581.362165,694.410864 L581.221653,694.712194 C580.432421,696.404707 578.42811,697.140477 576.738665,696.352676 L565.081319,690.916766 Z M574.442218,676.966452 C573.428636,675.405672 573.868926,673.320883 575.442824,672.298781 L575.721666,672.117699 C577.287868,671.100596 579.377519,671.538749 580.392779,673.102112 L587.398175,683.889478 C588.411758,685.450257 587.971468,687.535047 586.397569,688.557148 L586.118727,688.73823 C584.552526,689.755334 582.462875,689.31718 581.447615,687.753817 L574.442218,676.966452 Z" id="Rectangle-2"></path>
        </g>
    </g>
</svg>