<?xml version="1.0" encoding="UTF-8" standalone="no"?>
<svg width="56px" height="18px" viewBox="0 0 56 18" version="1.1" xmlns="http://www.w3.org/2000/svg" xmlns:xlink="http://www.w3.org/1999/xlink">
    <!-- Generator: Sketch 44 (41411) - http://www.bohemiancoding.com/sketch -->
    <title>Menublack@3x</title>
    <desc>Created with Sketch.</desc>
    <defs></defs>
    <g id="=-Slice-=" stroke="none" stroke-width="1" fill="none" fill-rule="evenodd">
        <g id="Artboard" transform="translate(-586.000000, -423.000000)" fill="#000000">
            <path d="M614,404 C616.755805,404 619,406.238576 619,409 C619,411.755805 616.761424,414 614,414 C611.244195,414 609,411.761424 609,409 C609,406.244195 611.238576,404 614,404 Z M614,423 C618.971656,423 623,427.029437 623,432 C623,436.971656 618.970563,441 614,441 C609.028344,441 605,436.970563 605,432 C605,427.028344 609.029437,423 614,423 Z M614,450 C616.755805,450 619,452.238576 619,455 C619,457.755805 616.761424,460 614,460 C611.244195,460 609,457.761424 609,455 C609,452.244195 611.238576,450 614,450 Z" id="Menublack@3x" transform="translate(614.000000, 432.000000) rotate(90.000000) translate(-614.000000, -432.000000) "></path>
        </g>
    </g>
</svg>