<?xml version="1.0" encoding="UTF-8" standalone="no"?>
<svg width="90px" height="81px" viewBox="0 0 90 81" version="1.1" xmlns="http://www.w3.org/2000/svg" xmlns:xlink="http://www.w3.org/1999/xlink">
    <!-- Generator: Sketch 41.2 (35397) - http://www.bohemiancoding.com/sketch -->
    <title>Share@3x</title>
    <desc>Created with Sketch.</desc>
    <defs></defs>
    <g id="★-Slice-★" stroke="none" stroke-width="1" fill="none" fill-rule="evenodd">
        <g id="SLICE" transform="translate(-1531.000000, -1102.000000)" fill="#D8D8D8">
            <path d="M1582,1105.561 C1574.8075,1109.677 1570,1116.952 1570,1125.25 L1570,1159.75 C1570,1165.963 1563.955,1171 1556.5,1171 C1549.0435,1171 1543,1165.963 1543,1159.75 C1543,1155.328 1546.069,1151.5135 1550.5225,1149.6745 C1550.8435,1149.5425 1551.169,1149.4165 1551.5035,1149.3055 C1554.307,1148.1805 1556.7115,1146.0685 1557.604,1143.616 C1558.9225,1139.995 1556.4685,1137.061 1552.1245,1137.061 C1551.0415,1137.061 1549.9435,1137.244 1548.8845,1137.574 C1542.589,1139.3815 1537.3465,1143.3355 1534.1995,1148.5 C1532.167,1151.8375 1531,1155.67 1531,1159.75 C1531,1172.5705 1542.439,1183 1556.5,1183 C1561.4605,1183 1566.079,1181.6815 1570,1179.439 C1577.1925,1175.323 1582,1168.048 1582,1159.75 L1582,1125.25 C1582,1119.037 1588.0435,1114 1595.5,1114 C1602.955,1114 1609,1119.037 1609,1125.25 C1609,1129.861 1605.6715,1133.824 1600.906,1135.561 C1597.8325,1136.5915 1595.314,1138.816 1594.354,1141.4515 C1593.043,1145.0545 1595.485,1147.9765 1599.8095,1147.9765 C1600.789,1147.9765 1601.779,1147.8085 1602.7435,1147.5355 C1602.901,1147.492 1603.057,1147.444 1603.213,1147.3975 C1609.456,1145.584 1614.667,1141.642 1617.799,1136.5 C1619.833,1133.164 1621,1129.33 1621,1125.25 C1621,1112.4295 1609.561,1102 1595.5,1102 C1590.5395,1102 1585.921,1103.3185 1582,1105.561 Z" id="Share@3x"></path>
        </g>
    </g>
</svg>