<?xml version="1.0" encoding="UTF-8"?>
<svg width="90px" height="90px" viewBox="0 0 90 90" version="1.1" xmlns="http://www.w3.org/2000/svg" xmlns:xlink="http://www.w3.org/1999/xlink">
    <!-- Generator: Sketch 48.2 (47327) - http://www.bohemiancoding.com/sketch -->
    <title>app_attach_file_icon_unknow</title>
    <desc>Created with Sketch.</desc>
    <defs></defs>
    <g id="-----Android" stroke="none" stroke-width="1" fill="none" fill-rule="evenodd">
        <g id="app_attach_file_icon_unknow">
            <g id="Group" transform="translate(11.000000, 0.000000)">
                <path d="M46,0 L68,22 L68,87 C68,88.6568542 66.6568542,90 65,90 L3,90 C1.34314575,90 2.02906125e-16,88.6568542 0,87 L0,3 C-2.02906125e-16,1.34314575 1.34314575,3.04359188e-16 3,0 L46,0 Z" id="Combined-Shape" fill="#E5E5E5"></path>
                <path d="M68,22 L49,22 C47.3431458,22 46,20.6568542 46,19 L46,0 L68,22 Z" id="Rectangle" fill="#DADADA"></path>
                <path d="M26.1777344,50.2617188 C26.3710938,46.4648438 28.9023438,43.4414062 33.8417969,43.4414062 C38.2714844,43.4414062 41.2949219,46.1835938 41.2949219,49.8046875 C41.2949219,52.5644531 39.8710938,54.515625 37.6210938,55.8691406 C35.3886719,57.1875 34.7558594,58.171875 34.7558594,60.0175781 L34.7558594,61.1601562 L31.6796875,61.1601562 L31.6796875,59.5429688 C31.6621094,57.2226562 32.7871094,55.640625 35.1953125,54.1992188 C37.234375,52.9511719 38.0253906,51.84375 38.0253906,49.9628906 C38.0253906,47.7832031 36.3378906,46.1835938 33.71875,46.1835938 C31.0644531,46.1835938 29.3769531,47.7480469 29.1835938,50.2617188 L26.1777344,50.2617188 Z M33.2265625,69.1757812 C32.1015625,69.1757812 31.2226562,68.296875 31.2226562,67.171875 C31.2226562,66.0292969 32.1015625,65.1679688 33.2265625,65.1679688 C34.3691406,65.1679688 35.2304688,66.0292969 35.2304688,67.171875 C35.2304688,68.296875 34.3691406,69.1757812 33.2265625,69.1757812 Z" id="?" fill="#A8A8A8"></path>
            </g>
        </g>
    </g>
</svg>