<?xml version="1.0" encoding="UTF-8" standalone="no"?>
<svg width="68px" height="61px" viewBox="0 0 68 61" version="1.1" xmlns="http://www.w3.org/2000/svg" xmlns:xlink="http://www.w3.org/1999/xlink">
    <!-- Generator: Sketch 43.1 (39012) - http://www.bohemiancoding.com/sketch -->
    <title>homepage.w copy 3</title>
    <desc>Created with Sketch.</desc>
    <defs></defs>
    <g id="=-Slice-=" stroke="none" stroke-width="1" fill="none" fill-rule="evenodd">
        <g id="Artboard" transform="translate(-296.000000, -485.000000)" fill="#FFFFFF">
            <g id="homepage.w-copy-3" transform="translate(295.000000, 485.000000)">
                <path d="M53,31 L59,31 L38,9.95652174 L36,8.04347826 L12,31 L17,31 L17,55.0434783 L53,55.0434783 L53,31 Z M59,37 L59,59.0017862 C59,60.1053692 58.1050616,61 56.9986107,61 L13.0013893,61 C11.8960525,61 11,60.1056623 11,59.0017862 L11,37 L3.99304799,37 C0.683178979,37 -0.102572958,35.102573 2.24847213,32.7515279 L33.174869,1.82513103 C34.7351458,0.264854244 37.228787,0.297052994 38.7502242,1.90301441 L67.8703423,32.6409168 C70.1510892,35.048372 69.3225833,37 66.006952,37 L59,37 Z" id="Combined-Shape"></path>
                <polygon id="Shape" points="40 42 40 58 30 58 30 42"></polygon>
            </g>
        </g>
    </g>
</svg>