<?xml version="1.0" encoding="UTF-8"?>
<svg width="280px" height="280px" viewBox="0 0 280 280" version="1.1" xmlns="http://www.w3.org/2000/svg" xmlns:xlink="http://www.w3.org/1999/xlink">
    <!-- Generator: Sketch 41.2 (35397) - http://www.bohemiancoding.com/sketch -->
    <title>大图标/次级警告 copy</title>
    <desc>Created with Sketch.</desc>
    <defs></defs>
    <g id="Page-1" stroke="none" stroke-width="1" fill="none" fill-rule="evenodd">
        <g id="Artboard-2-Copy" transform="translate(-10.000000, -10.000000)">
            <g id="大图标/次级警告-copy">
                <path d="M289.5,151.722222 C289.5,72.9546667 227.045333,10.5 148.277778,10.5 C72.9546667,10.5 10.5,72.9546667 10.5,151.722222 C10.5,227.045333 72.9546667,289.5 148.277778,289.5 C227.045333,289.5 289.5,227.045333 289.5,151.722222 Z" id="Fill-" fill="#FFBE00"></path>
                <path d="M141.494561,85.5 C140.392996,85.5 139.532964,86.3924348 139.57391,87.5009784 L142.963062,179.256056 C142.983462,179.808364 143.449949,180.256098 144.006845,180.256098 L155.993155,180.256098 C156.54922,180.256098 157.016384,179.812544 157.036938,179.256056 L160.42609,87.5009784 C160.466909,86.3958686 159.597656,85.5 158.505439,85.5 L141.494561,85.5 Z M150,214.5 C155.79899,214.5 160.5,209.79899 160.5,204 C160.5,198.20101 155.79899,193.5 150,193.5 C144.20101,193.5 139.5,198.20101 139.5,204 C139.5,209.79899 144.20101,214.5 150,214.5 Z" id="Path-" fill="#FFFFFF"></path>
            </g>
        </g>
    </g>
</svg>