<?xml version="1.0" encoding="UTF-8"?>
<svg width="90px" height="90px" viewBox="0 0 90 90" version="1.1" xmlns="http://www.w3.org/2000/svg" xmlns:xlink="http://www.w3.org/1999/xlink">
    <!-- Generator: Sketch 48.2 (47327) - http://www.bohemiancoding.com/sketch -->
    <title>app_attach_file_icon_excel</title>
    <desc>Created with Sketch.</desc>
    <defs></defs>
    <g id="-----Android" stroke="none" stroke-width="1" fill="none" fill-rule="evenodd">
        <g id="app_attach_file_icon_excel">
            <g id="Group" transform="translate(11.000000, 0.000000)">
                <path d="M46,0 L68,22 L68,87 C68,88.6568542 66.6568542,90 65,90 L3,90 C1.34314575,90 2.02906125e-16,88.6568542 0,87 L0,3 C-2.02906125e-16,1.34314575 1.34314575,3.04359188e-16 3,0 L46,0 Z" id="Combined-Shape" fill="#207346"></path>
                <path d="M68,22 L49,22 C47.3431458,22 46,20.6568542 46,19 L46,0 L68,22 Z" id="Rectangle" fill="#195C38"></path>
                <polygon id="X" fill="#FFFFFF" points="22.7675781 69 31.0292969 56.2910156 31.0292969 56.1679688 22.8378906 43.6347656 28.1992188 43.6347656 34.0703125 53.1621094 34.2109375 53.1621094 40.1523438 43.6347656 45.2324219 43.6347656 36.7773438 56.2734375 36.7773438 56.3964844 45.0917969 69 39.8710938 69 33.8945312 59.6835938 33.7539062 59.6835938 27.7070312 69"></polygon>
            </g>
        </g>
    </g>
</svg>