<?xml version="1.0" encoding="UTF-8" standalone="no"?>
<svg width="58px" height="58px" viewBox="0 0 58 58" version="1.1" xmlns="http://www.w3.org/2000/svg" xmlns:xlink="http://www.w3.org/1999/xlink">
    <!-- Generator: Sketch 39.1 (31720) - http://www.bohemiancoding.com/sketch -->
    <title>RecentRead@3x Copy</title>
    <desc>Created with Sketch.</desc>
    <defs></defs>
    <g id="尝试版" stroke="none" stroke-width="1" fill="none" fill-rule="evenodd">
        <g id="SLICE" transform="translate(-58.000000, -148.000000)" fill="#FFFFFF">
            <g id="RecentRead@3x-Copy" transform="translate(58.000000, 148.000000)">
                <path d="M29,58 C45.0162577,58 58,45.0162577 58,29 C58,12.9837423 45.0162577,0 29,0 C12.9837423,0 0,12.9837423 0,29 C0,45.0162577 12.9837423,58 29,58 Z M29,52 C41.7025492,52 52,41.7025492 52,29 C52,16.2974508 41.7025492,6 29,6 C16.2974508,6 6,16.2974508 6,29 C6,41.7025492 16.2974508,52 29,52 Z" id="Combined-Shape"></path>
                <path d="M29.9748964,27.246653 L29.2177372,14.2518463 C29.19401,13.8446259 28.8353768,13.5 28.4177504,13.5 L27.1627998,13.5 C26.7459467,13.5 26.3870071,13.836613 26.362813,14.2518463 L25.5322394,28.5066338 C25.5011847,29.0396125 25.7553426,29.5064693 26.1635414,29.7706768 C26.2525847,30.0362357 26.4234795,30.2801643 26.672367,30.4664922 L39.0047007,39.6990079 C39.340406,39.9503314 39.827724,39.8976336 40.0890719,39.5861713 L40.9497056,38.560508 C41.212882,38.2468666 41.1803182,37.7618471 40.8725289,37.4730169 L29.9748964,27.246653 Z" id="Combined-Shape"></path>
            </g>
        </g>
    </g>
</svg>