<?xml version="1.0" encoding="UTF-8" standalone="no"?>
<svg width="63px" height="63px" viewBox="0 0 63 63" version="1.1" xmlns="http://www.w3.org/2000/svg" xmlns:xlink="http://www.w3.org/1999/xlink">
    <!-- Generator: Sketch 42 (36781) - http://www.bohemiancoding.com/sketch -->
    <title>Refresh@3x </title>
    <desc>Created with Sketch.</desc>
    <defs></defs>
    <g id="Slice" stroke="none" stroke-width="1" fill="none" fill-rule="evenodd">
        <g id="Artboard" transform="translate(-131.000000, -206.000000)" fill="#576B95">
            <path d="M161,261.921165 C148.127997,260.902291 138,250.133906 138,237 C138,230.574869 140.423817,224.71585 144.40697,220.287425 L148.240043,223.503756 C144.985551,227.061014 143,231.798632 143,237 C143,247.274527 150.747641,255.739496 160.719414,256.871398 L161,257.106838 L161,253.358519 C161,253.00606 161.228178,252.898617 161.50965,253.095647 L170.49035,259.382138 C170.772347,259.579535 170.771822,259.898617 170.49035,260.095647 L161.50965,266.382138 C161.227653,266.579535 161,266.461476 161,266.119266 L161,261.921165 Z M161,212.078835 C161.659789,212.02661 162.326787,212 163,212 C176.807119,212 188,223.192881 188,237 C188,244.654488 184.559924,251.505502 179.141471,256.091346 L175.240454,252.818004 C179.961226,249.159598 183,243.434671 183,237 C183,225.954305 174.045695,217 163,217 C162.325001,217 161.657812,217.033439 161,217.09875 L161,221.119266 C161,221.471725 160.771822,221.579168 160.49035,221.382138 L151.50965,215.095647 C151.227653,214.898249 151.228178,214.579168 151.50965,214.382138 L160.49035,208.095647 C160.772347,207.898249 161,208.016309 161,208.358519 L161,212.078835 Z" id="Oval-2-Copy"></path>
        </g>
    </g>
</svg>