<?xml version="1.0" encoding="UTF-8"?>
<svg width="72px" height="72px" viewBox="0 0 72 72" version="1.1" xmlns="http://www.w3.org/2000/svg" xmlns:xlink="http://www.w3.org/1999/xlink">
    <!-- Generator: Sketch 43.1 (39012) - http://www.bohemiancoding.com/sketch -->
    <title>android_delete_activate</title>
    <desc>Created with Sketch.</desc>
    <defs></defs>
    <g id="视觉输出V2" stroke="none" stroke-width="1" fill="none" fill-rule="evenodd">
        <g id="android_delete_activate">
            <g id="Group-8" transform="translate(12.000000, 1.000000)">
                <path d="M7.25,23.25 L40.75,23.25 L40.75,65.75 L7.25,65.75 L7.25,23.25 Z" id="Rectangle-228" stroke="#FFFFFF" stroke-width="4.5"></path>
                <g id="Group-3" transform="translate(17.000000, 32.000000)" fill="#FFFFFF">
                    <rect id="Path" x="0" y="-2.66453526e-15" width="3" height="22" rx="1"></rect>
                    <path d="M11.9989566,-1.77635684e-15 C11.4472481,-1.77635684e-15 11,0.43945834 11,1.00246167 L11,20.9975383 C11,21.5511826 11.4426603,22 11.9989566,22 L13.0010434,22 C13.5527519,22 14,21.5605417 14,20.9975383 L14,1.00246167 C14,0.448817378 13.5573397,-1.77635684e-15 13.0010434,-1.77635684e-15 L11.9989566,-1.77635684e-15 Z" id="Path"></path>
                </g>
                <rect id="Rectangle-5" fill="#FFFFFF" x="0" y="21" width="48" height="3" rx="1"></rect>
                <g id="Group-7" transform="translate(25.476315, 11.041286) rotate(15.000000) translate(-25.476315, -11.041286) translate(1.476315, 6.041286)" fill="#FFFFFF">
                    <rect id="Path-2-Copy" x="15" y="-6.82121026e-13" width="18" height="7" rx="1"></rect>
                    <rect id="Rectangle-5-Copy" x="-4.54747351e-13" y="6" width="48" height="4" rx="1"></rect>
                </g>
            </g>
        </g>
    </g>
</svg>