<?xml version="1.0" encoding="UTF-8"?>
<svg width="32px" height="18px" viewBox="0 0 32 18" version="1.1" xmlns="http://www.w3.org/2000/svg" xmlns:xlink="http://www.w3.org/1999/xlink">
    <!-- Generator: Sketch 52.3 (67297) - http://www.bohemiancoding.com/sketch -->
    <title>CreateIcon-Loading-outline</title>
    <desc>Created with Sketch.</desc>
    <g id="CreateIcon-Loading-outline" stroke="none" stroke-width="1" fill="none" fill-rule="evenodd">
        <g id="原创icon">
            <rect id="Rectangle" fill="#F36D00" x="0" y="0" width="32" height="18" rx="1.8"></rect>
            <path d="M8.98,8.172 L6.748,8.172 L6.748,12.744 C6.748,13.032 6.904,13.188 7.228,13.188 L9.316,13.188 C9.676,13.188 9.904,13.092 9.988,12.912 C10.084,12.72 10.156,12.312 10.204,11.7 L11.272,12.06 C11.176,13.104 11.032,13.74 10.816,13.956 C10.624,14.148 10.228,14.244 9.652,14.244 L6.736,14.244 C5.98,14.244 5.608,13.884 5.608,13.164 L5.608,7.464 L5.032,8.04 L4.36,7.116 C5.5,6.072 6.544,4.836 7.492,3.42 L8.332,3.42 C9.388,4.524 10.396,5.676 11.332,6.876 L10.588,7.656 C9.556,6.288 8.704,5.232 8.008,4.5 C7.384,5.424 6.688,6.312 5.896,7.164 L10.096,7.164 L10.096,10.476 C10.084,11.136 9.724,11.484 9.004,11.532 C8.536,11.532 8.092,11.52 7.672,11.496 L7.396,10.428 C7.84,10.476 8.224,10.5 8.56,10.5 C8.836,10.5 8.98,10.356 8.98,10.092 L8.98,8.172 Z M11.872,4.416 L12.988,4.416 L12.988,11.82 L11.872,11.82 L11.872,4.416 Z M13.948,14.328 L12.136,14.328 L11.872,13.236 C12.46,13.284 13.024,13.308 13.552,13.308 C13.84,13.308 13.984,13.128 13.984,12.78 L13.984,3.396 L15.124,3.396 L15.124,13.068 C15.124,13.908 14.728,14.328 13.948,14.328 Z M19.192,4.98 L17.32,4.98 L17.32,4.02 L21.28,4.02 C21.184,3.816 21.088,3.624 20.992,3.456 L22.228,3.264 C22.324,3.492 22.432,3.744 22.528,4.02 L26.68,4.02 L26.68,4.98 L24.772,4.98 L24.424,5.7 L27.244,5.7 L27.244,6.684 L16.756,6.684 L16.756,5.7 L19.48,5.7 L19.192,4.98 Z M20.668,5.7 L23.236,5.7 L23.584,4.98 L20.38,4.98 L20.668,5.7 Z M18.004,7.188 L25.996,7.188 L25.996,10.932 L18.004,10.932 L18.004,7.188 Z M24.88,10.068 L24.88,9.468 L19.12,9.468 L19.12,10.068 L24.88,10.068 Z M19.12,8.652 L24.88,8.652 L24.88,8.064 L19.12,8.064 L19.12,8.652 Z M17.548,11.4 L18.652,11.628 C18.376,12.576 17.992,13.392 17.5,14.088 L16.516,13.476 C16.996,12.828 17.332,12.144 17.548,11.4 Z M23.68,14.244 L20.752,14.244 C19.828,14.244 19.372,13.824 19.372,13.008 L19.372,11.472 L20.524,11.472 L20.524,12.768 C20.524,13.068 20.704,13.224 21.076,13.224 L23.464,13.224 C23.68,13.224 23.836,13.176 23.92,13.092 C24.04,12.984 24.124,12.672 24.172,12.144 L25.252,12.492 C25.156,13.332 24.988,13.848 24.724,14.016 C24.496,14.16 24.148,14.244 23.68,14.244 Z M22.288,10.98 C22.768,11.46 23.128,11.88 23.38,12.252 L22.432,12.912 C22.156,12.516 21.784,12.072 21.316,11.592 L22.288,10.98 Z M26.032,11.232 C26.692,12.012 27.196,12.696 27.544,13.272 L26.596,13.932 C26.224,13.284 25.732,12.576 25.108,11.808 L26.032,11.232 Z" id="创意" fill="#FFFFFF"></path>
        </g>
    </g>
</svg>