<?xml version="1.0" encoding="UTF-8"?>
<svg width="90px" height="90px" viewBox="0 0 90 90" version="1.1" xmlns="http://www.w3.org/2000/svg" xmlns:xlink="http://www.w3.org/1999/xlink">
    <!-- Generator: Sketch 48.2 (47327) - http://www.bohemiancoding.com/sketch -->
    <title>app_attach_file_icon_sound</title>
    <desc>Created with Sketch.</desc>
    <defs></defs>
    <g id="-----Android" stroke="none" stroke-width="1" fill="none" fill-rule="evenodd">
        <g id="app_attach_file_icon_sound">
            <rect id="bg" fill="#F2F2F2" x="0" y="0" width="90" height="90"></rect>
            <g id="Group-24" opacity="0.600000024" transform="translate(30.000000, 24.000000)" fill="#000000" fill-rule="nonzero">
                <path d="M13.1258072,35.8840498 C5.72608223,34.9617244 9.36801072e-16,28.6495613 0,21 L0,17.25 L3.75,17.25 L3.75,21 C3.75,27.2132034 8.78679656,32.25 15,32.25 C21.2132034,32.25 26.25,27.2132034 26.25,21 L26.25,17.25 L30,17.25 L30,21 C30,28.6492831 24.2743342,34.9612653 16.875,35.8839492 L16.875,42 L13.1281207,42 L13.1258072,35.8840498 Z M15,0 C19.1421356,-7.6089797e-16 22.5,3.35786438 22.5,7.5 L22.5,21 C22.5,25.1421356 19.1421356,28.5 15,28.5 C10.8578644,28.5 7.5,25.1421356 7.5,21 L7.5,7.5 C7.5,3.35786438 10.8578644,7.6089797e-16 15,0 Z M15,3.75 C12.9289322,3.75 11.25,5.42893219 11.25,7.5 L11.25,21 C11.25,23.0710678 12.9289322,24.75 15,24.75 C17.0710678,24.75 18.75,23.0710678 18.75,21 L18.75,7.5 C18.75,5.42893219 17.0710678,3.75 15,3.75 Z" id="Combined-Shape"></path>
            </g>
        </g>
    </g>
</svg>