<?xml version="1.0" encoding="UTF-8"?>
<svg width="144px" height="144px" viewBox="0 0 144 144" version="1.1" xmlns="http://www.w3.org/2000/svg" xmlns:xlink="http://www.w3.org/1999/xlink">
    <!-- Generator: Sketch 52.3 (67297) - http://www.bohemiancoding.com/sketch -->
    <title>avatarShape</title>
    <desc>Created with Sketch.</desc>
    <g id="avatarShape" stroke="none" stroke-width="1" fill="none" fill-rule="evenodd">
        <path d="M122.59115,144 C123.865487,144 125.139823,144 126.159292,144 C127.433628,144 128.707965,144 129.727434,143.745133 C131.00177,143.745133 132.276106,143.490265 133.295575,143.235398 C134.569912,142.980531 135.589381,142.470796 136.863717,141.961062 C137.883186,141.451327 138.902655,140.686726 139.922124,139.922124 C140.686726,139.157522 141.451327,138.138053 141.961062,136.863717 C142.470796,135.844248 142.980531,134.569912 143.235398,133.295575 C143.490265,132.021239 143.745133,131.00177 143.745133,129.727434 C143.745133,128.453097 144,127.178761 144,126.159292 C144,124.884956 144,123.610619 144,122.59115 C144,88.9486726 144,55.0513274 144,21.4088496 C144,20.1345133 144,18.860177 144,17.840708 C144,16.5663717 144,15.2920354 143.745133,14.2725664 C143.745133,12.9982301 143.490265,11.7238938 143.235398,10.7044248 C142.980531,9.4300885 142.470796,8.41061947 141.961062,7.13628319 C141.451327,6.11681416 140.686726,5.09734513 139.922124,4.07787611 C139.157522,3.31327434 138.138053,2.54867257 136.863717,2.03893805 C135.844248,1.52920354 134.569912,1.01946903 133.295575,0.76460177 C132.021239,0.509734513 131.00177,0.254867257 129.727434,0.254867257 C128.453097,0.254867257 127.178761,0 126.159292,0 C124.884956,0 123.610619,0 122.59115,0 C88.9486726,0 55.0513274,0 21.4088496,0 C20.1345133,0 18.860177,0 17.840708,0 C16.5663717,0 15.2920354,0 14.2725664,0.254867257 C12.9982301,0.254867257 11.7238938,0.509734513 10.7044248,0.76460177 C9.4300885,1.01946903 8.41061947,1.52920354 7.13628319,2.03893805 C6.11681416,2.54867257 5.09734513,3.31327434 4.07787611,4.07787611 C3.31327434,4.84247788 2.54867257,5.8619469 2.03893805,7.13628319 C1.52920354,8.15575221 1.01946903,9.4300885 0.76460177,10.7044248 C0.509734513,11.9787611 0.254867257,12.9982301 0.254867257,14.2725664 C0.254867257,15.5469027 0,16.8212389 0,17.840708 C0,19.1150442 0,20.3893805 0,21.4088496 C0,55.0513274 0,88.9486726 0,122.59115 C0,123.865487 0,125.139823 0,126.159292 C0,127.433628 0,128.707965 0.254867257,129.727434 C0.254867257,131.00177 0.509734513,132.276106 0.76460177,133.295575 C1.01946903,134.569912 1.52920354,135.589381 2.03893805,136.863717 C2.54867257,137.883186 3.31327434,138.902655 4.07787611,139.922124 C4.84247788,140.686726 5.8619469,141.451327 7.13628319,141.961062 C8.15575221,142.470796 9.4300885,142.980531 10.7044248,143.235398 C11.9787611,143.490265 12.9982301,143.745133 14.2725664,143.745133 C15.5469027,143.745133 16.8212389,144 17.840708,144 C19.1150442,144 20.3893805,144 21.4088496,144 C55.0513274,144 88.9486726,144 122.59115,144 Z" fill="#D8D8D8"></path>
    </g>
</svg>