<?xml version="1.0" encoding="UTF-8" standalone="no"?>
<svg width="96px" height="96px" viewBox="0 0 96 96" version="1.1" xmlns="http://www.w3.org/2000/svg" xmlns:xlink="http://www.w3.org/1999/xlink">
    <!-- Generator: Sketch 39.1 (31720) - http://www.bohemiancoding.com/sketch -->
    <title>Copy</title>
    <desc>Created with Sketch.</desc>
    <defs></defs>
    <g id="Buttonsheet" stroke="none" stroke-width="1" fill="none" fill-rule="evenodd">
        <g id="Copy" fill="#7B8085">
            <g id="Page-1" transform="translate(12.000000, 12.000000)">
                <path d="M44,26 L38,32 C38.8606295,32.18764 39.3913271,32.6186536 40,33 C43.8562274,37.0840445 43.8562274,43.5244255 40,47 L25,62 C21.5281161,65.8554422 15.0879917,65.8554422 11,62 C7.14377265,57.9103499 7.14377265,51.4695177 11,47 L16,43 C14.6046778,39.43273 14.147989,35.5017057 15,32 L5,42 C-1.7873816,48.8933653 -1.7873816,60.4865023 5,68 C12.5121224,74.7875781 24.1039854,74.7875781 31,68 L46,53 C52.7873816,46.1010292 52.7873816,34.5074408 46,27 C45.1513824,26.8706023 44.6427971,26.4201818 44,26 M68,5 C60.4883288,-1.78757805 48.8960146,-1.78757805 42,5 L27,20 C20.2126184,26.8989708 20.2126184,38.4925592 27,46 C27.8486176,46.1293977 28.3576542,46.5798182 29,47 L35,41 C34.1398218,40.81236 33.6086729,40.3813464 33,40 C29.1437726,35.9159555 29.1437726,29.4755745 33,26 L48,11 C51.4723352,7.14455784 57.9120083,7.14455784 62,11 C65.8562274,15.0896501 65.8562274,21.5304823 62,26 L57,30 C58.3957735,33.56727 58.852011,37.4982943 58,41 L68,31 C74.7873816,24.1066347 74.7873816,12.5134977 68,5" id="Fill-1"></path>
            </g>
        </g>
    </g>
</svg>