<?xml version="1.0" encoding="UTF-8" standalone="no"?>
<svg width="96px" height="96px" viewBox="0 0 96 96" version="1.1" xmlns="http://www.w3.org/2000/svg" xmlns:xlink="http://www.w3.org/1999/xlink">
    <!-- Generator: Sketch 39.1 (31720) - http://www.bohemiancoding.com/sketch -->
    <title>ofm_jd_index_icon copy</title>
    <desc>Created with Sketch.</desc>
    <defs></defs>
    <g id="Buttonsheet" stroke="none" stroke-width="1" fill="none" fill-rule="evenodd">
        <g id="ofm_jd_index_icon-copy">
            <g id="Shape-+-Shape" transform="translate(7.000000, 10.000000)">
                <path d="M80.047549,28.325209 L56.1567777,25.9646453 C54.3295005,25.7941221 53.9197436,25.5097093 53.3480919,24.0297672 L43.1311524,1.436689 C42.1968063,-0.478896335 40.6688461,-0.478896335 39.735755,1.436689 L28.8448815,24.0297672 C28.1025502,25.2819301 27.7599357,25.5657206 25.9608959,25.7368661 L2.81810342,28.325209 C0.692136639,28.5368071 0.217119858,29.9134396 1.76265002,31.3840465 L19.921845,48.0200152 C20.7777537,48.8178646 20.7915587,49.1576663 20.5493441,50.2542425 L15.8933011,74.6689315 C15.4998592,76.7643752 16.6927349,77.6032995 18.5426021,76.5372184 L39.2695232,64.6099302 C40.725321,63.699436 42.0675415,63.672675 43.4951019,64.553919 L64.3224228,76.5372184 C66.173545,77.6032995 67.3708132,76.7618858 66.9836463,74.6683091 L63.4219617,55.1882128 C65.554831,54.4687791 67.6211853,53.5881576 68.856731,52.5917793 L68.3553592,52.6894879 C66.16225,53.1045936 64.4447851,53.4238578 63.1069572,53.6690627 C63.0140873,52.9963052 63.0021648,52.9882146 63.0021648,52.9882146 L62.5246381,50.2878492 C62.3351333,49.0736494 62.5246381,48.6548096 63.4401592,47.7816562 L81.07351,31.3516845 C82.6359826,29.9003703 82.1747708,28.5368071 80.047549,28.325209 L80.047549,28.325209 Z" id="Shape" fill="#FFCD18"></path>
                <path d="M15.3944394,33.3736912 C15.3944394,33.3736912 37.5081334,28.2162982 62.7756377,32.5179635 C62.856585,32.5316552 62.7969726,32.7065348 62.8772925,32.7214711 C62.8772925,32.7214711 55.0366919,38.1881708 47.9610126,43.0543052 C42.3982335,46.8804971 37.3079612,50.276647 36.8724769,50.7502533 C36.8724769,50.7502533 36.5606098,50.8062646 36.9622092,51.0066605 C37.2621538,51.1560239 37.9812677,51.2157692 37.9812677,51.2157692 C37.9812677,51.2157692 56.0601428,53.182387 68.6226738,52.6670834 C68.6226738,52.6670834 50.0957644,58.072793 22.6194635,54.4252148 C22.6194635,54.4252148 22.2956739,54.3063465 22.562361,54.1327115 C24.7303703,52.7181159 43.4091345,39.4303762 48.4843468,35.899177 C48.4843468,35.899177 48.8363738,35.6228548 48.5226242,35.5655988 C48.7729964,35.6116525 45.382619,34.9849487 40.3619991,34.5387256 C33.0660676,33.8908619 22.3603063,33.5467038 15.5575891,33.4122768 C15.4885642,33.4097874 15.4609543,33.3730689 15.3944394,33.3736912 L15.3944394,33.3736912 Z" id="Shape" fill="#FFFFFF"></path>
            </g>
        </g>
    </g>
</svg>