<?xml version="1.0" encoding="UTF-8" standalone="no"?>
<svg width="96px" height="96px" viewBox="0 0 96 96" version="1.1" xmlns="http://www.w3.org/2000/svg" xmlns:xlink="http://www.w3.org/1999/xlink">
    <!-- Generator: Sketch 39.1 (31720) - http://www.bohemiancoding.com/sketch -->
    <title>ofm_jd_cart_icon</title>
    <desc>Created with Sketch.</desc>
    <defs></defs>
    <g id="Buttonsheet" stroke="none" stroke-width="1" fill="none" fill-rule="evenodd">
        <g id="ofm_jd_cart_icon" fill="#7C8085">
            <path d="M79,54 C78.258566,56.1281818 77.3642264,57 75,57 L41,57 C38.4470943,57 36.6226415,55.1686364 37,53 L33,32 L81,39 C81,38.8181818 79.4110189,50.5495455 79,54 L79,54 Z M31,24 L30,14 L30,14 C29.09645,10.7658571 26.07245,8 22,8 L8,8 L8,16 L12,16 L15,16 L20,16 C20.94245,16.1428571 21.95,17.1557381 22,18 L22,18 L29,56 L29,56 C30.31235,61.3714524 34.9343,65 40,65 L77,65 C82.3562,65 84.95,60.9285714 85,57 C85.6574,54.5300952 89,32.4285714 89,32 L31,24 Z M77,73 C72.5817778,73 69,76.5817778 69,81 C69,85.4182222 72.5817778,89 77,89 C81.4182222,89 85,85.4182222 85,81 C85,76.5817778 81.4182222,73 77,73 L77,73 Z M36,73 C31.5817778,73 28,76.5817778 28,81 C28,85.4182222 31.5817778,89 36,89 C40.4182222,89 44,85.4182222 44,81 C44,76.5817778 40.4182222,73 36,73 L36,73 Z" id="Page-1"></path>
        </g>
    </g>
</svg>