<?xml version="1.0" encoding="UTF-8"?>
<svg width="96px" height="96px" viewBox="0 0 96 96" version="1.1" xmlns="http://www.w3.org/2000/svg" xmlns:xlink="http://www.w3.org/1999/xlink">
    <!-- Generator: Sketch 41.2 (35397) - http://www.bohemiancoding.com/sketch -->
    <title>btnsheet_icon_public</title>
    <desc>Created with Sketch.</desc>
    <defs></defs>
    <g id="Buttonsheet" stroke="none" stroke-width="1" fill="none" fill-rule="evenodd">
        <g id="btnsheet_icon_public" fill="#7C8085">
            <path d="M48,80 L44,76 L48,64 L52,76 L48,80 Z M78.6666667,72.4648889 L78.6666667,72.4444444 L58.2346667,65.3333333 L58.6666667,65.3333333 C58.6666667,65.3333333 56,64.8835556 56,62.6666667 L56,64.5555556 L56,64.5555556 L56,61.3333333 C56,59.9773333 57.3333333,58.6666667 57.3333333,58.6666667 L57.3195556,58.6666667 C63.1777778,54.1902222 67.1386667,45.5164444 67.1302222,35.0537778 C67.1186667,21.2604444 58.5546667,12 48,12 C37.4453333,12 28.8964444,21.2604444 28.908,35.0537778 C28.9164444,45.5146667 32.8897778,54.1893333 38.7537778,58.6666667 L38.6666667,58.6666667 C38.6666667,58.6666667 40,59.9773333 40,61.3333333 L40,62.6666667 C40,64.8835556 37.3333333,65.3333333 37.3333333,65.3333333 L37.7653333,65.3333333 L17.3333333,72.4444444 L17.3333333,72.4648889 C14.228,73.5644444 12,76.5182222 12,80 L12,84 L84,84 L84,80 C84,76.5182222 81.7715556,73.5644444 78.6666667,72.4648889 L78.6666667,72.4648889 Z" id="Page-1"></path>
        </g>
    </g>
</svg>