<?xml version="1.0" encoding="UTF-8" standalone="no"?>
<svg width="96px" height="96px" viewBox="0 0 96 96" version="1.1" xmlns="http://www.w3.org/2000/svg" xmlns:xlink="http://www.w3.org/1999/xlink">
    <!-- Generator: Sketch 39.1 (31720) - http://www.bohemiancoding.com/sketch -->
    <title>ofm_reader_icon</title>
    <desc>Created with Sketch.</desc>
    <defs></defs>
    <g id="Buttonsheet" stroke="none" stroke-width="1" fill="none" fill-rule="evenodd">
        <g id="ofm_reader_icon" fill="#7C8085">
            <path d="M77,71 L53,76 L53,26 L77,21 L77,71 Z M20,21 L44,26 L44,76 L20,71 L20,21 Z M85,18 C85,14.7235309 82.2764691,12 79,12 C78.8405123,12 78.7666111,12.0085617 79,12 L79,12 L79,12 C77.9604568,12.0468642 77.3295926,12.1820494 77,12 L49,18 L20,12 C19.6704074,12.1820494 19.0395432,12.0468642 18,12 L18,12 L18,12 C18.2333889,12.0085617 18.1594877,12 18,12 C14.7235309,12 12,14.7235309 12,18 C12,18.1594877 12.0085617,18.2333889 12,18 L12,18 L12,72 L12,72 C12.0085617,72.4579691 12,72.5318704 12,73 C12,75.9678272 14.7235309,78.691358 18,79 C18.1594877,78.691358 18.2333889,78.6827963 18,79 L18,79 L49,85 L79,79 L79,79 C78.7666111,78.6827963 78.8405123,78.691358 79,79 C82.2764691,78.691358 85,75.9678272 85,73 C85,72.5318704 84.9914383,72.4579691 85,72 L85,72 L85,18 L85,18 C84.9914383,18.2333889 85,18.1594877 85,18 L85,18 Z" id="Page-1"></path>
        </g>
    </g>
</svg>