<?xml version="1.0" encoding="UTF-8" standalone="no"?>
<svg width="96px" height="96px" viewBox="0 0 96 96" version="1.1" xmlns="http://www.w3.org/2000/svg" xmlns:xlink="http://www.w3.org/1999/xlink">
    <!-- Generator: Sketch 39.1 (31720) - http://www.bohemiancoding.com/sketch -->
    <title>actionbar_collect_list_icon</title>
    <desc>Created with Sketch.</desc>
    <defs></defs>
    <g id="Buttonsheet" stroke="none" stroke-width="1" fill="none" fill-rule="evenodd">
        <g id="actionbar_collect_list_icon" fill="#7C8085">
            <path d="M32,28 L85,28 L85,20 L32,20 L32,28 Z M12,28 L24,28 L24,20 L12,20 L12,28 Z M32,52 L85,52 L85,44 L32,44 L32,52 Z M12,52 L24,52 L24,44 L12,44 L12,52 Z M32,77 L85,77 L85,69 L32,69 L32,77 Z M12,77 L24,77 L24,69 L12,69 L12,77 Z" id="Page-1"></path>
        </g>
    </g>
</svg>