<?xml version="1.0" encoding="UTF-8" standalone="no"?>
<svg width="96px" height="96px" viewBox="0 0 96 96" version="1.1" xmlns="http://www.w3.org/2000/svg" xmlns:xlink="http://www.w3.org/1999/xlink">
    <!-- Generator: Sketch 39.1 (31720) - http://www.bohemiancoding.com/sketch -->
    <title>del</title>
    <desc>Created with Sketch.</desc>
    <defs></defs>
    <g id="Buttonsheet" stroke="none" stroke-width="1" fill="none" fill-rule="evenodd">
        <g id="del" fill="#7C8085">
            <g id="Page-1" transform="translate(16.000000, 8.000000)">
                <path d="M53.0000903,8 L45.0000903,0 L20.0000903,0 L12.0000903,8 L9.02777779e-05,8 L9.02777779e-05,16 L65.0000903,16 L65.0000903,8 L53.0000903,8 Z M12.0000903,67 L20.0000903,67 L20.0000903,31 L12.0000903,31 L12.0000903,67 Z M28.0000903,67 L36.0000903,67 L36.0000903,31 L28.0000903,31 L28.0000903,67 Z M45.0000903,67 L53.0000903,67 L53.0000903,31 L45.0000903,31 L45.0000903,67 Z M4.00009028,68 C4.00009028,74.531619 9.46892361,80 16.0000903,80 L49.0000903,80 C55.5317093,80 61.0000903,74.531619 61.0000903,68 L61.0000903,23 L4.00009028,23 L4.00009028,68 Z" id="Fill-1"></path>
            </g>
        </g>
    </g>
</svg>