<?xml version="1.0" encoding="UTF-8"?>
<svg width="102px"
     height="102px"
     viewBox="0 0 102 102"
     version="1.1"
     xmlns="http://www.w3.org/2000/svg">
    <!-- Generator: Sketch 39.1 (31720) - http://www.bohemiancoding.com/sketch -->
    <title>c2c_cancle_icon</title>
    <desc>Created with Sketch.</desc>
    <defs></defs>
    <g id="定稿（2016.11.16）" stroke="none" stroke-width="1" fill="none" fill-rule="evenodd">
        <g id="c2c_cancle_icon" fill="#FFFFFF">
            <g id="c2c_remittance_icon">
                <g id="zhuan-zhang3x">
                    <g id="红包／卡券">
                        <g id="zhuan-zhang3x">
                            <path d="M51,102 C79.1665222,102 102,79.1665222 102,51 C102,22.8334778 79.1665222,0 51,0 C22.8334778,0 0,22.8334778 0,51 C0,79.1665222 22.8334778,102 51,102 L51,102 Z M51,98 C76.9573832,98 98,76.9573832 98,51 C98,25.0426168 76.9573832,4 51,4 C25.0426168,4 4,25.0426168 4,51 C4,76.9573832 25.0426168,98 51,98 L51,98 Z" id="Oval-91"></path>
                        </g>
                    </g>
                </g>
            </g>
            <path d="M60.0467367,37.9109589 C69.1336231,37.9109589 76.5,45.2042856 76.5,54.2054795 C76.5,63.2046947 69.1348869,70.5 60.0467367,70.5 L29.0475527,70.5 C28.7451477,70.5 28.5,70.2565629 28.5,69.9682123 L28.5,65.689322 C28.5,65.3956237 28.7358045,65.1575342 29.0475865,65.1575342 L60.0486867,65.1575342 C66.1527215,65.1575342 71.1067416,60.2541323 71.1067416,54.2054795 C71.1067416,48.1554967 66.1558817,43.2534247 60.0486867,43.2534247 L40.83506,43.2534247 L40.83506,48.9715626 C40.83506,49.5615501 40.4489614,49.7550653 39.9726847,49.402627 L28.8578966,41.1778353 C28.3797832,40.8240379 28.3816199,40.2539816 28.8578966,39.9015433 L39.9726847,31.6767516 C40.4507981,31.3229542 40.83506,31.5173074 40.83506,32.107816 L40.83506,37.9109589 L60.0467367,37.9109589 Z" id="Combined-Shape"></path>
        </g>
    </g>
</svg>