<?xml version="1.0" encoding="UTF-8"?>
<svg width="72px" height="72px" viewBox="0 0 72 72" version="1.1" xmlns="http://www.w3.org/2000/svg" xmlns:xlink="http://www.w3.org/1999/xlink">
    <!-- Generator: Sketch 52.2 (67145) - http://www.bohemiancoding.com/sketch -->
    <title>Artboard</title>
    <desc>Created with Sketch.</desc>
    <g id="Artboard" stroke="none" stroke-width="1" fill="none" fill-rule="evenodd">
        <g id="Icons/Outlined/camera" fill="#FFFFFF">
            <g id="icon20" transform="translate(6.000000, 12.000000)">
                <path d="M37.0733385,3.6 L22.9266615,3.6 L16.9266615,12.6 L3.6,12.6 L3.6,44.4 L56.4,44.4 L56.4,12.6 L43.0733385,12.6 L37.0733385,3.6 Z M38.1972244,0 C38.6987541,1.33226763e-15 39.1671011,0.250651703 39.4452998,0.667949706 L45,9 L57,9 C58.6568542,9 60,10.3431458 60,12 L60,45 C60,46.6568542 58.6568542,48 57,48 L3,48 C1.34314575,48 0,46.6568542 0,45 L0,12 C0,10.3431458 1.34314575,9 3,9 L15,9 L20.5547002,0.667949706 C20.8328989,0.250651703 21.3012459,2.66453526e-15 21.8027756,2.66453526e-15 L38.1972244,0 Z M30,35.4 C34.6391919,35.4 38.4,31.6391919 38.4,27 C38.4,22.3608081 34.6391919,18.6 30,18.6 C25.3608081,18.6 21.6,22.3608081 21.6,27 C21.6,31.6391919 25.3608081,35.4 30,35.4 Z M30,39 C23.372583,39 18,33.627417 18,27 C18,20.372583 23.372583,15 30,15 C36.627417,15 42,20.372583 42,27 C42,33.627417 36.627417,39 30,39 Z" id="图标颜色"></path>
            </g>
        </g>
    </g>
</svg>