<?xml version="1.0" encoding="UTF-8"?>
<svg width="48px" height="48px" viewBox="0 0 48 48" version="1.1" xmlns="http://www.w3.org/2000/svg" xmlns:xlink="http://www.w3.org/1999/xlink">
    <!-- Generator: Sketch Beta 47 (45292) - http://www.bohemiancoding.com/sketch -->
    <title>Icons/Dark/ear</title>
    <desc>Created with Sketch Beta.</desc>
    <defs></defs>
    <g id="Demo" stroke="none" stroke-width="1" fill="none" fill-rule="evenodd" opacity="0.300000012">
        <g id="Icons/Dark/ear" fill-rule="nonzero" fill="#000000">
            <g id="common_icons_ear">
                <path d="M21.9643374,20.013181 C22.2129386,25.1426976 27.1003389,24.293186 30.9819605,28.3616103 C33.5764337,31.0809423 33.4584846,36.539135 32.543254,38.9105315 C30.983482,42.951959 26.8392526,43.5584901 25.7011171,43.56 C22.4123222,43.564363 19.8889639,42.7834755 18.5535309,39.8513741 C17.2180978,36.9192726 18.2158155,32.3606348 15.758889,29.7294754 C13.2372513,27.0290158 8.03764496,21.4904815 10.5841659,13.0479383 C11.66031,9.48017135 15.5356699,3.96 25.7011171,3.96 C34.3844381,3.96 39.9909816,9.7970772 38.3345927,16.3399878 C36.444689,23.8028227 28.6395953,22.5104622 28.6395953,22.5104622 L29.0665398,19.9319698 C29.0718927,19.9328561 29.1326113,19.9408482 29.2406893,19.9509364 C30.3177708,20.0514734 31.5865069,19.9437244 32.7182195,19.4897313 C34.2390182,18.8796541 35.284701,17.7370183 35.800922,15.6985693 C37.0194616,10.8852096 32.7024193,6.5736 25.7011171,6.5736 C18.3573512,6.5736 14.3333505,9.66869684 13.0864156,13.8026909 C11.744799,18.2505851 12.7754904,21.9142696 15.5318155,25.4893577 C16.1420983,26.2809242 16.645678,26.8496617 17.6691485,27.9457115 C19.3039737,29.6964704 19.86245,31.5868744 20.2285852,34.8531207 C20.2475599,35.0223915 20.2629268,35.1638115 20.2953798,35.465388 C20.4988592,37.3543095 20.6403478,38.1276014 20.9320512,38.7680709 C21.6611124,40.368811 22.9132696,40.9500962 25.6976499,40.9464023 C27.3123984,40.9442601 29.3292365,39.9793824 30.1049505,37.9694784 C30.9343267,35.8205337 30.5636223,31.7093123 29.0909633,30.1657818 C28.5907741,29.641521 28.0418679,29.1934039 27.4103624,28.7794646 C26.9920894,28.5052949 26.542842,28.2485025 25.9902529,27.9618228 C25.6728333,27.7971475 24.5730062,27.2507673 24.4471071,27.186814 C21.1242243,25.4988797 19.5262809,23.698556 19.3537553,20.1387444 C19.1781709,16.4881756 21.2797125,14.1888877 24.426254,13.3650552 C25.7068477,13.0297681 26.9880271,12.9656396 28.1478241,13.0473782 C28.3172344,13.0593177 28.4496956,13.0724149 28.5401892,13.0836202 L28.219015,15.6774113 C28.219015,15.6774113 21.7170728,14.8723132 21.9643374,20.013181 Z M21.9643374,20.013181 C22.2129386,25.1426976 27.1003389,24.293186 30.9819605,28.3616103 C33.5764337,31.0809423 33.4584846,36.539135 32.543254,38.9105315 C30.983482,42.951959 26.8392526,43.5584901 25.7011171,43.56 C22.4123222,43.564363 19.8889639,42.7834755 18.5535309,39.8513741 C17.2180978,36.9192726 18.2158155,32.3606348 15.758889,29.7294754 C13.2372513,27.0290158 8.03764496,21.4904815 10.5841659,13.0479383 C11.66031,9.48017135 15.5356699,3.96 25.7011171,3.96 C34.3844381,3.96 39.9909816,9.7970772 38.3345927,16.3399878 C36.444689,23.8028227 28.6395953,22.5104622 28.6395953,22.5104622 L29.0665398,19.9319698 C29.0718927,19.9328561 29.1326113,19.9408482 29.2406893,19.9509364 C30.3177708,20.0514734 31.5865069,19.9437244 32.7182195,19.4897313 C34.2390182,18.8796541 35.284701,17.7370183 35.800922,15.6985693 C37.0194616,10.8852096 32.7024193,6.5736 25.7011171,6.5736 C18.3573512,6.5736 14.3333505,9.66869684 13.0864156,13.8026909 C11.744799,18.2505851 12.7754904,21.9142696 15.5318155,25.4893577 C16.1420983,26.2809242 16.645678,26.8496617 17.6691485,27.9457115 C19.3039737,29.6964704 19.86245,31.5868744 20.2285852,34.8531207 C20.2475599,35.0223915 20.2629268,35.1638115 20.2953798,35.465388 C20.4988592,37.3543095 20.6403478,38.1276014 20.9320512,38.7680709 C21.6611124,40.368811 22.9132696,40.9500962 25.6976499,40.9464023 C27.3123984,40.9442601 29.3292365,39.9793824 30.1049505,37.9694784 C30.9343267,35.8205337 30.5636223,31.7093123 29.0909633,30.1657818 C28.5907741,29.641521 28.0418679,29.1934039 27.4103624,28.7794646 C26.9920894,28.5052949 26.542842,28.2485025 25.9902529,27.9618228 C25.6728333,27.7971475 24.5730062,27.2507673 24.4471071,27.186814 C21.1242243,25.4988797 19.5262809,23.698556 19.3537553,20.1387444 C19.1781709,16.4881756 21.2797125,14.1888877 24.426254,13.3650552 C25.7068477,13.0297681 26.9880271,12.9656396 28.1478241,13.0473782 C28.3172344,13.0593177 28.4496956,13.0724149 28.5401892,13.0836202 L28.219015,15.6774113 C28.219015,15.6774113 21.7170728,14.8723132 21.9643374,20.013181 Z" id="Fill-58"></path>
            </g>
        </g>
    </g>
</svg>