<?xml version="1.0" encoding="UTF-8"?>
<svg width="72px" height="72px" viewBox="0 0 72 72" version="1.1" xmlns="http://www.w3.org/2000/svg" xmlns:xlink="http://www.w3.org/1999/xlink">
    <!-- Generator: Sketch 50.2 (55047) - http://www.bohemiancoding.com/sketch -->
    <title>ChatRoom_Bubble_Voice_Sender@3x</title>
    <desc>Created with Sketch.</desc>
    <defs></defs>
    <g id="ChatRoom_Bubble_Voice_Sender" stroke="none" stroke-width="1" fill="none" fill-rule="evenodd" opacity="0.9">
        <g id="Group-Copy-10">
            <g id="Group-5-Copy-3" transform="translate(36.000000, 36.000000) scale(-1, 1) translate(-36.000000, -36.000000) "></g>
            <path d="M42.8345238,12 C48.8063492,18.1421356 52.5,26.627417 52.5,36 C52.5,45.372583 48.8063492,53.8578644 42.8345238,60 L39.3343452,56.4 C44.4103968,51.1791847 47.55,43.9666956 47.55,36 C47.55,28.0333044 44.4103968,20.8208153 39.3343452,15.6 L42.8345238,12 Z M34.6674405,20.4 C38.549127,24.3923882 40.95,29.907821 40.95,36 C40.95,42.092179 38.549127,47.6076118 34.6674405,51.6 L31.1672619,48 C34.1531746,44.9289322 36,40.6862915 36,36 C36,31.3137085 34.1531746,27.0710678 31.1672619,24 L34.6674405,20.4 Z M26.5003571,28.8 C28.2919048,30.6426407 29.4,33.1882251 29.4,36 C29.4,38.8117749 28.2919048,41.3573593 26.5003571,43.2 L19.5,36 L26.5003571,28.8 Z" id="Combined-Shape" fill="#000000" fill-rule="nonzero" transform="translate(36.000000, 36.000000) scale(-1, 1) translate(-36.000000, -36.000000) "></path>
        </g>
    </g>
</svg>