<?xml version="1.0" encoding="UTF-8" standalone="no"?>
<svg width="50px" height="60px" viewBox="0 0 50 60" version="1.1" xmlns="http://www.w3.org/2000/svg" xmlns:xlink="http://www.w3.org/1999/xlink" xmlns:sketch="http://www.bohemiancoding.com/sketch/ns">
    <!-- Generator: Sketch 3.3.3 (12081) - http://www.bohemiancoding.com/sketch -->
    <title>code_tips_icon</title>
    <desc>Created with Sketch.</desc>
    <defs></defs>
    <g id="Page-1" stroke="none" stroke-width="1" fill="none" fill-rule="evenodd" sketch:type="MSPage">
        <g id="code_tips_icon" sketch:type="MSLayerGroup" fill="#41B618">
            <g id="Page-1" sketch:type="MSShapeGroup">
                <g id="#41b618f2">
                    <path d="M23,0 L27,0 C32.3985686,0.61 37.5602779,3.83 40,9 C42.7120033,13.29 42.0530616,18.67 42,24 C45.0083149,24.14 48.5526221,25.55 49,29 C49.131692,37.37 48.9619646,45.75 49,54 C49.0318523,56.95 46.7754765,59 44,60 L6,60 C3.31528206,59.17 0.979034528,57.02 1,54 C1.03893831,45.76 0.869210926,37.39 1,29 C1.43829686,25.58 4.98260402,24.13 8,24 C7.94784127,18.69 7.30886758,13.34 10,9 C12.3707372,3.92 17.4425908,0.73 23,0 L23,0 L23,0 Z M16,9 C12.1364611,13.4709704 13.1924929,19.1025431 13,24 L37,24 C36.783847,19.3036707 37.8398789,14.0039586 35,10 C30.5871315,3.57549278 20.176251,3.32408329 16,9 L16,9 L16,9 Z" id="Shape"></path>
                </g>
            </g>
        </g>
    </g>
</svg>