<?xml version="1.0" encoding="UTF-8" standalone="no"?>
<svg width="192px" height="192px" viewBox="0 0 192 192" version="1.1" xmlns="http://www.w3.org/2000/svg" xmlns:xlink="http://www.w3.org/1999/xlink" xmlns:sketch="http://www.bohemiancoding.com/sketch/ns">
    <!-- Generator: Sketch 3.3.3 (12081) - http://www.bohemiancoding.com/sketch -->
    <title>default_brand_contact</title>
    <desc>Created with Sketch.</desc>
    <defs></defs>
    <g id="Page-1" stroke="none" stroke-width="1" fill="none" fill-rule="evenodd" sketch:type="MSPage">
        <g id="default_brand_contact" sketch:type="MSLayerGroup">
            <g id="联系人/头像" sketch:type="MSShapeGroup">
                <g id="default_brand_contact">
                    <path d="M0,0 L192,0 L192,192 L0,192 L0,0 L0,0 Z" id="Fill-10" fill="#2782D7"></path>
                    <path d="M56.8913588,44.8 C54.9263156,44.8 53.3333333,46.4084596 53.3333333,48.3545769 L53.3333333,143.645423 C53.3333333,145.608562 54.9243349,147.2 56.8913588,147.2 L135.108641,147.2 C137.073684,147.2 138.666667,145.59154 138.666667,143.645423 L138.666667,48.3545769 C138.666667,46.3914382 137.075665,44.8 135.108641,44.8 L56.8913588,44.8 L56.8913588,44.8 Z M64,76.8 L64,83.2 L108.8,83.2 L108.8,76.8 L64,76.8 L64,76.8 Z M64,89.6 L64,96 L87.4666667,96 L87.4666667,89.6 L64,89.6 L64,89.6 Z M64,102.4 L64,108.8 L91.7333333,108.8 L91.7333333,102.4 L64,102.4 L64,102.4 Z M70.4,55.4666667 C73.9346286,55.4666667 76.8,58.3316288 76.8,61.8657525 C76.8,65.3998763 73.9346286,68.2666667 70.4,68.2666667 C66.8653714,68.2666667 64,65.3998763 64,61.8657525 C64,58.3316288 66.8653714,55.4666667 70.4,55.4666667 L70.4,55.4666667 Z" id="Fill-10" fill="#FFFFFF"></path>
                </g>
            </g>
        </g>
    </g>
</svg>