<?xml version="1.0" encoding="UTF-8" standalone="no"?>
<svg width="192px" height="192px" viewBox="0 0 192 192" version="1.1" xmlns="http://www.w3.org/2000/svg" xmlns:xlink="http://www.w3.org/1999/xlink" xmlns:sketch="http://www.bohemiancoding.com/sketch/ns">
    <!-- Generator: Sketch 3.3 (11970) - http://www.bohemiancoding.com/sketch -->
    <title>default_readerapp</title>
    <desc>Created with Sketch.</desc>
    <defs></defs>
    <g id="模块/插件" stroke="none" stroke-width="1" fill="none" fill-rule="evenodd" sketch:type="MSPage">
        <g id="default_readerapp" sketch:type="MSArtboardGroup">
            <rect id="Rectangle-33" stroke="#F3F3F3" stroke-width="3" fill="#FFFFFF" sketch:type="MSShapeGroup" x="0" y="0" width="192" height="192"></rect>
            <g id="original" sketch:type="MSLayerGroup" transform="translate(29.000000, 27.000000)">
                <path d="M117.544724,97.4566332 C113.776236,90.8305222 105.469051,88.5373139 98.990109,92.3346091 C92.5111666,96.1319043 46.9257415,136.633823 3.31780719,94.430312 C46.1479335,163.201736 106.741261,123.155798 112.637013,116.32988 C118.532766,109.503961 121.313213,104.082744 117.544724,97.4566332 L117.544724,97.4566332 L117.544724,97.4566332 Z" id="Path-2" fill="#E50A13" sketch:type="MSShapeGroup"></path>
                <path d="M64.6878013,8.54336684 C60.9193126,15.1694778 63.1165696,23.619318 69.595512,27.4166132 C76.0744544,31.2139084 133.41934,51.0392387 119.219506,110.478779 C156.473321,38.43909 92.0134815,5.19161703 83.2424165,3.42134281 C74.4713515,1.65106859 68.4562899,1.91725589 64.6878013,8.54336684 L64.6878013,8.54336684 L64.6878013,8.54336684 Z" id="Path-3" fill="#2FB046" sketch:type="MSShapeGroup"></path>
                <path d="M28.9812636,85.7942322 C28.9812636,78.1996418 17.0436297,17.8723928 75.7272727,0.636363636 C-5.57006093,3.904629 -1.64496551,77.1980397 1.27391199,85.7942322 C4.19278948,94.3904248 7.47641392,99.5454545 15.1275878,99.5454545 C22.7787617,99.5454545 28.9812636,93.3888226 28.9812636,85.7942322 Z" id="Path" fill="#FFD801" sketch:type="MSShapeGroup"></path>
                <path d="M89.169279,71.5123967 C87.1758129,67.2287568 85.3782162,64.0893339 85.7586207,59.7878788 C85.1780742,49.6620689 77.0401924,41.4488413 67,41.3636364 C56.9600568,41.4488413 48.822175,49.6620689 48.2413793,59.7878788 C48.6206942,64.0893339 46.8230975,67.2287568 44.830721,71.5123967 C41.1043236,77.520458 42.1595875,85.5395895 43.9780564,85.7493113 C45.028513,85.5395895 47.1604607,84.2743458 49.0940439,82.399449 C49.7482502,84.7164903 51.2272261,87.0403803 53.3573668,89.0991736 C50.3861611,89.7268025 48.4764447,91.2173951 48.2413793,92.4490358 C48.6769214,95.1526122 52.9033319,96.8481571 57.6206897,96.6363636 C61.9539015,96.4336467 65.2592571,95.140769 66.1473354,93.2865014 C66.660586,93.487662 66.8242473,93.4975313 67,93.2865014 C67.1810222,93.4975313 67.3486997,93.487662 67.8526646,93.2865014 C68.7520367,95.140769 72.052372,96.4336467 76.3793103,96.6363636 C81.097252,96.8481571 85.3223237,95.1526122 85.7586207,92.4490358 C85.5234698,91.2167372 83.6140881,89.7268025 80.6426332,89.0991736 C82.7746965,87.0403803 84.2499909,84.7187931 84.9059561,82.399449 C86.842466,84.2753327 88.9707321,85.5395895 90.0219436,85.7493113 C91.841331,85.5395895 92.8959255,77.520458 89.169279,71.5123967" id="Imported-Layers-3" fill="#00A4E3" sketch:type="MSShapeGroup"></path>
            </g>
        </g>
    </g>
</svg>