<?xml version="1.0" encoding="UTF-8" standalone="no"?>
<svg width="192px" height="192px" viewBox="0 0 192 192" version="1.1" xmlns="http://www.w3.org/2000/svg" xmlns:xlink="http://www.w3.org/1999/xlink" xmlns:sketch="http://www.bohemiancoding.com/sketch/ns">
    <!-- Generator: Sketch 3.3 (11970) - http://www.bohemiancoding.com/sketch -->
    <title>default_bottle</title>
    <desc>Created with Sketch.</desc>
    <defs></defs>
    <g id="模块/插件" stroke="none" stroke-width="1" fill="none" fill-rule="evenodd" sketch:type="MSPage">
        <g id="default_bottle" sketch:type="MSArtboardGroup">
            <rect id="Rectangle-134" fill="#2782D7" sketch:type="MSShapeGroup" x="0" y="0" width="192" height="192"></rect>
            <path d="M110.906933,140.570624 C115.396476,133.819484 120.514946,125.826995 125.181894,117.833439 C132.514695,105.273803 118.942276,91.864138 121.058594,88.2393047 L133.681591,66.6186123 L137.246958,68.654201 L140.599835,62.9113872 L114.816214,48.190643 L111.463337,53.9334568 L113.825037,55.2818315 L113.825037,55.2818309 C110.083145,61.6909502 102.824167,74.124141 101.20204,76.9025239 C98.9931827,80.6858582 81.0649663,75.4944716 73.5548523,88.3578084 C67.7328904,98.3296753 53.7409257,118.98361 48.7583729,126.291243 C59.0704111,125.450916 74.2474922,125.950909 88.187304,133.061816 C96.1974368,137.147905 103.822684,139.494399 110.906933,140.570624 L110.906933,140.570624 Z M132.080641,36.4137931 L124.874233,49.8094676 L135.35979,56.0263653 L149.975325,45.1047864 L132.080641,36.4137931 Z M157.39185,138.753993 C157.39185,138.753993 137.742198,158.595612 114.862812,158.595611 C65.0383016,158.595611 84.342834,136.6334 26.4827586,134.372117 C26.4792657,134.377469 58.0879323,125.800521 85.2693045,138.753993 C126.682773,158.48987 157.39185,138.753993 157.39185,138.753993 Z" id="Path-4" fill="#FFFFFF" sketch:type="MSShapeGroup"></path>
        </g>
    </g>
</svg>