<?xml version="1.0" encoding="UTF-8"?>
<svg width="72px" height="72px" viewBox="0 0 72 72" version="1.1" xmlns="http://www.w3.org/2000/svg" xmlns:xlink="http://www.w3.org/1999/xlink">
    <!-- Generator: Sketch 52.2 (67145) - http://www.bohemiancoding.com/sketch -->
    <title>Icons_Outlined_sticker_nor</title>
    <desc>Created with Sketch.</desc>
    <g id="Icons_Outlined_sticker_nor" stroke="none" stroke-width="1" fill="none" fill-rule="evenodd" fill-opacity="0.9">
        <g id="Icons/Tint-Color/Black" transform="translate(6.000000, 6.000000)" fill="#000000">
            <path d="M30,60 C13.4314575,60 0,46.5685425 0,30 C0,13.4314575 13.4314575,0 30,0 C46.5685425,0 60,13.4314575 60,30 C60,46.5685425 46.5685425,60 30,60 Z M30,56.4 C44.5803174,56.4 56.4,44.5803174 56.4,30 C56.4,15.4196826 44.5803174,3.6 30,3.6 C15.4196826,3.6 3.6,15.4196826 3.6,30 C3.6,44.5803174 15.4196826,56.4 30,56.4 Z M12,31.5 L48,31.5 C48,41.4411255 39.9411255,49.5 30,49.5 C20.0588745,49.5 12,41.4411255 12,31.5 Z M30,45.9 C36.7098219,45.9 42.347783,41.310818 43.9463371,35.1 L16.0536629,35.1 C17.652217,41.310818 23.2901781,45.9 30,45.9 Z M19.5,25.5 C17.0147186,25.5 15,23.4852814 15,21 C15,18.5147186 17.0147186,16.5 19.5,16.5 C21.9852814,16.5 24,18.5147186 24,21 C24,23.4852814 21.9852814,25.5 19.5,25.5 Z M40.5,25.5 C38.0147186,25.5 36,23.4852814 36,21 C36,18.5147186 38.0147186,16.5 40.5,16.5 C42.9852814,16.5 45,18.5147186 45,21 C45,23.4852814 42.9852814,25.5 40.5,25.5 Z" id="图标颜色"></path>
        </g>
    </g>
</svg>