<?xml version="1.0" encoding="UTF-8" standalone="no"?>
<svg width="84px" height="84px" viewBox="0 0 84 84" version="1.1" xmlns="http://www.w3.org/2000/svg" xmlns:xlink="http://www.w3.org/1999/xlink" xmlns:sketch="http://www.bohemiancoding.com/sketch/ns">
    <!-- Generator: Sketch 3.3.3 (12072) - http://www.bohemiancoding.com/sketch -->
    <title>fav_addtab_normal</title>
    <desc>Created with Sketch.</desc>
    <defs></defs>
    <g id="Page-1" stroke="none" stroke-width="1" fill="none" fill-rule="evenodd" sketch:type="MSPage">
        <g id="#5f5f5fff" sketch:type="MSLayerGroup" transform="translate(11.000000, 11.000000)" fill="#5F5F5F">
            <path d="M35.23,1.25 C37.08,0.35 38.8,1.79 40.01,3.04 C46.31,9.38 52.63,15.7 58.97,22 C60.26,23.23 61.63,24.95 60.74,26.83 C59.31,28.98 57.27,30.63 55.48,32.47 C46.81,41.15 38.11,49.79 29.48,58.5 C28.24,59.68 26.96,61.22 25.05,60.97 C18.33,61.03 11.6,61.04 4.88,60.97 C2.66,61.25 0.75,59.24 1.03,57.05 C1.13,49.75 0.64,42.39 1.29,35.13 C9.14,26.42 17.85,18.46 26.03,10.03 C29.15,7.16 31.77,3.72 35.23,1.25 L35.23,1.25 Z M16.24,38.27 C12.02,39.37 10.54,45.33 13.78,48.25 C16.71,51.46 22.67,49.96 23.73,45.74 C25.3,41.39 20.58,36.69 16.24,38.27 L16.24,38.27 Z" id="Shape" sketch:type="MSShapeGroup"></path>
        </g>
    </g>
</svg>