<?xml version="1.0" encoding="UTF-8" standalone="no"?>
<svg width="135px" height="135px" viewBox="0 0 135 135" version="1.1" xmlns="http://www.w3.org/2000/svg" xmlns:xlink="http://www.w3.org/1999/xlink" xmlns:sketch="http://www.bohemiancoding.com/sketch/ns">
    <!-- Generator: Sketch 3.3.3 (12072) - http://www.bohemiancoding.com/sketch -->
    <title>fav_search_location</title>
    <desc>Created with Sketch.</desc>
    <defs></defs>
    <g id="Page-1" stroke="none" stroke-width="1" fill="none" fill-rule="evenodd" sketch:type="MSPage">
        <g id="#5e6971ff" sketch:type="MSLayerGroup" fill="#5E6971">
            <path d="M64.55,0 L70.3,0 C86.56,0.74 102.48,7.43 114.19,18.78 C126.68,30.59 134.15,47.34 135,64.49 L135,70.32 C134.22,87.76 126.52,104.8 113.7,116.69 C102.11,127.71 86.51,134.18 70.57,135 L64.68,135 C48.42,134.25 32.49,127.56 20.79,116.2 C8.3,104.4 0.86,87.65 0,70.53 L0,64.73 C0.78,47.27 8.46,30.2 21.31,18.3 C32.92,7.27 48.57,0.79 64.55,0 L64.55,0 Z M57.57,3.76 C42.77,6.03 28.87,13.67 19.03,24.97 C8.86,36.44 3.07,51.66 3.01,66.99 C2.83,82.17 8.26,97.33 18.07,108.92 C28.27,121.18 43.18,129.42 59.01,131.44 C73.12,133.33 87.84,130.41 100.1,123.15 C112.86,115.71 122.92,103.74 128,89.86 C133.51,75.09 133.3,58.28 127.43,43.65 C121.49,28.59 109.62,15.99 94.96,9.14 C83.41,3.65 70.2,1.81 57.57,3.76 L57.57,3.76 Z" id="Shape" sketch:type="MSShapeGroup"></path>
            <path d="M52.64,42.68 C60.99,35.84 74,35.84 82.36,42.67 C90.3,48.74 93.47,59.94 90.25,69.35 C86.23,81.43 77.11,90.99 67.54,99.01 C58.06,91.23 49.2,81.82 44.99,70.09 C41.41,60.53 44.46,48.9 52.64,42.68 L52.64,42.68 Z M63.25,50.28 C57.51,52.32 54.12,59.12 56,64.93 C57.68,71.09 64.79,74.99 70.89,73.01 C77.08,71.35 80.99,64.21 79.01,58.11 C77.27,51.6 69.49,47.69 63.25,50.28 L63.25,50.28 Z" id="Shape" sketch:type="MSShapeGroup"></path>
        </g>
    </g>
</svg>