<?xml version="1.0" encoding="UTF-8" standalone="no"?>
<svg width="135px" height="135px" viewBox="0 0 135 135" version="1.1" xmlns="http://www.w3.org/2000/svg" xmlns:xlink="http://www.w3.org/1999/xlink" xmlns:sketch="http://www.bohemiancoding.com/sketch/ns">
    <!-- Generator: Sketch 3.3.3 (12072) - http://www.bohemiancoding.com/sketch -->
    <title>fav_search_url_pressed</title>
    <desc>Created with Sketch.</desc>
    <defs></defs>
    <g id="Page-1" stroke="none" stroke-width="1" fill="none" fill-rule="evenodd" sketch:type="MSPage">
        <g id="#737f88ff" sketch:type="MSLayerGroup" fill="#737F88">
            <path d="M64.37,0 L70.41,0 C86.4,0.78 102.07,7.26 113.69,18.31 C126.46,30.13 134.11,47.06 135,64.4 L135,70.11 C134.29,87.62 126.57,104.75 113.7,116.69 C102.14,127.69 86.56,134.15 70.66,135 L64.54,135 C48.58,134.22 32.94,127.74 21.33,116.72 C8.45,104.8 0.75,87.69 0,70.19 L0,64.6 C0.82,47.2 8.48,30.19 21.29,18.33 C32.86,7.32 48.45,0.85 64.37,0 L64.37,0 Z M32.34,64.88 C30.34,73.02 36.53,81.88 44.84,82.83 C51.28,83.27 57.75,82.79 64.2,83.08 C61.81,81.49 59.91,79.33 58.31,76.98 C54.19,76.94 50.06,77.15 45.95,76.91 C41.54,76.53 37.91,72.42 38.01,68 C37.91,63.56 41.57,59.46 46.01,59.09 C51.03,58.86 56.07,59.06 61.11,58.99 C64.5,58.8 68.02,60.4 69.73,63.4 C71.54,66.22 71.07,69.7 69.96,72.68 C71.75,73.73 73.78,74.09 75.83,74.09 C78.41,67.82 76.57,60.06 71.01,56.04 C64.73,51.05 56.35,53.63 49.03,52.99 C41.5,52.14 33.75,57.31 32.34,64.88 L32.34,64.88 Z M71.19,52.99 C73.28,54.72 75.14,56.72 76.64,58.99 C81.25,59.21 85.95,58.54 90.52,59.38 C96.63,60.87 99.12,69.28 94.82,73.86 C91.46,78.03 85.67,76.86 81,77 C76.2,76.7 70.4,78.25 66.64,74.36 C63.63,71.55 63.47,66.96 65.07,63.38 C63.3,62.26 61.24,61.92 59.17,61.91 C56.49,68.39 58.6,76.52 64.57,80.4 C69.63,84.08 76.16,82.78 81.99,83 C85.94,82.83 90.17,83.68 93.84,81.8 C99.98,79.33 103.92,72.4 102.84,65.85 C101.93,58.77 95.26,52.84 88.09,52.98 C82.45,53 76.82,53.02 71.19,52.99 L71.19,52.99 Z" id="Shape" sketch:type="MSShapeGroup"></path>
        </g>
    </g>
</svg>