<?xml version="1.0" encoding="UTF-8" standalone="no"?>
<svg width="84px" height="84px" viewBox="0 0 84 84" version="1.1" xmlns="http://www.w3.org/2000/svg" xmlns:xlink="http://www.w3.org/1999/xlink" xmlns:sketch="http://www.bohemiancoding.com/sketch/ns">
    <!-- Generator: Sketch 3.3.3 (12072) - http://www.bohemiancoding.com/sketch -->
    <title>fav_forward_pressed</title>
    <desc>Created with Sketch.</desc>
    <defs></defs>
    <g id="Page-1" stroke="none" stroke-width="1" fill="none" fill-rule="evenodd" sketch:type="MSPage">
        <g id="#3f3f3fff" sketch:type="MSLayerGroup" transform="translate(8.000000, 12.000000)" fill="#3F3F3F">
            <path d="M46.01,0.01 C53.34,6.17 60.67,12.33 68,18.5 C60.71,24.71 53.33,30.82 46,36.99 L46,25.98 C38.85,26.16 30.92,26.38 25.14,31.16 C21.72,33.97 19.85,38.1 17.97,41.99 C18.18,31.93 21.12,20.86 29.63,14.65 C34.27,11.04 40.36,10.72 45.99,11.02 C46,7.35 45.99,3.68 46.01,0.01 L46.01,0.01 Z" id="Shape" sketch:type="MSShapeGroup"></path>
            <path d="M1,14.89 C0.71,13.12 1.88,10.94 3.88,11.06 C9.91,10.89 15.95,11.07 21.98,10.99 C20.16,13.11 18.66,15.48 17.45,17.99 C14.3,18 11.15,18 8,18 L8,52 L54,52 L54,40.15 C56.31,38.17 58.64,36.2 60.99,34.26 C60.97,41.54 61.08,48.82 60.94,56.1 C61.02,58.07 58.92,59.33 57.12,58.99 C39.71,59 22.31,59 4.91,59 C3.11,59.32 0.93,58.1 1.05,56.09 C0.93,42.36 1.03,28.62 1,14.89 L1,14.89 Z" id="Shape" sketch:type="MSShapeGroup"></path>
        </g>
    </g>
</svg>