<?xml version="1.0" encoding="UTF-8" standalone="no"?>
<svg width="108px" height="108px" viewBox="0 0 108 108" version="1.1" xmlns="http://www.w3.org/2000/svg" xmlns:xlink="http://www.w3.org/1999/xlink" xmlns:sketch="http://www.bohemiancoding.com/sketch/ns">
    <!-- Generator: Sketch 3.3.3 (12081) - http://www.bohemiancoding.com/sketch -->
    <title>find_more_friend_bottle</title>
    <desc>Created with Sketch.</desc>
    <defs></defs>
    <g id="模块/插件" stroke="none" stroke-width="1" fill="none" fill-rule="evenodd" sketch:type="MSPage">
        <g id="find_more_friend_bottle" sketch:type="MSArtboardGroup">
            <rect id="Rectangle-133" sketch:type="MSShapeGroup" x="0" y="0" width="96" height="96"></rect>
            <path d="M63.7950406,76.0313558 C66.1239911,72.5292022 68.7791972,68.3830987 71.2001765,64.2364411 C75.0040669,57.7211299 67.9633748,50.7648664 69.0612148,48.8844841 L75.6093945,37.66875 L77.4589284,38.7247116 L79.1982333,35.7456269 L65.8229799,28.1092409 L64.083675,31.0883255 L65.3088069,31.7877949 L65.3088071,31.7877946 C63.3677006,35.1125252 59.6021058,41.562243 58.7606271,43.0035291 C57.6147825,44.9661338 48.3145202,42.273102 44.4186486,48.9459579 C41.3985059,54.1188639 34.1401742,64.8330923 31.5554749,68.6239272 C36.9048447,68.1880077 44.7779555,68.4473787 52.0092329,72.1361617 C56.1644893,74.2558203 60.1200863,75.4730642 63.7950406,76.0313558 L63.7950406,76.0313558 Z M74.7789015,22 L71.0405774,28.9490062 L76.4799599,32.1740218 L84.0617686,26.5084528 L74.7789015,22 Z M87.9090909,75.0889787 C87.9090909,75.0889787 77.7158341,85.3818184 65.8471525,85.3818182 C40.0006879,85.3818178 50.0149141,73.9889209 20,72.8158804 C19.998188,72.8186567 36.3951839,68.3693653 50.4955207,75.0889789 C71.9787572,85.3269647 87.9090909,75.0889787 87.9090909,75.0889787 Z" id="Path-3" fill="#10AEFF" sketch:type="MSShapeGroup"></path>
        </g>
    </g>
</svg>