<?xml version="1.0" encoding="UTF-8" standalone="no"?>
<svg width="96px" height="96px" viewBox="0 0 96 96" version="1.1" xmlns="http://www.w3.org/2000/svg" xmlns:xlink="http://www.w3.org/1999/xlink" xmlns:sketch="http://www.bohemiancoding.com/sketch/ns">
    <!-- Generator: Sketch 3.3.3 (12072) - http://www.bohemiancoding.com/sketch -->
    <title>find_more_friend_mobile_icon</title>
    <desc>Created with Sketch.</desc>
    <defs></defs>
    <g id="Page-1" stroke="none" stroke-width="1" fill="none" fill-rule="evenodd" sketch:type="MSPage">
        <g id="find_more_friend_mobile_icon" sketch:type="MSLayerGroup" transform="translate(18.000000, 18.000000)" fill="#4EC326">
            <g id="Page-1" sketch:type="MSShapeGroup">
                <g id="find_more_friend_mobile_icon">
                    <path d="M2.1112194,10.565054 C4.58766622,6.59159721 8.45212155,3.60651288 12.4264193,1.2503928 C14.263783,0.212102599 15.3522214,2.66805827 16.3308173,3.77623339 C18.9370779,7.84952573 22.2623069,11.4535908 24.4891119,15.7465214 C22.9513183,19.6900275 17.7188258,20.53863 14.3137114,22.535342 C15.7216913,27.8266286 19.1567627,32.2493455 22.8714329,36.1529173 C27.2451575,40.695437 32.2679509,44.8985156 38.4091396,46.7554577 C40.0967183,43.2811789 41.4647554,39.4874263 44.1908441,36.6620789 C45.83848,36.1728844 47.1765602,37.6604348 48.494669,38.4191854 C52.0895111,41.2345492 56.0638089,43.5607186 59.5288373,46.5358194 C60.6472326,47.7138794 59.5088659,49.1415284 58.8498115,50.1997858 C56.333422,53.6241467 53.6772331,57.2282117 49.8127778,59.2249237 C46.7971046,60.8123097 43.3420619,59.6542167 40.3962884,58.4861403 C23.5205016,51.3678622 9.69034496,37.4807308 2.52063198,20.6384656 C1.17256617,17.5036279 0.104099193,13.6799246 2.1112194,10.565054 L2.1112194,10.565054 L2.1112194,10.565054 Z" id="Shape"></path>
                </g>
            </g>
        </g>
    </g>
</svg>