<?xml version="1.0" encoding="UTF-8" standalone="no"?>
<svg width="108px" height="108px" viewBox="0 0 108 108" version="1.1" xmlns="http://www.w3.org/2000/svg" xmlns:xlink="http://www.w3.org/1999/xlink" xmlns:sketch="http://www.bohemiancoding.com/sketch/ns">
    <!-- Generator: Sketch 3.3.3 (12081) - http://www.bohemiancoding.com/sketch -->
    <title>find_more_friend_photograph_icon</title>
    <desc>Created with Sketch.</desc>
    <defs></defs>
    <g id="模块/插件" stroke="none" stroke-width="1" fill="none" fill-rule="evenodd" sketch:type="MSPage">
        <g id="find_more_friend_photograph_icon" sketch:type="MSArtboardGroup">
            <g id="Group" sketch:type="MSLayerGroup" transform="translate(21.000000, 21.000000)">
                <path d="M42.4625955,24.9588042 C42.7502353,25.2520534 43.0230484,25.5594595 43.284,25.879 L43.284,2.45243364 C40.1654306,1.43718469 36.8471936,0.879 33.3994693,0.879 C29.1165021,0.879 25.0312256,1.7344787 21.284,3.26948659 L42.4744569,24.947681 L42.4625955,24.9588042 L42.4625955,24.9588042 Z" id="Path" fill="#F86161" sketch:type="MSShapeGroup"></path>
                <path d="M33.0854526,20.8213089 C33.0933184,20.8213089 33.1011842,20.8203311 33.10905,20.8203311 C33.5052883,20.8203311 33.8966106,20.8437986 34.284,20.879 L18.196525,4.879 C11.5538785,8.30526658 6.25136338,13.9433525 3.284,20.8193532 L33.0854526,20.8193532 L33.0854526,20.8213089 L33.0854526,20.8213089 Z" id="Path" fill="#FFC000" sketch:type="MSShapeGroup"></path>
                <path d="M46.3436176,3.879 L46.3436176,33.6804578 C46.3436176,34.0852114 46.3211388,34.4840705 46.284,34.879 L62.284,18.7959387 C58.8603851,12.1499238 53.2221223,6.84588322 46.3436176,3.879 L46.3436176,3.879 Z" id="Path" fill="#6C5AF1" sketch:type="MSShapeGroup"></path>
                <path d="M4.284,48.9686152 C7.70426507,55.6076819 13.3320669,60.9083223 20.198982,63.879 L20.198982,34.1014688 L20.2243897,34.1014688 C20.2243897,34.0936072 20.2234124,34.0867284 20.2234124,34.0798496 C20.2234124,33.6739978 20.2458885,33.2740422 20.284,32.879 L4.284,48.9686152 L4.284,48.9686152 Z" id="Path" fill="#B1EB4C" sketch:type="MSShapeGroup"></path>
                <path d="M24.1294693,42.8244163 C23.8328134,42.5234184 23.5509903,42.2082796 23.284,41.879 L23.284,65.2992658 C26.4117418,66.3184166 29.7392319,66.879 33.1972506,66.879 C37.4690953,66.879 41.5441582,66.0295394 45.284,64.5043485 L24.0938706,42.8607785 L24.1294693,42.8244163 L24.1294693,42.8244163 Z" id="Path" fill="#5AED56" sketch:type="MSShapeGroup"></path>
                <path d="M63.9021818,21.879 L42.2405657,43.067808 L42.2183434,43.0460709 C41.9213737,43.3375467 41.6082424,43.6151897 41.284,43.879 L64.7052121,43.879 C65.724404,40.7547747 66.284,37.4299746 66.284,33.9747514 C66.284,29.6984557 65.4314747,25.6197707 63.9021818,21.879 L63.9021818,21.879 Z" id="Path" fill="#3CB2EF" sketch:type="MSShapeGroup"></path>
                <path d="M33.5065214,46.939558 C33.0941045,46.939558 32.6865974,46.9170929 32.284,46.879 L48.3692392,62.879 C55.0111143,59.461382 60.3136167,53.8324216 63.284,46.9639765 L33.5065214,46.9639765 L33.5065214,46.939558 L33.5065214,46.939558 Z" id="Path" fill="#56E2EE" sketch:type="MSShapeGroup"></path>
                <path d="M24.352681,24.7129404 C24.6489638,24.4211107 24.9614259,24.1431306 25.284,23.879 L1.85743364,23.879 C0.842184686,27.0000936 0.284,30.3210163 0.284,33.7715311 C0.284,38.0520294 1.13644509,42.134677 2.66740816,45.879 L24.3274009,24.688209 L24.352681,24.7129404 L24.352681,24.7129404 Z" id="Path" fill="#EED94D" sketch:type="MSShapeGroup"></path>
            </g>
        </g>
    </g>
</svg>