<?xml version="1.0" encoding="UTF-8" standalone="no"?>
<svg width="108px" height="108px" viewBox="0 0 108 108" version="1.1" xmlns="http://www.w3.org/2000/svg" xmlns:xlink="http://www.w3.org/1999/xlink" xmlns:sketch="http://www.bohemiancoding.com/sketch/ns">
    <!-- Generator: Sketch 3.3.3 (12081) - http://www.bohemiancoding.com/sketch -->
    <title>find_more_friend_shake</title>
    <desc>Created with Sketch.</desc>
    <defs></defs>
    <g id="模块/插件" stroke="none" stroke-width="1" fill="none" fill-rule="evenodd" sketch:type="MSPage">
        <g id="find_more_friend_shake" sketch:type="MSArtboardGroup">
            <g id="hand" sketch:type="MSLayerGroup" transform="translate(21.000000, 21.000000)">
                <path d="M63.6838605,53.5025692 L50.1768837,3.7466191 C49.5184186,1.3210885 46.9935349,-0.11665575 44.5377209,0.531768421 L17.8506977,7.59171384 C16.6227907,7.91592593 15.6895814,8.62343548 15.0541395,9.70818246 C14.4186977,10.7959595 14.2652093,11.9443368 14.5936744,13.1563446 L28.1006512,62.9107797 C28.4291163,64.1243025 29.1443721,65.0439135 30.2448837,65.6711275 C31.3469302,66.2983415 32.511907,66.4513575 33.7382791,66.1256304 L60.4253023,59.0672 C62.884186,58.4202908 64.3423256,55.9280998 63.6838605,53.5025692 L63.6838605,53.5025692 Z" id="Shape" fill="#87D6FF" sketch:type="MSShapeGroup"></path>
                <path d="M22.1724907,12.9514455 L43.5871883,7.28833902 C45.0422581,6.90352654 46.5310953,7.72769184 46.9117465,9.12907586 L57.451793,47.9572607 C57.8324441,49.3586447 56.9606302,50.806994 55.5040255,51.1918065 L34.0893279,56.8549129 C32.6342581,57.2397254 31.1454209,56.4170751 30.7647697,55.0156911 L20.2247232,16.1859913 C19.8456069,14.7861223 20.7174209,13.3377729 22.1724907,12.9514455 L22.1724907,12.9514455 Z" id="Shape" fill="#FFFFFF" sketch:type="MSShapeGroup"></path>
                <path d="M63.1666047,21.7913909 C62.634,19.6855274 60.6355814,18.4235243 58.700093,18.9780178 L46.8170233,22.3625496 C44.8815349,22.9155282 43.744186,25.071387 44.2752558,27.1787656 C44.8078605,29.2861441 46.8062791,30.5451172 48.7433023,29.9936537 L60.6248372,26.6060919 C62.5603256,26.0546284 63.6976744,23.8987695 63.1666047,21.7913909 L63.1666047,21.7913909 Z M66.237907,39.9018174 C65.7083721,37.8398892 63.7176279,36.6036412 61.7928837,37.1460147 L54.4776279,39.1973379 C52.5513488,39.7366814 51.4186047,41.848605 51.9481395,43.9090182 C52.4776744,45.9739765 54.4684186,47.2087094 56.3946977,46.667851 L63.7099535,44.6165278 C65.6346977,44.0786993 66.7674419,41.9652607 66.237907,39.9018174 L66.237907,39.9018174 Z M53.2251628,37.6035477 L62.2364651,35.1477169 C64.1228372,34.6326135 65.234093,32.6206806 64.7153023,30.655713 C64.1965116,28.6892303 62.2456744,27.5135827 60.3577674,28.0286861 L51.348,30.4860319 C49.460093,31.0026502 48.3503721,33.0115531 48.8691628,34.9780358 C49.3864186,36.9414884 51.3372558,38.118651 53.2251628,37.6035477 L53.2251628,37.6035477 Z M13.5745116,17.0630455 C11.7096279,18.9613527 11.5116279,22.3837597 11.5116279,25.998573 C11.5116279,29.5982362 14.388,34.9401605 14.1424186,38.0459305 C13.9689767,40.2396646 6.35134884,46.2997036 1.6975814,49.7190806 C-0.765906977,51.5295172 0.0675348837,53.3005636 2.112,55.0519149 C5.88013953,58.2819157 10.4203256,61.6755375 13.1631628,64.1753036 C17.8184651,68.4188459 28.3953488,53.2687484 28.3953488,53.2687484 L20.7209302,24.4850783 C20.7209302,24.4850783 27.667814,26.9484841 31.6109302,26.0076631 C35.5540465,25.071387 36.0697674,20.717249 36.0697674,20.717249 C36.0697674,20.717249 23.2166512,13.3073363 21.1614419,12.8376833 C19.1062326,12.3634853 15.4393953,15.1632233 13.5745116,17.0630455 L13.5745116,17.0630455 Z M48.6205116,20.9384404 L57.631814,18.4826096 C59.5197209,17.9675063 60.6294419,15.9555734 60.1106512,13.9906057 C59.5918605,12.0241231 57.6410233,10.8484755 55.7531163,11.3635788 L46.7433488,13.8224397 C44.8554419,14.334513 43.7457209,16.3464459 44.2645116,18.3129286 C44.7817674,20.2778962 46.7326047,21.4535438 48.6205116,20.9384404 L48.6205116,20.9384404 Z" id="Shape" fill="#10AEFF" sketch:type="MSShapeGroup"></path>
            </g>
        </g>
    </g>
</svg>