<?xml version="1.0" encoding="UTF-8" standalone="no"?>
<svg width="108px" height="108px" viewBox="0 0 108 108" version="1.1" xmlns="http://www.w3.org/2000/svg" xmlns:xlink="http://www.w3.org/1999/xlink" xmlns:sketch="http://www.bohemiancoding.com/sketch/ns">
    <!-- Generator: Sketch 3.3.3 (12081) - http://www.bohemiancoding.com/sketch -->
    <title>find_more_friend_scan</title>
    <desc>Created with Sketch.</desc>
    <defs></defs>
    <g id="模块/插件" stroke="none" stroke-width="1" fill="none" fill-rule="evenodd" sketch:type="MSPage">
        <g id="find_more_friend_scan" sketch:type="MSArtboardGroup" fill="#10AEFF">
            <path d="M83.536,51.622 C83.706,50.222 82.506,49.728 81.518,49.842 C77.568,50.3 75.446,56.019 76,57.999 C76.771,60.757 74.209,64.999 72,64.999 L43.992,64.999 C42.34,64.999 41,66.339 41,67.992 L41,68.992 C41,70.653 42.346,71.999 44.007,71.999 L55.412,71.999 C59.928,82.978 64.233,85.999 68,85.999 L75,85.999 C82.11,85.999 86,80.155 86,74.999 C86,63.905 82.28,61.959 83.536,51.622 L83.536,51.622 Z M68,39.006 C68,37.345 66.654,35.999 64.993,35.999 L52.962,35.999 C51.374,31.975 49,26.999 49,26.999 C47.568,23.262 43.749,22.312 40.952,22.077 C40.83,22.067 40.734,22.058 40.64,22.052 C40.429,22.029 40.219,22 40,22 L34,22 C25.557,22 22,27.843 22,33 C22,44.094 25.721,46.039 24.465,56.377 C24.295,57.776 25.495,58.271 26.483,58.156 C30.433,57.698 32.555,51.98 32.001,49.999 C31.23,47.241 32.2000432,45.572628 32.5472612,44.9799922 C33.2415842,43.7949136 34.5284133,42.999 36.001,42.999 L65.008,42.999 C66.661,42.998 68,41.659 68,40.006 L68,39.006 Z" id="Shape" sketch:type="MSShapeGroup"></path>
        </g>
    </g>
</svg>