<?xml version="1.0" encoding="UTF-8" standalone="no"?>
<svg width="76px" height="76px" viewBox="0 0 76 76" version="1.1" xmlns="http://www.w3.org/2000/svg" xmlns:xlink="http://www.w3.org/1999/xlink">
    <!-- Generator: Sketch 3.7.2 (28276) - http://www.bohemiancoding.com/sketch -->
    <title>fts_momentrw@3x</title>
    <desc>Created with Sketch.</desc>
    <defs></defs>
    <g id="入口-－-定稿" stroke="none" stroke-width="1" fill="none" fill-rule="evenodd">
        <g id="Artboard-3" transform="translate(-529.000000, -427.000000)" fill="#555555">
            <g id="icon" transform="translate(534.000000, 434.000000)">
                <path d="M64,10 L64,10 C64,9.88268613 63.9919792,9.80729948 63.9844569,9.77497087 C63.9956646,9.82313829 64.0275349,9.90492675 64.0932907,10.0147293 C64.4119952,10.5469191 65.0796366,11 66,11 L56,11 L59,8 L59,58 C59,58.1304377 59.051326,58.2270508 59.2744103,58.3882086 C59.7733579,58.748652 60.6939925,59 62,59 C63.3343816,59 64,58.4509184 64,58 L64,10 Z M67,10 L67,10 L67,58 C67,60.1867532 64.9529529,62 62,62 C58.0470471,62 56,60.1867532 56,58 L56,8 L66,8 C66.445517,8 67,8.59575929 67,10 L67,10 Z" id="Combined-Shape"></path>
                <path d="M58.1105342,62 C56.9593014,60.3287394 56.2707368,58.5181464 55.9983788,56.3201309 L55.9756098,56.1363778 L55.9756098,55.9512195 L55.9756098,3.02439024 L55.9756098,2.7550221 L56.0235957,2.48996259 C56.0167197,2.52794364 56.0814606,2.7649929 56.2694274,2.95290146 C56.3363341,3.01978741 56.3857957,3.04971909 56.39374,3.05246629 C56.3083099,3.02292366 56.1594905,3 55.9512195,3 L3.02439024,3 C2.86519173,3 3,2.86538679 3,3.02439024 L3,55.9512195 C3,57.9293766 4.07062342,59 6.04878049,59 L59.8315772,59 C60.3630125,60.1235059 61.0991092,61.0756414 62,62 L58.1105342,62 L58.1105342,62 Z M58.9756098,55.9512195 L58.9756098,55.9512195 C59.3043478,58.6042394 60.3885354,60.3465576 62,62 L6.04878049,62 C2.41376917,62 0,59.5862308 0,55.9512195 L0,3.02439024 C0,1.20537126 1.21150037,0 3.02439024,0 L55.9512195,0 C58.0944923,0 59.3043478,1.2085422 58.9756098,3.02439024 L58.9756098,55.9512195 Z" id="Combined-Shape"></path>
                <rect id="Combined-Shape" x="9" y="25" width="21" height="3" rx="2"></rect>
                <rect id="Rectangle-130-Copy" x="9" y="17" width="21" height="3" rx="2"></rect>
                <path d="M10.4934332,9 L28.5065668,9 C29.3313672,9 30,9.66579723 30,10.5 C30,11.3284271 29.3250769,12 28.5065668,12 L10.4934332,12 C9.66863283,12 9,11.3342028 9,10.5 C9,9.67157288 9.67492314,9 10.4934332,9 Z" id="Rectangle-130"></path>
            </g>
        </g>
    </g>
</svg>