<?xml version="1.0" encoding="utf-8"?>
<!-- Generator: Adobe Illustrator 16.0.0, SVG Export Plug-In . SVG Version: 6.00 Build 0)  -->
<!DOCTYPE svg PUBLIC "-//W3C//DTD SVG 1.1//EN" "http://www.w3.org/Graphics/SVG/1.1/DTD/svg11.dtd">
<svg version="1.1" id="图层_1" xmlns:sketch="http://www.bohemiancoding.com/sketch/ns"
	 xmlns="http://www.w3.org/2000/svg" xmlns:xlink="http://www.w3.org/1999/xlink" x="0px" y="0px" width="138px" height="138px"
	 viewBox="0 0 138 138" enable-background="new 0 0 138 138" xml:space="preserve">
<title>Icon / Default Avatar Copy 3</title>
<desc>Created with Sketch.</desc>
<g>
	<path fill="#FA5151" d="M73.897,30.479c0.854-1.789,0.922-3.724,0.187-5.455c-0.735-1.73-2.182-3.027-4.069-3.65l-1.589-0.526
		c-0.729-0.241-1.474-0.364-2.214-0.364c-3.117,0-5.733,2.199-6.36,5.349l-3.323,16.711c-0.801,4.018,0.389,7.768,2.708,8.536
		c0.296,0.098,0.616,0.148,0.947,0.148c2.219,0,4.827-2.208,6.34-5.371L73.897,30.479z"/>
	<path fill="#FA5151" d="M47.594,58.56c0.231-2.421-2.703-5.081-6.681-6.058l-12.239-3.012c-0.566-0.138-1.137-0.209-1.697-0.209
		c-3.332,0-5.985,2.474-6.312,5.879L20.5,56.885c-0.017,2.081,0.681,3.942,1.969,5.239c1.159,1.168,2.695,1.788,4.44,1.788
		c0.125,0,0.254-0.004,0.381-0.009l12.595-0.654C43.976,63.039,47.36,60.978,47.594,58.56"/>
	<path fill="#FA5151" d="M52.464,71.346c-2.302-0.764-5.469,1.63-7.09,5.333l-11.647,26.619c-0.792,1.809-0.802,3.766-0.028,5.51
		c0.777,1.746,2.24,3.053,4.123,3.682l1.588,0.528l0.159,0.033c0.258,0.021,0.53,0.035,0.816,0.035c3.311,0,7.017-1.533,7.831-4.964
		l6.707-28.261C55.872,75.861,54.79,72.12,52.464,71.346"/>
	<path fill="#FA5151" d="M75.157,75.74c-1.903-2.029-4.316-3.29-6.299-3.29c-0.841,0-1.581,0.238-2.136,0.686
		c-1.913,1.549-1.563,5.401,0.798,8.777l22.801,32.608c1.332,1.903,3.398,2.994,5.667,2.994c1.596,0,3.113-0.545,4.393-1.576
		l1.301-1.052c1.538-1.242,2.457-2.986,2.592-4.903c0.131-1.919-0.54-3.771-1.895-5.212L75.157,75.74z"/>
	<path fill="#FA5151" d="M117.396,55.183c-0.229-4.018-3.695-6.956-7.809-6.362l-33.757,4.917c-4.073,0.597-7.156,2.979-7.019,5.421
		c0.139,2.453,3.477,4.424,7.603,4.486l33.343,0.433l0.116,0.003c2.169,0,4.341-0.931,5.812-2.487
		c1.262-1.336,1.902-3.019,1.805-4.739L117.396,55.183z M109.874,63.373L109.874,63.373v0.002V63.373z"/>
</g>
</svg>
