<?xml version="1.0" encoding="UTF-8" standalone="no"?>
<svg width="46px" height="40px" viewBox="0 0 46 40" version="1.1" xmlns="http://www.w3.org/2000/svg" xmlns:xlink="http://www.w3.org/1999/xlink">
    <!-- Generator: Sketch 44 (41411) - http://www.bohemiancoding.com/sketch -->
    <title>ico-notice@3x </title>
    <desc>Created with Sketch.</desc>
    <defs></defs>
    <g id="=-Slice-=" stroke="none" stroke-width="1" fill="none" fill-rule="evenodd">
        <g id="Artboard" transform="translate(-149.000000, -661.000000)" fill="#FFBE00">
            <path d="M151.073301,700.022663 L151.073301,700.022663 C150.709248,700.022663 150.352099,699.923295 150.040359,699.735272 C149.094511,699.164794 148.790213,697.935569 149.360691,696.989721 L149.360691,696.989721 L170.086084,662.627185 C170.25402,662.348747 170.487313,662.115454 170.765751,661.947517 C171.711599,661.377039 172.940825,661.681337 173.511303,662.627185 L173.511303,662.627185 L194.236695,696.989721 C194.424718,697.301461 194.524085,697.65861 194.524085,698.022663 C194.524085,699.127232 193.628655,700.022663 192.524085,700.022663 L151.073301,700.022663 Z M169.619025,675.991687 L170.286613,687.968802 L173.31001,687.968802 L173.977598,675.991687 C174.023702,675.164544 173.390544,674.456637 172.563401,674.410533 C172.535602,674.408984 172.507765,674.408209 172.479922,674.408209 L171.1167,674.408209 C170.288273,674.408209 169.6167,675.079782 169.6167,675.908209 C169.6167,675.936051 169.617475,675.963888 169.619025,675.991687 Z M171.798311,695.502465 C173.050643,695.502465 174.065859,694.490584 174.065859,693.242366 C174.065859,691.994148 173.050643,690.982267 171.798311,690.982267 C170.54598,690.982267 169.530764,691.994148 169.530764,693.242366 C169.530764,694.490584 170.54598,695.502465 171.798311,695.502465 Z" id="ico-notice@3x-"></path>
        </g>
    </g>
</svg>