<?xml version="1.0" encoding="UTF-8"?>
<svg width="72px" height="72px" viewBox="0 0 72 72" version="1.1" xmlns="http://www.w3.org/2000/svg" xmlns:xlink="http://www.w3.org/1999/xlink">
    <!-- Generator: Sketch 52.2 (67145) - http://www.bohemiancoding.com/sketch -->
    <title>icons_outlined_at</title>
    <desc>Created with Sketch.</desc>
    <g id="icons_outlined_at" stroke="none" stroke-width="1" fill="none" fill-rule="evenodd">
        <g id="icon22" fill="#000000">
            <path d="M33.8085938,24.5625 C28.7109375,24.5625 25.40625,28.8867188 25.40625,35.53125 C25.40625,42.140625 28.6757812,46.4296875 33.7734375,46.4296875 C38.9765625,46.4296875 42.3164062,42.0703125 42.3164062,35.3554688 C42.3164062,28.7460938 39.046875,24.5625 33.8085938,24.5625 Z M34.9335938,6 C50.3394721,6 63.0585938,16.5820312 63.0585938,32.15625 C63.0585938,43.3359375 58.4179688,50.5078125 50.6835938,50.5078125 C46.5,50.5078125 43.1953125,47.9765625 42.6679688,44.0390625 L42.421875,44.0390625 C40.8398438,48.046875 37.5703125,50.2617187 33.2109375,50.2617187 C25.96875,50.2617187 21.046875,44.2851562 21.046875,35.4257812 C21.046875,26.7773437 26.0390625,20.8007812 33.2109375,20.8007812 C37.2890625,20.8007812 40.8398438,23.015625 42.140625,26.4609375 L42.3867188,26.4609375 L42.3867188,21.5039062 L46.4648438,21.5039062 L46.4648438,41.6132812 C46.4648438,44.8125 48.1523438,46.921875 51.3515625,46.921875 C56.0273438,46.921875 59.2265625,41.5429687 59.2265625,32.0859375 C59.2265625,18.65625 48.7145883,9.52711413 34.9335938,9.52711413 C21.1525992,9.52711413 9.8671875,19.576913 9.8671875,35.3203125 C9.8671875,49.9445516 21.9095544,61.0898437 35.3203125,61.0898437 C40.0664062,61.0898437 44.6015625,60.4921875 46.9921875,59.5429687 L46.9921875,63.0234375 C44.1445312,64.0078125 39.9960938,64.5703125 35.2851562,64.5703125 C18.5938485,64.5703125 6,51.9768183 6,35.1796875 C6,18.3825567 19.5277154,6 34.9335938,6 Z" id="@"></path>
        </g>
    </g>
</svg>