<?xml version="1.0" encoding="UTF-8"?>
<svg width="72px" height="72px" viewBox="0 0 72 72" version="1.1" xmlns="http://www.w3.org/2000/svg" xmlns:xlink="http://www.w3.org/1999/xlink">
    <!-- Generator: Sketch 50.2 (55047) - http://www.bohemiancoding.com/sketch -->
    <title>icons_outlined_nearby</title>
    <desc>Created with Sketch.</desc>
    <defs></defs>
    <g id="icons_outlined_nearby" stroke="none" stroke-width="1" fill="none" fill-rule="evenodd">
        <g id="icon16" fill="#000000" fill-rule="nonzero">
            <path d="M21,17.4 C23.1539105,17.4 24.9,15.6539105 24.9,13.5 C24.9,11.3460895 23.1539105,9.6 21,9.6 C18.8460895,9.6 17.1,11.3460895 17.1,13.5 C17.1,15.6539105 18.8460895,17.4 21,17.4 Z M21,21 C16.8578644,21 13.5,17.6421356 13.5,13.5 C13.5,9.35786438 16.8578644,6 21,6 C25.1421356,6 28.5,9.35786438 28.5,13.5 C28.5,17.6421356 25.1421356,21 21,21 Z M51,17.4 C53.1539105,17.4 54.9,15.6539105 54.9,13.5 C54.9,11.3460895 53.1539105,9.6 51,9.6 C48.8460895,9.6 47.1,11.3460895 47.1,13.5 C47.1,15.6539105 48.8460895,17.4 51,17.4 Z M51,21 C46.8578644,21 43.5,17.6421356 43.5,13.5 C43.5,9.35786438 46.8578644,6 51,6 C55.1421356,6 58.5,9.35786438 58.5,13.5 C58.5,17.6421356 55.1421356,21 51,21 Z M23.76511,62.4 L27.2091443,30.2556795 C27.2182432,30.1707567 27.2228024,30.0854088 27.2228024,30 C27.2228024,28.6745166 26.1482858,27.6 24.8228024,27.6 L17.1771976,27.6 C17.0917888,27.6 17.0064409,27.6045592 16.9215181,27.613658 C15.6035779,27.7548659 14.6496478,28.9377392 14.7908557,30.2556795 L18.23489,62.4 L23.76511,62.4 Z M17.1771976,24 L24.8228024,24 C28.1365109,24 30.8228024,26.6862915 30.8228024,30 C30.8228024,30.213522 30.8114044,30.4268918 30.7886573,30.6391987 L27.2871858,63.3195994 C27.1238552,64.8440181 25.8374019,66 24.3042583,66 L17.6957417,66 C16.1625981,66 14.8761448,64.8440181 14.7128142,63.3195994 L11.2113427,30.6391987 C10.858323,27.344348 13.2431482,24.3871648 16.5379989,24.0341451 C16.7503058,24.0113979 16.9636756,24 17.1771976,24 Z M53.76511,62.4 L57.2091443,30.2556795 C57.2182432,30.1707567 57.2228024,30.0854088 57.2228024,30 C57.2228024,28.6745166 56.1482858,27.6 54.8228024,27.6 L47.1771976,27.6 C47.0917888,27.6 47.0064409,27.6045592 46.9215181,27.613658 C45.6035779,27.7548659 44.6496478,28.9377392 44.7908557,30.2556795 L48.23489,62.4 L53.76511,62.4 Z M47.1771976,24 L54.8228024,24 C58.1365109,24 60.8228024,26.6862915 60.8228024,30 C60.8228024,30.213522 60.8114044,30.4268918 60.7886573,30.6391987 L57.2871858,63.3195994 C57.1238552,64.8440181 55.8374019,66 54.3042583,66 L47.6957417,66 C46.1625981,66 44.8761448,64.8440181 44.7128142,63.3195994 L41.2113427,30.6391987 C40.858323,27.344348 43.2431482,24.3871648 46.5379989,24.0341451 C46.7503058,24.0113979 46.9636756,24 47.1771976,24 Z" id="Combined-Shape"></path>
        </g>
    </g>
</svg>