<?xml version="1.0" encoding="UTF-8"?>
<svg width="72px" height="72px" viewBox="0 0 72 72" version="1.1" xmlns="http://www.w3.org/2000/svg" xmlns:xlink="http://www.w3.org/1999/xlink">
    <!-- Generator: Sketch 50.2 (55047) - http://www.bohemiancoding.com/sketch -->
    <title>icons_filled_contacts_hl</title>
    <desc>Created with Sketch.</desc>
    <defs></defs>
    <g id="icons_filled_contacts_hl" stroke="none" stroke-width="1" fill="none" fill-rule="evenodd">
        <g id="common_icons_contacts" fill="#00C777">
            <path d="M3,60 L3,57.94639 C3,55.8911231 4.49445272,53.4957236 6.34229282,52.5939981 L23.3233523,44.307429 C25.7861314,43.1056201 26.3587772,40.4437873 24.5803357,38.3359167 L23.4957381,37.050414 C21.2889529,34.4348555 19.5,29.5484894 19.5,26.1278716 L19.5,20.9987411 C19.5,14.3720194 24.8860685,9 31.5,9 C38.127417,9 43.5,14.3789407 43.5,21.0006224 L43.5,26.1305571 C43.5,29.5478878 41.7027972,34.448581 39.5042615,37.0547191 L38.4196638,38.3403982 C36.6510972,40.436852 37.2035631,43.1051928 39.676647,44.3115311 L56.6577071,52.5946727 C58.5036045,53.4950776 60,55.8755104 60,57.94639 L60,60 C60,61.6568542 58.6568542,63 57,63 L6,63 C4.34314575,63 3,61.6568542 3,60 Z" id="Path-67" fill-rule="nonzero"></path>
            <path d="M60,43.5 L69,43.5 L69,47.1000001 L60,47.1000001 L60,43.5 Z M54,34.5 L69,34.5 L69,38.1000001 L54,38.1000001 L54,34.5 Z M48,25.5 L69,25.5 L69,29.1000001 L48,29.1000001 L48,25.5 Z" id="Combined-Shape"></path>
        </g>
    </g>
</svg>