<?xml version="1.0" encoding="UTF-8"?>
<svg width="72px" height="72px" viewBox="0 0 72 72" version="1.1" xmlns="http://www.w3.org/2000/svg" xmlns:xlink="http://www.w3.org/1999/xlink">
    <!-- Generator: Sketch 52.2 (67145) - http://www.bohemiancoding.com/sketch -->
    <title>icons_outlined_one-day-video</title>
    <desc>Created with Sketch.</desc>
    <g id="icons_outlined_one-day-video" stroke="none" stroke-width="1" fill="none" fill-rule="evenodd">
        <g id="Group" fill="#000000" fill-rule="nonzero">
            <path d="M53.0620363,26.5497112 C52.4592325,25.4630726 52.8514581,24.093509 53.9380968,23.4907052 C55.0247354,22.8879014 56.394299,23.2801271 56.9971028,24.3667657 C62.150023,33.6556296 60.5929539,45.3506983 52.9705627,52.9730894 C43.5979797,62.3456724 28.4020203,62.3456724 19.0294373,52.9730894 C9.65685425,43.6005064 9.65685425,28.4045469 19.0294373,19.0319639 C26.6518284,11.4095728 38.3468971,9.8525036 47.6357609,15.0054238 C48.7223996,15.6082276 49.1146252,16.9777912 48.5118214,18.0644299 C47.9090177,19.1510685 46.539454,19.5432941 45.4528154,18.9404904 C37.9086872,14.7554478 28.4045425,16.0208197 22.2114178,22.2139444 C14.5961941,29.8291681 14.5961941,42.1758852 22.2114178,49.7911089 C29.8266415,57.4063325 42.1733585,57.4063325 49.7885822,49.7911089 C55.981707,43.5979841 57.2470788,34.0938394 53.0620363,26.5497112 Z" id="Path"></path>
        </g>
    </g>
</svg>