<?xml version="1.0" encoding="UTF-8"?>
<svg width="72px" height="72px" viewBox="0 0 72 72" version="1.1" xmlns="http://www.w3.org/2000/svg" xmlns:xlink="http://www.w3.org/1999/xlink">
    <!-- Generator: Sketch 50.2 (55047) - http://www.bohemiancoding.com/sketch -->
    <title>icons_outlined_colorful_game</title>
    <desc>Created with Sketch.</desc>
    <defs></defs>
    <g id="icons_outlined_colorful_game" stroke="none" stroke-width="1" fill="none" fill-rule="evenodd">
        <path d="M62.1088129,34.1999817 L37.8,9.89116882 L37.8,23.5275999 C43.3182363,24.3169218 47.6830648,28.6817436 48.4723967,34.1999766 L44.8199637,34.1999817 C43.98607,30.0919582 40.3541178,27 36,27 C35.3835611,27 34.7815971,27.0619745 34.1999989,27.1800328 L34.1999989,5.76632524 C36.2693764,5.12180048 38.6205289,5.62052894 40.2466152,7.24661525 L64.7533848,31.7533848 C65.4617584,32.4617584 65.9547572,33.304487 66.2336694,34.1999817 L62.1088129,34.1999817 Z" id="Path" fill="#1588F4"></path>
        <path d="M37.8000183,62.1088129 L62.1088312,37.8 L48.4724001,37.8 C47.6830782,43.3182363 43.3182564,47.6830648 37.8000234,48.4723967 L37.8000183,44.8199637 C41.9080418,43.98607 45,40.3541178 45,36 C45,35.3835611 44.9380255,34.7815971 44.8199672,34.1999989 L66.2336748,34.1999989 C66.8781995,36.2693764 66.3794711,38.6205289 64.7533848,40.2466152 L40.2466152,64.7533848 C39.5382416,65.4617584 38.695513,65.9547572 37.8000183,66.2336694 L37.8000183,62.1088129 Z" id="Path" fill="#00C777"></path>
        <path d="M9.89118714,37.8000183 L34.2,62.1088312 L34.2,48.4724001 C28.6817637,47.6830782 24.3169352,43.3182564 23.5276033,37.8000234 L27.1800363,37.8000183 C28.01393,41.9080418 31.6458822,45 36,45 C36.6164389,45 37.2184029,44.9380255 37.8000011,44.8199672 L37.8000011,66.2336748 C35.7306236,66.8781995 33.3794711,66.3794711 31.7533848,64.7533848 L7.24661525,40.2466152 C6.53824162,39.5382416 6.04524276,38.695513 5.76633059,37.8000183 L9.89118714,37.8000183 Z" id="Path" fill="#FA5151"></path>
        <path d="M34.1999817,9.89118714 L9.89116882,34.2 L23.5275999,34.2 C24.3169218,28.6817637 28.6817436,24.3169352 34.1999766,23.5276033 L34.1999817,27.1800363 C30.0919582,28.01393 27,31.6458822 27,36 C27,36.6164389 27.0619745,37.2184029 27.1800328,37.8000011 L5.76632524,37.8000011 C5.12180048,35.7306236 5.62052894,33.3794711 7.24661525,31.7533848 L31.7533848,7.24661525 C32.4617584,6.53824162 33.304487,6.04524276 34.1999817,5.76633059 L34.1999817,9.89118714 Z" id="Path" fill="#FA9D3B"></path>
    </g>
</svg>