<?xml version="1.0" encoding="UTF-8"?>
<svg width="72px" height="72px" viewBox="0 0 72 72" version="1.1" xmlns="http://www.w3.org/2000/svg" xmlns:xlink="http://www.w3.org/1999/xlink">
    <!-- Generator: Sketch 50.2 (55047) - http://www.bohemiancoding.com/sketch -->
    <title>icons_outlined_shake</title>
    <desc>Created with Sketch.</desc>
    <defs></defs>
    <g id="icons_outlined_shake" stroke="none" stroke-width="1" fill="none" fill-rule="evenodd">
        <g id="common_icons_shake" fill="#000000" fill-rule="nonzero">
            <path d="M19.6308397,21.0809636 L18.1421705,15.5251744 C17.7161763,13.9353424 18.6598783,12.3011321 20.2558018,11.8735057 L46.36143,4.87852375 C47.9547505,4.45159479 49.5918738,5.39485583 50.0177228,6.98414593 L52.3522206,15.6966104 L53.8011093,15.3083818 C56.2017068,14.6651437 58.6692231,16.0897649 59.3124612,18.4903624 L64.7476612,38.7748047 C65.3908993,41.1754022 63.9662781,43.6429185 61.5656807,44.2861566 L60.1167919,44.6743852 L62.4512898,53.3868497 C62.877284,54.9766817 61.9335819,56.610892 60.3376584,57.0385184 L34.2320303,64.0335003 C32.6387097,64.4604293 31.0015865,63.5171683 30.5757375,61.9278782 L30.0735045,60.0535192 L23.1903662,64.387652 C21.8514064,65.2307601 20.0878318,64.889002 19.1607372,63.6067616 L8.84277792,49.3362602 C8.78713484,49.2593017 8.73517742,49.1797445 8.68708116,49.0978573 C7.84796483,47.6692041 8.32587885,45.8308138 9.75453199,44.9916974 L15.4363893,41.6544709 C13.3221989,36.0503261 12.7475355,31.4059698 13.7123991,27.7214019 C14.5699883,24.4464873 17.1297269,22.1116656 19.6308397,21.0809636 Z M23.2254114,20.5867557 C26.5650415,21.4193699 36.0998472,29.058358 37.8844184,29.5612733 C39.7257429,30.0801823 40.079449,36.1235083 36.5847967,38.5728731 C35.2336472,39.5198794 33.7217433,40.0246113 32.049085,40.0870688 C30.9339794,40.128707 29.6813204,39.930368 28.2911081,39.4920517 L28.3071265,39.5519748 L33.8926526,60.3974421 L58.8135389,53.7199107 L56.639459,45.6061338 L54.0459121,46.3010726 C52.5571747,46.6999785 51.0083801,45.9058949 50.463319,44.4642384 L42.5196045,23.453557 C41.6406902,21.1288778 42.8127143,18.5318522 45.1373934,17.652938 C45.2772643,17.6000556 45.4196841,17.554178 45.5641228,17.5154757 L48.8748876,16.628359 L46.7008076,8.51458203 L21.7799213,15.1921134 L23.2254114,20.5867557 Z M60.6339321,40.8088237 C61.1140516,40.680176 61.3989759,40.1866728 61.2703282,39.7065533 L55.8351283,19.4221109 C55.7064806,18.9419914 55.2129774,18.6570672 54.7328579,18.7857148 L46.4958713,20.9928087 C46.4669836,21.0005492 46.4384996,21.0097247 46.4105255,21.0203012 C45.9455896,21.196084 45.7111848,21.7154891 45.8869677,22.180425 L53.638654,42.6832028 L60.6339321,40.8088237 Z M38.3834608,50.4978137 L49.9745708,47.3919852 L50.9063194,50.8693183 L39.3152094,53.9751468 L38.3834608,50.4978137 Z M33.1506023,30.9499818 C32.3284735,30.3978468 29.0816515,28.1520823 28.7220948,27.9062177 C28.4031632,27.6881327 28.1032181,27.4843187 27.8151868,27.2901064 C24.936467,25.349058 22.8188322,24.1453277 22.4565459,24.0976737 C20.850421,23.8864089 17.8915806,25.9731997 17.194972,28.6333698 C16.4458396,31.4941155 16.9313789,35.4181822 18.8046708,40.3837705 L19.875486,43.2222109 L12.1467306,47.7616787 L21.7483449,61.0414219 L29.1004155,56.4219015 L23.1302722,34.1410233 L29.2069595,36.0818439 C31.4860892,36.7734197 33.1484622,36.5851665 34.5185729,35.6248705 C35.1246002,35.2001124 35.571977,34.2427559 35.6426838,33.1174059 C35.6567816,32.8930292 35.6533216,32.6830506 35.6379204,32.5023053 C34.992461,32.1627075 34.2228473,31.6700928 33.1506023,30.9499818 Z" id="Combined-Shape"></path>
        </g>
    </g>
</svg>