<?xml version="1.0" encoding="UTF-8"?>
<svg width="72px" height="72px" viewBox="0 0 72 72" version="1.1" xmlns="http://www.w3.org/2000/svg" xmlns:xlink="http://www.w3.org/1999/xlink">
    <!-- Generator: Sketch 52.2 (67145) - http://www.bohemiancoding.com/sketch -->
    <title>icons_outlined_add2</title>
    <desc>Created with Sketch.</desc>
    <g id="icons_outlined_add2" stroke="none" stroke-width="1" fill="none" fill-rule="evenodd">
        <g id="icon21" fill="#000000" fill-rule="nonzero">
            <path d="M34.1999817,34.1999817 L34.1999817,21 L37.7999818,21 L37.7999818,34.1999817 L51,34.1999817 L51,37.7999818 L37.7999818,37.7999818 L37.7999818,51 L34.1999817,51 L34.1999817,37.7999818 L21,37.7999818 L21,34.1999817 L34.1999817,34.1999817 Z M36,66 C19.4314575,66 6,52.5685425 6,36 C6,19.4314575 19.4314575,6 36,6 C52.5685425,6 66,19.4314575 66,36 C66,52.5685425 52.5685425,66 36,66 Z M36,62.4 C50.5803174,62.4 62.4,50.5803174 62.4,36 C62.4,21.4196826 50.5803174,9.6 36,9.6 C21.4196826,9.6 9.6,21.4196826 9.6,36 C9.6,50.5803174 21.4196826,62.4 36,62.4 Z" id="Combined-Shape"></path>
        </g>
    </g>
</svg>