<?xml version="1.0" encoding="UTF-8"?>
<svg width="72px" height="72px" viewBox="0 0 72 72" version="1.1" xmlns="http://www.w3.org/2000/svg" xmlns:xlink="http://www.w3.org/1999/xlink">
    <!-- Generator: Sketch 50.2 (55047) - http://www.bohemiancoding.com/sketch -->
    <title>Artboard</title>
    <desc>Created with Sketch.</desc>
    <defs></defs>
    <g id="Artboard" stroke="none" stroke-width="1" fill="none" fill-rule="evenodd">
        <g id="Group-Copy-5" fill="#000000">
            <path d="M35.9913156,65.9914333 C19.4227731,65.9914333 5.99131557,52.5599758 5.99131557,35.9914333 C5.99131557,19.4228908 19.4227731,5.99143328 35.9913156,5.99143328 C52.5598581,5.99143328 65.9913156,19.4228908 65.9913156,35.9914333 C65.9913156,52.5599758 52.5598581,65.9914333 35.9913156,65.9914333 Z M35.9913156,62.3914333 C50.571633,62.3914333 62.3913156,50.5717507 62.3913156,35.9914333 C62.3913156,21.4111159 50.571633,9.59143328 35.9913156,9.59143328 C21.4109982,9.59143328 9.59131557,21.4111159 9.59131557,35.9914333 C9.59131557,50.5717507 21.4109982,62.3914333 35.9913156,62.3914333 Z" id="Combined-Shape"></path>
            <rect id="Rectangle-18" x="20.8484584" y="23.342865" width="5" height="5"></rect>
            <rect id="Rectangle-18-Copy-9" x="20.8484584" y="33.342865" width="5" height="5"></rect>
            <rect id="Rectangle-18-Copy-12" x="20.8484584" y="43.342865" width="5" height="5"></rect>
            <rect id="Combined-Shape" x="29" y="24" width="22" height="3.60000014"></rect>
            <rect id="Combined-Shape-Copy" x="29" y="34" width="22" height="3.60000014"></rect>
            <rect id="Combined-Shape-Copy-2" x="29" y="44" width="22" height="3.60000014"></rect>
        </g>
    </g>
</svg>