<?xml version="1.0" encoding="UTF-8"?>
<svg width="240px" height="175px" viewBox="0 0 240 175" version="1.1" xmlns="http://www.w3.org/2000/svg" xmlns:xlink="http://www.w3.org/1999/xlink">
    <!-- Generator: Sketch 46.2 (44496) - http://www.bohemiancoding.com/sketch -->
    <title>Artboard 5</title>
    <desc>Created with Sketch.</desc>
    <defs></defs>
    <g id="Template" stroke="none" stroke-width="1" fill="none" fill-rule="evenodd">
        <g id="Artboard-5" fill="#888888" fill-rule="nonzero">
            <g id="Rectangle-40">
                <path d="M203.52,57.6606923 L203.52,15.3846154 L15.36,15.3846154 L15.36,105.378346 L74.2365965,50.6509231 L125.95681,97.8913846 C122.740207,105.884192 120.96,114.663173 120.96,123.907885 C120.96,141.316769 127.863429,157.300981 139.044778,169.230769 L11.1930793,169.230769 C5.0091145,169.230769 0,164.200788 0,157.996 L0,11.2347692 C0,5.01882692 5.01131232,0 11.1930793,0 L207.68692,0 C213.870885,0 218.88,5.02998077 218.88,11.2347692 L218.88,63.3672115 C214.077976,60.8826923 208.930934,58.9534423 203.52,57.6606923 Z M240,123.717942 C240,151.753846 216.79104,175 187.520001,175 C159.52896,175 136.32,151.753846 136.32,123.717942 C136.32,94.4 159.52896,71.1538462 187.520001,71.1538462 C216.79104,71.1538462 240,94.4 240,123.717942 Z M185.676252,92.1474359 C185.587109,92.1474359 185.497991,92.1504158 185.409047,92.1563707 C183.204842,92.3039439 181.537613,94.2104364 181.685187,96.4146408 L183.952568,130.281038 C184.02289,131.331397 184.895391,132.147436 185.948101,132.147436 L191.133719,132.147436 C192.186429,132.147436 193.058929,131.331397 193.129252,130.281038 L195.396633,96.4146408 C195.402588,96.3256969 195.405568,96.2365789 195.405568,96.1474359 C195.405568,93.9382969 193.614707,92.1474359 191.405568,92.1474359 L185.676252,92.1474359 Z M188.16,155.769231 C192.401547,155.769231 195.84,152.325269 195.84,148.076923 C195.84,143.828577 192.401547,140.384615 188.16,140.384615 C183.918453,140.384615 180.48,143.828577 180.48,148.076923 C180.48,152.325269 183.918453,155.769231 188.16,155.769231 Z"></path>
            </g>
        </g>
    </g>
</svg>