<?xml version="1.0" encoding="UTF-8" standalone="no"?>
<svg width="55px" height="55px" viewBox="0 0 55 55" version="1.1" xmlns="http://www.w3.org/2000/svg" xmlns:xlink="http://www.w3.org/1999/xlink" xmlns:sketch="http://www.bohemiancoding.com/sketch/ns">
    <!-- Generator: Sketch 3.3.3 (12081) - http://www.bohemiancoding.com/sketch -->
    <title>ipcall_plus_menu_icon</title>
    <desc>Created with Sketch.</desc>
    <defs></defs>
    <g id="Page-1" stroke="none" stroke-width="1" fill="none" fill-rule="evenodd" sketch:type="MSPage">
        <g id="ipcall_plus_menu_icon" sketch:type="MSLayerGroup" transform="translate(1.000000, 1.000000)" fill="#FFFFFF">
            <path d="M2,-3.55271368e-15 C6.06665677,-0.0206216318 10.0310178,-0.170346764 14,-3.55271368e-15 C16.6416148,1.77607996 15.3035181,5.67891507 16,8 C16.0125096,10.6198444 18.5489018,12.8856848 17,15 C15.3634329,18.0661744 12.7171969,20.3020697 10,23 C15.3035181,30.902609 22.1437884,37.6202766 30,43 C32.6388601,40.285384 34.845721,37.7200934 38,36 C38.8799826,34.6357557 40.4677242,35.6339232 42,36 C44.9014177,37.300863 48.2866025,36.9415227 51,38 C53.1197278,38.408829 52.9299977,40.4949992 53,42 C52.9299977,44.9368448 53.159671,47.8914207 53,51 C51.4221425,53.8105543 47.5875968,52.8323501 45,53 C22.5831635,49.6481956 3.37049183,30.5233054 3.55271368e-15,8 C0.195008682,5.50922659 -0.873471497,1.54650142 2,-3.55271368e-15 L2,-3.55271368e-15 Z" id="Shape" sketch:type="MSShapeGroup"></path>
        </g>
    </g>
</svg>