<?xml version="1.0" encoding="UTF-8" standalone="no"?>
<svg width="120px" height="120px" viewBox="0 0 120 120" version="1.1" xmlns="http://www.w3.org/2000/svg" xmlns:xlink="http://www.w3.org/1999/xlink">
    <!-- Generator: Sketch 3.8.3 (29802) - http://www.bohemiancoding.com/sketch -->
    <title>Avatar</title>
    <desc>Created with Sketch.</desc>
    <defs>
        <rect id="path-1" x="0" y="0" width="120" height="120"></rect>
    </defs>
    <g id="安卓方案" stroke="none" stroke-width="1" fill="none" fill-rule="evenodd">
        <g id="iPhone-6P" transform="translate(-180.000000, -98.000000)">
            <g id="Avatar-120px" transform="translate(180.000000, 98.000000)">
                <mask id="mask-2" fill="white">
                    <use xlink:href="#path-1"></use>
                </mask>
                <use id="Rectangle-42" fill="#C9C9C9" xlink:href="#path-1"></use>
                <path d="M84.0156308,54.2688323 C89.0639761,49.220487 89.019448,40.999852 83.9191461,35.8995501 C78.8199653,30.8003694 70.5951856,30.7577437 65.5498639,35.8030654 L53.8030654,47.5498639 C48.7547201,52.5982092 48.7992482,60.8188442 53.8995501,65.9191461 L56.5099498,63.3087464 C52.866803,59.6655997 52.8052568,53.8236059 56.4410321,50.1878306 L68.1878306,38.4410321 C71.821537,34.8073257 77.6672849,34.8684883 81.3087464,38.5099498 C84.9518932,42.1530965 85.0134394,47.9950903 81.3776641,51.6308656 L75.5042648,57.5042648 L78.1422315,60.1422315 L84.0156308,54.2688323 Z M35.8030654,65.5498639 C30.7547201,70.5982092 30.7992482,78.8188442 35.8995501,83.9191461 C40.9987308,89.0183268 49.2235106,89.0609525 54.2688323,84.0156308 L66.0156308,72.2688323 C71.0639761,67.220487 71.019448,58.999852 65.9191461,53.8995501 L63.3087464,56.5099498 C66.9518932,60.1530965 67.0134394,65.9950903 63.3776641,69.6308656 L51.6308656,81.3776641 C47.9971592,85.0113705 42.1514113,84.9502079 38.5099498,81.3087464 C34.866803,77.6655997 34.8052568,71.8236059 38.4410321,68.1878306 L44.3144313,62.3144313 L41.6764646,59.6764646 L35.8030654,65.5498639 Z" id="Rectangle-59" fill="#FFFFFF" mask="url(#mask-2)"></path>
            </g>
        </g>
    </g>
</svg>