<?xml version="1.0" encoding="UTF-8" standalone="no"?>
<svg width="96px" height="96px" viewBox="0 0 96 96" version="1.1" xmlns="http://www.w3.org/2000/svg" xmlns:xlink="http://www.w3.org/1999/xlink" xmlns:sketch="http://www.bohemiancoding.com/sketch/ns">
    <!-- Generator: Sketch 3.3.3 (12081) - http://www.bohemiancoding.com/sketch -->
    <title>login_showpassword_icon</title>
    <desc>Created with Sketch.</desc>
    <defs></defs>
    <g id="Page-1" stroke="none" stroke-width="1" fill="none" fill-rule="evenodd" sketch:type="MSPage">
        <g id="login_showpassword_icon" sketch:type="MSLayerGroup" transform="translate(14.000000, 27.000000)" fill="#D9D9D9">
            <path d="M0,21 C6.54114202,9.06751646 19.1953148,0.277351595 33,-3.55271368e-15 C47.470571,-0.56266416 61.0904832,8.45750502 68,21 C61.2796486,33.2179694 48.1475842,42.1281365 34,42 C19.8623719,42.1481369 6.74026354,33.2379698 0,21 L0,21 Z M30,10 C26.5102707,10.8500077 23.3498878,14.1489588 22,18 C20.4487161,24.9328414 25.8722123,32.4476727 33,33 C40.0590416,33.8330328 46.8085029,27.0856313 46,20 C45.4925074,12.5742329 37.3373238,7.13245852 30,10 L30,10 Z" id="Shape" sketch:type="MSShapeGroup"></path>
        </g>
    </g>
</svg>