<?xml version="1.0" encoding="UTF-8"?>
<svg width="150px" height="150px" viewBox="0 0 150 150" version="1.1" xmlns="http://www.w3.org/2000/svg" xmlns:xlink="http://www.w3.org/1999/xlink">
    <!-- Generator: Sketch 49.1 (51147) - http://www.bohemiancoding.com/sketch -->
    <title>miniprogram_default_avatar</title>
    <desc>Created with Sketch.</desc>
    <defs>
        <path d="M88.6290323,47.1774194 C85.1620161,47.1774194 81.9340323,48.0989516 79.1935484,49.6662903 C74.1665323,52.5430645 70.8064516,57.6277419 70.8064516,63.4274194 L70.8064516,87.5403226 C70.8064516,91.8827419 66.5814516,95.4032258 61.3709677,95.4032258 C56.1594355,95.4032258 51.9354839,91.8827419 51.9354839,87.5403226 C51.9354839,84.4496774 54.0804839,81.783629 57.1931452,80.4983065 C57.4175,80.4060484 57.645,80.3179839 57.8787903,80.2404032 C59.8382258,79.4541129 61.5187903,77.9779839 62.1425806,76.263871 C63.0641129,73.7330645 61.3489516,71.6824194 58.3128226,71.6824194 C57.5558871,71.6824194 56.7884677,71.8103226 56.0483065,72.0409677 C56.0451613,72.0420161 56.0420161,72.0430645 56.0378226,72.0441129 C51.6482258,73.3042742 47.9841129,76.0678226 45.7845968,79.6774194 C44.3640323,82.0100806 43.5483871,84.6887097 43.5483871,87.5403226 C43.5483871,96.5008871 51.5433871,103.790323 61.3709677,103.790323 C64.8379839,103.790323 68.0659677,102.86879 70.8064516,101.301452 C75.8334677,98.4246774 79.1935484,93.34 79.1935484,87.5403226 L79.1935484,63.4274194 C79.1935484,59.085 83.4175,55.5645161 88.6290323,55.5645161 C93.8395161,55.5645161 98.0645161,59.085 98.0645161,63.4274194 C98.0645161,66.6501613 95.7381452,69.42 92.4074194,70.6340323 C90.2592742,71.3542742 88.4990323,72.9090323 87.8280645,74.7510484 C86.9117742,77.2692742 88.6185484,79.3115323 91.6410484,79.3115323 C92.3256452,79.3115323 93.0175806,79.1941129 93.6916935,79.0033065 C93.8017742,78.9729032 93.9108065,78.9393548 94.0198387,78.9068548 C98.3832258,77.6393548 102.025323,74.8841935 104.214355,71.2903226 C105.635968,68.9587097 106.451613,66.2790323 106.451613,63.4274194 C106.451613,54.4668548 98.4566129,47.1774194 88.6290323,47.1774194" id="path-1"></path>
    </defs>
    <g id="miniprogram_default_avatar" stroke="none" stroke-width="1" fill="none" fill-rule="evenodd">
        <rect id="Rectangle-2" fill="#F1F1F1" x="0" y="0" width="150" height="150"></rect>
        <mask id="mask-2" fill="white">
            <use xlink:href="#path-1"></use>
        </mask>
        <use id="Mask" fill="#C9C9C9" fill-rule="nonzero" xlink:href="#path-1"></use>
    </g>
</svg>