<?xml version="1.0" encoding="UTF-8"?>
<svg width="120px" height="120px" viewBox="0 0 120 120" version="1.1" xmlns="http://www.w3.org/2000/svg" xmlns:xlink="http://www.w3.org/1999/xlink">
    <!-- Generator: Sketch 41 (35326) - http://www.bohemiancoding.com/sketch -->
    <title>camera_navbar_icon_switch</title>
    <desc>Created with Sketch.</desc>
    <defs></defs>
    <g id="1104" stroke="none" stroke-width="1" fill="none" fill-rule="evenodd">
        <g id="camera_navbar_icon_switch" fill="#F2F2F2">
            <g id="Switch">
                <g id="Group-3" transform="translate(21.000000, 30.000000)">
                    <path d="M4,56.9981155 C4,56.9977975 73.9977223,57 73.9977223,57 C74.0023161,57 74,14.0018845 74,14.0018845 C74,14.0047723 56.5,14 56.5,14 L49,4 L29,4 L21.5,14 L3.99980502,14 C3.99993085,14.0004797 4,56.9981155 4,56.9981155 Z M3.99317101,10 L19.5,10 L27,0 L51,0 L58.5,10 L74.006829,10 C76.2004395,10 78,11.7917047 78,14.0018845 L78,56.9981155 C78,59.2147869 76.2081192,61 73.9977223,61 L4.00227769,61 C1.79442364,61 0,59.2082953 0,56.9981155 L0,14.0018845 C0,11.7852131 1.78780356,10 3.99317101,10 Z" id="Rectangle-42"></path>
                    <path d="M21,33 C21,42.9411255 29.0588745,51 39,51 C44.0360165,51 48.5889956,48.9318713 51.8559553,45.598596 L49.0273434,42.7699841 C46.4844039,45.3794862 42.9314476,47 39,47 C31.2680135,47 25,40.7319865 25,33 L30.5,33 L22.5,25 L14.5,33 L21,33 Z M57,33 C57,23.0588745 48.9411255,15 39,15 C33.9639835,15 29.4110044,17.0681287 26.1440447,20.401404 L28.9726566,23.2300159 C31.5155961,20.6205138 35.0685524,19 39,19 C46.7319865,19 53,25.2680135 53,33 L47.5,33 L55.5,41 L63.5,33 L57,33 Z" id="Combined-Shape"></path>
                </g>
            </g>
        </g>
    </g>
</svg>