<?xml version="1.0" encoding="UTF-8"?>
<svg width="108px" height="108px" viewBox="0 0 108 108" version="1.1" xmlns="http://www.w3.org/2000/svg" xmlns:xlink="http://www.w3.org/1999/xlink">
    <!-- Generator: Sketch 44.1 (41455) - http://www.bohemiancoding.com/sketch -->
    <title>more_setting copy</title>
    <desc>Created with Sketch.</desc>
    <defs></defs>
    <g id="模块/插件" stroke="none" stroke-width="1" fill="none" fill-rule="evenodd">
        <g id="more_setting-copy" fill="#10AEFF">
            <g id="cellsss" transform="translate(58.000000, 53.000000) scale(-1, 1) translate(-58.000000, -53.000000) translate(26.000000, 21.000000)">
                <path d="M11.3961214,32.0901188 C10.2606026,31.3984371 8.92683126,31 7.5,31 C3.35786438,31 0,34.3578644 0,38.5 C0,42.6421356 3.35786438,46 7.5,46 C8.92969548,46 10.265957,45.5999617 11.4029573,44.9057123 L11.4013767,44.9086183 C11.8058879,44.6841771 12.1219244,44.5719566 12.349486,44.5719566 C12.6842975,44.5719566 12.8900455,44.6958582 13,44.9930623 L13,58 C13,61.3137085 15.6862915,64 19,64 L58,64 C61.3137085,64 64,61.3137085 64,58 L64,43.5990685 C63.9993412,43.5997787 63.9986823,43.6004889 63.9980232,43.6011989 C63.9978853,44.011289 63.997797,44.4882837 63.9977583,45.032183 C63.8894561,44.7222694 63.6822615,44.593487 63.340919,44.593487 C63.1241161,44.593487 62.8150827,44.6953472 62.4138187,44.8990676 C61.2744708,45.5974085 59.9342505,46 58.5,46 C54.3578644,46 51,42.6421356 51,38.5 C51,34.3578644 54.3578644,31 58.5,31 C59.9025638,31 61.2152062,31.3849991 62.3380113,32.0550815 L62.3367358,32.052819 C62.7804352,32.2772602 63.1160657,32.3894807 63.3436274,32.3894807 C63.6844802,32.3894807 63.8915698,32.2610675 64,31.9521173 L64,19 C64,15.6862915 61.3137085,13 58,13 L44.9856335,13 C44.6834863,12.8906785 44.5576838,12.6843521 44.5576838,12.346982 C44.5576838,12.1212403 44.6681166,11.8156549 44.8889822,11.4302259 C45.593531,10.287346 46,8.94114098 46,7.5 C46,3.35786438 42.6421356,0 38.5,0 C34.3578644,0 31,3.35786438 31,7.5 C31,8.92940958 31.3998784,10.2654226 32.0938713,11.4022752 L32.0805499,11.3950124 C32.3049911,11.8020972 32.4172116,12.1194204 32.4172116,12.346982 C32.4172116,12.6843521 32.2914091,12.8906785 31.989262,13 L19,13 C15.6862915,13 13,15.6862915 13,19 L13,31.9736196 C12.8914804,32.2818948 12.6844648,32.4100493 12.3439556,32.4100493 C12.1221206,32.4100493 11.8061758,32.3034058 11.3961214,32.0901188 Z" id="Combined-Shape"></path>
            </g>
        </g>
    </g>
</svg>