<?xml version="1.0" encoding="UTF-8"?>
<svg width="96px" height="96px" viewBox="0 0 96 96" version="1.1" xmlns="http://www.w3.org/2000/svg" xmlns:xlink="http://www.w3.org/1999/xlink">
    <!-- Generator: Sketch 49.3 (51167) - http://www.bohemiancoding.com/sketch -->
    <title>toolbar__icon_light_fav_normal</title>
    <desc>Created with Sketch.</desc>
    <defs>
        <path d="M48.7577002,15.9748484 L27.7749378,3.7349037 C27.4666536,3.55507125 26.5334806,3.55499297 26.2250622,3.7349037 L5.24229981,15.9748484 L27,28.5366625 L48.7577002,15.9748484 Z M50.4,19.1835881 L28.8,31.6543539 L28.8,56.8973902 L49.5971908,44.7656956 C49.9209963,44.5768091 50.4,43.7439868 50.4,43.3732813 L50.4,19.1835881 Z M3.6,19.1835881 L3.6,43.3732813 C3.6,43.7366237 4.08367156,44.579532 4.4028092,44.7656956 L25.2,56.8973902 L25.2,31.6543539 L3.6,19.1835881 Z M24.4111265,0.625299656 C25.8409219,-0.208747635 28.1601562,-0.208118743 29.5888735,0.625299656 L51.4111265,13.3549472 C52.8409219,14.1889945 54,16.2186391 54,17.8569656 L54,43.3732813 C54,45.0256301 52.8398438,47.0418813 51.4111265,47.8752997 L29.5888735,60.6049472 C28.1590781,61.4389945 25.8398437,61.4383656 24.4111265,60.6049472 L2.58887351,47.8752997 C1.15907815,47.0412524 0,45.0116078 0,43.3732813 L0,17.8569656 C0,16.2046168 1.16015625,14.1883656 2.58887351,13.3549472 L24.4111265,0.625299656 Z" id="path-1"></path>
    </defs>
    <g id="toolbar__icon_light_fav_normal" stroke="none" stroke-width="1" fill="none" fill-rule="evenodd">
        <rect id="Rectangle-525" fill="#29AC45" opacity="0" x="0" y="0" width="96" height="96"></rect>
        <g id="common_icons_favorites" opacity="0.8" transform="translate(12.000000, 12.000000)">
            <g id="Rectangle-5" transform="translate(9.000000, 6.000000)">
                <mask id="mask-2" fill="white">
                    <use xlink:href="#path-1"></use>
                </mask>
                <use id="Mask" fill="#000000" fill-rule="nonzero" xlink:href="#path-1"></use>
            </g>
        </g>
    </g>
</svg>