<?xml version="1.0" encoding="UTF-8"?>
<svg width="72px" height="72px" viewBox="0 0 72 72" version="1.1" xmlns="http://www.w3.org/2000/svg" xmlns:xlink="http://www.w3.org/1999/xlink">
    <!-- Generator: Sketch 50.2 (55047) - http://www.bohemiancoding.com/sketch -->
    <title>me_icons_favorites</title>
    <desc>Created with Sketch.</desc>
    <defs>
        <path d="M37.8,62.8973902 L58.5971908,50.7656956 C58.9209963,50.5768091 59.4,49.7439868 59.4,49.3732813 L59.4,23.8569656 C59.4,23.4936232 58.9163284,22.6507149 58.5971908,22.4645513 L36.7749378,9.7349037 C36.4666536,9.55507125 35.5334806,9.55499297 35.2250622,9.7349037 L13.4028092,22.4645513 C13.0790037,22.6534378 12.6,23.4862601 12.6,23.8569656 L12.6,49.3732813 C12.6,49.7366237 13.0836716,50.579532 13.4028092,50.7656956 L34.2,62.8973902 L34.2,36.6151234 L34.5,36.3151234 L37.5,36.3151234 L37.8,36.6151234 L37.8,62.8973902 Z M33.4111265,6.62529966 C34.8409219,5.79125236 37.1601562,5.79188126 38.5888735,6.62529966 L60.4111265,19.3549472 C61.8409219,20.1889945 63,22.2186391 63,23.8569656 L63,49.3732813 C63,51.0256301 61.8398438,53.0418813 60.4111265,53.8752997 L38.5888735,66.6049472 C37.1590781,67.4389945 34.8398437,67.4383656 33.4111265,66.6049472 L11.5888735,53.8752997 C10.1590781,53.0412524 9,51.0116078 9,49.3732813 L9,23.8569656 C9,22.2046168 10.1601562,20.1883656 11.5888735,19.3549472 L33.4111265,6.62529966 Z M37.0098076,35.4660853 L35.5098076,38.0641616 L35.1,38.1739692 L10.418276,23.9239692 L10.3084684,23.5141616 L11.8084684,20.9160853 L12.218276,20.8062777 L36.9,35.0562777 L37.0098076,35.4660853 Z M36.4901924,38.0641616 L34.9901924,35.4660853 L35.1,35.0562777 L59.781724,20.8062777 L60.1915316,20.9160853 L61.6915316,23.5141616 L61.581724,23.9239692 L36.9,38.1739692 L36.4901924,38.0641616 Z" id="path-1"></path>
    </defs>
    <g id="me_icons_favorites" stroke="none" stroke-width="1" fill="none" fill-rule="evenodd">
        <g id="Group-26">
            <mask id="mask-2" fill="white">
                <use xlink:href="#path-1"></use>
            </mask>
            <use id="Mask" fill="#228BF1" fill-rule="nonzero" xlink:href="#path-1"></use>
            <polygon id="Rectangle-5" fill="#F75356" mask="url(#mask-2)" points="63 18.9182916 63 69.8822245 34.1999989 69.8822245 36.0046308 36.3164062 36.0046308 34.5206471"></polygon>
            <polygon id="Rectangle-5" fill="#FEC22D" mask="url(#mask-2)" points="9 23.1280702 34.2172281 37.6749543 36.0086146 36.3022156 37.8000011 37.6749543 37.8000011 69.8822245 9 69.8822245"></polygon>
        </g>
    </g>
</svg>