<?xml version="1.0" encoding="UTF-8"?>
<svg width="96px" height="96px" viewBox="0 0 96 96" version="1.1" xmlns="http://www.w3.org/2000/svg" xmlns:xlink="http://www.w3.org/1999/xlink">
    <!-- Generator: Sketch 49.3 (51167) - http://www.bohemiancoding.com/sketch -->
    <title>toolbar_icon_light_remind_pressed</title>
    <desc>Created with Sketch.</desc>
    <defs></defs>
    <g id="toolbar_icon_light_remind_pressed" stroke="none" stroke-width="1" fill="none" fill-rule="evenodd">
        <rect id="Rectangle-525" fill="#29AC45" opacity="0" x="0" y="0" width="96" height="96"></rect>
        <g id="icon21" transform="translate(12.000000, 12.000000)" fill="#000000">
            <g id="Group-19" transform="translate(6.000000, 6.000000)">
                <path d="M30,56.4 C44.5803174,56.4 56.4,44.5803174 56.4,30 C56.4,15.4196826 44.5803174,3.6 30,3.6 C15.4196826,3.6 3.6,15.4196826 3.6,30 C3.6,44.5803174 15.4196826,56.4 30,56.4 Z M30,60 C13.4314575,60 0,46.5685425 0,30 C0,13.4314575 13.4314575,0 30,0 C46.5685425,0 60,13.4314575 60,30 C60,46.5685425 46.5685425,60 30,60 Z" id="Oval-78" fill-rule="nonzero"></path>
                <rect id="Rectangle-34" x="28.1999989" y="12" width="3.60000014" height="18"></rect>
                <rect id="Rectangle-34" transform="translate(35.836752, 35.091169) scale(1, -1) rotate(-315.000000) translate(-35.836752, -35.091169) " x="34.0367521" y="26.0911688" width="3.60000014" height="18"></rect>
            </g>
        </g>
    </g>
</svg>