<?xml version="1.0" encoding="UTF-8"?>
<svg width="144px" height="144px" viewBox="0 0 144 144" version="1.1" xmlns="http://www.w3.org/2000/svg" xmlns:xlink="http://www.w3.org/1999/xlink">
    <!-- Generator: Sketch 48.1 (47250) - http://www.bohemiancoding.com/sketch -->
    <title>multitask_bar_more_btn</title>
    <desc>Created with Sketch.</desc>
    <defs></defs>
    <g id="1219" stroke="none" stroke-width="1" fill="none" fill-rule="evenodd">
        <g id="multitask_bar_more_btn">
            <g id="Group-5">
                <path d="M72,144 C32.235498,144 0,111.764502 0,72 C0,32.235498 32.235498,0 72,0 C111.764502,0 144,32.235498 144,72 C144,111.764502 111.764502,144 72,144 Z" id="Combined-Shape" fill="#FFFFFF"></path>
                <path d="M42.5,80 C38.3578644,80 35,76.6421356 35,72.5 C35,68.3578644 38.3578644,65 42.5,65 C46.6421356,65 50,68.3578644 50,72.5 C50,76.6421356 46.6421356,80 42.5,80 Z M72.5,80 C68.3578644,80 65,76.6421356 65,72.5 C65,68.3578644 68.3578644,65 72.5,65 C76.6421356,65 80,68.3578644 80,72.5 C80,76.6421356 76.6421356,80 72.5,80 Z M102.5,80 C98.3578644,80 95,76.6421356 95,72.5 C95,68.3578644 98.3578644,65 102.5,65 C106.642136,65 110,68.3578644 110,72.5 C110,76.6421356 106.642136,80 102.5,80 Z" id="Combined-Shape" fill="#B2B2B2"></path>
            </g>
        </g>
    </g>
</svg>