<?xml version="1.0" encoding="UTF-8" standalone="no"?>
<svg width="96px" height="84px" viewBox="0 0 96 84" version="1.1" xmlns="http://www.w3.org/2000/svg" xmlns:xlink="http://www.w3.org/1999/xlink" xmlns:sketch="http://www.bohemiancoding.com/sketch/ns">
    <!-- Generator: Sketch 3.3.3 (12081) - http://www.bohemiancoding.com/sketch -->
    <title>navbar_discovery_icon_normal</title>
    <desc>Created with Sketch.</desc>
    <defs></defs>
    <g id="导航栏" stroke="none" stroke-width="1" fill="none" fill-rule="evenodd" sketch:type="MSPage">
        <g id="navbar_discovery_icon_normal" sketch:type="MSArtboardGroup" fill="#999999">
            <g sketch:type="MSLayerGroup" transform="translate(14.000000, 8.000000)" id="Shape">
                <path d="M32.825,0.022 C37.638,-0.146 42.488,0.711 46.94,2.551 C53.439,5.215 59.057,9.958 62.789,15.907 C64.892,19.242 66.407,22.948 67.235,26.804 C68.808,34.061 67.94,41.831 64.742,48.539 C61.982,54.384 57.512,59.404 52.03,62.829 C49.181,64.616 46.064,65.976 42.815,66.844 C34.941,68.967 26.307,68.146 18.998,64.518 C12.084,61.132 6.397,55.321 3.163,48.335 C-0.307,40.938 -0.941,32.273 1.365,24.44 C3.44,17.282 7.97,10.878 14,6.504 C19.438,2.522 26.088,0.232 32.825,0.022 L32.825,0.022 Z M31.653,4.092 C27.312,4.422 23.049,5.72 19.262,7.865 C13.874,10.9 9.467,15.64 6.843,21.24 C4.258,26.698 3.415,32.948 4.4,38.902 C5.027,42.734 6.416,46.439 8.458,49.742 C11.772,55.127 16.829,59.419 22.691,61.794 C29.634,64.643 37.654,64.732 44.662,62.049 C47.883,60.825 50.887,59.036 53.504,56.794 C58.197,52.789 61.613,47.306 63.101,41.315 C64.164,37.071 64.283,32.594 63.457,28.297 C62.742,24.559 61.295,20.965 59.232,17.768 C55.947,12.656 51.076,8.58 45.456,6.267 C41.112,4.463 36.339,3.725 31.653,4.092 L31.653,4.092 Z" sketch:type="MSShapeGroup"></path>
                <path d="M30.441,26.842 C37.66,23.196 44.88,19.55 52.1,15.906 C48.438,23.169 44.77,30.428 41.103,37.689 C40.307,39.233 38.989,40.497 37.421,41.24 C30.25,44.863 23.073,48.474 15.907,52.104 C19.564,44.858 23.221,37.612 26.878,30.367 C27.648,28.851 28.918,27.597 30.441,26.842 L30.441,26.842 Z M33.349,31.077 C31.868,31.377 30.79,32.916 31.031,34.411 C31.209,36.036 32.892,37.282 34.499,36.962 C36.126,36.734 37.317,35.001 36.939,33.4 C36.654,31.804 34.922,30.684 33.349,31.077 L33.349,31.077 Z" sketch:type="MSShapeGroup"></path>
            </g>
        </g>
    </g>
</svg>