<?xml version="1.0" encoding="UTF-8" standalone="no"?>
<svg width="96px" height="84px" viewBox="0 0 96 84" version="1.1" xmlns="http://www.w3.org/2000/svg" xmlns:xlink="http://www.w3.org/1999/xlink" xmlns:sketch="http://www.bohemiancoding.com/sketch/ns">
    <!-- Generator: Sketch 3.3.3 (12081) - http://www.bohemiancoding.com/sketch -->
    <title>navbar_chat_icon_normal</title>
    <desc>Created with Sketch.</desc>
    <defs></defs>
    <g id="导航栏" stroke="none" stroke-width="1" fill="none" fill-rule="evenodd" sketch:type="MSPage">
        <g id="navbar_chat_icon_normal" sketch:type="MSArtboardGroup" fill="#999999">
            <g sketch:type="MSLayerGroup" transform="translate(12.000000, 11.000000)" id="Shape">
                <path d="M14.949,5.84257649 C21.649,1.67929147 29.638,-0.26057971 37.503,0.0289533011 C45.468,0.296521739 53.408,2.88933977 59.778,7.71455717 C62.781,9.98489533 65.423,12.7494364 67.47,15.9113366 C69.411,18.8995169 70.805,22.2491143 71.491,25.7474718 C72.316,29.9227375 72.131,34.2926892 70.953,38.3830918 C69.294,44.209694 65.656,49.3703704 61.004,53.2151691 C55.825,57.5152335 49.43,60.2638003 42.799,61.3470531 C33.676,62.8456361 24.002,61.3041224 15.968,56.6705958 C10.646,58.4127858 5.323,60.1569726 0,61.900161 C2.104,57.4203865 4.21,52.9426087 6.312,48.4618357 C3.922,45.4686634 2.079,42.0252174 1.034,38.3371659 C-0.644,32.5175523 -0.26,26.1418357 2.082,20.5578422 C4.618,14.4197424 9.327,9.3189694 14.949,5.84257649 L14.949,5.84257649 Z M27.728,4.90409018 C21.562,6.28586151 15.702,9.30599034 11.271,13.8416747 C8.666,16.5053784 6.584,19.7002254 5.338,23.2165539 C3.605,28.0447665 3.557,33.4510467 5.208,38.3082126 C6.376,41.7945894 8.372,44.9764573 10.882,47.6561353 C9.586,50.4066989 8.294,53.1582609 7.001,55.9098229 C10.312,54.8076006 13.624,53.7063768 16.935,52.6031562 C19.917,54.4641546 23.193,55.8439291 26.596,56.7235105 C34.704,58.8041546 43.538,58.1532045 51.176,54.6877939 C56.381,52.3256039 61.04,48.608599 64.146,43.7833816 C66.169,40.65343 67.492,37.0602254 67.873,33.349211 C68.256,29.7480193 67.764,26.0619646 66.465,22.6814171 C65.237,19.4646055 63.308,16.5323349 60.929,14.0483414 C58.65,11.667182 55.965,9.68537842 53.056,8.13887279 C45.369,4.05545894 36.197,3.0131401 27.728,4.90409018 L27.728,4.90409018 Z" sketch:type="MSShapeGroup"></path>
            </g>
        </g>
    </g>
</svg>