<?xml version="1.0" encoding="UTF-8" standalone="no"?>
<svg width="96px" height="84px" viewBox="0 0 96 84" version="1.1" xmlns="http://www.w3.org/2000/svg" xmlns:xlink="http://www.w3.org/1999/xlink">
    <!-- Generator: Sketch 3.7.2 (28276) - http://www.bohemiancoding.com/sketch -->
    <title>3</title>
    <desc>Created with Sketch.</desc>
    <defs></defs>
    <g id="Tabbar" stroke="none" stroke-width="1" fill="none" fill-rule="evenodd">
        <g id="-" transform="translate(-663.000000, -151.000000)">
            <g id="Group-3" transform="translate(673.000000, 155.000000)">
                <rect id="Rectangle-234" x="0.00242125539" y="0" width="76" height="76"></rect>
                <path d="M36.8253003,4.02067488 C41.6383003,3.85267488 46.4883003,4.70967488 50.9403003,6.54967488 C57.4393003,9.21367488 63.0573003,13.9566749 66.7893003,19.9056749 C68.8923003,23.2406749 70.4073003,26.9466749 71.2353003,30.8026749 C72.8083003,38.0596749 71.9403003,45.8296749 68.7423003,52.5376749 C65.9823003,58.3826749 61.5123003,63.4026749 56.0303003,66.8276749 C53.1813003,68.6146749 50.0643003,69.9746749 46.8153003,70.8426749 C38.9413003,72.9656749 30.3073003,72.1446749 22.9983003,68.5166749 C16.0843003,65.1306749 10.3973003,59.3196749 7.1633003,52.3336749 C3.6933003,44.9366749 3.0593003,36.2716749 5.3653003,28.4386749 C7.4403003,21.2806749 11.9703003,14.8766749 18.0003003,10.5026749 C23.4383003,6.52067488 30.0883003,4.23067488 36.8253003,4.02067488 L36.8253003,4.02067488 Z M35.6533003,8.09067488 C31.3123003,8.42067488 27.0493003,9.71867488 23.2623003,11.8636749 C17.8743003,14.8986749 13.4673003,19.6386749 10.8433003,25.2386749 C8.2583003,30.6966749 7.4153003,36.9466749 8.4003003,42.9006749 C9.0273003,46.7326749 10.4163003,50.4376749 12.4583003,53.7406749 C15.7723003,59.1256749 20.8293003,63.4176749 26.6913003,65.7926749 C33.6343003,68.6416749 41.6543003,68.7306749 48.6623003,66.0476749 C51.8833003,64.8236749 54.8873003,63.0346749 57.5043003,60.7926749 C62.1973003,56.7876749 65.6133003,51.3046749 67.1013003,45.3136749 C68.1643003,41.0696749 68.2833003,36.5926749 67.4573003,32.2956749 C66.7423003,28.5576749 65.2953003,24.9636749 63.2323003,21.7666749 C59.9473003,16.6546749 55.0763003,12.5786749 49.4563003,10.2656749 C45.1123003,8.46167488 40.3393003,7.72367488 35.6533003,8.09067488 L35.6533003,8.09067488 Z" id="Shape" fill="#1AAD19"></path>
                <path d="M33.5364213,30.936 C40.7554213,27.29 47.9754213,23.644 55.1954213,20 C51.5334213,27.263 47.8654213,34.522 44.1984213,41.783 C43.4024213,43.327 42.0844213,44.591 40.5164213,45.334 C33.3454213,48.957 26.1684213,52.568 19.0024213,56.198 C22.6594213,48.952 26.3164213,41.706 29.9734213,34.461 C30.7434213,32.945 32.0134213,31.691 33.5364213,30.936 L33.5364213,30.936 Z M36.4444213,35.171 C34.9634213,35.471 33.8854213,37.01 34.1264213,38.505 C34.3044213,40.13 35.9874213,41.376 37.5944213,41.056 C39.2214213,40.828 40.4124213,39.095 40.0344213,37.494 C39.7494213,35.898 38.0174213,34.778 36.4444213,35.171 L36.4444213,35.171 Z" id="Shape" fill="#1AAD19"></path>
            </g>
        </g>
    </g>
</svg>