<?xml version="1.0" encoding="UTF-8" standalone="no"?>
<svg width="96px" height="84px" viewBox="0 0 96 84" version="1.1" xmlns="http://www.w3.org/2000/svg" xmlns:xlink="http://www.w3.org/1999/xlink">
    <!-- Generator: Sketch 3.7.2 (28276) - http://www.bohemiancoding.com/sketch -->
    <title>4</title>
    <desc>Created with Sketch.</desc>
    <defs></defs>
    <g id="Tabbar" stroke="none" stroke-width="1" fill="none" fill-rule="evenodd">
        <g id="-" transform="translate(-897.000000, -151.000000)">
            <g id="Group-4" transform="translate(907.000000, 155.000000)">
                <rect id="Rectangle-234" x="0.0017162571" y="0" width="76" height="76"></rect>
                <path d="M31.3980902,8.69181782 C34.1920902,7.16081782 37.5260902,6.62781782 40.6530902,7.26181782 C43.7570902,7.86281782 46.5760902,9.58581782 48.7170902,11.8878178 C51.3350902,14.7008178 53.0070902,18.3278178 53.6630902,22.0998178 C54.6180902,27.5258178 53.5630902,33.3598178 50.4460902,37.9408178 C49.5940902,39.1918178 48.5880902,40.3398178 47.4480902,41.3368178 C46.9530902,41.7908178 46.4420902,42.2668178 46.1560902,42.8868178 C45.9380902,43.3598178 46.0150902,43.8938178 46.0020902,44.3988178 C46.0100902,44.7758178 45.9410902,45.1948178 46.1760902,45.5228178 C46.6490902,46.2278178 47.4130902,46.6538178 48.1270902,47.0768178 C53.0920902,50.1788178 58.0570902,53.2828178 63.0220902,56.3858178 C63.2880902,56.5548178 63.5540902,56.7278178 63.8430902,56.8598178 C65.4670902,57.6228178 66.8520902,58.8868178 67.7590902,60.4358178 C68.5540902,61.7788178 68.9860902,63.3338178 69.0000902,64.8948178 C69.0050902,66.2618178 69.0000902,67.6298178 69.0020902,68.9978178 L7.0020902,68.9978178 C7.0030902,67.6298178 7.0000902,66.2628178 7.0030902,64.8958178 C7.0200902,63.0708178 7.6100902,61.2578178 8.6740902,59.7748178 C9.6140902,58.4408178 10.9360902,57.3988178 12.4190902,56.7308178 C17.5370902,53.5478178 22.6430902,50.3428178 27.7570902,47.1518178 C28.4440902,46.7258178 29.1340902,46.2768178 29.6760902,45.6688178 C29.8900902,45.4338178 30.0410902,45.1288178 30.0040902,44.8028178 C29.9630902,44.1098178 30.1310902,43.3548178 29.7670902,42.7228178 C29.3340902,41.9518178 28.6130902,41.4138178 27.9850902,40.8128178 C25.5090902,38.4488178 23.7750902,35.3648178 22.8410902,32.0838178 C21.2360902,26.4048178 21.9260902,20.0478178 24.9750902,14.9648178 C26.5340902,12.3748178 28.7220902,10.1268178 31.3980902,8.69181782 L31.3980902,8.69181782 Z M32.6030902,12.6008178 C30.3620902,14.0138178 28.6670902,16.1808178 27.5730902,18.5738178 C26.0300902,21.9708178 25.6420902,25.8508178 26.3330902,29.5068178 C26.9130902,32.5278178 28.2760902,35.4418178 30.4450902,37.6468178 C31.0060902,38.2298178 31.6460902,38.7268178 32.2880902,39.2168178 C33.3760902,40.0618178 34.0160902,41.4308178 34.0070902,42.8048178 C33.9940902,43.9038178 34.0100902,45.0038178 33.9980902,46.1038178 C33.9900902,46.9298178 33.7010902,47.7448178 33.2040902,48.4028178 C32.4420902,49.4318178 31.2860902,50.0388178 30.2350902,50.7228178 C25.1310902,53.9588178 20.0350902,57.2088178 14.8990902,60.3948178 C14.1140902,60.9028178 13.2500902,61.3128178 12.5890902,61.9888178 C11.7890902,62.7678178 11.2660902,63.8658178 11.3260902,64.9958178 C29.1100902,64.9978178 46.8950902,65.0008178 64.6790902,64.9948178 C64.6990902,63.2088178 63.3880902,61.7268178 61.9100902,60.8898178 C56.1290902,57.3218178 50.4080902,53.6608178 44.6700902,50.0248178 C43.6490902,49.3848178 42.6630902,48.5498178 42.2430902,47.3838178 C41.9570902,46.6568178 42.0010902,45.8648178 42.0020902,45.0998178 C42.0000902,44.3308178 42.0060902,43.5628178 41.9970902,42.7938178 C41.9960902,41.6628178 42.4250902,40.5318178 43.1940902,39.6998178 C43.6300902,39.2238178 44.1840902,38.8838178 44.6710902,38.4668178 C46.6500902,36.8068178 48.0830902,34.5588178 48.9530902,32.1398178 C50.3180902,28.2988178 50.3510902,23.9988178 49.0500902,20.1368178 C48.1250902,17.4088178 46.4850902,14.8718178 44.1680902,13.1278178 C42.5120902,11.8788178 40.4920902,11.0868178 38.4110902,11.0098178 C36.3690902,10.9138178 34.3220902,11.5068178 32.6030902,12.6008178 L32.6030902,12.6008178 Z" id="Shape" fill="#1AAD19"></path>
            </g>
        </g>
    </g>
</svg>