<?xml version="1.0" encoding="UTF-8" standalone="no"?>
<svg width="96px" height="84px" viewBox="0 0 96 84" version="1.1" xmlns="http://www.w3.org/2000/svg" xmlns:xlink="http://www.w3.org/1999/xlink" xmlns:sketch="http://www.bohemiancoding.com/sketch/ns">
    <!-- Generator: Sketch 3.3.3 (12081) - http://www.bohemiancoding.com/sketch -->
    <title>navbar_discovery_icon_focus</title>
    <desc>Created with Sketch.</desc>
    <defs></defs>
    <g id="导航栏" stroke="none" stroke-width="1" fill="none" fill-rule="evenodd" sketch:type="MSPage">
        <g id="navbar_discovery_icon_focus" sketch:type="MSArtboardGroup" fill="#45C01A">
            <g sketch:type="MSLayerGroup" transform="translate(14.000000, 8.000000)" id="Shape">
                <path d="M31.552,0.089 C36.477,-0.264 41.481,0.453 46.096,2.217 C52.452,4.625 58.037,9.004 61.913,14.586 C63.992,17.566 65.588,20.883 66.615,24.369 C68.773,31.659 68.4,39.674 65.539,46.72 C63.273,52.354 59.455,57.347 54.627,61.029 C49.385,65.052 42.943,67.485 36.348,67.918 C31.984,68.218 27.561,67.681 23.404,66.314 C17.003,64.229 11.27,60.173 7.147,54.854 C4.738,51.759 2.868,48.244 1.658,44.512 C0.025,39.504 -0.4,34.114 0.381,28.907 C1.448,21.662 4.972,14.819 10.213,9.709 C15.02,4.983 21.263,1.734 27.902,0.548 C29.109,0.329 30.328,0.176 31.552,0.089 L31.552,0.089 Z M30.439,26.843 C28.893,27.609 27.609,28.891 26.842,30.437 C23.199,37.657 19.553,44.875 15.911,52.096 C23.174,48.431 30.436,44.765 37.699,41.1 C39.147,40.347 40.354,39.139 41.103,37.688 C44.772,30.427 48.437,23.165 52.104,15.904 C44.882,19.55 37.66,23.195 30.439,26.843 L30.439,26.843 Z" sketch:type="MSShapeGroup"></path>
                <path d="M33.346,31.079 C34.928,30.679 36.668,31.815 36.943,33.421 C37.306,35.014 36.122,36.729 34.507,36.961 C32.928,37.277 31.267,36.087 31.044,34.497 C30.753,32.98 31.835,31.384 33.346,31.079 L33.346,31.079 Z" sketch:type="MSShapeGroup"></path>
            </g>
        </g>
    </g>
</svg>