<?xml version="1.0" encoding="UTF-8"?>
<svg width="73px" height="73px" viewBox="0 0 73 73" version="1.1" xmlns="http://www.w3.org/2000/svg" xmlns:xlink="http://www.w3.org/1999/xlink">
    <!-- Generator: Sketch 41.2 (35397) - http://www.bohemiancoding.com/sketch -->
    <title>Receive</title>
    <desc>Created with Sketch.</desc>
    <defs></defs>
    <g id="4.11开发方案" stroke="none" stroke-width="1" fill="none" fill-rule="evenodd">
        <g id="Receive" fill="#FFFFFF">
            <path d="M47.1975655,20.8806154 C49.7506103,18.2759298 54.7341236,11.8591507 52.7164609,9.69331067 C50.6185992,7.44138187 47.1247097,10.0999084 43.1020045,10.0999084 C38.4198942,10.0999084 33.4619072,6.34782608 28.7687512,6.34782609 C24.0755951,6.34782609 21.7689074,8.15171682 21.3937915,9.69331066 C20.3693359,13.9034617 24.4714144,19.043554 26.4500448,20.8255118 C17.0567114,25.7323538 10.5797101,36.7759425 10.5797101,46.7957815 C10.5797101,60.1673557 22.1147095,66.6521739 36.7222409,66.6521739 C51.3297723,66.6521739 63.4782609,60.1673557 63.4782609,46.7957815 C63.4782609,36.8132762 56.7075189,25.814636 47.1975655,20.8806154 Z M43.0404989,19.1804474 C45.0044864,18.0073377 47.7132392,13.7647621 47.1740319,13.2266437 C46.5474194,12.6012966 45.275581,13.8519907 42.8316598,13.8519907 C37.1921475,13.8519907 31.2708143,10.0999084 28.4195729,10.0999084 C25.5683315,10.0999084 25.2865105,11.3248166 25.2865105,12.6012966 C25.2865105,14.340447 28.8440239,18.2998867 30.0589441,19.3011812 C32.1809906,18.6090783 34.4132305,18.2294201 36.7222409,18.2294201 C38.8932468,18.2294201 41.0099358,18.5650518 43.0404989,19.1804474 Z M36.8136193,62.0037139 C48.3210479,62.0037139 59.4554831,58.0472131 59.4554831,46.9953846 C59.4554831,35.9435561 48.3210483,22.6068495 36.8136197,22.6068495 C25.3061911,22.6068495 14.9659975,35.9435561 14.9659975,46.9953846 C14.9659975,58.0472131 25.3061907,62.0037139 36.8136193,62.0037139 Z M24.521007,42.9016741 C24.348474,42.7234716 24.3248631,42.4211438 24.4734799,42.2193322 L25.4252871,40.9268417 C25.5715716,40.7281972 25.8562547,40.6894964 26.0420611,40.8263457 L32.6342829,45.6816195 C32.8286333,45.8247616 33.1373935,45.8141179 33.3339849,45.649412 L47.9160117,33.4324734 C48.108096,33.2715437 48.4005362,33.2758409 48.5780098,33.4507593 L49.4311627,34.2916286 C49.6046898,34.4626574 49.6101311,34.7509552 49.4485067,34.9293632 C49.4485067,34.9293632 45.1623674,39.6860402 42.2865721,42.5105368 C39.4107768,45.3350335 33.3027944,51.3340612 33.3027944,51.3340612 C33.1279363,51.5058001 32.8483111,51.5026166 32.6737873,51.3223578 L24.521007,42.9016741 Z" id="Rectangle-143-Copy-5"></path>
        </g>
    </g>
</svg>