<?xml version="1.0" encoding="UTF-8" standalone="no"?>
<svg width="96px" height="96px" viewBox="0 0 96 96" version="1.1" xmlns="http://www.w3.org/2000/svg" xmlns:xlink="http://www.w3.org/1999/xlink" xmlns:sketch="http://www.bohemiancoding.com/sketch/ns">
    <!-- Generator: Sketch 3.3.3 (12081) - http://www.bohemiancoding.com/sketch -->
    <title>ofm_setting_icon</title>
    <desc>Created with Sketch.</desc>
    <defs></defs>
    <g id="Page-1" stroke="none" stroke-width="1" fill="none" fill-rule="evenodd" sketch:type="MSPage">
        <g id="#ffffffff" sketch:type="MSLayerGroup" transform="translate(17.000000, 17.000000)" fill="#FFFFFF">
            <path d="M25,9 C25.8316717,6.20450834 25.8017321,2.61803644 28,0 C30.3924749,0.00788189668 33.8455119,-0.719374905 35,2 C36.0810041,4.15224942 36.4702192,6.6827046 37,9 C38.8254699,9.7710554 40.5220488,10.4684249 42,11 C44.9331538,9.80094266 47.4680422,7.24060022 51,7 C52.3282417,8.3663539 53.7952834,9.7710554 55,11 C54.7034521,14.6327173 52.2384228,17.1233228 51,20 C51.5597913,21.5067884 52.2583826,23.1904377 53,25 C55.8611177,25.840442 59.4538729,25.8304796 62,28 C62.09854,30.0246592 62.1085199,31.9573691 62,34 C59.4838126,36.181436 55.8611177,36.1515487 53,37 C52.2683624,38.8115153 51.5697711,40.5051271 51,42 C52.0587851,44.2509977 53.4459878,46.2434821 54,48 C55.6814799,51.2147307 52.5777386,53.4164259 51,55 C47.3682435,54.6318414 44.8832544,52.191048 42,51 C40.5120689,51.5335282 38.8254699,52.2308977 37,53 C36.1608431,55.8074072 36.2207223,59.4436912 34,62 C31.5701003,61.9940712 28.1070834,62.7113656 27,60 C25.9214906,57.8297788 25.5322755,55.3092861 25,53 C23.1770248,52.2308977 21.4804459,51.5335282 20,51 C17.1092604,52.2010104 14.6242713,54.6517662 11,55 C9.75409201,53.8049604 8.33694966,52.3105971 7,51 C7.13936458,47.46886 9.78403164,44.9085176 11,42 C10.4327236,40.4951647 9.73413226,38.8115153 9,37 C6.14137701,36.1615111 2.54862176,36.1714735 -3.55271368e-15,34 C-0.106025172,31.9772939 -0.106025172,30.0346216 -3.55271368e-15,28 C2.52866201,25.8205171 6.14137701,25.8504044 9,25 C9.73413226,23.1904377 10.4327236,21.5067884 11,20 C9.78403164,17.1532101 7.33896209,14.6825294 7,12 C8.12737227,9.79098024 9.68423288,8.32650422 11,7 C14.574372,7.24060022 17.0793208,9.82086751 20,11 C21.4804459,10.4783874 23.1770248,9.7710554 25,9 L25,9 Z M28,19 C22.4793294,20.0292338 18.395444,25.0143685 18,31 C17.271623,38.0539563 23.9242421,45.2156992 31,45 C39.0757579,45.2156992 45.728377,38.0539563 45,31 C44.604556,22.296116 35.634056,16.0270834 28,19 L28,19 Z" id="Shape" sketch:type="MSShapeGroup"></path>
        </g>
    </g>
</svg>