<?xml version="1.0" encoding="UTF-8" standalone="no"?>
<svg width="96px" height="96px" viewBox="0 0 96 96" version="1.1" xmlns="http://www.w3.org/2000/svg" xmlns:xlink="http://www.w3.org/1999/xlink" xmlns:sketch="http://www.bohemiancoding.com/sketch/ns">
    <!-- Generator: Sketch 3.3.3 (12081) - http://www.bohemiancoding.com/sketch -->
    <title>ofm_webwechat_icon</title>
    <desc>Created with Sketch.</desc>
    <defs></defs>
    <g id="Page-1" stroke="none" stroke-width="1" fill="none" fill-rule="evenodd" sketch:type="MSPage">
        <g id="ofm_webwechat_icon" sketch:type="MSLayerGroup" transform="translate(16.000000, 21.000000)">
            <g id="#ffffffff" fill="#FFFFFF" sketch:type="MSShapeGroup">
                <path d="M1.04939188,4.95513884 C0.739745875,3.15856972 1.93837557,0.942801136 3.97604606,1.10249617 C22.3450462,0.972743955 40.7240349,1.07255335 59.093035,1.05259147 C60.8909795,0.723220466 63.0085586,1.97083791 62.9086728,3.95704488 C63.048513,17.0021329 62.9486272,30.0472209 62.9586157,43.0923089 C63.238296,44.8289924 62.0796206,46.9948563 60.1118702,46.8950469 C53.0799093,47.0547419 46.0379598,46.9050278 38.9960104,46.9549325 L38.9960104,50.9572893 C42.3222078,50.9273464 45.6583938,50.8474989 48.9845912,51.1768699 C48.9845912,52.2747733 48.9146711,54.4007134 47.1766581,53.9316093 C37.0682143,53.9515711 26.9597705,53.9515711 16.8513267,53.9316093 C15.0833479,54.4106944 14.9934507,52.2548114 15.0933365,51.1369462 C18.3895682,50.8774417 21.705777,50.9173655 25.0119972,50.9572893 L25.0119972,46.9549325 C17.9800364,46.9050278 10.9480755,47.0547419 3.92610315,46.8950469 C1.90840983,47.0247991 0.739745875,44.8090305 1.04939188,43.0324233 C1.02941472,30.3366681 1.02941472,17.650894 1.04939188,4.95513884 L1.04939188,4.95513884 Z M5,5 L5,39 L59,39 L59,5 L5,5 L5,5 Z M31.2259018,41.130823 C28.7893277,42.1269957 30.3380813,45.7796292 32.7943847,44.8498679 C35.2013647,43.8442078 33.6526112,40.2769606 31.2259018,41.130823 L31.2259018,41.130823 Z" id="Shape"></path>
            </g>
            <g id="#11111111" transform="translate(29.000000, 40.000000)" fill="#111111" opacity="0.07" sketch:type="MSShapeGroup">
                <path d="M2.22590178,1.13082297 C4.65261118,0.276960612 6.20136475,3.84420782 3.79438469,4.84986793 C1.33808127,5.77962917 -0.21067229,2.12699573 2.22590178,1.13082297 L2.22590178,1.13082297 Z" id="Shape"></path>
            </g>
        </g>
    </g>
</svg>