<?xml version="1.0" encoding="UTF-8" standalone="no"?>
<svg width="96px" height="96px" viewBox="0 0 96 96" version="1.1" xmlns="http://www.w3.org/2000/svg" xmlns:xlink="http://www.w3.org/1999/xlink" xmlns:sketch="http://www.bohemiancoding.com/sketch/ns">
    <!-- Generator: Sketch 3.3.3 (12081) - http://www.bohemiancoding.com/sketch -->
    <title>ofm_qrcode_icon</title>
    <desc>Created with Sketch.</desc>
    <defs></defs>
    <g id="OFM菜单" stroke="none" stroke-width="1" fill="none" fill-rule="evenodd" sketch:type="MSPage">
        <g id="ofm_qrcode_icon" sketch:type="MSArtboardGroup" fill="#FFFFFF">
            <g id="scan" sketch:type="MSLayerGroup" transform="translate(13.000000, 17.000000)">
                <path d="M58.4700651,62 L53.9754988,62 C49.6486676,62 44.8697912,60.3842542 39.6773489,47.9642516 L27.990025,47.9642516 C26.7203804,47.9642516 26,46.2865276 26,45.0178834 L26,42.1522678 C26,40.8897346 26.7252778,39.9400372 27.990025,39.9400372 L56.1991709,39.9400372 C58.5658275,39.9400372 59.9809054,37.8126499 59.9809054,35.1115866 C59.9809054,34.687483 59.9184638,34.2829346 59.8290867,33.889386 L59.9809054,33.889386 L59.9809054,35.095698 C60.0751798,34.2096025 60.0494686,33.6253907 59.6087048,32.0878623 C58.9769434,29.8842346 61.3937982,23.5251248 65.8932618,23.0179116 C67.0184338,22.8895805 68.3860259,23.440793 68.1925796,24.9966543 C66.7613216,36.4902289 71,38.6547462 71,50.9904169 C71,56.72376 66.5690996,62 58.4700651,62 Z M15.8108108,21.9990786 C15.6101351,22.0369659 10.9459459,24.1892091 10.9459459,26.8877627 C10.9459459,27.311856 11.007973,27.7176168 11.0967568,28.1099337 L10.9459459,28.1099337 L10.9459459,26.9048731 C10.8522973,27.7897249 10.8766216,28.3751448 11.3156757,29.9138582 C11.9432432,32.1149882 9.54243243,38.4739441 5.07283784,38.9823672 C3.95513514,39.109473 2.59662162,38.559496 2.78878378,37.0036723 C4.21054054,25.5091538 0,23.3434667 0,11.0093167 C0,5.27611234 4.40148649,0 12.4467568,0 L16.9114865,0 C21.2095946,0 26.1450055,2.53146985 31.3029785,14.9511719 L42.7256775,14.9511719 C43.9868937,14.9511719 45,15.6951204 45,16.9625117 L45,19.7123966 C45,20.9761214 43.9808108,21.9990786 42.7256757,21.9990786 L15.8108108,21.9990786 Z" id="Shape" sketch:type="MSShapeGroup"></path>
            </g>
        </g>
    </g>
</svg>