<?xml version="1.0" encoding="UTF-8" standalone="no"?>
<svg width="96px" height="96px" viewBox="0 0 96 96" version="1.1" xmlns="http://www.w3.org/2000/svg" xmlns:xlink="http://www.w3.org/1999/xlink">
    <!-- Generator: Sketch 3.6.1 (26313) - http://www.bohemiancoding.com/sketch -->
    <title>iPad Pro Portrait</title>
    <desc>Created with Sketch.</desc>
    <defs></defs>
    <g id="Page-1" stroke="none" stroke-width="1" fill="none" fill-rule="evenodd">
        <g id="iPad-Pro-Portrait" fill="#FFFFFF">
            <path d="M21.4022948,63.5734177 C17.9902836,59.1206849 16,53.7637168 16,48 C16,32.536027 30.326888,20 48,20 C65.673112,20 80,32.536027 80,48 C80,63.463973 65.673112,76 48,76 C42.6110923,76 37.5333063,74.8344381 33.0779512,72.7757096 C32.064,72.3056049 30.848,72.2433827 29.7694603,72.5244554 C27.0089483,73.2459849 21.4879244,74.6890439 21.4879244,74.6890439 C20.8048509,74.8675825 20.4003081,74.4740226 20.5838923,73.8101238 C20.5838923,73.8101238 21.7526922,69.5833714 22.3370922,67.4699952 C22.752,65.8656049 22.208,64.6211605 21.4022948,63.5734177 Z M73.6,54.3646872 L73.6,54.3632974 C71.2517393,54.3387696 68.7037606,52.9845917 66.2090661,50.6629667 C65.3166687,49.8324794 63.7090909,47.9976439 63.7090909,47.9976439 C63.7090909,47.9976439 65.3160449,46.1681011 66.2090661,45.3370333 C68.7037606,43.0154083 71.2517393,41.6612304 73.6,41.6367027 L73.6,41.6353128 L73.6,41.6353128 C73.6241545,41.6360117 73.6483986,41.6363636 73.6727273,41.6363636 C74.9982107,41.6363636 76.0727273,40.5916947 76.0727273,39.3030303 C76.0727273,38.0143659 74.9982107,36.969697 73.6727273,36.969697 C73.6483986,36.969697 73.6241545,36.9700489 73.6,36.9707478 L73.6,36.969697 C71.4983817,36.969697 69.4379626,37.5554577 67.4393425,38.6154498 C65.8256551,39.4712882 64.2937143,40.6132467 62.843204,41.9694949 C62.1140136,42.6512985 61.4319216,43.3620669 60.8,44.0829482 L60.8,44.0829482 C60.1680784,43.3620669 59.4859864,42.6512985 58.756796,41.9694949 C57.3062857,40.6132467 55.7743449,39.4712882 54.1606575,38.6154498 C52.1620374,37.5554577 50.1016183,36.969697 48,36.969697 C45.8983817,36.969697 43.8379626,37.5554577 41.8393425,38.6154498 C40.2256551,39.4712882 38.6937143,40.6132467 37.243204,41.9694949 C36.5140136,42.6512985 35.8319216,43.3620669 35.2,44.0829482 L35.2,44.0829482 C34.5680784,43.3620669 33.8859864,42.6512985 33.156796,41.9694949 C31.7062857,40.6132467 30.1743449,39.4712882 28.5606575,38.6154498 C26.6056902,37.5786095 24.591594,36.995511 22.5376482,36.9705341 C22.5160776,36.9699772 22.4944361,36.969697 22.4727273,36.969697 C22.4649446,36.969697 22.4571706,36.969733 22.4494054,36.9698049 C22.4329395,36.9697329 22.416471,36.969697 22.4,36.969697 L22.4,36.9707478 C21.1081613,37.0081281 20.0727273,38.0380188 20.0727273,39.3030303 C20.0727273,40.5680418 21.1081613,41.5979326 22.4,41.6353128 L22.4,41.6367027 C22.4216317,41.6364768 22.4432465,41.6363636 22.4648442,41.6363636 C24.8310015,41.6363636 27.402947,42.994022 29.9206222,45.3370333 C30.8068891,46.1618154 32.2909091,47.9976439 32.2909091,47.9976439 C32.2909091,47.9976439 30.8090996,49.8361275 29.9206222,50.6629667 C27.402947,53.005978 24.8310015,54.3636364 22.4648442,54.3636364 C22.4432465,54.3636364 22.4216317,54.3635232 22.4,54.3632974 L22.4,54.3646872 C21.1081613,54.4020674 20.0727273,55.4319582 20.0727273,56.6969697 C20.0727273,57.9619812 21.1081613,58.9918719 22.4,59.0292522 L22.4,59.030303 C22.416471,59.030303 22.4329395,59.0302671 22.4494054,59.0301951 C22.4571706,59.030267 22.4649446,59.030303 22.4727273,59.030303 C22.4944361,59.030303 22.5160776,59.0300228 22.5376482,59.0294659 L22.5376482,59.0294659 C24.591594,59.004489 26.6056902,58.4213905 28.5606575,57.3845502 C30.1743449,56.5287118 31.7062857,55.3867533 33.156796,54.0305051 C33.8859864,53.3487015 34.5680784,52.6379331 35.2,51.9170518 C35.8319216,52.6379331 36.5140136,53.3487015 37.243204,54.0305051 C38.6937143,55.3867533 40.2256551,56.5287118 41.8393425,57.3845502 C43.8379626,58.4445423 45.8983817,59.030303 48,59.030303 C50.1016183,59.030303 52.1620374,58.4445423 54.1606575,57.3845502 C55.7743449,56.5287118 57.3062857,55.3867533 58.756796,54.0305051 C59.4859864,53.3487015 60.1680784,52.6379331 60.8,51.9170518 C61.4319216,52.6379331 62.1140136,53.3487015 62.843204,54.0305051 C64.2937143,55.3867533 65.8256551,56.5287118 67.4393425,57.3845502 C69.4379626,58.4445423 71.4983817,59.030303 73.6,59.030303 L73.6,59.0292522 C73.6241545,59.0299511 73.6483986,59.030303 73.6727273,59.030303 C74.9982107,59.030303 76.0727273,57.9856341 76.0727273,56.6969697 C76.0727273,55.4083053 74.9982107,54.3636364 73.6727273,54.3636364 C73.6483986,54.3636364 73.6241545,54.3639883 73.6,54.3646872 L73.6,54.3646872 Z M40.6090661,50.6629667 C39.7166687,49.8324794 38.1090909,47.9976439 38.1090909,47.9976439 C38.1090909,47.9976439 39.7160449,46.1681011 40.6090661,45.3370333 C43.1267413,42.994022 45.6986868,41.6363636 48.0648442,41.6363636 C50.4310015,41.6363636 53.002947,42.994022 55.5206222,45.3370333 C56.4068891,46.1618154 57.8909091,47.9976439 57.8909091,47.9976439 C57.8909091,47.9976439 56.4090996,49.8361275 55.5206222,50.6629667 C53.002947,53.005978 50.4310015,54.3636364 48.0648442,54.3636364 C45.6986868,54.3636364 43.1267413,53.005978 40.6090661,50.6629667 Z" id="DNA背景"></path>
        </g>
    </g>
</svg>