<?xml version="1.0" encoding="UTF-8" standalone="no"?>
<svg width="96px" height="96px" viewBox="0 0 96 96" version="1.1" xmlns="http://www.w3.org/2000/svg" xmlns:xlink="http://www.w3.org/1999/xlink" xmlns:sketch="http://www.bohemiancoding.com/sketch/ns">
    <!-- Generator: Sketch 3.3.3 (12072) - http://www.bohemiancoding.com/sketch -->
    <title>ofm_add_green_icon</title>
    <desc>Created with Sketch.</desc>
    <defs></defs>
    <g id="Page-1" stroke="none" stroke-width="1" fill="none" fill-rule="evenodd" sketch:type="MSPage">
        <g id="ofm_add_green_icon" sketch:type="MSLayerGroup" transform="translate(9.000000, 19.000000)" fill="#46C01A">
            <path d="M28.0099754,0.143353033 C17.0187944,0.206036118 14.5678941,10.157754 15,16 C14.8055424,21.5069533 18.4505191,25.8160722 21,30 C22.3145929,32.3347395 21.7967273,35.2641405 20,37 C14.028744,40.7330224 7.22677922,43.1725236 2,48 C-0.939562152,50.2610743 -0.899726341,57.339627 4,57 C11.9566682,56.9802977 20.026274,56.9863367 28.009976,56.9998393 L28.009976,57.0102639 C36.0244215,56.9966495 44.021988,56.9680102 52.0099754,56.9877901 C56.9097017,57.3274171 56.9495382,50.2610743 54.009976,48 C48.7831968,43.1725236 41.981232,40.7330224 36.009976,37 C34.2132487,35.2641405 33.6953831,32.3347395 35.009976,30 C37.5594569,25.8160722 41.2044336,21.5069533 41.009976,16 C41.4433146,10.1410876 39.0814227,0.147278474 28.0099754,0.141113281 Z" id="Shape" sketch:type="MSShapeGroup"></path>
            <path d="M59,15 C59.5507954,12.2919867 64.4960904,12.3118962 65,15 C65.0982122,18.4041742 64.9106661,21.7091354 65,25 C68.6023633,25.0738249 72.2447064,24.8846856 76,25 C77.3972892,26.3480268 77.3380641,29.5932599 76,31 C72.2644481,31.1163294 68.6122342,30.9271901 65,31 C64.9106661,34.3217436 65.108083,37.656569 65,41 C64.3578985,43.6990735 59.5409245,43.6692094 59,41 C58.8993194,37.6067955 59.1066072,34.2918795 59,31 C55.4050391,30.9271901 51.762696,31.1163294 48,31 C46.6594674,29.6629428 46.560759,26.208661 48,25 C51.8120503,24.8747309 55.4346516,25.0738249 59,25 C59.1066072,21.7091354 58.9091903,18.3942195 59,15 L59,15 L59,15 Z" id="Shape" sketch:type="MSShapeGroup"></path>
        </g>
    </g>
</svg>