<?xml version="1.0" encoding="UTF-8" standalone="no"?>
<svg width="96px" height="96px" viewBox="0 0 96 96" version="1.1" xmlns="http://www.w3.org/2000/svg" xmlns:xlink="http://www.w3.org/1999/xlink" xmlns:sketch="http://www.bohemiancoding.com/sketch/ns">
    <!-- Generator: Sketch 3.3 (11970) - http://www.bohemiancoding.com/sketch -->
    <title>ofm_pic_icon</title>
    <desc>Created with Sketch.</desc>
    <defs></defs>
    <g id="OFM菜单" stroke="none" stroke-width="1" fill="none" fill-rule="evenodd" sketch:type="MSPage">
        <g id="ofm_pic_icon" sketch:type="MSArtboardGroup" fill="#FFFFFF">
            <path d="M78,23 L18,23 C16.344,23 15,24.343 15,26 L15,70 C15,71.657 16.344,73 18,73 L78,73 C79.656,73 81,71.657 81,70 L81,26 C81,24.343 79.656,23 78,23 Z M76,59 C73.152,54.0881838 68.083,47.3549067 63.744,47.3549067 C62.005,47.3549067 58.828,49.377301 55.663,52.1290835 C56.991,55.097874 58.811,58.1410099 58.8,58.1410099 C57.888,58.1410099 55.199,53.8350078 55.199,53.8350078 C55.026,53.5597291 54.844,53.2904784 54.659,53.026251 C54.605,53.0754796 54.552,53.1237037 54.498,53.1729323 C51.521,49.3582123 45.061,40.1996694 39.359,40.1996694 C35.016,40.1996694 24.034,50.0654978 20,57.1644737 L20,28 L76,28 L76,59 Z" id="Path" sketch:type="MSShapeGroup"></path>
        </g>
    </g>
</svg>