<?xml version="1.0" encoding="UTF-8"?>
<svg width="168px" height="168px" viewBox="0 0 168 168" version="1.1" xmlns="http://www.w3.org/2000/svg" xmlns:xlink="http://www.w3.org/1999/xlink">
    <!-- Generator: Sketch 40.2 (33826) - http://www.bohemiancoding.com/sketch -->
    <title>Panel_icon_Sights</title>
    <desc>Created with Sketch.</desc>
    <defs></defs>
    <g id="Panel" stroke="none" stroke-width="1" fill="none" fill-rule="evenodd">
        <g id="Panel_icon_Sights" fill="#7C8186">
            <g id="app_panel_sights_icon" transform="translate(31.000000, 50.000000)">
                <path d="M53.4584283,68.6728516 C83.8412142,68.6728507 105.827968,35.9579479 105.827968,35.9579479 C106.469745,35.062406 106.475855,33.6033755 105.819447,32.7034081 C105.819447,32.7034081 83.841218,2.49634525e-15 53.4584283,0 C23.0756386,-2.49634523e-15 1.08888856,32.7149036 1.08888856,32.7149036 C0.447111799,33.6104456 0.441001746,35.0694761 1.09740942,35.9694435 C1.09740942,35.9694435 23.0756423,68.6728524 53.4584283,68.6728516 Z M53.4584283,54.6261319 C64.8583127,54.6261319 74.0997449,45.5421211 74.0997449,34.3364258 C74.0997449,23.1307305 64.8583127,14.0467196 53.4584283,14.0467196 C42.0585439,14.0467196 32.8171117,23.1307305 32.8171117,34.3364258 C32.8171117,45.5421211 42.0585439,54.6261319 53.4584283,54.6261319 Z" id="Oval-12"></path>
                <path d="M41.1755875,25.2411701 C39.1815847,27.8499443 38,31.0930024 38,34.6074663 C38,43.2275899 45.1084297,50.2149325 53.8779358,50.2149325 C62.647442,50.2149325 69.7558717,43.2275899 69.7558717,34.6074663 C69.7558717,25.9873426 62.647442,19 53.8779358,19 C51.3319287,19 48.9259313,19.5889535 46.7932466,20.6358285 C49.0163897,21.0314849 50.7023487,22.9436063 50.7023487,25.2429865 C50.7023487,27.8290236 48.5698198,29.9252264 45.9389679,29.9252264 C43.3081161,29.9252264 41.1755872,27.8290236 41.1755872,25.2429865 C41.1755872,25.242381 41.1755873,25.2417755 41.1755875,25.2411701 Z" id="Combined-Shape"></path>
            </g>
        </g>
    </g>
</svg>