<?xml version="1.0" encoding="UTF-8"?>
<svg width="168px" height="168px" viewBox="0 0 168 168" version="1.1" xmlns="http://www.w3.org/2000/svg" xmlns:xlink="http://www.w3.org/1999/xlink">
    <!-- Generator: Sketch 40.2 (33826) - http://www.bohemiancoding.com/sketch -->
    <title>Panel_icon_wxtalk</title>
    <desc>Created with Sketch.</desc>
    <defs></defs>
    <g id="Panel" stroke="none" stroke-width="1" fill="none" fill-rule="evenodd">
        <g id="Panel_icon_wxtalk" fill="#7C8186">
            <g id="sharemore_wxtalk" transform="translate(46.000000, 41.000000)">
                <path d="M58.0433798,85.0219182 C68.8324836,74.1734487 75.5,59.2217681 75.5,42.7128057 C75.5,25.9980937 68.6652548,10.8797221 57.6380738,5.11848341e-11 L50.2132474,7.42482636 C59.3403961,16.4042421 65,28.8975882 65,42.7128057 C65,56.3222732 59.5077177,68.6489494 50.6187245,77.5972629 L58.0433798,85.0219182 Z M40.0120381,66.9905765 C46.1866042,60.7568029 50,52.1801374 50,42.7128057 C50,33.0397225 46.0190517,24.2964396 39.606136,18.0319378 L32.1807788,25.457295 C36.6939041,29.8210221 39.5,35.9392145 39.5,42.7128057 C39.5,49.2806423 36.8617908,55.2322922 32.5872947,59.565833 L40.0120381,66.9905765 Z M13,55.5 C20.1797017,55.5 26,49.6797017 26,42.5 C26,35.3202983 20.1797017,29.5 13,29.5 C5.82029825,29.5 0,35.3202983 0,42.5 C0,49.6797017 5.82029825,55.5 13,55.5 Z" id="Combined-Shape"></path>
            </g>
        </g>
    </g>
</svg>