<?xml version="1.0" encoding="UTF-8"?>
<svg width="168px" height="168px" viewBox="0 0 168 168" version="1.1" xmlns="http://www.w3.org/2000/svg" xmlns:xlink="http://www.w3.org/1999/xlink">
    <!-- Generator: Sketch 40.2 (33826) - http://www.bohemiancoding.com/sketch -->
    <title>Panel_icon_enterprise</title>
    <desc>Created with Sketch.</desc>
    <defs></defs>
    <g id="Panel" stroke="none" stroke-width="1" fill="none" fill-rule="evenodd">
        <g id="Panel_icon_enterprise" fill="#7C8186">
            <g transform="translate(49.000000, 46.000000)" id="Shape">
                <path d="M0.944840582,3 C0.423019537,3 0,3.42988563 0,3.94484058 L0,36.0551595 C0,36.5769805 0.429885626,37 0.944840582,37 L33.0551595,37 C33.5769805,37 34,36.5701144 34,36.0551595 L34,3.94484058 C34,3.42301954 33.5701144,3 33.0551595,3 L0.944840582,3 L0.944840582,3 Z M0,42.9448405 L0,75.0551595 C0,75.5769805 0.429885626,76 0.944840582,76 L33.0551595,76 C33.5769805,76 34,75.5701144 34,75.0551595 L34,42.9448405 C34,42.4230195 33.5701144,42 33.0551595,42 L0.944840582,42 C0.423019537,42 0,42.4298856 0,42.9448405 Z M39.9448405,42 C39.4230195,42 39,42.4298856 39,42.9448405 L39,75.0551595 C39,75.5769805 39.4298856,76 39.9448405,76 L72.0551595,76 C72.5769805,76 73,75.5701144 73,75.0551595 L73,42.9448405 C73,42.4230195 72.5701144,42 72.0551595,42 L39.9448405,42 L39.9448405,42 Z M39.461055,36.2494185 C39.4978686,34.7504287 41.8749633,16.0525498 53.1986919,10.6351603 C64.5224203,5.21777083 71.4055589,7.70868912 76.8216063,1.00757272 C78.1562088,-0.643691748 79.4560413,12.7675034 74.1091504,24.2396598 C68.7622597,35.7118164 57.2630988,32.0313441 51.0756941,31.9847058 C44.8882895,31.9380675 39.4242416,37.7484083 39.461055,36.2494185 L39.461055,36.2494185 Z"></path>
            </g>
        </g>
    </g>
</svg>