<?xml version="1.0" encoding="UTF-8" standalone="no"?>
<svg width="72px" height="72px" viewBox="0 0 72 72" version="1.1" xmlns="http://www.w3.org/2000/svg" xmlns:xlink="http://www.w3.org/1999/xlink" xmlns:sketch="http://www.bohemiancoding.com/sketch/ns">
    <!-- Generator: Sketch 3.3.3 (12081) - http://www.bohemiancoding.com/sketch -->
    <title>promo_icon_qqmail_uninstall</title>
    <desc>Created with Sketch.</desc>
    <defs>
        <linearGradient x1="100%" y1="0%" x2="50%" y2="107.664659%" id="linearGradient-1">
            <stop stop-color="#B2B2B2" offset="0%"></stop>
            <stop stop-color="#B2B2B2" offset="40.9188828%"></stop>
            <stop stop-color="#B9B9B9" offset="60.4567959%"></stop>
            <stop stop-color="#B9B9B9" offset="100%"></stop>
        </linearGradient>
    </defs>
    <g id="Page-1" stroke="none" stroke-width="1" fill="none" fill-rule="evenodd" sketch:type="MSPage">
        <g id="promo_icon_qqmail_uninstall" sketch:type="MSLayerGroup">
            <g id="Page-1" sketch:type="MSShapeGroup">
                <g id="promo_icon_qqmail_uninstall">
                    <g id="Rectangle-1">
                        <rect id="path-2" x="0" y="0" width="72" height="72" rx="16"></rect>
                        <g id="path-2-link" fill="url(#linearGradient-1)">
                            <rect id="path-2" x="0" y="0" width="72" height="72" rx="16"></rect>
                        </g>
                    </g>
                    <g id="Rectangle-4" transform="translate(13.000000, 19.000000)">
                        <g id="path-3-link" fill="#FFFFFF">
                            <path d="M44,5.9411255 L27.2471567,22.6939688 C24.9015168,25.0396087 21.1024498,25.0435753 18.7528433,22.6939688 L0,3.9411255 L0,1.005643 C0,0.4502417 0.4498156,0 1.0016723,0 L3.1299423,0 L22.2951026,19.1651603 C22.6795178,19.5495755 23.3155933,19.5544644 23.7048974,19.1651603 L42.8700577,0 L42.9983277,0 C43.551536,0 44,0.4415441 44,1.005643 L44,5.9411255 L44,5.9411255 Z" id="path-3"></path>
                        </g>
                        <path d="M44,5.9411255 L27.2471567,22.6939688 C24.9015168,25.0396087 21.1024498,25.0435753 18.7528433,22.6939688 L0,3.9411255 L0,1.005643 C0,0.4502417 0.4498156,0 1.0016723,0 L3.1299423,0 L22.2951026,19.1651603 C22.6795178,19.5495755 23.3155933,19.5544644 23.7048974,19.1651603 L42.8700577,0 L42.9983277,0 C43.551536,0 44,0.4415441 44,1.005643 L44,5.9411255 L44,5.9411255 Z" id="path-3"></path>
                    </g>
                    <g id="Rectangle-2" transform="translate(12.000000, 17.000000)">
                        <g id="path-4-link" fill="#FFFFFF">
                            <path d="M0,6.0002441 C0,2.6864008 2.6835413,0 6.0063866,0 L41.9936134,0 C45.3108491,0 48,2.6872263 48,6.0002441 L48,31.9997559 C48,35.3135992 45.3164587,38 41.9936134,38 L6.0063866,38 C2.6891509,38 0,35.3127737 0,31.9997559 L0,6.0002441 L0,6.0002441 Z M5,5.9965348 C5,5.4461638 5.4532303,5 5.9968754,5 L42.0031246,5 C42.5536837,5 43,5.4398131 43,5.9965348 L43,32.0034652 C43,32.5538362 42.5467697,33 42.0031246,33 L5.9968754,33 C5.4463163,33 5,32.5601869 5,32.0034652 L5,5.9965348 L5,5.9965348 Z" id="path-4"></path>
                        </g>
                        <path d="M0,6.0002441 C0,2.6864008 2.6835413,0 6.0063866,0 L41.9936134,0 C45.3108491,0 48,2.6872263 48,6.0002441 L48,31.9997559 C48,35.3135992 45.3164587,38 41.9936134,38 L6.0063866,38 C2.6891509,38 0,35.3127737 0,31.9997559 L0,6.0002441 L0,6.0002441 Z M5,5.9965348 C5,5.4461638 5.4532303,5 5.9968754,5 L42.0031246,5 C42.5536837,5 43,5.4398131 43,5.9965348 L43,32.0034652 C43,32.5538362 42.5467697,33 42.0031246,33 L5.9968754,33 C5.4463163,33 5,32.5601869 5,32.0034652 L5,5.9965348 L5,5.9965348 Z" id="path-4"></path>
                    </g>
                </g>
            </g>
        </g>
    </g>
</svg>