<?xml version="1.0" encoding="UTF-8" standalone="no"?>
<svg width="96px" height="96px" viewBox="0 0 96 96" version="1.1" xmlns="http://www.w3.org/2000/svg" xmlns:xlink="http://www.w3.org/1999/xlink" xmlns:sketch="http://www.bohemiancoding.com/sketch/ns">
    <!-- Generator: Sketch 3.3.3 (12081) - http://www.bohemiancoding.com/sketch -->
    <title>actionbar_qqmsg_icon</title>
    <desc>Created with Sketch.</desc>
    <defs>
        <path d="M27.3346146,45.8650989 C25.343316,46.8789701 21.1871383,52.7304829 20.7319336,57.0424805 C20.2319336,61.7788086 21.0824036,65.6899414 22.7392578,65.6899414 C23.6915878,65.6899414 25.9245255,64.0511643 27.6513051,61.7660506 C28.8618314,64.0502389 30.4478727,66.106012 32.3274759,67.851654 C28.9992719,69.1879074 26,71.2001126 26,73.5 C26,77.5205078 31.5285645,80.1118164 35.6450195,80.1118164 C38.9311977,80.1118164 45.6076337,78.1733482 48,75.3793886 L48,75.3793886 C50.3923663,78.1733482 57.0688023,80.1118164 60.3549805,80.1118164 C64.4714355,80.1118164 70,77.5205078 70,73.5 C70,71.2001126 67.0007281,69.1879074 63.6725241,67.851654 L63.6725241,67.851654 C65.6050048,66.0569031 67.2271743,63.9343263 68.4499661,61.5727318 C70.3883446,63.9581704 72.9797385,65.6899414 74.0674913,65.6899414 C75.9084405,65.6899414 76.8534071,61.7788086 76.2978516,57.0424805 C75.7696104,52.5390178 70.7558829,46.3562868 68.6816064,45.7592147 C68.8908087,44.3759444 69,42.952738 69,41.5 C69,27.9690236 59.5979797,17 48,17 C36.4020203,17 27,27.9690236 27,41.5 C27,42.9898327 27.1148388,44.4486063 27.3346146,45.8650989 Z" id="path-1"></path>
    </defs>
    <g id="操作栏" stroke="none" stroke-width="1" fill="none" fill-rule="evenodd" sketch:type="MSPage">
        <g id="actionbar_qqmsg_icon" sketch:type="MSArtboardGroup">
            <mask id="mask-2" sketch:name="qq" fill="white">
                <use xlink:href="#path-1"></use>
            </mask>
            <use id="qq" fill="#FFFFFF" sketch:type="MSShapeGroup" xlink:href="#path-1"></use>
        </g>
    </g>
</svg>