<?xml version="1.0" encoding="UTF-8" standalone="no"?>
<svg width="71px" height="71px" viewBox="0 0 71 71" version="1.1" xmlns="http://www.w3.org/2000/svg" xmlns:xlink="http://www.w3.org/1999/xlink">
    <!-- Generator: Sketch 40.3 (33839) - http://www.bohemiancoding.com/sketch -->
    <title>按日期 去掉背景 press</title>
    <desc>Created with Sketch.</desc>
    <defs></defs>
    <g id="安卓" stroke="none" stroke-width="1" fill="none" fill-rule="evenodd">
        <g id="按日期-去掉背景-press">
            <g id="Group-2">
                <circle id="Oval-18-Copy" cx="85.5" cy="85.5" r="85.5"></circle>
                <g id="Group" fill="#565658">
                    <path d="M0,6.9932301 C0,5.89239951 0.897702336,5 1.99174577,5 L69.0082542,5 C70.108265,5 71,5.89544336 71,6.9932301 L71,69.0067699 C71,70.1076005 70.1022977,71 69.0082542,71 L1.99174577,71 C0.891734954,71 0,70.1045566 0,69.0067699 L0,6.9932301 Z M3,8 L68,8 L68,68 L3,68 L3,8 Z" id="Combined-Shape"></path>
                    <rect id="Rectangle-2" x="0" y="26" width="71" height="3"></rect>
                    <rect id="Rectangle-2-Copy" x="12" y="39" width="11" height="3"></rect>
                    <rect id="Rectangle-2-Copy-7" transform="translate(15.613636, 6.992424) rotate(-270.000000) translate(-15.613636, -6.992424) " x="8.62121212" y="5.60606061" width="14" height="3"></rect>
                    <rect id="Rectangle-2-Copy-8" transform="translate(55.613636, 6.992424) rotate(-270.000000) translate(-55.613636, -6.992424) " x="48.6212121" y="5.60606061" width="14" height="3"></rect>
                    <rect id="Rectangle-2-Copy-4" x="12" y="53" width="11" height="3"></rect>
                    <rect id="Rectangle-2-Copy-2" x="30" y="39" width="11" height="3"></rect>
                    <rect id="Rectangle-2-Copy-5" x="30" y="53" width="11" height="3"></rect>
                    <rect id="Rectangle-2-Copy-3" x="48" y="39" width="11" height="3"></rect>
                    <rect id="Rectangle-2-Copy-6" x="48" y="53" width="11" height="3"></rect>
                </g>
            </g>
        </g>
    </g>
</svg>