<?xml version="1.0" encoding="UTF-8" standalone="no"?>
<svg width="138px" height="138px" viewBox="0 0 138 138" version="1.1" xmlns="http://www.w3.org/2000/svg" xmlns:xlink="http://www.w3.org/1999/xlink" xmlns:sketch="http://www.bohemiancoding.com/sketch/ns">
    <!-- Generator: Sketch 3.3.3 (12072) - http://www.bohemiancoding.com/sketch -->
    <title>Icon / Default Avatar Copy 4</title>
    <desc>Created with Sketch.</desc>
    <defs>
        <rect id="path-1" x="0" y="0" width="138" height="138" rx="6"></rect>
    </defs>
    <g id="search" stroke="none" stroke-width="1" fill="none" fill-rule="evenodd" sketch:type="MSPage">
        <g id="Artboard-22" sketch:type="MSArtboardGroup" transform="translate(-283.000000, -245.000000)">
            <g id="Icon-/-Default-Avatar-Copy-4" sketch:type="MSLayerGroup" transform="translate(283.000000, 245.000000)">
                <mask id="mask-2" sketch:name="Rectangle 14" fill="white">
                    <use xlink:href="#path-1"></use>
                </mask>
                <use id="Rectangle-14" fill="#2BA245" sketch:type="MSShapeGroup" xlink:href="#path-1"></use>
                <g id="Fill-24-+-Rectangle-755" mask="url(#mask-2)" sketch:type="MSShapeGroup">
                    <g transform="translate(30.000000, 36.000000)">
                        <path d="M23.2394366,34.3943662 C27.3596395,40.9395117 20.5189917,43.9030218 17.6619718,45.5492958 C5.37078903,52.5418486 0,55.1607645 0,58.5633803 L0,63.2112676 C0,64.7055244 1.11764359,66 2.78873239,66 L63.2112676,66 C64.8823564,66 66,64.7055244 66,63.2112676 L66,58.5633803 C66,55.1607645 60.629211,52.5418486 48.3380282,45.5492958 C45.4810083,43.9030218 38.6403605,40.9395117 42.7605634,34.3943662 C46.4195927,28.9606183 49.2746999,26.7472248 49.2676056,17.6619718 C49.2746999,9.03708064 42.8964585,0 33.4647887,0 C23.1035415,0 16.7253001,9.03708064 16.7323944,17.6619718 C16.7253001,26.7472248 19.5804073,28.9606183 23.2394366,34.3943662 Z" id="Fill-24" stroke="#FFFFFF" stroke-width="6" fill="none"></path>
                        <path d="M69,30 L61.5,30 L61.5,34.5 L69,34.5 L69,42 L73.5,42 L73.5,34.5 L81,34.5 L81,30 L73.5,30 L73.5,22.5 L69,22.5 L69,30 Z" id="Rectangle-755" stroke="none" fill="#FFFFFF" fill-rule="evenodd"></path>
                    </g>
                </g>
            </g>
        </g>
    </g>
</svg>