<?xml version="1.0" encoding="UTF-8" standalone="no"?>
<svg width="90px" height="90px" viewBox="0 0 90 90" version="1.1" xmlns="http://www.w3.org/2000/svg" xmlns:xlink="http://www.w3.org/1999/xlink" xmlns:sketch="http://www.bohemiancoding.com/sketch/ns">
    <!-- Generator: Sketch 3.2.2 (9983) - http://www.bohemiancoding.com/sketch -->
    <title>sight_list_checkbox_unselected_red</title>
    <desc>Created with Sketch.</desc>
    <defs></defs>
    <g id="Page-1" stroke="none" stroke-width="1" fill="none" fill-rule="evenodd" sketch:type="MSPage">
        <g id="#ff9400ff" sketch:type="MSLayerGroup" transform="translate(11.000000, 11.000000)" fill="#FF9400">
            <path d="M26.4,1.66 C42.28,-1.94 59.61,8.21 64.37,23.75 C69.73,39.03 61.77,57.35 46.96,63.88 C32.58,71.02 13.62,65.47 5.24,51.82 C-2.86,39.68 -1.34,22.27 8.7,11.7 C13.34,6.59 19.66,3.07 26.4,1.66 L26.4,1.66 Z M26.42,4.73 C22.56,5.59 18.89,7.26 15.66,9.55 C3.91,17.54 -0.47,34.34 5.99,47.02 C12.27,60.81 29.81,67.79 43.84,61.97 C58.14,56.76 66.51,39.71 61.68,25.23 C57.54,10.62 41.2,1.03 26.42,4.73 L26.42,4.73 Z" id="Shape" sketch:type="MSShapeGroup"></path>
        </g>
    </g>
</svg>