<?xml version="1.0" encoding="UTF-8" standalone="no"?>
<svg width="46px" height="46px" viewBox="0 0 46 46" version="1.1" xmlns="http://www.w3.org/2000/svg" xmlns:xlink="http://www.w3.org/1999/xlink" xmlns:sketch="http://www.bohemiancoding.com/sketch/ns">
    <!-- Generator: Sketch 3.3.3 (12081) - http://www.bohemiancoding.com/sketch -->
    <title>status_accountkey_off</title>
    <desc>Created with Sketch.</desc>
    <defs></defs>
    <g id="Page-1" stroke="none" stroke-width="1" fill="none" fill-rule="evenodd" sketch:type="MSPage">
        <g id="status_accountkey_off" sketch:type="MSLayerGroup">
            <g id="Page-1" sketch:type="MSShapeGroup">
                <g id="status_accountkey_off">
                    <circle id="Oval-1" fill="#F86161" cx="23" cy="23" r="23"></circle>
                    <path d="M29.8545802,16.9700055 C29.6800276,15.7277874 29.3484363,14.5338343 28.44,13.5700055 C25.85,10.1500055 20.18,10.1400055 17.59,13.5600055 C15.97,15.3100055 16.18,17.7900055 15.83,19.9700055 L13,19.9700055 C13.01,24.3100055 13.01,28.6400055 13.01,32.9700055 L33.01,32.9700055 C33.01,28.6400055 33.01,24.3100055 33.02,19.9700055 L31.605,19.9700055 L26.1,19.9700055 L18.83,19.9700055 C18.81,17.3500055 19.72,13.8700055 23,13.9700055 C25.0800249,13.8873134 26.2253901,15.2733723 26.7732536,16.9700055 L29.8545802,16.9700055 L29.8545802,16.9700055 Z" id="Shape" fill="#FFFFFF"></path>
                </g>
            </g>
        </g>
    </g>
</svg>