<?xml version="1.0" encoding="UTF-8" standalone="no"?>
<svg width="46px" height="46px" viewBox="0 0 46 46" version="1.1" xmlns="http://www.w3.org/2000/svg" xmlns:xlink="http://www.w3.org/1999/xlink" xmlns:sketch="http://www.bohemiancoding.com/sketch/ns">
    <!-- Generator: Sketch 3.3.3 (12081) - http://www.bohemiancoding.com/sketch -->
    <title>status_accountunkey</title>
    <desc>Created with Sketch.</desc>
    <defs></defs>
    <g id="Page-1" stroke="none" stroke-width="1" fill="none" fill-rule="evenodd" sketch:type="MSPage">
        <g id="status_accountunkey" sketch:type="MSLayerGroup">
            <g id="Page-1" sketch:type="MSShapeGroup">
                <g id="status_accountunkey">
                    <circle id="Oval-1" fill="#999999" cx="23" cy="23" r="23"></circle>
                    <path d="M29.8377425,16.978156 C29.6633642,15.734242 29.3321042,14.5386588 28.4245754,13.5735142 C25.8371628,10.148845 20.1728272,10.1388314 17.5854146,13.5635005 C15.967033,15.3158897 16.1768232,17.7992755 15.8271728,19.9822518 L13,19.9822518 C13.00999,24.3281769 13.00999,28.6640885 13.00999,33 L32.99001,33 C32.99001,28.6640885 32.99001,24.3281769 33,19.9822518 L31.5864136,19.9822518 L26.0869131,19.9822518 L18.8241758,19.9822518 C18.8041958,17.3586748 19.7132867,13.8739238 22.99001,13.9740603 C25.0679569,13.8912553 26.2121779,15.2792065 26.7594941,16.978156 L29.8377425,16.978156 L29.8377425,16.978156 Z" id="Shape" fill="#FFFFFF"></path>
                </g>
            </g>
        </g>
    </g>
</svg>