<?xml version="1.0" encoding="UTF-8" standalone="no"?>
<svg width="144px" height="144px" viewBox="0 0 144 144" version="1.1" xmlns="http://www.w3.org/2000/svg" xmlns:xlink="http://www.w3.org/1999/xlink">
    <!-- Generator: Sketch 43.2 (39069) - http://www.bohemiancoding.com/sketch -->
    <title>voice input－voice icon-pressed copy</title>
    <desc>Created with Sketch.</desc>
    <defs></defs>
    <g id="语音输入新UI-白色导航-安卓" stroke="none" stroke-width="1" fill="none" fill-rule="evenodd">
        <g id="voice-input－voice-icon-pressed-copy" fill="#7F8389">
            <g id="Group-3" transform="translate(24.000000, 24.000000)">
                <g id="Group-2">
                    <path d="M96,48 C96,74.509668 74.509668,96 48,96 C21.490332,96 0,74.509668 0,48 C0,21.490332 21.490332,0 48,0 C74.509668,0 96,21.490332 96,48 Z M2.23255814,48 C2.23255814,73.2766602 22.7233398,93.7674419 48,93.7674419 C73.2766602,93.7674419 93.7674419,73.2766602 93.7674419,48 C93.7674419,22.7233398 73.2766602,2.23255814 48,2.23255814 C22.7233398,2.23255814 2.23255814,22.7233398 2.23255814,48 Z" id="Fill-46" fill-rule="nonzero"></path>
                    <g id="Group" transform="translate(26.790698, 18.976744)">
                        <path d="M9.24278355,15.0466212 L5.75158079,13.5873527 L4.20137465,16.2367648 C-1.07525575,25.2548998 0.825364507,36.4550818 8.2554484,42.8483257 L14.9457385,46.6597188 C24.2719381,49.8123667 35.0523109,45.8364229 40.3289413,36.8182879 L41.8791475,34.1688759 L38.5340024,32.2631793 L36.9837962,34.9125914 C32.0061094,43.4198107 21.4803521,46.3925892 13.6785535,41.9479805 C5.2225932,37.1307022 2.56883284,26.6496807 7.54651971,18.1424614 L9.09672585,15.4930493 L9.24278355,15.0466212 Z M36.9083923,2.03718226 C30.9837954,-1.3206756 23.4048702,0.677420954 19.9910382,6.48194886 L11.7865811,20.4319616 C8.36798125,26.2445963 10.3981906,33.6780111 16.3240901,37.0366072 C22.2486869,40.3944651 29.8276122,38.3963685 33.2414442,32.5918406 L41.4459013,18.6418278 C44.8645011,12.8291932 42.8342918,5.39577841 36.9083923,2.03718226 L36.9083923,2.03718226 Z" id="Path-2" transform="translate(22.155194, 24.068075) rotate(-360.000000) translate(-22.155194, -24.068075) "></path>
                        <path d="M4.38729614,41.4466907 L12.1060195,41.4466907 L12.1060195,53.5761132 L8.81611995,58.2759698 C8.50161471,58.725263 7.99343434,58.7277392 7.67719573,58.2759698 L4.38729614,53.5761132 L4.38729614,41.4466907 Z" id="Path" transform="translate(8.246658, 49.858808) rotate(-330.000000) translate(-8.246658, -49.858808) "></path>
                    </g>
                </g>
                <path d="M96,47.4482759 C96,74.5093305 74.5097143,96 48.5517241,96 C21.4902857,96 0,74.5093305 0,47.4482759 C0,21.4889552 21.4902857,5.94872988e-15 48.5517241,5.94872988e-15 C74.5097143,5.94872988e-15 96,21.4889552 96,47.4482759 Z" id="Path-3" opacity="0.2"></path>
            </g>
        </g>
    </g>
</svg>