<?xml version="1.0" encoding="UTF-8" standalone="no"?>
<svg width="34px" height="34px" viewBox="0 0 34 34" version="1.1" xmlns="http://www.w3.org/2000/svg" xmlns:xlink="http://www.w3.org/1999/xlink" xmlns:sketch="http://www.bohemiancoding.com/sketch/ns">
    <!-- Generator: Sketch 3.3.3 (12081) - http://www.bohemiancoding.com/sketch -->
    <title>translation_icon_loading</title>
    <desc>Created with Sketch.</desc>
    <defs></defs>
    <g id="Page-1" stroke="none" stroke-width="1" fill="none" fill-rule="evenodd" sketch:type="MSPage">
        <g id="translation_icon_loading" sketch:type="MSLayerGroup" fill="#FFFFFF">
            <path d="M13,0 L21,0 C27.69,0.44 33.42,6.1 34,13 L34,21 C33.56,27.72 27.92,33.41 21,34 L13,34 C6.3,33.58 0.58,27.91 0,21 L0,13 C0.44,6.3 6.1,0.62 13,0 L13,0 Z M11,4 C6.26193782,5.23458038 2.73745831,10.576861 3,16 C2.49918364,21.2514739 4.50466212,27.0812252 9,30 C12.7251383,31.3490807 16.5971017,31.0307325 20,31 C25.6912516,30.4835715 30.4766013,25.6685551 31,20 C31.1814972,15.7002773 31.2311377,10.6266029 28,7 C23.9736884,2.39929178 17.0041542,2.51867235 11,4 L11,4 Z" id="Shape" sketch:type="MSShapeGroup"></path>
            <path d="M15,6 C16.3799425,5.86674919 17.7901026,5.85668994 19,6 C19.0592468,9.58867289 19.0793919,12.7472784 19,16 C21.9400026,15.9260024 24.7905407,15.9260024 28,16 C28.1245622,17.2437646 28.1245622,18.6420008 28,20 C23.4105982,19.6479261 19.0894645,20.5431997 15,19 C15.1007257,15.0407882 15.0906532,10.7153093 15,6 L15,6 Z" id="Shape" sketch:type="MSShapeGroup"></path>
        </g>
    </g>
</svg>