<?xml version="1.0" encoding="UTF-8" standalone="no"?>
<svg width="96px" height="96px" viewBox="0 0 96 96" version="1.1" xmlns="http://www.w3.org/2000/svg" xmlns:xlink="http://www.w3.org/1999/xlink" xmlns:sketch="http://www.bohemiancoding.com/sketch/ns">
    <!-- Generator: Sketch 3.3 (11970) - http://www.bohemiancoding.com/sketch -->
    <title>userguide_bindmb_icon</title>
    <desc>Created with Sketch.</desc>
    <defs></defs>
    <g id="提示" stroke="none" stroke-width="1" fill="none" fill-rule="evenodd" sketch:type="MSPage">
        <g id="userguide_bindmb_icon" sketch:type="MSArtboardGroup" fill="#53C84C">
            <g id="Rectangle-7-+-Oval-3" sketch:type="MSLayerGroup" transform="translate(21.000000, 17.000000)">
                <path d="M45,3 L45,59 L9,59 L9,3 L45,3 Z M42,6 L42,53 L12,53 L12,6 L42,6 Z M27,59 C28.1045695,59 29,58.1045695 29,57 C29,55.8954305 28.1045695,55 27,55 C25.8954305,55 25,55.8954305 25,57 C25,58.1045695 25.8954305,59 27,59 Z" id="Rectangle-7" sketch:type="MSShapeGroup"></path>
                <path d="M44.3210146,3 C42.2950441,1.32830271 35.9765815,0.207567357 28.6484145,0.0259893275 C27.9536101,0.00877339778 27.249729,0 26.5395692,0 C18.339287,0 10.9211314,1.16980433 8.68480078,3 L44.3210146,3 Z M44.3210146,59 C42.2950441,60.6716973 35.9765815,61.7924326 28.6484145,61.9740107 C27.9536101,61.9912266 27.249729,62 26.5395692,62 C18.339287,62 10.9211314,60.8301957 8.68480078,59 L44.3210146,59 L44.3210146,59 Z" id="Oval-3" sketch:type="MSShapeGroup"></path>
            </g>
        </g>
    </g>
</svg>