<?xml version="1.0" encoding="UTF-8" standalone="no"?>
<svg width="96px" height="96px" viewBox="0 0 96 96" version="1.1" xmlns="http://www.w3.org/2000/svg" xmlns:xlink="http://www.w3.org/1999/xlink" xmlns:sketch="http://www.bohemiancoding.com/sketch/ns">
    <!-- Generator: Sketch 3.3 (11970) - http://www.bohemiancoding.com/sketch -->
    <title>userguide_avatar_icon</title>
    <desc>Created with Sketch.</desc>
    <defs></defs>
    <g id="提示" stroke="none" stroke-width="1" fill="none" fill-rule="evenodd" sketch:type="MSPage">
        <g id="userguide_avatar_icon" sketch:type="MSArtboardGroup" fill="#818E95">
            <path d="M80.9965862,75.8986552 C80.9442414,70.9202069 79.9292069,69.6445862 63.0002069,60.3010345 C59.5067586,58.3722414 52.140931,55.3362414 57.0021724,48.3493448 C57.3822414,47.802 57.6223448,47.2501034 57.7588966,46.6993448 C60.6902069,43.2343448 62.8283793,38.709931 62.9740345,34.4995862 L63.0013448,34.4995862 L63.0013448,28.5004138 L62.9307931,28.5004138 C62.2218621,18.878069 54.3257586,15 48.0011379,15 C41.6696897,15 33.7656207,18.6607241 33.0692069,28.5004138 L33.000931,28.5004138 L33.000931,34.4995862 L33.0282414,34.4995862 C33.1738966,38.709931 35.312069,43.2343448 38.2433793,46.6993448 C38.379931,47.2489655 38.6188966,47.802 39.0001034,48.3493448 C43.8602069,55.3362414 36.4943793,58.3733793 33.002069,60.3010345 C16.073069,69.6445862 15.0580345,70.9202069 15.0056897,75.8986552 C15.0056897,75.9088966 15.0022759,75.9191379 15.0022759,75.9305172 L15.0022759,77.0684483 C15.0022759,79.2384828 16.7626552,80.9988621 18.9338276,80.9988621 L77.0707241,80.9988621 C79.2418966,80.9988621 81.0022759,79.2384828 81.0022759,77.0684483 L81.0022759,75.9305172 C81,75.9202759 80.9965862,75.9100345 80.9965862,75.8986552 L80.9965862,75.8986552 Z" id="Shape" sketch:type="MSShapeGroup"></path>
        </g>
    </g>
</svg>