<?xml version="1.0" encoding="UTF-8"?>
<svg width="96px" height="96px" viewBox="0 0 96 96" version="1.1" xmlns="http://www.w3.org/2000/svg" xmlns:xlink="http://www.w3.org/1999/xlink">
    <!-- Generator: Sketch 41 (35326) - http://www.bohemiancoding.com/sketch -->
    <title>userguide_gamecenter_icon</title>
    <desc>Created with Sketch.</desc>
    <defs></defs>
    <g id="模块/插件" stroke="none" stroke-width="1" fill="none" fill-rule="evenodd">
        <g id="userguide_gamecenter_icon">
            <g id="Group" transform="translate(16.000000, 16.000000)">
                <g id="Group-2">
                    <path d="M34.9128727,17.5584497 C34.913818,17.5584497 34.9157084,17.5584497 34.9166536,17.5594275 C35.2711059,17.6337421 35.624613,17.723702 35.9743393,17.8263735 C35.9752845,17.8263735 35.9752845,17.8263735 35.9762297,17.8273513 C36.2739697,17.9143777 36.5669836,18.0209606 36.8599976,18.129499 C36.9639702,18.168612 37.0698333,18.201858 37.1728608,18.2429267 C37.471546,18.3612434 37.7645599,18.4952053 38.0566286,18.6340564 C38.1369711,18.6731693 38.2173137,18.7093488 38.296711,18.7494396 C38.6114647,18.9078472 38.9196019,19.0789664 39.2249035,19.2618195 C39.2655474,19.2862652 39.3061912,19.3107108 39.3458899,19.3361342 C39.7372053,19.5757011 40.1171782,19.8367802 40.4895894,20.1183936 C40.6238087,20.2171539 40.758028,20.3149363 40.8884664,20.4215191 C40.8894116,20.422497 40.8913021,20.4234748 40.8922473,20.4244526 C40.9943295,20.5085455 41.097357,20.5906827 41.1984941,20.6777091 C41.5321519,20.9642116 41.8573028,21.2634258 42.1692209,21.5861078 C42.4442759,21.8706547 42.6975911,22.1679133 42.9414543,22.470061 C43.0614955,22.614779 43.1796463,22.7614526 43.2930711,22.9100819 C43.2930711,22.9100819 43.2940163,22.9110597 43.2949615,22.9120375 C43.347893,22.9814631 43.3942081,23.0547999 43.4461945,23.1252032 C43.4471397,23.1261811 43.4480849,23.1271589 43.4480849,23.1281367 C43.7628385,23.5564237 44.0501812,23.9984003 44.3129486,24.4521108 C44.3138938,24.4540664 44.314839,24.4550442 44.3157842,24.4569999 C44.4424418,24.6740769 44.5747707,24.8882204 44.6900858,25.1111643 C44.6900858,25.1111643 44.6900858,25.1121421 44.691031,25.1121421 C44.7430174,25.2138359 44.7855517,25.3184631 44.8347024,25.4211346 L44.8356476,25.4221124 C44.9689217,25.6978589 45.0946341,25.9765388 45.2108945,26.2581522 L45.2137301,26.264997 C45.3195932,26.5241204 45.4112782,26.7871551 45.5029632,27.0511677 C45.5360454,27.1509057 45.571018,27.249666 45.603155,27.3494041 C45.7392647,27.7718242 45.8555251,28.1981555 45.9528813,28.629376 C45.987854,28.774094 46.0275526,28.918812 46.0559088,29.0654857 C46.056854,29.0723304 46.0587444,29.0781974 46.0606349,29.0850421 C46.0606349,29.08602 46.0606349,29.0879756 46.0615801,29.0899313 L46.0615801,29.0909091 L60.1943034,29.0909091 C61.3068111,29.0909091 62.360716,28.4103434 62.8134698,27.2809564 C63.2662236,26.1515693 62.9854973,24.8979986 62.1990858,24.0844488 L39.7485477,0.859166818 C38.9621362,0.0456170273 37.751327,-0.243818956 36.6596138,0.224558868 C35.5679007,0.691958869 34.9081467,1.78321075 34.9090919,2.93410992 L34.9090919,17.5545384 L34.9100371,17.5545384 C34.9119275,17.5584497 34.9128727,17.5584497 34.9128727,17.5584497 L34.9128727,17.5584497 Z" id="Path" fill="#00B1FE"></path>
                    <path d="M27.9899808,46.1791957 C27.8091,46.1283502 27.6321302,46.0677267 27.4541826,46.0100366 C27.2234375,45.9347461 26.9926923,45.8555444 26.7648803,45.7685204 C26.5937769,45.7030079 26.4226734,45.6374954 26.2535255,45.5651383 C25.9719381,45.4458469 25.6942617,45.3148219 25.4185408,45.1779301 C25.314901,45.1261068 25.208328,45.0811281 25.105666,45.0263714 C24.7390158,44.8317895 24.3811652,44.6166738 24.0282033,44.3898246 C23.9089197,44.3125785 23.7925694,44.2294656 23.6742636,44.1483084 C23.4132087,43.9693712 23.1580201,43.7816339 22.9067425,43.5841187 C22.7982141,43.4990502 22.6896856,43.4149595 22.5831126,43.3259799 C22.2389503,43.0394849 21.9026099,42.7412564 21.5799577,42.4185829 C21.2573056,42.0959094 20.958119,41.758569 20.671643,41.4143839 C20.5836469,41.3087817 20.5005396,41.2012239 20.4164544,41.093666 C20.2169967,40.8404162 20.0282941,40.5822775 19.8474134,40.3192497 C19.7682169,40.2038695 19.687065,40.089467 19.6108018,39.973109 C19.3829898,39.619146 19.1669106,39.2593162 18.9723416,38.891664 C18.9195439,38.7919285 18.8755459,38.6882819 18.8256815,38.5875686 C18.6858656,38.3088961 18.5538715,38.0272901 18.4336102,37.741773 C18.3632134,37.5745695 18.2977052,37.4063881 18.2331748,37.237229 C18.1451787,37.0054908 18.0650046,36.7727747 17.9887413,36.5381031 C17.9320328,36.3630772 17.872391,36.1890291 17.8225266,36.0110698 C17.7198645,35.6463509 17.6279575,35.2786987 17.5536498,34.9090909 L2.93359563,34.9090909 C1.78378063,34.9090909 0.692629666,35.5896386 0.224295156,36.7209514 C-0.244039354,37.848353 0.0463475969,39.1018906 0.859822153,39.9154189 L24.0839341,63.1410652 C24.8964309,63.9536158 26.1498857,64.2440219 27.2791683,63.7756564 C28.4084509,63.3082688 29.0909091,62.2180235 29.0909091,61.066177 L29.0909091,46.4471125 C29.0781986,46.4451569 29.0664657,46.4412457 29.0547329,46.4383123 C28.6949269,46.3659552 28.3409872,46.2789312 27.9899808,46.1791957 L27.9899808,46.1791957 Z" id="Path" fill="#F86161"></path>
                    <path d="M61.0626865,34.909092 L46.4433868,34.909092 C46.4316531,34.9677649 46.4140524,35.0244821 46.4013408,35.0821771 C46.3338717,35.3921659 46.2605356,35.7021546 46.1754658,36.0092097 C46.1754658,36.0101876 46.1744879,36.0111654 46.1744879,36.0121433 C46.0864847,36.322132 45.9789251,36.6282092 45.8694099,36.9333085 C45.8342086,37.0340304 45.8019407,37.1347523 45.7647838,37.2344963 C45.763806,37.2364521 45.7628282,37.2384079 45.7628282,37.2403636 C45.6992703,37.4085594 45.6337567,37.5747994 45.5633541,37.7410394 C45.5633541,37.7410394 45.5633541,37.7410394 45.5633541,37.7420173 C45.4430829,38.0256032 45.3120558,38.3042997 45.1741841,38.5810404 C45.1741841,38.5810404 45.1732062,38.5820183 45.1732062,38.5829962 C45.1223599,38.6846959 45.0783583,38.7883515 45.0255563,38.8890734 C45.0255563,38.8900512 45.0245785,38.8900512 45.0245785,38.8910291 C44.906263,39.1139863 44.7683912,39.3281426 44.6373641,39.5452325 C44.3635761,40.0019035 44.064365,40.4458622 43.737775,40.8771083 C43.6839953,40.9475158 43.6360824,41.0198791 43.5813248,41.0902867 C43.580347,41.0912645 43.5793691,41.0922424 43.5793691,41.0922424 C43.2195335,41.5498914 42.838186,41.9948279 42.4167481,42.4162952 C41.1299447,43.7031885 39.6593121,44.6869382 38.0948095,45.3998144 C37.9774718,45.4545758 37.8611119,45.5132488 37.7427964,45.5631208 L37.7427964,45.5631208 C37.5736345,45.6345062 37.4034949,45.7010022 37.2333552,45.7655425 C37.2333552,45.7655425 37.2323774,45.7655425 37.2313996,45.7665203 C37.165886,45.7909674 37.0993946,45.8115029 37.0338811,45.8349721 C36.6945796,45.9581853 36.3543003,46.0784648 36.008154,46.1762531 L36.008154,46.1762531 C35.6444072,46.2789307 35.2777269,46.3698738 34.9090909,46.4441928 L34.9090909,61.0654906 C34.9090909,62.2174361 35.5896496,63.307775 36.7200027,63.7752028 C37.8484003,64.2445863 39.1029359,63.9531774 39.9154995,63.1405571 L63.1405416,39.9138941 C63.954083,39.0993181 64.243516,37.8476286 63.7761208,36.7181744 C63.3048144,35.5896981 62.2135738,34.9081141 61.0626865,34.909092 L61.0626865,34.909092 Z" id="Path" fill="#0ABA08"></path>
                    <path d="M2.93398951,29.0909091 L17.5544853,29.0909091 C18.1089142,26.3404103 19.4485396,23.7150675 21.5811841,21.5815487 C23.7148065,19.4480299 26.3392989,18.1084695 29.0909091,17.5540675 L29.0909091,2.93428145 C29.0909091,1.78343286 28.4103403,0.692228922 27.280948,0.223871678 C26.1525336,-0.243507785 24.8979793,0.045915481 24.0844258,0.859429525 L0.85903686,24.083691 C0.0454833238,24.8972051 -0.242976163,26.1507207 0.22344816,27.2790803 C0.69182814,28.4103733 1.78308505,29.0909091 2.93398951,29.0909091 L2.93398951,29.0909091 Z" id="Path" fill="#FCC015"></path>
                </g>
            </g>
        </g>
    </g>
</svg>