<?xml version="1.0" encoding="UTF-8" standalone="no"?>
<svg width="96px" height="96px" viewBox="0 0 96 96" version="1.1" xmlns="http://www.w3.org/2000/svg" xmlns:xlink="http://www.w3.org/1999/xlink" xmlns:sketch="http://www.bohemiancoding.com/sketch/ns">
    <!-- Generator: Sketch 3.3.3 (12081) - http://www.bohemiancoding.com/sketch -->
    <title>actionbar_voicesearch_icon</title>
    <desc>Created with Sketch.</desc>
    <defs>
        <path d="M46,73 L46,69.9973917 C46,69.9634782 46.0008488,69.9297597 46.0025262,69.8962563 C36.4479833,68.8980232 29,60.8187964 29,51 C29,49.8954305 29.8954305,49 31,49 C32.1045695,49 33,49.8954305 33,51 C33,59.2842712 39.7157288,66 48,66 C56.2842712,66 63,59.2842712 63,51 C63,49.8954305 63.8954305,49 65,49 C66.1045695,49 67,49.8954305 67,51 C67,60.8187869 59.5520312,68.8980074 49.9975017,69.8962534 L49.9975017,69.8962534 C49.9991608,69.9297555 50,69.9634749 50,69.9973917 L50,73 L57.008845,73 C58.1103261,73 59,73.8954305 59,75 C59,76.1122704 58.1085295,77 57.008845,77 L38.991155,77 C37.8896739,77 37,76.1045695 37,75 C37,73.8877296 37.8914705,73 38.991155,73 L46,73 Z M48,20 C41.9248678,20 37,24.9207684 37,31.0075657 L37,50.9924343 C37,57.071745 41.923532,62 48,62 C54.0751322,62 59,57.0792316 59,50.9924343 L59,31.0075657 C59,24.928255 54.076468,20 48,20 Z" id="path-1"></path>
    </defs>
    <g id="操作栏" stroke="none" stroke-width="1" fill="none" fill-rule="evenodd" sketch:type="MSPage">
        <g id="actionbar_voicesearch_icon" sketch:type="MSArtboardGroup">
            <mask id="mask-2" sketch:name="voice" fill="white">
                <use xlink:href="#path-1"></use>
            </mask>
            <use id="voice" fill="#FFFFFF" sketch:type="MSShapeGroup" xlink:href="#path-1"></use>
        </g>
    </g>
</svg>