<?xml version="1.0" encoding="UTF-8" standalone="no"?>
<svg width="123px" height="98px" viewBox="0 0 123 98" version="1.1" xmlns="http://www.w3.org/2000/svg" xmlns:xlink="http://www.w3.org/1999/xlink">
    <!-- Generator: Sketch 46.1 (44463) - http://www.bohemiancoding.com/sketch -->
    <title>symbol</title>
    <desc>Created with Sketch.</desc>
    <defs></defs>
    <g id="Page-2" stroke="none" stroke-width="1" fill="none" fill-rule="evenodd" opacity="0.25">
        <g id="Artboard-Copy-40" transform="translate(-479.000000, -378.000000)" fill="#AAAAAA">
            <g id="symbol" transform="translate(479.000000, 378.000000)">
                <g>
                    <path d="M97.8398305,58.7550526 C95.0625442,58.7550526 92.8407151,56.5659089 92.8407151,53.8294793 C92.8407151,51.0930497 95.0625442,48.9039061 97.8398305,48.9039061 C100.617117,48.9039061 102.838946,51.0930497 102.838946,53.8294793 C102.838946,56.4290875 100.617117,58.7550526 97.8398305,58.7550526 M73.2013331,58.7550526 C70.4240467,58.7550526 68.2022176,56.5659089 68.2022176,53.8294793 C68.2022176,51.0930497 70.4240467,48.9039061 73.2013331,48.9039061 C75.9786194,48.9039061 78.2004485,51.0930497 78.2004485,53.8294793 C78.2004485,56.4290875 75.9786194,58.7550526 73.2013331,58.7550526 M109.76284,86.4019621 C117.556204,80.8749504 122.478328,72.6518354 122.478328,63.6198895 C122.478328,46.9040492 106.071247,33.4235329 85.6991216,33.4235329 C65.3269962,33.4235329 48.9199153,46.9040492 48.9199153,63.6198895 C48.9199153,80.3357297 65.3269962,93.8162461 85.6991216,93.8162461 C89.9376175,93.8162461 93.9026621,93.2770254 97.730981,92.1985841 C98.0044323,92.0637789 98.4146093,92.0637789 98.8247863,92.0637789 C99.5084147,92.0637789 100.192043,92.3333893 100.738946,92.6029996 L108.805761,97.1863751 C109.079212,97.3211803 109.215938,97.4559855 109.489389,97.4559855 C110.173017,97.4559855 110.71992,96.9167648 110.71992,96.242739 C110.71992,95.9731287 110.583194,95.7035183 110.583194,95.2991029 C110.583194,95.1642977 109.489389,91.5245583 108.942486,89.2328705 C108.805761,88.9632602 108.805761,88.6936499 108.805761,88.4240395 C108.669035,87.4804034 109.079212,86.8063776 109.76284,86.4019621" id="Shape-Copy"></path>
                    <path d="M58.5610664,30.257093 C55.3722619,30.257093 52.8477917,27.7697603 52.8477917,24.6278664 C52.8477917,21.4859724 55.3722619,18.9986398 58.5610664,18.9986398 C61.749871,18.9986398 64.2743412,21.4859724 64.2743412,24.6278664 C64.2743412,27.638848 61.749871,30.257093 58.5610664,30.257093 M29.2805332,30.257093 C26.0917287,30.257093 23.5672584,27.7697603 23.5672584,24.6278664 C23.5672584,21.4859724 26.0917287,18.9986398 29.2805332,18.9986398 C32.4693377,18.9986398 34.993808,21.4859724 34.993808,24.6278664 C34.993808,27.638848 32.4693377,30.257093 29.2805332,30.257093 M44.2633958,0 C19.8705647,0 0,16.1469921 0,36.1961739 C0,47.0953936 5.89265021,56.9181471 15.3482982,63.5115022 C16.0334901,64.0497353 16.5816436,64.8570849 16.5816436,65.933551 C16.5816436,66.2026675 16.4446052,66.6063423 16.4446052,66.8754589 C15.7594134,69.5666242 14.526068,74.007047 14.3890296,74.1416053 C14.2519912,74.5452801 14.1149528,74.8143966 14.1149528,75.2180714 C14.1149528,76.025421 14.8001447,76.6982124 15.622375,76.6982124 C15.8964517,76.6982124 16.1705285,76.5636541 16.4446052,76.4290959 L26.17433,70.9122069 C26.8595219,70.5085321 27.6817522,70.2394156 28.5039824,70.2394156 C28.9150975,70.2394156 29.3262127,70.2394156 29.7373278,70.3739738 C34.2595943,71.5849982 39.1929758,72.3923478 44.1263574,72.3923478 L46.5930482,72.3923478 C45.6337795,69.5666242 45.085626,66.6063423 45.085626,63.5115022 C45.085626,45.3461361 63.1746918,30.5447267 85.3749089,30.5447267 L87.8415997,30.5447267 C84.689717,13.1867102 66.3265745,0 44.2633958,0" id="Shape-Copy-2"></path>
                </g>
            </g>
        </g>
    </g>
</svg>