<?xml version="1.0" encoding="UTF-8" standalone="no"?>
<svg width="480px" height="480px" viewBox="0 0 480 480" version="1.1" xmlns="http://www.w3.org/2000/svg" xmlns:xlink="http://www.w3.org/1999/xlink" xmlns:sketch="http://www.bohemiancoding.com/sketch/ns">
    <!-- Generator: Sketch 3.2.2 (9983) - http://www.bohemiancoding.com/sketch -->
    <title>accounts_saftphone_icon</title>
    <desc>Created with Sketch.</desc>
    <defs></defs>
    <g id="Page-1" stroke="none" stroke-width="1" fill="none" fill-rule="evenodd" sketch:type="MSPage">
        <g id="accounts_saftphone_icon" sketch:type="MSLayerGroup" fill="#646464">
            <g id="#646464ff" transform="translate(129.000000, 40.000000)" sketch:type="MSShapeGroup">
                <path d="M52.88,2.34 C83.17,-0.27 113.62,-0.47 143.98,0.65 C164.16,1.66 184.48,2.9 204.2,7.55 C208.85,9.09 214.18,9.64 217.91,13.12 C220.31,15.36 220.97,18.86 221.01,22.01 C221,85.32 220.99,148.62 221.01,211.93 C216.39,210.99 211.71,210.37 207,210.15 L207,39 L15,39 L15,349 C49.27,349 83.54,348.99 117.8,349.01 C129.91,372.37 152.15,390.17 177.61,396.85 C150.51,399.69 123.22,400.3 95.99,399.86 C76.6,399.47 57.18,398.54 37.94,395.97 C27.89,394.45 17.59,393.03 8.27,388.78 C3.72,386.8 0.61,382.03 0.99,377.02 C1.01,258.69 0.99,140.35 1,22.01 C0.73,17.32 3.13,12.48 7.65,10.71 C22.18,5.57 37.62,3.82 52.88,2.34 L52.88,2.34 Z M107.37,365.4 C100.42,367.88 99.38,378.51 105.75,382.26 C111.42,386.43 120.38,381.97 120.53,374.95 C121.31,368.17 113.58,362.48 107.37,365.4 L107.37,365.4 Z" id="Shape"></path>
            </g>
        </g>
        <g id="#53c84dff" sketch:type="MSLayerGroup" transform="translate(236.000000, 250.000000)" fill="#53C84D">
            <path d="M40.38,17.29 C57.58,5.08 78.95,-1.01 100,0.15 C104.71,0.37 109.39,0.99 114.01,1.93 C135.63,6.26 155.53,18.47 169.23,35.74 C183.27,53.17 190.74,75.71 189.93,98.07 C189.38,116.69 183.18,135.1 172.29,150.23 C161.67,165.14 146.64,176.83 129.6,183.48 C110.95,190.83 89.98,191.94 70.61,186.85 C45.15,180.17 22.91,162.37 10.8,139.01 C0.55,119.56 -2.54,96.47 2.14,75 C6.99,51.85 21.01,30.83 40.38,17.29 L40.38,17.29 Z M69.42,54.37 C64.32,63.42 66.44,74.11 66,84 C61.38,84.11 56.74,83.75 52.13,84.17 C50.68,84.92 51.1,86.64 50.98,87.97 C51.07,104.98 50.88,121.99 51.08,139 C50.87,140.62 52.67,141.15 53.95,140.98 C80.96,141.04 107.98,140.96 135,141.02 C136.44,140.99 139.11,141.2 138.92,139.01 C139.12,122 138.92,104.97 139.02,87.95 C138.9,86.62 139.3,84.91 137.87,84.16 C133.26,83.76 128.62,84.11 124,84 C123.92,77.96 124.16,71.93 123.88,65.9 C123.25,54.07 114.44,43.28 103.04,40.15 C90.29,36.19 75.49,42.52 69.42,54.37 L69.42,54.37 Z" id="Shape" sketch:type="MSShapeGroup"></path>
            <path d="M78.3,64.93 C79.7,55.97 89.18,49.4 98.07,51.29 C105.53,52.53 111.64,59.33 111.92,66.92 C112.13,72.6 111.93,78.3 112,84 L78,84 C78.16,77.64 77.65,71.26 78.3,64.93 L78.3,64.93 Z" id="Shape" sketch:type="MSShapeGroup"></path>
        </g>
        <g id="#ffffffff" sketch:type="MSLayerGroup" transform="translate(286.000000, 288.000000)" fill="#FFFFFF">
            <path d="M19.42,16.37 C25.49,4.52 40.29,-1.81 53.04,2.15 C64.44,5.28 73.25,16.07 73.88,27.9 C74.16,33.93 73.92,39.96 74,46 C78.62,46.11 83.26,45.76 87.87,46.16 C89.3,46.91 88.9,48.62 89.02,49.95 C88.92,66.97 89.12,84 88.92,101.01 C89.11,103.2 86.44,102.99 85,103.02 C57.98,102.96 30.96,103.04 3.95,102.98 C2.67,103.15 0.87,102.62 1.08,101 C0.88,83.99 1.07,66.98 0.98,49.97 C1.1,48.64 0.68,46.92 2.13,46.17 C6.74,45.75 11.38,46.11 16,46 C16.44,36.11 14.32,25.42 19.42,16.37 L19.42,16.37 Z M28.3,26.93 C27.65,33.26 28.16,39.64 28,46 L62,46 C61.93,40.3 62.13,34.6 61.92,28.92 C61.64,21.33 55.53,14.53 48.07,13.29 C39.18,11.4 29.7,17.97 28.3,26.93 L28.3,26.93 Z" id="Shape" sketch:type="MSShapeGroup"></path>
        </g>
    </g>
</svg>