<?xml version="1.0" encoding="UTF-8" standalone="no"?>
<svg width="96px" height="96px" viewBox="0 0 96 96" version="1.1" xmlns="http://www.w3.org/2000/svg" xmlns:xlink="http://www.w3.org/1999/xlink" xmlns:sketch="http://www.bohemiancoding.com/sketch/ns">
    <!-- Generator: Sketch 3.3.2 (12043) - http://www.bohemiancoding.com/sketch -->
    <title>actionbar_collect_list_icon</title>
    <desc>Created with Sketch.</desc>
    <defs></defs>
    <g id="Page-1" stroke="none" stroke-width="1" fill="none" fill-rule="evenodd" sketch:type="MSPage">
        <g id="actionbar_collect_list_icon" sketch:type="MSLayerGroup" transform="translate(19.000000, 24.000000)" fill="#FFFFFF">
            <g id="操作栏" sketch:type="MSShapeGroup">
                <g id="actionbar_collect_list_icon">
                    <g id="mask-2">
                        <path d="M0.9975446,38 C0.446616,38 0,38.4463114 0,38.9975446 L0,46.0024554 C0,46.553384 0.4463114,47 0.9975446,47 L8.0024554,47 C8.553384,47 9,46.5536886 9,46.0024554 L9,38.9975446 C9,38.446616 8.5536886,38 8.0024554,38 L0.9975446,38 L0.9975446,38 Z M0.9975446,19 C0.446616,19 0,19.4463114 0,19.9975446 L0,27.0024554 C0,27.553384 0.4463114,28 0.9975446,28 L8.0024554,28 C8.553384,28 9,27.5536886 9,27.0024554 L9,19.9975446 C9,19.446616 8.5536886,19 8.0024554,19 L0.9975446,19 L0.9975446,19 Z M17.9931736,38 C17.444659,38 17,38.4463114 17,38.9975446 L17,46.0024554 C17,46.553384 17.4464757,47 17.9931736,47 L57.0068264,47 C57.555341,47 58,46.5536886 58,46.0024554 L58,38.9975446 C58,38.446616 57.5535243,38 57.0068264,38 L17.9931736,38 L17.9931736,38 Z M17.9931736,19 C17.444659,19 17,19.4463114 17,19.9975446 L17,27.0024554 C17,27.553384 17.4464757,28 17.9931736,28 L57.0068264,28 C57.555341,28 58,27.5536886 58,27.0024554 L58,19.9975446 C58,19.446616 57.5535243,19 57.0068264,19 L17.9931736,19 L17.9931736,19 Z M17.9931736,0 C17.444659,0 17,0.4463114 17,0.9975446 L17,8.0024554 C17,8.553384 17.4464757,9 17.9931736,9 L57.0068264,9 C57.555341,9 58,8.5536886 58,8.0024554 L58,0.9975446 C58,0.446616 57.5535243,0 57.0068264,0 L17.9931736,0 L17.9931736,0 Z M0.9975446,0 C0.446616,0 0,0.4463114 0,0.9975446 L0,8.0024554 C0,8.553384 0.4463114,9 0.9975446,9 L8.0024554,9 C8.553384,9 9,8.5536886 9,8.0024554 L9,0.9975446 C9,0.446616 8.5536886,0 8.0024554,0 L0.9975446,0 L0.9975446,0 Z" id="path-1"></path>
                    </g>
                    <g id="options">
                        <path d="M0.9975446,38 C0.446616,38 0,38.4463114 0,38.9975446 L0,46.0024554 C0,46.553384 0.4463114,47 0.9975446,47 L8.0024554,47 C8.553384,47 9,46.5536886 9,46.0024554 L9,38.9975446 C9,38.446616 8.5536886,38 8.0024554,38 L0.9975446,38 L0.9975446,38 Z M0.9975446,19 C0.446616,19 0,19.4463114 0,19.9975446 L0,27.0024554 C0,27.553384 0.4463114,28 0.9975446,28 L8.0024554,28 C8.553384,28 9,27.5536886 9,27.0024554 L9,19.9975446 C9,19.446616 8.5536886,19 8.0024554,19 L0.9975446,19 L0.9975446,19 Z M17.9931736,38 C17.444659,38 17,38.4463114 17,38.9975446 L17,46.0024554 C17,46.553384 17.4464757,47 17.9931736,47 L57.0068264,47 C57.555341,47 58,46.5536886 58,46.0024554 L58,38.9975446 C58,38.446616 57.5535243,38 57.0068264,38 L17.9931736,38 L17.9931736,38 Z M17.9931736,19 C17.444659,19 17,19.4463114 17,19.9975446 L17,27.0024554 C17,27.553384 17.4464757,28 17.9931736,28 L57.0068264,28 C57.555341,28 58,27.5536886 58,27.0024554 L58,19.9975446 C58,19.446616 57.5535243,19 57.0068264,19 L17.9931736,19 L17.9931736,19 Z M17.9931736,0 C17.444659,0 17,0.4463114 17,0.9975446 L17,8.0024554 C17,8.553384 17.4464757,9 17.9931736,9 L57.0068264,9 C57.555341,9 58,8.5536886 58,8.0024554 L58,0.9975446 C58,0.446616 57.5535243,0 57.0068264,0 L17.9931736,0 L17.9931736,0 Z M0.9975446,0 C0.446616,0 0,0.4463114 0,0.9975446 L0,8.0024554 C0,8.553384 0.4463114,9 0.9975446,9 L8.0024554,9 C8.553384,9 9,8.5536886 9,8.0024554 L9,0.9975446 C9,0.446616 8.5536886,0 8.0024554,0 L0.9975446,0 L0.9975446,0 Z" id="path-1"></path>
                    </g>
                </g>
            </g>
        </g>
    </g>
</svg>