<?xml version="1.0" encoding="UTF-8"?>
<svg width="96px"
     height="96px"
     viewBox="0 0 96 96"
     version="1.1"
     xmlns="http://www.w3.org/2000/svg">
    <!-- Generator: Sketch 46.2 (44496) - http://www.bohemiancoding.com/sketch -->
    <title>actionbar_dark_icon_more</title>
    <desc>Created with Sketch.</desc>
    <defs></defs>
    <g id="Actionbar" stroke="none" stroke-width="1" fill="none" fill-rule="evenodd">
        <g id="actionbar_dark_icon_more" fill="#7C8186">
            <g id="Rectangle-1">
                <path d="M48,30 C45.2385763,30 43,27.7614237 43,25 C43,22.2385763 45.2385763,20 48,20 C50.7614237,20 53,22.2385763 53,25 C53,27.7614237 50.7614237,30 48,30 Z M48,53 C45.2385763,53 43,50.7614237 43,48 C43,45.2385763 45.2385763,43 48,43 C50.7614237,43 53,45.2385763 53,48 C53,50.7614237 50.7614237,53 48,53 Z M48,76 C45.2385763,76 43,73.7614237 43,71 C43,68.2385763 45.2385763,66 48,66 C50.7614237,66 53,68.2385763 53,71 C53,73.7614237 50.7614237,76 48,76 Z"></path>
            </g>
        </g>
    </g>
</svg>