<?xml version="1.0" encoding="UTF-8" standalone="no"?>
<svg width="96px" height="96px" viewBox="0 0 96 96" version="1.1" xmlns="http://www.w3.org/2000/svg" xmlns:xlink="http://www.w3.org/1999/xlink" xmlns:sketch="http://www.bohemiancoding.com/sketch/ns">
    <!-- Generator: Sketch 3.3.3 (12081) - http://www.bohemiancoding.com/sketch -->
    <title>actionbar_ear_icon</title>
    <desc>Created with Sketch.</desc>
    <defs></defs>
    <g id="Page-1" stroke="none" stroke-width="1" fill="none" fill-rule="evenodd" sketch:type="MSPage">
        <g id="actionbar_ear_icon" sketch:type="MSLayerGroup" transform="translate(15.000000, 18.000000)" fill="#CCCCCC">
            <g id="Page-1" sketch:type="MSShapeGroup">
                <g id="actionbar_ear_icon">
                    <path d="M17,1 C25.7477024,-1.78936097 36.2722084,2.24019326 40,11 C43.1121388,17.7898839 39.0381364,28.3026319 31,29 C28.7233217,29.3598911 25.3183345,28.9609254 26,26 C26.366791,22.9265682 30.930073,24.5423795 33,22 C37.5303562,18.1090566 34.3450455,9.9801291 29,7 C21.5339059,3.46701298 11.9879593,8.11496414 8,15 C3.64024862,21.7196967 6.16652947,30.2974607 11,36 C14.0549163,40.9997173 13.3859012,47.7921095 18,52 C20.5453612,55.2527693 27.0457914,54.4847602 28,50 C28.4537186,46.6750053 28.533601,42.3861234 26,40 C22.4725241,38.4263881 18.6581395,37.5486635 16,35 C11.2690177,30.8260903 9.9709287,23.0961286 14,18 C16.5712119,14.6879251 21.3741411,13.4910278 26,14 C27.8745713,14.2789852 28.3239098,17.0218748 27,19 C24.469584,19.4455919 20.9447732,18.6775828 19,21 C15.7923585,23.5449651 16.2217264,28.3624767 19,31 C22.0231856,34.2172993 26.7761883,34.9354377 31,37 C33.0070154,38.9051471 33.4363833,42.1666922 34,45 C33.7059863,49.5774813 32.6675152,55.0832088 28,58 C22.3127593,60.6587554 13.4158571,58.763668 10,52 C8.56300143,48.7795497 8.77269272,44.5305643 7,41 C1.87285055,34.1873769 -1.30247479,25.270492 1,17 C2.30221844,8.75330937 9.41175191,2.89848677 17,1 L17,1 L17,1 Z" id="Shape"></path>
                    <path d="M54,11 C56.1858474,8.34828467 59.8513262,12.8413871 57,15 C45.5050495,21.4399126 45.2097748,39.7204774 56,47 C59.4033233,48.4780509 56.491304,53.5178803 54,52 C46.9916048,46.9472151 42.9595781,39.0345835 43,31 C42.9595781,23.1695582 47.0017867,15.2469861 54,11 L54,11 L54,11 Z" id="Shape"></path>
                    <path d="M61,20 C63.2835038,19.2105054 65.928496,21.6686979 65,24 C63.3035417,25.4212041 61.2797219,26.8459524 61,29 C60.2377553,32.9563166 63.0630878,35.936248 64,39 C64.6160188,41.1536362 62.1914427,42.6987858 60,42 C54.3366175,36.2171843 54.4368066,25.1101674 61,20 L61,20 L61,20 Z" id="Shape"></path>
                </g>
            </g>
        </g>
    </g>
</svg>