<?xml version="1.0" encoding="UTF-8"?>
<svg width="24px" height="24px" viewBox="0 0 24 24" version="1.1" xmlns="http://www.w3.org/2000/svg" xmlns:xlink="http://www.w3.org/1999/xlink">
    <!-- Generator: Sketch 50.2 (55047) - http://www.bohemiancoding.com/sketch -->
    <title>WAVideoFullEnter@2x</title>
    <desc>Created with Sketch.</desc>
    <defs></defs>
    <g id="=slice=" stroke="none" stroke-width="1" fill="none" fill-rule="evenodd">
        <g id="iPhone-X-Copy-2" transform="translate(-276.000000, -60.000000)">
            <g id="zk" transform="translate(276.000000, 60.000000)">
                <g id="Group-2">
                    <rect id="Rectangle-9-Copy" x="0" y="0" width="24" height="24"></rect>
                    <g id="Group-16" opacity="0.9" transform="translate(4.000000, 4.000000)" stroke="#FFFFFF" stroke-width="1.5">
                        <path d="M0,5.85813411 L-5.55111512e-17,0.376157364 C-7.58017638e-17,0.210471939 0.134314575,0.0761573643 0.3,0.0761573643 L6.02603876,0.0761573643" id="Stroke-1"></path>
                        <path d="M0,10.0965062 L-5.55111512e-17,15.5784829 C4.79833227e-16,15.7441684 0.134314575,15.8784829 0.3,15.8784829 L6.02603876,15.8784829" id="Stroke-3"></path>
                        <path d="M15.8765853,9.99766899 L15.8765853,15.6773202 C15.8765853,15.8430056 15.7422707,15.9773202 15.5765853,15.9773202 L9.85054651,15.9773202" id="Stroke-5"></path>
                        <path d="M15.8765853,5.93444961 L15.8765853,0.3 C15.8765853,0.134314575 15.7422707,6.91209047e-16 15.5765853,7.21644966e-16 L9.91643798,0" id="Stroke-7"></path>
                    </g>
                </g>
            </g>
        </g>
    </g>
</svg>