<?xml version="1.0" encoding="UTF-8" standalone="no"?>
<svg width="105px" height="96px" viewBox="0 0 105 96" version="1.1" xmlns="http://www.w3.org/2000/svg" xmlns:xlink="http://www.w3.org/1999/xlink">
    <!-- Generator: Sketch 41.2 (35397) - http://www.bohemiancoding.com/sketch -->
    <title>Homepage.default@3x</title>
    <desc>Created with Sketch.</desc>
    <defs></defs>
    <g id="★-Slice-★" stroke="none" stroke-width="1" fill="none" fill-rule="evenodd">
        <g id="SLICE" transform="translate(-1303.000000, -1088.000000)" fill="#D8D8D8">
            <path d="M1363,1092.52381 C1354.10875,1097.00389 1348.5,1105.5363 1348,1115.14286 L1348,1155.85714 C1348.5,1163.01833 1341.4475,1168.92593 1333,1169.42857 C1324.05075,1168.92593 1317,1163.01833 1316.5,1155.85714 C1317,1150.54519 1320.5805,1146.07139 1325.5,1143.79365 C1326.15075,1143.75972 1333,1140.77778 1334.5,1136.25397 C1335.71264,1132.59681 1331.5,1128.71429 1327,1128.71429 C1322.5,1128.71429 1321,1130.22222 1318,1131.73016 C1315,1133.2381 1310.40425,1136.47991 1306,1142.28571 C1304.3615,1146.45139 1303,1150.9463 1303,1155.85714 C1303,1170.76787 1316.3455,1183 1333,1183 C1338.53725,1183 1343.9255,1181.45361 1348,1178.47619 C1356.89125,1173.99611 1362.5,1165.4637 1363,1155.85714 L1363,1115.14286 C1362.5,1107.98167 1369.55075,1102.07407 1378,1101.57143 C1386.9475,1102.07407 1394,1107.98167 1394.5,1115.14286 C1394,1120.67648 1388.5,1127.20635 1384,1128.71429 C1379.5,1130.22222 1378.033,1131.17926 1376.5,1134.74603 C1375.3835,1138.49602 1378,1142.28571 1384,1142.28571 C1384.8744,1142.28571 1390.69529,1141.11535 1396,1137.7619 C1399.79535,1135.36263 1403.1697,1131.1247 1405,1128.71429 C1406.6385,1124.55037 1408,1120.0537 1408,1115.14286 C1408,1100.23213 1394.6545,1088 1378,1088 C1372.46275,1088 1367.0745,1089.54639 1363,1092.52381 Z" id="Homepage.default@3x"></path>
        </g>
    </g>
</svg>