<?xml version="1.0" encoding="UTF-8"?>
<svg width="90px" height="90px" viewBox="0 0 90 90" version="1.1" xmlns="http://www.w3.org/2000/svg" xmlns:xlink="http://www.w3.org/1999/xlink">
    <!-- Generator: Sketch 48.2 (47327) - http://www.bohemiancoding.com/sketch -->
    <title>app_attach_file_icon_music</title>
    <desc>Created with Sketch.</desc>
    <defs></defs>
    <g id="-----Android" stroke="none" stroke-width="1" fill="none" fill-rule="evenodd">
        <g id="app_attach_file_icon_music">
            <g id="Group" transform="translate(11.000000, 0.000000)">
                <path d="M46,0 L68,22 L68,87 C68,88.6568542 66.6568542,90 65,90 L3,90 C1.34314575,90 2.02906125e-16,88.6568542 0,87 L0,3 C-2.02906125e-16,1.34314575 1.34314575,3.04359188e-16 3,0 L46,0 Z" id="Combined-Shape" fill="#6467F0"></path>
                <path d="M68,22 L49,22 C47.3431458,22 46,20.6568542 46,19 L46,0 L68,22 Z" id="Rectangle" fill="#000000" opacity="0.200000003"></path>
                <path d="M46.2524855,44.8396831 L26.6671436,48.8526483 L26.6671436,66.858987 L26.6671436,68.5715042 C26.6671436,70.1663032 25.580134,71.7213377 24.1180868,72.3913011 C23.8462979,72.5158447 22.1293618,72.8928917 21.9051736,72.9372052 C19.7510496,73.362994 18.0959364,71.5501096 18.0047871,69.7168872 C17.9136378,67.8836648 19.1372389,66.3550259 20.5569281,66.0744071 L22.8587721,65.6194197 C24.0651914,65.3809563 24.9346723,64.3227892 24.9346723,63.0930281 L24.9346723,46.6188421 C24.9357358,46.6180286 24.9367988,46.6172157 24.9378612,46.6164032 L24.9378612,45.4815464 C24.9378612,44.8730729 25.3658254,44.3485293 25.9619148,44.2263928 L46.4615937,40.0260832 C47.1547958,39.8840486 47.831889,40.3308582 47.9739236,41.0240604 C47.9912634,41.1086876 48,41.1948514 48,41.2812368 L48,44.0207293 L48,62.2171063 L48,63.9296235 C48,65.5244225 46.9035518,67.079457 45.4288095,67.7494204 C45.1546607,67.873964 43.4228163,68.251011 43.1966814,68.2953245 C41.023853,68.7211132 39.3543684,66.9082289 39.2624276,65.0750065 C39.1704868,63.2417841 40.4047126,61.7131452 41.836729,61.4325264 L44.1724462,60.9748178 C45.3808117,60.7380258 46.2524855,59.6789595 46.2524855,58.4476116 L46.2524855,44.8396831 Z" id="Music-Copy" fill="#FFFFFF"></path>
            </g>
        </g>
    </g>
</svg>