<?xml version="1.0" encoding="UTF-8"?>
<svg width="90px" height="90px" viewBox="0 0 90 90" version="1.1" xmlns="http://www.w3.org/2000/svg" xmlns:xlink="http://www.w3.org/1999/xlink">
    <!-- Generator: Sketch 48.2 (47327) - http://www.bohemiancoding.com/sketch -->
    <title>app_attach_file_icon_word</title>
    <desc>Created with Sketch.</desc>
    <defs></defs>
    <g id="-----Android" stroke="none" stroke-width="1" fill="none" fill-rule="evenodd">
        <g id="app_attach_file_icon_word">
            <g id="Group" transform="translate(11.000000, 0.000000)">
                <path d="M46,0 L68,22 L68,87 C68,88.6568542 66.6568542,90 65,90 L3,90 C1.34314575,90 2.02906125e-16,88.6568542 0,87 L0,3 C-2.02906125e-16,1.34314575 1.34314575,3.04359188e-16 3,0 L46,0 Z" id="Combined-Shape" fill="#2C569A"></path>
                <path d="M68,22 L49,22 C47.3431458,22 46,20.6568542 46,19 L46,0 L68,22 Z" id="Rectangle" fill="#23447B"></path>
                <polygon id="W" fill="#FFFFFF" points="33.9121094 50.6484375 28.7265625 69 24.4550781 69 17.6523438 43.6347656 22.3632812 43.6347656 26.7578125 62.8476562 26.8984375 62.8476562 31.9960938 43.6347656 36.0039062 43.6347656 41.1015625 62.8476562 41.2421875 62.8476562 45.6367188 43.6347656 50.3476562 43.6347656 43.5449219 69 39.2734375 69 34.0878906 50.6484375"></polygon>
            </g>
        </g>
    </g>
</svg>