<?xml version="1.0" encoding="UTF-8" standalone="no"?>
<svg width="80px" height="71px" viewBox="0 0 80 71" version="1.1" xmlns="http://www.w3.org/2000/svg" xmlns:xlink="http://www.w3.org/1999/xlink" xmlns:sketch="http://www.bohemiancoding.com/sketch/ns">
    <!-- Generator: Sketch 3.4.2 (15857) - http://www.bohemiancoding.com/sketch -->
    <title>url</title>
    <desc>Created with Sketch.</desc>
    <defs></defs>
    <g id="最终稿" stroke="none" stroke-width="1" fill="none" fill-rule="evenodd" sketch:type="MSPage">
        <g id="url" sketch:type="MSArtboardGroup" fill="#FFFFFF">
            <g id="Rectangle-185-Copy-2-+-Rectangle-185-Copy-3-+-Rectangle-185-Copy-2-+-Rectangle-185-Copy-3-Copy" sketch:type="MSLayerGroup" transform="translate(8.000000, 27.000000)">
                <g id="Rectangle-185-Copy-2-+-Rectangle-185-Copy-3" transform="translate(24.000000, 0.000000)" sketch:type="MSShapeGroup">
                    <path d="M19.3577571,25.260746 L28.4508214,25.260746 C34.5150477,25.260746 39.4479907,20.3330814 39.4479907,14.254499 L39.4479907,11.0062471 C39.4479907,4.930493 34.5243903,1.27267562e-07 28.4508214,1.04654295e-07 L11.3395159,4.09450441e-08 C5.27528954,1.83665611e-08 0.342346509,4.92766463 0.342346509,11.006247 L0.342346509,14.1603715 L4.42035564,14.1603715 C4.37539332,13.8172219 4.35219692,13.4672625 4.35219693,13.1119288 L4.35219694,12.0100278 C4.35219698,7.59042752 7.93228511,4.00763359 12.3552839,4.00763359 L27.4260603,4.00763359 C31.8460431,4.00763359 35.4291471,7.59375627 35.4291471,12.0100278 L35.4291471,13.1119288 C35.429147,17.5315291 31.8490589,21.114323 27.4260601,21.114323 L19.3577571,21.114323 L19.3577571,25.260746 Z" id="Rectangle-185-Copy-3"></path>
                </g>
                <g id="Rectangle-185-Copy-2-+-Rectangle-185-Copy-3-Copy" transform="translate(20.000000, 13.000000) scale(-1, -1) translate(-20.000000, -13.000000) " sketch:type="MSShapeGroup">
                    <path d="M19.3577571,25.260746 L28.4508214,25.260746 C34.5150477,25.260746 39.4479907,20.3330814 39.4479907,14.254499 L39.4479907,11.0062471 C39.4479907,4.930493 34.5243903,1.27267562e-07 28.4508214,1.04654295e-07 L11.3395159,4.09450441e-08 C5.27528954,1.83665611e-08 0.342346509,4.92766463 0.342346509,11.006247 L0.342346509,14.1603715 L4.42035564,14.1603715 C4.37539332,13.8172219 4.35219692,13.4672625 4.35219693,13.1119288 L4.35219694,12.0100278 C4.35219698,7.59042752 7.93228511,4.00763359 12.3552839,4.00763359 L27.4260603,4.00763359 C31.8460431,4.00763359 35.4291471,7.59375627 35.4291471,12.0100278 L35.4291471,13.1119288 C35.429147,17.5315291 31.8490589,21.114323 27.4260601,21.114323 L19.3577571,21.114323 L19.3577571,25.260746 Z" id="Rectangle-185-Copy-3"></path>
                </g>
            </g>
        </g>
    </g>
</svg>