<?xml version="1.0" encoding="UTF-8" standalone="no"?>
<svg width="69px" height="69px" viewBox="0 0 69 69" version="1.1" xmlns="http://www.w3.org/2000/svg" xmlns:xlink="http://www.w3.org/1999/xlink">
    <!-- Generator: Sketch 39.1 (31720) - http://www.bohemiancoding.com/sketch -->
    <title>Loading_lightversion @3x</title>
    <desc>Created with Sketch.</desc>
    <defs></defs>
    <g id="交付开发" stroke="none" stroke-width="1" fill="none" fill-rule="evenodd">
        <g id="SLICE" transform="translate(-583.000000, -337.000000)" fill="">
            <path d="M612.75,340.185607 C612.75,338.426245 614.180674,337 615.9375,337 C617.697908,337 619.125,338.424557 619.125,340.185607 L619.125,352.975683 C619.125,354.735046 617.694326,356.16129 615.9375,356.16129 C614.177092,356.16129 612.75,354.736734 612.75,352.975683 L612.75,340.185607 Z M630.08054,344.0878 C631.094123,342.52702 633.187102,342.087356 634.746346,343.099941 L635.079879,343.316539 C636.64315,344.33174 637.090439,346.417401 636.075179,347.980764 L629.069782,358.768129 C628.0562,360.328909 625.96322,360.768574 624.403976,359.755989 L624.070443,359.53939 C622.507172,358.52419 622.059884,356.438528 623.075143,354.875165 L630.08054,344.0878 Z M644.44448,355.462488 C646.131134,354.675988 648.139068,355.412242 648.924794,357.097236 L649.092866,357.457668 C649.880621,359.147014 649.154711,361.152782 647.465265,361.940583 L635.807919,367.376493 C634.121265,368.162992 632.113331,367.426739 631.327606,365.741744 L631.159534,365.381313 C630.371778,363.691967 631.097689,361.686199 632.787134,360.898398 L644.44448,355.462488 Z M648.925555,371.201275 C650.76846,371.460278 652.051463,373.171352 651.792715,375.012444 L651.737367,375.406266 C651.47795,377.252113 649.776731,378.538932 647.930775,378.2795 L635.193494,376.489392 C633.350588,376.230389 632.067586,374.519315 632.326334,372.678223 L632.381682,372.284401 C632.641099,370.438554 634.342318,369.151735 636.188273,369.411167 L648.925555,371.201275 Z M642.425903,388.105964 C643.83043,389.326901 643.974529,391.460702 642.754794,392.863847 L642.493884,393.163989 C641.270999,394.570758 639.143384,394.723425 637.736533,393.500468 L628.029112,385.061936 C626.624585,383.840999 626.480486,381.707199 627.700221,380.304054 L627.961131,380.003912 C629.184016,378.597143 631.311631,378.444475 632.718483,379.667433 L642.425903,388.105964 Z M628.339958,399.443901 C628.852924,401.232825 627.811625,403.100863 626.024461,403.613324 L625.642175,403.722942 C623.850395,404.236727 621.982879,403.205983 621.469064,401.414098 L617.92369,389.04991 C617.410724,387.260986 618.452023,385.392948 620.239187,384.880487 L620.621474,384.770868 C622.413253,384.257084 624.280769,385.287828 624.794584,387.079713 L628.339958,399.443901 Z M612.044584,401.414098 C611.531618,403.203022 609.658638,404.235403 607.871474,403.722942 L607.489187,403.613324 C605.697408,403.099539 604.659875,401.235786 605.17369,399.443901 L608.719064,387.079713 C609.23203,385.290788 611.105011,384.258407 612.892175,384.770868 L613.274461,384.880487 C615.06624,385.394271 616.103773,387.258025 615.589958,389.04991 L612.044584,401.414098 Z M596.593483,393.500468 C595.188955,394.721405 593.055866,394.567134 591.836131,393.163989 L591.575221,392.863847 C590.352336,391.457078 590.497261,389.328922 591.904112,388.105964 L601.611533,379.667433 C603.01606,378.446496 605.149149,378.600766 606.368884,380.003912 L606.629794,380.304054 C607.85268,381.710823 607.707754,383.838979 606.300903,385.061936 L596.593483,393.500468 Z M587.313273,378.2795 C585.470368,378.538504 583.765431,377.247358 583.506682,375.406266 L583.451334,375.012444 C583.191917,373.166597 584.472538,371.460707 586.318494,371.201275 L599.055775,369.411167 C600.898681,369.152163 602.603618,370.443309 602.862367,372.284401 L602.917715,372.678223 C603.177132,374.52407 601.89651,376.22996 600.050555,376.489392 L587.313273,378.2795 Z M588.162134,361.940583 C586.47548,361.154083 585.748808,359.142662 586.534534,357.457668 L586.702606,357.097236 C587.490361,355.40789 589.493474,354.674687 591.182919,355.462488 L602.840265,360.898398 C604.526919,361.684897 605.253592,363.696318 604.467866,365.381313 L604.299794,365.741744 C603.512039,367.431091 601.508925,368.164294 599.81948,367.376493 L588.162134,361.940583 Z M597.575143,347.980764 C596.561561,346.419984 597.011199,344.329124 598.570443,343.316539 L598.903976,343.099941 C600.467247,342.08474 602.554522,342.524437 603.569782,344.0878 L610.575179,354.875165 C611.588761,356.435945 611.139123,358.526805 609.579879,359.53939 L609.246346,359.755989 C607.683075,360.771189 605.5958,360.331492 604.58054,358.768129 L597.575143,347.980764 Z" id="Rectangle-2-Copy-3"></path>
        </g>
    </g>
</svg>