<?xml version="1.0" encoding="UTF-8"?>
<svg width="90px" height="90px" viewBox="0 0 90 90" version="1.1" xmlns="http://www.w3.org/2000/svg" xmlns:xlink="http://www.w3.org/1999/xlink">
    <!-- Generator: Sketch 48.2 (47327) - http://www.bohemiancoding.com/sketch -->
    <title>app_attach_file_icon_voice</title>
    <desc>Created with Sketch.</desc>
    <defs></defs>
    <g id="-----Android" stroke="none" stroke-width="1" fill="none" fill-rule="evenodd">
        <g id="app_attach_file_icon_voice">
            <rect id="bg" fill="#F2F2F2" x="0" y="0" width="90" height="90"></rect>
            <g id="Group-4" opacity="0.600000024" transform="translate(30.000000, 23.000000)" fill="#000000" fill-rule="nonzero">
                <path d="M21.2132034,0.54296664 C26.6421356,6.03430035 30,13.6205072 30,22 C30,30.3794928 26.6421356,37.9656997 21.2132034,43.4570334 L18.0312229,40.2384784 C22.6458153,35.5708447 25.5,29.1225688 25.5,22 C25.5,14.8774312 22.6458153,8.4291553 18.0312229,3.76152164 L21.2132034,0.54296664 Z M13.7885822,8.05292832 C17.3173882,11.6222952 19.5,16.5533297 19.5,22 C19.5,27.4466703 17.3173882,32.3777048 13.7885822,35.9470717 L10.6066017,32.7285167 C13.3210678,29.9828498 15,26.1897464 15,22 C15,17.8102536 13.3210678,14.0171502 10.6066017,11.2714833 L13.7885822,8.05292832 Z M6.36396103,15.56289 C7.99264069,17.2102901 9,19.4861522 9,22 C9,24.5138478 7.99264069,26.7897099 6.36396103,28.43711 L0,22 L6.36396103,15.56289 Z" id="Combined-Shape"></path>
            </g>
        </g>
    </g>
</svg>