<?xml version="1.0" encoding="UTF-8" standalone="no"?>
<svg width="42px" height="42px" viewBox="0 0 42 42" version="1.1" xmlns="http://www.w3.org/2000/svg" xmlns:xlink="http://www.w3.org/1999/xlink">
    <!-- Generator: Sketch 39.1 (31720) - http://www.bohemiancoding.com/sketch -->
    <title>微信认证icon</title>
    <desc>Created with Sketch.</desc>
    <defs>
        <path d="M42,21.2592593 C42,9.40177778 32.5982222,0 20.7407407,0 C9.40177778,0 0,9.40177778 0,21.2592593 C0,32.5982222 9.40177778,42 20.7407407,42 C32.5982222,42 42,32.5982222 42,21.2592593 Z" id="path-1"></path>
        <mask id="mask-2" maskContentUnits="userSpaceOnUse" maskUnits="objectBoundingBox" x="0" y="0" width="42" height="42" fill="white">
            <use xlink:href="#path-1"></use>
        </mask>
    </defs>
    <g id="尝试版" stroke="none" stroke-width="1" fill="none" fill-rule="evenodd">
        <g id="SLICE" transform="translate(-275.000000, -1626.000000)">
            <g id="report_icon" transform="translate(126.000000, 1626.000000)">
                <g id="微信认证icon" transform="translate(149.000000, 0.000000)">
                    <use id="Fill-3" stroke="#FF7200" mask="url(#mask-2)" stroke-width="5.4" fill="#FEECB6" xlink:href="#path-1"></use>
                    <path d="M7.19320133,22.069902 C7.02097215,21.9046808 7.00134151,21.6194085 7.14770789,21.4348061 L8.14413326,20.1780798 C8.29123711,19.9925473 8.56778248,19.9538895 8.76361966,20.0930174 L15.5882852,24.9414429 C15.7833142,25.0799968 16.0941617,25.0743678 16.2785913,24.9319523 L33.2727462,11.8091546 C33.4589627,11.6653592 33.7510376,11.6779706 33.9342114,11.8456511 L34.8147663,12.6517267 C34.9938669,12.8156785 34.9955634,13.0794855 34.8218535,13.2379476 L16.2580568,30.1722578 C16.0828704,30.3320668 15.7985506,30.3251047 15.6290052,30.162458 L7.19320133,22.069902 Z" id="Fill-36" fill="#FF7200"></path>
                </g>
            </g>
        </g>
    </g>
</svg>