<?xml version="1.0" encoding="UTF-8"?>
<svg width="90px" height="90px" viewBox="0 0 90 90" version="1.1" xmlns="http://www.w3.org/2000/svg" xmlns:xlink="http://www.w3.org/1999/xlink">
    <!-- Generator: Sketch 48.2 (47327) - http://www.bohemiancoding.com/sketch -->
    <title>app_attach_file_icon_folders</title>
    <desc>Created with Sketch.</desc>
    <defs></defs>
    <g id="-----Android" stroke="none" stroke-width="1" fill="none" fill-rule="evenodd">
        <g id="app_attach_file_icon_folders" fill="#E0B95C">
            <path d="M86.25,32.2533665 L86.25,28.75 C86.25,26.6789322 84.5710678,25 82.5,25 L7.5,25 C5.42893219,25 3.75,26.6789322 3.75,28.75 L3.75,32.2533665 C4.85315013,31.6152286 6.13392321,31.25 7.5,31.25 L82.5,31.25 C83.8660768,31.25 85.1468499,31.6152286 86.25,32.2533665 Z M3.75,10 L29.6966991,10 C30.691261,10 31.6450882,10.3950882 32.3483496,11.0983496 L37.6516504,16.4016504 C38.3549118,17.1049118 39.308739,17.5 40.3033009,17.5 L86.25,17.5 C88.3210678,17.5 90,19.1789322 90,21.25 L90,76.25 C90,78.3210678 88.3210678,80 86.25,80 L3.75,80 C1.67893219,80 2.53632657e-16,78.3210678 0,76.25 L-8.8817842e-16,13.75 C-1.14181108e-15,11.6789322 1.67893219,10 3.75,10 Z" id="Combined-Shape"></path>
        </g>
    </g>
</svg>