<svg xmlns="http://www.w3.org/2000/svg" xmlns:xlink="http://www.w3.org/1999/xlink" preserveAspectRatio="xMidYMid" width="80" height="70" viewBox="0 0 80 70">
  <defs>
    <style>
      .cls-1 {
        fill: #fff;
        fill-rule: evenodd;
      }
    </style>
  </defs>
  <path d="M39.999,66.129 C35.436,66.129 31.029,65.480 26.945,64.315 C26.573,64.203 26.178,64.142 25.769,64.142 C25.001,64.142 24.304,64.373 23.645,64.751 L14.890,69.766 C14.646,69.905 14.409,70.012 14.120,70.012 C13.384,70.012 12.787,69.420 12.787,68.690 C12.787,68.362 12.918,68.036 13.002,67.722 C13.052,67.536 14.130,63.545 14.804,61.054 C14.880,60.774 14.944,60.503 14.944,60.211 C14.944,59.322 14.502,58.536 13.824,58.056 C5.393,51.995 0.006,43.027 0.006,33.065 C0.006,30.372 0.398,27.756 1.133,25.250 C7.438,18.998 16.145,15.132 25.763,15.132 C37.198,15.132 47.347,20.597 53.699,29.038 L60.783,22.011 C52.578,11.811 39.940,5.274 25.763,5.274 C22.662,5.274 19.635,5.586 16.712,6.182 C23.271,2.291 31.311,-0.000 39.999,-0.000 C62.086,-0.000 79.992,14.804 79.992,33.065 C79.992,51.325 62.086,66.129 39.999,66.129 ZM25.763,54.693 C28.542,54.693 30.795,52.458 30.795,49.700 C30.795,46.943 28.542,44.708 25.763,44.708 C22.984,44.708 20.730,46.943 20.730,49.700 C20.730,52.458 22.984,54.693 25.763,54.693 ZM25.763,24.991 C17.069,24.991 9.416,29.410 4.961,36.108 L12.238,43.327 C14.642,38.314 19.795,34.849 25.763,34.849 C31.733,34.849 36.888,38.317 39.290,43.334 L46.569,36.113 C42.114,29.412 34.459,24.991 25.763,24.991 Z" class="cls-1"/>
</svg>
