<?xml version="1.0" encoding="UTF-8" standalone="no"?>
<svg width="48px" height="48px" viewBox="0 0 48 48" version="1.1" xmlns="http://www.w3.org/2000/svg" xmlns:xlink="http://www.w3.org/1999/xlink" xmlns:sketch="http://www.bohemiancoding.com/sketch/ns">
    <!-- Generator: Sketch 3.2.2 (9983) - http://www.bohemiancoding.com/sketch -->
    <title>biz_info_trademark_protection</title>
    <desc>Created with Sketch.</desc>
    <defs></defs>
    <g id="Page-1" stroke="none" stroke-width="1" fill="none" fill-rule="evenodd" sketch:type="MSPage">
        <path d="M24,4 C24,4 16.25142,8.95561075 7,11 C7.03986135,42.4193591 24,44 24,44 L24,4 Z M24,4 C24,4 31.74858,8.95561075 41,11 C40.9601386,42.4193591 24,44 24,44 L24,4 Z" id="Path-6" fill="#06BB04" sketch:type="MSShapeGroup"></path>
        <path d="M24,6 C24,6 17.1630177,10.4600497 9,12.3 C9.03517178,40.5774232 24,42 24,42 L24,6 Z M24,6 C24,6 30.8369823,10.4600497 39,12.3 C38.9648282,40.5774232 24,42 24,42 L24,6 Z" id="Path-6" fill="#EBEDEB" sketch:type="MSShapeGroup"></path>
        <path d="M20.4102542,18.5010582 L20.4102542,23.0282535 L24.4001309,23.0282535 C25.1927751,23.0282535 25.7872494,22.9367959 26.1835715,22.7538781 C26.8847568,22.4337717 27.2353441,21.8011902 27.2353441,20.8561143 C27.2353441,19.8348228 26.896189,19.1488909 26.2178684,18.7982983 C25.8367895,18.6001372 25.2651796,18.5010582 24.5030217,18.5010582 L20.4102542,18.5010582 Z M29.578968,17.1863424 C29.9448038,17.6131508 30.2344194,18.0856816 30.4478237,18.603949 C30.6612279,19.1222164 30.7679284,19.7128799 30.7679284,20.3759573 C30.7679284,21.1762231 30.5659596,21.9631393 30.1620159,22.7367296 C29.7580722,23.5103199 29.091194,24.05716 28.1613614,24.3772663 C28.9387624,24.689751 29.4894133,25.1337013 29.8133304,25.7091306 C30.1372475,26.2845598 30.078083,26.6483749 30.4478234,28.6880225 C30.8175637,30.72767 31.0308715,32.4256135 31.0308715,32.4256135 L27.155318,32.4256135 C27.0758768,32.1475693 26.4718112,27.4390597 26.4718112,27.4390597 C26.4718112,27.4390597 26.2825163,25.7091301 24.0457292,25.8177375 L20.4102542,25.8177375 L20.4102542,32.4256135 L16.9691285,32.4256135 L16.9691285,15.5743865 L25.2346896,15.5743865 C26.4160344,15.5972512 27.3248941,15.742059 27.9612959,16.0088143 C27.9612959,16.0088143 29.1369164,16.668075 29.578968,17.1863424 Z" id="R" fill="#06BB04" sketch:type="MSShapeGroup"></path>
    </g>
</svg>