<?xml version="1.0" encoding="UTF-8" standalone="no"?>
<svg width="96px" height="96px" viewBox="0 0 96 96" version="1.1" xmlns="http://www.w3.org/2000/svg" xmlns:xlink="http://www.w3.org/1999/xlink">
    <!-- Generator: Sketch 39.1 (31720) - http://www.bohemiancoding.com/sketch -->
    <title>actionbar_goto_biz_qrcode_icon</title>
    <desc>Created with Sketch.</desc>
    <defs></defs>
    <g id="Buttonsheet" stroke="none" stroke-width="1" fill="none" fill-rule="evenodd">
        <g id="actionbar_goto_biz_qrcode_icon" fill="#717479">
            <path d="M53,44 L85,44 L85,12 L53,12 L53,44 Z M61,36 L77,36 L77,20 L61,20 L61,36 Z M12,44 L44,44 L44,12 L12,12 L12,44 Z M20,36 L36,36 L36,20 L20,20 L20,36 Z M53,85 L85,85 L85,53 L53,53 L53,85 Z M61,77 L77,77 L77,61 L61,61 L61,77 Z M36,61 L44,61 L44,53 L36,53 L36,61 Z M20,53 L12,53 L12,61 L20,61 L28,61 L28,53 L20,53 Z M28,69 L36,69 L36,61 L28,61 L28,69 Z M36,69 L36,77 L28,77 L28,85 L36,85 L44,85 L44,69 L36,69 Z M12,69 L12,77 L12,85 L20,85 L20,77 L28,77 L28,69 L12,69 Z" id="Page-1"></path>
        </g>
    </g>
</svg>