<?xml version="1.0" encoding="UTF-8"?>
<svg width="96px" height="96px" viewBox="0 0 96 96" version="1.1" xmlns="http://www.w3.org/2000/svg" xmlns:xlink="http://www.w3.org/1999/xlink">
    <!-- Generator: Sketch 52.1 (67048) - http://www.bohemiancoding.com/sketch -->
    <title>Artboard Copy 2</title>
    <desc>Created with Sketch.</desc>
    <g id="Artboard-Copy-2" stroke="none" stroke-width="1" fill="none" fill-rule="evenodd">
        <g id="Group-2" transform="translate(14.000000, 8.000000)" fill="#7C8186">
            <path d="M30.5727367,32.8970898 L32.1496637,36.9714236 L34.7737826,36.9714236 L28.6913498,21.256136 L28.3791422,21.256136 L25.7550233,21.256136 L19.6725906,36.9714236 L22.2967094,36.9714236 L23.8736364,32.8970898 L30.5727367,32.8970898 Z M29.6716356,30.568899 L24.7747376,30.568899 L27.2231866,24.2427987 L29.6716356,30.568899 Z M12.2265446,8 L63.1405094,8 C65.4456979,8 67.3144224,9.86872452 67.3144224,12.173913 L67.3144224,75.548913 C67.3144224,77.8541016 65.4456979,79.7228261 63.1405094,79.7228261 L12.2265446,79.7228261 C9.9213561,79.7228261 8.05263158,77.8541016 8.05263158,75.548913 L8.05263158,12.173913 C8.05263158,9.86872452 9.9213561,8 12.2265446,8 Z M18.8275026,47.2445652 L18.8275026,51.3043478 L56.5395514,51.3043478 L56.5395514,47.2445652 L18.8275026,47.2445652 Z M18.8275026,56.7173913 L18.8275026,60.7771739 L56.5395514,60.7771739 L56.5395514,56.7173913 L18.8275026,56.7173913 Z M18.8275026,64.8369565 L18.8275026,68.8967391 L56.5395514,68.8967391 L56.5395514,64.8369565 L18.8275026,64.8369565 Z" id="Combined-Shape"></path>
            <path d="M60.5820436,5.41062802 L7.47202707,5.41062802 C6.31943281,5.41062802 5.38507055,6.34499028 5.38507055,7.49758454 L5.38507055,73.0434783 L4.17391304,73.0434783 C1.86872452,73.0434783 1.17048259e-15,71.1747537 8.8817842e-16,68.8695652 L0,4.17391304 C-2.82304174e-16,1.86872452 1.86872452,4.86434836e-15 4.17391304,4.4408921e-15 L56.4081306,0 C58.7133191,-4.51829366e-15 60.5820436,1.86872452 60.5820436,4.17391304 L60.5820436,5.41062802 Z" id="Combined-Shape"></path>
        </g>
    </g>
</svg>