<?xml version="1.0" encoding="UTF-8" standalone="no"?>
<svg width="96px" height="96px" viewBox="0 0 96 96" version="1.1" xmlns="http://www.w3.org/2000/svg" xmlns:xlink="http://www.w3.org/1999/xlink">
    <!-- Generator: Sketch 39.1 (31720) - http://www.bohemiancoding.com/sketch -->
    <title>黑名单</title>
    <desc>Created with Sketch.</desc>
    <defs></defs>
    <g id="Buttonsheet" stroke="none" stroke-width="1" fill="none" fill-rule="evenodd">
        <g id="黑名单" fill="#7B8085">
            <path d="M48,80 C40.6053333,80 33.8022222,77.4853333 28.3835556,73.2733333 L73.2733333,28.3835556 C77.4853333,33.8022222 80,40.6053333 80,48 C80,65.6728889 65.6728889,80 48,80 M16,48 C16,30.3266667 30.3266667,16 48,16 C55.3946667,16 62.1977778,18.5146667 67.6164444,22.7266667 L22.7266667,67.6164444 C18.5146667,62.1977778 16,55.3946667 16,48 M70.6275556,25.3728889 L70.6271111,25.3724444 L70.6275556,25.3728889 M48,8 C25.9084444,8 8,25.9084444 8,48 C8,70.0915556 25.9084444,88 48,88 C70.0915556,88 88,70.0915556 88,48 C88,25.9084444 70.0915556,8 48,8" id="Page-1"></path>
        </g>
    </g>
</svg>