<?xml version="1.0" encoding="UTF-8" standalone="no"?>
<svg width="96px" height="96px" viewBox="0 0 96 96" version="1.1" xmlns="http://www.w3.org/2000/svg" xmlns:xlink="http://www.w3.org/1999/xlink">
    <!-- Generator: Sketch 39 (31667) - http://www.bohemiancoding.com/sketch -->
    <title>icon_new_wechat</title>
    <desc>Created with Sketch.</desc>
    <defs></defs>
    <g id="Page-1" stroke="none" stroke-width="1" fill="none" fill-rule="evenodd">
        <g id="icon_new_wechat">
            <path d="M79.0779429,41.6327837 C79.0779429,42.4007837 79.0436571,43.1668245 78.983902,43.9309061 C78.9006367,43.8339265 78.823249,43.7340082 78.7321469,43.6419265 C76.9150041,41.8257633 74.1427592,41.5740082 72.0454531,42.8582531 C72.0630857,42.4860082 72.0865959,42.1147429 72.0865959,41.742498 C72.0865959,38.1571918 71.2725551,34.6659265 69.6670041,31.364702 C68.4562286,28.8775184 66.823249,26.5617633 64.8121469,24.4811102 C59.6203102,19.1119673 52.3076571,15.6481306 44.2201469,14.7292735 C42.7507592,14.5617633 41.2980245,14.4775184 39.9030857,14.4775184 C38.5747592,14.4775184 37.1837388,14.5558857 35.7701878,14.7096816 C27.6444735,15.5922939 20.2887184,19.038498 15.057698,24.4125388 C13.0377796,26.4882939 11.3959837,28.799151 10.1763918,31.2804571 C8.54439184,34.6032327 7.71663673,38.1229061 7.71663673,41.742498 C7.71663673,46.4063347 9.14684082,51.0202122 11.8514939,55.086498 C13.0005551,56.814498 14.3680653,58.4269061 15.9256163,59.9041306 C16.4800653,60.4301714 17.0560653,60.9405388 17.6585143,61.4313143 C18.0513306,61.7516408 18.4255347,62.0416 18.7997388,62.3188245 C19.5363918,62.8546612 19.9781878,63.7274776 19.9781878,64.6512327 C19.9781878,64.9852735 19.9076571,65.2830694 19.8381061,65.5309061 C19.6715755,66.1676408 19.4746776,66.9180082 19.2797388,67.662498 C19.1024327,68.3354776 18.9270857,69.0035592 18.7781878,69.5717224 C18.6518204,70.0556408 18.5470041,70.4533551 18.4725551,70.7364571 L18.2070857,71.8081306 C18.2070857,72.0696816 18.4118204,72.2832327 18.6645551,72.2832327 C18.7409633,72.2832327 18.8252082,72.2509061 18.9741061,72.1637224 L19.2797388,71.9834776 L26.1564735,67.9309061 C26.2358204,67.8848653 26.3141878,67.8505796 26.3935347,67.8094367 C27.0028408,67.4940082 27.6043102,67.3294367 28.2243918,67.3294367 C28.6211265,67.3294367 29.0100245,67.3891918 29.3754122,67.5057633 C31.1729633,68.0318041 33.0332082,68.4158041 34.9150041,68.6665796 C35.2000653,68.7047837 35.4851265,68.7488653 35.7701878,68.7802122 C37.1406367,68.9310694 38.5306776,69.0074776 39.9030857,69.0074776 C41.2999837,69.0074776 42.7517388,68.9222531 44.2201469,68.7557224 C46.6387592,68.4804571 48.9790041,67.9700898 51.2193306,67.2589061 C51.0224327,69.3248653 52.0147592,71.4113959 53.9337796,72.5085388 C54.2560653,72.692702 54.5891265,72.8396408 54.9280653,72.9522939 C51.7923918,74.0778449 48.4892082,74.8693551 45.0547592,75.2602122 C43.3091265,75.4580898 41.575249,75.5589878 39.9030857,75.5589878 C38.263249,75.5589878 36.6018612,75.4678857 34.9649633,75.2876408 C32.4474122,75.0104163 30.0591673,74.5696 27.6523102,73.8789878 L19.2797388,78.0814367 L16.4702694,79.4910694 C16.2645551,79.6135184 16.2498612,79.6203755 16.2361469,79.6282122 C15.7953306,79.8809469 15.2918204,80.036702 14.7471673,80.036702 C13.185698,80.036702 11.9171265,78.8445388 11.762351,77.3242122 C11.7525551,77.2223347 11.7319837,77.1243755 11.7319837,77.0215184 C11.7319837,76.9245388 11.7525551,76.8324571 11.7603918,76.7384163 C11.7721469,76.6140082 11.7809633,76.4886204 11.8074122,76.3691102 C11.8368,76.2358857 11.8867592,76.1114776 11.9337796,75.9851102 L13.1092898,66.740702 C10.5065143,64.4269061 7.67745306,61.151151 5.94749388,58.5493551 C2.53165714,53.4143347 0.726269388,47.5651918 0.726269388,41.6327837 C0.726269388,37.0257633 1.77639184,32.5519673 3.84626939,28.3387429 C5.37149388,25.2334367 7.41786122,22.350498 9.92953469,19.7692735 C16.2929633,13.2324571 25.185698,9.04568163 34.9708408,7.9818449 C36.6528,7.79866122 38.311249,7.70657959 39.9030857,7.70657959 C41.5732898,7.70657959 43.3061878,7.80747755 45.0547592,8.0053551 C54.7958204,9.11327347 63.6395755,13.3216 69.9569633,19.854498 C72.4568816,22.4416 74.4934531,25.3313959 76.007902,28.4445388 C78.0444735,32.6303347 79.0779429,37.0678857 79.0779429,41.6327837 L79.0779429,41.6327837" id="Combined-Shape" fill="#0082EF"></path>
            <path d="M78.259298,77.3001143 C80.3869714,79.4268082 80.3869714,82.875951 78.259298,85.0036245 C76.1326041,87.131298 72.6834612,87.131298 70.5557878,85.0036245 C69.8612571,84.3090939 69.3949714,83.473502 69.1539918,82.5899102 C69.1020735,82.3998694 69.0609306,82.2078694 69.0305633,82.0148898 C69.0021551,81.8395429 68.9825633,81.6632163 68.9717878,81.4859102 C68.3428898,78.3414204 66.8108082,75.3409306 64.3726041,72.9027265 C64.2491755,72.779298 64.1228082,72.6578286 63.9964408,72.5383184 C63.9327673,72.4942367 63.8710531,72.4452571 63.8142367,72.3884408 C63.7809306,72.3551347 63.7505633,72.320849 63.7221551,72.2855837 C63.3077878,71.7742367 63.3381551,71.0219102 63.8142367,70.5468082 C64.3226449,70.0374204 65.1474612,70.0374204 65.6558694,70.5468082 C65.8263184,70.731951 66.0006857,70.9151347 66.1809306,71.0944 C68.6739918,73.5884408 71.7557878,75.1342367 74.9786449,75.7347265 C75.0893388,75.7464816 75.1990531,75.7621551 75.3077878,75.7807673 C75.4165224,75.7984 75.5252571,75.819951 75.6330122,75.8444408 C76.5949714,76.0658286 77.5099102,76.5497469 78.259298,77.3001143 L78.259298,77.3001143" id="Path" fill="#FB6500"></path>
            <path d="M93.6638694,69.6385306 C92.9703184,70.3320816 92.1347265,70.7983673 91.2501551,71.0393469 C91.0601143,71.0912653 90.8681143,71.1333878 90.6751347,71.1637551 C90.4997878,71.1921633 90.3234612,71.2117551 90.1461551,71.2225306 C87.0006857,71.850449 84.0011755,73.3825306 81.5629714,75.8207347 C81.4385633,75.9451429 81.3180735,76.0705306 81.1995429,76.1978776 C81.1544816,76.261551 81.105502,76.3222857 81.0486857,76.379102 C81.0153796,76.4124082 80.9810939,76.4427755 80.9468082,76.4711837 C80.4344816,76.885551 79.6821551,76.8551837 79.2070531,76.379102 C78.6976653,75.8706939 78.6976653,75.0458776 79.2070531,74.5374694 C79.3912163,74.3670204 79.5753796,74.1926531 79.7546449,74.0133878 C82.2486857,71.5193469 83.7944816,68.437551 84.3949714,65.2146939 C84.4067265,65.1049796 84.4224,64.9952653 84.4400327,64.885551 C84.4586449,64.7768163 84.4801959,64.6680816 84.5046857,64.5603265 C84.7260735,63.5983673 85.2099918,62.6844082 85.9593796,61.9340408 C88.0870531,59.8063673 91.5371755,59.8063673 93.6638694,61.9340408 C95.7915429,64.0617143 95.7915429,67.5108571 93.6638694,69.6385306 L93.6638694,69.6385306" id="Path" fill="#0082EF"></path>
            <path d="M78.2987755,46.5296653 C78.9923265,47.2241959 79.4586122,48.0597878 79.7005714,48.9433796 C79.7515102,49.1334204 79.7936327,49.3254204 79.824,49.5184 C79.8524082,49.6937469 79.872,49.8700735 79.8817959,50.0473796 C80.5106939,53.192849 82.0427755,56.1923592 84.4809796,58.6305633 C84.6053878,58.7539918 84.7307755,58.8754612 84.8581224,58.9949714 C84.9217959,59.0390531 84.9835102,59.0880327 85.0403265,59.144849 C85.0726531,59.1781551 85.1030204,59.2124408 85.1314286,59.2477061 C85.5457959,59.7590531 85.5154286,60.5113796 85.0403265,60.9874612 C84.5309388,61.4958694 83.707102,61.4958694 83.1977143,60.9874612 C83.0272653,60.8023184 82.852898,60.6181551 82.6726531,60.4388898 C80.1795918,57.944849 77.0987755,56.3990531 73.8749388,55.7985633 C73.7652245,55.7868082 73.6555102,55.7711347 73.5457959,55.753502 C73.4370612,55.7348898 73.3283265,55.7133388 73.2205714,55.688849 C72.2586122,55.4674612 71.3436735,54.9835429 70.5942857,54.2341551 C68.4675918,52.1064816 68.4675918,48.6573388 70.5942857,46.5296653 C72.7219592,44.4019918 76.171102,44.4019918 78.2987755,46.5296653 L78.2987755,46.5296653" id="Path" fill="#2DBC00"></path>
            <path d="M64.3497796,66.9730612 C64.1283918,67.9350204 63.6434939,68.8499592 62.8941061,69.5993469 C60.7664327,71.7270204 57.3172898,71.7270204 55.1896163,69.5993469 C53.0619429,67.4716735 53.0619429,64.0225306 55.1896163,61.8948571 C55.8841469,61.2013061 56.7197388,60.7350204 57.6043102,60.4940408 C57.7933714,60.4421224 57.9853714,60.4 58.178351,60.3696327 C58.3546776,60.3412245 58.5310041,60.3216327 58.7073306,60.3108571 C61.8528,59.6829388 64.8532898,58.1508571 67.2905143,55.7126531 C67.4149224,55.5882449 67.5354122,55.4628571 67.6549224,55.3355102 C67.6990041,55.2718367 67.7489633,55.211102 67.8057796,55.1542857 C67.8381061,55.1209796 67.8723918,55.0906122 67.9076571,55.0622041 C68.4190041,54.6478367 69.1713306,54.6782041 69.6474122,55.1542857 C70.1558204,55.6626939 70.1558204,56.4875102 69.6474122,56.9959184 C69.4622694,57.1663673 69.2790857,57.3407347 69.0988408,57.52 C66.6057796,60.0140408 65.0599837,63.0958367 64.4585143,66.3186939 C64.4467592,66.4284082 64.4320653,66.5381224 64.4134531,66.6478367 C64.3958204,66.7565714 64.3742694,66.8653061 64.3497796,66.9730612 L64.3497796,66.9730612" id="Path" fill="#FFCC00"></path>
        </g>
    </g>
</svg>