<?xml version="1.0" encoding="UTF-8" standalone="no"?>
<svg width="96px" height="96px" viewBox="0 0 96 96" version="1.1" xmlns="http://www.w3.org/2000/svg" xmlns:xlink="http://www.w3.org/1999/xlink">
    <!-- Generator: Sketch 39.1 (31720) - http://www.bohemiancoding.com/sketch -->
    <title>ofm_jd_cart_icon copy</title>
    <desc>Created with Sketch.</desc>
    <defs></defs>
    <g id="Buttonsheet" stroke="none" stroke-width="1" fill="none" fill-rule="evenodd">
        <g id="ofm_jd_cart_icon-copy">
            <g id="Group" transform="translate(16.000000, 10.000000)">
                <path d="M19.3176389,63.7594762 C12.2005903,64.0946905 6.56545139,67.0595952 6.73201389,70.3845952 C6.89677083,73.7086905 12.8022917,76.1334524 19.9184375,75.8000476 C27.0363889,75.4670952 32.6710764,72.5008333 32.5040625,69.1749286 C32.3402083,65.8508333 26.4355903,63.4260714 19.3176389,63.7594762" id="Fill-1" fill="#FFAA00"></path>
                <path d="M45.6782986,63.7594762 C52.7912847,64.0946905 58.4210069,67.0595952 58.25625,70.3845952 C58.0896875,73.7086905 52.1882292,76.1334524 45.0770486,75.8000476 C37.9645139,75.4670952 32.3352431,72.5008333 32.4995486,69.1749286 C32.6647569,65.8508333 38.5657639,63.4260714 45.6782986,63.7594762" id="Fill-2" fill="#FFAA00"></path>
                <path d="M10.2284722,29.2667857 C10.2284722,29.7734524 9.54416667,30.1842143 8.70006944,30.1842143 C7.85552083,30.1842143 7.17121528,29.7734524 7.17121528,29.2667857 C7.17121528,28.7610238 7.85552083,28.3484524 8.70006944,28.3484524 C9.54416667,28.3484524 10.2284722,28.7610238 10.2284722,29.2667857" id="Fill-3" fill="#000000"></path>
                <path d="M57.57375,29.2667857 C57.57375,29.7734524 56.8889931,30.1842143 56.0453472,30.1842143 C55.2017014,30.1842143 54.5173958,29.7734524 54.5173958,29.2667857 C54.5173958,28.7610238 55.2017014,28.3484524 56.0453472,28.3484524 C56.8889931,28.3484524 57.57375,28.7610238 57.57375,29.2667857" id="Fill-4" fill="#000000"></path>
                <path d="M6.42777778,46.3939286 C6.42777778,61.6156429 18.1805903,70.9944048 32.5031597,70.9944048 C46.8266319,70.9944048 58.3000347,61.5238095 58.3000347,46.3939286 C58.3000347,31.4567619 46.6880556,19.3447143 32.361875,19.3447143 C18.0397569,19.3447143 6.42777778,31.4567619 6.42777778,46.3939286" id="Fill-5" fill="#000000"></path>
                <path d="M56.2209375,33.1857619 C56.2209375,33.1857619 69.1897917,46.2441905 63.2743403,58.6299286 C61.3545833,62.3548333 50.9058333,47.7949524 56.2209375,33.1857619" id="Fill-6" fill="#000000"></path>
                <path d="M8.60121528,33.1866667 C8.60121528,33.1866667 -4.11802083,46.2469048 1.68277778,58.6308333 C3.56597222,62.3561905 13.8111458,47.7972143 8.60121528,33.1866667" id="Fill-7" fill="#000000"></path>
                <path d="M11.7984028,48.2505 C11.7984028,60.5299286 19.8182292,69.9498571 32.1054861,69.9498571 C44.3931944,69.9498571 52.3290625,60.5299286 52.3290625,48.2505 C52.3290625,36.5383571 43.5676042,27.6187619 32.0630556,27.6187619 C20.5576042,27.6187619 11.7984028,36.5383571 11.7984028,48.2505" id="Fill-8" fill="#FFFFFF"></path>
                <path d="M56.9255556,25.5350952 C56.5382639,39.1092381 52.7885764,42.3636667 32.4061111,42.3636667 C12.0204861,42.3636667 7.79232639,39.1142143 7.79232639,25.5350952 C7.79232639,10.7128333 18.7908681,0.0402619048 32.3569097,0.0402619048 C45.9274653,0.0402619048 57.3033681,12.2378095 56.9255556,25.5350952" id="Fill-9" fill="#000000"></path>
                <path d="M42.9311458,33.3893333 C37.7117361,36.2180714 36.2609722,37.7177143 32.1578472,37.8647381 C28.0533681,38.0108571 26.6048611,36.2180714 21.3840972,33.3893333 C13.1710764,28.9397143 16.8322917,28.5655952 22.0553125,26.9438095 C25.1545486,25.9820476 29.4134028,25.5115714 32.1578472,25.5115714 C34.9000347,25.5115714 39.1611458,25.9820476 42.2594792,26.9438095 C47.4843056,28.5655952 51.1437153,28.9397143 42.9311458,33.3893333" id="Fill-10" fill="#FFAA00"></path>
                <path d="M44.6017361,29.3979762 C44.6017361,29.3979762 43.0087847,31.8263571 38.6759028,33.5431429 C36.4058681,34.4420238 35.4665278,36.5057857 32.1578472,36.5057857 C28.8496181,36.5057857 27.9044097,34.4546905 25.6393403,33.5431429 C21.3660417,31.8263571 19.7144097,29.3979762 19.7144097,29.3979762 C20.6758681,30.1670238 24.4557986,33.8760952 32.0987153,33.8760952 C39.7452431,33.8760952 43.6402778,30.1670238 44.6017361,29.3979762" id="Fill-11" fill="#AC2B28"></path>
                <path d="M20.8663542,18.4132619 C20.7286806,14.7326905 22.6701042,11.6569524 25.2046528,11.5420476 C27.7360417,11.4289524 29.9,14.3205714 30.0376736,17.9997857 C30.17625,21.6799048 28.2348264,24.7556429 25.7016319,24.8696429 C23.1679861,24.9840952 21.0022222,22.091119 20.8663542,18.4132619" id="Fill-12" fill="#FFFFFF"></path>
                <path d="M33.9290972,18.3435952 C33.9290972,14.6707143 35.9802083,11.6926905 38.5088889,11.6926905 C41.0371181,11.6926905 43.0891319,14.6707143 43.0891319,18.3435952 C43.0891319,22.015119 41.0371181,24.9917857 38.5088889,24.9917857 C35.9802083,24.9917857 33.9290972,22.015119 33.9290972,18.3435952" id="Fill-13" fill="#FFFFFF"></path>
                <path d="M39.7723264,20.0956667 C39.4450694,20.0956667 39.1801042,19.8283095 39.1801042,19.4994286 L39.1801042,19.3614524 C39.1801042,17.8134048 38.5923958,16.6014762 37.8444444,16.6014762 C37.0946875,16.6014762 36.5069792,17.8134048 36.5069792,19.3614524 L36.5069792,19.4994286 C36.5069792,19.8283095 36.2429167,20.0956667 35.9147569,20.0956667 C35.5875,20.0956667 35.3207292,19.8283095 35.3207292,19.4994286 L35.3207292,19.3614524 C35.3207292,17.0357619 36.3607292,15.4103571 37.8444444,15.4103571 C39.3272569,15.4103571 40.3663542,17.0357619 40.3663542,19.3614524 L40.3663542,19.4994286 C40.3663542,19.8283095 40.0991319,20.0956667 39.7723264,20.0956667" id="Fill-14" fill="#000000"></path>
                <path d="M28.8211806,17.7944048 C28.9417014,19.5025952 28.1138542,21.0203333 26.9745486,21.1863571 C25.8334375,21.3519286 24.8114931,20.102 24.6896181,18.3929048 C24.5709028,16.6838095 25.3973958,15.1660714 26.5348958,15.0018571 C27.6778125,14.835381 28.7015625,16.0866667 28.8211806,17.7944048" id="Fill-15" fill="#000000"></path>
                <path d="M27.9897222,17.6966905 C28.0086806,18.2675952 27.6909028,18.7561667 27.2810417,18.7864762 C26.8743403,18.8195 26.5294792,18.3834048 26.5105208,17.8102381 C26.4938194,17.2406905 26.8111458,16.7498571 27.2182986,16.7190952 C27.6277083,16.6887857 27.9716667,17.1257857 27.9897222,17.6966905" id="Fill-16" fill="#FFFFFF"></path>
                <path d="M57.1241667,28.6063095 C57.05375,28.7565 56.9639236,28.923881 56.8533333,29.1057381 C55.1615278,31.7666429 47.3209028,39.0029286 32.3627778,39.0925 C17.4042014,39.0029286 9.56538194,31.7666429 7.873125,29.1057381 C7.76298611,28.923881 7.67361111,28.7565 7.60229167,28.6063095 C7.21274306,28.7958571 7.08725694,29.1672619 6.89496528,30.0819762 C5.76920139,35.473 5.53809028,36.4619048 5.54666667,36.4732143 C6.28107639,37.5991905 7.53006944,38.7821667 9.16996528,39.9280476 C10.9840972,41.243119 13.1372222,42.3908095 15.5061111,43.3457857 C15.1165625,45.4642857 14.6999306,48.5852619 14.6999306,52.2567857 C14.6999306,53.4736905 14.7983333,53.804381 15.2894444,54.3345714 C16.4653125,55.5994286 20.9999653,56.1644524 22.9422917,56.1165 C23.7101042,56.0961429 24.4201389,55.5804286 24.4201389,54.6896905 C24.4201389,52.6829286 24.4093056,48.7146429 24.4020833,45.8759524 C26.8784028,46.3283333 29.4639583,46.5857381 32.0824653,46.5857381 C32.1763542,46.5857381 32.2697917,46.5857381 32.3627778,46.5848333 C32.4557639,46.5857381 32.5496528,46.5857381 32.6435417,46.5857381 C36.2957292,46.5857381 39.8842708,46.0822381 43.2015278,45.252119 C47.9275694,44.1189048 52.2920486,42.2930952 55.5551389,39.9280476 C57.1972917,38.7821667 58.4435764,37.5991905 59.1797917,36.4732143 C59.1888194,36.4619048 58.7396875,34.3501905 57.8301389,30.0819762 C57.6355903,29.1672619 57.5141667,28.7958571 57.1241667,28.6063095 Z" id="Fill-17" fill="#E32B10"></path>
            </g>
        </g>
    </g>
</svg>