<?xml version="1.0" encoding="UTF-8" standalone="no"?>
<svg width="96px" height="96px" viewBox="0 0 96 96" version="1.1" xmlns="http://www.w3.org/2000/svg" xmlns:xlink="http://www.w3.org/1999/xlink">
    <!-- Generator: Sketch 39.1 (31720) - http://www.bohemiancoding.com/sketch -->
    <title>Textsize</title>
    <desc>Created with Sketch.</desc>
    <defs></defs>
    <g id="Buttonsheet" stroke="none" stroke-width="1" fill="none" fill-rule="evenodd">
        <g id="Textsize" fill="#7B8085">
            <path d="M79,66 C79,69.816 77.1493333,73 73,73 L71,73 C68.7906667,73 67,71.2093333 67,69 C67,66.7906667 68.7906667,65 71,65 L79,65 L79,66 Z M88,63 L88,56 L88,56 L88,56 L88,53 C87.6279559,46.0308719 82.8273924,40 74,40 C65.7625093,40 60.3693172,44.7783308 60,52 L60,52 L69,52 C69.0378725,49.751147 70.8762025,48.2061944 74,48 C77.8191362,48.2061944 79.4488646,50.3828832 79,53 L79,56 L79,56 L79,56 L71,56 C64.0200724,56.401913 59,61.4981615 59,69 L59,69 C59,75.9451992 64.093242,80.9972672 71,81 L72,81 C75.0855009,80.9972672 77.9459333,80.1059133 80,79 C80.6695702,80.3709966 80.9386163,81 81,81 L89,81 C89,81 87.6315917,77.3293711 88,63 L88,63 Z M22,56 L28,32 L34,56 L22,56 Z M36,16 L32,16 L24,16 L24,16 L10,73 L6,73 L6,81 L22,81 L22,73 L18,73 L20,65 L37,65 L39,73 L35,73 L35,81 L55,81 L55,73 L51,73 L36,16 Z" id="Page-1"></path>
        </g>
    </g>
</svg>