<?xml version="1.0" encoding="UTF-8" standalone="no"?>
<svg width="96px" height="96px" viewBox="0 0 96 96" version="1.1" xmlns="http://www.w3.org/2000/svg" xmlns:xlink="http://www.w3.org/1999/xlink">
    <!-- Generator: Sketch 39.1 (31720) - http://www.bohemiancoding.com/sketch -->
    <title>star</title>
    <desc>Created with Sketch.</desc>
    <defs>
        <polygon id="path-1" points="0 0 0 72 73 72 73 0 6.10701052e-21 0"></polygon>
    </defs>
    <g id="Buttonsheet" stroke="none" stroke-width="1" fill="none" fill-rule="evenodd">
        <g id="star">
            <g id="Page-1" transform="translate(12.000000, 12.000000)">
                <mask id="mask-2" fill="white">
                    <use xlink:href="#path-1"></use>
                </mask>
                <g id="Clip-2"></g>
                <path d="M53.0899259,45.6165753 L53.6234568,47.1627019 C53.6234568,47.1627019 53.0115185,44.2820191 54.9753086,42.6707593 C54.8631049,42.7525127 54.7581111,42.8297741 54.6567222,42.9052387 L73,26.9489603 L48.6666667,26.9489603 C48.6666667,26.9489603 45.5123457,26.8982014 45.0617284,24.2537948 C45.0784012,24.3535159 45.0937222,24.4447023 45.1090432,24.5372363 L36.4206914,0 L27.9040247,24.4590765 C27.9157407,24.3903498 27.9265556,24.326115 27.9382716,24.2537948 C27.9161914,24.3831627 27.8828457,24.5013008 27.8485988,24.6185405 L27.7589259,24.8754796 C26.9608827,26.8999981 24.3333333,26.9489603 24.3333333,26.9489603 L0,26.9489603 L18.4721543,43.1168092 C19.5234444,44.3435587 19.512179,45.9862621 19.4355741,46.7449512 L11.5664444,71.872878 L34.6790556,56.1829718 L34.2469136,56.5957813 C34.2469136,56.5957813 36.448179,54.9189392 38.7530864,56.5957813 C38.7458765,56.5885942 38.7400185,56.5832039 38.7328086,56.5755676 L61.149216,72 L53.0899259,45.6165753 Z" id="Fill-1" fill="#7B8085" mask="url(#mask-2)"></path>
            </g>
        </g>
    </g>
</svg>