<?xml version="1.0" encoding="UTF-8" standalone="no"?>
<svg width="96px" height="96px" viewBox="0 0 96 96" version="1.1" xmlns="http://www.w3.org/2000/svg" xmlns:xlink="http://www.w3.org/1999/xlink">
    <!-- Generator: Sketch 39.1 (31720) - http://www.bohemiancoding.com/sketch -->
    <title>Mail</title>
    <desc>Created with Sketch.</desc>
    <defs></defs>
    <g id="Buttonsheet" stroke="none" stroke-width="1" fill="none" fill-rule="evenodd">
        <g id="Mail" fill="#7C8085">
            <path d="M87,26 L81,32 C80.87885,32.2779421 80.9,32.483358 81,33 L81,65 C80.9,67.1413754 79.08695,68.9444713 77,69 L20,69 C17.91305,68.9444713 16.1,67.1413754 16,65 L16,33 C16.1,32.483358 16.12115,32.2779421 16,32 L10,26 C8.75645,27.9172158 8,30.2161742 8,33 L8,65 C8,71.5902649 13.4396,77 20,77 L77,77 C83.5604,77 89,71.5902649 89,65 L89,33 C89,30.2161742 88.24355,27.9172158 87,26 M17,22 L24,29 L24,29 L49,53 L73,29 L73,29 L80,22 C80.4863301,21.5195844 80.4822677,21.5178065 80,22 L81,21 L77,21 C77.0003264,21.0022223 76.9687298,21 77,21 L20,21 C20.0317216,21 20.000125,21.0022223 20,21 L16,21 L17,22 C16.5177323,21.5178065 16.5141212,21.5195844 17,22" id="Page-1"></path>
        </g>
    </g>
</svg>