<?xml version="1.0" encoding="UTF-8" standalone="no"?>
<svg width="102px" height="102px" viewBox="0 0 102 102" version="1.1" xmlns="http://www.w3.org/2000/svg" xmlns:xlink="http://www.w3.org/1999/xlink">
    <!-- Generator: Sketch 40.1 (33804) - http://www.bohemiancoding.com/sketch -->
    <title>Combined Shape Copy 2</title>
    <desc>Created with Sketch.</desc>
    <defs></defs>
    <g id="过龙哥后改版0906" stroke="none" stroke-width="1" fill="none" fill-rule="evenodd">
        <g id="图标-copy-4" transform="translate(-2644.000000, -1766.000000)" fill="#FFFFFF">
            <path d="M2716,1819.1445 L2716,1793.49926 C2716,1792.39599 2715.10569,1791.5 2714.00251,1791.5 L2675.99749,1791.5 C2674.89666,1791.5 2674,1792.3951 2674,1793.49926 L2674,1840.50074 C2674,1841.60401 2674.89431,1842.5 2675.99749,1842.5 L2714.00251,1842.5 C2715.10334,1842.5 2716,1841.6049 2716,1840.50074 L2716,1821.95032 L2694.95342,1833.27814 L2694.80099,1833.36002 C2694.61229,1833.44876 2694.39978,1833.5 2694.17425,1833.5 C2693.65235,1833.5 2693.19845,1833.23165 2692.95988,1832.836 L2692.86865,1832.64953 L2689.06687,1824.87273 C2689.0255,1824.78768 2689,1824.69207 2689,1824.5991 C2689,1824.24095 2689.31167,1823.94989 2689.69644,1823.94989 C2689.85284,1823.94989 2689.99677,1823.99796 2690.11294,1824.07878 L2694.59925,1827.05649 C2694.92735,1827.25669 2695.31892,1827.37396 2695.73996,1827.37396 C2695.99099,1827.37396 2696.23069,1827.33012 2696.45396,1827.25458 L2716,1819.1445 Z M2695,1868 C2666.83348,1868 2644,1845.16652 2644,1817 C2644,1788.83348 2666.83348,1766 2695,1766 C2723.16652,1766 2746,1788.83348 2746,1817 C2746,1845.16652 2723.16652,1868 2695,1868 Z M2695,1865 C2668.49033,1865 2647,1843.50967 2647,1817 C2647,1790.49033 2668.49033,1769 2695,1769 C2721.50967,1769 2743,1790.49033 2743,1817 C2743,1843.50967 2721.50967,1865 2695,1865 Z M2681.5,1799 L2696.5,1799 L2696.5,1802 L2681.5,1802 L2681.5,1799 Z M2681.5,1806.5 L2696.5,1806.5 L2696.5,1809.5 L2681.5,1809.5 L2681.5,1806.5 Z" id="Combined-Shape-Copy-2"></path>
        </g>
    </g>
</svg>