<?xml version="1.0" encoding="UTF-8" standalone="no"?>
<svg width="102px" height="102px" viewBox="0 0 102 102" version="1.1" xmlns="http://www.w3.org/2000/svg" xmlns:xlink="http://www.w3.org/1999/xlink">
    <!-- Generator: Sketch 40.1 (33804) - http://www.bohemiancoding.com/sketch -->
    <title>Combined Shape Copy 28</title>
    <desc>Created with Sketch.</desc>
    <defs></defs>
    <g id="过龙哥后改版0906" stroke="none" stroke-width="1" fill="none" fill-rule="evenodd">
        <g id="图标-copy-4" transform="translate(-2644.000000, -2054.000000)" fill="#FFFFFF">
            <path d="M2697.92462,2114.54594 L2690.5,2121.97056 L2692.62132,2124.09188 L2700.04594,2116.66726 L2707.47056,2124.09188 L2709.59188,2121.97056 L2702.16726,2114.54594 L2709.59188,2107.12132 L2707.47056,2105 L2700.04594,2112.42462 L2692.62132,2105 L2690.5,2107.12132 L2697.92462,2114.54594 Z M2695,2156 C2666.83348,2156 2644,2133.16652 2644,2105 C2644,2076.83348 2666.83348,2054 2695,2054 C2723.16652,2054 2746,2076.83348 2746,2105 C2746,2133.16652 2723.16652,2156 2695,2156 Z M2695,2153 C2668.49033,2153 2647,2131.50967 2647,2105 C2647,2078.49033 2668.49033,2057 2695,2057 C2721.50967,2057 2743,2078.49033 2743,2105 C2743,2131.50967 2721.50967,2153 2695,2153 Z M2674,2081.49926 C2674,2080.3951 2674.89666,2079.5 2675.99749,2079.5 L2714.00251,2079.5 C2715.10569,2079.5 2716,2080.39599 2716,2081.49926 L2716,2128.50074 C2716,2129.6049 2715.10334,2130.5 2714.00251,2130.5 L2675.99749,2130.5 C2674.89431,2130.5 2674,2129.60401 2674,2128.50074 L2674,2081.49926 Z M2677,2082.5 L2713,2082.5 L2713,2127.5 L2677,2127.5 L2677,2082.5 Z M2681.5,2087 L2696.5,2087 L2696.5,2090 L2681.5,2090 L2681.5,2087 Z M2681.5,2094.5 L2696.5,2094.5 L2696.5,2097.5 L2681.5,2097.5 L2681.5,2094.5 Z" id="Combined-Shape-Copy-28"></path>
        </g>
    </g>
</svg>