<?xml version="1.0" encoding="UTF-8" standalone="no"?>
<svg width="260px" height="260px" viewBox="0 0 260 260" version="1.1" xmlns="http://www.w3.org/2000/svg" xmlns:xlink="http://www.w3.org/1999/xlink" xmlns:sketch="http://www.bohemiancoding.com/sketch/ns">
    <!-- Generator: Sketch 3.4.4 (17249) - http://www.bohemiancoding.com/sketch -->
    <title>done</title>
    <desc>Created with Sketch.</desc>
    <defs></defs>
    <g id="□-done" stroke="none" stroke-width="1" fill="none" fill-rule="evenodd" sketch:type="MSPage">
        <g id="Artboard-10" sketch:type="MSArtboardGroup" transform="translate(-449.000000, -309.000000)">
            <g id="Fill-3-+-Fill-36" sketch:type="MSLayerGroup" transform="translate(459.000000, 319.000000)">
                <path d="M240,121.481481 C240,53.7244444 186.275556,0 118.518519,0 C53.7244444,0 0,53.7244444 0,121.481481 C0,186.275556 53.7244444,240 118.518519,240 C186.275556,240 240,186.275556 240,121.481481 Z" id="Fill-3" stroke="#FFFFFF" stroke-width="10" sketch:type="MSShapeGroup"></path>
                <path d="M62.8971722,128.897162 C62.320535,128.300371 62.2531864,127.272157 62.745144,126.60276 L67.6787657,119.889675 C68.17144,119.219303 69.1039128,119.084435 69.7678774,119.593326 L100.458438,143.11588 C101.119548,143.622583 102.171676,143.603318 102.812978,143.069061 L178.118745,80.3332663 C178.758011,79.8007057 179.759363,79.846112 180.340687,80.4202254 L184.929544,84.9521657 C185.517423,85.5327524 185.519672,86.4702127 184.927611,87.0528898 L102.719393,167.958055 C102.130447,168.537667 101.192276,168.530696 100.608917,167.926949 L62.8971722,128.897162 Z" id="Fill-36" fill="#FFFFFF" sketch:type="MSShapeGroup"></path>
            </g>
        </g>
    </g>
</svg>