<?xml version="1.0" encoding="UTF-8" standalone="no"?>
<svg width="42px" height="42px" viewBox="0 0 42 42" version="1.1" xmlns="http://www.w3.org/2000/svg" xmlns:xlink="http://www.w3.org/1999/xlink">
    <!-- Generator: Sketch 40.3 (33839) - http://www.bohemiancoding.com/sketch -->
    <title>ChatRoomRejected @3x</title>
    <desc>Created with Sketch.</desc>
    <defs></defs>
    <g id="Slice" stroke="none" stroke-width="1" fill="none" fill-rule="evenodd" opacity="0.4">
        <g id="SLICE" transform="translate(-1491.000000, -387.000000)" fill="#FFFFFF">
            <path d="M1492.76295,389.763212 C1492.50242,389.207477 1492.60065,388.526295 1493.06347,388.063472 C1493.65081,387.476133 1494.60163,387.474686 1495.19007,388.063121 L1501.12694,394 L1523.99258,394 C1525.65353,394 1527,395.343123 1527,397.00793 L1527,416.99207 C1527,417.790262 1526.68766,418.515839 1526.18125,419.054309 L1530.60709,423.480151 C1531.19424,424.067297 1531.19818,425.01531 1530.60674,425.606744 C1530.14693,426.066556 1529.46435,426.167281 1528.90727,425.907004 C1528.83487,425.752573 1528.73477,425.60783 1528.60709,425.480151 L1493.19007,390.063121 C1493.0623,389.935356 1492.91745,389.8354 1492.76295,389.763212 Z M1493.03399,394.160934 C1491.85036,394.565441 1491,395.687295 1491,397.00793 L1491,416.99207 C1491,418.656877 1492.34174,420 1493.99687,420 L1500,420 L1500,426.887526 C1500,428.087629 1500.68354,428.369015 1501.52673,427.520498 L1509,420 L1518.87306,420 L1493.03399,394.160934 Z" id="ChatRoomRejected-@3x"></path>
        </g>
    </g>
</svg>