<?xml version="1.0" encoding="UTF-8"?>
<svg width="48px" height="48px" viewBox="0 0 48 48" version="1.1" xmlns="http://www.w3.org/2000/svg" xmlns:xlink="http://www.w3.org/1999/xlink">
    <!-- Generator: Sketch Beta 47 (45292) - http://www.bohemiancoding.com/sketch -->
    <title>Icons/Dark/mute</title>
    <desc>Created with Sketch Beta.</desc>
    <defs></defs>
    <g id="Demo" stroke="none" stroke-width="1" fill="none" fill-rule="evenodd" opacity="0.300000012">
        <g id="Icons/Dark/mute" fill-rule="nonzero" fill="#000000">
            <g id="common_icons_mute">
                <path d="M37.233664,33.8734915 L44.4014582,41.0412857 L42.7213725,42.7213715 L9.60008678,9.60008578 L11.2801726,7.92 L15.0649799,11.7048073 C16.3694461,10.304305 18.0082244,9.2193362 19.8542455,8.57697023 C19.8185673,8.36328763 19.8,8.14381212 19.8,7.92 C19.8,5.73295239 21.5729524,3.96 23.76,3.96 C25.9470476,3.96 27.72,5.73295239 27.72,7.92 C27.72,8.14381212 27.7014327,8.36328763 27.6657545,8.57697023 C32.3082302,10.1924276 35.64,14.6071256 35.64,19.8 L35.64,27.72 C35.64,29.7711638 36.1712213,31.8223276 37.233664,33.8734915 Z M36.2398274,39.6 L5.94,39.6 C9.9,35.64 11.88,31.68 11.88,27.72 L11.88,19.8 C11.88,18.432533 12.1110431,17.1190291 12.5362225,15.896395 L36.2398274,39.6 Z M21.78,41.58 L25.74,41.58 L25.74,41.9760001 C25.74,43.0695239 24.8535238,43.9560001 23.76,43.9560001 C22.6664762,43.9560001 21.78,43.0695239 21.78,41.9760001 L21.78,41.58 Z" id="Combined-Shape"></path>
            </g>
        </g>
    </g>
</svg>