<?xml version="1.0" encoding="UTF-8"?>
<svg height="60px"
    version="1.1"
    viewBox="0 0 60 60"
    width="60px"
    xmlns="http://www.w3.org/2000/svg">
    <!-- Generator: Sketch 40.1 (33804) - http://www.bohemiancoding.com/sketch -->
    <title>Checkbox_selected_red</title>
    <desc>Created with Sketch.</desc>
    <defs></defs>
    <g
        fill="none"
        fill-rule="evenodd"
        id="Symbols"
        stroke="none"
        stroke-width="1">
        <g id="Checkbox_selected_red">
            <rect
                height="60"
                id="bond"
                width="60"
                x="0"
                y="0"></rect>
            <path
                d="M9,14.3807213 C9,11.409031 11.4040057,9 14.3807213,9 L46.6192787,9 C49.590969,9 52,11.4040057 52,14.3807213 L52,46.6192787 C52,49.590969 49.5959943,52 46.6192787,52 L14.3807213,52 C11.409031,52 9,49.5959943 9,46.6192787 L9,14.3807213 L9,14.3807213 Z"
                fill="#FFFFFF"
                id="Shape"></path>
            <path
                d="M6,12.0063866 C6,8.68915086 8.68354127,6 12.0063866,6 L47.9936134,6 C51.3108491,6 54,8.68354127 54,12.0063866 L54,47.9936134 C54,51.3108491 51.3164587,54 47.9936134,54 L12.0063866,54 C8.68915086,54 6,51.3164587 6,47.9936134 L6,12.0063866 L6,12.0063866 Z M12,32.5769231 L16.2,28.5384615 L25,36.9230769 L43.8,19 L48,23.0384615 L25,45 L12,32.5769231 L12,32.5769231 Z"
                fill="#F1483A"
                id="Shape"></path>
        </g>
    </g>
</svg>