<?xml version="1.0" encoding="UTF-8" standalone="no"?>
<svg width="60px" height="60px" viewBox="0 0 60 60" version="1.1" xmlns="http://www.w3.org/2000/svg" xmlns:xlink="http://www.w3.org/1999/xlink" xmlns:sketch="http://www.bohemiancoding.com/sketch/ns">
    <!-- Generator: Sketch 3.4.2 (15857) - http://www.bohemiancoding.com/sketch -->
    <title>circle_notvisible</title>
    <desc>Created with Sketch.</desc>
    <defs></defs>
    <g id="Page-1" stroke="none" stroke-width="1" fill="none" fill-rule="evenodd" sketch:type="MSPage">
        <g id="circle_notvisible" sketch:type="MSLayerGroup" transform="translate(1.000000, 5.000000)">
            <g id="Page-1" sketch:type="MSShapeGroup">
                <g id="circle_notvisible">
                    <g id="Page-1">
                        <g id="circle_notvisible">
                            <g id="Page-1">
                                <g id="circle_notvisible">
                                    <g id="Page-1">
                                        <g id="circle_notvisible">
                                            <g id="#c0c0c0ff">
                                                <path d="M16,2.03292809 C21.1828255,-0.501803297 27.4719848,-0.501803297 32.9737534,1.12693977 C32.9936874,7.41795984 33.0335553,13.7089799 32.9438525,20 C27.4520509,14.1161657 21.721042,8.4461039 16.0897027,2.69460496 L16,2.03292809 L16,2.03292809 L16,2.03292809 Z" id="Shape" fill="#C0C0C0"></path>
                                                <path d="M35.0449321,2 C40.5054983,4.29135802 45.5051725,8.37037037 48,13.7234568 C44.0724002,17.5753086 40.0546258,21.3580247 36.2973556,25.3777778 C36.0168127,25.5358025 35.4457076,25.8518519 35.1651648,26 C34.8545638,18.0197531 35.0850097,10 35.0449321,2 L35.0449321,2 L35.0449321,2 L35.0449321,2 Z" id="Shape" fill="#C0C0C0"></path>
                                                <path d="M2,15.9854578 C4.32675262,10.5004807 8.49677679,5.32635229 14.0467365,3 C18.3074134,7.36191055 22.6385979,11.6436021 27,15.9052388 C18.6700242,16.0857317 10.3299758,15.9453483 2,15.9854578 L2,15.9854578 L2,15.9854578 L2,15.9854578 Z" id="Shape" fill="#C0C0C0"></path>
                                                <path d="M49.047853,16 C50.5933027,19.07393 50.9898326,22.6050584 51,26 C47.8379285,24.0252918 42.7009454,24.7782888 39,24.8463822 C41.9993925,22.4436585 45.7637723,17.6634241 49.047853,16 L49.047853,16 L49.047853,16 L49.047853,16 Z" id="Shape" fill="#C0C0C0"></path>
                                                <path d="M1.12695716,18.0184362 C7.41456353,17.9892248 13.7123936,17.9989619 20,18.0184362 C13.9884349,23.6367632 8.05865979,29.5472043 2.03687093,35 C-0.22257786,29.6348385 -0.713317869,23.5588661 1.12695716,18.0184362 L1.12695716,18.0184362 L1.12695716,18.0184362 L1.12695716,18.0184362 Z" id="Shape" fill="#C0C0C0"></path>
                                                <path d="M3,36.980186 C7.38348765,32.7242216 11.6365741,28.3368378 15.9398148,24 C16.0200617,32.3299636 16.0200617,40.6700364 15.9398148,49 C10.4930556,46.6748888 5.35725309,42.5200162 3,36.980186 L3,36.980186 L3,36.980186 L3,36.980186 Z" id="Shape" fill="#C0C0C0"></path>
                                                <path d="M18,31 C21.2486188,34.5075218 24.5745856,37.9334733 27.8328729,41.4307987 C28.3356354,44.6120394 29.9792818,47.4873915 32,49.873322 C27.5331492,51.5149238 22.5345304,51.2294278 18.0290055,49.873322 C17.9903315,43.5822147 18.058011,37.2911073 18,31 L18,31 L18,31 L18,31 Z" id="Shape" fill="#C0C0C0"></path>
                                                <g id="#b6b6b6f2" transform="translate(25.000000, 35.000000)" fill="#B6B6B6">
                                                    <path d="M4,0 C3.85564231,0.70270457 3.6088627,2.77183555 3.46450502,3.47454011 L3.46450502,4 C2.6973581,3.25092809 1.22361289,2.13757129 0,0.81001313 C1.22361289,0.54599646 2.34439782,0.22751628 4,0 L4,0 L4,0 L4,0 Z" id="Shape"></path>
                                                </g>
                                            </g>
                                            <g id="#ee7357ff" transform="translate(28.000000, 24.000000)" fill="#EE7357">
                                                <path d="M15,30 C23.2842712,30 30,23.2842712 30,15 C30,6.71572875 23.2842712,0 15,0 C6.71572875,0 0,6.71572875 0,15 C0,23.2842712 6.71572875,30 15,30 L15,30 L15,30 L15,30 Z M6,12 L24,12 L24,18 L6,18 L6,12 L6,12 L6,12 Z" id="Shape"></path>
                                            </g>
                                        </g>
                                    </g>
                                </g>
                            </g>
                        </g>
                    </g>
                </g>
            </g>
        </g>
    </g>
</svg>