<?xml version="1.0" encoding="UTF-8" standalone="no"?>
<svg width="108px" height="108px" viewBox="0 0 108 108" version="1.1" xmlns="http://www.w3.org/2000/svg" xmlns:xlink="http://www.w3.org/1999/xlink" xmlns:sketch="http://www.bohemiancoding.com/sketch/ns">
    <!-- Generator: Sketch 3.3.3 (12081) - http://www.bohemiancoding.com/sketch -->
    <title>Android 3X</title>
    <desc>Created with Sketch.</desc>
    <defs></defs>
    <g id="Page-1" stroke="none" stroke-width="1" fill="none" fill-rule="evenodd" sketch:type="MSPage">
        <g id="Android-3X" sketch:type="MSArtboardGroup">
            <g id="Fill-22-+-Path-29-Copy" sketch:type="MSLayerGroup">
                <path d="M0,0 L108,0 L108,108 L0,108 L0,0 Z" id="Fill-22" fill="#45C01A" sketch:type="MSShapeGroup"></path>
                <path d="M47,61 C53.4459663,67.1155586 59.4041274,69.9839704 62,70 C63.8108341,69.6480232 69.2977983,65.9782379 72,66 C73.1330121,66.0505596 81.2681665,71.4012949 82,72 C83.237688,72.6385606 84.1507791,73.3612004 84,74 C83.8073953,75.1900613 80.2320886,85.2624916 71,84 C61.9765851,82.4728906 49.2512237,72.9032044 42,66 L47,61 L47,61 Z M47,61 C40.8844414,54.5540337 38.0160296,48.5958726 38,46 C38.3519768,44.1891659 42.0217621,38.7022017 42,36 C41.9494404,34.8669879 36.5987051,26.7318335 36,26 C35.3614394,24.762312 34.6387996,23.8492209 34,24 C32.8099387,24.1926047 22.7375084,27.7679114 24,37 C25.5271094,46.0234149 35.0967956,58.7487763 42,66 L47,61 L47,61 Z" id="Path-29" fill="#FFFFFF" sketch:type="MSShapeGroup"></path>
            </g>
        </g>
    </g>
</svg>