<?xml version="1.0" encoding="UTF-8" standalone="no"?>
<svg width="144px" height="144px" viewBox="0 0 144 144" version="1.1" xmlns="http://www.w3.org/2000/svg" xmlns:xlink="http://www.w3.org/1999/xlink">
    <!-- Generator: Sketch 40.3 (33839) - http://www.bohemiancoding.com/sketch -->
    <title>default_officialaccount_msg</title>
    <desc>Created with Sketch.</desc>
    <defs>
        <rect id="path-1" x="0" y="0" width="144" height="144"></rect>
        <rect id="path-3" x="0" y="0" width="144" height="144"></rect>
    </defs>
    <g id="icon调整0827" stroke="none" stroke-width="1" fill="none" fill-rule="evenodd">
        <g id="default_officialaccount_msg">
            <mask id="mask-2" fill="white">
                <use xlink:href="#path-1"></use>
            </mask>
            <use id="Mask" fill="#2782D7" xlink:href="#path-1"></use>
            <path d="M61.6211921,73.147294 C66.1887195,80.180103 59.1407794,83.2334164 55.7399683,85.1722242 C43.5335402,92.1340258 38,94.8323028 38,98.4536746 L38,102.981676 C38,104.666298 39.1515116,106 40.9568303,106 L103.04317,106 C104.848488,106 106,104.666298 106,102.981676 L106,98.4536746 C106,94.8323028 100.46646,92.1340258 88.2600317,85.1722242 C84.8592206,83.2334164 77.8112805,80.180103 82.3788079,73.147294 C85.8262471,67.8382128 88.7678726,65.5577468 88.7678726,56.6036247 C88.7678726,47.3109316 82.1963512,38 72,38 C61.8036488,38 55.2321274,47.3109316 55.2321274,56.6036247 C55.2321274,65.5577468 58.1737529,67.8382128 61.6211921,73.147294 Z M66,97.8566326 L71.5,105 L77,97.8566326 L71.5,80 L66,97.8566326 Z" id="Path-2" fill="#FFFFFF" mask="url(#mask-2)"></path>
            <g id="Bitmap" mask="url(#mask-2)">
                <mask id="mask-4" fill="white">
                    <use xlink:href="#path-3"></use>
                </mask>
                <use id="Mask" fill="#029400" xlink:href="#path-3"></use>
                <g id="Fill-85-Copy-+-Fill-85-Copy-2" mask="url(#mask-4)" fill="#FAFAFA">
                    <g transform="translate(31.000000, 39.000000)">
                        <path d="M32,44 L32,53.6773065 C32,56.0646642 33.9252298,58 36.3102788,58 L61,58 L69.3149443,64.6519554 C70.2455748,65.3964599 71,65.0350131 71,63.8350848 L71,58 L77.6840801,58 C80.0676969,58 82,56.0659839 82,53.6773065 L82,23.3226935 C82,20.9353358 80.0705776,19 77.6720469,19 L57,19 L57,39.6724317 C57,42.0624817 55.062814,44 52.6832167,44 L32,44 Z" id="Fill-85-Copy"></path>
                        <path d="M49.6722351,0 C52.0623937,0 54,1.93620641 54,4.31022622 L54,36.6897738 C54,39.070246 52.0608112,41 49.6895828,41 L23,41 L13.6706632,48.6330937 C12.7479814,49.3880152 12,49.0368423 12,47.8442758 L12,41 L4.31532171,41 C1.93203534,41 0,39.0637936 0,36.6897738 L0,4.31022622 C0,1.92975401 1.93780973,0 4.3277649,0 L49.6722351,0 Z" id="Fill-85-Copy-2"></path>
                    </g>
                </g>
            </g>
        </g>
    </g>
</svg>