<?xml version="1.0" encoding="UTF-8" standalone="no"?>
<svg width="192px" height="192px" viewBox="0 0 192 192" version="1.1" xmlns="http://www.w3.org/2000/svg" xmlns:xlink="http://www.w3.org/1999/xlink" xmlns:sketch="http://www.bohemiancoding.com/sketch/ns">
    <!-- Generator: Sketch 3.3 (11970) - http://www.bohemiancoding.com/sketch -->
    <title>default_googlecontact</title>
    <desc>Created with Sketch.</desc>
    <defs></defs>
    <g id="模块/插件" stroke="none" stroke-width="1" fill="none" fill-rule="evenodd" sketch:type="MSPage">
        <g id="default_googlecontact" sketch:type="MSArtboardGroup">
            <rect id="Rectangle-38" stroke="#F3F3F3" stroke-width="3" fill="#FFFFFF" sketch:type="MSShapeGroup" x="0" y="0" width="192" height="192"></rect>
            <path d="M140,87 L122,87 L122,95 L140,95 L140,113 L148,113 L148,95 L166,95 L166,87 L148,87 L148,69 L140,69 L140,87 Z M96.3125403,40.2093952 C101.09022,43.6906643 104.686759,48.5253865 106.36096,54.3640168 C107.893098,59.7072176 107.614387,65.1905496 105.864618,70.2857852 L105.864618,70.2857852 C104.484921,75.0301088 101.483688,81.012548 95,86 C81.9999991,96 99.0000009,106 99,106 C118,124 112,135 112,135 C112,150 90,163 72.5,162 C48,162 34,156.527065 34,136.527065 C34,122.719947 51.2370371,111 72.5,111 C74.5443749,111 76.5607772,111.083199 78.5356872,111.246929 C76.7557338,109.66964 74.5688607,106.982025 74,103 C73.2528276,97.7697931 74.7387217,94.214386 75.5378323,92.7509002 C60.4217962,94.1320928 46.477638,86.0227643 42.6390403,72.6359832 C38.2143809,57.2053622 48.8921234,40.6060534 66.4884455,35.5603892 C70.8789303,34.3014379 75.2853034,33.8807222 79.4950332,34.1980133 L79,34 L116,34 C116,34 111,39 107,40 C104.282,40.6795001 99.2553979,40.4355595 96.3125403,40.2093952 L96.3125403,40.2093952 Z M100.480761,130.738249 C100.825115,132.252669 101,133.844775 101,135.5 C101,147.374122 92,157 75,155 C58,153 49,146.874122 49,135 C49,123.125878 60,115 76,115 C79.3517388,115 82.3962936,115.378533 85.115279,116.086163 C89.2934971,119.023775 96.6314051,124.699261 100.480761,130.738249 L100.480761,130.738249 Z M82.1660886,87.4166881 C91.3228552,84.6171836 95.5419563,71.8681707 91.5897147,58.9409709 C87.6374731,46.013771 77.0105222,37.8036517 67.8537556,40.6031562 C58.696989,43.4026607 54.4778879,56.1516735 58.4301296,69.0788734 C62.3823712,82.0060733 73.0093221,90.2161926 82.1660886,87.4166881 Z" id="Oval-9" fill="#DD4B39" sketch:type="MSShapeGroup"></path>
        </g>
    </g>
</svg>