<?xml version="1.0" encoding="UTF-8" standalone="no"?>
<svg width="192px" height="192px" viewBox="0 0 192 192" version="1.1" xmlns="http://www.w3.org/2000/svg" xmlns:xlink="http://www.w3.org/1999/xlink" xmlns:sketch="http://www.bohemiancoding.com/sketch/ns">
    <!-- Generator: Sketch 3.3 (11970) - http://www.bohemiancoding.com/sketch -->
    <title>default_shake</title>
    <desc>Created with Sketch.</desc>
    <defs></defs>
    <g id="模块/插件" stroke="none" stroke-width="1" fill="none" fill-rule="evenodd" sketch:type="MSPage">
        <g id="default_shake" sketch:type="MSArtboardGroup">
            <g id="Group" sketch:type="MSLayerGroup">
                <rect id="Rectangle-127" fill="#2782D7" sketch:type="MSShapeGroup" x="0" y="0" width="192" height="192"></rect>
                <path d="M67.5229502,44.723057 C62.305768,46.1450991 59.2086807,51.5964554 60.6035117,56.8917869 L84.8916208,149.09908 C86.2873027,154.397641 91.6122388,157.549953 96.8652705,156.118139 L143.41838,143.429205 C148.635562,142.007162 151.732649,136.555806 150.337818,131.260475 L126.049709,39.0531819 C124.654027,33.7546201 119.329091,30.6023087 114.076059,32.0341223 L67.5229502,44.723057 L67.5229502,44.723057 Z" id="Rectangle-131" stroke="#FFFFFF" stroke-width="9" sketch:type="MSShapeGroup"></path>
                <path d="M91.6791888,139.068165 C87.2089797,140.27697 84.5612847,144.933354 85.7599377,149.447931 L85.7599377,149.447931 C86.9610346,153.971712 91.5829806,156.652421 96.0287456,155.450226 L144.264035,142.40675 C148.734244,141.197945 151.381939,136.541561 150.183286,132.026985 L150.183286,132.026985 C148.98219,127.503203 144.360244,124.822494 139.914479,126.024689 L91.6791888,139.068165 L91.6791888,139.068165 Z" id="Rectangle-132" fill="#FFFFFF" sketch:type="MSShapeGroup"></path>
                <path d="M57.1904886,71.9927928 C60.6046978,68.4472271 62.6168453,66.2068966 72.6873644,66.2068966 C82.7578834,66.2068965 95.2416955,77.2594947 95.2416955,77.2594947 C95.2416955,77.2594947 94.2975192,83.8363298 87.078504,85.5878902 C79.8622989,87.3422803 68.7076419,84.2996924 68.7076419,84.2996924 L82.7578855,139.621701 C82.7578855,139.621701 63.3938398,167.918316 54.8681519,159.992434 C49.8465949,155.323493 41.5344708,148.982221 34.6358012,142.952213 C30.8928163,139.681124 29.3669598,136.37608 33.877088,132.991805 C42.3971557,126.605259 59.4791047,112.16973 59.7938302,108.07238 C60.243438,102.271574 53.4137831,95.4054116 53.4137831,88.6849657 C53.4137831,81.9277342 53.7734694,75.5383586 57.1904886,71.9927928 Z M123.780354,62.3775791 C120.042902,63.3790262 117.827785,67.2313064 118.828194,70.9648847 C119.830643,74.7060755 123.675086,76.9265422 127.410543,75.9256297 L141.11109,72.2545791 C144.848541,71.2531321 147.063659,67.4008518 146.063249,63.6672736 C145.0608,59.9260827 141.216357,57.705616 137.480901,58.7065286 L123.780354,62.3775791 Z M127.410543,75.9256297 C123.673091,76.9270767 121.457974,80.7793569 122.458383,84.5129352 C123.460832,88.2541261 127.305275,90.4745928 131.040732,89.4736802 L144.741279,85.8026297 C148.47873,84.8011826 150.693848,80.9489024 149.693439,77.2153241 C148.69099,73.4741333 144.846546,71.2536666 141.11109,72.2545791 L127.410543,75.9256297 Z M131.040732,89.4736802 C127.303281,90.4751273 125.088163,94.3274075 126.088572,98.0609858 C127.091021,101.802177 130.935465,104.022643 134.670921,103.021731 L148.371468,99.3506802 C152.10892,98.3492332 154.324037,94.4969529 153.323628,90.7633747 C152.321179,87.0221838 148.476736,84.8017171 144.741279,85.8026297 L131.040732,89.4736802 Z M140.125118,101.560283 C136.383698,102.562794 134.165363,106.415936 135.165773,110.149514 C136.168222,113.890705 140.010402,116.111778 143.755307,115.108334 L151.994472,112.900656 C155.735892,111.898146 157.954226,108.045003 156.953817,104.311425 C155.951368,100.570234 152.109188,98.3491612 148.364282,99.3526057 L140.125118,101.560283 Z" id="Shape" fill="#FFFFFF" sketch:type="MSShapeGroup"></path>
            </g>
        </g>
    </g>
</svg>