<?xml version="1.0" encoding="UTF-8" standalone="no"?>
<svg width="192px" height="192px" viewBox="0 0 192 192" version="1.1" xmlns="http://www.w3.org/2000/svg" xmlns:xlink="http://www.w3.org/1999/xlink" xmlns:sketch="http://www.bohemiancoding.com/sketch/ns">
    <!-- Generator: Sketch 3.3 (11970) - http://www.bohemiancoding.com/sketch -->
    <title>default_linkedin</title>
    <desc>Created with Sketch.</desc>
    <defs></defs>
    <g id="模块/插件" stroke="none" stroke-width="1" fill="none" fill-rule="evenodd" sketch:type="MSPage">
        <g id="default_linkedin" sketch:type="MSArtboardGroup">
            <rect id="Rectangle-137" fill="#007DB8" sketch:type="MSShapeGroup" x="0" y="0" width="192" height="192"></rect>
            <path d="M100.363636,132.431812 L100.363636,148.363636 L78.5454545,148.363636 L78.5454545,74.1818182 L100.363636,74.1818182 L100.363636,81.3188667 C106.079594,75.9888135 113.749793,72.7272727 122.181818,72.7272727 C139.85523,72.7272727 154.181818,87.0557433 154.181818,104.727273 C154.181818,105.214749 154.170919,105.699679 154.14935,106.181833 L154.181818,106.181818 L154.181818,149.818182 L132.363636,149.818182 L132.363636,135.900365 L132.363636,112 L132.298585,112 C132.341587,111.520935 132.363636,111.035774 132.363636,110.545455 C132.363636,101.709455 125.199636,94.5454545 117.304813,94.5454545 C107.527636,94.5454545 100.363636,101.709455 100.363636,110.545455 C100.363636,111.035774 100.385686,111.520935 100.429009,112 L100.363636,112 L100.363636,132.431812 L100.363636,132.431812 Z M42.1818182,74.1818182 L64,74.1818182 L64,148.363636 L42.1818182,148.363636 L42.1818182,74.1818182 Z M66.9090909,50.9090909 C66.9090909,58.9425455 60.3970909,65.4545455 52.3636364,65.4545455 C44.3301818,65.4545455 37.8181818,58.9425455 37.8181818,50.9090909 C37.8181818,42.8756364 44.3301818,36.3636364 52.3636364,36.3636364 C60.3970909,36.3636364 66.9090909,42.8756364 66.9090909,50.9090909 Z" id="Path" fill="#FFFFFF" sketch:type="MSShapeGroup"></path>
        </g>
    </g>
</svg>