<?xml version="1.0" encoding="UTF-8" standalone="no"?>
<svg width="192px" height="192px" viewBox="0 0 192 192" version="1.1" xmlns="http://www.w3.org/2000/svg" xmlns:xlink="http://www.w3.org/1999/xlink" xmlns:sketch="http://www.bohemiancoding.com/sketch/ns">
    <!-- Generator: Sketch 3.3 (11970) - http://www.bohemiancoding.com/sketch -->
    <title>default_qqsync</title>
    <desc>Created with Sketch.</desc>
    <defs></defs>
    <g id="模块/插件" stroke="none" stroke-width="1" fill="none" fill-rule="evenodd" sketch:type="MSPage">
        <g id="default_qqsync" sketch:type="MSArtboardGroup">
            <rect id="Rectangle-141" fill="#45C01A" sketch:type="MSShapeGroup" x="0" y="0" width="192" height="192"></rect>
            <path d="M160.650681,95.2750088 L168.36555,95.2750088 C169.472097,95.2750088 169.833169,94.5596044 169.171297,93.6771084 L156.29542,76.5092728 C155.631604,75.6241848 154.560442,75.6267768 153.89857,76.5092728 L141.022693,93.6771084 C140.358877,94.5621964 140.721566,95.2750088 141.82844,95.2750088 L148.962369,95.2750088 C148.961149,125.298168 124.889654,149.636364 95.1961352,149.636364 C80.873624,149.636364 67.466958,143.96438 57.4663058,134.003287 C55.2230224,136.429776 53.4674928,138.00111 49.263693,142.422496 C61.0798706,154.191933 77.2991861,161.454545 95.1961352,161.454545 C131.34493,161.454545 160.649461,131.825169 160.650681,95.2750088 L160.650681,95.2750088 Z M23.2045111,98.3274546 C22.5426391,97.4449586 22.9037108,96.7295542 24.0102584,96.7295542 L50.5473677,96.7295542 C51.6542417,96.7295542 52.0169311,97.4423666 51.353115,98.3274546 L38.4772383,115.49529 C37.8153663,116.377786 36.7442038,116.380378 36.0803878,115.49529 L23.2045111,98.3274546 Z M42.2507059,96.7272727 C42.2507059,66.7030654 66.3226687,42.3636364 96.0169397,42.3636364 C110.339451,42.3636364 123.746117,48.0356199 133.746769,57.9967131 C135.990053,55.5702237 137.745582,53.9988903 141.949382,49.577504 C130.133204,37.8080669 113.913889,30.5454545 96.0169397,30.5454545 C59.8673925,30.5454545 30.5623943,60.1760638 30.5623943,96.7272727 L36.4065501,96.7272727 L42.2507059,96.7272727 Z M81.123719,81.4429711 C81.123719,89.4873161 83.7664627,91.536077 86.8636273,96.3057329 C90.9670744,102.623978 84.6352352,105.367062 81.5799611,107.108879 C70.6137583,113.363331 65.6424494,115.787452 65.6424494,119.040877 L65.6424494,123.108814 C65.6424494,124.622271 66.6769625,125.820463 68.2988531,125.820463 L124.076955,125.820463 C125.698845,125.820463 126.733359,124.622271 126.733359,123.108814 L126.733359,119.040877 C126.733359,115.787452 121.76205,113.363331 110.795847,107.108879 C107.740573,105.367062 101.408734,102.623978 105.512181,96.3057329 C108.609345,91.536077 111.252089,89.4873161 111.252089,81.4429711 C111.252089,73.0944553 105.348262,64.7295542 96.187904,64.7295542 C87.0275457,64.7295542 81.123719,73.0944553 81.123719,81.4429711 Z" id="Fill-10" fill="#FFFFFF" sketch:type="MSShapeGroup"></path>
        </g>
    </g>
</svg>