<?xml version="1.0" encoding="UTF-8" standalone="no"?>
<svg width="192px" height="192px" viewBox="0 0 192 192" version="1.1" xmlns="http://www.w3.org/2000/svg" xmlns:xlink="http://www.w3.org/1999/xlink" xmlns:sketch="http://www.bohemiancoding.com/sketch/ns">
    <!-- Generator: Sketch 3.3 (11970) - http://www.bohemiancoding.com/sketch -->
    <title>default_qmessage</title>
    <desc>Created with Sketch.</desc>
    <defs></defs>
    <g id="模块/插件" stroke="none" stroke-width="1" fill="none" fill-rule="evenodd" sketch:type="MSPage">
        <g id="default_qmessage" sketch:type="MSArtboardGroup">
            <g id="Rectangle-17-+-Imported-Layers-3" sketch:type="MSLayerGroup">
                <rect id="Rectangle-17" fill="#18B4ED" sketch:type="MSShapeGroup" x="0" y="0" width="192" height="192"></rect>
                <path d="M142.545455,100.831314 C139.216346,92.1810581 135.365916,85.4122117 136.125392,75.0643057 C134.937214,54.3058763 117.50597,36.5975017 97.6050157,36.4137931 C74.4945639,36.5975017 57.06332,54.3058763 55.8746082,75.0643057 C56.6317507,85.4122117 52.7813205,92.1810581 49.4545455,100.831314 C40.5317764,114.370788 42.7921388,131.660676 46.2445141,133.040075 C48.9373423,131.660676 53.5039482,128.932709 59.0846395,123.377446 C59.0469619,129.886008 62.2149103,134.896501 65.5047022,139.481827 C60.4133592,140.688641 56.32277,143.902478 55.8746082,145.923579 C56.7521886,152.38712 65.8051085,156.042851 75.1347962,155.586207 C85.1913185,155.149133 92.27135,152.361585 94.3949843,149.144455 C95.2729793,148.797355 95.6235398,148.818634 97.6050157,149.144455 C96.3877473,148.818634 96.7469105,148.797355 97.6050157,149.144455 C99.7528413,152.361585 106.822119,155.149133 116.865204,155.586207 C126.196142,156.042851 135.246194,152.38712 136.125392,145.923579 C135.677047,143.901059 131.587175,140.688641 126.495298,139.481827 C129.789208,134.896501 132.949271,129.890973 132.915361,123.377446 C138.502321,128.934837 143.061041,131.660676 145.755486,133.040075 C149.209829,131.660676 151.468757,114.370788 142.545455,100.831314" id="Imported-Layers-3" fill="#FFFFFF" sketch:type="MSShapeGroup"></path>
            </g>
        </g>
    </g>
</svg>