<?xml version="1.0" encoding="UTF-8"?>
<svg width="72px" height="72px" viewBox="0 0 72 72" version="1.1" xmlns="http://www.w3.org/2000/svg" xmlns:xlink="http://www.w3.org/1999/xlink">
    <!-- Generator: Sketch 52.2 (67145) - http://www.bohemiancoding.com/sketch -->
    <title>Icons_Outlined_like_nor</title>
    <desc>Created with Sketch.</desc>
    <g id="Icons_Outlined_like_nor" stroke="none" stroke-width="1" fill="none" fill-rule="evenodd" fill-opacity="0.9">
        <g id="common_icons_like" transform="translate(9.000000, 15.000000)" fill="#000000">
            <path d="M48.8539157,22.9352858 C53.1862668,18.4702556 53.1356938,11.3446116 48.7300649,6.93898269 C44.2780879,2.48700577 37.0600072,2.48700577 32.6080303,6.93898269 C32.0312358,7.51577718 31.2996189,8.22149923 30.4098413,9.05983559 L27.9411255,11.385826 L25.4724097,9.05983559 C24.5826321,8.22149923 23.8510152,7.51577718 23.2742207,6.93898269 C18.8222438,2.48700577 11.6041631,2.48700577 7.15218613,6.93898269 C2.74661131,11.3445575 2.69574944,18.4706111 6.98902086,22.897852 L27.940998,43.8500468 L48.8539157,22.9352858 Z M4.60660172,4.39339828 C10.4644661,-1.46446609 19.9619408,-1.46446609 25.8198052,4.39339828 C26.3682253,4.9418184 27.0753321,5.62389786 27.9411255,6.43963666 C28.8069189,5.62389786 29.5140257,4.9418184 30.0624458,4.39339828 C35.9203102,-1.46446609 45.4177849,-1.46446609 51.2756493,4.39339828 C57.0790239,10.1967729 57.1330068,19.5723615 51.437598,25.4421935 L30.0624458,46.8198051 C28.8909343,47.9914393 26.9914393,47.9915387 25.8198052,46.8200272 L4.44342323,25.4434232 C-1.25075579,19.5723615 -1.19677288,10.1967729 4.60660172,4.39339828 Z" id="图标颜色"></path>
        </g>
    </g>
</svg>