<?xml version="1.0" encoding="UTF-8" standalone="no"?>
<svg width="135px" height="135px" viewBox="0 0 135 135" version="1.1" xmlns="http://www.w3.org/2000/svg" xmlns:xlink="http://www.w3.org/1999/xlink" xmlns:sketch="http://www.bohemiancoding.com/sketch/ns">
    <!-- Generator: Sketch 3.3.3 (12072) - http://www.bohemiancoding.com/sketch -->
    <title>fav_search_pic</title>
    <desc>Created with Sketch.</desc>
    <defs></defs>
    <g id="Page-1" stroke="none" stroke-width="1" fill="none" fill-rule="evenodd" sketch:type="MSPage">
        <g id="#5e6971ff" sketch:type="MSLayerGroup" fill="#5E6971">
            <path d="M63.94,0 L70.81,0 C86.67,0.91 102.18,7.35 113.71,18.32 C126.37,30.04 133.96,46.78 135,63.96 L135,70.81 C134.04,88.09 126.4,104.93 113.68,116.71 C102.22,127.61 86.83,134.01 71.08,135 L64.17,135 C48.32,134.09 32.82,127.65 21.3,116.69 C8.63,104.98 1.05,88.23 0,71.06 L0,64.21 C0.96,46.94 8.58,30.08 21.3,18.31 C32.77,7.4 48.18,0.99 63.94,0 L63.94,0 Z M57.48,3.78 C40.34,6.39 24.51,16.32 14.64,30.56 C5.98,42.81 1.91,58.16 3.25,73.09 C4.37,86.66 9.99,99.8 19.01,110.01 C29.36,121.91 44.22,129.77 59.9,131.54 C73.73,133.21 88.08,130.26 100.07,123.17 C112.84,115.73 122.91,103.76 128,89.88 C133.43,75.31 133.31,58.76 127.67,44.26 C121.81,28.94 109.83,16.09 94.97,9.14 C83.39,3.63 70.14,1.8 57.48,3.78 L57.48,3.78 Z" id="Shape" sketch:type="MSShapeGroup"></path>
            <path d="M39.32,45.3 C40.83,44.79 42.47,45.06 44.03,44.98 C60.06,45.04 76.09,44.96 92.11,45.02 C93.76,44.78 95.27,46.26 94.99,47.92 C95.01,60.63 95.01,73.34 94.99,86.06 C95.26,87.75 93.75,89.25 92.06,88.98 C75.02,89.01 57.98,89.01 40.94,88.98 C39.28,89.24 37.73,87.77 38.02,86.09 C37.97,73.72 38.03,61.34 37.99,48.96 C37.98,47.67 37.9,45.94 39.32,45.3 L39.32,45.3 Z M43,50 L43,73.62 C46.44,68.93 50.54,64.63 55.48,61.5 C57.29,60.32 59.61,59.41 61.69,60.53 C68.61,63.77 71.39,71.39 76.27,76.76 C75.33,74.74 74.33,72.75 73.33,70.77 C75.67,69.26 77.98,66.88 80.96,67.06 C85.06,68.1 87.56,71.89 90.01,75.03 C89.98,66.69 90.01,58.34 90,50 L43,50 L43,50 Z" id="Shape" sketch:type="MSShapeGroup"></path>
        </g>
    </g>
</svg>