<?xml version="1.0" encoding="UTF-8" standalone="no"?>
<svg width="135px" height="135px" viewBox="0 0 135 135" version="1.1" xmlns="http://www.w3.org/2000/svg" xmlns:xlink="http://www.w3.org/1999/xlink" xmlns:sketch="http://www.bohemiancoding.com/sketch/ns">
    <!-- Generator: Sketch 3.3.3 (12072) - http://www.bohemiancoding.com/sketch -->
    <title>fav_search_voice_pressed</title>
    <desc>Created with Sketch.</desc>
    <defs></defs>
    <g id="Page-1" stroke="none" stroke-width="1" fill="none" fill-rule="evenodd" sketch:type="MSPage">
        <g id="#737f88ff" sketch:type="MSLayerGroup" fill="#737F88">
            <path d="M63.99,0 L70.69,0 C86.82,0.87 102.6,7.52 114.2,18.79 C126.58,30.49 133.98,47.03 135,63.99 L135,70.31 C134.21,87.99 126.31,105.25 113.19,117.17 C101.77,127.81 86.56,134.04 71.02,135 L64.24,135 C48.36,134.12 32.82,127.66 21.28,116.67 C8.47,104.8 0.8,87.76 0,70.34 L0,64.32 C0.92,47.02 8.54,30.13 21.28,18.33 C32.76,7.39 48.2,0.97 63.99,0 L63.99,0 Z M71.49,36.65 C68.92,37.77 68.74,41.46 70.85,43.14 C77.99,50.46 82.01,60.92 80.79,71.16 C79.99,79.17 75.99,86.56 70.51,92.35 C67.88,95.4 72.51,100.2 75.63,97.54 C84.15,89.54 88.9,77.7 88.47,66.03 C88.12,55.26 83.3,44.81 75.62,37.32 C74.59,36.21 72.83,35.99 71.49,36.65 L71.49,36.65 Z M59.31,46.29 C56.61,47.98 57.55,51.65 59.81,53.25 C67.48,60.25 68.05,73.25 60.75,80.72 C58.94,82.47 56.3,84.97 58.29,87.62 C59.72,89.79 63,89.59 64.51,87.62 C70.09,82.35 73.71,74.82 73.47,67.07 C73.45,59.15 69.42,51.65 63.57,46.48 C62.43,45.43 60.57,45.5 59.31,46.29 L59.31,46.29 Z M46.47,61.53 C48.7,62.97 51.32,65.05 50.98,68.04 C50.69,70.67 48.28,72.17 46.36,73.61 C45.64,77 49.16,79.97 52.29,78.28 C57.89,75.01 60.42,67 56.77,61.38 C55.09,58.85 52.6,55.46 49.12,56.41 C46.82,56.97 46.19,59.46 46.47,61.53 L46.47,61.53 Z" id="Shape" sketch:type="MSShapeGroup"></path>
        </g>
    </g>
</svg>