<?xml version="1.0" encoding="UTF-8" standalone="no"?>
<svg width="84px" height="84px" viewBox="0 0 84 84" version="1.1" xmlns="http://www.w3.org/2000/svg" xmlns:xlink="http://www.w3.org/1999/xlink" xmlns:sketch="http://www.bohemiancoding.com/sketch/ns">
    <!-- Generator: Sketch 3.3.3 (12072) - http://www.bohemiancoding.com/sketch -->
    <title>fav_addtab_pressed</title>
    <desc>Created with Sketch.</desc>
    <defs></defs>
    <g id="Page-1" stroke="none" stroke-width="1" fill="none" fill-rule="evenodd" sketch:type="MSPage">
        <g id="#3f3f3fff" sketch:type="MSLayerGroup" transform="translate(11.000000, 11.000000)" fill="#3F3F3F">
            <path d="M35.22,1.24 C37.07,0.38 38.78,1.74 39.99,3.02 C46.3,9.37 52.64,15.71 59,22.03 C60.28,23.24 61.63,24.96 60.75,26.81 C59.45,28.82 57.57,30.34 55.92,32.03 C46.93,41.02 37.93,50 28.97,59.01 C27.92,60.06 26.73,61.17 25.11,60.97 C18.37,61.03 11.64,61.03 4.91,60.97 C2.69,61.26 0.76,59.27 1.03,57.08 C0.97,50.36 0.97,43.63 1.03,36.91 C0.83,35.27 1.97,34.09 3.01,33.02 C12.02,24.05 21,15.05 29.99,6.06 C31.69,4.41 33.2,2.52 35.22,1.24 L35.22,1.24 Z M16.19,38.29 C12.01,39.42 10.56,45.34 13.77,48.25 C16.68,51.44 22.61,49.99 23.71,45.81 C25.36,41.43 20.56,36.65 16.19,38.29 L16.19,38.29 Z" id="Shape" sketch:type="MSShapeGroup"></path>
        </g>
    </g>
</svg>