<?xml version="1.0" encoding="UTF-8" standalone="no"?>
<svg width="135px" height="135px" viewBox="0 0 135 135" version="1.1" xmlns="http://www.w3.org/2000/svg" xmlns:xlink="http://www.w3.org/1999/xlink" xmlns:sketch="http://www.bohemiancoding.com/sketch/ns">
    <!-- Generator: Sketch 3.0.4 (8054) - http://www.bohemiancoding.com/sketch -->
    <title>fav_search_url</title>
    <desc>Created with Sketch.</desc>
    <defs></defs>
    <g id="页1" stroke="none" stroke-width="1" fill="none" fill-rule="evenodd" sketch:type="MSPage">
        <g id="#5e6971ff" sketch:type="MSLayerGroup" fill="#5E6971">
            <path d="M64.01,0 L70.7,0 C86.61,0.87 102.17,7.34 113.73,18.34 C126.38,30.07 133.97,46.81 135,63.99 L135,70.74 C134.07,88.04 126.42,104.91 113.68,116.71 C102.21,127.63 86.78,134.04 71.01,135 L64.24,135 C48.16,134.11 32.42,127.48 20.83,116.25 C8.42,104.55 1.02,87.98 0,71 L0,64.29 C0.93,46.98 8.57,30.09 21.32,18.3 C32.8,7.38 48.23,0.96 64.01,0 L64.01,0 Z M57.54,3.77 C42.29,6.1 28.02,14.16 18.14,26 C8.29,37.61 2.83,52.81 3.01,68.03 C3.07,82.86 8.49,97.59 18.07,108.92 C28.45,121.4 43.71,129.71 59.86,131.54 C73.7,133.21 88.08,130.27 100.09,123.16 C112.84,115.72 122.91,103.76 127.99,89.89 C133.52,75.08 133.31,58.23 127.4,43.57 C121.37,28.32 109.24,15.61 94.31,8.83 C82.91,3.57 69.94,1.85 57.54,3.77 L57.54,3.77 Z" id="图形" sketch:type="MSShapeGroup"></path>
            <path d="M31.05,68.1 C30.3,60.46 36.39,53.09 43.97,52.18 C49.99,51.77 56.04,52.11 62.07,51.99 C72.02,52.05 79.69,63.4 75.56,72.62 C73.67,73.73 71.31,72.55 69.52,71.66 C71.15,67.92 70.84,63.13 67.59,60.37 C63.89,56.95 58.53,58.22 53.99,58 C49.01,58.21 42.79,56.78 39.21,61.25 C35.06,65.77 37.43,73.88 43.31,75.52 C48.01,76.54 52.9,75.75 57.67,76.01 C59.24,78.32 61.16,80.34 63.38,82.02 C57.21,81.9 51.04,82.15 44.87,81.91 C37.71,81.5 31.45,75.27 31.05,68.1 L31.05,68.1 Z" id="图形" sketch:type="MSShapeGroup"></path>
            <path d="M71.78,51.99 C77.89,52.05 84.01,51.94 90.13,52.02 C98.38,52.58 105.3,60.83 103.84,69.11 C102.87,77.07 94.81,82.98 86.94,82.02 C79.39,81.39 70.7,83.89 64.22,78.81 C58.78,74.83 57.16,67.31 59.35,61.12 C61.38,60.93 63.5,61.01 65.25,62.19 C65.22,64.45 63.93,66.69 64.71,68.98 C65.53,73.18 69.7,76.18 73.91,75.98 C79.3,75.96 84.7,76.15 90.09,75.88 C96.55,75.34 100.28,66.93 96.22,61.81 C91.84,55.82 83.59,58.66 77.33,57.99 C75.78,55.72 73.88,53.74 71.78,51.99 L71.78,51.99 Z" id="图形" sketch:type="MSShapeGroup"></path>
        </g>
    </g>
</svg>