<?xml version="1.0" encoding="UTF-8" standalone="no"?>
<svg width="135px" height="135px" viewBox="0 0 135 135" version="1.1" xmlns="http://www.w3.org/2000/svg" xmlns:xlink="http://www.w3.org/1999/xlink" xmlns:sketch="http://www.bohemiancoding.com/sketch/ns">
    <!-- Generator: Sketch 3.3.3 (12072) - http://www.bohemiancoding.com/sketch -->
    <title>fav_search_video</title>
    <desc>Created with Sketch.</desc>
    <defs></defs>
    <g id="Page-1" stroke="none" stroke-width="1" fill="none" fill-rule="evenodd" sketch:type="MSPage">
        <g id="#5e6971ff" sketch:type="MSLayerGroup" fill="#5E6971">
            <path d="M64.3,0 L70.33,0 C86.35,0.75 102.06,7.25 113.7,18.31 C126.44,30.12 134.09,47.01 135,64.32 L135,70.32 C134.22,87.75 126.53,104.78 113.72,116.67 C102.17,127.67 86.61,134.13 70.72,135 L64.63,135 C48.62,134.25 32.92,127.74 21.28,116.68 C8.55,104.88 0.93,88 0,70.7 L0,64.71 C0.79,47.24 8.48,30.17 21.34,18.28 C32.89,7.31 48.43,0.87 64.3,0 L64.3,0 Z M57.53,3.77 C42.74,6.04 28.85,13.69 19.02,24.98 C9.09,36.21 3.31,51 3.03,65.99 C2.6,81.5 8.04,97.07 18.06,108.91 C28.44,121.4 43.71,129.71 59.86,131.54 C73.46,133.18 87.57,130.37 99.45,123.53 C112.28,116.24 122.47,104.41 127.72,90.62 C133.42,75.88 133.41,59.02 127.68,44.29 C121.91,29.17 110.18,16.45 95.6,9.44 C83.88,3.71 70.41,1.77 57.53,3.77 L57.53,3.77 Z" id="Shape" sketch:type="MSShapeGroup"></path>
            <path d="M39.39,50.47 C40.75,49.66 42.45,50.14 43.95,49.98 C55.32,50.06 66.69,49.92 78.05,50.04 C80.05,49.9 81.29,52.08 81,53.87 C81.01,63.3 81.01,72.73 81,82.15 C81.28,83.92 80.07,86.09 78.08,85.95 C65.99,86.06 53.9,85.97 41.8,86 C40,86.34 37.93,84.99 38.04,83.03 C37.92,73.7 38.05,64.36 37.98,55.02 C38,53.42 37.8,51.43 39.39,50.47 L39.39,50.47 Z" id="Shape" sketch:type="MSShapeGroup"></path>
            <path d="M84,64.11 C89.32,59.76 94.61,55.37 99.97,51.07 C100.02,61.68 100.02,72.29 99.97,82.89 C94.57,79.15 89.33,75.2 84,71.36 L84,64.11 L84,64.11 Z" id="Shape" sketch:type="MSShapeGroup"></path>
        </g>
    </g>
</svg>