<?xml version="1.0" encoding="UTF-8" standalone="no"?>
<svg width="135px" height="135px" viewBox="0 0 135 135" version="1.1" xmlns="http://www.w3.org/2000/svg" xmlns:xlink="http://www.w3.org/1999/xlink" xmlns:sketch="http://www.bohemiancoding.com/sketch/ns">
    <!-- Generator: Sketch 3.3.3 (12072) - http://www.bohemiancoding.com/sketch -->
    <title>fav_search_video_pressed</title>
    <desc>Created with Sketch.</desc>
    <defs></defs>
    <g id="Page-1" stroke="none" stroke-width="1" fill="none" fill-rule="evenodd" sketch:type="MSPage">
        <g id="#737f88ff" sketch:type="MSLayerGroup" fill="#737F88">
            <path d="M64.31,0 L70.36,0 C86.13,0.75 101.58,7.05 113.16,17.81 C126.28,29.71 134.19,46.96 135,64.63 L135,70.06 C134.29,87.85 126.34,105.24 113.14,117.21 C101.65,127.9 86.33,134.15 70.7,135 L64.61,135 C48.84,134.24 33.37,127.94 21.8,117.16 C8.65,105.22 0.75,87.89 0,70.17 L0,64.67 C0.8,47 8.69,29.74 21.81,17.84 C33.31,7.13 48.65,0.86 64.31,0 L64.31,0 Z M39.37,50.47 C37.77,51.38 38.02,53.4 37.98,54.96 C38.05,64 37.92,73.04 38.04,82.08 C37.95,83.58 39.36,85.08 40.89,84.96 C53.29,85.03 65.69,85.03 78.09,84.96 C79.61,85.08 81.04,83.62 80.96,82.12 C81.06,72.7 80.98,63.29 81,53.87 C81.29,52.11 80.14,49.93 78.14,50.05 C66.77,49.91 55.39,50.07 44.02,49.98 C42.49,50.13 40.76,49.67 39.37,50.47 L39.37,50.47 Z M84.01,64.47 C84,66.98 83.99,69.48 84,71.99 C89.66,76.01 95.34,80 101.01,84.01 C100.99,73.01 101.01,62.01 101,51.01 C95.32,55.47 89.7,60.01 84.01,64.47 L84.01,64.47 Z" id="Shape" sketch:type="MSShapeGroup"></path>
        </g>
    </g>
</svg>