<?xml version="1.0" encoding="UTF-8" standalone="no"?>
<svg width="135px" height="135px" viewBox="0 0 135 135" version="1.1" xmlns="http://www.w3.org/2000/svg" xmlns:xlink="http://www.w3.org/1999/xlink" xmlns:sketch="http://www.bohemiancoding.com/sketch/ns">
    <!-- Generator: Sketch 3.3.3 (12072) - http://www.bohemiancoding.com/sketch -->
    <title>fav_search_music</title>
    <desc>Created with Sketch.</desc>
    <defs></defs>
    <g id="Page-1" stroke="none" stroke-width="1" fill="none" fill-rule="evenodd" sketch:type="MSPage">
        <g id="#5e6971ff" sketch:type="MSLayerGroup" fill="#5E6971">
            <path d="M64.32,0 L70.39,0 C86.38,0.77 102.05,7.25 113.68,18.29 C126.43,30.1 134.09,47 135,64.33 L135,70.4 C134.19,87.57 126.72,104.36 114.22,116.2 C102.61,127.48 86.84,134.13 70.71,135 L64.57,135 C48.58,134.23 32.91,127.73 21.29,116.69 C8.55,104.89 0.92,88 0,70.7 L0,64.65 C0.8,47.24 8.47,30.21 21.28,18.33 C32.84,7.33 48.41,0.86 64.32,0 L64.32,0 Z M57.55,3.77 C42.51,6.07 28.42,13.93 18.56,25.51 C8.45,37.18 2.82,52.6 3.01,68.04 C3.07,83.1 8.67,98.05 18.51,109.44 C28.88,121.64 43.95,129.73 59.87,131.54 C73.46,133.18 87.57,130.37 99.45,123.53 C112.27,116.25 122.45,104.43 127.71,90.65 C133.42,75.91 133.42,59.05 127.69,44.32 C121.92,29.19 110.18,16.45 95.59,9.44 C83.88,3.72 70.41,1.77 57.55,3.77 L57.55,3.77 Z" id="Shape" sketch:type="MSShapeGroup"></path>
            <path d="M53,46 C63.6930993,44.0316453 74.2752183,41.425204 85,39 C86.6759828,38.5115395 88.2548069,40.255774 88,42 C87.9650228,55.4682739 88.0749409,69.0059122 88,83 C86.7859009,90.0952932 73.4258508,88.9655049 73,82 C73.1760369,77.2117428 78.1423382,75.3287623 82,76 C81.9894731,67.2715881 81.9994656,58.8774595 82,50 C73.3159327,52.4852365 64.6623774,54.4772316 56,57 C56.0188147,67.3905132 55.9888371,78.2622477 56,89 C54.5898789,91.2944544 52.961092,93.9207166 50,94 C46.2560855,93.8711645 41.2098437,91.9980945 41,88 C41.1698735,83.1976385 46.1561599,81.2254643 50,82 C50.0332725,71.0474594 49.9833097,60.4532169 50,50 C49.8434139,48.0850085 51.3822678,46.6281762 53,46 L53,46 Z" id="Shape" sketch:type="MSShapeGroup"></path>
        </g>
    </g>
</svg>