<?xml version="1.0" encoding="UTF-8" standalone="no"?>
<svg width="108px" height="108px" viewBox="0 0 108 108" version="1.1" xmlns="http://www.w3.org/2000/svg" xmlns:xlink="http://www.w3.org/1999/xlink" xmlns:sketch="http://www.bohemiancoding.com/sketch/ns">
    <!-- Generator: Sketch 3.3.3 (12081) - http://www.bohemiancoding.com/sketch -->
    <title>find_more_friend_near_icon</title>
    <desc>Created with Sketch.</desc>
    <defs></defs>
    <g id="模块/插件" stroke="none" stroke-width="1" fill="none" fill-rule="evenodd" sketch:type="MSPage">
        <g id="find_more_friend_near_icon" sketch:type="MSArtboardGroup" fill="#10AEFF">
            <path d="M39.5,40 C44.194,40 48,36.194 48,31.5 C48,26.806 44.194,23 39.5,23 C34.805,23 31,26.806 31,31.5 C31,36.194 34.805,40 39.5,40 L39.5,40 Z M69.5,40 C74.194,40 78,36.194 78,31.5 C78,26.806 74.194,23 69.5,23 C64.805,23 61,26.806 61,31.5 C61,36.194 64.804,40 69.5,40 L69.5,40 Z M85,52 C85.553,52 86.023,51.805 86.414,51.414 C86.805,51.023 87,50.553 87,50 L87,46 C87,44.896 86.104,44 85,44 L24,44 C23.448,44 22.977,44.195 22.586,44.586 C22.195,44.977 22,45.448 22,46 L22,50 C22,51.105 22.896,52 24,52 L36,52 L36,56.44 L22.527,81.087 C22,82.052 22.338,83.251 23.292,83.805 L26.459,85.644 C26.956,85.931 27.486,85.999 28.042,85.845 C28.597,85.692 29.015,85.363 29.289,84.859 L40.101,65.079 L49.644,80.687 L49.583,80.786 L50.122,81.469 L52.028,84.587 C52.35,85.114 52.948,85.607 53.578,85.848 L53.583,85.854 C54.538,86.416 55.979,85.542 56.553,84.59 L58.269,81.745 L58.999,80.832 L58.908,80.686 L68.624,64.578 L79.709,84.858 C79.983,85.362 80.401,85.691 80.957,85.844 C81.512,85.998 82.042,85.93 82.539,85.643 L85.707,83.804 C86.661,83.25 86.999,82.051 86.472,81.086 L72.999,56.438 L72.999,51.999 L85,51.999 L85,52 Z M65,55.679 L54.246,73.195 L44,56.734 L44,52 L65,52 L65,55.679 L65,55.679 Z" id="Shape" sketch:type="MSShapeGroup"></path>
        </g>
    </g>
</svg>