<?xml version="1.0" encoding="UTF-8"?>
<svg width="96px" height="96px" viewBox="0 0 96 96" version="1.1" xmlns="http://www.w3.org/2000/svg" xmlns:xlink="http://www.w3.org/1999/xlink">
    <!-- Generator: Sketch 41.2 (35397) - http://www.bohemiancoding.com/sketch -->
    <title>small_application_icon copy 3</title>
    <desc>Created with Sketch.</desc>
    <defs></defs>
    <g id="模块/插件" stroke="none" stroke-width="1" fill="none" fill-rule="evenodd">
        <g id="small_application_icon-copy-3" fill="#7586DB">
            <path d="M61,21 C57.693,21 54.614,21.879 52,23.374 C47.205,26.118 44,30.968 44,36.5 L44,59.5 C44,63.642 39.97,67 35,67 C30.029,67 26,63.642 26,59.5 C26,56.552 28.046,54.009 31.015,52.783 C31.229,52.695 31.446,52.611 31.669,52.537 C33.538,51.787 35.141,50.379 35.736,48.744 C36.615,46.33 34.979,44.374 32.083,44.374 C31.361,44.374 30.629,44.496 29.923,44.716 C29.92,44.717 29.917,44.718 29.913,44.719 C25.726,45.921 22.231,48.557 20.133,52 C18.778,54.225 18,56.78 18,59.5 C18,68.047 25.626,75 35,75 C38.307,75 41.386,74.121 44,72.626 C48.795,69.882 52,65.032 52,59.5 L52,36.5 C52,32.358 56.029,29 61,29 C65.97,29 70,32.358 70,36.5 C70,39.574 67.781,42.216 64.604,43.374 C62.555,44.061 60.876,45.544 60.236,47.301 C59.362,49.703 60.99,51.651 63.873,51.651 C64.526,51.651 65.186,51.539 65.829,51.357 C65.934,51.328 66.038,51.296 66.142,51.265 C70.304,50.056 73.778,47.428 75.866,44 C77.222,41.776 78,39.22 78,36.5 C78,27.953 70.374,21 61,21" id="Page-1"></path>
        </g>
    </g>
</svg>