<?xml version="1.0" encoding="UTF-8" standalone="no"?>
<svg width="108px" height="108px" viewBox="0 0 108 108" version="1.1" xmlns="http://www.w3.org/2000/svg" xmlns:xlink="http://www.w3.org/1999/xlink">
    <!-- Generator: Sketch 3.7.2 (28276) - http://www.bohemiancoding.com/sketch -->
    <title>find_more_friend_ipcall</title>
    <desc>Created with Sketch.</desc>
    <defs></defs>
    <g id="-----Android" stroke="none" stroke-width="1" fill="none" fill-rule="evenodd">
        <g id="find_more_friend_ipcall" fill="#09BB07">
            <g id="XMLID_19_" transform="translate(21.000000, 21.000000)">
                <path d="M50.6686601,46.3187661 C49.990062,46.092545 49.7073128,46.2056555 49.0852645,46.5449871 C47.0494701,47.6760925 42.0730839,50.3907455 39.132492,51.9177378 C38.397344,52.3136247 37.6056462,52.5398458 36.7008487,52.5398458 C35.7395013,52.5398458 34.8912537,52.2570694 34.1561057,51.8046272 C30.0279671,49.3727506 26.1260279,46.5449871 22.7895871,43.151671 C19.4531463,39.81491 16.6256541,35.9125964 14.1940108,31.7840617 C13.7416121,31.0488432 13.4588628,30.1439589 13.4588628,29.2390746 C13.4588628,28.3907455 13.6850622,27.5424165 14.0809111,26.8071979 C15.6077569,23.8097686 18.3221494,18.8329049 19.4531463,16.8534704 C19.7924454,16.2313625 19.905545,15.8920308 19.6793457,15.2699229 L14.8726089,2.48843188 C14.2505607,1.01799486 12.8368146,0.0565552699 11.1403192,0 C10.4617211,0 9.67002331,0.28277635 9.50037377,0.33933162 C3.95848907,2.37532134 0,7.63496144 0,13.8560411 C0,15.6092545 0.452398751,17.2493573 0.508948595,17.6452442 C3.2233411,29.5218509 9.2741744,40.0976864 17.5870015,48.4113111 C25.8998285,56.7249357 36.4746493,62.7763496 48.3501165,65.4910026 C48.7459654,65.6041131 50.3859109,66 52.1389561,66 C58.3594389,66 63.6185744,62.0411311 65.6543688,56.4987147 C65.7109186,56.3290488 66.0502177,55.5372751 65.9936678,54.8586118 C65.8805681,53.1619537 64.9192208,51.748072 63.4489248,51.125964 L50.6686601,46.3187661 Z" id="XMLID_46_"></path>
                <g id="Group" transform="translate(29.333333, 0.000000)">
                    <path d="M17.3741096,19.2358143 C20.60845,22.4134119 21.5730779,26.9528371 20.0410219,30.4141489 C24.6939327,31.3787767 29.4603292,30.2439204 32.6946696,26.8960943 C38.1419799,21.3352985 37.4043233,11.7457627 31.049128,5.44731024 C24.6371899,-0.851142225 15.0476541,-1.41857038 9.6003439,4.1422255 C6.36600344,7.43330877 5.34463277,12.0862196 6.25251781,16.6256448 C9.71382953,15.2070744 14.1397691,16.0582167 17.3741096,19.2358143 L17.3741096,19.2358143 Z" id="XMLID_49_"></path>
                    <path d="M18.3954802,32.8540899 C19.1331368,32.1164333 19.6438222,31.3220339 20.0410219,30.4141489 C16.920167,29.7899779 13.7993122,28.1444363 11.2458855,25.6477524 C8.63571604,23.0375829 6.93343159,19.9167281 6.25251781,16.6823876 C5.28788995,17.0795873 4.43674773,17.6470155 3.69909113,18.3846721 C0.237779415,21.9027266 0.691721936,28.0309506 4.77720462,32.0029477 C8.80594449,36.0316875 14.9341685,36.3721444 18.3954802,32.8540899 L18.3954802,32.8540899 Z" id="XMLID_50_"></path>
                </g>
            </g>
        </g>
    </g>
</svg>