<?xml version="1.0" encoding="UTF-8"?>
<svg width="19px" height="18px" viewBox="0 0 19 18" version="1.1" xmlns="http://www.w3.org/2000/svg" xmlns:xlink="http://www.w3.org/1999/xlink">
    <!-- Generator: Sketch 50.2 (55047) - http://www.bohemiancoding.com/sketch -->
    <title>Star</title>
    <desc>Created with Sketch.</desc>
    <defs></defs>
    <g id="视觉Android" stroke="none" stroke-width="1" fill="none" fill-rule="evenodd">
        <g id="发现-小程序" transform="translate(-321.000000, -308.000000)" fill="#FFC300" stroke="#FFC300" stroke-width="1.2">
            <g id="recent-copy" transform="translate(0.000000, 227.000000)">
                <g id="Card1-Copy-2" transform="translate(20.000000, 49.000000)">
                    <g id="Head" transform="translate(0.000000, 16.000000)">
                        <g id="Group" transform="translate(60.000000, 13.000000)">
                            <path d="M245.361291,20.1658955 L250.312661,17.5628061 L255.264031,20.1658955 C255.341896,20.2068312 255.431083,20.220957 255.517786,20.2060863 C255.73552,20.1687419 255.881756,19.9619595 255.844411,19.744225 L254.898784,14.2307931 L258.904526,10.326159 C258.96752,10.2647555 259.008515,10.1842986 259.021164,10.0972438 C259.052931,9.87862581 258.901459,9.67564867 258.682841,9.64388163 L253.147041,8.83948276 L250.671355,3.82319675 C250.632423,3.74431171 250.568572,3.6804607 250.489687,3.6415286 C250.291586,3.54375968 250.051736,3.62509528 249.953967,3.82319675 L247.478281,8.83948276 L241.942481,9.64388163 C241.855426,9.65653143 241.774969,9.6975263 241.713566,9.76051976 C241.559365,9.91871319 241.562602,10.1719585 241.720796,10.326159 L245.726539,14.2307931 L244.780911,19.744225 C244.76604,19.830928 244.780166,19.9201152 244.821102,19.9979794 C244.923902,20.1935173 245.165753,20.2686959 245.361291,20.1658955 Z" id="Star"></path>
                        </g>
                    </g>
                </g>
            </g>
        </g>
    </g>
</svg>