<?xml version="1.0" encoding="UTF-8"?>
<svg width="72px" height="72px" viewBox="0 0 72 72" version="1.1" xmlns="http://www.w3.org/2000/svg" xmlns:xlink="http://www.w3.org/1999/xlink">
    <!-- Generator: Sketch 52.2 (67145) - http://www.bohemiancoding.com/sketch -->
    <title>icons_outlined_qr-code</title>
    <desc>Created with Sketch.</desc>
    <g id="icons_outlined_qr-code" stroke="none" stroke-width="1" fill="none" fill-rule="evenodd">
        <path d="M33,57 L39,57 L39,63 L33,63 L33,57 Z M57,33 L63,33 L63,39 L57,39 L57,33 Z M33,45 L39,45 L39,51 L33,51 L33,45 Z M45,33 L51,33 L51,39 L45,39 L45,33 Z M12,9 L36,9 C37.6568542,9 39,10.3431458 39,12 L39,36 C39,37.6568542 37.6568542,39 36,39 L12,39 C10.3431458,39 9,37.6568542 9,36 L9,12 C9,10.3431458 10.3431458,9 12,9 Z M12.6,12.6 L12.6,35.4 L35.4,35.4 L35.4,12.6 L12.6,12.6 Z M21,21 L27,21 L27,27 L21,27 L21,21 Z M48,9 L60,9 C61.6568542,9 63,10.3431458 63,12 L63,24 C63,25.6568542 61.6568542,27 60,27 L48,27 C46.3431458,27 45,25.6568542 45,24 L45,12 C45,10.3431458 46.3431458,9 48,9 Z M48.6,23.4 L59.4,23.4 L59.4,12.6 L48.6,12.6 L48.6,23.4 Z M48,45 L60,45 C61.6568542,45 63,46.3431458 63,48 L63,60 C63,61.6568542 61.6568542,63 60,63 L48,63 C46.3431458,63 45,61.6568542 45,60 L45,48 C45,46.3431458 46.3431458,45 48,45 Z M48.6,59.4 L59.4,59.4 L59.4,48.6 L48.6,48.6 L48.6,59.4 Z M12,45 L24,45 C25.6568542,45 27,46.3431458 27,48 L27,60 C27,61.6568542 25.6568542,63 24,63 L12,63 C10.3431458,63 9,61.6568542 9,60 L9,48 C9,46.3431458 10.3431458,45 12,45 Z M12.6,59.4 L23.4,59.4 L23.4,48.6 L12.6,48.6 L12.6,59.4 Z" id="Combined-Shape" fill="#000000"></path>
    </g>
</svg>