<?xml version="1.0" encoding="UTF-8"?>
<svg width="72px" height="72px" viewBox="0 0 72 72" version="1.1" xmlns="http://www.w3.org/2000/svg" xmlns:xlink="http://www.w3.org/1999/xlink">
    <!-- Generator: Sketch 50.2 (55047) - http://www.bohemiancoding.com/sketch -->
    <title>icons_outlined_miniprogram</title>
    <desc>Created with Sketch.</desc>
    <defs></defs>
    <g id="icons_outlined_miniprogram" stroke="none" stroke-width="1" fill="none" fill-rule="evenodd">
        <g id="common_icons_miniprogram" fill="#000000" fill-rule="nonzero">
            <path d="M36,66 C19.4314575,66 6,52.5685425 6,36 C6,19.4314575 19.4314575,6 36,6 C52.5685425,6 66,19.4314575 66,36 C66,52.5685425 52.5685425,66 36,66 Z M36,62.4 C50.5803174,62.4 62.4,50.5803174 62.4,36 C62.4,21.4196826 50.5803174,9.6 36,9.6 C21.4196826,9.6 9.6,21.4196826 9.6,36 C9.6,50.5803174 21.4196826,62.4 36,62.4 Z M45.4332194,37.5682908 L45.0181807,37.5727273 C43.8075125,37.5727273 43.1057992,36.7232849 43.560619,35.700006 C43.8822667,34.9494948 44.6143793,34.3581731 45.4932431,34.1629208 C48.0491862,33.545969 49.8090898,31.5381917 49.8090898,29.1818182 C49.8090898,26.344769 47.1186631,24.0272727 43.7454534,24.0272727 C40.3722437,24.0272727 37.681817,26.344769 37.681817,29.1818182 L37.681817,42.8181818 C37.681817,47.5213925 33.4672164,51.3 28.2909079,51.3 C23.1145995,51.3 18.8999989,47.5213925 18.8999989,42.8181818 C18.8999989,38.6973574 22.1595446,35.1849159 26.5636352,34.5181818 L26.9272716,34.5181818 C27.8582019,34.5181818 28.4999989,35.0586424 28.4999989,35.8181818 C28.5003836,35.9503351 28.4979107,36.0146302 28.4845534,36.0947742 C28.4675193,36.196979 28.4340959,36.2935353 28.3848333,36.3909031 C28.0795639,37.1031983 27.2876368,37.7191416 26.4522092,37.9279883 C23.9100598,38.5416106 22.1363625,40.5401428 22.1363625,42.8181818 C22.1363625,45.655231 24.8267892,47.9727273 28.1999989,47.9727273 C31.5732086,47.9727273 34.2636352,45.655231 34.2636352,42.8181818 L34.2636352,29.1818182 C34.2636352,24.4786075 38.4782359,20.7 43.6545443,20.7 C48.8308527,20.7 53.0454534,24.4786075 53.0454534,29.1818182 C53.0454534,33.3471414 49.8393356,36.8020097 45.4332194,37.5682908 Z" id="Combined-Shape"></path>
        </g>
    </g>
</svg>