<?xml version="1.0" encoding="UTF-8"?>
<svg width="72px" height="72px" viewBox="0 0 72 72" version="1.1" xmlns="http://www.w3.org/2000/svg" xmlns:xlink="http://www.w3.org/1999/xlink">
    <!-- Generator: Sketch 52.2 (67145) - http://www.bohemiancoding.com/sketch -->
    <title>icons_outlined_camera</title>
    <desc>Created with Sketch.</desc>
    <g id="icons_outlined_camera" stroke="none" stroke-width="1" fill="none" fill-rule="evenodd">
        <g id="icon20" fill="#000000" fill-rule="nonzero">
            <path d="M43.0733385,15.6 L28.9266615,15.6 L22.9266615,24.6 L9.6,24.6 L9.6,56.4 L62.4,56.4 L62.4,24.6 L49.0733385,24.6 L43.0733385,15.6 Z M44.1972244,12 C44.6987541,12 45.1671011,12.2506517 45.4452998,12.6679497 L51,21 L63,21 C64.6568542,21 66,22.3431458 66,24 L66,57 C66,58.6568542 64.6568542,60 63,60 L9,60 C7.34314575,60 6,58.6568542 6,57 L6,24 C6,22.3431458 7.34314575,21 9,21 L21,21 L26.5547002,12.6679497 C26.8328989,12.2506517 27.3012459,12 27.8027756,12 L44.1972244,12 Z M36,47.4 C40.6391919,47.4 44.4,43.6391919 44.4,39 C44.4,34.3608081 40.6391919,30.6 36,30.6 C31.3608081,30.6 27.6,34.3608081 27.6,39 C27.6,43.6391919 31.3608081,47.4 36,47.4 Z M36,51 C29.372583,51 24,45.627417 24,39 C24,32.372583 29.372583,27 36,27 C42.627417,27 48,32.372583 48,39 C48,45.627417 42.627417,51 36,51 Z" id="Path-4"></path>
        </g>
    </g>
</svg>