<?xml version="1.0" encoding="UTF-8"?>
<svg width="72px" height="72px" viewBox="0 0 72 72" version="1.1" xmlns="http://www.w3.org/2000/svg" xmlns:xlink="http://www.w3.org/1999/xlink">
    <!-- Generator: Sketch 50.2 (55047) - http://www.bohemiancoding.com/sketch -->
    <title>icons_outlined_keyboard</title>
    <desc>Created with Sketch.</desc>
    <defs></defs>
    <g id="icons_outlined_keyboard" stroke="none" stroke-width="1" fill="none" fill-rule="evenodd">
        <g id="common_icons_info" fill="#000000">
            <g id="Group-19" transform="translate(6.000000, 6.000000)">
                <path d="M30,60 C13.4314575,60 0,46.5685425 0,30 C0,13.4314575 13.4314575,0 30,0 C46.5685425,0 60,13.4314575 60,30 C60,46.5685425 46.5685425,60 30,60 Z M30,56.4 C44.5803174,56.4 56.4,44.5803174 56.4,30 C56.4,15.4196826 44.5803174,3.6 30,3.6 C15.4196826,3.6 3.6,15.4196826 3.6,30 C3.6,44.5803174 15.4196826,56.4 30,56.4 Z" id="Combined-Shape" fill-rule="nonzero"></path>
                <path d="M13.5,18 L19.5,18 L19.5,24 L13.5,24 L13.5,18 Z M22.5,18 L28.5,18 L28.5,24 L22.5,24 L22.5,18 Z M31.5,18 L37.5,18 L37.5,24 L31.5,24 L31.5,18 Z M40.5,18 L46.5,18 L46.5,24 L40.5,24 L40.5,18 Z M13.5,27 L19.5,27 L19.5,33 L13.5,33 L13.5,27 Z M22.5,27 L28.5,27 L28.5,33 L22.5,33 L22.5,27 Z M21,39 L39,39 L39,45 L21,45 L21,39 Z M31.5,27 L37.5,27 L37.5,33 L31.5,33 L31.5,27 Z M40.5,27 L46.5,27 L46.5,33 L40.5,33 L40.5,27 Z" id="Combined-Shape"></path>
            </g>
        </g>
    </g>
</svg>