<?xml version="1.0" encoding="UTF-8"?>
<svg width="72px" height="72px" viewBox="0 0 72 72" version="1.1" xmlns="http://www.w3.org/2000/svg" xmlns:xlink="http://www.w3.org/1999/xlink">
    <!-- Generator: Sketch 50.2 (55047) - http://www.bohemiancoding.com/sketch -->
    <title>icons_outlined_colorful_favorites</title>
    <desc>Created with Sketch.</desc>
    <defs></defs>
    <g id="icons_outlined_colorful_favorites" stroke="none" stroke-width="1" fill="none" fill-rule="evenodd">
        <path d="M57.0552888,26.5373078 C57.3459902,25.1771572 57.5801273,23.6563374 57.7577002,21.9748484 L36.7749378,9.7349037 C36.4666536,9.55507125 35.5334806,9.55499297 35.2250622,9.7349037 L14.2422998,21.9748484 L36,34.5366625 C38.0952982,34.9059088 40.0123569,35.184735 41.7511763,35.3731412 L37.8,37.6543539 L34.2,37.6543539 L12.6,25.1835881 L9,23.8569656 C9,22.2046168 10.1601562,20.1883656 11.5888735,19.3549472 L33.4111265,6.62529966 C34.8409219,5.79125236 37.1601562,5.79188126 38.5888735,6.62529966 L60.4111265,19.3549472 C61.8409219,20.1889945 63,22.2186391 63,23.8569656 L59.4,25.1835881 L57.0552888,26.5373078 Z" id="Mask" fill="#228BF1" fill-rule="nonzero"></path>
        <path d="M34.5828829,62.7606525 L37.8,62.8973902 L58.5971908,50.7656956 C58.9209963,50.5768091 59.4,49.7439868 59.4,49.3732813 L59.4,25.1835881 L37.8,37.6543539 L35.8553609,39.0927989 L36.0046308,36.3164062 L36.0046308,34.5206471 L61.2005267,19.9583227 C62.2442765,20.9560335 63,22.53407 63,23.8569656 L63,49.3732813 C63,51.0256301 61.8398437,53.0418813 60.4111265,53.8752997 L38.5888735,66.6049472 C37.4433138,67.2731904 35.7267966,67.4056298 34.3547847,67.003236 L34.5828829,62.7606525 Z" id="Combined-Shape" fill="#F75356" fill-rule="nonzero"></path>
        <path d="M37.8000011,66.9550989 C36.4037561,67.4152012 34.5994264,67.2981222 33.4111265,66.6049472 L11.5888735,53.8752997 C10.1590781,53.0412524 9,51.0116078 9,49.3732813 L9,23.8569656 C9,23.6314925 9.02160244,23.3992433 9.0625419,23.1641483 L12.6,25.2047767 L12.6,49.3732813 C12.6,49.7366237 13.0836716,50.579532 13.4028092,50.7656956 L34.2,62.8973902 L34.2,37.665016 L34.2172281,37.6749543 L36.0086146,36.3022156 L37.8000011,37.6749543 L37.8000011,66.9550989 Z" id="Combined-Shape" fill="#FEC22D" fill-rule="nonzero"></path>
    </g>
</svg>