<?xml version="1.0" encoding="UTF-8"?>
<svg width="72px" height="72px" viewBox="0 0 72 72" version="1.1" xmlns="http://www.w3.org/2000/svg" xmlns:xlink="http://www.w3.org/1999/xlink">
    <!-- Generator: Sketch 50.2 (55047) - http://www.bohemiancoding.com/sketch -->
    <title>icons_outlined_colorful_moment</title>
    <desc>Created with Sketch.</desc>
    <defs></defs>
    <g id="icons_outlined_colorful_moment" stroke="none" stroke-width="1" fill="none" fill-rule="evenodd">
        <path d="M45,11.1999999 L45,7.3999999 C42.2,6.4999999 39.1,5.9999999 36,5.9999999 C31,5.9999999 26.3,7.1999999 22.1,9.3999999 L36.1,23.3999999 C36.1,23.3999999 36.1,23.3999999 36.1,23.3999999 L42.2,29.4999999 C43.9,31.0999999 44.9,33.3999999 44.9,35.9999999 L44.9,27.1999999 L28.5,10.6999999 C30.9,9.9999999 33.4,9.5999999 36,9.5999999 C39.2,9.5999999 42.2,10.0999999 45,11.1999999 Z" id="Shape" fill="#FA5151" fill-rule="nonzero"></path>
        <path d="M24.8,12.0999999 L22.1,9.3999999 C19.5,10.7999999 17,12.5999999 14.8,14.7999999 C11.3,18.2999999 8.8,22.4999999 7.4,26.9999999 L27.2,26.9999999 C27.2,26.9999999 27.2,26.9999999 27.2,26.9999999 L35.9,26.9999999 C38.2,26.9999999 40.6,27.7999999 42.4,29.5999999 L36.2,23.3999999 L12.8,23.3999999 C14,21.1999999 15.5,19.1999999 17.3,17.2999999 C19.6,15.0999999 22.1,13.2999999 24.8,12.0999999 Z" id="Shape" fill="#FA9D3B" fill-rule="nonzero"></path>
        <path d="M11.2,26.9999999 L7.4,26.9999999 C6.5,29.7999999 6,32.8999999 6,35.9999999 C6,40.9999999 7.2,45.6999999 9.4,49.8999999 L23.4,35.8999999 C23.4,35.8999999 23.4,35.8999999 23.4,35.8999999 L29.5,29.7999999 C31.1,28.0999999 33.4,27.0999999 36,27.0999999 L27.2,27.0999999 L10.7,43.4999999 C10,41.0999999 9.6,38.5999999 9.6,35.9999999 C9.6,32.7999999 10.2,29.7999999 11.2,26.9999999 Z" id="Shape" fill="#FFC300" fill-rule="nonzero"></path>
        <path d="M12.1,47.1999999 L9.4,49.8999999 C10.8,52.4999999 12.6,54.9999999 14.8,57.1999999 C18.3,60.6999999 22.5,63.1999999 27,64.5999999 L27,44.7999999 C27,44.7999999 27,44.7999999 27,44.7999999 L27,36.0999999 C27,33.7999999 27.8,31.3999999 29.6,29.5999999 L23.4,35.7999999 L23.4,59.0999999 C21.2,57.8999999 19.2,56.3999999 17.3,54.5999999 C15.1,52.3999999 13.3,49.8999999 12.1,47.1999999 Z" id="Shape" fill="#91D300" fill-rule="nonzero"></path>
        <path d="M27,60.7999999 L27,64.5999999 C29.8,65.4999999 32.9,65.9999999 36,65.9999999 C41,65.9999999 45.7,64.7999999 49.9,62.5999999 L35.9,48.5999999 C35.9,48.5999999 35.9,48.5999999 35.9,48.5999999 L29.8,42.4999999 C28.1,40.8999999 27.1,38.5999999 27.1,35.9999999 L27.1,44.7999999 L43.6,61.2999999 C41.2,61.9999999 38.7,62.3999999 36.1,62.3999999 C32.8,62.3999999 29.8,61.7999999 27,60.7999999 Z" id="Shape" fill="#00C777" fill-rule="nonzero"></path>
        <path d="M47.2,59.8999999 L49.9,62.5999999 C52.5,61.1999999 55,59.3999999 57.2,57.1999999 C60.7,53.6999999 63.2,49.4999999 64.6,44.9999999 L44.8,44.9999999 C44.8,44.9999999 44.8,44.9999999 44.8,44.9999999 L36.1,44.9999999 C33.8,44.9999999 31.4,44.1999999 29.6,42.3999999 L35.8,48.5999999 L59.1,48.5999999 C57.9,50.7999999 56.4,52.7999999 54.6,54.6999999 C52.4,56.8999999 49.9,58.5999999 47.2,59.8999999 Z" id="Shape" fill="#10AEFF" fill-rule="nonzero"></path>
        <path d="M60.8,44.9999999 L64.6,44.9999999 C65.5,42.1999999 66,39.0999999 66,35.9999999 C66,30.9999999 64.8,26.2999999 62.6,22.0999999 L48.6,36.0999999 C48.6,36.0999999 48.6,36.0999999 48.6,36.0999999 L42.5,42.1999999 C40.9,43.8999999 38.6,44.8999999 36,44.8999999 L44.8,44.8999999 L61.3,28.3999999 C62,30.7999999 62.4,33.2999999 62.4,35.8999999 C62.4,39.1999999 61.8,42.1999999 60.8,44.9999999 Z" id="Shape" fill="#2782D7" fill-rule="nonzero"></path>
        <path d="M59.9,24.7999999 L62.6,22.0999999 C61.2,19.4999999 59.4,16.9999999 57.2,14.7999999 C53.7,11.2999999 49.5,8.7999999 45,7.3999999 L45,27.1999999 C45,27.1999999 45,27.1999999 45,27.1999999 L45,35.8999999 C45,38.1999999 44.2,40.5999999 42.4,42.3999999 L48.6,36.1999999 L48.6,12.7999999 C50.8,13.9999999 52.8,15.4999999 54.7,17.2999999 C56.9,19.5999999 58.7,22.0999999 59.9,24.7999999 Z" id="Shape" fill="#6467F0" fill-rule="nonzero"></path>
    </g>
</svg>