<?xml version="1.0" encoding="UTF-8" standalone="no"?>
<svg width="96px" height="96px" viewBox="0 0 96 96" version="1.1" xmlns="http://www.w3.org/2000/svg" xmlns:xlink="http://www.w3.org/1999/xlink" xmlns:sketch="http://www.bohemiancoding.com/sketch/ns">
    <!-- Generator: Sketch 3.0.4 (8054) - http://www.bohemiancoding.com/sketch -->
    <title>info_icon</title>
    <desc>Created with Sketch.</desc>
    <defs></defs>
    <g id="页1" stroke="none" stroke-width="1" fill="none" fill-rule="evenodd" sketch:type="MSPage">
        <g id="#b5b5b5ff" sketch:type="MSLayerGroup" transform="translate(23.000000, 23.000000)" fill="#B5B5B5">
            <path d="M20.43,0.56 C26.75,-0.88 33.58,0.53 38.89,4.21 C47.37,10.01 51.78,21.3 49.26,31.28 C47.01,40.43 39.16,47.82 29.91,49.59 C17.72,51.88 4.26,44.13 0.95,32 C-3.19,18.46 6.49,2.93 20.43,0.56 L20.43,0.56 Z M20.46,3.53 C11.63,5.29 4.4,13 3.28,21.94 C2.12,29.59 5.43,37.68 11.58,42.35 C17.99,47.43 27.32,48.37 34.62,44.71 C41.38,41.48 46.2,34.55 46.83,27.08 C47.61,19.72 44.29,12.11 38.4,7.64 C33.4,3.72 26.66,2.21 20.46,3.53 L20.46,3.53 Z" id="图形" sketch:type="MSShapeGroup"></path>
            <path d="M24.26,11.33 C27.01,9.64 29.55,14.15 26.77,15.67 C24.01,17.4 21.42,12.82 24.26,11.33 L24.26,11.33 Z" id="图形" sketch:type="MSShapeGroup"></path>
            <path d="M21,19 C23.29,19 25.58,19 27.87,19.01 C27.86,25.15 27.86,31.3 27.86,37.45 C28.91,37.46 29.95,37.47 31,37.48 L31,38.99 C27.67,39 24.33,39 21,38.99 L21,37.49 C22.05,37.47 23.1,37.44 24.15,37.4 C24.12,31.78 24.15,26.17 24.14,20.55 C23.09,20.54 22.05,20.53 21,20.53 L21,19 L21,19 Z" id="图形" sketch:type="MSShapeGroup"></path>
        </g>
    </g>
</svg>