<?xml version="1.0" encoding="UTF-8" standalone="no"?>
<svg width="108px" height="108px" viewBox="0 0 108 108" version="1.1" xmlns="http://www.w3.org/2000/svg" xmlns:xlink="http://www.w3.org/1999/xlink" xmlns:sketch="http://www.bohemiancoding.com/sketch/ns">
    <!-- Generator: Sketch 3.3.3 (12081) - http://www.bohemiancoding.com/sketch -->
    <title>jd_entrance_icon</title>
    <desc>Created with Sketch.</desc>
    <defs></defs>
    <g id="模块/插件" stroke="none" stroke-width="1" fill="none" fill-rule="evenodd" sketch:type="MSPage">
        <g id="jd_entrance_icon" sketch:type="MSArtboardGroup" fill="#F86161">
            <path d="M79.037037,25 L29.962963,25 C28.8794074,25 28,25.8810667 28,26.9666667 L28,82.0333333 C28,83.1189333 28.8794074,84 29.962963,84 L79.037037,84 C80.1205926,84 81,83.1189333 81,82.0333333 L81,26.9666667 C81,25.8800833 80.1205926,25 79.037037,25 L79.037037,25 Z M69.2222222,40.3881833 L69.2222222,52.5333333 C69.2222222,60.6792667 62.6305926,67.2833333 54.5,67.2833333 C46.3694074,67.2833333 39.7777778,60.6792667 39.7777778,52.5333333 L39.7777778,40.3881833 C38.6196296,39.83555 37.8148148,38.66145 37.8148148,37.2916667 C37.8148148,35.3899 39.3527963,33.85 41.25,33.85 C43.1472037,33.85 44.6851852,35.3899 44.6851852,37.2916667 C44.6851852,38.6624333 43.8803704,39.83555 42.7222222,40.3881833 L42.7222222,52.5333333 C42.7222222,59.0498833 47.9947407,64.3333333 54.5,64.3333333 C61.0042778,64.3333333 66.2777778,59.0498833 66.2777778,52.5333333 L66.2777778,40.3881833 C65.1196296,39.83555 64.3148148,38.66145 64.3148148,37.2916667 C64.3148148,35.3899 65.8527963,33.85 67.75,33.85 C69.6472037,33.85 71.1851852,35.3899 71.1851852,37.2916667 C71.1851852,38.66145 70.3793889,39.83555 69.2222222,40.3881833 L69.2222222,40.3881833 Z" id="Shape" sketch:type="MSShapeGroup"></path>
        </g>
    </g>
</svg>