<?xml version="1.0" encoding="UTF-8" standalone="no"?>
<svg width="480px" height="480px" viewBox="0 0 480 480" version="1.1" xmlns="http://www.w3.org/2000/svg" xmlns:xlink="http://www.w3.org/1999/xlink" xmlns:sketch="http://www.bohemiancoding.com/sketch/ns">
    <!-- Generator: Sketch 3.3.3 (12081) - http://www.bohemiancoding.com/sketch -->
    <title>mobile_binded_icon</title>
    <desc>Created with Sketch.</desc>
    <defs></defs>
    <g id="Page-1" stroke="none" stroke-width="1" fill="none" fill-rule="evenodd" sketch:type="MSPage">
        <g id="#646464ff" sketch:type="MSLayerGroup" transform="translate(129.000000, 40.000000)" fill="#646464">
            <path d="M46,3.02 C71.91,0.31 98,-0.21 124.04,0.1 C144.69,0.44 165.37,1.38 185.86,4.14 C195.27,5.44 204.68,7.21 213.66,10.43 C216.28,11.49 218.85,13.33 219.91,16.05 C221.41,19.5 220.95,23.34 221.01,26.99 C220.99,88.64 221,150.28 221,211.92 C216.38,210.98 211.7,210.39 207,210.14 L207,39 L15,39 L15,349 L117.8,349 C129.92,372.38 152.18,390.21 177.67,396.86 C154.52,399.26 131.24,400.06 107.98,399.99 C85.99,399.85 63.96,399.12 42.11,396.51 C30.89,394.98 19.42,393.55 8.92,389.1 C4.08,387.2 0.57,382.32 0.99,377.03 C1.01,258.68 0.99,140.34 1.01,21.99 C0.73,17.3 3.14,12.48 7.65,10.71 C19.99,6.32 33.03,4.46 46,3.02 L46,3.02 Z M107.32,365.42 C100.42,367.94 99.4,378.51 105.73,382.26 C111.39,386.41 120.33,382.02 120.53,375.02 C121.36,368.19 113.56,362.44 107.32,365.42 L107.32,365.42 Z" id="Shape" sketch:type="MSShapeGroup"></path>
        </g>
        <g id="mobile_binded_icon" sketch:type="MSLayerGroup" transform="translate(129.000000, 40.000000)"></g>
        <g id="#adadadff" sketch:type="MSLayerGroup" transform="translate(236.000000, 250.000000)" fill="#ADADAD">
            <path d="M42.13,16.09 C59,4.67 79.66,-0.97 100,0.15 C104.7,0.38 109.38,0.98 113.99,1.92 C135.39,6.21 155.12,18.21 168.8,35.21 C183.31,52.95 190.95,76.1 189.89,98.99 C189.14,118.74 181.97,138.17 169.7,153.66 C159.15,167.17 144.84,177.68 128.82,183.79 C110.35,190.87 89.66,191.87 70.54,186.83 C45.11,180.13 22.89,162.36 10.8,139 C1.42108547e-14,118.54 -2.81,94.06 2.92,71.65 C8.52,49.13 22.83,28.96 42.13,16.09 L42.13,16.09 Z M76.72,53.78 C71.11,58.09 68.02,65.1 67.98,72.11 C72.07,72.16 76.17,72.12 80.27,72.15 C80.6,67.4 82.89,62.53 87.44,60.51 C93.41,57.81 101.47,57.8 106.39,62.62 C111.52,68.46 111.33,77.86 107.13,84.17 C102.24,91.13 94.9,96.06 90.53,103.44 C87.63,108.31 87.16,114.11 87.01,119.66 C91.14,119.68 95.28,119.68 99.41,119.66 C99.68,114.01 100.47,107.8 104.75,103.66 C110.08,98.31 115.86,93.14 119.35,86.33 C123.82,78.2 123.76,67.82 119.41,59.66 C116.01,53.23 109.1,49.37 102.07,48.31 C93.38,46.99 83.79,48.21 76.72,53.78 L76.72,53.78 Z M90.38,134.5 C84.53,136.88 85.46,147.17 91.98,147.86 C96.85,149.28 102.23,145.17 101.18,139.97 C100.85,134.8 94.68,132.56 90.38,134.5 L90.38,134.5 Z" id="Shape" sketch:type="MSShapeGroup"></path>
        </g>
        <g id="#ffffffff" sketch:type="MSLayerGroup" transform="translate(303.000000, 297.000000)" fill="#FFFFFF">
            <path d="M9.72,6.78 C16.79,1.21 26.38,-0.01 35.07,1.31 C42.1,2.37 49.01,6.23 52.41,12.66 C56.76,20.82 56.82,31.2 52.35,39.33 C48.86,46.14 43.08,51.31 37.75,56.66 C33.47,60.8 32.68,67.01 32.41,72.66 C28.28,72.68 24.14,72.68 20.01,72.66 C20.16,67.11 20.63,61.31 23.53,56.44 C27.9,49.06 35.24,44.13 40.13,37.17 C44.33,30.86 44.52,21.46 39.39,15.62 C34.47,10.8 26.41,10.81 20.44,13.51 C15.89,15.53 13.6,20.4 13.27,25.15 C9.17,25.12 5.07,25.16 0.98,25.11 C1.02,18.1 4.11,11.09 9.72,6.78 L9.72,6.78 Z" id="Shape" sketch:type="MSShapeGroup"></path>
            <path d="M23.38,87.5 C27.68,85.56 33.85,87.8 34.18,92.97 C35.23,98.17 29.85,102.28 24.98,100.86 C18.46,100.17 17.53,89.88 23.38,87.5 L23.38,87.5 Z" id="Shape" sketch:type="MSShapeGroup"></path>
        </g>
    </g>
</svg>