<?xml version="1.0" encoding="UTF-8"?>
<svg width="96px" height="96px" viewBox="0 0 96 96" version="1.1" xmlns="http://www.w3.org/2000/svg" xmlns:xlink="http://www.w3.org/1999/xlink">
    <!-- Generator: Sketch 49.3 (51167) - http://www.bohemiancoding.com/sketch -->
    <title>toolbar_icon_light_del_pressed</title>
    <desc>Created with Sketch.</desc>
    <defs></defs>
    <g id="toolbar_icon_light_del_pressed" stroke="none" stroke-width="1" fill="none" fill-rule="evenodd">
        <rect id="Rectangle-525" fill="#29AC45" opacity="0" x="0" y="0" width="96" height="96"></rect>
        <g id="icon39" transform="translate(12.000000, 12.000000)" fill="#000000" fill-rule="nonzero">
            <g id="Group-3" transform="translate(10.000000, 9.000000)">
                <path d="M10.3206576,10.1999908 L12.7577175,51.1426047 C12.8331849,52.4104575 13.8833802,53.4 15.1534771,53.4 L36.8465229,53.4 C38.1166198,53.4 39.1668151,52.4104575 39.2422825,51.1426047 L41.6793424,10.1999908 L10.3206576,10.1999908 Z M45.2857143,10.199991 L42.8359219,51.3565118 C42.6472533,54.5261438 40.0217652,57 36.8465229,57 L15.1534771,57 C11.9782348,57 9.35274668,54.5261438 9.16407814,51.3565118 L6.71428568,10.199991 L0.5,10.199991 L0.5,8.09999084 C0.5,7.27156372 1.17157288,6.59999084 2,6.59999084 L50,6.59999084 C50.8284271,6.59999084 51.5,7.27156372 51.5,8.09999084 L51.5,10.199991 L45.2857143,10.199991 Z M32,8.18567073e-05 C32.8284271,8.18567073e-05 33.5,0.671654732 33.5,1.50008186 L33.5,3.6000727 L18.5,3.6000727 L18.5,1.50008186 C18.5,0.671654732 19.1715729,8.18567073e-05 20,8.18567073e-05 L32,8.18567073e-05 Z" id="Combined-Shape"></path>
                <path d="M18.5,18 L22.1000366,18 L23.6000366,45 L20,45 L18.5,18 Z M29.8999634,18 L33.5,18 L32,45 L28.3999634,45 L29.8999634,18 Z" id="Combined-Shape"></path>
            </g>
        </g>
    </g>
</svg>