<?xml version="1.0" encoding="UTF-8"?>
<svg width="96px" height="96px" viewBox="0 0 96 96" version="1.1" xmlns="http://www.w3.org/2000/svg" xmlns:xlink="http://www.w3.org/1999/xlink">
    <!-- Generator: Sketch 49.3 (51167) - http://www.bohemiancoding.com/sketch -->
    <title>toolbar_icon_light_share_disabled</title>
    <desc>Created with Sketch.</desc>
    <defs></defs>
    <g id="toolbar_icon_light_share_disabled" stroke="none" stroke-width="1" fill="none" fill-rule="evenodd">
        <rect id="Rectangle-525" fill="#29AC45" opacity="0" x="0" y="0" width="96" height="96"></rect>
        <g id="icon38" opacity="0.2" transform="translate(12.000000, 12.000000)" fill="#000000" fill-rule="nonzero">
            <path d="M56.4,24.6 L48,24.6 L48,21 L57.0031303,21 C58.6526091,21 60,22.337516 60,23.9874255 L60,63.0125745 C60,64.6532394 58.662484,66 57.0125745,66 L14.9874255,66 C13.3467606,66 12,64.662484 12,63.0125745 L12,23.9874255 C12,22.3467606 13.3417443,21 14.9968697,21 L24,21 L24,24.6 L15.6,24.6 L15.6,62.4 L56.4,62.4 L56.4,24.6 Z" id="Combined-Shape"></path>
            <path d="M37.7999818,12.7845491 L37.7999818,40.5 L34.1999817,40.5 L34.1999817,12.7845856 L27.9389828,19.0455845 L25.3933983,16.5 L33.8786797,8.01471863 C35.0502525,6.84314575 36.9497475,6.84314575 38.1213203,8.01471863 L38.5455845,8.4389828 L46.6066017,16.5 L44.0610172,19.0455845 L37.7999818,12.7845491 Z" id="Combined-Shape"></path>
        </g>
    </g>
</svg>