<?xml version="1.0" encoding="UTF-8" standalone="no"?>
<svg width="108px" height="108px" viewBox="0 0 108 108" version="1.1" xmlns="http://www.w3.org/2000/svg" xmlns:xlink="http://www.w3.org/1999/xlink" xmlns:sketch="http://www.bohemiancoding.com/sketch/ns">
    <!-- Generator: Sketch 3.3.3 (12081) - http://www.bohemiancoding.com/sketch -->
    <title>more_setting</title>
    <desc>Created with Sketch.</desc>
    <defs></defs>
    <g id="模块/插件" stroke="none" stroke-width="1" fill="none" fill-rule="evenodd" sketch:type="MSPage">
        <g id="more_setting" sketch:type="MSArtboardGroup" fill="#10AEFF">
            <g id="cellsss" sketch:type="MSLayerGroup" transform="translate(20.000000, 20.000000)">
                <path d="M68.184,29.114 C67.793,28.723 67.323,28.528 66.77,28.528 L63.135,28.528 C62.385,24.973 60.993,21.656 59.072,18.711 L61.64,16.143 C62.031,15.753 62.226,15.282 62.226,14.729 C62.226,14.176 62.031,13.706 61.64,13.315 L55.983,7.659 C55.592,7.268 55.122,7.072 54.569,7.072 C54.017,7.072 53.546,7.268 53.155,7.659 L50.587,10.227 C47.641,8.306 44.327,6.901 40.771,6.153 L40.771,2.528 C40.771,1.976 40.576,1.505 40.185,1.114 C39.794,0.724 39.324,0.528 38.771,0.528 L30.771,0.528 C30.218,0.528 29.748,0.724 29.357,1.114 C28.966,1.505 28.771,1.976 28.771,2.528 L28.771,6.153 C24.975,6.952 21.464,8.507 18.374,10.632 L15.857,8.115 C15.465,7.724 14.994,7.528 14.44,7.528 C13.887,7.528 13.415,7.724 13.024,8.115 L7.358,13.781 C6.966,14.173 6.771,14.644 6.771,15.198 C6.771,15.751 6.966,16.222 7.358,16.614 L10.085,19.341 C8.367,22.129 7.095,25.22 6.398,28.528 L2.771,28.528 C2.218,28.528 1.748,28.723 1.357,29.114 C0.966,29.505 0.771,29.975 0.771,30.528 L0.771,38.529 C0.771,39.081 0.966,39.551 1.357,39.943 C1.748,40.333 2.218,40.528 2.771,40.528 L6.406,40.528 C7.156,44.083 8.547,47.401 10.468,50.345 L7.901,52.912 C7.51,53.303 7.315,53.774 7.315,54.327 C7.315,54.879 7.51,55.35 7.901,55.741 L13.558,61.398 C13.949,61.788 14.419,61.983 14.972,61.983 C15.524,61.983 15.995,61.788 16.386,61.398 L18.955,58.829 C21.901,60.75 25.214,62.154 28.771,62.902 L28.771,66.527 C28.771,67.08 28.966,67.55 29.357,67.941 C29.748,68.332 30.218,68.527 30.771,68.527 L38.771,68.527 C39.324,68.527 39.794,68.332 40.185,67.941 C40.576,67.55 40.771,67.08 40.771,66.527 L40.771,62.902 C44.08,62.206 47.171,60.934 49.959,59.215 L52.685,61.941 C53.077,62.332 53.548,62.527 54.102,62.527 C54.655,62.527 55.127,62.332 55.518,61.941 L61.184,56.275 C61.576,55.883 61.771,55.412 61.771,54.859 C61.771,54.304 61.576,53.833 61.184,53.442 L58.666,50.924 C60.79,47.834 62.345,44.323 63.144,40.527 L66.771,40.527 C67.324,40.527 67.794,40.332 68.185,39.942 C68.576,39.55 68.771,39.08 68.771,38.528 L68.771,30.527 C68.77,29.976 68.574,29.505 68.184,29.114 L68.184,29.114 Z M34.769,56.528 C22.62,56.528 12.77,46.678 12.77,34.528 C12.77,22.378 22.62,12.528 34.769,12.528 C46.92,12.528 56.77,22.378 56.77,34.528 C56.77,46.678 46.92,56.528 34.769,56.528 L34.769,56.528 Z" id="Shape" sketch:type="MSShapeGroup"></path>
            </g>
        </g>
    </g>
</svg>