<?xml version="1.0" encoding="UTF-8" standalone="no"?>
<svg width="72px" height="72px" viewBox="0 0 72 72" version="1.1" xmlns="http://www.w3.org/2000/svg" xmlns:xlink="http://www.w3.org/1999/xlink">
    <!-- Generator: Sketch 3.6.1 (26313) - http://www.bohemiancoding.com/sketch -->
    <title>音乐暂停按钮按压 3x</title>
    <desc>Created with Sketch.</desc>
    <defs></defs>
    <g id="音乐／视频／小视频／图片" stroke="none" stroke-width="1" fill="none" fill-rule="evenodd">
        <g id="音乐暂停按钮按压-3x">
            <circle id="Oval-154" fill-opacity="0.1" fill="#000000" cx="36" cy="36" r="34.5"></circle>
            <path d="M36,72 C55.882251,72 72,55.882251 72,36 C72,16.117749 55.882251,0 36,0 C16.117749,0 0,16.117749 0,36 C0,55.882251 16.117749,72 36,72 Z M36,67.5 C53.3969696,67.5 67.5,53.3969696 67.5,36 C67.5,18.6030304 53.3969696,4.5 36,4.5 C18.6030304,4.5 4.5,18.6030304 4.5,36 C4.5,53.3969696 18.6030304,67.5 36,67.5 Z" id="Oval-41-Copy-2" fill="#E5E5E5"></path>
            <rect id="Rectangle-430" fill="#E5E5E5" x="24" y="24" width="24" height="24" rx="3"></rect>
        </g>
    </g>
</svg>