<?xml version="1.0" encoding="UTF-8" standalone="no"?>
<svg width="96px" height="84px" viewBox="0 0 96 84" version="1.1" xmlns="http://www.w3.org/2000/svg" xmlns:xlink="http://www.w3.org/1999/xlink" xmlns:sketch="http://www.bohemiancoding.com/sketch/ns">
    <!-- Generator: Sketch 3.3.3 (12081) - http://www.bohemiancoding.com/sketch -->
    <title>navbar_me_icon_focus</title>
    <desc>Created with Sketch.</desc>
    <defs></defs>
    <g id="导航栏" stroke="none" stroke-width="1" fill="none" fill-rule="evenodd" sketch:type="MSPage">
        <g id="navbar_me_icon_focus" sketch:type="MSArtboardGroup" fill="#45C01A">
            <g sketch:type="MSLayerGroup" transform="translate(16.900000, 11.000000)" id="Shape">
                <path d="M24.496,1.694 C27.29,0.163 30.624,-0.37 33.751,0.264 C36.855,0.865 39.674,2.588 41.815,4.89 C44.433,7.703 46.105,11.33 46.761,15.102 C47.716,20.528 46.661,26.362 43.544,30.943 C42.692,32.194 41.686,33.342 40.546,34.339 C40.051,34.793 39.54,35.269 39.254,35.889 C39.036,36.362 39.113,36.896 39.1,37.401 C39.108,37.778 39.039,38.197 39.274,38.525 C39.747,39.23 40.511,39.656 41.225,40.079 C46.19,43.181 51.155,46.285 56.12,49.388 C56.386,49.557 56.652,49.73 56.941,49.862 C58.565,50.625 59.95,51.889 60.857,53.438 C61.652,54.781 62.084,56.336 62.098,57.897 C62.103,59.264 62.098,60.632 62.1,62 L0.1,62 C0.101,60.632 0.098,59.265 0.101,57.898 C0.118,56.073 0.708,54.26 1.772,52.777 C2.712,51.443 4.034,50.401 5.517,49.733 C10.635,46.55 15.741,43.345 20.855,40.154 C21.542,39.728 22.232,39.279 22.774,38.671 C22.988,38.436 23.139,38.131 23.102,37.805 C23.061,37.112 23.229,36.357 22.865,35.725 C22.432,34.954 21.711,34.416 21.083,33.815 C18.607,31.451 16.873,28.367 15.939,25.086 C14.334,19.407 15.024,13.05 18.073,7.967 C19.632,5.377 21.82,3.129 24.496,1.694 L24.496,1.694 Z" sketch:type="MSShapeGroup"></path>
            </g>
        </g>
    </g>
</svg>