<?xml version="1.0" encoding="UTF-8" standalone="no"?>
<svg width="96px" height="84px" viewBox="0 0 96 84" version="1.1" xmlns="http://www.w3.org/2000/svg" xmlns:xlink="http://www.w3.org/1999/xlink" xmlns:sketch="http://www.bohemiancoding.com/sketch/ns">
    <!-- Generator: Sketch 3.3.3 (12081) - http://www.bohemiancoding.com/sketch -->
    <title>navbar_addresslist_icon_focus</title>
    <desc>Created with Sketch.</desc>
    <defs></defs>
    <g id="导航栏" stroke="none" stroke-width="1" fill="none" fill-rule="evenodd" sketch:type="MSPage">
        <g id="navbar_addresslist_icon_focus" sketch:type="MSArtboardGroup" fill="#45C01A">
            <g sketch:type="MSLayerGroup" transform="translate(12.000000, 11.000000)" id="Shape">
                <path d="M25.5475173,1.161 C28.4474896,-0.117 31.7928433,-0.355 34.8356172,0.539 C38.5834119,1.605 41.7330374,4.275 43.7991678,7.537 C47.82957,13.897 48.0942025,22.41 44.6100416,29.065 C43.5565049,31.072 42.1484605,32.898 40.4368377,34.386 C39.878613,34.913 39.2584743,35.477 39.0837171,36.258 C39.0078225,36.803 39.0597503,37.358 39.0457698,37.907 C39.0228017,38.278 39.2385021,38.604 39.481165,38.863 C39.9435229,39.353 40.5247157,39.706 41.1039112,40.04 C46.2727323,43.266 51.4305687,46.512 56.6033842,49.732 C58.0174202,50.372 59.2866574,51.347 60.2143689,52.598 C61.3557836,54.114 61.9988904,55.999 62.0118724,57.899 C62.0168655,59.266 62.0118724,60.633 62.0138696,62 L0.0998613037,62 C0.0998613037,60.634 0.0988626907,59.268 0.100859917,57.903 C0.116837725,56.075 0.707018031,54.26 1.77054092,52.775 C2.70823856,51.443 4.02740638,50.402 5.5073509,49.734 C10.6402219,46.538 15.760111,43.319 20.8889875,40.115 C21.5151179,39.728 22.1322607,39.313 22.6455479,38.78 C22.8652427,38.541 23.0909293,38.252 23.0679612,37.907 C23.052982,37.357 23.1059085,36.802 23.0300139,36.256 C22.8462691,35.454 22.201165,34.879 21.6259639,34.34 C19.0844938,32.121 17.2460472,29.16 16.188516,25.967 C14.1922885,19.915 14.8803329,12.951 18.3105687,7.544 C20.0551456,4.792 22.5486824,2.472 25.5475173,1.161 L25.5475173,1.161 Z" sketch:type="MSShapeGroup"></path>
                <path d="M56.0221914,17 L72,17 L72,21 L56.0221914,21 L56.0221914,17 L56.0221914,17 Z" sketch:type="MSShapeGroup"></path>
                <path d="M52.0277393,29 L72,29 L72,33 L52.0277393,33 L52.0277393,29 L52.0277393,29 Z" sketch:type="MSShapeGroup"></path>
                <path d="M56.0221914,41 L72,41 L72,45 L56.0221914,45 L56.0221914,41 L56.0221914,41 Z" sketch:type="MSShapeGroup"></path>
            </g>
        </g>
    </g>
</svg>