<?xml version="1.0" encoding="UTF-8" standalone="no"?>
<svg width="96px" height="96px" viewBox="0 0 96 96" version="1.1" xmlns="http://www.w3.org/2000/svg" xmlns:xlink="http://www.w3.org/1999/xlink" xmlns:sketch="http://www.bohemiancoding.com/sketch/ns">
    <!-- Generator: Sketch 3.3 (11970) - http://www.bohemiancoding.com/sketch -->
    <title>net_warn_icon</title>
    <desc>Created with Sketch.</desc>
    <defs></defs>
    <g id="提示" stroke="none" stroke-width="1" fill="none" fill-rule="evenodd" sketch:type="MSPage">
        <g id="net_warn_icon" sketch:type="MSArtboardGroup" fill="#FFBE00">
            <path d="M5.20806753,81.8492502 C3.95415841,83.9998734 4.95072845,85.7432979 7.44747546,85.7432979 L88.7463862,85.7432979 C91.2370862,85.7432979 92.2389263,83.9985407 90.9857941,81.8492502 L50.3673341,12.1831178 C49.113425,10.0324947 47.0796596,10.0338273 45.8265275,12.1831178 L5.20806753,81.8492502 Z M45.8965656,36.946117 C45.0705871,36.946117 44.432063,37.6173722 44.4707522,38.4534053 L45.6327397,63.5627611 L50.5597013,63.5627611 L51.7216888,38.4534053 C51.7602122,37.620953 51.1225545,36.946117 50.2958754,36.946117 L45.8965656,36.946117 Z M48.0962205,75.3923807 C50.1370348,75.3923807 51.7914416,73.7372866 51.7914416,71.6956246 C51.7914416,69.6539626 50.1370348,67.9988685 48.0962205,67.9988685 C46.0554062,67.9988685 44.4009993,69.6539626 44.4009993,71.6956246 C44.4009993,73.7372866 46.0554062,75.3923807 48.0962205,75.3923807 Z" id="Fill-7" sketch:type="MSShapeGroup"></path>
        </g>
    </g>
</svg>