<?xml version="1.0" encoding="UTF-8" standalone="no"?>
<svg width="96px" height="96px" viewBox="0 0 96 96" version="1.1" xmlns="http://www.w3.org/2000/svg" xmlns:xlink="http://www.w3.org/1999/xlink" xmlns:sketch="http://www.bohemiancoding.com/sketch/ns">
    <!-- Generator: Sketch 3.3.3 (12072) - http://www.bohemiancoding.com/sketch -->
    <title>ofm_moment_icon</title>
    <desc>Created with Sketch.</desc>
    <defs></defs>
    <g id="OFM菜单" stroke="none" stroke-width="1" fill="none" fill-rule="evenodd" sketch:type="MSPage">
        <g id="ofm_moment_icon" sketch:type="MSArtboardGroup" fill="#FFFFFF">
            <path d="M47.999,33 C48.731,33 49.446,33.07 50.15,33.172 L35.518,18.54 C28.743,21.415 23.158,26.549 19.726,33.009 L47.836,33.009 C47.892,33.009 47.944,33 47.999,33 L47.999,33 Z M62.999,19.75 L62.999,48 C62.999,48.715 62.932,49.413 62.835,50.101 L77.455,35.48 C74.58,28.725 69.44,23.178 62.999,19.75 L62.999,19.75 Z M58.624,37.414 C59.124,37.915 59.574,38.462 59.999,39.029 L59.999,18.337 C56.292,16.836 52.245,16 47.999,16 C44.737,16 41.595,16.501 38.63,17.409 L58.63,37.409 L58.624,37.414 L58.624,37.414 Z M39.023,36.009 L18.331,36.009 C16.832,39.713 16,43.758 16,48 C16,51.279 16.507,54.437 17.424,57.416 L36.871,37.969 C37.521,37.247 38.245,36.594 39.023,36.009 L39.023,36.009 Z M32.999,76.267 L32.999,47.999 C32.999,47.292 33.065,46.602 33.16,45.921 L18.557,60.524 C21.435,67.277 26.558,72.842 32.999,76.267 L32.999,76.267 Z M35.999,56.976 L35.999,77.664 C39.706,79.165 43.754,79.999 47.999,79.999 C51.291,79.999 54.459,79.488 57.447,78.564 L38.434,59.552 C37.521,58.797 36.711,57.926 35.999,56.976 L35.999,56.976 Z M78.59,38.589 L58.948,58.231 C58.341,58.88 57.669,59.466 56.957,60.001 L77.665,60.001 C79.166,56.294 80,52.246 80,48.001 C79.999,44.724 79.505,41.564 78.59,38.589 L78.59,38.589 Z M45.971,62.847 L60.554,77.43 C67.293,74.55 72.846,69.431 76.267,63 L47.999,63 C47.31,63 46.636,62.937 45.971,62.847 L45.971,62.847 Z" id="Shape" sketch:type="MSShapeGroup"></path>
        </g>
    </g>
</svg>