<?xml version="1.0" encoding="UTF-8" standalone="no"?>
<svg width="96px" height="96px" viewBox="0 0 96 96" version="1.1" xmlns="http://www.w3.org/2000/svg" xmlns:xlink="http://www.w3.org/1999/xlink" xmlns:sketch="http://www.bohemiancoding.com/sketch/ns">
    <!-- Generator: Sketch 3.3.3 (12081) - http://www.bohemiancoding.com/sketch -->
    <title>ofm_shake_icon</title>
    <desc>Created with Sketch.</desc>
    <defs></defs>
    <g id="Page-1" stroke="none" stroke-width="1" fill="none" fill-rule="evenodd" sketch:type="MSPage">
        <g id="#ffffffff" sketch:type="MSLayerGroup" fill="#FFFFFF">
            <path d="M16,22 C15.7478774,20.113762 16.9166761,17.9661548 19,18 C27.6056893,17.9162105 36.3067459,18.0660435 45,18 C45.0677409,23.3801228 44.8979154,28.7541352 45,34 C44.9778333,35.5965117 46.3963752,37.0349091 48,37 C53.2493314,37.0948423 58.6238072,36.9450093 64,37 C63.9383446,49.6708306 64.0782009,62.3566965 64,75 C64.0182625,77.0503253 61.8804598,78.2689676 60,78 C46.366406,77.9193571 32.6704834,78.0192458 19,78 C16.9666247,78.0292347 15.7378877,75.8916163 16,74 C16.0275899,56.6930067 16.0275899,39.2923939 16,22 L16,22 Z M22,48 L22,51 L42,51 L42,48 L22,48 L22,48 Z M22,56 L22,59 L48,59 L48,56 L22,56 L22,56 Z M22,64 L22,67 L48,67 L48,64 L22,64 L22,64 Z" id="Shape" sketch:type="MSShapeGroup"></path>
            <path d="M48,18 C53.3489834,23.3207439 58.6695006,28.6514704 64,34 C59.0088957,33.872388 54.0078092,34.1618844 49,34 C48.8070785,33.6128395 48.3578791,33.1236904 48,33 C47.8487865,27.9327208 48.1183061,22.9613691 48,18 L48,18 Z" id="Shape" sketch:type="MSShapeGroup"></path>
        </g>
    </g>
</svg>