<?xml version="1.0" encoding="UTF-8" standalone="no"?>
<svg width="96px" height="96px" viewBox="0 0 96 96" version="1.1" xmlns="http://www.w3.org/2000/svg" xmlns:xlink="http://www.w3.org/1999/xlink" xmlns:sketch="http://www.bohemiancoding.com/sketch/ns">
    <!-- Generator: Sketch 3.3.3 (12081) - http://www.bohemiancoding.com/sketch -->
    <title>ofm_nearby_icon</title>
    <desc>Created with Sketch.</desc>
    <defs></defs>
    <g id="Page-1" stroke="none" stroke-width="1" fill="none" fill-rule="evenodd" sketch:type="MSPage">
        <g id="#ffffffff" sketch:type="MSLayerGroup" transform="translate(15.000000, 22.000000)" fill="#FFFFFF">
            <path d="M11,11 C9.95157316,6.60499975 12.7151298,1.5564079 17,0 C21.7167146,-1.16902714 27.143699,2.21011004 28,7 C28.6556449,10.9294908 26.3426681,14.7008492 23,17 C22.9983641,17.1648034 22.9883512,18.4822646 23,19 C29.6569335,19.1359668 36.3455416,19.1359668 43,19 C43.0141239,18.3414673 42.9940981,16.7625252 43,16 C38.3681446,12.920768 37.5871395,5.57919026 42,2 C46.1982218,-1.76238754 53.6177705,0.14843408 55,5 C57.1723452,9.6723713 54.9394715,14.4997101 51,17 C51.0344459,17.1547465 51.024433,18.4722077 51,19 C55.3299741,19.2465933 59.6655539,18.8945998 64,19 C66.6645615,20.0410928 66.6745744,24.2147295 64,25 C59.6855797,25.4115072 55.3299741,25.0595138 51,25 C51.1045361,26.9099937 50.6940077,28.8409292 52,30 C55.2698968,36.8160952 59.1448838,43.0715218 63,50 C64.0712239,52.4948894 59.6355152,55.4918623 58,53 C53.7779767,47.1546459 50.6239175,40.979675 47,35 C43.8752321,40.6176245 40.7311858,46.2294059 38,52 C36.1953483,54.5364515 31.7095752,54.5666223 30,53 C26.0623073,46.9736207 22.8882223,40.9092763 19,35 C15.9893436,40.8791054 12.8352844,46.903222 9,53 C7.33820982,55.7533431 2.16154757,52.5250603 4,49 C7.58853198,42.7496992 11.5436221,36.2730196 15,30 C16.1595627,28.3481384 15.9192534,26.6887406 16,25 C11.3834159,25.0595138 6.67735932,25.4115072 2,25 C-0.652073492,24.2750712 -0.692125037,20.0109219 2,19 C6.64732066,18.8242011 11.3333515,19.2767642 16,19 C15.9793307,18.4822646 15.9693179,17.1648034 16,17 C13.8966504,15.1936401 11.9241118,13.4336728 11,11 L11,11 Z M23,25 C23.1491795,26.464656 22.8309299,28.0777568 24,29 C26.8587767,34.9359095 30.0810542,40.4580584 33,46 C36.2769766,40.7747408 39.3202387,35.5692743 42,30 C43.3182496,28.7408106 42.8607658,26.771442 43,25 L23,25 L23,25 Z" id="Shape" sketch:type="MSShapeGroup"></path>
        </g>
    </g>
</svg>