<?xml version="1.0" encoding="UTF-8" standalone="no"?>
<svg width="96px" height="96px" viewBox="0 0 96 96" version="1.1" xmlns="http://www.w3.org/2000/svg" xmlns:xlink="http://www.w3.org/1999/xlink" xmlns:sketch="http://www.bohemiancoding.com/sketch/ns">
    <!-- Generator: Sketch 3.3.3 (12081) - http://www.bohemiancoding.com/sketch -->
    <title>ofm_add_icon</title>
    <desc>Created with Sketch.</desc>
    <defs></defs>
    <g id="Page-1" stroke="none" stroke-width="1" fill="none" fill-rule="evenodd" sketch:type="MSPage">
        <g id="#ffffffff" sketch:type="MSLayerGroup" transform="translate(10.000000, 20.000000)" fill="#FFFFFF">
            <path d="M23,1 C28.7779533,-1.11862521 35.400657,0.561031367 39,5 C41.0673011,8.92932041 40.7784915,13.4883883 41,18 C40.1212006,22.5565342 36.2770448,26.0558188 35,30 C33.6180044,32.6444717 35.0022988,34.9739954 37,36 C42.4515956,39.8829917 48.8751202,42.3924786 54,47 C56.6032677,49.0611152 57.0812974,55.3298335 53,56 C36.5857723,56.0696822 20.2730075,55.9597047 4,56 C-0.899726341,56.339627 -0.939562152,49.2610743 2,47 C7.22677922,42.1725236 14.028744,39.7330224 20,36 C21.7967273,34.2641405 22.3145929,31.3347395 21,29 C18.4505191,24.8160722 14.8055424,20.5069533 15,15 C14.5665275,9.13927748 17.3649933,2.43064911 23,1 L23,1 Z" id="Shape" sketch:type="MSShapeGroup"></path>
            <path d="M59,14 C59.5507954,11.2919867 64.4960904,11.3118962 65,14 C65.0982122,17.4041742 64.9106661,20.7091354 65,24 C68.6023633,24.0738249 72.2447064,23.8846856 76,24 C77.3972892,25.3480268 77.3380641,28.5932599 76,30 C72.2644481,30.1163294 68.6122342,29.9271901 65,30 C64.9106661,33.3217436 65.108083,36.656569 65,40 C64.3578985,42.6990735 59.5409245,42.6692094 59,40 C58.8993194,36.6067955 59.1066072,33.2918795 59,30 C55.4050391,29.9271901 51.762696,30.1163294 48,30 C46.6594674,28.6629428 46.560759,25.208661 48,24 C51.8120503,23.8747309 55.4346516,24.0738249 59,24 C59.1066072,20.7091354 58.9091903,17.3942195 59,14 L59,14 Z" id="Shape" sketch:type="MSShapeGroup"></path>
        </g>
    </g>
</svg>