<?xml version="1.0" encoding="UTF-8" standalone="no"?>
<svg width="96px" height="96px" viewBox="0 0 96 96" version="1.1" xmlns="http://www.w3.org/2000/svg" xmlns:xlink="http://www.w3.org/1999/xlink" xmlns:sketch="http://www.bohemiancoding.com/sketch/ns">
    <!-- Generator: Sketch 3.3.3 (12081) - http://www.bohemiancoding.com/sketch -->
    <title>ofm_audio_icon</title>
    <desc>Created with Sketch.</desc>
    <defs></defs>
    <g id="Page-1" stroke="none" stroke-width="1" fill="none" fill-rule="evenodd" sketch:type="MSPage">
        <g id="ofm_audio_icon" sketch:type="MSLayerGroup" transform="translate(20.000000, 19.000000)" fill="#FFFFFF">
            <path d="M2.25318193,8.69192337 C4.72521659,5.04949853 8.26381459,2.06570395 12.1313527,-3.55271368e-15 C14.8326486,0.518920798 15.6998543,3.88192674 17.4043621,5.74804576 C19.0689983,8.80169507 22.4580781,11.3464028 22.7471467,14.8590975 C20.3349193,17.6932034 16.5471243,18.8507959 13.3274985,20.5273093 C15.2313639,26.9040475 19.7368464,32.0533385 24.5114617,36.5040823 C27.7709591,39.5377731 31.5288505,42.0924601 35.8050717,43.4596168 C37.5095795,40.1864241 38.5960786,36.2745596 41.4668285,33.8496028 C44.9854907,34.2787104 47.4774612,37.7115711 50.527633,39.4379806 C52.3318195,41.1244732 55.5016059,41.9926677 56,44.6371679 C54.0562631,48.4392606 51.2353526,51.8920798 47.8462728,54.4866838 C45.0851695,56.6721387 41.3173103,56.2130934 38.30701,54.8559159 C22.0095234,48.0201323 8.73230503,34.4084406 2.14353523,18.00256 C0.95735731,15.0487031 0.269573473,11.4861123 2.25318193,8.69192337 L2.25318193,8.69192337 Z" id="Shape" sketch:type="MSShapeGroup"></path>
        </g>
    </g>
</svg>