<?xml version="1.0" encoding="UTF-8" standalone="no"?>
<svg width="96px" height="96px" viewBox="0 0 96 96" version="1.1" xmlns="http://www.w3.org/2000/svg" xmlns:xlink="http://www.w3.org/1999/xlink" xmlns:sketch="http://www.bohemiancoding.com/sketch/ns">
    <!-- Generator: Sketch 3.3 (11970) - http://www.bohemiancoding.com/sketch -->
    <title>ofm_wallet_icon</title>
    <desc>Created with Sketch.</desc>
    <defs></defs>
    <g id="OFM菜单" stroke="none" stroke-width="1" fill="none" fill-rule="evenodd" sketch:type="MSPage">
        <g id="ofm_wallet_icon" sketch:type="MSArtboardGroup" fill="#FFFFFF">
            <path d="M57,48 C57,50.762 59.238,53 62,53 C64.762,53 67,50.762 67,48 C67,45.239 64.762,43 62,43 C59.238,43 57,45.239 57,48 Z M77,25 L19,25 C17.344,25 16,26.343 16,28 L16,68 C16,69.657 17.344,71 19,71 L77,71 C78.656,71 80,69.657 80,68 L80,58 L62,58 C56.477,58 52,53.523 52,48 C52,42.478 56.477,38 62,38 L80,38 L80,28 C80,26.344 78.656,25 77,25 Z" id="Path" sketch:type="MSShapeGroup"></path>
        </g>
    </g>
</svg>