<?xml version="1.0" encoding="UTF-8"?>
<svg width="72px" height="72px" viewBox="0 0 72 72" version="1.1" xmlns="http://www.w3.org/2000/svg" xmlns:xlink="http://www.w3.org/1999/xlink">
    <!-- Generator: Sketch 50.2 (55047) - http://www.bohemiancoding.com/sketch -->
    <title>细logo@3</title>
    <desc>Created with Sketch.</desc>
    <defs></defs>
    <g id="细logo@3" stroke="none" stroke-width="1" fill="none" fill-rule="evenodd">
        <path d="M55.2704355,33.955382 C54.5341504,33.3420943 53.5659921,32.9698115 52.5054461,32.9698115 C51.6577391,32.9698115 50.8690585,33.2076628 50.2106368,33.6163244 C49.8960845,25.8263525 42.5005745,19.8161311 33.4420135,19.8161311 C24.1839327,19.8161311 17.0936244,26.0940251 17.0936244,34.1336047 C17.0936244,38.5001013 19.1913881,42.3692472 22.93696,45.0848295 C23.1367366,45.2296698 23.2183265,45.3673466 23.3065775,45.6954411 C23.3948286,46.0235355 23.3878133,46.1424496 23.3065775,46.4589714 C23.1287642,47.1517921 22.8620443,48.1910232 22.5064177,49.5766646 C22.4271237,49.8687921 22.3963422,49.9632668 22.5312937,50.0601684 C22.6662452,50.1570701 22.8614246,50.0362915 22.9882457,49.9592822 C24.5558535,48.9977007 25.7636004,48.276675 26.6114864,47.7962051 C26.7905155,47.6947551 27.0618951,47.5598019 27.4425365,47.5286708 C27.8231779,47.4975397 27.9987416,47.5716877 28.3011054,47.6580181 C29.9649761,48.1330838 31.6532014,48.4288451 33.4420135,48.4288451 C35.1085913,48.4288451 36.7188782,48.2261317 38.2391353,47.84679 C38.2782436,49.6703291 39.3235021,51.2456687 40.8409641,52.0378595 C38.6147863,52.7174377 36.2182811,53.0862559 33.7165103,53.0862559 C31.4749817,53.0862559 28.9945793,52.6571246 26.8991388,52.0773528 L20.6945216,55.2626953 C20.3331893,55.4444042 19.8148333,55.5876996 19.4136575,55.4681874 C18.3454061,55.1499503 17.9157437,54.4610894 18.063162,53.336386 L18.836742,48.0249023 C14.6172652,44.4553733 12,39.3339557 12,34.076087 C12,23.530424 21.7313973,15 33.7165103,15 C45.6558627,15 55.1977456,23.4654082 55.2704355,33.955382 Z" id="Combined-Shape" fill="#0085F2" fill-rule="nonzero"></path>
        <path d="M53.0889771,53.0776167 C53.0249983,53.0666446 52.9604431,53.0574049 52.8953116,53.0504751 C50.9990035,52.6964785 49.3829122,51.9824042 47.9160113,50.5121345 C47.8099564,50.4064552 47.7073598,50.298466 47.6076451,50.1887444 C47.3079246,49.8890311 46.8226081,49.8890311 46.523464,50.1893219 C46.2433407,50.4694008 46.2254728,50.9129071 46.4692838,51.2143529 C46.485999,51.2351422 46.5038669,51.2553541 46.523464,51.2749885 C46.5568944,51.3084825 46.5932067,51.3373566 46.6306717,51.3633433 C46.7050255,51.4337961 46.7793792,51.5054039 46.8520037,51.5781667 C48.2866271,53.01552 48.9908766,54.5871553 49.360916,56.4408733 C49.3672563,56.5453976 49.378784,56.6493444 49.3954992,56.7527137 C49.4133671,56.8664777 49.4375753,56.9796642 49.4681237,57.0916958 C49.6099145,57.6125848 49.884274,58.1051771 50.2929313,58.514612 C51.5448405,59.7689034 53.5742936,59.7689034 54.8256265,58.514612 C56.0775356,57.2603206 56.0775356,55.2270056 54.8256265,53.9732917 C54.3846916,53.5309403 53.8463476,53.2456641 53.2803371,53.1151531 C53.2169347,53.100716 53.1529559,53.0880114 53.0889771,53.0776167 Z" id="Fill-4" fill="#FB6500"></path>
        <path d="M59.1590869,44.7175971 C58.718152,45.1599485 58.4334176,45.6987394 58.3031545,46.265827 C58.2887448,46.32935 58.2760644,46.3934505 58.265113,46.4575511 C58.2547381,46.5222291 58.2455159,46.5869071 58.2385993,46.6515851 C57.885275,48.5515017 57.1729562,50.171068 55.7054788,51.6413378 C55.6000003,51.7470171 55.4916398,51.8498089 55.382703,51.9497133 C55.0835589,52.2500041 55.0835589,52.7362441 55.3832794,53.0359574 C55.6628263,53.3166138 56.1054903,53.3345157 56.4069399,53.0902407 C56.4271134,53.0734938 56.4472869,53.0555918 56.466884,53.0359574 C56.5003144,53.0024634 56.5291336,52.9666595 56.5556474,52.9291232 C56.62539,52.8540505 56.6962854,52.7801328 56.7694864,52.7067925 C58.2041098,51.2694392 59.969002,50.366257 61.8197757,49.9960909 C61.9241014,49.9897386 62.0278508,49.978189 62.1310238,49.961442 C62.2445717,49.94354 62.3575433,49.9187083 62.4693621,49.8881017 C62.9898381,49.7460411 63.2842775,49.6683523 63.6923584,49.2594949 C64.9442676,48.0052035 64.9442676,45.9718885 63.6923584,44.7175971 C62.4410256,43.4633057 60.4109961,43.4633057 59.1590869,44.7175971 Z" id="Fill-6" fill="#0085F2"></path>
        <path d="M49.9211485,40.3756062 C50.3620833,40.8173801 50.9004273,41.1026563 51.4664378,41.2331673 C51.5298402,41.2476044 51.593819,41.260309 51.6577978,41.2712811 C51.722353,41.2816758 51.7869082,41.2909155 51.8514633,41.2978453 C53.7483478,41.6518419 55.3638627,42.3659162 56.8307636,43.8361859 C56.9368186,43.9418652 57.0394152,44.0504318 57.1397062,44.159576 C57.4394267,44.4592893 57.9241668,44.4592893 58.2238873,44.159576 C58.5034342,43.8789196 58.5213022,43.4354133 58.2774911,43.1339675 C58.2607759,43.1131782 58.242908,43.0929663 58.2238873,43.0733319 C58.1904569,43.0398379 58.1541446,43.0109638 58.1166796,42.9849771 C58.0417495,42.9145243 57.9679721,42.8429165 57.8947712,42.7701537 C56.4601478,41.3328004 55.7558983,39.7617426 55.3858589,37.9074471 C55.380095,37.8029228 55.3685673,37.698976 55.3518521,37.5956067 C55.3339842,37.4818427 55.3091996,37.3686562 55.2792276,37.2566246 C55.1368604,36.7357356 54.8625009,36.2431433 54.45442,35.8337084 C53.2025108,34.579417 51.1730577,34.579417 49.9211485,35.8337084 C48.6698157,37.0879998 48.6698157,39.1213148 49.9211485,40.3756062 Z" id="Fill-8" fill="#2DBC00"></path>
        <path d="M46.508118,47.6967931 C46.8620186,45.7968765 47.5743375,44.1773101 49.0412384,42.7070403 C49.1472934,42.6013611 49.2550774,42.4985693 49.3645907,42.3986648 C49.6631583,42.0983741 49.6631583,41.612134 49.3640143,41.3124207 C49.083891,41.0317644 48.6412269,41.0138624 48.3403537,41.2581374 C48.3196039,41.2748844 48.2994304,41.2927863 48.2804097,41.3124207 C48.2469793,41.3459147 48.2175836,41.3817186 48.1916463,41.419255 C48.1213273,41.4943276 48.0504319,41.5682454 47.9772309,41.6415856 C46.5431839,43.0789389 44.9749327,43.7849284 43.124159,44.1550945 C43.0204096,44.1614468 42.9166602,44.1729964 42.8129109,44.1897434 C42.6993629,44.2076454 42.5863914,44.2324771 42.475149,44.2630837 C41.9546729,44.4051443 41.4630161,44.6800258 41.0543589,45.0888833 C39.8024497,46.3431747 39.8024497,48.3764897 41.0543589,49.6307811 C42.3062681,50.8850725 44.3357212,50.8850725 45.5876304,49.6307811 C46.0285653,49.1890072 46.3138761,48.6496387 46.4441392,48.0825512 C46.4585488,48.0190281 46.4712293,47.9549276 46.4816042,47.8908271 C46.4925556,47.8261491 46.5012013,47.7614711 46.508118,47.6967931 Z" id="Fill-10" fill="#FFCC00"></path>
    </g>
</svg>