<?xml version="1.0" encoding="UTF-8"?>
<svg width="192px" height="192px" viewBox="0 0 192 192" version="1.1" xmlns="http://www.w3.org/2000/svg" xmlns:xlink="http://www.w3.org/1999/xlink">
    <!-- Generator: Sketch 50.2 (55047) - http://www.bohemiancoding.com/sketch -->
    <title>chatromm_toolpanel_icon_luckymoney@3x</title>
    <desc>Created with Sketch.</desc>
    <defs></defs>
    <g id="chatromm_toolpanel_icon_luckymoney" stroke="none" stroke-width="1" fill="none" fill-rule="evenodd">
        <path d="M96,96.2499142 C92.5482143,96.2499142 89.75,93.4516998 89.75,89.9999139 C89.75,86.5481281 92.5482143,83.7499137 96,83.7499137 C99.4517857,83.7499137 102.25,86.5481281 102.25,89.9999139 C102.25,93.4516998 99.4517857,96.2499142 96,96.2499142 M126,63.0059549 C126,61.3458119 124.66269,60 123.004063,60 L68.9959374,60 C67.3413269,60 66,61.3470165 66,63.0059549 L66,65.8077679 C66,76.3824107 75.1671429,85.2964583 87.6925714,88.0816667 C87.5262857,88.7522917 87.4285714,89.4496726 87.4285714,90.1720833 C87.4285714,90.458631 87.444,90.7417262 87.4714286,91.021369 C79.2025714,89.7267262 71.7977143,86.5859226 66,82.1789583 L66,132.008769 C66,133.66078 67.3373097,135 68.9959374,135 L123.004063,135 C124.658673,135 126,133.654585 126,132.008769 L126,82.1789583 C120.202286,86.5859226 112.797429,89.7267262 104.528571,91.021369 C104.556,90.7417262 104.571429,90.458631 104.571429,90.1720833 C104.571429,89.4496726 104.473714,88.7522917 104.307429,88.0816667 C116.832857,85.2964583 126,76.3824107 126,65.8077679 L126,63.0059549 Z" id="Fill-1" fill="#333333"></path>
    </g>
</svg>