<?xml version="1.0" encoding="UTF-8"?>
<svg width="192px" height="192px" viewBox="0 0 192 192" version="1.1" xmlns="http://www.w3.org/2000/svg" xmlns:xlink="http://www.w3.org/1999/xlink">
    <!-- Generator: Sketch 50.2 (55047) - http://www.bohemiancoding.com/sketch -->
    <title>chatromm_toolpanel_icon_files@3x</title>
    <desc>Created with Sketch.</desc>
    <defs></defs>
    <g id="chatromm_toolpanel_icon_files" stroke="none" stroke-width="1" fill="none" fill-rule="evenodd">
        <g id="Picture" transform="translate(48.000000, 48.000000)" fill="#333333">
            <g id="Group-2" transform="translate(9.000000, 18.000000)">
                <path d="M78,27 L78,57 C78,58.6568542 76.6568542,60 75,60 L3,60 C1.34314575,60 2.02906125e-16,58.6568542 0,57 L0,27 L-1.33226763e-15,3 C-1.53517375e-15,1.34314575 1.34314575,-3.24835449e-15 3,-3.55271368e-15 L25.9476568,1.02140518e-14 C26.6288713,1.06939548e-14 27.2898028,0.231842256 27.821742,0.657393572 L33.678258,5.34260643 C34.2101972,5.76815774 34.8711287,6 35.5523432,6 L75,6 C76.6568542,6 78,7.34314575 78,9 L78,27 Z M75,18.8026932 L75,15 C75,13.3431458 73.6568542,12 72,12 L6,12 C4.34314575,12 3,13.3431458 3,15 L3,18.8026932 C3.8825201,18.2921829 4.90713857,18 6,18 L72,18 C73.0928614,18 74.1174799,18.2921829 75,18.8026932 Z" id="Combined-Shape"></path>
            </g>
        </g>
    </g>
</svg>