<?xml version="1.0" encoding="UTF-8"?>
<svg width="72px" height="72px" viewBox="0 0 72 72" version="1.1" xmlns="http://www.w3.org/2000/svg" xmlns:xlink="http://www.w3.org/1999/xlink">
    <!-- Generator: Sketch 50.2 (55047) - http://www.bohemiancoding.com/sketch -->
    <title>profile_chat_icon</title>
    <desc>Created with Sketch.</desc>
    <defs></defs>
    <g id="profile_chat_icon" stroke="none" stroke-width="1" fill="none" fill-rule="evenodd">
        <g id="common_icons_chats" fill="#1AAD19" fill-rule="nonzero">
            <path d="M26.0023595,54.803513 L27.321719,55.1855766 C30.0856248,55.9859556 33.0066275,56.4 36,56.4 C50.6982904,56.4 62.4,46.4535468 62.4,34.5 C62.4,22.5464532 50.6982904,12.6 36,12.6 C21.3017096,12.6 9.6,22.5464532 9.6,34.5 C9.6,40.7277712 12.7707915,46.5782876 18.3017845,50.7340887 L19.9537794,51.9753419 L19.2485807,58.0420212 L26.0023595,54.803513 Z M36,60 C32.61305,60 29.3571917,59.5229202 26.3203625,58.6435074 L17.3715032,62.9345798 C17.1160582,63.0570683 16.8311484,63.1047148 16.5497489,63.0720046 C15.7268626,62.9763512 15.1373238,62.2317276 15.2329771,61.4088413 L16.1392688,53.6122002 C9.92099417,48.9399989 6,42.1092133 6,34.5 C6,20.4167389 19.4314575,9 36,9 C52.5685425,9 66,20.4167389 66,34.5 C66,48.5832611 52.5685425,60 36,60 Z" id="Mask"></path>
        </g>
    </g>
</svg>