<?xml version="1.0" encoding="UTF-8"?>
<svg width="72px" height="72px" viewBox="0 0 72 72" version="1.1" xmlns="http://www.w3.org/2000/svg" xmlns:xlink="http://www.w3.org/1999/xlink">
    <!-- Generator: Sketch 50.2 (55047) - http://www.bohemiancoding.com/sketch -->
    <title>profile_star_icon</title>
    <desc>Created with Sketch.</desc>
    <defs></defs>
    <g id="profile_star_icon" stroke="none" stroke-width="1" fill="none" fill-rule="evenodd">
        <g id="Group-25" fill="#FFC000" fill-rule="nonzero">
            <path d="M47.8243025,42.8419488 L59.6486049,31.3161025 L43.3078208,28.9416476 L36,14.1343853 L28.6921792,28.9416476 L12.3513951,31.3161025 L24.1756975,42.8419488 L21.3843584,59.1167049 L36,51.4328074 L50.6156416,59.1167049 L47.8243025,42.8419488 Z M36,55.5 L21.9835031,62.8689085 C20.5169694,63.6399109 18.7030879,63.0760714 17.9320855,61.6095376 C17.6250683,61.0255562 17.5191243,60.3566519 17.6306548,59.706379 L20.3075675,44.0987804 L8.96798332,33.0454177 C7.78153258,31.888914 7.75725566,29.9895743 8.9137593,28.8031235 C9.37428511,28.3306726 9.97771234,28.0232111 10.6306234,27.9283375 L26.3015433,25.6512196 L33.3097918,11.4509573 C34.0430586,9.96519627 35.8419362,9.35517928 37.3276971,10.0884462 C37.9193349,10.3804369 38.3982175,10.8593194 38.6902082,11.4509573 L45.6984567,25.6512196 L61.3693766,27.9283375 C63.0090112,28.1665904 64.1450555,29.688919 63.9068027,31.3285535 C63.8119291,31.9814646 63.5044676,32.5848919 63.0320167,33.0454177 L51.6924325,44.0987804 L54.3693452,59.706379 C54.6494282,61.3393884 53.5526648,62.8902562 51.9196554,63.1703392 C51.2693825,63.2818697 50.6004783,63.1759257 50.0164969,62.8689085 L36,55.5 Z" id="Star"></path>
        </g>
    </g>
</svg>