<?xml version="1.0" encoding="UTF-8" standalone="no"?>
<svg width="180px" height="180px" viewBox="0 0 180 180" version="1.1" xmlns="http://www.w3.org/2000/svg" xmlns:xlink="http://www.w3.org/1999/xlink" xmlns:sketch="http://www.bohemiancoding.com/sketch/ns">
    <!-- Generator: Sketch 3.5.2 (25235) - http://www.bohemiancoding.com/sketch -->
    <title>fav_list_img_default</title>
    <desc>Created with Sketch.</desc>
    <defs></defs>
    <g id="Page-1" stroke="none" stroke-width="1" fill="none" fill-rule="evenodd" sketch:type="MSPage">
        <g id="fav_list_img_default" sketch:type="MSLayerGroup" transform="translate(0.000000, 20.000000)" fill="#EBEBEB">
            <path d="M171,90.189263 L171,9.03225806 L9,9.03225806 L9,89.9603419 L60.5537363,41.6506608 L121.920208,98.1569392 L113.13358,80.0269061 L138.16163,60.6003889 L171,90.189263 L171,90.189263 L171,90.189263 Z M4.4943711,0 C2.01219847,0 0,2.01949458 0,4.51917065 L0,135.480829 C0,137.976698 2.02148438,140 4.4943711,140 L175.505629,140 C177.987802,140 180,137.980505 180,135.480829 L180,4.51917065 C180,2.0233016 177.978516,0 175.505629,0 L4.4943711,0 L4.4943711,0 L4.4943711,0 Z" id="Rectangle-40" sketch:type="MSShapeGroup"></path>
        </g>
    </g>
</svg>