<?xml version="1.0" encoding="UTF-8" standalone="no"?>
<svg width="144px" height="144px" viewBox="0 0 144 144" version="1.1" xmlns="http://www.w3.org/2000/svg" xmlns:xlink="http://www.w3.org/1999/xlink">
    <!-- Generator: Sketch 44 (41411) - http://www.bohemiancoding.com/sketch -->
    <title>cancel_pressed</title>
    <desc>Created with Sketch.</desc>
    <defs></defs>
    <g id="切图" stroke="none" stroke-width="1" fill="none" fill-rule="evenodd">
        <g id="cancel_pressed">
            <rect id="Rectangle-10" fill="#E5E5E5" x="0" y="0" width="144" height="146"></rect>
            <path d="M67.462845,72.0001808 L49.3111977,53.8485335 C48.8994866,53.4368224 48.8941397,52.7609745 49.3079896,52.3471247 L52.3460967,49.3079482 C52.7545997,48.8994452 53.4325863,48.8962371 53.8485749,49.3122257 L72.0002222,67.4628036 L90.1508001,49.3122257 C90.5635806,48.8994452 91.2394284,48.8951677 91.6543477,49.3079482 L94.6913854,52.3471247 C95.0998884,52.7545583 95.1041659,53.4336142 94.6881773,53.8485335 L76.5365299,72.0001808 L94.6881773,90.1518281 C95.0998884,90.5635392 95.1052353,91.239387 94.6913854,91.6543063 L91.6543477,94.6924134 C91.2447753,95.1009163 90.5667887,95.1041245 90.1508001,94.6892052 L72.0002222,76.5364885 L53.8485749,94.6892052 C53.4368638,95.1009163 52.7599466,95.1051938 52.3460967,94.6924134 L49.3079896,91.6543063 C48.8994866,91.2447339 48.8962785,90.5667473 49.3111977,90.1518281 L67.462845,72.0001808 Z" id="Page-1" fill="#000000"></path>
        </g>
    </g>
</svg>