<?xml version="1.0" encoding="UTF-8" standalone="no"?>
<svg width="79px" height="71px" viewBox="0 0 79 71" version="1.1" xmlns="http://www.w3.org/2000/svg" xmlns:xlink="http://www.w3.org/1999/xlink">
    <!-- Generator: Sketch 40.3 (33839) - http://www.bohemiancoding.com/sketch -->
    <title>按人 去掉背景 press</title>
    <desc>Created with Sketch.</desc>
    <defs></defs>
    <g id="安卓" stroke="none" stroke-width="1" fill="none" fill-rule="evenodd">
        <g id="按人-去掉背景-press">
            <g id="Group">
                <circle id="Oval-18-Copy-2" cx="85.5" cy="85.5" r="85.5"></circle>
                <g id="Group-2" fill="#565658">
                    <path d="M45.4266371,45.5983084 C45.0643558,45.1188202 43.7263935,43.1434682 43.8554655,40.2733156 C43.9583635,37.9851895 43.9562128,38.081063 46.1945163,34.5021616 C49.6764769,32.2899457 51.9866768,28.3973461 51.9866768,23.9646988 L51.9866768,15.3497283 C51.9866768,8.45627179 46.40566,2.8766654 39.5211268,2.8766654 C32.6350798,2.8766654 27.0555767,8.46104589 27.0555767,15.3497283 L27.0555767,23.9646988 C27.0555767,28.400462 29.3664491,32.2922132 32.8485109,34.5033987 C35.0860403,38.0810409 35.0839018,37.9854532 35.186788,40.2733156 C35.3359202,43.5895428 33.5265736,45.7112186 33.5265736,45.7112186 L33.6293488,45.7725721 L10.7165431,57.888482 C9.50595502,58.5286208 8.33247748,60.158326 8.11106327,61.5203051 L7.91305064,62.7383345 C7.69089331,64.1048846 8.63547931,65.2044157 10.0211827,65.2044157 L70.0235513,65.2044157 C71.4040377,65.2044157 72.3293702,64.1003135 72.0786867,62.7383345 L71.8544984,61.5203051 C71.6029736,60.1537549 70.4050048,58.5512981 69.1768809,57.9309076 C69.1768809,57.9309076 52.2143152,49.3920042 45.4266371,45.5983084 Z M23.9204102,22.0623105 L23.9204102,15.7510359 C23.9204102,7.05197899 30.9047859,0 39.5246823,0 C48.1426838,0 55.1289544,7.05383421 55.1289544,15.7510359 L55.1289544,22.0623105 C55.1289544,26.4045682 52.8258161,32.5813734 49.9873059,35.855644 L48.3199136,37.7790098 C46.0478419,40.3998838 46.7337458,43.7330609 49.852334,45.2240658 L69.6219838,54.6759856 C71.9593071,55.7934659 74.1512594,58.7990078 74.5158437,61.3749026 L74.9715274,64.5944417 C75.2161795,66.3229808 73.8518408,68.1624836 72.1230444,68.0782885 L6.60426605,68.0782885 C4.87537332,68.1624836 3.83248568,66.3279305 4.07783838,64.5944417 L4.53352209,61.3749026 C4.89900294,58.7926731 7.09500824,55.7906881 9.41164981,54.6825942 L29.1970308,45.218869 C32.3154348,43.7272768 33.0028159,40.3960379 30.729451,37.7750082 L29.0620587,35.8526223 C26.2224047,32.5787011 23.9204102,26.403928 23.9204102,22.0623105 Z" id="Combined-Shape"></path>
                    <path d="M1.83186506,11.0242871 C6.47523009,11.3647253 10.1156742,15.2417293 10.0881072,19.9701988 L10.0564286,25.4039269 C10.0391904,28.3607411 8.59582651,31.0334522 6.37983407,32.7448763 C6.30197229,32.9190897 6.19287976,33.1093738 6.04924299,33.3169962 C3.90729147,36.4131192 4.32540109,36.2271599 4.32540109,38 C4.32540109,39.1296242 4.28106831,40.5771635 4.83503578,41.6239812 C5.3650745,42.6255814 6.05837904,43.337121 6.4863651,43.717872 C12.0072777,46.5704875 21.3285905,51.0753415 21.3285905,51.0753415 C22.5689092,51.6774356 23.7273872,53.2752817 23.9156572,54.6408482 L24.3503271,57.7936117 C24.3598192,57.8624596 24.3663982,57.9303973 24.3701576,57.9973258 L25.3023141,57.9973258 C26.593606,58.0595601 27.4923965,57.0237958 27.3096582,55.7461157 L26.9692939,53.3663369 C26.6969745,51.462319 25.0597371,49.2407199 23.3139175,48.4147148 L8.54735033,41.4281623 C7.01931775,39.1923078 7.19465403,37.7020977 7.3608111,35.9220606 L8.64816505,34.5033289 C10.7683367,32.0830942 13.2912223,27.5174002 13.2912223,24.3077442 L13.2912223,19.6426548 C13.2912223,13.2139654 7.27035937,8 0.833305635,8 C0.553113762,8 0.275235459,8.00987188 -7.54951657e-15,8.02928636 C0.690950716,8.93628649 1.30450831,9.95097208 1.83186506,11.0242871 Z" id="Combined-Shape-Copy" transform="translate(13.666624, 32.999996) scale(-1, 1) translate(-13.666624, -32.999996) "></path>
                    <path d="M53.8205026,11.0011975 C58.9811152,11.0824242 63.1143016,15.2856205 63.082711,20.4724269 L63.0618248,23.9016987 C63.0411024,27.304077 61.2323063,30.3468961 58.5323585,32.1064188 C58.5390414,32.4221423 58.3931645,32.8198685 58.049243,33.3169962 C55.9072915,36.4131192 56.045459,36.2813521 56.045459,38 C56.045459,39.1296242 56.2810683,40.5771635 56.8350358,41.6239812 C57.3650745,42.6255814 58.058379,43.337121 58.4863651,43.717872 C64.0072777,46.5704875 73.3285905,51.0753415 73.3285905,51.0753415 C74.5689092,51.6774356 75.7273872,53.2752817 75.9156572,54.6408482 L76.3503271,57.7936117 C76.3598192,57.8624596 76.3663982,57.9303973 76.3701576,57.9973258 L77.3023141,57.9973258 C78.593606,58.0595601 79.4923965,57.0237958 79.3096582,55.7461157 L78.9692939,53.3663369 C78.6969745,51.462319 77.0597371,49.2407199 75.3139175,48.4147148 L60.5473503,41.4281623 C59.0193177,39.1923078 58.9131078,37.8247216 59.0792648,36.0446845 L60.7425486,34.1087169 C62.8627203,31.6884823 65.9433768,27.5174002 65.9433768,24.3077442 L65.9433768,19.6426548 C65.9433768,13.2139654 59.2703594,8 52.8333056,8 C52.5531138,8 52.2752355,8.00987188 52,8.02928636 C52.6859941,8.92978002 53.2957015,9.93641969 53.8205026,11.0011975 Z" id="Combined-Shape-Copy-2"></path>
                </g>
            </g>
        </g>
    </g>
</svg>