<?xml version="1.0" encoding="UTF-8" standalone="no"?>
<svg width="60px" height="60px" viewBox="0 0 60 60" version="1.1" xmlns="http://www.w3.org/2000/svg" xmlns:xlink="http://www.w3.org/1999/xlink" xmlns:sketch="http://www.bohemiancoding.com/sketch/ns">
    <!-- Generator: Sketch 3.3.3 (12081) - http://www.bohemiancoding.com/sketch -->
    <title>sight_icon_location_selected</title>
    <desc>Created with Sketch.</desc>
    <defs></defs>
    <g id="Page-1" stroke="none" stroke-width="1" fill="none" fill-rule="evenodd" sketch:type="MSPage">
        <g id="#ffffffff" sketch:type="MSLayerGroup" transform="translate(13.000000, 7.000000)" fill="#FFFFFF">
            <path d="M1,22 C-2.87349424,12.3711294 4.89823934,1.10497214 15,0 C23.4400914,-1.15425726 32.2547415,5.24356051 34,14 C34.8419767,18.5790119 32.5856669,23.2174298 30,27 C26.4785886,33.6138837 21.8857447,39.461889 17,45 C10.8749532,37.8924243 4.74781869,30.4949475 1,22 L1,22 Z M13,7 C6.51721036,9.02444669 4.70398785,19.0229124 10,24 C15.73359,28.7314226 25.8115007,25.1919658 27,18 C28.4461831,10.5142181 20.2115483,3.71526139 13,7 L13,7 Z" id="Shape" sketch:type="MSShapeGroup"></path>
        </g>
    </g>
</svg>