<?xml version="1.0" encoding="UTF-8"?>
<svg width="60px" height="60px" viewBox="0 0 60 60" version="1.1" xmlns="http://www.w3.org/2000/svg" xmlns:xlink="http://www.w3.org/1999/xlink">
    <!-- Generator: Sketch 46.1 (44463) - http://www.bohemiancoding.com/sketch -->
    <title>logo@3x</title>
    <desc>Created with Sketch.</desc>
    <defs></defs>
    <g id="=-Slice-=" stroke="none" stroke-width="1" fill="none" fill-rule="evenodd">
        <g id="Artboard" transform="translate(-415.000000, -651.000000)">
            <g id="logo@3x" transform="translate(415.000000, 651.000000)">
                <rect id="Rectangle" fill="#F4F4F4" x="0" y="0" width="60" height="60" rx="30"></rect>
                <path d="M39,12 C36.80045,12 34.7991,12.586 33,14 C29.98325,15.412 27.9,18.6453333 28,22 L28,38 C27.9,40.428 25.2805,42.6666667 22,43 C18.81885,42.6666667 16.2,40.428 16,38 C16.2,35.7013333 17.5299,34.006 19,33 C19.59885,33.13 19.7399,33.074 20,33 C21.0997,32.5246667 22.14165,31.586 23,30 C23.09975,28.8866667 22.03635,27.5826667 20,28 C19.68465,27.5826667 19.20885,27.664 19,28 C18.748,27.8113333 18.74605,27.812 19,28 C16.0219,28.614 13.75015,30.3713333 12,33 C11.5057,34.15 11,35.8533333 11,38 C11,43.3646667 15.9569,48 22,48 C24.19955,48 26.2009,47.414 28,46 C31.01675,44.588 33.1,41.3546667 33,38 L33,22 C33.1,19.572 35.71885,17.3333333 39,17 C42.1805,17.3333333 44.8,19.572 45,22 C44.8,24.3826667 43.35765,26.144 41,27 C39.96075,27.374 38.8694,28.3626667 38,30 C37.8853,31.1353333 38.9435,32.434 41,32 C41.2419,32.434 41.6709,32.3593333 42,32 C42.1571,32.2186667 42.2247,32.1973333 42,32 C44.9976,31.3706667 47.2557,29.6186667 49,27 C49.4943,25.8506667 50,24.1466667 50,22 C50,16.6353333 45.0431,12 39,12" id="Page-1-path" fill="#7586DB"></path>
            </g>
        </g>
    </g>
</svg>