<?xml version="1.0" encoding="UTF-8" ?>
<!DOCTYPE svg PUBLIC "-//W3C//DTD SVG 1.1//EN" "http://www.w3.org/Graphics/SVG/1.1/DTD/svg11.dtd">
<svg width="60pt" height="60pt" viewBox="0 0 60 60" version="1.1" xmlns="http://www.w3.org/2000/svg">
<g id="#9ae512ff">
<path fill="#9ae512" opacity="1.00" d=" M 36.83 10.18 C 38.71 8.29 40.59 6.41 42.48 4.54 C 53.62 15.45 56.31 33.80 48.53 47.35 C 46.75 50.69 44.30 53.60 41.66 56.28 C 39.84 54.34 38.00 52.42 36.19 50.48 C 41.15 45.64 44.46 39.07 44.90 32.11 C 45.62 24.06 42.44 15.94 36.83 10.18 Z" />
<path fill="#9ae512" opacity="1.00" d=" M 29.09 17.92 C 30.73 16.27 32.37 14.63 34.02 12.99 C 39.10 18.26 41.84 25.78 40.78 33.09 C 40.19 38.61 37.33 43.62 33.49 47.54 C 31.88 45.86 30.27 44.18 28.68 42.48 C 35.50 36.10 35.71 24.52 29.09 17.92 Z" />
<path fill="#9ae512" opacity="1.00" d=" M 13.42 19.61 C 19.82 17.14 27.45 22.12 27.94 28.90 C 28.83 35.53 22.57 41.80 15.94 40.95 C 9.72 40.50 4.88 34.08 6.19 27.96 C 6.92 24.17 9.75 20.85 13.42 19.61 Z" />
</g>
</svg>
