<?xml version="1.0" encoding="UTF-8" standalone="no"?>
<svg width="96px" height="96px" viewBox="0 0 96 96" version="1.1" xmlns="http://www.w3.org/2000/svg" xmlns:xlink="http://www.w3.org/1999/xlink" xmlns:sketch="http://www.bohemiancoding.com/sketch/ns">
    <!-- Generator: Sketch 3.3 (11970) - http://www.bohemiancoding.com/sketch -->
    <title>userguide_qq_icon</title>
    <desc>Created with Sketch.</desc>
    <defs></defs>
    <g id="提示" stroke="none" stroke-width="1" fill="none" fill-rule="evenodd" sketch:type="MSPage">
        <g id="userguide_qq_icon" sketch:type="MSArtboardGroup" fill="#3CB2EF">
            <path d="M48.112639,11 C29.0752316,11.1900862 20.9863427,26.8262931 20.9863427,40.8771552 C9.26134269,52.8396552 12.9052316,69.5737069 16.5452316,69.5737069 C18.8591205,69.9512931 22.6170834,63.5969828 22.6170834,63.5969828 C22.6170834,63.5969828 22.7337501,67.5564655 25.8124538,71.1383621 C22.4174538,72.6551724 20.1956019,75.137931 20.1956019,77.9491379 C20.1956019,82.5706897 26.1754168,86.3168103 33.5539353,86.3168103 C39.0424538,86.3168103 43.7531945,84.2426724 45.8091205,81.2788793 L50.492639,81.2788793 C52.5472686,84.2426724 57.2580094,86.3168103 62.7465279,86.3168103 C70.1237501,86.3168103 76.1061575,82.5719828 76.1061575,77.9491379 C76.1061575,75.137931 73.8843056,72.6564655 70.4893056,71.1383621 C73.5680094,67.5564655 73.684676,63.5969828 73.684676,63.5969828 C73.684676,63.5969828 77.4413427,69.9512931 79.7565279,69.5737069 C83.3965279,69.5724138 87.0391205,52.8383621 75.3141205,40.8758621 C75.3141205,26.8262931 67.1487501,11.1810345 48.112639,11 Z" id="Shape" sketch:type="MSShapeGroup"></path>
        </g>
    </g>
</svg>