<?xml version="1.0" encoding="UTF-8" standalone="no"?>
<svg width="96px" height="96px" viewBox="0 0 96 96" version="1.1" xmlns="http://www.w3.org/2000/svg" xmlns:xlink="http://www.w3.org/1999/xlink" xmlns:sketch="http://www.bohemiancoding.com/sketch/ns">
    <!-- Generator: Sketch 3.3.3 (12081) - http://www.bohemiancoding.com/sketch -->
    <title>userguide_google_icon</title>
    <desc>Created with Sketch.</desc>
    <defs></defs>
    <g id="Page-1" stroke="none" stroke-width="1" fill="none" fill-rule="evenodd" sketch:type="MSPage">
        <g id="userguide_google_icon" sketch:type="MSLayerGroup" transform="translate(13.000000, 13.000000)">
            <g id="#d8442bff" fill="#D8442B" sketch:type="MSShapeGroup">
                <path d="M5.3,1.27 C23.86,0.64 42.5,1.17 61.09,1 C64.55,0.58 68.06,3.32 67.96,6.91 C68.02,25.29 68.04,43.68 67.95,62.05 C68.09,65.66 64.55,68.44 61.08,68 C43.04,67.97 25,68.06 6.96,67.96 C3.79,68.07 0.96,65.23 1.04,62.07 C0.94,44.03 1.03,25.99 0.99,7.95 C0.72,5.07 2.4,2.01 5.3,1.27 L5.3,1.27 Z M29,8.97 C22.26,10.71 17.07,18.36 19.85,25.17 C21.77,30.46 27.73,32.84 33.01,32.22 C32.1,34.88 32.92,37.5 34.54,39.66 C29.02,40.04 22.96,40.74 18.68,44.65 C15.73,47.26 14.46,51.93 16.58,55.44 C19.11,59.71 24.39,61.19 29.04,61.46 C35.32,61.82 42.32,60.5 46.74,55.67 C49.75,52.48 50.77,47.34 48.54,43.44 C46.49,39.88 42.63,38.04 39.9,35.12 C38.9,34.03 39.19,32.23 40.15,31.21 C42.52,28.58 46.03,26.66 46.91,22.97 C48.39,18.27 46.03,13.4 42.37,10.46 C45.62,11 48.58,9.74 51.23,7.96 C43.83,8.25 36.24,7.08 29,8.97 L29,8.97 Z" id="Shape"></path>
                <path d="M30.39,10.46 C37.68,9.08 41.32,18.06 40.97,24.02 C41.1,28.74 35.38,31.73 31.38,29.6 C27.25,27.37 25.62,22.34 25.41,17.92 C25.14,14.69 27.06,11.17 30.39,10.46 L30.39,10.46 Z" id="Shape"></path>
                <path d="M28.36,42.65 C31.79,41.97 36.04,40.46 39.05,43.01 C41.67,45 45.06,47.3 44.93,51 C45.04,54.16 42.63,56.84 39.72,57.75 C35.53,59.02 30.82,58.82 26.8,57.05 C23.72,55.7 21.3,52.47 21.88,48.99 C22.26,45.66 25.35,43.49 28.36,42.65 L28.36,42.65 Z" id="Shape"></path>
            </g>
            <g id="#ffffffff" transform="translate(15.000000, 7.000000)" fill="#FFFFFF" sketch:type="MSShapeGroup">
                <path d="M14,1.97 C21.24,0.08 28.83,1.25 36.23,0.96 C33.58,2.74 30.62,4 27.37,3.46 C31.03,6.4 33.39,11.27 31.91,15.97 C31.03,19.66 27.52,21.58 25.15,24.21 C24.19,25.23 23.9,27.03 24.9,28.12 C27.63,31.04 31.49,32.88 33.54,36.44 C35.77,40.34 34.75,45.48 31.74,48.67 C27.32,53.5 20.32,54.82 14.04,54.46 C9.39,54.19 4.11,52.71 1.58,48.44 C-0.54,44.93 0.73,40.26 3.68,37.65 C7.96,33.74 14.02,33.04 19.54,32.66 C17.92,30.5 17.1,27.88 18.01,25.22 C12.73,25.84 6.77,23.46 4.85,18.17 C2.07,11.36 7.26,3.71 14,1.97 L14,1.97 Z M15.39,3.46 C12.06,4.17 10.14,7.69 10.41,10.92 C10.62,15.34 12.25,20.37 16.38,22.6 C20.38,24.73 26.1,21.74 25.97,17.02 C26.32,11.06 22.68,2.08 15.39,3.46 L15.39,3.46 Z M13.36,35.65 C10.35,36.49 7.26,38.66 6.88,41.99 C6.3,45.47 8.72,48.7 11.8,50.05 C15.82,51.82 20.53,52.02 24.72,50.75 C27.63,49.84 30.04,47.16 29.93,44 C30.06,40.3 26.67,38 24.05,36.01 C21.04,33.46 16.79,34.97 13.36,35.65 L13.36,35.65 Z" id="Shape"></path>
            </g>
        </g>
    </g>
</svg>