<?xml version="1.0" encoding="UTF-8" standalone="no"?>
<svg width="268px" height="268px" viewBox="0 0 268 268" version="1.1" xmlns="http://www.w3.org/2000/svg" xmlns:xlink="http://www.w3.org/1999/xlink" xmlns:sketch="http://www.bohemiancoding.com/sketch/ns">
    <!-- Generator: Sketch 3.2.2 (9983) - http://www.bohemiancoding.com/sketch -->
    <title>voicesearch_btnbg_pressed</title>
    <desc>Created with Sketch.</desc>
    <defs></defs>
    <g id="Page-1" stroke="none" stroke-width="1" fill="none" fill-rule="evenodd" sketch:type="MSPage">
        <g id="voicesearch_btnbg_pressed" sketch:type="MSLayerGroup" transform="translate(9.000000, 9.000000)">
            <g id="#d5d5d5ff" fill="#D5D5D5" sketch:type="MSShapeGroup">
                <path d="M18.4573936,1.68145219 C20.5973813,1.17150158 22.8073685,1.0515132 24.9973559,1.0215161 L217.016249,1.0215161 C222.216219,1.0515132 227.636188,0.611555807 232.576159,2.61136213 C241.656107,5.98103579 248.11607,15.2701362 247.986071,24.9791959 C247.99607,91.6527387 248.01607,158.326282 247.976071,224.999824 C248.326069,237.788586 236.856135,249.297471 224.056208,248.977502 C157.366593,249.007499 90.6869772,249.007499 23.9973617,248.977502 C11.1874355,249.327468 -0.292498314,237.84858 0.00749995677,225.04982 C-0.00249998559,158.366278 -0.00249998559,91.6727368 0.00749995677,24.9891949 C-0.182498948,14.1702427 7.91745436,4.01122656 18.4573936,1.68145219 L18.4573936,1.68145219 Z M19.437781,4.5597761 C10.8415964,6.32906842 3.81471527,14.1659338 3.21498146,22.9524194 C2.83515005,27.6505402 3.08503914,32.3686531 3.05505245,37.0667739 C3.05505245,96.0231925 3.05505245,154.969615 3.04505688,213.916038 C3.08503914,218.58417 2.7951678,223.282291 3.3149371,227.940428 C4.07459992,234.847665 8.88246597,240.93523 15.0397331,243.954023 C20.6272531,246.662939 27.0144182,245.863259 33.0217518,245.963219 C93.6748312,245.933231 154.337906,245.933231 214.990985,245.963219 C220.988324,245.863259 227.375489,246.642947 232.963009,243.954023 C240.109837,240.525394 245.097623,232.948425 244.927698,224.941628 C244.997667,160.977212 244.897711,97.0127966 244.977676,33.0483812 C244.907707,27.5705722 245.507441,21.7928832 243.228452,16.6349463 C239.959903,9.17792893 232.163364,3.89004398 223.94701,4.05997601 C157.986287,3.980008 92.0255632,4.09996002 26.0648396,4 C23.8458245,4.03998401 21.6168139,4.12994802 19.437781,4.5597761 L19.437781,4.5597761 Z" id="Shape"></path>
            </g>
            <g id="#e3e3e3ff" transform="translate(2.000000, 3.000000)" fill="#E3E3E3" sketch:type="MSShapeGroup">
                <path d="M17.437781,1.5597761 C19.6168139,1.12994802 21.8458245,1.03998401 24.0648396,1 C90.0255632,1.09996002 155.986287,0.980007996 221.94701,1.05997601 C230.163364,0.89004398 237.959903,6.17792893 241.228452,13.6349463 C243.507441,18.7928832 242.907707,24.5705722 242.977676,30.0483812 C242.897711,94.0127966 242.997667,157.977212 242.927698,221.941628 C243.097623,229.948425 238.109837,237.525394 230.963009,240.954023 C225.375489,243.642947 218.988324,242.863259 212.990985,242.963219 C152.337906,242.933231 91.6748312,242.933231 31.0217518,242.963219 C25.0144182,242.863259 18.6272531,243.662939 13.0397331,240.954023 C6.88246597,237.93523 2.07459992,231.847665 1.3149371,224.940428 C0.795167796,220.282291 1.08503914,215.58417 1.04505688,210.916038 C1.05505245,151.969615 1.05505245,93.0231925 1.05505245,34.0667739 C1.08503914,29.3686531 0.83515005,24.6505402 1.21498146,19.9524194 C1.81471527,11.1659338 8.84159642,3.32906842 17.437781,1.5597761 L17.437781,1.5597761 Z" id="Shape"></path>
            </g>
        </g>
    </g>
</svg>