<?xml version="1.0" encoding="UTF-8" standalone="no"?>
<svg width="480px" height="480px" viewBox="0 0 480 480" version="1.1" xmlns="http://www.w3.org/2000/svg" xmlns:xlink="http://www.w3.org/1999/xlink" xmlns:sketch="http://www.bohemiancoding.com/sketch/ns">
    <!-- Generator: Sketch 3.2.2 (9983) - http://www.bohemiancoding.com/sketch -->
    <title>webview_refresh_icon</title>
    <desc>Created with Sketch.</desc>
    <defs></defs>
    <g id="Page-1" stroke="none" stroke-width="1" fill="none" fill-rule="evenodd" sketch:type="MSPage">
        <g id="#ddddddff" sketch:type="MSLayerGroup" transform="translate(98.000000, 78.000000)" fill="#DDDDDD">
            <path d="M138.888682,0 C166.802783,17.7312401 194.746888,35.432478 222.650987,53.1837195 C194.726885,69.4748589 166.812784,85.7960003 138.888682,102.08714 C138.868679,86.7360661 138.898684,71.3849925 138.868679,56.0339189 C110.204468,56.6839643 81.8903089,67.4847197 60.1671176,86.2160297 C38.4939337,104.637318 23.3317063,130.599134 18.1809496,158.581091 C12.9601826,186.033011 17.1107924,215.225052 30.1127024,239.986784 C43.1146125,265.198547 64.907814,285.739984 90.8616268,297.190785 C113.865006,307.481504 140.008847,310.491715 164.782486,305.941397 C194.646873,300.601023 222.26093,283.879854 240.953676,259.998184 C257.826155,238.846704 267.427565,212.054831 267.957643,185.012939 C273.308429,185.012939 278.649214,184.992938 284,185.032941 C283.459921,212.18484 274.928667,239.116723 259.646422,261.578294 C242.843954,286.430032 218.000304,305.781386 189.706148,315.792086 C160.391841,326.282819 127.587022,326.732851 98.0026759,317.052174 C69.788531,307.961538 44.7048461,289.630256 27.2522822,265.698582 C10.1997771,242.436955 0.498351904,213.854956 0.048285787,185.002939 C-0.861847917,151.040563 11.1299137,116.96818 33.0031271,90.9863633 C58.7969163,59.8241839 98.3927332,40.6628438 138.878681,40.0327998 C138.888682,26.6918668 138.868679,13.3509337 138.888682,0 L138.888682,0 Z" id="Shape" sketch:type="MSShapeGroup"></path>
        </g>
    </g>
</svg>