<?xml version="1.0" encoding="UTF-8" standalone="no"?>
<svg width="72px" height="72px" viewBox="0 0 72 72" version="1.1" xmlns="http://www.w3.org/2000/svg" xmlns:xlink="http://www.w3.org/1999/xlink" xmlns:sketch="http://www.bohemiancoding.com/sketch/ns">
    <!-- Generator: Sketch 3.2.2 (9983) - http://www.bohemiancoding.com/sketch -->
    <title>webviewtab_refresh_normal</title>
    <desc>Created with Sketch.</desc>
    <defs></defs>
    <g id="Page-1" stroke="none" stroke-width="1" fill="none" fill-rule="evenodd" sketch:type="MSPage">
        <g id="#ffffffff" sketch:type="MSLayerGroup" transform="translate(2.000000, 0.000000)" fill="#FFFFFF">
            <path d="M55.3819144,0 L56.4570218,0 C56.2977466,7.26262626 57.5819027,14.4848485 58,21.7272727 C50.484203,22 42.968406,22.2222222 35.452609,22.5050505 C38.0906039,19.4747475 40.9376476,16.6262626 43.5159144,13.5353535 C35.6019294,10.2222222 26.0852381,10.989899 19.0970401,16.1616162 C12.0192498,21.1111111 8.16678164,29.8989899 8.52515077,38.5252525 C6.03647626,38.6767677 3.55775645,38.8383838 1.06908195,39 C0.203023217,25.969697 7.54959037,12.8484848 19.1965871,7.22222222 C28.4345468,2.47474747 39.8227214,2.8989899 48.9213154,7.7979798 C50.7529798,5.7979798 52.495052,3.6969697 54.6253574,2 C54.8144966,1.50505051 55.1927752,0.505050505 55.3819144,0 L55.3819144,0 Z" id="Shape" sketch:type="MSShapeGroup"></path>
            <path d="M48.9339652,55.0360104 C55.3485391,49.9841969 58.8600944,41.6689119 58.411174,33.4849741 C60.9151523,33.3233161 63.4091546,33.161658 65.903157,33 C67.1401821,48.3979275 56.3860441,63.3310881 41.6814064,67.1906736 L41.4918622,68.0393782 L41.4719102,67.1300518 C33.6507189,69.2518135 25.151159,68.0090674 18.0282884,64.1898964 C15.6140942,66.7764249 13.2298279,69.4033679 10.8156337,72 C10.1971211,64.5940415 9.60853657,57.1880829 9,49.7821244 L30.9272684,49.7821244 C28.4432421,52.6313472 25.9592158,55.4805699 23.4153334,58.269171 C31.6255891,62.2196891 41.8909026,60.7748705 48.9339652,55.0360104 L48.9339652,55.0360104 Z" id="Shape" sketch:type="MSShapeGroup"></path>
        </g>
    </g>
</svg>