<?xml version="1.0" encoding="UTF-8" standalone="no"?>
<svg width="96px" height="96px" viewBox="0 0 96 96" version="1.1" xmlns="http://www.w3.org/2000/svg" xmlns:xlink="http://www.w3.org/1999/xlink">
    <!-- Generator: Sketch 41.2 (35397) - http://www.bohemiancoding.com/sketch -->
    <title>icon-exit</title>
    <desc>Created with Sketch.</desc>
    <defs></defs>
    <g id="Slice" stroke="none" stroke-width="1" fill="none" fill-rule="evenodd">
        <g id="Artboard" transform="translate(-127.000000, -128.000000)">
            <g id="Exit" transform="translate(127.000000, 128.000000)">
                <polygon id="bounds" transform="translate(48.000000, 48.000000) scale(1, -1) translate(-48.000000, -48.000000) " points="96 -1.42108547e-14 0 -1.42108547e-14 0 96 96 96"></polygon>
                <g id="icon-message">
                    <polygon id="bounds" transform="translate(48.000000, 48.000000) scale(1, -1) translate(-48.000000, -48.000000) " points="96 -1.42108547e-14 0 -1.42108547e-14 0 96 96 96"></polygon>
                    <g id="exit" transform="translate(9.000000, 5.000000)" fill="#727272">
                        <path d="M78,47 C78,68.5391052 60.5391052,86 39,86 C17.4608948,86 0,68.5391052 0,47 C0,29.6477553 11.3324159,14.9423382 27,9.88099627 L27,18.4080529 C15.8382006,23.0982599 8,34.133775 8,47 C8,64.1208272 21.8791728,78 39,78 C56.1208272,78 70,64.1208272 70,47 C70,34.133775 62.1617994,23.0982599 51.0000006,18.408057 L51,9.88099627 C66.6675841,14.9423382 78,29.6477553 78,47 Z" id="Combined-Shape"></path>
                        <rect id="Rectangle-101" x="35" y="0" width="9" height="30" rx="2"></rect>
                    </g>
                </g>
            </g>
        </g>
    </g>
</svg>