<?xml version="1.0" encoding="UTF-8" standalone="no"?>
<svg width="96px" height="96px" viewBox="0 0 96 96" version="1.1" xmlns="http://www.w3.org/2000/svg" xmlns:xlink="http://www.w3.org/1999/xlink" xmlns:sketch="http://www.bohemiancoding.com/sketch/ns">
    <!-- Generator: Sketch 3.3.3 (12081) - http://www.bohemiancoding.com/sketch -->
    <title>actionbar_member_icon</title>
    <desc>Created with Sketch.</desc>
    <defs></defs>
    <g id="Page-1" stroke="none" stroke-width="1" fill="none" fill-rule="evenodd" sketch:type="MSPage">
        <g id="#ffffffff" sketch:type="MSLayerGroup" transform="translate(15.000000, 23.000000)" fill="#FFFFFF">
            <path d="M2.11,1.14 C21.75,0.82 41.42,1.08 61.06,1 C62.34,0.79 64.15,1.37 63.95,2.98 C64.04,17.98 64.03,33 63.95,48.01 C64.14,49.6 62.39,50.21 61.11,49.99 C41.73,49.98 22.35,50.07 2.97,49.95 C1.37,50.15 0.79,48.35 1,47.09 C0.98,33.07 1.02,19.04 0.99,5.01 C1.1,3.66 0.63,1.9 2.11,1.14 L2.11,1.14 Z M40.12,8.16 C39.87,8.41 39.38,8.92 39.13,9.18 C38.91,14.42 38.89,19.7 39.14,24.95 C39.4,25.18 39.93,25.63 40.2,25.86 C45.41,26.11 50.67,26.09 55.88,25.87 C56.13,25.62 56.61,25.12 56.85,24.87 C57.11,19.64 57.11,14.35 56.85,9.12 C56.61,8.87 56.13,8.39 55.89,8.15 C50.65,7.9 45.36,7.88 40.12,8.16 L40.12,8.16 Z M7.15,27.14 C7.13,27.81 7.1,29.15 7.08,29.82 C16.02,30.11 24.98,30.13 33.91,29.81 C33.89,29.14 33.86,27.82 33.84,27.15 C24.95,26.9 16.04,26.91 7.15,27.14 L7.15,27.14 Z M7.1,37.16 C7.12,37.84 7.14,39.19 7.15,39.87 C16.06,40.06 24.99,40.14 33.9,39.82 C33.88,39.15 33.84,37.79 33.82,37.12 C24.92,36.94 16,36.88 7.1,37.16 L7.1,37.16 Z" id="Shape" sketch:type="MSShapeGroup"></path>
            <path d="M42.3,11.32 C46.01,10.77 49.94,10.79 53.66,11.31 C54.26,15.03 54.2,18.98 53.69,22.72 C49.93,23.17 46.01,23.26 42.28,22.68 C41.82,18.94 41.77,15.04 42.3,11.32 L42.3,11.32 Z" id="Shape" sketch:type="MSShapeGroup"></path>
        </g>
    </g>
</svg>