<?xml version="1.0" encoding="UTF-8"?>
<svg width="108px" height="108px" viewBox="0 0 108 108" version="1.1" xmlns="http://www.w3.org/2000/svg" xmlns:xlink="http://www.w3.org/1999/xlink">
    <!-- Generator: Sketch 50.2 (55047) - http://www.bohemiancoding.com/sketch -->
    <title>addnew_wework@3x</title>
    <desc>Created with Sketch.</desc>
    <defs></defs>
    <g id="addnew_wework@3x" stroke="none" stroke-width="1" fill="none" fill-rule="evenodd">
        <g id="Group">
            <rect id="Oval" fill="#2782D7" x="0" y="0" width="108" height="108"></rect>
            <path d="M78.6691139,78.3850993 C79.4955964,78.579662 80.2501297,79.0074082 80.8445762,79.6183726 C82.6071004,81.4303067 82.6071004,84.3319342 80.8445762,86.1438682 C80.0048023,87.0088985 78.8550564,87.4964102 77.654746,87.4964102 C76.4544355,87.4964102 75.3046896,87.0088985 74.4649158,86.1438682 C73.7900401,85.4551271 73.3477847,84.5691963 73.2011131,83.6122048 C73.1776368,83.464212 73.161986,83.314246 73.1522043,83.16428 C72.619013,80.4158699 71.2948735,77.8867994 69.3451454,75.8929007 C69.2434151,75.7804261 69.1377722,75.6857108 69.0340856,75.5831024 C68.9801094,75.5449833 68.9290961,75.502765 68.8814902,75.4568152 C68.8544961,75.4293097 68.8290249,75.4003249 68.8051925,75.3699928 C68.4592431,74.9292993 68.4919233,74.2979462 68.8814902,73.8959846 C69.082133,73.6886608 69.3572247,73.5717623 69.644467,73.5717623 C69.9317094,73.5717623 70.2068011,73.6886608 70.4074439,73.8959846 C70.5463448,74.0538435 70.6911148,74.207756 70.8397975,74.3596953 C72.8140203,76.3900993 75.3570393,77.7624439 78.1272047,78.2923572 C78.2191532,78.3022234 78.3091454,78.3140628 78.3991375,78.3298487 C78.4891296,78.3456346 78.5791218,78.3633937 78.6691139,78.3850993 Z M93.603897,66.5989532 L93.603897,66.5969799 C95.3645673,68.4104451 95.3645673,71.3109836 93.603897,73.1244488 C92.9368156,73.8116375 92.068644,74.264687 91.1271567,74.4169192 C90.9820633,74.4412633 90.8357785,74.4577307 90.6889341,74.4662501 C87.9871362,75.0203467 85.5117011,76.3776778 83.5815111,78.3633937 C83.4758682,78.4679753 83.3780506,78.5745301 83.2802331,78.6830582 C83.2429101,78.7372442 83.2010191,78.7880793 83.1550266,78.8349974 C83.1284734,78.8628757 83.1003881,78.8892271 83.0709035,78.9139269 C82.6427651,79.2688613 82.0166108,79.234584 81.6290729,78.8349974 C81.2080151,78.402155 81.2080151,77.7089824 81.6290729,77.27614 C81.7816683,77.1320937 81.9342636,76.9860741 82.0829463,76.8341348 C84.077507,74.7949319 85.4170677,72.1971999 85.9271759,69.3792445 C85.9369577,69.2865023 85.9506521,69.1898137 85.9643466,69.0990448 C85.978041,69.0082759 85.9976045,68.9155337 86.017168,68.8247648 C86.2055204,67.9841067 86.6229022,67.213213 87.2222802,66.5989532 C88.0629241,65.7348047 89.2127934,65.2479417 90.4130886,65.2479417 C91.6133838,65.2479417 92.7632531,65.7348047 93.603897,66.5989532 Z M74.4962174,53.5479619 C75.3363288,52.6828163 76.4863973,52.1952594 77.6870258,52.1952594 C78.8876542,52.1952594 80.0377227,52.6828163 80.8778341,53.5479619 C81.4329692,54.1169865 81.8326346,54.8212484 82.0379502,55.5922357 C82.0813962,55.7525244 82.1153661,55.9152741 82.1396805,56.0796253 C82.1638102,56.2279583 82.180136,56.3774759 82.1885893,56.5275502 C82.7218572,59.2769291 84.0467305,61.8067878 85.9976045,63.8009027 C86.1012911,63.911404 86.2049777,64.0080926 86.3106207,64.1087277 C86.364832,64.1464616 86.4152818,64.1894167 86.4612597,64.2369882 C86.4866923,64.2646135 86.5121248,64.294212 86.535601,64.3238106 C86.8829599,64.7637324 86.8510856,65.3957215 86.4612597,65.7978188 C86.2600838,66.0041447 85.9851916,66.1203486 85.6982828,66.1203486 C85.4113741,66.1203486 85.1364819,66.0041447 84.935306,65.7978188 C84.7924924,65.6399599 84.6496787,65.4840741 84.4990397,65.3321348 C82.5265197,63.30193 79.9845862,61.9301229 77.2155452,61.4014462 C77.1235967,61.39158 77.0316482,61.3777674 76.941656,61.3619815 C76.8516639,61.3461956 76.7616718,61.3284364 76.673636,61.3087041 C75.8462948,61.1149 75.0909335,60.6870692 74.4962174,60.0754308 C72.7355471,58.2619656 72.7355471,55.3614271 74.4962174,53.5479619 Z M69.4136176,70.3145589 C69.4038359,70.4073011 69.3901414,70.5000432 69.376447,70.5927854 C69.3627525,70.6855275 69.3451454,70.7762964 69.3236255,70.8690386 C69.1357204,71.7092916 68.7182491,72.4796669 68.1185133,73.092877 C67.2784018,73.9580226 66.1283333,74.4455795 64.9277049,74.4455795 C63.7270765,74.4455795 62.577008,73.9580226 61.7368966,73.092877 C59.9741385,71.2802717 59.9741385,68.3780134 61.7368966,66.5654081 C62.4065557,65.8828235 63.2725306,65.4305631 64.2116805,65.2729377 C64.3584068,65.2492589 64.5051331,65.233473 64.6499031,65.2236068 C67.352586,64.6715782 69.8290399,63.3147495 71.7592824,61.3284364 C71.8649254,61.2218816 71.9627429,61.1173001 72.0605605,61.008772 C72.0978545,60.9539501 72.1397436,60.9024571 72.1857669,60.8548595 C72.2131558,60.8272342 72.2425011,60.8015821 72.26989,60.7779032 C72.6978443,60.4234024 73.3232498,60.4567828 73.7117206,60.8548595 C74.1319714,61.2888012 74.1319714,61.9817484 73.7117206,62.4156902 C73.5591253,62.5597365 73.4065299,62.7077293 73.2578472,62.8596686 C71.2632865,64.8988715 69.9237259,67.4966035 69.4136176,70.3145589 Z M77.6518114,50.5190427 C76.9796558,50.518192 76.3117725,50.626802 75.6739406,50.8406804 C75.6876351,50.5368019 75.6954605,50.2329233 75.6954605,49.9270715 C75.6954605,37.7206258 64.1334265,27.8268142 49.8716281,27.8268142 C35.6098298,27.8268142 24.0477957,37.7206258 24.0477957,49.9270715 C24.0477957,56.4624334 27.3638106,62.3367607 32.6322636,66.3818971 C33.6714918,67.1791125 34.1247517,68.5342181 33.7767289,69.8034905 L33.5810938,70.49807 L32.338811,75.0365157 C32.3250219,75.0870187 32.331708,75.1409793 32.3573958,75.1865061 C32.3830836,75.2320328 32.4256648,75.265389 32.4757556,75.2792239 C32.5109699,75.2884323 34.368199,74.1340885 38.047443,71.8161925 C39.3742513,70.9723358 40.988227,70.7201852 42.5059668,71.1196397 C42.6272606,71.1531848 42.7387726,71.1808101 42.8424592,71.2064622 C48.0879693,72.4604409 53.5696928,72.2854239 58.7260725,70.6993402 C59.0441612,73.1069181 60.7031731,75.1170645 62.9928739,75.8692218 C55.5773178,78.7666011 47.4248858,79.1339379 39.7827263,76.9150376 L29.3299433,82.4203695 C28.7486539,82.7262179 28.0470249,82.6809711 27.5090857,82.3029457 C26.9711465,81.9249204 26.6860009,81.2767323 26.7690799,80.6207771 L28.0250572,70.7328852 C21.7256072,65.5452445 17.7874727,58.1436315 17.7874727,49.9270715 C17.7874727,34.2339156 32.1529577,21.512455 49.8716281,21.512455 C67.5902986,21.512455 81.9557835,34.2339156 81.9557835,49.9270715 C81.9557835,50.6769017 81.9231777,51.4201544 81.857966,52.1568296 C80.7076584,51.1006318 79.2073639,50.516449 77.6518114,50.5190427 Z" id="Combined-Shape" fill="#FFFFFF" fill-rule="nonzero"></path>
        </g>
    </g>
</svg>