<?xml version="1.0" encoding="UTF-8" standalone="no"?>
<svg width="68px" height="68px" viewBox="0 0 68 68" version="1.1" xmlns="http://www.w3.org/2000/svg" xmlns:xlink="http://www.w3.org/1999/xlink">
    <!-- Generator: Sketch 39.1 (31720) - http://www.bohemiancoding.com/sketch -->
    <title>loading_lightversion</title>
    <desc>Created with Sketch.</desc>
    <defs></defs>
    <g id="尝试版" stroke="none" stroke-width="1" fill="none" fill-rule="evenodd">
        <g id="SLICE" transform="translate(-460.000000, -666.000000)" fill="">
            <path d="M489.53125,669.164097 C489.53125,667.416615 490.951405,666 492.695313,666 C494.442776,666 495.859375,667.408975 495.859375,669.164097 L495.859375,681.997193 C495.859375,683.744676 494.43922,685.16129 492.695313,685.16129 C490.947849,685.16129 489.53125,683.752315 489.53125,681.997193 L489.53125,669.164097 Z M506.760115,673.102112 C507.773697,671.541333 509.857329,671.095597 511.431227,672.117699 L511.710069,672.298781 C513.276271,673.315884 513.725935,675.403089 512.710675,676.966452 L505.705279,687.753817 C504.691696,689.314597 502.608065,689.760332 501.034166,688.73823 L500.755324,688.557148 C499.189122,687.540045 498.739458,685.452841 499.754718,683.889478 L506.760115,673.102112 Z M521.03554,684.486304 C522.722194,683.699805 524.725418,684.425956 525.518528,686.126787 L525.65904,686.428117 C526.448272,688.12063 525.723559,690.128965 524.034114,690.916766 L512.376768,696.352676 C510.690114,697.139176 508.68689,696.413024 507.89378,694.712194 L507.753268,694.410864 C506.964036,692.718351 507.688749,690.710015 509.378194,689.922214 L521.03554,684.486304 Z M525.487637,700.227298 C527.330542,700.486301 528.615096,702.186337 528.353916,704.044732 L528.307643,704.373977 C528.04774,706.223285 526.346127,707.51291 524.500171,707.253477 L511.76289,705.463369 C509.919984,705.204366 508.63543,703.50433 508.896611,701.645935 L508.942883,701.31669 C509.202786,699.467382 510.9044,698.177757 512.750355,698.43719 L525.487637,700.227298 Z M519.024637,717.125797 C520.429164,718.346734 520.580576,720.472122 519.349377,721.888455 L519.13125,722.139381 C517.906072,723.548787 515.776599,723.703593 514.369747,722.480635 L504.662327,714.042103 C503.2578,712.821167 503.106388,710.695778 504.337587,709.279446 L504.555714,709.02852 C505.780892,707.619113 507.910365,707.464308 509.317216,708.687265 L519.024637,717.125797 Z M505.019611,728.451144 C505.532576,730.240068 504.501991,732.105034 502.698031,732.622311 L502.37843,732.713955 C500.583292,733.228703 498.713052,732.198739 498.199238,730.406855 L494.653864,718.042666 C494.140898,716.253742 495.171483,714.388777 496.975443,713.8715 L497.295044,713.779855 C499.090183,713.265108 500.960422,714.295071 501.474237,716.086956 L505.019611,728.451144 Z M488.817987,730.406855 C488.305021,732.195779 486.442754,733.231232 484.638794,732.713955 L484.319193,732.622311 C482.524055,732.107563 481.483799,730.243029 481.997614,728.451144 L485.542988,716.086956 C486.055954,714.298032 487.91822,713.262578 489.72218,713.779855 L490.041781,713.8715 C491.83692,714.386247 492.877175,716.250782 492.363361,718.042666 L488.817987,730.406855 Z M473.457841,722.480635 C472.053314,723.701572 469.927538,723.555713 468.696339,722.139381 L468.478212,721.888455 C467.253034,720.479048 467.3961,718.348755 468.802952,717.125797 L478.510372,708.687265 C479.914899,707.466329 482.040676,707.612187 483.271875,709.02852 L483.490002,709.279446 C484.71518,710.688852 484.572113,712.819146 483.165262,714.042103 L473.457841,722.480635 Z M464.23473,707.253477 C462.391825,707.512481 460.688439,706.232373 460.427258,704.373977 L460.380986,704.044732 C460.121083,702.195425 461.401309,700.48673 463.247265,700.227298 L475.984546,698.43719 C477.827452,698.178186 479.530838,699.458294 479.792018,701.31669 L479.838291,701.645935 C480.098194,703.495242 478.817967,705.203937 476.972012,705.463369 L464.23473,707.253477 Z M465.081319,690.916766 C463.394665,690.130267 462.663282,688.128947 463.456393,686.428117 L463.596905,686.126787 C464.386137,684.434274 466.390448,683.698503 468.079893,684.486304 L479.737239,689.922214 C481.423893,690.708714 482.155276,692.710033 481.362165,694.410864 L481.221653,694.712194 C480.432421,696.404707 478.42811,697.140477 476.738665,696.352676 L465.081319,690.916766 Z M474.442218,676.966452 C473.428636,675.405672 473.868926,673.320883 475.442824,672.298781 L475.721666,672.117699 C477.287868,671.100596 479.377519,671.538749 480.392779,673.102112 L487.398175,683.889478 C488.411758,685.450257 487.971468,687.535047 486.397569,688.557148 L486.118727,688.73823 C484.552526,689.755334 482.462875,689.31718 481.447615,687.753817 L474.442218,676.966452 Z" id="Rectangle-2"></path>
        </g>
    </g>
</svg>