<?xml version="1.0" encoding="UTF-8"?>
<svg width="90px" height="90px" viewBox="0 0 90 90" version="1.1" xmlns="http://www.w3.org/2000/svg" xmlns:xlink="http://www.w3.org/1999/xlink">
    <!-- Generator: Sketch 48.2 (47327) - http://www.bohemiancoding.com/sketch -->
    <title>app_attach_file_icon_keynote</title>
    <desc>Created with Sketch.</desc>
    <defs></defs>
    <g id="-----Android" stroke="none" stroke-width="1" fill="none" fill-rule="evenodd">
        <g id="app_attach_file_icon_keynote">
            <g id="Group" transform="translate(11.000000, 0.000000)">
                <path d="M46,0 L68,22 L68,87 C68,88.6568542 66.6568542,90 65,90 L3,90 C1.34314575,90 2.02906125e-16,88.6568542 0,87 L0,3 C-2.02906125e-16,1.34314575 1.34314575,3.04359188e-16 3,0 L46,0 Z" id="Combined-Shape" fill="#1E85F5"></path>
                <path d="M68,22 L49,22 C47.3431458,22 46,20.6568542 46,19 L46,0 L68,22 Z" id="Rectangle" fill="#186AC4"></path>
                <path d="M33,70 L33,58 L21,58 C19.3431458,58 18,56.6568542 18,55 L50,55 C50,56.6568542 48.6568542,58 47,58 L35,58 L35,70 L41,70 C41.5522847,70 42,70.4477153 42,71 C42,71.5522847 41.5522847,72 41,72 L27,72 C26.4477153,72 26,71.5522847 26,71 C26,70.4477153 26.4477153,70 27,70 L33,70 Z M22.9632617,40 L45.0367383,40 C45.7545806,40 46.3718025,40.5085864 46.5090618,41.2131837 L49,54 L19,54 L21.4909382,41.2131837 C21.6281975,40.5085864 22.2454194,40 22.9632617,40 Z M27.9410944,50.6317952 L31.5933809,47.1825063 L34.9270554,49.4385775 C35.1841341,49.6067956 35.522871,49.5735864 35.7343543,49.3592239 L40.3778363,44.271842 L39.4616314,43.3715761 L35.1789221,48.0903232 L31.9000506,45.8341498 C31.6640289,45.6658857 31.3416329,45.6991638 31.1276509,45.9136593 L27.1043602,49.7318411 L27.9410944,50.6317952 Z" id="Combined-Shape" fill="#FFFFFF"></path>
            </g>
        </g>
    </g>
</svg>