<?xml version="1.0" encoding="UTF-8"?>
<svg width="120px" height="120px" viewBox="0 0 120 120" version="1.1" xmlns="http://www.w3.org/2000/svg" xmlns:xlink="http://www.w3.org/1999/xlink">
    <!-- Generator: Sketch 47.1 (45422) - http://www.bohemiancoding.com/sketch -->
    <title>Btn_More Copy 2</title>
    <desc>Created with Sketch.</desc>
    <defs></defs>
    <g id="修改点点点" stroke="none" stroke-width="1" fill="none" fill-rule="evenodd">
        <g id="竖屏" transform="translate(-921.000000, -39.000000)">
            <g id="Group" transform="translate(921.000000, 39.000000)">
                <g id="Btn_More-Copy-2">
                    <rect id="Rectangle-1" fill-opacity="0.2" fill="#000000" x="0" y="0" width="120" height="120" rx="60"></rect>
                    <path d="M40.5,60.75 C40.5,64.47735 37.47735,67.5 33.75,67.5 C30.02265,67.5 27,64.47735 27,60.75 C27,57.0213 30.02265,54 33.75,54 C37.47735,54 40.5,57.0213 40.5,60.75 Z M59.25,49.5 C65.46225,49.5 70.5,54.5355 70.5,60.75 C70.5,66.96225 65.46225,72 59.25,72 C53.03775,72 48,66.96225 48,60.75 C48,54.5355 53.03775,49.5 59.25,49.5 Z M93,60.75 C93,64.47735 89.97735,67.5 86.25,67.5 C82.52265,67.5 79.5,64.47735 79.5,60.75 C79.5,57.0213 82.52265,54 86.25,54 C89.97735,54 93,57.0213 93,60.75 Z" id="Fill-43" fill="#FFFFFF"></path>
                </g>
            </g>
        </g>
    </g>
</svg>