<?xml version="1.0" encoding="UTF-8" standalone="no"?>
<svg width="69px" height="69px" viewBox="0 0 69 69" version="1.1" xmlns="http://www.w3.org/2000/svg" xmlns:xlink="http://www.w3.org/1999/xlink">
    <!-- Generator: Sketch 39.1 (31720) - http://www.bohemiancoding.com/sketch -->
    <title>Loading_darkversion @3x</title>
    <desc>Created with Sketch.</desc>
    <defs></defs>
    <g id="交付开发" stroke="none" stroke-width="1" fill="none" fill-rule="evenodd">
        <g id="SLICE" transform="translate(-483.000000, -337.000000)" fill="">
            <path d="M512.75,340.185607 C512.75,338.426245 514.180674,337 515.9375,337 C517.697908,337 519.125,338.424557 519.125,340.185607 L519.125,352.975683 C519.125,354.735046 517.694326,356.16129 515.9375,356.16129 C514.177092,356.16129 512.75,354.736734 512.75,352.975683 L512.75,340.185607 Z M530.08054,344.0878 C531.094123,342.52702 533.187102,342.087356 534.746346,343.099941 L535.079879,343.316539 C536.64315,344.33174 537.090439,346.417401 536.075179,347.980764 L529.069782,358.768129 C528.0562,360.328909 525.96322,360.768574 524.403976,359.755989 L524.070443,359.53939 C522.507172,358.52419 522.059884,356.438528 523.075143,354.875165 L530.08054,344.0878 Z M544.44448,355.462488 C546.131134,354.675988 548.139068,355.412242 548.924794,357.097236 L549.092866,357.457668 C549.880621,359.147014 549.154711,361.152782 547.465265,361.940583 L535.807919,367.376493 C534.121265,368.162992 532.113331,367.426739 531.327606,365.741744 L531.159534,365.381313 C530.371778,363.691967 531.097689,361.686199 532.787134,360.898398 L544.44448,355.462488 Z M548.925555,371.201275 C550.76846,371.460278 552.051463,373.171352 551.792715,375.012444 L551.737367,375.406266 C551.47795,377.252113 549.776731,378.538932 547.930775,378.2795 L535.193494,376.489392 C533.350588,376.230389 532.067586,374.519315 532.326334,372.678223 L532.381682,372.284401 C532.641099,370.438554 534.342318,369.151735 536.188273,369.411167 L548.925555,371.201275 Z M542.425903,388.105964 C543.83043,389.326901 543.974529,391.460702 542.754794,392.863847 L542.493884,393.163989 C541.270999,394.570758 539.143384,394.723425 537.736533,393.500468 L528.029112,385.061936 C526.624585,383.840999 526.480486,381.707199 527.700221,380.304054 L527.961131,380.003912 C529.184016,378.597143 531.311631,378.444475 532.718483,379.667433 L542.425903,388.105964 Z M528.339958,399.443901 C528.852924,401.232825 527.811625,403.100863 526.024461,403.613324 L525.642175,403.722942 C523.850395,404.236727 521.982879,403.205983 521.469064,401.414098 L517.92369,389.04991 C517.410724,387.260986 518.452023,385.392948 520.239187,384.880487 L520.621474,384.770868 C522.413253,384.257084 524.280769,385.287828 524.794584,387.079713 L528.339958,399.443901 Z M512.044584,401.414098 C511.531618,403.203022 509.658638,404.235403 507.871474,403.722942 L507.489187,403.613324 C505.697408,403.099539 504.659875,401.235786 505.17369,399.443901 L508.719064,387.079713 C509.23203,385.290788 511.105011,384.258407 512.892175,384.770868 L513.274461,384.880487 C515.06624,385.394271 516.103773,387.258025 515.589958,389.04991 L512.044584,401.414098 Z M496.593483,393.500468 C495.188955,394.721405 493.055866,394.567134 491.836131,393.163989 L491.575221,392.863847 C490.352336,391.457078 490.497261,389.328922 491.904112,388.105964 L501.611533,379.667433 C503.01606,378.446496 505.149149,378.600766 506.368884,380.003912 L506.629794,380.304054 C507.85268,381.710823 507.707754,383.838979 506.300903,385.061936 L496.593483,393.500468 Z M487.313273,378.2795 C485.470368,378.538504 483.765431,377.247358 483.506682,375.406266 L483.451334,375.012444 C483.191917,373.166597 484.472538,371.460707 486.318494,371.201275 L499.055775,369.411167 C500.898681,369.152163 502.603618,370.443309 502.862367,372.284401 L502.917715,372.678223 C503.177132,374.52407 501.89651,376.22996 500.050555,376.489392 L487.313273,378.2795 Z M488.162134,361.940583 C486.47548,361.154083 485.748808,359.142662 486.534534,357.457668 L486.702606,357.097236 C487.490361,355.40789 489.493474,354.674687 491.182919,355.462488 L502.840265,360.898398 C504.526919,361.684897 505.253592,363.696318 504.467866,365.381313 L504.299794,365.741744 C503.512039,367.431091 501.508925,368.164294 499.81948,367.376493 L488.162134,361.940583 Z M497.575143,347.980764 C496.561561,346.419984 497.011199,344.329124 498.570443,343.316539 L498.903976,343.099941 C500.467247,342.08474 502.554522,342.524437 503.569782,344.0878 L510.575179,354.875165 C511.588761,356.435945 511.139123,358.526805 509.579879,359.53939 L509.246346,359.755989 C507.683075,360.771189 505.5958,360.331492 504.58054,358.768129 L497.575143,347.980764 Z" id="Rectangle-2-Copy-2"></path>
        </g>
    </g>
</svg>