<?xml version="1.0" encoding="UTF-8" standalone="no"?>
<svg width="80px" height="80px" viewBox="0 0 80 80" version="1.1" xmlns="http://www.w3.org/2000/svg" xmlns:xlink="http://www.w3.org/1999/xlink" xmlns:sketch="http://www.bohemiancoding.com/sketch/ns">
    <!-- Generator: Sketch 3.4.2 (15857) - http://www.bohemiancoding.com/sketch -->
    <title>music</title>
    <desc>Created with Sketch.</desc>
    <defs></defs>
    <g id="最终稿" stroke="none" stroke-width="1" fill="none" fill-rule="evenodd" sketch:type="MSPage">
        <g id="music" sketch:type="MSArtboardGroup" fill="#FFFFFF">
            <path d="M32.1087912,26.7344075 L32.1087912,56.3458249 L32.1087912,59.8100513 C32.1087912,63.0361471 30.5768094,66.2198101 27.5723729,67.5750694 C27.0138599,67.8270068 23.4856391,68.5897297 23.0249431,68.6793709 C18.5983223,69.5406928 15.1971446,67.0229657 15.0098372,63.3145666 C14.8225298,59.6061675 17.3369711,57.6634365 20.2543637,57.0957768 L26.3882443,55.7913576 C27.4812357,55.5589242 28.3473243,54.4791329 28.3473243,53.3743412 L28.3473243,25.2424097 C28.3413078,25.1035603 28.3547981,24.967648 28.3852845,24.8367428 L28.3852845,21.9492647 C28.3852845,21.3977325 28.8147617,20.8389204 29.3484244,20.7001147 L63.430627,11.8353347 C63.9625545,11.6969804 64.393767,12.0395724 64.393767,12.589663 L64.393767,17.1985635 C64.4032273,17.2651996 64.4081266,17.3331213 64.4081266,17.4021266 L64.4081266,48.5729463 L64.4081266,52.0371727 C64.4081266,55.2632686 62.8761448,58.4469315 59.8717083,59.8021909 C59.3131953,60.0541283 55.7849745,60.8168512 55.3242785,60.9064924 C50.8976577,61.7678143 47.49648,59.2500872 47.3091726,55.5416881 C47.1218652,51.833289 49.6363065,49.890558 52.5536991,49.3228983 L58.6875797,48.0184791 C59.7805712,47.7860457 60.6466597,46.7062543 60.6466597,45.6014627 L60.6466597,19.1913349 L32.1087912,26.7344075 Z" id="Music-Copy-2" sketch:type="MSShapeGroup"></path>
        </g>
    </g>
</svg>