<?xml version="1.0" encoding="UTF-8"?>
<svg width="28px" height="16px" viewBox="0 0 28 16" version="1.1" xmlns="http://www.w3.org/2000/svg" xmlns:xlink="http://www.w3.org/1999/xlink">
    <!-- Generator: Sketch 52.3 (67297) - http://www.bohemiancoding.com/sketch -->
    <title>CreateIcon-Profile-outline</title>
    <desc>Created with Sketch.</desc>
    <g id="CreateIcon-Profile-outline" stroke="none" stroke-width="1" fill="none" fill-rule="evenodd">
        <g id="原创icon">
            <g id="Group">
                <rect id="Rectangle" fill="#F36D00" x="0" y="0" width="28" height="16" rx="1.6"></rect>
                <path d="M7.8575,7.26716667 L5.9045,7.26716667 L5.9045,11.2676667 C5.9045,11.5196667 6.041,11.6561667 6.3245,11.6561667 L8.1515,11.6561667 C8.4665,11.6561667 8.666,11.5721667 8.7395,11.4146667 C8.8235,11.2466667 8.8865,10.8896667 8.9285,10.3541667 L9.863,10.6691667 C9.779,11.5826667 9.653,12.1391667 9.464,12.3281667 C9.296,12.4961667 8.9495,12.5801667 8.4455,12.5801667 L5.894,12.5801667 C5.2325,12.5801667 4.907,12.2651667 4.907,11.6351667 L4.907,6.64766667 L4.403,7.15166667 L3.815,6.34316667 C4.8125,5.42966667 5.726,4.34816667 6.5555,3.10916667 L7.2905,3.10916667 C8.2145,4.07516667 9.0965,5.08316667 9.9155,6.13316667 L9.2645,6.81566667 C8.3615,5.61866667 7.616,4.69466667 7.007,4.05416667 C6.461,4.86266667 5.852,5.63966667 5.159,6.38516667 L8.834,6.38516667 L8.834,9.28316667 C8.8235,9.86066667 8.5085,10.1651667 7.8785,10.2071667 C7.469,10.2071667 7.0805,10.1966667 6.713,10.1756667 L6.4715,9.24116667 C6.86,9.28316667 7.196,9.30416667 7.49,9.30416667 C7.7315,9.30416667 7.8575,9.17816667 7.8575,8.94716667 L7.8575,7.26716667 Z M10.388,3.98066667 L11.3645,3.98066667 L11.3645,10.4591667 L10.388,10.4591667 L10.388,3.98066667 Z M12.2045,12.6536667 L10.619,12.6536667 L10.388,11.6981667 C10.9025,11.7401667 11.396,11.7611667 11.858,11.7611667 C12.11,11.7611667 12.236,11.6036667 12.236,11.2991667 L12.236,3.08816667 L13.2335,3.08816667 L13.2335,11.5511667 C13.2335,12.2861667 12.887,12.6536667 12.2045,12.6536667 Z M16.793,4.47416667 L15.155,4.47416667 L15.155,3.63416667 L18.62,3.63416667 C18.536,3.45566667 18.452,3.28766667 18.368,3.14066667 L19.4495,2.97266667 C19.5335,3.17216667 19.628,3.39266667 19.712,3.63416667 L23.345,3.63416667 L23.345,4.47416667 L21.6755,4.47416667 L21.371,5.10416667 L23.8385,5.10416667 L23.8385,5.96516667 L14.6615,5.96516667 L14.6615,5.10416667 L17.045,5.10416667 L16.793,4.47416667 Z M18.0845,5.10416667 L20.3315,5.10416667 L20.636,4.47416667 L17.8325,4.47416667 L18.0845,5.10416667 Z M15.7535,6.40616667 L22.7465,6.40616667 L22.7465,9.68216667 L15.7535,9.68216667 L15.7535,6.40616667 Z M21.77,8.92616667 L21.77,8.40116667 L16.73,8.40116667 L16.73,8.92616667 L21.77,8.92616667 Z M16.73,7.68716667 L21.77,7.68716667 L21.77,7.17266667 L16.73,7.17266667 L16.73,7.68716667 Z M15.3545,10.0916667 L16.3205,10.2911667 C16.079,11.1206667 15.743,11.8346667 15.3125,12.4436667 L14.4515,11.9081667 C14.8715,11.3411667 15.1655,10.7426667 15.3545,10.0916667 Z M20.72,12.5801667 L18.158,12.5801667 C17.3495,12.5801667 16.9505,12.2126667 16.9505,11.4986667 L16.9505,10.1546667 L17.9585,10.1546667 L17.9585,11.2886667 C17.9585,11.5511667 18.116,11.6876667 18.4415,11.6876667 L20.531,11.6876667 C20.72,11.6876667 20.8565,11.6456667 20.93,11.5721667 C21.035,11.4776667 21.1085,11.2046667 21.1505,10.7426667 L22.0955,11.0471667 C22.0115,11.7821667 21.8645,12.2336667 21.6335,12.3806667 C21.434,12.5066667 21.1295,12.5801667 20.72,12.5801667 Z M19.502,9.72416667 C19.922,10.1441667 20.237,10.5116667 20.4575,10.8371667 L19.628,11.4146667 C19.3865,11.0681667 19.061,10.6796667 18.6515,10.2596667 L19.502,9.72416667 Z M22.778,9.94466667 C23.3555,10.6271667 23.7965,11.2256667 24.101,11.7296667 L23.2715,12.3071667 C22.946,11.7401667 22.5155,11.1206667 21.9695,10.4486667 L22.778,9.94466667 Z" id="创意" fill="#FFFFFF"></path>
            </g>
        </g>
    </g>
</svg>