<?xml version="1.0" encoding="UTF-8"?>
<svg width="90px" height="90px" viewBox="0 0 90 90" version="1.1" xmlns="http://www.w3.org/2000/svg" xmlns:xlink="http://www.w3.org/1999/xlink">
    <!-- Generator: Sketch 48.2 (47327) - http://www.bohemiancoding.com/sketch -->
    <title>app_attach_file_icon_pdf</title>
    <desc>Created with Sketch.</desc>
    <defs></defs>
    <g id="-----Android" stroke="none" stroke-width="1" fill="none" fill-rule="evenodd">
        <g id="app_attach_file_icon_pdf">
            <g id="Group" transform="translate(11.000000, 0.000000)">
                <path d="M46,0 L68,22 L68,87 C68,88.6568542 66.6568542,90 65,90 L3,90 C1.34314575,90 2.02906125e-16,88.6568542 0,87 L0,3 C-2.02906125e-16,1.34314575 1.34314575,3.04359188e-16 3,0 L46,0 Z" id="Combined-Shape" fill="#E64340"></path>
                <path d="M68,22 L49,22 C47.3431458,22 46,20.6568542 46,19 L46,0 L68,22 Z" id="Rectangle" fill="#B83533"></path>
                <path d="M13.4628906,48.0898438 L20.0371094,48.0898438 C23.4003906,48.0898438 25.7324219,50.375 25.7324219,53.75 C25.7324219,57.125 23.3300781,59.4101562 19.9082031,59.4101562 L16.4863281,59.4101562 L16.4863281,65 L13.4628906,65 L13.4628906,48.0898438 Z M16.4863281,50.5625 L16.4863281,56.9726562 L19.2285156,56.9726562 C21.3964844,56.9726562 22.6621094,55.8007812 22.6621094,53.75 C22.6621094,51.7226562 21.4082031,50.5625 19.2402344,50.5625 L16.4863281,50.5625 Z M27.9355469,48.0898438 L34.1113281,48.0898438 C39.1621094,48.0898438 42.1503906,51.1484375 42.1503906,56.5039062 C42.1503906,61.859375 39.1738281,65 34.1113281,65 L27.9355469,65 L27.9355469,48.0898438 Z M30.9589844,50.6445312 L30.9589844,62.4453125 L33.7949219,62.4453125 C37.1933594,62.4453125 39.0683594,60.3710938 39.0683594,56.515625 C39.0683594,52.7304688 37.1699219,50.6445312 33.7949219,50.6445312 L30.9589844,50.6445312 Z M47.5644531,65 L44.5410156,65 L44.5410156,48.0898438 L55.3222656,48.0898438 L55.3222656,50.6445312 L47.5644531,50.6445312 L47.5644531,55.6367188 L54.6542969,55.6367188 L54.6542969,58.0976562 L47.5644531,58.0976562 L47.5644531,65 Z" id="PDF" fill="#FFFFFF"></path>
            </g>
        </g>
    </g>
</svg>