<?xml version="1.0" encoding="UTF-8" standalone="no"?>
<svg width="180px" height="180px" viewBox="0 0 180 180" version="1.1" xmlns="http://www.w3.org/2000/svg" xmlns:xlink="http://www.w3.org/1999/xlink" xmlns:sketch="http://www.bohemiancoding.com/sketch/ns">
    <!-- Generator: Sketch 3.3 (11970) - http://www.bohemiancoding.com/sketch -->
    <title>app_attach_file_icon_file</title>
    <desc>Created with Sketch.</desc>
    <defs></defs>
    <g id="文件类型" stroke="none" stroke-width="1" fill="none" fill-rule="evenodd" sketch:type="MSPage">
        <g id="app_attach_file_icon_file" sketch:type="MSArtboardGroup">
            <rect id="Path-2" fill="#2BA245" sketch:type="MSShapeGroup" x="0" y="0" width="180" height="180"></rect>
            <path d="M49.7991743,34.8 C48.1427761,34.8 46.8,36.136325 46.8,37.7958279 L46.8,142.204172 C46.8,143.858722 48.139798,145.2 49.7991743,145.2 L130.200826,145.2 C131.857224,145.2 133.2,143.863675 133.2,142.204172 L133.2,37.7958279 C133.2,36.1412778 131.860202,34.8 130.200826,34.8 L49.7991743,34.8 Z M88.8,84 L88.8,90 L57.6,90 L57.6,84 L88.8,84 Z M108,67.2 L108,73.2 L57.6,73.2 L57.6,67.2 L108,67.2 Z M122.4,51.6 L122.4,57.6 L57.6,57.6 L57.6,51.6 L122.4,51.6 Z" id="Rectangle-46" fill="#FFFFFF" sketch:type="MSShapeGroup"></path>
        </g>
    </g>
</svg>