<?xml version="1.0" encoding="UTF-8" standalone="no"?>
<svg width="84px" height="80px" viewBox="0 0 84 80" version="1.1" xmlns="http://www.w3.org/2000/svg" xmlns:xlink="http://www.w3.org/1999/xlink">
    <!-- Generator: Sketch 40.3 (33839) - http://www.bohemiancoding.com/sketch -->
    <title>Service_black@3x </title>
    <desc>Created with Sketch.</desc>
    <defs></defs>
    <g id="Slice" stroke="none" stroke-width="1" fill="none" fill-rule="evenodd">
        <g id="SLICE" transform="translate(-1347.000000, -215.000000)" fill="#2C2C2C">
            <g id="Service54_black-+-Service54_white-+-Service54_black-Mask-Copy" transform="translate(1250.000000, 215.000000)">
                <path d="M131,51 L131,64 C131,65.0442065 132.503892,66.6265532 134,66 L158,66 L169,76 C169.092105,76.4198616 169.862069,76.0905881 170,74 L170,66 L177,66 C178.48861,66.6265532 180,65.0339442 180,64 L180,29 C180,27.5823467 178.479796,26 177,26 L156,26 L156,46 C154.655172,48.3625367 152.381589,50.7292063 150,51 L131,51 Z M149.02346,4 C150.667358,4 152,5.33405674 152,6.97252967 L152,44.0274703 C152,45.6691531 150.667969,47 149.02759,47 L121,47 L110.643387,55.6305104 C109.73577,56.3868586 109,56.041158 109,54.8547491 L109,47 L99.9662929,47 C98.3280545,47 97,45.6659433 97,44.0274703 L97,6.97252967 C97,5.33084686 98.3323061,4 99.97654,4 L149.02346,4 Z" id="Service54_black-Copy"></path>
            </g>
        </g>
    </g>
</svg>