<?xml version="1.0" encoding="UTF-8" standalone="no"?>
<svg width="34px" height="34px" viewBox="0 0 34 34" version="1.1" xmlns="http://www.w3.org/2000/svg" xmlns:xlink="http://www.w3.org/1999/xlink">
    <!-- Generator: Sketch 41.2 (35397) - http://www.bohemiancoding.com/sketch -->
    <title>Miniapp</title>
    <desc>Created with Sketch.</desc>
    <defs></defs>
    <g id="★-Slice-★" stroke="none" stroke-width="1" fill="none" fill-rule="evenodd">
        <g id="SLICE" transform="translate(-1316.000000, -1235.000000)" fill="#7586DB">
            <path d="M1336,1238 C1333.06275,1239.84333 1331.3,1242.53778 1331,1246 L1331,1258 C1331.3,1260.69 1329.0835,1262.55556 1326,1263 C1323.61595,1262.55556 1321.4,1260.69 1321,1258 C1321.4,1256.75111 1322,1256 1324,1255 C1326,1254 1326.42755,1253.32167 1327,1252 C1327.23825,1251.07222 1326.33845,1249.98556 1325,1250 C1324.34855,1249.98556 1323.94595,1250.05333 1324,1250 C1321.2493,1250.845 1319.32705,1252.30944 1318,1254 C1317.4279,1255.45833 1317,1256.87778 1317,1258 C1317,1263.13722 1321.1943,1267 1326,1267 C1328.16885,1267 1329.8623,1266.51167 1331,1266 C1333.93725,1264.15667 1335.7,1261.46222 1336,1258 L1336,1246 C1335.7,1243.31 1337.91595,1241.44444 1341,1241 C1343.3835,1241.44444 1345.6,1243.31 1346,1246 C1345.6,1247.31889 1344.37955,1248.78667 1343,1249 C1341.50525,1249.81167 1340.5818,1250.63556 1340,1252 C1339.7491,1252.94611 1340.6445,1254.02833 1342,1254 C1342.5893,1254.02833 1342.9523,1253.96611 1343,1254 C1345.7672,1253.14222 1347.6779,1251.68222 1349,1250 C1349.5721,1248.54222 1350,1247.12222 1350,1246 C1350,1240.86278 1345.8057,1237 1341,1237 C1338.83115,1237 1337.1377,1237.48833 1336,1238 Z" id="Miniapp"></path>
        </g>
    </g>
</svg>