<?xml version="1.0" encoding="UTF-8" standalone="no"?>
<svg width="80px" height="80px" viewBox="0 0 80 80" version="1.1" xmlns="http://www.w3.org/2000/svg" xmlns:xlink="http://www.w3.org/1999/xlink" xmlns:sketch="http://www.bohemiancoding.com/sketch/ns">
    <!-- Generator: Sketch 3.4.2 (15857) - http://www.bohemiancoding.com/sketch -->
    <title>ppt</title>
    <desc>Created with Sketch.</desc>
    <defs></defs>
    <g id="最终稿" stroke="none" stroke-width="1" fill="none" fill-rule="evenodd" sketch:type="MSPage">
        <g id="ppt" sketch:type="MSArtboardGroup" fill="#FFFFFF">
            <path d="M26.3029212,41.7941654 L26.3029212,19.211406 L42.2116848,19.211406 C45.4288631,19.2114065 48.2901384,20.0257298 49.2822463,20.9485414 C51.9120603,23.2830721 54.5851675,22.7359183 54.5851675,29.634218 C54.5851675,36.5325178 51.9120603,37.7325702 49.2822463,40.0570301 C48.2901384,41.0385296 45.4288631,41.8406988 42.2116848,41.7941654 L26.3029212,41.7941654 Z M21,14 L21,66.1140601 L26.3029212,66.1140601 L26.3029212,47.0055714 L43.9793252,47.0055714 C49.1427225,47.1435877 53.8558129,44.4548364 56.3528079,41.7941654 C58.849803,39.1334944 59.8880887,35.3798722 59.8880887,31.3713534 C59.8880887,25.9475497 58.5357909,22.2807894 56.3528079,19.211406 C53.8633006,15.7110341 49.1427221,14 43.9793252,14 L21,14 Z" id="P-Copy-2" sketch:type="MSShapeGroup"></path>
        </g>
    </g>
</svg>