<?xml version="1.0" encoding="UTF-8" standalone="no"?>
<svg width="80px" height="80px" viewBox="0 0 80 80" version="1.1" xmlns="http://www.w3.org/2000/svg" xmlns:xlink="http://www.w3.org/1999/xlink" xmlns:sketch="http://www.bohemiancoding.com/sketch/ns">
    <!-- Generator: Sketch 3.4.2 (15857) - http://www.bohemiancoding.com/sketch -->
    <title>pdf</title>
    <desc>Created with Sketch.</desc>
    <defs></defs>
    <g id="最终稿" stroke="none" stroke-width="1" fill="none" fill-rule="evenodd" sketch:type="MSPage">
        <g id="pdf" sketch:type="MSArtboardGroup" fill="#FFFFFF">
            <g id="PDF-+-P-+-Path" sketch:type="MSLayerGroup" transform="translate(3.000000, 23.000000)">
                <path d="M26.5994527,7.38381214e-15 L35.7459763,0 C46.0302862,0 51.2989445,5.4486864 51.2989445,15.3482689 C51.2989445,25.2478514 46.0022094,33.2537336 35.7459763,33.2537336 L26.5994527,33.2537336 L26.5994527,7.38381214e-15 Z M31.7681071,5.21627194 C31.7681071,5.21627194 28.4482558,5.21627194 35.442616,5.21627194 C42.4369762,5.21627194 46.0201912,8.95556653 46.0201912,15.7493977 C46.0201912,22.5432288 42.4178811,28.0374617 35.442616,28.0374617 L31.7681071,28.0374617 L31.7681071,5.21627194 Z" id="PDF" sketch:type="MSShapeGroup"></path>
                <path d="M0,33.2537336 L0,0 C0,0 6.98050775,8.15917319e-16 12.0589829,0 C17.137458,-8.0728938e-16 20.6612808,3.58466855 21.5106651,5.11595902 C21.5978788,5.27318991 21.6807709,5.42821581 21.7593094,5.58181959 C22.4456668,6.92418136 22.7995309,8.15793285 22.7995309,9.80558812 C22.7995309,12.4455907 21.9010068,14.838656 20.2217994,16.6268668 C18.3068566,18.7553273 15.9255802,20.0375061 11.199739,20.2130538 C6.47389792,20.0375061 5.68306891,20.2130538 5.68306891,20.2130538 L5.68306891,33.2537336 L0,33.2537336 Z M5.68306891,16.3008498 L11.3602303,16.3008498 C17.7645827,16.3008498 17.116462,11.8378335 17.116462,9.89292954 C17.116462,7.94802561 17.5530566,3.91220395 11.3602303,3.91220395 L5.68306891,3.91220395 L5.68306891,16.3008498 Z" id="P" sketch:type="MSShapeGroup"></path>
                <path d="M53.1989054,0 L53.1989054,33.2537336 L58.4102267,33.2537336 L58.4102267,17.6049178 L72.1442298,17.6049178 L72.1442298,13.0406798 L58.4102267,13.0406798 L58.4102267,5.21627194 L74.0984753,5.21627194 L74.0984753,0 L53.1989054,0 Z" id="Path" sketch:type="MSShapeGroup"></path>
            </g>
        </g>
    </g>
</svg>