<?xml version="1.0" encoding="UTF-8" standalone="no"?>
<svg width="279px" height="279px" viewBox="0 0 279 279" version="1.1" xmlns="http://www.w3.org/2000/svg" xmlns:xlink="http://www.w3.org/1999/xlink">
    <!-- Generator: Sketch 39.1 (31720) - http://www.bohemiancoding.com/sketch -->
    <title>attention</title>
    <desc>Created with Sketch.</desc>
    <defs></defs>
    <g id="出错页汇总" stroke="none" stroke-width="1" fill="none" fill-rule="evenodd">
        <g id="Artboard" transform="translate(-144.000000, -69.000000)">
            <g id="attention" transform="translate(144.000000, 69.000000)">
                <path d="M279,141.1269 C279,62.7512231 216.545333,0.607276119 137.777778,0.607276119 C62.4546667,0.607276119 0,62.7512231 0,141.1269 C0,216.075269 62.4546667,278.219216 137.777778,278.219216 C216.545333,278.219216 279,216.075269 279,141.1269 Z" id="Fill-3" fill="#C9C9C9"></path>
                <path d="M131.70822,71.371104 C128.458195,71.371104 125.946056,74.0045122 126.096743,77.24315 L130.242802,166.352478 C130.319874,168.008952 131.723238,169.351789 133.373121,169.351789 L145.626879,169.351789 C147.278634,169.351789 148.680357,168.003991 148.757198,166.352478 L152.903257,77.24315 C153.054149,74.0001086 150.541341,71.371104 147.29178,71.371104 L131.70822,71.371104 Z M139.5,212.89876 C147.053306,212.89876 153.176471,206.806059 153.176471,199.290331 C153.176471,191.774604 147.053306,185.681903 139.5,185.681903 C131.946694,185.681903 125.823529,191.774604 125.823529,199.290331 C125.823529,206.806059 131.946694,212.89876 139.5,212.89876 Z" id="Path-6" fill="#FFFFFF"></path>
            </g>
        </g>
    </g>
</svg>