<?xml version="1.0" encoding="UTF-8" standalone="no"?>
<svg width="57px" height="75px" viewBox="0 0 57 75" version="1.1" xmlns="http://www.w3.org/2000/svg" xmlns:xlink="http://www.w3.org/1999/xlink">
    <!-- Generator: Sketch 41.2 (35397) - http://www.bohemiancoding.com/sketch -->
    <title>Oval 2</title>
    <desc>Created with Sketch.</desc>
    <defs></defs>
    <g id="★-Slice-★" stroke="none" stroke-width="1" fill="none" fill-rule="evenodd">
        <g id="SLICE" transform="translate(-1448.000000, -685.000000)" stroke="#555555" stroke-width="3">
            <path d="M1474.43483,755.262104 C1475.57539,756.458611 1477.4378,756.462028 1478.56517,755.262104 C1478.56517,755.262104 1502,731.948869 1502,712.677083 C1502,698.434258 1490.58326,687 1476.86957,687 C1462.41674,687 1451,698.434258 1451,712.677083 C1451,731.948869 1474.43483,755.262104 1474.43483,755.262104 Z M1476.5,721 C1481.19442,721 1485,717.19442 1485,712.5 C1485,707.80558 1481.19442,704 1476.5,704 C1471.80558,704 1468,707.80558 1468,712.5 C1468,717.19442 1471.80558,721 1476.5,721 Z" id="Oval-2"></path>
        </g>
    </g>
</svg>