<?xml version="1.0" encoding="UTF-8" standalone="no"?>
<svg width="60px" height="60px" viewBox="0 0 60 60" version="1.1" xmlns="http://www.w3.org/2000/svg" xmlns:xlink="http://www.w3.org/1999/xlink" xmlns:sketch="http://www.bohemiancoding.com/sketch/ns">
    <!-- Generator: Sketch 3.4 (15588) - http://www.bohemiancoding.com/sketch -->
    <title>big_selecter_disable_unselected_icon</title>
    <desc>Created with Sketch.</desc>
    <defs></defs>
    <g id="常用控件" stroke="none" stroke-width="1" fill="none" fill-rule="evenodd" sketch:type="MSPage">
        <g id="switches-4" sketch:type="MSArtboardGroup" transform="translate(-154.000000, -132.000000)" fill="#AAAAAA">
            <g id="switches-light" sketch:type="MSLayerGroup" transform="translate(0.000000, -3.000000)">
                <g id="big_selecter_unselected_icon" transform="translate(160.000000, 141.000000)" sketch:type="MSShapeGroup">
                    <g id="Page-1">
                        <g id="big_selecter_unselected_icon">
                            <g id="常用控件">
                                <g id="New-message-alert-3">
                                    <g id="check-off-copy">
                                        <path d="M0,6.00638655 C0,2.68915086 2.68354127,0 6.00638655,0 L41.9936134,0 C45.3108491,0 48,2.68354127 48,6.00638655 L48,41.9936134 C48,45.3108491 45.3164587,48 41.9936134,48 L6.00638655,48 C2.68915086,48 0,45.3164587 0,41.9936134 L0,6.00638655 L0,6.00638655 Z M4,5.99729162 C4,4.89421792 4.89153983,4 5.99729162,4 L42.0027084,4 C43.1057821,4 44,4.89153983 44,5.99729162 L44,42.0027084 C44,43.1057821 43.1084602,44 42.0027084,44 L5.99729162,44 C4.89421792,44 4,43.1084602 4,42.0027084 L4,5.99729162 L4,5.99729162 Z" id="Shape"></path>
                                    </g>
                                </g>
                            </g>
                        </g>
                    </g>
                </g>
            </g>
        </g>
    </g>
</svg>