<?xml version="1.0" encoding="UTF-8"?>
<svg width="96px" height="96px" viewBox="0 0 96 96" version="1.1" xmlns="http://www.w3.org/2000/svg" xmlns:xlink="http://www.w3.org/1999/xlink">
    <!-- Generator: Sketch 40.3 (33839) - http://www.bohemiancoding.com/sketch -->
    <title>actionbar_setting_icon copy</title>
    <desc>Created with Sketch.</desc>
    <defs>
        <path d="M32.9052002,39.8587979 C33.5872002,40.1530479 34.1069502,39.5796729 34.3640752,39.1630479 L35.8243252,37.0799229 C36.3770752,36.1407979 36.2299502,35.8699229 35.8243252,35.6897979 C35.2523252,35.4354229 35.0543252,35.5784229 34.3640752,36.3841729 L32.9052002,38.4700479 C32.6494502,38.8825479 32.4968252,39.6814229 32.9052002,39.8587979 L32.9052002,39.8587979 Z M46.6607002,39.0159229 C48.5238252,42.0230479 46.2550752,46.4326729 42.1039502,46.4780479 C37.8854502,46.5220479 30.7148252,39.8587979 30.7148252,39.8587979 L34.3640752,32.9109229 C34.3640752,32.9109229 44.7728252,35.9675479 46.6607002,39.0159229 L46.6607002,39.0159229 Z M42.3927002,19.7081729 C45.1303252,24.8135479 44.4400752,29.7635479 43.1214502,34.3010479 C41.1882002,33.1639229 40.4855752,32.6317979 39.4722002,32.2151729 C39.8558252,30.1031729 39.4364502,29.5682979 38.7434502,26.6560479 C37.2735752,20.4685479 29.6134502,16.4260479 21.9588252,17.6236729 C14.1144502,18.8515479 10.8130752,27.9842979 12.6707002,35.2195479 C14.3949502,41.9295479 17.6000752,45.6159229 24.1478252,48.1967979 C24.1478252,48.1967979 25.2395752,50.9839229 26.3382002,53.0601729 C27.4258252,55.1185479 29.2573252,57.2291729 29.2573252,57.2291729 C24.1629502,56.8290479 9.1589502,50.1272979 3.4307002,40.5160479 C-2.2947998,30.9047979 -1.2442998,18.3097979 9.5535752,11.3687979 C20.4229502,4.38654785 36.8720752,9.41079785 42.3927002,19.7081729 L42.3927002,19.7081729 Z M52.6199502,11.3742979 C48.2309502,14.4652979 45.3613252,18.0842979 43.8515752,21.7940479 C42.8313252,17.7570479 40.2504502,14.1916729 36.5530752,12.0659229 C41.0149502,4.94892285 46.5410752,2.11642285 53.3377002,0.949047853 C58.1034502,1.79604785 64.2125752,2.90017285 67.9319502,5.81242285 C63.6048252,5.91967285 58.5008252,7.23554785 52.6199502,11.3742979 L52.6199502,11.3742979 Z M76.6893252,47.5024229 C63.8042002,59.6656729 57.0900752,65.9370479 50.4185752,75.2966729 C49.2580752,72.3142979 46.9852002,71.4452979 46.0392002,69.0445479 C45.0987002,66.6451729 46.3293252,64.9264229 46.0392002,63.4854229 C45.7504502,62.0457979 44.3892002,60.3160479 43.1200752,60.0107979 C53.5590752,46.0215479 73.6395752,39.9564229 75.9605752,22.4884229 C78.0808252,6.52192285 65.3950752,1.91842285 54.7965752,0.253297853 C68.3155752,-1.16570215 79.4915752,3.39654785 84.7179502,13.4560479 C89.1935752,22.0800479 89.4589502,35.4519229 76.6893252,47.5024229 L76.6893252,47.5024229 Z" id="path-1"></path>
    </defs>
    <g id="Buttonsheet" stroke="none" stroke-width="1" fill="none" fill-rule="evenodd">
        <g id="actionbar_setting_icon-copy">
            <g id="ofm_donate_icon" transform="translate(4.000000, 10.000000)">
                <mask id="mask-2" fill="white">
                    <use xlink:href="#path-1"></use>
                </mask>
                <use id="SVGID_2_" fill="#7C8085" xlink:href="#path-1"></use>
            </g>
        </g>
    </g>
</svg>