<?xml version="1.0" encoding="UTF-8" standalone="no"?>
<svg width="96px" height="96px" viewBox="0 0 96 96" version="1.1" xmlns="http://www.w3.org/2000/svg" xmlns:xlink="http://www.w3.org/1999/xlink">
    <!-- Generator: Sketch 39.1 (31720) - http://www.bohemiancoding.com/sketch -->
    <title>del copy 2</title>
    <desc>Created with Sketch.</desc>
    <defs></defs>
    <g id="Buttonsheet" stroke="none" stroke-width="1" fill="none" fill-rule="evenodd">
        <g id="del-copy-2" fill="#7C8085">
            <path d="M77,40 L77,48 C79.0053611,48.1666667 80.8333333,49.9950926 81,52 L81,77 C80.8333333,79.0053611 79.0053611,80.8333333 77,81 L52,81 C49.9946389,80.8333333 48.1666667,79.0053611 48,77 L40,77 C40,83.5156296 45.4843704,89 52,89 L77,89 C83.5156296,89 89,83.5156296 89,77 L89,52 C89,45.4843704 83.5156296,40 77,40 M16,57 L16,20 C16,17.8313636 17.8313636,16 20,16 L57,16 C59.1686364,16 61,17.8313636 61,20 L61,57 C61,59.1686364 59.1686364,61 57,61 L20,61 C17.8313636,61 16,59.1686364 16,57 M69,57 L69,20 C69,13.462437 63.5380148,8 57,8 L20,8 C13.4619852,8 8,13.462437 8,20 L8,57 C8,63.5380148 13.4619852,69 20,69 L57,69 C63.5380148,69 69,63.5380148 69,57" id="Page-1"></path>
        </g>
    </g>
</svg>