<?xml version="1.0" encoding="UTF-8" standalone="no"?>
<svg width="96px" height="96px" viewBox="0 0 96 96" version="1.1" xmlns="http://www.w3.org/2000/svg" xmlns:xlink="http://www.w3.org/1999/xlink">
    <!-- Generator: Sketch 39.1 (31720) - http://www.bohemiancoding.com/sketch -->
    <title>del copy</title>
    <desc>Created with Sketch.</desc>
    <defs></defs>
    <g id="Buttonsheet" stroke="none" stroke-width="1" fill="none" fill-rule="evenodd">
        <g id="del-copy">
            <g id="Page-1" transform="translate(7.000000, 13.000000)">
                <path d="M40.5001,0.0001 C16.1941,0.0001 0.0001,14.5371 0.0001,32.4701 C0.0001,42.0741 4.6671,50.7011 12.7231,56.6461 L8.1001,69.0001 L23.6971,62.3011 C28.6931,63.9971 34.3371,64.9411 40.5001,64.9411 C64.7401,64.9411 81.0001,50.4031 81.0001,32.4701 C81.0001,14.5371 64.8061,0.0001 40.5001,0.0001 Z M70.6401,39.7451 L68.6931,45.4211 C66.3191,44.6061 61.0241,42.3231 56.2901,37.0491 C49.8301,45.3031 42.3131,46.0001 40.0001,46.0001 C37.6871,46.0001 30.1701,45.3031 23.7101,37.0491 C18.9761,42.3231 13.6811,44.6061 11.3071,45.4211 L9.3601,39.7451 C11.3931,39.0471 16.1241,36.9871 20.1311,32.0001 C16.1241,27.0121 11.3931,24.9531 9.3601,24.2551 L11.3071,18.5791 C13.6811,19.3941 18.9761,21.6771 23.7101,26.9511 C30.1701,18.6971 37.6871,18.0001 40.0001,18.0001 C42.3131,18.0001 49.8301,18.6971 56.2901,26.9511 C61.0241,21.6771 66.3191,19.3941 68.6931,18.5791 L70.6401,24.2551 C68.6071,24.9531 63.8751,27.0121 59.8681,32.0001 C63.8751,36.9871 68.6071,39.0471 70.6401,39.7451 Z M40,24 C38.298,24 32.505,24.612 27.463,32 C32.505,39.388 38.298,40 40,40 C41.702,40 47.495,39.388 52.537,32 C47.495,24.612 41.702,24 40,24 Z" id="Combined-Shape" fill="#7C8085"></path>
                <g id="Group-5"></g>
            </g>
        </g>
    </g>
</svg>