<?xml version="1.0" encoding="UTF-8" standalone="no"?>
<svg width="96px" height="96px" viewBox="0 0 96 96" version="1.1" xmlns="http://www.w3.org/2000/svg" xmlns:xlink="http://www.w3.org/1999/xlink">
    <!-- Generator: Sketch 39.1 (31720) - http://www.bohemiancoding.com/sketch -->
    <title>ofm_addtag_icon</title>
    <desc>Created with Sketch.</desc>
    <defs></defs>
    <g id="Buttonsheet" stroke="none" stroke-width="1" fill="none" fill-rule="evenodd">
        <g id="ofm_addtag_icon" fill="#7C8085">
            <g id="Page-1" transform="translate(10.000000, 10.000000)">
                <path d="M20,65 C15.5818313,65 12,61.418268 12,57.0002218 C12,52.581732 15.5818313,49 20,49 C24.4181687,49 28,52.581732 28,57.0002218 C28,61.418268 24.4181687,65 20,65 M75.8146579,29.7791626 L47.1990885,1.18447706 C45.6186324,-0.394825686 43.0565208,-0.394825686 41.4760646,1.18447706 L1.25203801,41.379148 C0.363959306,42.2665786 -0.0247438341,43.4637557 0.0850288118,44.6227203 L0.00494876683,44.7031914 L0,76.9150332 L0.0850288118,77 C5.80850259,77 23.9628287,76.9739255 32.2754073,76.9613379 L32.3766321,76.860187 C33.5265456,76.9599892 34.7106505,76.5715697 35.5906312,75.6926808 L75.8146579,35.4980098 C77.395114,33.9187071 77.395114,31.3580158 75.8146579,29.7791626" id="Fill-1"></path>
            </g>
        </g>
    </g>
</svg>