<?xml version="1.0" encoding="UTF-8" standalone="no"?>
<svg width="102px" height="102px" viewBox="0 0 102 102" version="1.1" xmlns="http://www.w3.org/2000/svg" xmlns:xlink="http://www.w3.org/1999/xlink">
    <!-- Generator: Sketch 40.1 (33804) - http://www.bohemiancoding.com/sketch -->
    <title>Combined Shape Copy 24</title>
    <desc>Created with Sketch.</desc>
    <defs></defs>
    <g id="过龙哥后改版0906" stroke="none" stroke-width="1" fill="none" fill-rule="evenodd">
        <g id="图标-copy-4" transform="translate(-2644.000000, -1910.000000)" fill="#FFFFFF">
            <path d="M2695,2012 C2666.83348,2012 2644,1989.16652 2644,1961 C2644,1932.83348 2666.83348,1910 2695,1910 C2723.16652,1910 2746,1932.83348 2746,1961 C2746,1989.16652 2723.16652,2012 2695,2012 Z M2695,2009 C2668.49033,2009 2647,1987.50967 2647,1961 C2647,1934.49033 2668.49033,1913 2695,1913 C2721.50967,1913 2743,1934.49033 2743,1961 C2743,1987.50967 2721.50967,2009 2695,2009 Z M2670.96294,1965.12852 C2670.77021,1964.93779 2670.75048,1964.61261 2670.9253,1964.39418 L2672.84156,1961.99981 C2673.0135,1961.78498 2673.33202,1961.72933 2673.56164,1961.88122 L2686.48804,1970.43238 C2686.94832,1970.73687 2687.67411,1970.70013 2688.09824,1970.35909 L2720.34958,1944.42578 C2720.56322,1944.25399 2720.90028,1944.27691 2721.09068,1944.46534 L2722.47056,1945.83096 C2722.66622,1946.0246 2722.66655,1946.33823 2722.47345,1946.52933 L2688.03065,1980.61606 C2687.63897,1981.00369 2687.00262,1981.00238 2686.61423,1980.618 L2670.96294,1965.12852 Z" id="Combined-Shape-Copy-24"></path>
        </g>
    </g>
</svg>