<?xml version="1.0" encoding="UTF-8" standalone="no"?>
<svg width="102px" height="102px" viewBox="0 0 102 102" version="1.1" xmlns="http://www.w3.org/2000/svg" xmlns:xlink="http://www.w3.org/1999/xlink">
    <!-- Generator: Sketch 3.6.1 (26313) - http://www.bohemiancoding.com/sketch -->
    <title>zhuan zhang3x</title>
    <desc>Created with Sketch.</desc>
    <defs></defs>
    <g id="红包／卡券" stroke="none" stroke-width="1" fill="none" fill-rule="evenodd">
        <g id="zhuan-zhang3x" fill="#FFFFFF">
            <path d="M51,102 C79.1665222,102 102,79.1665222 102,51 C102,22.8334778 79.1665222,0 51,0 C22.8334778,0 0,22.8334778 0,51 C0,79.1665222 22.8334778,102 51,102 Z M51,98 C76.9573832,98 98,76.9573832 98,51 C98,25.0426168 76.9573832,4 51,4 C25.0426168,4 4,25.0426168 4,51 C4,76.9573832 25.0426168,98 51,98 Z" id="Oval-91"></path>
            <g id="C2C-ICON" transform="translate(15.000000, 14.000000)">
                <path d="M39.5252196,40.2873305 L9.86666667,40.2873305 L9.86666667,44.8536519 C9.86666667,45.9753036 10.7617904,46.8619916 11.8659814,46.8619916 L37.8836804,46.8619916 L36.8852133,57.7966239 C36.7359271,59.4315197 37.6823978,59.9617836 39.0013508,58.9576098 L58.2556019,44.2985482 C61.1596296,42.0875912 60.5566893,40.2873305 56.8960551,40.2873305 L39.5252196,40.2873305 Z M32.0085063,33.7126695 L61.9969483,33.7126695 L61.9969483,29.1463481 C61.9969483,28.0246964 61.1044141,27.1380084 60.0034174,27.1380084 L33.649653,27.1380084 L34.6481201,16.2033761 C34.7974063,14.5684803 33.8509355,14.0382164 32.5319825,15.0423902 L13.2777314,29.7014518 C10.3737037,31.9124088 10.9766441,33.7126695 14.6372782,33.7126695 L32.0085063,33.7126695 Z" id="Rectangle-36"></path>
            </g>
        </g>
    </g>
</svg>