<?xml version="1.0" encoding="UTF-8"?>
<svg width="72px" height="72px" viewBox="0 0 72 72" version="1.1" xmlns="http://www.w3.org/2000/svg" xmlns:xlink="http://www.w3.org/1999/xlink">
    <!-- Generator: Sketch 50.2 (55047) - http://www.bohemiancoding.com/sketch -->
    <title>ChatRoom_Bubble_Voice_Sender_Playing2@3x</title>
    <desc>Created with Sketch.</desc>
    <defs></defs>
    <g id="ChatRoom_Bubble_Voice_Sender_Playing2" stroke="none" stroke-width="1" fill="none" fill-rule="evenodd" opacity="0.9">
        <g id="Group-Copy-10">
            <g id="Group-5-Copy-3" transform="translate(36.000000, 36.000000) scale(-1, 1) translate(-36.000000, -36.000000) "></g>
            <path d="M46.2174405,20.4 C50.099127,24.3923882 52.5,29.907821 52.5,36 C52.5,42.092179 50.099127,47.6076118 46.2174405,51.6 L42.7172619,48 C45.7031746,44.9289322 47.55,40.6862915 47.55,36 C47.55,31.3137085 45.7031746,27.0710678 42.7172619,24 L46.2174405,20.4 Z M38.0503571,28.8 C39.8419048,30.6426407 40.95,33.1882251 40.95,36 C40.95,38.8117749 39.8419048,41.3573593 38.0503571,43.2 L31.05,36 L38.0503571,28.8 Z" id="Combined-Shape" fill="#000000" fill-rule="nonzero" transform="translate(41.775000, 36.000000) scale(-1, 1) translate(-41.775000, -36.000000) "></path>
        </g>
    </g>
</svg>