<?xml version="1.0" encoding="UTF-8"?>
<svg width="300px" height="294px" viewBox="0 0 300 294" version="1.1" xmlns="http://www.w3.org/2000/svg" xmlns:xlink="http://www.w3.org/1999/xlink">
    <!-- Generator: Sketch 48.2 (47327) - http://www.bohemiancoding.com/sketch -->
    <title>chatfrom_bg_pic_from</title>
    <desc>Created with Sketch.</desc>
    <defs>
        <rect id="path-1" x="0" y="0" width="165" height="120" rx="2"></rect>
    </defs>
    <g id="Page-1" stroke="none" stroke-width="1" fill="none" fill-rule="evenodd">
        <g id="chatfrom_bg_pic_from">
            <path d="M0,15.0091202 C0,6.71981202 6.7221752,0 15.0053962,0 L284.994604,0 C293.281855,0 300,6.71061085 300,15.0091202 L300,278.99088 C300,287.280188 293.277825,294 284.994604,294 L15.0053962,294 C6.7181447,294 0,287.289389 0,278.99088 L0,15.0091202 Z" id="Combined-Shape" fill="#F5F5F5" fill-rule="nonzero"></path>
            <g id="Group" transform="translate(64.000000, 83.000000)">
                <g id="Rectangle-40">
                    <g id="path-1-Clipped">
                        <mask id="mask-2" fill="white">
                            <use xlink:href="#path-1"></use>
                        </mask>
                        <g id="path-1"></g>
                        <rect id="path-1" stroke="#C9C9C9" stroke-width="20" mask="url(#mask-2)" x="0" y="0" width="165" height="120" rx="2"></rect>
                    </g>
                </g>
                <polygon id="Rectangle-39" fill="#C9C9C9" fill-rule="nonzero" points="126.735944 64.1489747 103.837265 81.9857203 111.876332 98.6320797 55.7308807 46.75 2.75 96.5730655 2.75 119.245765 162.59375 119.245765 162.59375 96.5730655"></polygon>
            </g>
        </g>
    </g>
</svg>