<?xml version="1.0" encoding="UTF-8" standalone="no"?>
<svg width="60px" height="60px" viewBox="0 0 60 60" version="1.1" xmlns="http://www.w3.org/2000/svg" xmlns:xlink="http://www.w3.org/1999/xlink">
    <!-- Generator: Sketch 3.8.3 (29802) - http://www.bohemiancoding.com/sketch -->
    <title>circle_notreceive</title>
    <desc>Created with Sketch.</desc>
    <defs></defs>
    <g id="Page-1" stroke="none" stroke-width="1" fill="none" fill-rule="evenodd">
        <g id="小图标优化" transform="translate(-2041.000000, -765.000000)">
            <g id="circle_notreceive" transform="translate(2041.000000, 765.000000)">
                <g id="Group" transform="translate(2.000000, 3.000000)" fill="#C0C0C0">
                    <path d="M33.3919013,19.0634713 C33.6196197,19.2956305 33.8356,19.5389974 34.0421899,19.7919709 L34.0421899,1.24565411 C31.5732845,0.441903002 28.9463065,0 26.2168161,0 C22.8260817,0 19.5918547,0.677264383 16.6252555,1.89249764 L33.4012918,19.0546653 L33.3919013,19.0634713 Z M25.9682158,15.7879038 C25.974443,15.7879038 25.9806701,15.7871297 25.9868973,15.7871297 C26.3005908,15.7871297 26.6103924,15.8057085 26.9170804,15.8335767 L14.1809669,3.16671534 C8.9221243,5.87921807 4.72423529,10.3427714 2.3750365,15.7863556 L25.9682158,15.7863556 L25.9682158,15.7879038 Z M36.4644244,2.3750365 L36.4644244,25.9682199 C36.4644244,26.2886547 36.4466284,26.6044231 36.4172264,26.9170804 L49.0840877,14.1844611 C46.3736843,8.92295181 41.909991,4.72385515 36.4644244,2.3750365 Z M3.16671534,38.0715305 C5.8744668,43.3275391 10.3298784,47.5239439 15.7662697,49.8757666 L15.7662697,26.3015254 L15.7863845,26.3015254 C15.7863845,26.2953015 15.7856108,26.2898557 15.7856108,26.2844099 C15.7856108,25.9631056 15.8034046,25.6464692 15.8335767,25.3337227 L3.16671534,38.0715305 Z M18.8779533,33.2072983 C18.6430971,32.9690046 18.4199838,32.7195159 18.2086132,32.4588322 L18.2086132,51.000161 C20.6847802,51.8070011 23.3190837,52.2508031 26.0567239,52.2508031 C29.4386529,52.2508031 32.664794,51.5783031 35.6255476,50.3708417 L18.8497706,33.2360855 L18.8779533,33.2072983 Z M50.365168,16.6252555 L33.216125,33.3999864 L33.1985321,33.3827775 C32.9634275,33.6135327 32.7155281,33.8333369 32.4588322,34.0421899 L51.0009101,34.0421899 C51.8077828,31.5688069 52.2508031,28.936633 52.2508031,26.2012059 C52.2508031,22.8157531 51.5758769,19.5867445 50.365168,16.6252555 Z M26.301567,36.4651688 C25.9750653,36.4651688 25.6524505,36.4473837 25.3337227,36.4172264 L38.0680661,49.0840877 C43.3262981,46.3784319 47.524177,41.9221031 49.8757666,36.4845005 L26.301567,36.4845005 L26.301567,36.4651688 Z M19.0546653,18.8688261 C19.2892261,18.6377908 19.5365958,18.4177198 19.7919709,18.2086132 L1.24565411,18.2086132 C0.441903002,20.6795169 0,23.3086211 0,26.0403207 C0,29.4291006 0.674862737,32.6612463 1.8868938,35.6255476 L19.0346516,18.8492469 L19.0546653,18.8688261 Z" id="Combined-Shape"></path>
                </g>
                <g id="navbar_me_icon_focus" transform="translate(23.000000, 21.000000)" fill="#7F7F7F">
                    <path d="M14.3865397,0.983612903 C16.0274603,0.0946451613 17.9855238,-0.21483871 19.8220159,0.153290323 C21.645,0.502258065 23.3006032,1.50270968 24.5580159,2.83935484 C26.0955714,4.47270968 27.0775397,6.57870968 27.4628095,8.76890323 C28.0236825,11.9194839 27.4040794,15.3069677 25.5734603,17.9669032 C25.0730794,18.6932903 24.482254,19.359871 23.8127302,19.9387742 C23.5220159,20.2023871 23.2219048,20.4787742 23.0539365,20.8387742 C22.9259048,21.1134194 22.971127,21.4234839 22.9634921,21.7167097 C22.9681905,21.9356129 22.9276667,22.1789032 23.0656825,22.3693548 C23.3434762,22.7787097 23.7921746,23.0260645 24.2115079,23.2716774 C27.1274603,25.0728387 30.0434127,26.8751613 32.9593651,28.6769032 C33.1155873,28.7750323 33.2718095,28.8754839 33.4415397,28.952129 C34.3953175,29.3951613 35.2087302,30.1290968 35.7414127,31.0285161 C36.2083175,31.8083226 36.4620317,32.7112258 36.470254,33.6176129 C36.4731905,34.4113548 36.470254,35.2056774 36.4714286,36 L0.0587301587,36 C0.0593174603,35.2056774 0.0575555556,34.4119355 0.0593174603,33.6181935 C0.0693015873,32.5585161 0.415809524,31.5058065 1.04069841,30.6447097 C1.5927619,29.870129 2.3691746,29.2650968 3.24014286,28.8772258 C6.24595238,27.0290323 9.24471429,25.1680645 12.2481746,23.3152258 C12.6516508,23.067871 13.0568889,22.8071613 13.3752063,22.454129 C13.5008889,22.3176774 13.5895714,22.1405806 13.5678413,21.9512903 C13.5437619,21.5489032 13.6424286,21.1105161 13.4286508,20.7435484 C13.1743492,20.295871 12.7509048,19.9834839 12.3820794,19.6345161 C10.9279206,18.261871 9.90953968,16.4711613 9.361,14.5660645 C8.41838095,11.2685806 8.82361905,7.57741935 10.6143016,4.626 C11.5299048,3.12212903 12.8149206,1.81683871 14.3865397,0.983612903 L14.3865397,0.983612903 Z" id="Shape"></path>
                </g>
            </g>
        </g>
    </g>
</svg>