<?xml version="1.0" encoding="UTF-8" standalone="no"?>
<svg width="192px" height="192px" viewBox="0 0 192 192" version="1.1" xmlns="http://www.w3.org/2000/svg" xmlns:xlink="http://www.w3.org/1999/xlink" xmlns:sketch="http://www.bohemiancoding.com/sketch/ns">
    <!-- Generator: Sketch 3.3 (11970) - http://www.bohemiancoding.com/sketch -->
    <title>default_voicevoip</title>
    <desc>Created with Sketch.</desc>
    <defs></defs>
    <g id="模块/插件" stroke="none" stroke-width="1" fill="none" fill-rule="evenodd" sketch:type="MSPage">
        <g id="default_voicevoip" sketch:type="MSArtboardGroup">
            <rect id="Path-2" fill="#45C01A" sketch:type="MSShapeGroup" x="0" y="0" width="192" height="192"></rect>
            <path d="M119.159023,118.16251 C120.667088,116.64901 126.053035,114.05444 128.207414,116.64901 C130.361793,119.243581 145.011569,120.324652 150.612954,120.757081 C156.214339,121.189509 155.998901,127.459722 155.998901,127.459722 L155.998901,147.567645 L155.998901,150.162216 C154.706274,152.973001 152.98277,155.351357 150.397516,155.567572 C146.735072,156 141.133687,156 138.117557,156 C111.834135,152.108144 88.3514056,139.351504 70.6854992,120.973295 C52.3732791,103.459942 39.8778819,79.8925915 36,53.7306699 C36,50.7036707 36,45.0821007 36.4308758,41.4064588 C36.6463136,38.8118881 39.0161304,37.0821743 41.8168228,36.0011031 L44.4020774,36.0011031 L64.4378006,36.0011031 C64.4378006,36.0011031 70.4700613,35.7848889 71.1163749,41.4064588 C71.5472507,47.0280288 72.6244401,61.5143821 75.2096947,63.6765244 C77.7949493,66.0548809 74.9942568,71.2440224 73.7016295,72.757522 C72.6244401,73.8385931 64.0069248,83.135805 59.6981671,87.6763038 C64.8686763,96.9735156 72.1935643,104.973442 79.0875766,112.973369 C87.0587783,119.67601 94.8145421,126.811079 104.293809,132.216435 C108.818004,127.89215 118.081833,119.243581 119.159023,118.16251 Z" id="Shape" fill="#FFFFFF" sketch:type="MSShapeGroup"></path>
        </g>
    </g>
</svg>