<?xml version="1.0" encoding="UTF-8"?>
<svg width="120px" height="120px" viewBox="0 0 120 120" version="1.1" xmlns="http://www.w3.org/2000/svg" xmlns:xlink="http://www.w3.org/1999/xlink">
    <!-- Generator: Sketch 52.5 (67469) - http://www.bohemiancoding.com/sketch -->
    <title>avatar_contacts_groupchat</title>
    <desc>Created with Sketch.</desc>
    <g id="avatar_contacts_groupchat" stroke="none" stroke-width="1" fill="none" fill-rule="evenodd">
        <rect id="Rectangle-8" fill="#07C160" x="0" y="0" width="120" height="120" rx="12"></rect>
        <g id="icon14" transform="translate(24.000000, 24.000000)" fill="#FFFFFF">
            <path d="M44.2603146,12.0264784 C44.5046064,12.008928 44.7512721,12 45,12 C50.5809827,12 55.1052632,16.4824506 55.1052632,22.0005187 L55.1052632,26.2754642 C55.1052632,29.1232399 53.5918292,33.2071509 51.7404307,35.3789326 L50.8270853,36.4503318 C49.3377661,38.1973767 49.8030005,40.420994 51.8855974,41.426276 L66.1854375,48.3288939 C67.7398775,49.0792313 69,51.0629253 69,52.7886583 L69,54.5039047 C69,55.8824601 67.8608201,57 66.4700726,57 L63.5441392,57 C63.1773185,53.8567728 61.0409664,50.727317 58.2359856,49.3590836 L41.2549255,41.075942 C40.8956212,40.9006781 40.9103565,40.9710337 41.1713178,40.661691 L42.2559155,39.3760119 C45.0047077,36.1176012 47.1,30.3937911 47.1,26.1305571 L47.1,21.0006224 C47.1,17.6608362 46.0492531,14.5651181 44.2603146,12.0264784 Z M23.4957381,37.050414 C21.2889529,34.4348555 19.5,29.5484894 19.5,26.1278716 L19.5,20.9987411 C19.5,14.3720194 24.8860685,9 31.5,9 C38.127417,9 43.5,14.3789407 43.5,21.0006224 L43.5,26.1305571 C43.5,29.5478878 41.7027972,34.448581 39.5042615,37.0547191 L38.4196638,38.3403982 C36.6510972,40.436852 37.2035631,43.1051928 39.676647,44.3115311 L56.6577071,52.5946727 C58.5036045,53.4950776 60,55.8755104 60,57.94639 L60,60.0046856 C60,61.6589521 58.6472238,63 56.9957112,63 L6.00428883,63 C4.34506593,63 3,61.6672664 3,60.0046856 L3,57.94639 C3,55.8911231 4.49445272,53.4957236 6.34229282,52.5939981 L23.3233523,44.307429 C25.7861314,43.1056201 26.3587772,40.4437873 24.5803357,38.3359167 L23.4957381,37.050414 Z" id="Combined-Shape"></path>
        </g>
    </g>
</svg>