<?xml version="1.0" encoding="UTF-8" standalone="no"?>
<svg width="192px" height="192px" viewBox="0 0 192 192" version="1.1" xmlns="http://www.w3.org/2000/svg" xmlns:xlink="http://www.w3.org/1999/xlink" xmlns:sketch="http://www.bohemiancoding.com/sketch/ns">
    <!-- Generator: Sketch 3.3 (11970) - http://www.bohemiancoding.com/sketch -->
    <title>default_qqmail</title>
    <desc>Created with Sketch.</desc>
    <defs></defs>
    <g id="模块/插件" stroke="none" stroke-width="1" fill="none" fill-rule="evenodd" sketch:type="MSPage">
        <g id="default_qqmail" sketch:type="MSArtboardGroup">
            <g id="blue-ver" sketch:type="MSLayerGroup">
                <rect id="Rectangle-103" fill="#2782D7" sketch:type="MSShapeGroup" x="0" y="0" width="192" height="192"></rect>
                <path d="M31,60 L31,136.999599 C31,138.656675 32.3504188,140 33.9907061,140 L158.009294,140 C159.661015,140 161,138.654424 161,136.999599 L161,60 L103.285404,107.406415 C99.1637899,110.791884 92.838864,110.794064 88.7145959,107.406415 L31,60 Z" id="Rectangle-152" fill="#FFFFFF" sketch:type="MSShapeGroup"></path>
                <path d="M32.6611296,52 C31.0016014,52 30.711802,52.8211888 32.0175348,53.8370475 L93.6398502,101.779141 C94.9439308,102.793715 97.0566112,102.795 98.362344,101.779141 L159.984659,53.8370475 C161.28874,52.8224742 161.011104,52 159.341065,52 L32.6611296,52 Z" id="Path-135" fill="#FFFFFF" sketch:type="MSShapeGroup"></path>
            </g>
        </g>
    </g>
</svg>