<?xml version="1.0" encoding="UTF-8" standalone="no"?>
<svg width="192px" height="192px" viewBox="0 0 192 192" version="1.1" xmlns="http://www.w3.org/2000/svg" xmlns:xlink="http://www.w3.org/1999/xlink" xmlns:sketch="http://www.bohemiancoding.com/sketch/ns">
    <!-- Generator: Sketch 3.3 (11970) - http://www.bohemiancoding.com/sketch -->
    <title>default_masssend</title>
    <desc>Created with Sketch.</desc>
    <defs></defs>
    <g id="模块/插件" stroke="none" stroke-width="1" fill="none" fill-rule="evenodd" sketch:type="MSPage">
        <g id="default_masssend" sketch:type="MSArtboardGroup">
            <rect id="Path-4" fill="#45C01A" sketch:type="MSShapeGroup" x="0" y="0" width="192" height="192"></rect>
            <path d="M77.7516889,74.3576803 C77.1078406,74.2424454 76.4375452,74.1818182 75.7427742,74.1818182 C68.7315419,74.1818182 64.2128211,80.3559118 64.2128211,86.5179116 C64.2128211,92.4554043 66.2355467,93.967585 68.6060806,97.4880453 C71.7468116,102.151512 66.900495,104.176169 64.5620236,105.461796 C56.1686187,110.078178 52.3636364,111.867409 52.3636364,114.268747 L52.3636364,117.271272 C52.3636364,118.388347 53.1554407,119.272727 54.3968171,119.272727 L59.6363636,119.272727 L59.6363636,116.569806 C59.6363636,113.81923 68.9079768,107.928324 78.4612429,102.447945 C79.837351,101.658519 81.1825662,101.458698 81.9158535,100.971936 C81.7853116,100.321857 81.8480228,99.5900785 82.1858009,98.7615963 C81.8436975,97.9434016 81.1902307,96.8385363 80.1357279,95.3117208 C76.6551381,90.2713001 76.3812157,87.1907905 76.3812152,83.4626627 C76.3812149,81.6944535 76.5138799,77.8798041 77.7516889,74.3576803 L77.7516889,74.3576803 Z M114.248311,74.3576803 C114.892159,74.2424454 115.562455,74.1818182 116.257226,74.1818182 C123.268458,74.1818182 127.787179,80.3559118 127.787179,86.5179116 C127.787179,92.4554043 125.764453,93.967585 123.393919,97.4880453 C120.253188,102.151512 125.099505,104.176169 127.437976,105.461796 C135.831381,110.078178 139.636364,111.867409 139.636364,114.268747 L139.636364,117.271272 C139.636364,118.388347 138.844559,119.272727 137.603183,119.272727 L132.363636,119.272727 L132.363636,116.569806 C132.363636,113.81923 123.092023,107.928324 113.538757,102.447945 C112.162649,101.658519 110.817434,101.458698 110.084146,100.971936 C110.214688,100.321857 110.151977,99.5900785 109.814199,98.7615963 C110.156302,97.9434016 110.809769,96.8385363 111.864272,95.3117208 C115.344862,90.2713001 115.618784,87.1907905 115.618785,83.4626627 C115.618785,81.6944535 115.48612,77.8798041 114.248311,74.3576803 L114.248311,74.3576803 Z M150.981818,52.3636364 C154.355564,52.3636364 157.090909,54.8818909 157.090909,57.9878788 L157.090909,131.10303 C157.090909,134.209018 154.355564,136.727273 150.981818,136.727273 L41.0181818,136.727273 C37.6444364,136.727273 34.9090909,134.209018 34.9090909,131.10303 L34.9090909,57.9878788 C34.9090909,54.8818909 37.6444364,52.3636364 41.0181818,52.3636364 L150.981818,52.3636364 Z M85.6438602,136.727273 L106.323653,136.727273 C107.285329,136.727273 108.000231,137.291977 107.437882,137.849818 C106.987703,138.295895 97.8958931,147.229197 97.1181762,147.991939 C96.6081733,148.491937 95.3892516,148.483114 94.8792488,147.991939 C94.3079259,147.442921 85.1712476,138.476286 84.5356136,137.826288 C84.070479,137.3508 84.5849687,136.727273 85.6438602,136.727273 Z M80.935815,80.7134168 C80.935815,88.7577618 83.5785588,90.8065227 86.6757234,95.5761786 C90.7791704,101.894424 84.4473312,104.637508 81.3920571,106.379324 C70.4258543,112.633777 65.4545455,115.057898 65.4545455,118.311323 L65.4545455,122.379259 C65.4545455,123.892717 66.4890585,125.090909 68.1109492,125.090909 L123.889051,125.090909 C125.510941,125.090909 126.545455,123.892717 126.545455,122.379259 L126.545455,118.311323 C126.545455,115.057898 121.574146,112.633777 110.607943,106.379324 C107.552669,104.637508 101.22083,101.894424 105.324277,95.5761786 C108.421441,90.8065227 111.064185,88.7577618 111.064185,80.7134168 C111.064185,72.3649011 105.160358,64 96,64 C86.8396417,64 80.935815,72.3649011 80.935815,80.7134168 Z" id="Fill-98" fill="#FFFFFF" sketch:type="MSShapeGroup"></path>
        </g>
    </g>
</svg>