<?xml version="1.0" encoding="UTF-8"?>
<svg width="120px" height="120px" viewBox="0 0 120 120" version="1.1" xmlns="http://www.w3.org/2000/svg" xmlns:xlink="http://www.w3.org/1999/xlink">
    <!-- Generator: Sketch Beta 50.1 (55040) - http://www.bohemiancoding.com/sketch -->
    <title>avatar_wechatwork_tags</title>
    <desc>Created with Sketch Beta.</desc>
    <defs></defs>
    <g id="avatar_wechatwork_tags" stroke="none" stroke-width="1" fill="none" fill-rule="evenodd">
        <rect id="Rectangle-8" fill="#2782D7" x="0" y="0" width="120" height="120" rx="12"></rect>
        <g id="icon28" transform="translate(24.000000, 24.000000)" fill="#FFFFFF">
            <g id="Group-2" transform="translate(5.500000, 9.000000)">
                <path d="M57.143349,34.8938844 C57.4235139,35.2402486 57.4034176,35.7497467 57.0806961,36.0712861 C56.7366962,36.4164682 56.1787307,36.4164682 55.8347308,36.0712861 L55.8335487,36.0724683 C55.718882,35.9459803 55.600669,35.8218567 55.4789096,35.7000972 C53.7908276,34.0120152 51.7043677,32.96583 49.5221552,32.5591772 C49.447681,32.5509023 49.3732068,32.5402631 49.2999148,32.5284418 C49.2254406,32.5154383 49.1521485,32.5012528 49.0800385,32.484703 C48.4275026,32.3345724 47.8092485,32.0071223 47.3009325,31.4999885 C45.8610978,30.0589717 45.8610978,27.7242644 47.3009325,26.2844298 C48.7419493,24.843413 51.0766565,24.843413 52.5176733,26.2844298 C52.986979,26.7537355 53.3026078,27.3199759 53.4657418,27.9181338 C53.5012057,28.046986 53.5295768,28.1770203 53.549673,28.3070546 C53.5685871,28.4264498 53.5827727,28.545845 53.5898654,28.6652401 C54.0154323,30.7942567 55.0521606,32.8263386 56.7024144,34.4765924 C56.7863457,34.5605237 56.8726412,34.6420907 56.9577545,34.7224755 C57.0014934,34.7532109 57.0428679,34.7863106 57.0806961,34.8241387 C57.1031566,34.8465992 57.1244349,34.8702418 57.143349,34.8938844 Z M42.6490135,43.7212057 C42.3688487,43.3748415 42.3889449,42.8653434 42.7116664,42.5438039 C43.0556663,42.1986219 43.6136318,42.1986219 43.9576317,42.5438039 L43.9588138,42.5426218 C44.0734805,42.6691097 44.1916935,42.7932334 44.3134529,42.9149928 C46.0015349,44.6030748 48.0879948,45.6492601 50.2702073,46.0559129 C50.3446815,46.0641878 50.4191557,46.074827 50.4924478,46.0866483 C50.566922,46.0996517 50.640214,46.1138373 50.712324,46.1303871 C51.3648599,46.2805177 51.983114,46.6079677 52.49143,47.1151016 C53.9312647,48.5561184 53.9312647,50.8908257 52.49143,52.3306603 C51.0504132,53.7716771 48.715706,53.7716771 47.2746892,52.3306603 C46.8053835,51.8613546 46.4897547,51.2951142 46.3266207,50.6969563 C46.2911568,50.5681041 46.2627857,50.4380698 46.2426895,50.3080354 C46.2237754,50.1886403 46.2095898,50.0692451 46.2024971,49.94985 C45.7769302,47.8208334 44.7402019,45.7887515 43.0899481,44.1384976 C43.0060169,44.0545664 42.9197213,43.9729994 42.834608,43.8926145 C42.7908692,43.8618792 42.7494946,43.8287795 42.7116664,43.7909513 C42.689206,43.7684909 42.6679276,43.7448483 42.6490135,43.7212057 Z M54.3097828,46.5547719 C53.9634186,46.8349368 53.4539205,46.8148405 53.132381,46.492119 C52.787199,46.1481191 52.787199,45.5901536 53.132381,45.2461537 L53.1311989,45.2449716 C53.2576868,45.1303049 53.3818105,45.0120919 53.5035699,44.8903325 C55.1916519,43.2022505 56.2378372,41.1157906 56.64449,38.9335781 C56.6527649,38.8591039 56.6634041,38.7846297 56.6752254,38.7113376 C56.6882288,38.6368634 56.7024144,38.5635714 56.7189642,38.4914614 C56.8690948,37.8401076 57.1965449,37.2206714 57.7036787,36.7123554 C59.1446955,35.2725207 61.4794028,35.2725207 62.9192374,36.7123554 C64.3602542,38.1533722 64.3602542,40.4880794 62.9192374,41.9290962 C62.4499317,42.3984019 61.8836913,42.7140307 61.2855334,42.8771647 C61.1566812,42.9126286 61.0266469,42.9409997 60.8966126,42.9610959 C60.7772174,42.98001 60.6578222,42.9941956 60.5384271,43.0012883 C58.4094105,43.4268552 56.3773286,44.4635835 54.7270748,46.1138373 C54.6431435,46.1977685 54.5615765,46.2840641 54.4811917,46.3691774 C54.4504563,46.4129163 54.4173566,46.4542908 54.3795285,46.492119 C54.357068,46.5145795 54.3334254,46.5358578 54.3097828,46.5547719 Z M45.4825797,32.0604364 C45.8289439,31.7802715 46.338442,31.8003678 46.6599815,32.1230893 C47.0051635,32.4670892 47.0051635,33.0250547 46.6599815,33.3690546 L46.6611636,33.3702367 C46.5346757,33.4849034 46.410552,33.6031164 46.2887926,33.7248758 C44.6007106,35.4129578 43.5545253,37.4994177 43.1478725,39.6816302 C43.1395976,39.7561044 43.1289584,39.8305786 43.1171371,39.9038706 C43.1041337,39.9783449 43.0899481,40.0516369 43.0733983,40.1237469 C42.9232677,40.7762828 42.5958177,41.3945369 42.0886838,41.9028529 C40.647667,43.3426876 38.3129597,43.3426876 36.8731251,41.9028529 C35.4321083,40.4618361 35.4321083,38.1271289 36.8731251,36.6861121 C37.3424308,36.2168064 37.9086712,35.9011776 38.5068291,35.7380436 C38.6356813,35.7025797 38.7657156,35.6742086 38.89575,35.6541124 C39.0151451,35.6351983 39.1345403,35.6210127 39.2539354,35.61392 C41.382952,35.1883531 43.4150339,34.1516248 45.0652878,32.501371 C45.149219,32.4174397 45.230786,32.3311442 45.3111709,32.2460309 C45.3419062,32.202292 45.3750059,32.1609175 45.4128341,32.1230893 C45.4352945,32.1006288 45.4589371,32.0793505 45.4825797,32.0604364 Z M50.9663638,14.040161 C52.3459098,16.8737272 53.0445488,19.8787024 53.0445488,22.9687908 C53.0445488,23.4889281 53.0220883,24.0078833 52.9818959,24.5244743 C52.9251536,24.4594571 52.8731399,24.3908935 52.810487,24.3294228 C51.5810715,23.1000073 49.7038487,22.9285984 48.2841102,23.7986463 C48.2959315,23.5468525 48.3124814,23.2950588 48.3124814,23.043265 C48.3124814,20.6151695 47.7604265,18.2520911 46.6740488,16.0166828 C45.8536504,14.3333293 44.7483586,12.7646425 43.3865446,11.3567254 C39.8720713,7.72167482 34.9213098,5.37751053 29.4456825,4.75452788 C28.451511,4.64104338 27.4679786,4.58430113 26.5234565,4.58430113 C25.6238554,4.58430113 24.6828797,4.63749699 23.7253542,4.74152445 C18.22372,5.33968236 13.2445874,7.67202535 9.70292513,11.3106223 C8.33520042,12.7161751 7.22399798,14.2801335 6.39768894,15.9599406 C5.29357928,18.2095344 4.73324954,20.592709 4.73324954,23.043265 C4.73324954,26.200735 5.70141422,29.3239231 7.53253398,32.0771044 C8.31037569,33.2462313 9.23598368,34.3385196 10.2904439,35.3386018 C10.6651792,35.694423 11.0552821,36.0407872 11.4631171,36.3717837 C11.7290964,36.5892956 11.9832544,36.7855292 12.2362303,36.973488 C12.7350892,37.3364019 13.0341682,37.9274671 13.0341682,38.5516318 C13.0341682,38.7786009 12.986883,38.979563 12.9395978,39.1474255 C12.7244501,39.969006 12.433646,41.0742978 12.2220447,41.8828749 C12.1357492,42.2115071 12.0648214,42.4810328 12.0151719,42.6713558 L11.8354881,43.3971838 C11.8354881,43.5745033 11.9737973,43.7187232 12.1440241,43.7187232 C12.1960378,43.7187232 12.2527801,43.6974448 12.3544433,43.6383383 L12.3591718,43.6359741 L17.216545,40.7728546 C17.270923,40.7409371 17.3229367,40.7184766 17.3773147,40.6912876 C17.7898782,40.4761399 18.196531,40.3662018 18.6161872,40.3662018 C18.8857129,40.3662018 19.1481459,40.4063942 19.3963932,40.4844148 C20.6128052,40.8414181 21.871774,41.1014868 23.1461104,41.2705314 C23.3387976,41.2965383 23.5314848,41.3260916 23.7253542,41.3473699 C24.6533264,41.4490331 25.5943021,41.5010468 26.5234565,41.5010468 C27.4679786,41.5010468 28.451511,41.4443046 29.4456825,41.3308201 C31.0829329,41.1452256 32.6669874,40.8000436 34.1848427,40.3177344 C34.051262,41.7161945 34.722712,43.1288402 36.0218731,43.8724001 C36.2405672,43.9965238 36.4651719,44.0958227 36.6945052,44.1726612 C34.5725814,44.9339531 32.335991,45.4706402 30.0107408,45.7342553 C28.8286105,45.8690181 27.6559373,45.9375817 26.5234565,45.9375817 C25.4134362,45.9375817 24.2880482,45.8749288 23.1803922,45.7531694 C21.4757603,45.5663928 19.8586061,45.2673138 18.2296306,44.7991902 L10.6592685,48.5985569 C10.6178939,48.6281101 10.572973,48.6505706 10.5292342,48.6765775 C10.5197771,48.6824881 10.5103201,48.6860345 10.500863,48.6919452 C10.2017841,48.8621719 9.86133058,48.9685636 9.49250594,48.9685636 C8.36475368,48.9685636 7.45096699,48.0535948 7.45096699,46.9270247 C7.45096699,46.8608254 7.46515255,46.7993546 7.47106321,46.7355196 C7.47815599,46.6515883 7.48406664,46.566475 7.50179859,46.4860901 C7.53135185,46.3536915 7.57272641,46.2260215 7.6271044,46.104262 L7.93209401,44.8701181 L8.99246484,40.4855969 C7.07859596,38.9287314 4.84200552,36.3871514 3.53456946,34.4212687 C1.22232268,30.9446237 1.13686838e-13,26.9844873 1.13686838e-13,22.9687908 C1.13686838e-13,19.8491491 0.710460283,16.8217135 2.11246676,13.9680511 C3.14446648,11.8662235 4.53110526,9.91452644 6.23100857,8.16733793 C10.5386912,3.74144225 16.5592806,0.906693905 23.1839385,0.18677658 C24.32233,0.0626529035 25.4453537,0 26.5234565,0 C27.653573,0 28.8274284,0.0685635547 30.0107408,0.203326404 C36.6058454,0.952796985 42.5933352,3.8017309 46.8702824,8.22526231 C48.5619108,9.97599721 49.9402747,11.9324228 50.9663638,14.040161 Z" id="Combined-Shape"></path>
            </g>
        </g>
    </g>
</svg>