<?xml version="1.0" encoding="UTF-8" standalone="no"?>
<svg width="192px" height="192px" viewBox="0 0 192 192" version="1.1" xmlns="http://www.w3.org/2000/svg" xmlns:xlink="http://www.w3.org/1999/xlink" xmlns:sketch="http://www.bohemiancoding.com/sketch/ns">
    <!-- Generator: Sketch 3.3 (11970) - http://www.bohemiancoding.com/sketch -->
    <title>default_voiceinput</title>
    <desc>Created with Sketch.</desc>
    <defs></defs>
    <g id="模块/插件" stroke="none" stroke-width="1" fill="none" fill-rule="evenodd" sketch:type="MSPage">
        <g id="default_voiceinput" sketch:type="MSArtboardGroup">
            <rect id="Rectangle-60" fill="#45C01A" sketch:type="MSShapeGroup" x="0" y="0" width="192" height="192"></rect>
            <path d="M65.4545455,90.1818183 L58.1818182,90.1818184 L58.1818182,103.318617 C58.1818182,122.705653 72.8053603,138.681322 91.6363636,140.842183 L91.6363636,149.818182 L73.7209742,149.818182 C73.172168,149.818182 72.7272727,150.274725 72.7272727,150.818363 L72.7272727,154.636183 C72.7272727,155.188567 73.1730233,155.636364 73.7209742,155.636364 L118.279026,155.636364 C118.827832,155.636364 119.272727,155.179821 119.272727,154.636183 L119.272727,150.818363 C119.272727,150.265978 118.826977,149.818182 118.279026,149.818182 L100.363636,149.818182 L100.363636,149.818182 L100.363636,140.842183 L100.363636,140.842183 C119.19464,138.681322 133.818182,122.705653 133.818182,103.318617 L133.818182,90.1818182 L126.545455,90.1818182 L126.545455,102.822684 C126.545455,119.941025 112.869789,133.818182 96,133.818182 C79.1302113,133.818182 65.4545455,119.941025 65.4545455,102.822684 L65.4545455,90.1818183 L65.4545455,90.1818183 Z M96,36.3636364 C83.1468276,36.3636364 72.7272727,46.7746839 72.7272727,59.646314 L72.7272727,103.262777 C72.7272727,116.121445 83.1440016,126.545455 96,126.545455 C108.853172,126.545455 119.272727,116.134407 119.272727,103.262777 L119.272727,59.646314 C119.272727,46.7876462 108.855998,36.3636364 96,36.3636364 Z" id="Path" fill="#FFFFFF" sketch:type="MSShapeGroup"></path>
        </g>
    </g>
</svg>