<?xml version="1.0" encoding="UTF-8" standalone="no"?>
<svg width="192px" height="192px" viewBox="0 0 192 192" version="1.1" xmlns="http://www.w3.org/2000/svg" xmlns:xlink="http://www.w3.org/1999/xlink" xmlns:sketch="http://www.bohemiancoding.com/sketch/ns">
    <!-- Generator: Sketch 3.3 (11970) - http://www.bohemiancoding.com/sketch -->
    <title>default_medianote</title>
    <desc>Created with Sketch.</desc>
    <defs></defs>
    <g id="模块/插件" stroke="none" stroke-width="1" fill="none" fill-rule="evenodd" sketch:type="MSPage">
        <g id="default_medianote" sketch:type="MSArtboardGroup">
            <rect id="Rectangle-60" fill="#45C01A" sketch:type="MSShapeGroup" x="0" y="0" width="192" height="192"></rect>
            <path d="M48.7272727,129.137429 L48.7272727,155.09727 C48.7272727,156.198326 49.6163342,157.090909 50.7323692,157.090909 L142.722176,157.090909 C143.82956,157.090909 144.727273,156.194861 144.727273,155.09727 L144.727273,36.90273 C144.727273,35.8016735 143.838211,34.9090909 142.722176,34.9090909 L50.7323692,34.9090909 C49.624985,34.9090909 48.7272727,35.8051391 48.7272727,36.90273 L48.7272727,59.6858436 L48.7272727,59.6858436 C49.1921744,59.5661862 49.6795643,59.5025455 50.1818182,59.5025455 C53.3951113,59.5025455 56,62.1074342 56,65.3207273 C56,68.5340204 53.3951113,71.1389091 50.1818182,71.1389091 C49.6795643,71.1389091 49.1921744,71.0752684 48.7272727,70.9556109 L48.7272727,117.867662 C49.1921744,117.748004 49.6795643,117.684364 50.1818182,117.684364 C53.3951113,117.684364 56,120.289252 56,123.502545 C56,126.715839 53.3951113,129.320727 50.1818182,129.320727 C49.6795643,129.320727 49.1921744,129.257087 48.7272727,129.137429 Z" id="Rectangle-48" fill="#FFFFFF" sketch:type="MSShapeGroup"></path>
            <path d="M114.181818,93.0909091 L117.090909,93.0909091 L117.090909,99.4716402 C117.090909,109.604155 108.625021,117.818182 98.1818182,117.818182 C87.7386156,117.818182 79.2727273,109.604155 79.2727273,99.4716402 L79.2727273,93.0909092 L82.1818182,93.0909092 L82.1818182,98.9114144 C82.1818182,107.746687 89.3452622,114.909091 98.1818182,114.909091 C107.018374,114.909091 114.181818,107.746687 114.181818,98.9114144 L114.181818,93.0909091 L114.181818,93.0909091 Z M96.7272727,117.818182 L99.6363636,117.818182 L99.6363636,122.181818 L96.7272727,122.181818 L96.7272727,117.818182 Z M87.5454545,122.181818 C86.9931698,122.181818 86.5454545,122.636364 86.5454545,123.182962 L86.5454545,124.089765 C86.5454545,124.642682 86.9895769,125.090909 87.5454545,125.090909 L108.818182,125.090909 C109.370467,125.090909 109.818182,124.636364 109.818182,124.089765 L109.818182,123.182962 C109.818182,122.630046 109.37406,122.181818 108.818182,122.181818 L87.5454545,122.181818 Z M98.1818182,66.9090909 C91.755232,66.9090909 86.5454545,72.1184994 86.5454545,78.5455134 L86.5454545,98.909032 C86.5454545,105.335651 91.753819,110.545455 98.1818182,110.545455 C104.608404,110.545455 109.818182,105.336046 109.818182,98.909032 L109.818182,78.5455134 C109.818182,72.1188947 104.609817,66.9090909 98.1818182,66.9090909 Z" id="Path-2" fill="#45C01A" sketch:type="MSShapeGroup"></path>
        </g>
    </g>
</svg>