<?xml version="1.0" encoding="UTF-8" standalone="no"?>
<svg width="140px" height="140px" viewBox="0 0 140 140" version="1.1" xmlns="http://www.w3.org/2000/svg" xmlns:xlink="http://www.w3.org/1999/xlink" xmlns:sketch="http://www.bohemiancoding.com/sketch/ns">
    <!-- Generator: Sketch 3.2.2 (9983) - http://www.bohemiancoding.com/sketch -->
    <title>default_mobile_avatar</title>
    <desc>Created with Sketch.</desc>
    <defs></defs>
    <g id="Page-1" stroke="none" stroke-width="1" fill="none" fill-rule="evenodd" sketch:type="MSPage">
        <g id="default_mobile_avatar" sketch:type="MSLayerGroup">
            <g id="#eeeeeeff" fill="#EEEEEE" sketch:type="MSShapeGroup">
                <path d="M0,0 L140,0 L140,140 L0,140 L0,0 L0,0 Z M57.0169727,36.7079077 C52.4777173,42.0077749 52.3277419,49.6119322 53.2875844,56.1841683 C54.1774384,62.365677 58.8266758,66.9041266 61.3262658,72.3843295 C62.9659968,75.5902983 60.9563265,79.2270692 58.1467873,80.9302402 C50.3480666,85.8894732 41.6994853,89.4961881 34.3206956,95.1066336 C29.9914058,98.2625091 30.8012729,104.323794 31.7611155,108.902318 C56.9769792,109.042579 82.2128397,109.012523 107.428703,108.932374 C111.008116,109.022542 109.668336,104.484092 109.958288,102.179802 C110.328228,98.7734604 108.188579,95.8981071 105.479023,94.1348243 C98.6601418,89.4160389 91.11138,85.8994918 84.0025461,81.6616018 C81.1830086,79.9985055 78.0735187,76.8326113 79.4332956,73.2559523 C81.5529479,67.4551525 86.5721246,63.0168894 87.6419491,56.7552315 C88.6317868,50.1829954 88.7117736,42.5988754 84.2924985,37.1687657 C77.6635859,29.1037504 63.9358377,28.943452 57.0169727,36.7079077 L57.0169727,36.7079077 Z" id="Shape"></path>
            </g>
            <g id="#b4b5b4ff" transform="translate(30.000000, 30.000000)" fill="#B4B5B4" sketch:type="MSShapeGroup">
                <path d="M27.0169727,6.70790773 C33.9358377,-1.05654801 47.6635859,-0.896249572 54.2924985,7.16876575 C58.7117736,12.5988754 58.6317868,20.1829954 57.6419491,26.7552315 C56.5721246,33.0168894 51.5529479,37.4551525 49.4332956,43.2559523 C48.0735187,46.8326113 51.1830086,49.9985055 54.0025461,51.6616018 C61.11138,55.8994918 68.6601418,59.4160389 75.4790232,64.1348243 C78.1885788,65.8981071 80.3282278,68.7734604 79.9582885,72.1798023 C79.668336,74.4840924 81.0081163,79.022542 77.4287034,78.9323741 C52.2128397,79.0125233 26.9769792,79.0425793 1.76111549,78.9023181 C0.801272938,74.3237939 -0.00859421556,68.2625091 4.32069563,65.1066336 C11.6994853,59.4961881 20.3480666,55.8894732 28.1467873,50.9302402 C30.9563265,49.2270692 32.9659968,45.5902983 31.3262658,42.3843295 C28.8266758,36.9041266 24.1774384,32.365677 23.2875844,26.1841683 C22.3277419,19.6119322 22.4777173,12.0077749 27.0169727,6.70790773 L27.0169727,6.70790773 Z" id="Shape"></path>
            </g>
        </g>
    </g>
</svg>