<?xml version="1.0" encoding="UTF-8" standalone="no"?>
<svg width="105px" height="81px" viewBox="0 0 105 81" version="1.1" xmlns="http://www.w3.org/2000/svg" xmlns:xlink="http://www.w3.org/1999/xlink">
    <!-- Generator: Sketch 44.1 (41455) - http://www.bohemiancoding.com/sketch -->
    <title>error@3x copy</title>
    <desc>Created with Sketch.</desc>
    <defs></defs>
    <g id="★-Slice-★" stroke="none" stroke-width="1" fill="none" fill-rule="evenodd">
        <g id="Artboard" transform="translate(-741.000000, -55.000000)" fill="#D8D8D8">
            <g id="Group-Copy-2" transform="translate(741.000000, 55.000000)">
                <path d="M86.7115111,34.6424513 C85.8205591,34.548286 84.9159198,34.5 84,34.5 C75.9117605,34.5 68.7032006,38.2654271 64.031616,44.1389856 C62.9935504,42.9527471 62.6847225,41.2908645 63.354,39.4515 C64.314,36.816 66.8325,34.5915 69.906,33.561 C74.6715,31.824 78,27.861 78,23.25 C78,17.037 71.955,12 64.5,12 C57.0435,12 51,17.037 51,23.25 L51,57.75 C51,66.048 46.1925,73.323 39,77.439 C35.079,79.6815 30.4605,81 25.5,81 C11.439,81 0,70.5705 0,57.75 C0,53.67 1.167,49.8375 3.1995,46.5 C6.3465,41.3355 11.589,37.3815 17.8695,35.5785 C17.8755,35.577 17.88,35.5755 17.8845,35.574 C18.9435,35.244 20.0415,35.061 21.1245,35.061 C25.4685,35.061 27.9225,37.995 26.604,41.616 C25.7115,44.0685 23.307,46.1805 20.5035,47.3055 C20.169,47.4165 19.8435,47.5425 19.5225,47.6745 C15.069,49.5135 12,53.328 12,57.75 C12,63.963 18.0435,69 25.5,69 C32.955,69 39,63.963 39,57.75 L39,23.25 C39,14.952 43.8075,7.677 51,3.561 C54.921,1.3185 59.5395,0 64.5,0 C78.561,0 90,10.4295 90,23.25 C90,27.33 88.833,31.164 86.799,34.5 C86.7700148,34.5475868 86.7408516,34.5950708 86.7115111,34.6424513 Z M105,60 C105,71.5982222 95.5982222,81 84,81 C72.4017778,81 63,71.5982222 63,60 C63,48.4017778 72.4017778,39 84,39 C95.5982222,39 105,48.4017778 105,60 Z M81.3060866,49.4843443 L83,66 L85,66 L86.6939134,49.4843443 C86.846509,47.996537 85.7641061,46.6667277 84.2762988,46.5141321 C84.1845001,46.5047169 84.0922802,46.5 84,46.5 C82.5043878,46.5 81.2919545,47.7124333 81.2919545,49.2080455 C81.2919545,49.3003257 81.2966713,49.3925457 81.3060866,49.4843443 Z M84,75 C85.6568542,75 87,73.6568542 87,72 C87,70.3431458 85.6568542,69 84,69 C82.3431458,69 81,70.3431458 81,72 C81,73.6568542 82.3431458,75 84,75 Z" id="Combined-Shape"></path>
            </g>
        </g>
    </g>
</svg>