<?xml version="1.0" encoding="UTF-8" standalone="no"?>
<svg width="135px" height="135px" viewBox="0 0 135 135" version="1.1" xmlns="http://www.w3.org/2000/svg" xmlns:xlink="http://www.w3.org/1999/xlink" xmlns:sketch="http://www.bohemiancoding.com/sketch/ns">
    <!-- Generator: Sketch 3.3.3 (12072) - http://www.bohemiancoding.com/sketch -->
    <title>fav_search_music_pressed</title>
    <desc>Created with Sketch.</desc>
    <defs></defs>
    <g id="Page-1" stroke="none" stroke-width="1" fill="none" fill-rule="evenodd" sketch:type="MSPage">
        <g id="#737f88ff" sketch:type="MSLayerGroup" fill="#737F88">
            <path d="M64.62,0 L69.82,0 C86.02,0.59 101.92,7.14 113.69,18.3 C126.52,30.19 134.21,47.23 135,64.67 L135,69.7 C134.43,86.65 127.28,103.29 115.22,115.23 C103.44,127.13 87.1,134.22 70.39,135 L65.13,135 C48.95,134.4 33.06,127.85 21.3,116.69 C8.38,104.71 0.66,87.49 0,69.9 L0,65.25 C0.61,47.36 8.58,29.83 21.86,17.8 C33.42,7.05 48.87,0.76 64.62,0 L64.62,0 Z M52.0924816,46.367478 C50.3836398,46.5459626 48.8546762,48.0432499 49.0145678,49.81818 C48.9845881,60.3586864 49.0145678,70.9091087 49.0045746,81.4595309 C45.4569791,81.5785207 41.089939,83.4922721 41,87.5478385 C41.0399729,91.2266042 44.8274058,93.1205239 47.9752722,93.7551358 C52.24238,95.0838544 56.2896368,90.7605611 55.98984,86.685163 C56.0198197,76.541289 55.98984,66.397415 55.9998332,56.2535409 C64.6639607,54.3100421 73.318095,52.3367958 81.9722293,50.393297 C81.9922158,59.1092943 81.9822226,67.8252917 81.9822226,76.541289 C78.1448235,76.333057 73.0782576,78.1575661 72.9783253,82.6395124 C73.4679934,89.8780539 86.6690459,91.0382038 87.8582398,83.5914302 C88.1580366,70.3439075 87.8682331,57.0765532 87.998145,43.8191147 C87.908206,42.4209855 88.2080028,40.82454 87.2786327,39.6247269 C86.2593236,38.6628933 84.8103057,39.0396941 83.5911321,39.2677578 C73.0982441,41.6475523 62.5953628,44.0174309 52.0924816,46.367478 Z" id="Shape" sketch:type="MSShapeGroup"></path>
        </g>
    </g>
</svg>