<?xml version="1.0" encoding="UTF-8" standalone="no"?>
<svg width="84px" height="84px" viewBox="0 0 84 84" version="1.1" xmlns="http://www.w3.org/2000/svg" xmlns:xlink="http://www.w3.org/1999/xlink" xmlns:sketch="http://www.bohemiancoding.com/sketch/ns">
    <!-- Generator: Sketch 3.3.3 (12072) - http://www.bohemiancoding.com/sketch -->
    <title>fav_forward_disable</title>
    <desc>Created with Sketch.</desc>
    <defs></defs>
    <g id="Page-1" stroke="none" stroke-width="1" fill="none" fill-rule="evenodd" sketch:type="MSPage">
        <g id="#acacacff" sketch:type="MSLayerGroup" transform="translate(8.000000, 12.000000)" fill="#ACACAC">
            <path d="M46.01,0.02 C53.35,6.17 60.67,12.34 68,18.5 C60.7,24.7 53.34,30.82 46.01,36.98 C45.99,33.31 46,29.65 46,25.98 C39.1,26.16 31.55,26.35 25.78,30.64 C21.98,33.45 19.95,37.86 17.97,42 C18.18,31.95 21.11,20.88 29.61,14.67 C34.25,11.05 40.35,10.71 46,11.03 C46,7.36 45.99,3.69 46.01,0.02 L46.01,0.02 Z" id="Shape" sketch:type="MSShapeGroup"></path>
            <path d="M1,14.9 C0.7,13.12 1.87,10.94 3.88,11.05 C9.91,10.9 15.95,11.07 21.98,10.99 C20.17,13.1 18.65,15.45 17.47,17.98 C14.32,18.01 11.16,18 8,18 L8,52 L54,52 L54,40.15 C56.32,38.16 58.65,36.2 60.99,34.24 C60.96,41.53 61.08,48.82 60.95,56.1 C61.01,58.07 58.92,59.33 57.12,59 C39.38,58.97 21.62,59.07 3.88,58.95 C1.87,59.05 0.69,56.86 1,55.07 L1,14.9 L1,14.9 Z" id="Shape" sketch:type="MSShapeGroup"></path>
        </g>
    </g>
</svg>