<?xml version="1.0" encoding="UTF-8" standalone="no"?>
<svg width="285px" height="210px" viewBox="0 0 285 210" version="1.1" xmlns="http://www.w3.org/2000/svg" xmlns:xlink="http://www.w3.org/1999/xlink" xmlns:sketch="http://www.bohemiancoding.com/sketch/ns">
    <!-- Generator: Sketch 3.3.3 (12081) - http://www.bohemiancoding.com/sketch -->
    <title>fav_list_img_failed</title>
    <desc>Created with Sketch.</desc>
    <defs></defs>
    <g id="Asset" stroke="none" stroke-width="1" fill="none" fill-rule="evenodd" sketch:type="MSPage">
        <g id="fav_list_img_failed" sketch:type="MSArtboardGroup" fill="#000000" opacity="0.1">
            <path d="M228,94.7375186 L228,12 L12,12 L12,119.51874 L80.7383151,55.3358779 L162.560277,130.408505 L150.844774,106.321461 L184.215507,80.5119453 L206.872037,100.853607 C187.486318,110.753483 174,131.235828 174,155.240741 C174,166.451108 177.216407,176.998752 182.765569,186.00002 L5.99249477,186 C2.6953125,186 0,183.311899 0,179.995959 L0,6.00404096 C0,2.68304278 2.68293129,1.36424205e-12 5.99249477,1.36424205e-12 L234.007505,1.36424205e-12 C237.304688,1.36424205e-12 240,2.6881007 240,6.00404096 L240,94.8591714 C237.788922,94.6217422 235.53999,94.5 233.259259,94.5 C231.488476,94.5 229.734229,94.5802531 228,94.7375186 L228,94.7375186 Z M283,155.111111 C283,127.161333 260.838667,105 232.888889,105 C206.161333,105 184,127.161333 184,155.111111 C184,181.838667 206.161333,204 232.888889,204 C260.838667,204 283,181.838667 283,155.111111 Z M233.5,178.586538 C235.985281,178.586538 238,176.552448 238,174.043269 C238,171.534091 235.985281,169.5 233.5,169.5 C231.014719,169.5 229,171.534091 229,174.043269 C229,176.552448 231.014719,178.586538 233.5,178.586538 Z M230.348572,129 C229.524481,129 228.885283,129.671204 228.920963,130.501042 L230.327531,163.214754 C230.369923,164.200718 231.20104,165 232.195118,165 L234.804926,165 C235.793973,165 236.630254,164.197614 236.672513,163.214754 L238.079081,130.501042 C238.114725,129.672039 237.475708,129 236.651471,129 L230.348572,129 Z" id="Rectangle-40" sketch:type="MSShapeGroup"></path>
        </g>
    </g>
</svg>