<?xml version="1.0" encoding="UTF-8"?>
<svg width="66px" height="66px" viewBox="0 0 66 66" version="1.1" xmlns="http://www.w3.org/2000/svg" xmlns:xlink="http://www.w3.org/1999/xlink">
    <!-- Generator: Sketch 41.2 (35397) - http://www.bohemiancoding.com/sketch -->
    <title>sucess</title>
    <desc>Created with Sketch.</desc>
    <defs></defs>
    <g id="andriod切图" stroke="none" stroke-width="1" fill="none" fill-rule="evenodd">
        <g id="sucess" fill="#1AAD19">
            <g id="Element-/-Checkbox-/-Cell-On" transform="translate(3.000000, 3.000000)">
                <path d="M57,30.3703704 C57,15.0879654 44.9120346,3 29.6296296,3 C14.9859576,3 3,15.1921428 3,30.3703704 C3,44.9120346 15.0879654,57 29.6296296,57 C44.8078572,57 57,45.0140424 57,30.3703704 Z M60,30.3703704 C60,46.5688889 46.5688889,60 29.6296296,60 C13.4311111,60 0,46.5688889 0,30.3703704 C0,13.4311111 13.4311111,0 29.6296296,0 C46.5688889,0 60,13.4311111 60,30.3703704 Z" id="Combined-Shape"></path>
                <path d="M16.671656,32.7388216 C16.3007106,32.3307817 16.3125,31.6875 16.7107565,31.2892435 L17.2892435,30.7107565 C17.6817835,30.3182165 18.34375,30.3007812 18.7526206,30.658543 L25.2473794,36.341457 C25.6630403,36.7051603 26.3471375,36.7049332 26.7596016,36.3543386 L45.2403984,20.6456614 C45.6599148,20.2890724 46.3125,20.3125 46.7107565,20.7107565 L47.2892435,21.2892435 C47.6817835,21.6817835 47.6719322,22.3131556 47.2805284,22.6867683 L26.7194716,42.3132317 C26.3221184,42.6925234 25.7007199,42.6707918 25.328344,42.2611784 L16.671656,32.7388216 Z" id="Fill-36"></path>
            </g>
        </g>
    </g>
</svg>