<?xml version="1.0" encoding="UTF-8" standalone="no"?>
<svg width="84px" height="84px" viewBox="0 0 84 84" version="1.1" xmlns="http://www.w3.org/2000/svg" xmlns:xlink="http://www.w3.org/1999/xlink" xmlns:sketch="http://www.bohemiancoding.com/sketch/ns">
    <!-- Generator: Sketch 3.3.3 (12072) - http://www.bohemiancoding.com/sketch -->
    <title>fav_delete_pressed</title>
    <desc>Created with Sketch.</desc>
    <defs></defs>
    <g id="Page-1" stroke="none" stroke-width="1" fill="none" fill-rule="evenodd" sketch:type="MSPage">
        <g id="#3f3f3fff" sketch:type="MSLayerGroup" transform="translate(15.000000, 11.000000)" fill="#3F3F3F">
            <path d="M21.14,1.2 C25.04,0.82 28.99,0.82 32.89,1.2 C33.54,2.09 34.15,3.01 34.7,3.97 C40.12,4.19 45.57,3.66 50.97,4.21 C53.78,5.17 52.77,8.74 53.09,11 L0.91,11 C1.23,8.75 0.21,5.22 2.98,4.22 C8.39,3.65 13.86,4.2 19.3,3.97 C19.84,3 20.46,2.07 21.14,1.2 L21.14,1.2 Z" id="Shape" sketch:type="MSShapeGroup"></path>
            <path d="M38.9830921,49 L39,49 L39,25 L38.9839735,25 L38.9839735,25 C38.9839783,24.998188 38.9839807,24.9963755 38.9839807,24.9945623 C38.9839807,23.8905389 38.0891739,22.995551 36.9853737,22.995551 C35.8815735,22.995551 34.9867667,23.8905389 34.9867667,24.9945623 C34.9867667,25.0727889 34.9912591,25.1499659 35,25.2258495 L35,48.8289018 C34.9912591,48.9047853 34.9867667,48.9819624 34.9867667,49.060189 C34.9867667,50.1642124 35.8815735,51.0592003 36.9853737,51.0592003 C38.0891739,51.0592003 38.9839807,50.1642124 38.9839807,49.060189 C38.9839807,49.0400551 38.9836831,49.0199907 38.9830921,49 Z M18.9830921,49 L19,49 L19,25 L18.9839735,25 L18.9839735,25 C18.9839783,24.998188 18.9839807,24.9963755 18.9839807,24.9945623 C18.9839807,23.8905389 18.0891739,22.995551 16.9853737,22.995551 C15.8815735,22.995551 14.9867667,23.8905389 14.9867667,24.9945623 C14.9867667,25.0727889 14.9912591,25.1499659 15,25.2258495 L15,48.8289018 C14.9912591,48.9047853 14.9867667,48.9819624 14.9867667,49.060189 C14.9867667,50.1642124 15.8815735,51.0592003 16.9853737,51.0592003 C18.0891739,51.0592003 18.9839807,50.1642124 18.9839807,49.060189 C18.9839807,49.0400551 18.9836831,49.0199907 18.9830921,49 L18.9830921,49 Z M28.9830921,49 L29,49 L29,25 L28.9839735,25 L28.9839735,25 C28.9839783,24.998188 28.9839807,24.9963755 28.9839807,24.9945623 C28.9839807,23.8905389 28.0891739,22.995551 26.9853737,22.995551 C25.8815735,22.995551 24.9867667,23.8905389 24.9867667,24.9945623 C24.9867667,25.0727889 24.9912591,25.1499659 25,25.2258495 L25,48.8289018 C24.9912591,48.9047853 24.9867667,48.9819624 24.9867667,49.060189 C24.9867667,50.1642124 25.8815735,51.0592003 26.9853737,51.0592003 C28.0891739,51.0592003 28.9839807,50.1642124 28.9839807,49.060189 C28.9839807,49.0400551 28.9836831,49.0199907 28.9830921,49 L28.9830921,49 Z M47.9854893,14 C47.9655033,28.0230645 48.0154684,42.0561241 47.9754963,56.0791886 C48.175357,57.8283235 47.1460744,59.9872557 45.1274813,59.8973002 C33.3956581,60.0872063 21.6538419,59.9372804 9.91202561,59.9672656 C8.11327929,60.207147 5.97476978,59.1176858 6.0946862,57.0587041 C5.8948255,42.7157978 6.08469317,28.3529014 6.01474192,14 L47.9854893,14 Z" id="Shape" sketch:type="MSShapeGroup"></path>
        </g>
    </g>
</svg>