<?xml version="1.0" encoding="UTF-8"?>
<svg width="108px" height="108px" viewBox="0 0 108 108" version="1.1" xmlns="http://www.w3.org/2000/svg" xmlns:xlink="http://www.w3.org/1999/xlink">
    <!-- Generator: Sketch 45.2 (43514) - http://www.bohemiancoding.com/sketch -->
    <title>discover_icon_search</title>
    <desc>Created with Sketch.</desc>
    <defs></defs>
    <g id="Discover-&amp;-Me" stroke="none" stroke-width="1" fill="none" fill-rule="evenodd">
        <g id="discover_icon_search" fill-rule="nonzero" fill="#F86161">
            <g id="搜一搜" transform="translate(16.000000, 17.000000)">
                <path d="M36.8328358,23.6328358 L41.9552239,12.9940299 C42.5462687,11.7134328 42.5462687,10.4328358 42.0537313,9.25074627 C41.561194,8.06865672 40.5761194,7.18208955 39.1970149,6.68955224 L38.1134328,6.29552239 C37.6208955,6.09850746 37.1283582,6 36.6358209,6 C34.4686567,6 32.6955224,7.47761194 32.2029851,9.64477612 L29.9373134,21.1701493 C29.3462687,23.9283582 30.2328358,26.4895522 31.8089552,27.080597 C32.0059701,27.1791045 32.2029851,27.1791045 32.4985075,27.1791045 C33.9761194,27.2776119 35.7492537,25.8 36.8328358,23.6328358 Z M24.7164179,31.119403 C24.9134328,29.4447761 22.8447761,27.6716418 20.0865672,27.080597 L11.6149254,25.0119403 C11.2208955,24.9134328 10.8268657,24.9134328 10.4328358,24.9134328 C8.16716418,24.9134328 6.29552239,26.5880597 6.09850746,28.8537313 L6,30.0358209 C6,31.4149254 6.49253731,32.6955224 7.37910448,33.5820896 C8.16716418,34.3701493 9.25074627,34.7641791 10.4328358,34.7641791 C10.5313433,34.7641791 10.6298507,34.7641791 10.7283582,34.7641791 L19.3970149,34.3701493 C22.2537313,34.0746269 24.519403,32.6955224 24.7164179,31.119403 Z M26.6865672,39.6895522 C25.0119403,39.1970149 22.7462687,40.7731343 21.6626866,43.3343284 L13.3880597,61.4597015 C12.7970149,62.7402985 12.7970149,64.0208955 13.3880597,65.2029851 C13.9791045,66.3850746 14.9641791,67.2716418 16.3432836,67.6656716 L17.4268657,68.0597015 L17.5253731,68.0597015 C17.7223881,68.0597015 17.919403,68.0597015 18.1164179,68.0597015 C20.480597,68.0597015 23.1402985,66.9761194 23.7313433,64.7104478 L28.558209,45.4029851 C29.0507463,42.7432836 28.361194,40.1820896 26.6865672,39.6895522 Z M41.1671642,41.8567164 C39.8865672,40.4776119 38.2119403,39.5910448 36.8328358,39.5910448 C36.241791,39.5910448 35.7492537,39.7880597 35.3552239,40.0835821 C34.0746269,41.1671642 34.2716418,43.8268657 35.9462687,46.1910448 L51.6089552,69.0447761 C52.4955224,70.4238806 53.9731343,71.1134328 55.4507463,71.1134328 C56.5343284,71.1134328 57.6179104,70.719403 58.5044776,70.0298507 L59.3910448,69.3402985 C60.4746269,68.4537313 61.0656716,67.2716418 61.1641791,65.8925373 C61.2626866,64.5134328 60.7701493,63.2328358 59.8835821,62.2477612 L41.1671642,41.8567164 Z M71.9014925,30.3313433 C71.7044776,27.4746269 69.3402985,25.4059701 66.4835821,25.8 L43.2358209,29.2477612 C40.4776119,29.641791 38.3104478,31.3164179 38.4089552,33.0895522 C38.5074627,34.8626866 40.7731343,36.241791 43.6298507,36.241791 L66.5820896,36.5373134 L66.680597,36.5373134 C68.158209,36.5373134 69.6358209,35.8477612 70.719403,34.7641791 C71.6059701,33.7791045 72,32.5970149 72,31.4149254 L71.9014925,30.3313433 Z"></path>
            </g>
        </g>
    </g>
</svg>