<?xml version="1.0" encoding="UTF-8"?>
<svg width="108px" height="108px" viewBox="0 0 108 108" version="1.1" xmlns="http://www.w3.org/2000/svg" xmlns:xlink="http://www.w3.org/1999/xlink">
    <!-- Generator: Sketch 45.2 (43514) - http://www.bohemiancoding.com/sketch -->
    <title>discover_icon_news</title>
    <desc>Created with Sketch.</desc>
    <defs></defs>
    <g id="Discover-&amp;-Me" stroke="none" stroke-width="1" fill="none" fill-rule="evenodd">
        <g id="discover_icon_news" fill-rule="nonzero" fill="#FFC000">
            <g id="看一看" transform="translate(17.000000, 17.000000)">
                <path d="M24.3893801,14.3139262 L24.3780963,14.3073625 L34.4251125,4.26034633 C36.1055743,2.57988456 38.8229167,2.57988456 40.5033785,4.26034633 L50.5503946,14.3073625 L39.6095158,20.6716645 C38.3223536,21.4582637 36.6776464,21.4582637 35.3189751,20.6716645 L24.4139097,14.3281951 L24.4496054,26.9644576 C24.4496054,28.5019013 23.6272517,29.9320815 22.2685805,30.7186807 L11.2919472,37.0114737 L7.6449876,23.2459889 C7.037161,20.9577006 8.39583222,18.5979032 10.6841206,17.9900766 L24.3893801,14.3139262 Z M24.4139097,59.6589978 L35.3189751,53.3155284 C36.6776464,52.5289293 38.3223536,52.5289293 39.6452704,53.3155284 L50.5861491,59.6798304 L40.5033785,69.7268466 C38.8229167,71.4073084 36.1055743,71.4073084 34.4251125,69.7268466 L24.3780963,59.6798304 L24.3893801,59.6732667 L10.6841206,55.9971163 C8.39583222,55.3892897 7.037161,53.0294923 7.6449876,50.741204 L11.3277017,37.0114737 L22.304335,43.3042667 C23.6272517,44.0551114 24.4496054,45.4852916 24.4496054,47.0227354 L24.4139097,59.6589978 Z M52.695665,43.2685122 L63.6722983,36.9757192 L67.3550124,50.7054495 C67.962839,52.9937378 66.6041678,55.3535352 64.3158794,55.9613618 L50.5861491,59.6440759 L50.5503946,46.9869808 C50.5146401,45.4852916 51.3369938,44.0551114 52.695665,43.2685122 Z M50.5503946,26.9644576 L50.5861491,14.3073625 L64.3158794,17.9900766 C66.6041678,18.5979032 67.962839,20.9577006 67.3550124,23.2459889 L63.6722983,36.9757192 L52.695665,30.6829262 C51.3369938,29.9320815 50.5146401,28.5019013 50.5503946,26.9644576 Z" id="Combined-Shape"></path>
            </g>
        </g>
    </g>
</svg>