<?xml version="1.0" encoding="UTF-8" standalone="no"?>
<svg width="108px" height="108px" viewBox="0 0 108 108" version="1.1" xmlns="http://www.w3.org/2000/svg" xmlns:xlink="http://www.w3.org/1999/xlink" xmlns:sketch="http://www.bohemiancoding.com/sketch/ns">
    <!-- Generator: Sketch 3.3.3 (12081) - http://www.bohemiancoding.com/sketch -->
    <title>find_more_emji</title>
    <desc>Created with Sketch.</desc>
    <defs></defs>
    <g id="模块/插件" stroke="none" stroke-width="1" fill="none" fill-rule="evenodd" sketch:type="MSPage">
        <g id="find_more_emji" sketch:type="MSArtboardGroup" fill="#FFCA00">
            <path d="M21,54 C21,72.226 35.773,87 53.999,87 C72.225,87 87,72.226 87,54 C87,35.774 72.225,21 53.999,21 C35.773,21 21,35.774 21,54 Z M68,37 C70.762,37 73,39.462 73,42.5 C73,45.538 70.762,48 68,48 C65.238,48 63,45.538 63,42.5 C63,39.462 65.238,37 68,37 L68,37 Z M41,37 C43.762,37 46,39.462 46,42.5 C46,45.538 43.762,48 41,48 C38.238,48 36,45.538 36,42.5 C36,39.462 38.238,37 41,37 L41,37 Z M54,77 C34.667,77 32,59 32,59 C32,59 46.361,57 54,57 C61.639,57 76,59 76,59 C76,59 73.333,77 54,77 L54,77 Z" id="Shape" sketch:type="MSShapeGroup"></path>
        </g>
    </g>
</svg>