<?xml version="1.0" encoding="UTF-8"?>
<svg width="144px" height="144px" viewBox="0 0 144 144" version="1.1" xmlns="http://www.w3.org/2000/svg" xmlns:xlink="http://www.w3.org/1999/xlink">
    <!-- Generator: Sketch Beta 51 (57336) - http://www.bohemiancoding.com/sketch -->
    <title>btn_voiceinput_pressed</title>
    <desc>Created with Sketch Beta.</desc>
    <defs></defs>
    <g id="btn_voiceinput_pressed" stroke="none" stroke-width="1" fill="none" fill-rule="evenodd">
        <g id="Combined-Shape" transform="translate(24.000000, 24.000000)" fill="#1AAD19" fill-rule="nonzero">
            <path d="M41.623168,65.789195 L41.977799,65.9924064 C51.3039986,69.1634908 62.0843714,65.1642959 67.3610018,56.0934233 L68.9112079,53.4285175 L65.5660628,51.5116765 L64.0158568,54.1765823 C59.0381699,62.7335514 48.5124126,65.7237146 40.710614,61.253114 C32.2546537,56.4076645 29.6008933,45.8653505 34.5785802,37.3083814 L36.1287864,34.6434756 L36.274844,34.1944368 L32.7836413,32.7266346 L31.2334351,35.3915404 C26.0330191,44.3313954 27.8040181,55.4031133 34.9690194,61.8770718 L29.9812488,70.5161437 L30.3981313,75.4443293 C30.483181,76.4497453 31.2844343,76.9037722 32.1894844,76.4785673 L36.6658594,74.3755055 L41.623168,65.789195 Z M96,48 C96,74.5110449 74.5097143,96 48,96 C21.4902857,96 0,74.5110449 0,48 C0,21.4889551 21.4902857,0 48,0 C74.5097143,0 96,21.4889551 96,48 Z M63.9404528,21.1089193 C58.0158559,17.7314249 50.4369306,19.7412061 47.0230987,25.5796787 L38.8186416,39.6112705 C35.4000418,45.4578972 37.4302511,52.9347822 43.3561506,56.3130192 C49.2807474,59.6905138 56.8596727,57.6807324 60.2735047,51.8422598 L68.4779617,37.810668 C71.8965616,31.9640413 69.8663522,24.4871563 63.9404528,21.1089193 Z"></path>
        </g>
    </g>
</svg>