<?xml version="1.0" encoding="UTF-8" standalone="no"?>
<svg width="210px" height="210px" viewBox="0 0 210 210" version="1.1" xmlns="http://www.w3.org/2000/svg" xmlns:xlink="http://www.w3.org/1999/xlink" xmlns:sketch="http://www.bohemiancoding.com/sketch/ns">
    <!-- Generator: Sketch 3.2.2 (9983) - http://www.bohemiancoding.com/sketch -->
    <title>fts_default_img</title>
    <desc>Created with Sketch.</desc>
    <defs></defs>
    <g id="Page-1" stroke="none" stroke-width="1" fill="none" fill-rule="evenodd" sketch:type="MSPage">
        <g id="fts_default_img" sketch:type="MSLayerGroup">
            <g id="#eeeeeeff" fill="#EEEEEE" sketch:type="MSShapeGroup">
                <path d="M0,0 L210,0 L210,210 L0,210 L0,0 L0,0 Z M51.3753124,61.4459536 C49.0976332,62.2947434 49.0476841,64.9908992 49.0376943,67.0180089 C49.0676638,90.3447493 49.0676638,113.661504 49.0476841,136.988244 C49.0976332,140.20366 48.7379997,143.488976 49.447277,146.654462 C50.3163914,148.911244 52.9936635,148.941202 55.0215972,148.961173 C86.3296966,148.92123 117.637796,148.941202 148.955885,148.951187 C152.162618,148.901259 155.449269,149.260746 158.616042,148.561743 C160.913701,147.712953 160.943671,144.996826 160.96365,142.95973 C160.933681,119.652961 160.933681,96.3362066 160.96365,73.0294377 C160.893722,69.824008 161.263345,66.5486781 160.564058,63.3931772 C159.734902,61.1264092 157.047641,61.0565089 155.029697,61.0465231 C124.041271,61.0864661 93.0528463,61.0565089 62.0644211,61.0565089 C58.5080447,61.136395 54.8817397,60.6970214 51.3753124,61.4459536 L51.3753124,61.4459536 Z" id="Shape"></path>
                <path d="M57.6357041,69.0869523 C88.8795685,68.9761089 120.133415,68.9660323 151.367297,69.0869523 C152.415414,73.5509184 151.81649,78.1458811 151.936275,82.6803839 C151.836454,95.4777583 152.145898,108.275133 151.776562,121.06243 C146.965206,114.804817 142.752775,107.327925 135.296172,103.932087 C129.496592,101.312152 124.176151,106.350488 119.654276,109.383567 C121.480994,115.4598 125.563658,120.387293 128.338673,126 C124.50556,123.178532 121.85033,119.168016 118.676033,115.681487 C111.838319,108.486743 106.987035,99.2464339 98.4523691,93.8151073 C94.8787897,91.3866291 90.1472908,90.1975817 86.1444826,92.343913 C74.5752689,97.9364664 65.3718047,107.358155 57.2464036,117.172835 C56.8071927,103.64994 57.2264394,90.1169684 57.0267981,76.5940735 C56.9369595,74.0749053 57.0567443,71.5456605 57.6357041,69.0869523 L57.6357041,69.0869523 Z" id="Shape"></path>
            </g>
            <g id="#d5d5d5ff" transform="translate(49.000000, 61.000000)" fill="#D5D5D5" sketch:type="MSShapeGroup">
                <path d="M2.37531244,0.445953587 C5.88173967,-0.302978575 9.50804474,0.13639496 13.0644211,0.0565088628 C44.0528463,0.0565088628 75.0412715,0.0864661493 106.029697,0.0465231007 C108.047641,0.0565088628 110.734902,0.126409198 111.564058,2.39317721 C112.263345,5.54867805 111.893722,8.82400804 111.96365,12.0294377 C111.933681,35.3362066 111.933681,58.6529612 111.96365,81.9597301 C111.943671,83.9968256 111.913701,86.7129529 109.616042,87.5617427 C106.449269,88.2607461 103.162618,87.9012586 99.9558854,87.9511874 C68.6377961,87.9412017 37.3296966,87.9212302 6.02159716,87.9611732 C3.99366347,87.9412017 1.3163914,87.9112444 0.447276962,85.6544621 C-0.26200034,82.4889755 0.0976332217,79.2036598 0.047684116,75.9882444 C0.0676637583,52.6615039 0.0676637583,29.3447493 0.0376942948,6.01800888 C0.047684116,3.99089916 0.0976332217,1.29474337 2.37531244,0.445953587 L2.37531244,0.445953587 Z M8.02679812,16.4608442 C8.22643943,29.7464952 7.80719268,43.0420462 8.24640356,56.3276972 C16.3718047,46.6852053 25.6534426,36.8621142 37.2226562,31.3676758 C41.2254644,29.2589994 46.288237,30.3963533 49.8618164,32.7822266 C58.3964822,38.1182667 62.8383187,47.7939929 69.6760334,54.8625137 C72.8503302,58.2878752 75.5055595,62.2280311 79.3386726,65 C76.5636585,59.4857618 72.4809938,54.6447161 70.6542758,48.675083 C74.3481445,45.7270508 80.4264943,40.033939 86.2260742,42.6079102 C93.682677,45.9441728 97.9652065,54.0012233 102.776562,60.1490544 C103.145898,47.5860952 102.836454,35.0132362 102.936275,22.4403771 C102.81649,17.9854271 103.415414,13.4710777 102.367297,9.08542686 C71.1334149,8.96662819 39.8795685,8.97652808 8.6357041,9.08542686 C8.05674432,11.5009998 7.93695953,13.9858719 8.02679812,16.4608442 Z" id="Shape"></path>
            </g>
        </g>
    </g>
</svg>