<?xml version="1.0" encoding="UTF-8" standalone="no"?>
<svg width="96px" height="96px" viewBox="0 0 96 96" version="1.1" xmlns="http://www.w3.org/2000/svg" xmlns:xlink="http://www.w3.org/1999/xlink" xmlns:sketch="http://www.bohemiancoding.com/sketch/ns">
    <!-- Generator: Sketch 3.3.3 (12081) - http://www.bohemiancoding.com/sketch -->
    <title>actionbar_more_icon</title>
    <desc>Created with Sketch.</desc>
    <defs></defs>
    <g id="操作栏" stroke="none" stroke-width="1" fill="none" fill-rule="evenodd" sketch:type="MSPage">
        <g id="actionbar_more_icon" sketch:type="MSArtboardGroup" fill="#000000">
            <g id="icon_more" sketch:type="MSLayerGroup" transform="translate(43.000000, 20.000000)">
                <path d="M5,10 C7.76142375,10 10,7.76142375 10,5 C10,2.23857625 7.76142375,0 5,0 C2.23857625,0 0,2.23857625 0,5 C0,7.76142375 2.23857625,10 5,10 Z M5,33 C7.76142375,33 10,30.7614237 10,28 C10,25.2385763 7.76142375,23 5,23 C2.23857625,23 0,25.2385763 0,28 C0,30.7614237 2.23857625,33 5,33 Z M5,56 C7.76142375,56 10,53.7614237 10,51 C10,48.2385763 7.76142375,46 5,46 C2.23857625,46 0,48.2385763 0,51 C0,53.7614237 2.23857625,56 5,56 Z" id="Oval-19" sketch:type="MSShapeGroup"></path>
            </g>
        </g>
    </g>
</svg>