<?xml version="1.0" encoding="UTF-8"?>
<svg width="72px" height="72px" viewBox="0 0 72 72" version="1.1" xmlns="http://www.w3.org/2000/svg" xmlns:xlink="http://www.w3.org/1999/xlink">
    <!-- Generator: Sketch 50.2 (55047) - http://www.bohemiancoding.com/sketch -->
    <title>icons_outlined_wechatout</title>
    <desc>Created with Sketch.</desc>
    <defs></defs>
    <g id="icons_outlined_wechatout" stroke="none" stroke-width="1" fill="none" fill-rule="evenodd">
        <g id="common_icons_wechatout" fill="#000000" fill-rule="nonzero">
            <g id="Group-7" transform="translate(4.500000, 6.000000)">
                <path d="M46.2288587,39.7521695 L57.0125405,43.80211 C58.980694,44.63354 60.2612453,46.5102368 60.4045888,48.6615022 C60.4209637,48.857706 60.420869,49.0531582 60.4070092,49.2489744 C60.3784888,49.6519228 60.2956343,50.0347834 60.1750247,50.4218364 C60.1138736,50.6180786 60.0430679,50.8117355 60.0005149,50.9231691 C57.9677698,56.4484443 52.7435089,60.1879237 46.7885593,60.1879237 C45.4201637,60.1879237 43.9921674,59.9502817 43.1700238,59.7126096 C33.0730214,57.4081886 23.8845078,52.2748654 16.5670393,44.9683841 C9.2492425,37.661575 4.10773632,28.4860305 1.7677788,18.2317445 C1.77098808,18.2541758 1.63684705,17.6261046 1.57216534,17.2752623 C1.41470396,16.4211705 1.32330508,15.6080546 1.32330508,14.7877825 C1.32330508,8.83887201 5.06920342,3.62134712 10.6618193,1.57102542 C10.8154711,1.51791464 10.9973404,1.45944497 11.215516,1.40017557 C11.5432733,1.31113729 11.868964,1.24449495 12.1995147,1.20895062 C12.3637023,1.19129543 12.5265013,1.18177966 12.7588393,1.18294186 C14.9688556,1.25649846 16.8831585,2.53778573 17.7584294,4.60792508 L21.7643211,15.2432511 C22.1749921,16.3709006 22.0239702,17.2254065 21.4256017,18.3199084 C20.3506954,20.1981699 18.135669,24.2813093 16.98311,26.5391426 C16.8115219,26.8573276 16.7173729,27.2208239 16.7173729,27.5617938 C16.7173729,27.8934843 16.8277543,28.2669929 17.0375369,28.6081267 C19.1161075,32.1315645 21.3730283,35.1437113 23.8742093,37.6412416 C26.3438306,40.1489498 29.3402732,42.398448 32.9311849,44.5109213 C33.258274,44.7119046 33.5879664,44.8106638 33.9483051,44.8106638 C34.3178238,44.8106638 34.6373305,44.7267094 35.0041957,44.529732 C37.080527,43.4532556 40.9882399,41.339756 43.2443036,40.0883412 C44.2988352,39.5140058 45.084661,39.3713429 46.2288587,39.7521695 Z M36.6810842,47.7152201 C35.8287869,48.1734603 34.9260581,48.4106638 33.9483051,48.4106638 C32.902179,48.4106638 31.9249528,48.1179362 31.071325,47.593087 C27.2605003,45.3517251 24.0167849,42.9165935 21.3181031,40.1762166 C18.5983105,37.4605078 16.1613653,34.2080956 13.9518538,30.4621443 C13.4200909,29.599327 13.1173729,28.5749897 13.1173729,27.5617938 C13.1173729,26.6165019 13.3632795,25.6670905 13.7986008,24.8606717 C14.9558367,22.5924711 17.1982684,18.4588133 18.2865769,16.5577259 C18.3138523,16.5077961 17.022355,12.9663438 14.412085,5.93336903 C14.1220123,5.24877212 13.4640882,4.80840831 12.6889831,4.78177966 C12.4644451,4.80121578 12.3175205,4.83127928 12.1592845,4.87426553 C12.0346023,4.9081366 11.9378058,4.93925596 11.8415417,4.97181521 C7.70941991,6.48745835 4.92330508,10.3681359 4.92330508,14.7877825 C4.92330508,15.3594465 4.99152877,15.9663879 5.11250175,16.6225617 C5.15745466,16.8663924 5.31388344,17.5988185 5.30878868,17.5996072 C7.46425928,27.0156317 12.268067,35.5885186 19.1107104,42.4208879 C25.9535884,49.2534912 34.5399589,54.0504167 44.0487977,56.222805 C44.6819386,56.4034307 45.7905611,56.5879237 46.7885593,56.5879237 C51.2169282,56.5879237 55.1042341,53.8054248 56.6068502,49.7231098 C56.6769021,49.5319495 56.7086306,49.4451706 56.7380272,49.3508331 C56.7826718,49.2075623 56.80981,49.0821597 56.815993,48.9948046 C56.7580462,48.0801173 56.3003004,47.4092734 55.6679873,47.1408255 L45.0926091,43.1693325 C42.7074315,44.5028781 38.7718477,46.6314518 36.6810842,47.7152201 Z" id="Combined-Shape"></path>
                <g id="Group" transform="translate(25.107143, 0.000000)">
                    <path d="M6.21300781,15.8059536 C5.76086134,11.7969489 6.94312528,7.94112875 9.67278874,5.16774998 C14.9307215,-0.191663784 24.014298,0.355517086 30.0026122,6.22903607 C35.9390256,12.1036118 36.6361399,21.1690633 31.3940893,26.5122266 C28.639668,29.3590133 24.6813728,30.6221249 20.5878744,30.1508298 C20.2822791,30.6212988 19.9299921,31.0558867 19.5197775,31.4654854 C15.9098165,35.1292016 9.68720213,34.7542628 5.70603478,30.7788209 C1.64774737,26.839188 1.16493522,20.6256196 4.79432665,16.9423536 C5.22885835,16.5084743 5.70241753,16.129234 6.21300781,15.8059536 Z M18.3650634,25.9626243 C18.5907455,24.0308826 17.8123344,21.84523 16.1408174,20.2055037 C14.4874684,18.5835997 12.3484175,17.8381935 10.4048665,18.0424673 C11.0512,19.8156744 12.1295954,21.4919771 13.5791154,22.9394443 C14.986223,24.313217 16.642477,25.3481625 18.3650634,25.9626243 Z M18.661846,17.635598 C21.1864711,20.1122072 22.3637233,23.5190428 21.906799,26.6416842 C24.5867723,26.7286337 27.0633127,25.8110063 28.8155853,24.000024 C32.5943006,20.1483775 32.07078,13.3403821 27.4760885,8.79352698 C22.8390225,4.24537233 16.023672,3.83482596 12.2405509,7.69096001 C10.5045625,9.45475202 9.63998599,11.8717548 9.72449483,14.4988775 C12.8272844,14.0713996 16.165052,15.1862906 18.661846,17.635598 Z M11.0498351,25.5011492 C9.3265638,23.7804654 8.01159258,21.7934888 7.17203396,19.6685881 C5.23204402,21.8694285 5.5954438,25.6541763 8.23164187,28.21354 C10.7775562,30.7556317 14.5074192,31.0773864 16.6962958,29.1811226 C14.6494926,28.3776701 12.7125681,27.1246041 11.0498351,25.5011492 Z" id="Combined-Shape"></path>
                </g>
            </g>
        </g>
    </g>
</svg>