<?xml version="1.0" encoding="UTF-8"?>
<svg width="72px" height="72px" viewBox="0 0 72 72" version="1.1" xmlns="http://www.w3.org/2000/svg" xmlns:xlink="http://www.w3.org/1999/xlink">
    <!-- Generator: Sketch 52.2 (67145) - http://www.bohemiancoding.com/sketch -->
    <title>icons_filled_camera-switch</title>
    <desc>Created with Sketch.</desc>
    <g id="icons_filled_camera-switch" stroke="none" stroke-width="1" fill="none" fill-rule="evenodd">
        <g id="icon20" transform="translate(6.000000, 12.000000)" fill="#000000" fill-rule="nonzero">
            <path d="M38.1972244,5.55111512e-15 C38.6987541,5.4589856e-15 39.1671011,0.250651703 39.4452998,0.667949706 L45,9 L57,9 C58.6568542,9 60,10.3431458 60,12 L60,45 C60,46.6568542 58.6568542,48 57,48 L3,48 C1.34314575,48 6.86424427e-15,46.6568542 6.66133815e-15,45 L7.10542736e-15,12 C6.90252123e-15,10.3431458 1.34314575,9 3,9 L15,9 L20.5547002,0.667949706 C20.8328989,0.250651703 21.3012459,-3.46466031e-15 21.8027756,-2.22044605e-15 L38.1972244,0 Z M23.1000001,36.8190716 C25.0517791,38.1931395 27.4316634,39 30,39 C36.627417,39 42,33.627417 42,27 L38.4,27 C38.4,31.6391919 34.6391919,35.4 30,35.4 C28.0704628,35.4 26.2543424,34.7462911 24.8012849,33.6000001 L28.5,33.6000001 L28.5,30 L21,30 C20.1715729,30 19.5,30.6715729 19.5,31.5 L19.5,33.6000001 L19.5,39 L23.1000001,39 L23.1000001,36.8190716 Z M36.8999999,17.1809284 C34.9482209,15.8068605 32.5683366,15 30,15 C23.372583,15 18,20.372583 18,27 L21.6,27 C21.6,22.3608081 25.3608081,18.6 30,18.6 C31.9315034,18.6 33.7478075,19.255857 35.1988354,20.3999999 L31.5,20.3999999 L31.5,24 L36.8999999,24 L39,24 C39.8284271,24 40.5,23.3284271 40.5,22.5 L40.5,15 L36.8999999,15 L36.8999999,17.1809284 Z" id="Combined-Shape"></path>
        </g>
    </g>
</svg>