<?xml version="1.0" encoding="UTF-8"?>
<svg width="72px" height="72px" viewBox="0 0 72 72" version="1.1" xmlns="http://www.w3.org/2000/svg" xmlns:xlink="http://www.w3.org/1999/xlink">
    <!-- Generator: Sketch 50.2 (55047) - http://www.bohemiancoding.com/sketch -->
    <title>icons_outlined_me</title>
    <desc>Created with Sketch.</desc>
    <defs></defs>
    <g id="icons_outlined_me" stroke="none" stroke-width="1" fill="none" fill-rule="evenodd">
        <g id="common_icons_me" fill="#000000" fill-rule="nonzero">
            <path d="M60.9,59.4 L60.9,57.94639 C60.9,57.2581781 60.1940369,56.1300598 59.5794285,55.8302618 L42.5983684,47.5471203 C38.0186229,45.3131796 36.8867183,39.9087391 40.1680098,36.0191054 L41.2526075,34.7334263 C42.906585,32.7728059 44.4,28.6931728 44.4,26.1305571 L44.4,21.0006224 C44.4,16.3647426 40.6367694,12.6 36,12.6 C31.3689265,12.6 27.6,16.3656081 27.6,20.9987411 L27.6,26.1278716 C27.6,28.6969917 29.0872402,32.7614514 30.7472353,34.7289353 L31.8318329,36.014438 C35.1199092,39.9115804 33.9756429,45.3109509 29.4021584,47.5427608 L12.4210989,55.8293298 C11.8110513,56.1270263 11.1,57.2660312 11.1,57.94639 L11.1,59.4 L60.9,59.4 Z M7.5,60 L7.5,57.94639 C7.5,55.8911231 8.99445272,53.4957236 10.8422928,52.5939981 L27.8233523,44.307429 C30.2861314,43.1056201 30.8587772,40.4437873 29.0803357,38.3359167 L27.9957381,37.050414 C25.7889529,34.4348555 24,29.5484894 24,26.1278716 L24,20.9987411 C24,14.3720194 29.3860685,9 36,9 C42.627417,9 48,14.3789407 48,21.0006224 L48,26.1305571 C48,29.5478878 46.2027972,34.448581 44.0042615,37.0547191 L42.9196638,38.3403982 C41.1510972,40.436852 41.7035631,43.1051928 44.176647,44.3115311 L61.1577071,52.5946727 C63.0036045,53.4950776 64.5,55.8755104 64.5,57.94639 L64.5,60 C64.5,61.6568542 63.1568542,63 61.5,63 L10.5,63 C8.84314575,63 7.5,61.6568542 7.5,60 Z" id="Path-67"></path>
        </g>
    </g>
</svg>