<?xml version="1.0" encoding="UTF-8"?>
<svg width="72px" height="72px" viewBox="0 0 72 72" version="1.1" xmlns="http://www.w3.org/2000/svg" xmlns:xlink="http://www.w3.org/1999/xlink">
    <!-- Generator: Sketch 50.2 (55047) - http://www.bohemiancoding.com/sketch -->
    <title>icons_outlined_bottle</title>
    <desc>Created with Sketch.</desc>
    <defs></defs>
    <g id="icons_outlined_bottle" stroke="none" stroke-width="1" fill="none" fill-rule="evenodd">
        <g id="common_icons_bottle" fill="#000000">
            <g id="Group-5" transform="translate(6.000000, 9.000000)">
                <path d="M43.0888893,34.5 L44.7404411,32.8484482 C45.8656594,31.7232299 46.4978005,30.1971064 46.4978005,28.6058075 L46.4978005,20.4844872 L53.9224217,13.059866 L56.043742,15.1811863 L57.1044022,14.1205261 C57.6901886,13.5347397 57.6901886,12.5849922 57.1044022,11.9992058 L46.4978005,1.39260407 C45.912014,0.806817628 44.9622666,0.806817628 44.3764801,1.39260407 L43.3158199,2.45326424 L45.4371403,4.57458458 L38.0125191,11.9992058 L29.8911987,11.9992058 C28.2998998,11.9992058 26.7737763,12.6313468 25.6485581,13.7565651 L5.13205376,34.2730694 C5.05828058,34.3468426 4.98760436,34.42254 4.92002512,34.5 L9.99629197,34.5 L28.1941425,16.3021495 C28.6442298,15.8520622 29.2546792,15.5992058 29.8911987,15.5992058 L39.5036879,15.5992058 L47.9827247,7.12016899 L51.3768372,10.5142815 L42.8978005,18.9933183 L42.8978005,28.6058075 C42.8978005,29.2423271 42.644944,29.8527765 42.1948567,30.3028638 L37.9977205,34.5 L43.0888893,34.5 Z" id="Combined-Shape" fill-rule="nonzero"></path>
                <path d="M31.5,34.5 L49.5,34.5 L49.5,38.0999908 L31.5,38.0999908 L31.5,34.5 Z M0,34.5 L22.5,34.5 L22.5,38.0999908 L0,38.0999908 L0,34.5 Z M34.5,49.5 L48,49.5 L48,53.0999908 L34.5,53.0999908 L34.5,49.5 Z M25.5,42 L37.5,42 L37.5,45.5999908 L25.5,45.5999908 L25.5,42 Z M12,42 L18,42 L18,45.5999908 L12,45.5999908 L12,42 Z" id="Combined-Shape"></path>
            </g>
        </g>
    </g>
</svg>