<?xml version="1.0" encoding="UTF-8"?>
<svg width="72px" height="72px" viewBox="0 0 72 72" version="1.1" xmlns="http://www.w3.org/2000/svg" xmlns:xlink="http://www.w3.org/1999/xlink">
    <!-- Generator: Sketch 50.2 (55047) - http://www.bohemiancoding.com/sketch -->
    <title>icons_outlined_scan</title>
    <desc>Created with Sketch.</desc>
    <defs></defs>
    <g id="icons_outlined_scan" stroke="none" stroke-width="1" fill="none" fill-rule="evenodd">
        <g id="common_icons_scan" fill="#000000" fill-rule="nonzero">
            <path d="M37.0004458,49.5 L37.2552049,50.6846296 C38.0449008,54.3567158 39.4111666,57.3137053 41.4734276,59.8017525 C42.0458175,60.6603374 42.2995392,61.0092048 42.5536179,61.2632835 C44.5123555,63.2220211 47.1367885,64.4302506 49.7323944,64.5 L55.1022395,64.5050608 C58.2928175,64.2423073 61.0335623,62.7544744 62.6667237,60.3957483 C63.6542584,59.0131998 64.3392407,57.3496714 64.5,55.9859155 L64.5,53.6619718 C64.5,50.8804466 64.1077306,48.2816617 63.3093694,45.6856093 C63.2296433,45.4464381 63.2296433,45.4464381 63.1480355,45.1982171 C62.9454491,44.5777962 62.7930243,44.0609811 62.6514458,43.4932677 C62.0322004,41.2227013 61.7535211,38.6588516 61.7535211,35.915493 C61.7535211,35.5524718 61.7743754,35.083251 61.8116165,34.5246346 C61.826756,34.2975417 61.8443563,34.0599383 61.863932,33.8152413 C61.9044446,33.3088345 61.9449173,32.8703794 61.9798645,32.5343468 C62.0642824,31.9434216 61.6908747,31.5 61.1408451,31.5 C60.6755642,31.5 59.8121824,32.018029 59.2437588,32.750801 C58.2974549,33.6971049 57.7816901,34.9865168 57.7816901,36.3380282 L57.7816901,41.6197183 L57.770107,42.4395732 C57.4669646,44.8647119 55.3774298,46.5 52.9014085,46.5 L24,46.5 C23.1715729,46.5 22.5,47.1715729 22.5,48 C22.5,48.8284271 23.1715729,49.5 24,49.5 L37.0004458,49.5 Z M24,52.5 C21.5147186,52.5 19.5,50.4852814 19.5,48 C19.5,45.5147186 21.5147186,43.5 24,43.5 L52.9014085,43.5 C53.9347768,43.5 54.6878801,42.9106148 54.7816901,42.2535211 L54.7816901,36.3380282 C54.7816901,34.203624 55.6039535,32.1479656 56.9830986,30.7901408 C57.9368572,29.5184626 59.634295,28.5 61.1408451,28.5 C63.5374426,28.5 65.289443,30.5805005 64.9573445,32.8957345 C64.9318432,33.1507473 64.8930907,33.5705669 64.8543778,34.054477 C64.8358081,34.2865993 64.8191751,34.5111437 64.8049719,34.7241917 C64.7717905,35.2219134 64.7535211,35.6329743 64.7535211,35.915493 C64.7535211,38.4115709 65.0042835,40.718585 65.5538053,42.7347881 C65.6844946,43.2575455 65.8176294,43.7089555 65.9998518,44.2670118 C66.0766947,44.500745 66.0766947,44.500745 66.1660629,44.7701388 C67.0628484,47.6846919 67.5,50.580821 67.5,53.6619718 L67.4908256,56.1515628 C67.2611879,58.2183017 66.3797791,60.358866 65.1206122,62.1214206 C62.9717442,65.2253411 59.4065245,67.1607461 55.2253521,67.5 L49.6924086,67.499467 C46.2601838,67.407941 42.9160893,65.8683955 40.4322976,63.3846038 C39.982151,62.9344572 39.6724924,62.5086767 39.0730202,61.5940794 C37.0043622,59.1116898 35.5226467,56.0989768 34.6009075,52.5 L24,52.5 Z M34.9995542,22.5 L34.7447951,21.3153704 C33.9550992,17.6432842 32.5888334,14.6862947 30.5265724,12.1982475 C29.9541825,11.3396626 29.7004608,10.9907952 29.4463821,10.7367165 C27.4876445,8.77797891 24.8632115,7.5697494 22.2676056,7.5 L16.8977605,7.49493922 C13.7071825,7.75769271 10.9664377,9.2455256 9.33327626,11.6042517 C8.34574156,12.9868002 7.66075929,14.6503286 7.5,16.0140845 L7.5,18.3380282 C7.5,21.1195534 7.89226942,23.7183383 8.69063058,26.3143907 C9.01883486,27.2990036 9.16889877,27.7867113 9.34855418,28.5067323 C9.96779956,30.7772987 10.2464789,33.3411484 10.2464789,36.084507 C10.2464789,36.4475282 10.2256246,36.916749 10.1883835,37.4753654 C10.173244,37.7024583 10.1556437,37.9400617 10.136068,38.1847587 C10.0955554,38.6911655 10.0550827,39.1296206 10.0201355,39.4656532 C9.93571762,40.0565784 10.3091253,40.5 10.8591549,40.5 C11.3244358,40.5 12.1878176,39.981971 12.7562412,39.249199 C13.7025451,38.3028951 14.2183099,37.0134832 14.2183099,35.6619718 L14.2183099,30.3802817 L14.229893,29.5604268 C14.5330354,27.1352881 16.6225702,25.5 19.0985915,25.5 L48,25.5 C48.8284271,25.5 49.5,24.8284271 49.5,24 C49.5,23.1715729 48.8284271,22.5 48,22.5 L34.9995542,22.5 Z M48,19.5 C50.4852814,19.5 52.5,21.5147186 52.5,24 C52.5,26.4852814 50.4852814,28.5 48,28.5 L19.0985915,28.5 C18.0652232,28.5 17.3121199,29.0893852 17.2183099,29.7464789 L17.2183099,35.6619718 C17.2183099,37.796376 16.3960465,39.8520344 15.0169014,41.2098592 C14.0631428,42.4815374 12.365705,43.5 10.8591549,43.5 C8.46255743,43.5 6.71055697,41.4194995 7.04265548,39.1042655 C7.06815677,38.8492527 7.10690934,38.4294331 7.14562215,37.945523 C7.16419194,37.7134007 7.18082486,37.4888563 7.19502805,37.2758083 C7.2282095,36.7780866 7.24647887,36.3670257 7.24647887,36.084507 C7.24647887,33.5884291 6.99571647,31.281415 6.4461947,29.2652119 C6.28180546,28.6076549 6.15017922,28.1798696 5.83393712,27.2298612 C4.93715155,24.3153081 4.5,21.419179 4.5,18.3380282 L4.5091744,15.8484372 C4.73881205,13.7816983 5.62022088,11.641134 6.87938777,9.8785794 C9.02825581,6.77465889 12.5934755,4.83925394 16.7746479,4.5 L22.3075914,4.50053305 C25.7398162,4.59205904 29.0839107,6.13160447 31.5677024,8.61539617 C32.017849,9.06554279 32.3275076,9.49132332 32.9269798,10.4059206 C34.9956378,12.8883102 36.4773533,15.9010232 37.3990925,19.5 L48,19.5 Z" id="Combined-Shape"></path>
            <path d="M35.7887324,51 C36.6338028,54.9295775 38.1126761,58.0985915 40.2253521,60.6338028 C40.6478873,61.2676056 41.0704225,61.9014085 41.4929577,62.3239437 C43.6056338,64.4366197 46.5633803,65.915493 49.7323944,66 L55.2253521,66 C58.8169014,65.7042254 61.9859155,64.0140845 63.8873239,61.2676056 C64.943662,59.7887324 65.7887324,57.8873239 66,55.9859155 L66,53.6619718 C66,50.7042254 65.5774648,47.9577465 64.7323944,45.2112676 C64.5211268,44.5774648 64.3098592,43.943662 64.0985915,43.0985915 C63.4647887,40.7746479 63.2535211,38.2394366 63.2535211,35.915493 C63.2535211,34.8591549 63.4647887,32.7464789 63.4647887,32.7464789 C63.6760563,31.2676056 62.6197183,30 61.1408451,30 C60.084507,30 58.8169014,30.8450704 58.1830986,31.6901408 C56.915493,32.9577465 56.2816901,34.6478873 56.2816901,36.3380282 L56.2816901,42.2535211 C56.0704225,43.943662 54.5915493,45 52.9014085,45 L24,45 C22.3431458,45 21,46.3431458 21,48 C21,49.6568542 22.3431458,51 24,51 L35.7887324,51 Z M24,53.1 C21.1833478,53.1 18.9,50.8166522 18.9,48 C18.9,45.1833478 21.1833478,42.9 24,42.9 L52.9014085,42.9 C53.6462462,42.9 54.1320632,42.5197954 54.1816901,42.2535211 L54.1816901,36.3380282 C54.1816901,34.0470455 55.0652533,31.8381377 56.5030986,30.4301408 C57.5617922,29.0185494 59.4260411,27.9 61.1408451,27.9 C63.9067561,27.9 65.9344752,30.3079163 65.5543668,32.9554367 C65.5292284,33.2068209 65.4908199,33.6229134 65.452467,34.1023241 C65.4340984,34.3319315 65.417659,34.5538641 65.403643,34.7641031 C65.3712735,35.2496458 65.3535211,35.6490748 65.3535211,35.915493 C65.3535211,38.3621148 65.5987001,40.6177618 66.1358908,42.5892667 C66.2627887,43.0968584 66.3920655,43.5351874 66.5702151,44.0807707 C66.646105,44.3116063 66.646105,44.3116063 66.7395303,44.5936873 C67.653872,47.565298 68.1,50.5208958 68.1,53.6619718 L68.0871558,56.2178217 C67.8455774,58.3920277 66.9248833,60.6279992 65.6139275,62.4629466 C63.3593806,65.7195145 59.6292659,67.7444338 55.2253521,68.1 L49.6764143,68.0992537 C46.0848629,68.003479 42.596836,66.3976704 40.0080335,63.8088679 C39.5186733,63.3195077 39.1978274,62.8783445 38.6120874,61.9781901 C36.5714663,59.5294447 35.088904,56.5846934 34.1389147,53.1 L24,53.1 Z M36.2112676,21 C35.3661972,17.0704225 33.8873239,13.9014085 31.7746479,11.3661972 C31.3521127,10.7323944 30.9295775,10.0985915 30.5070423,9.67605634 C28.3943662,7.56338028 25.4366197,6.08450704 22.2676056,6 L16.7746479,6 C13.1830986,6.29577465 10.0140845,7.98591549 8.11267606,10.7323944 C7.05633803,12.2112676 6.21126761,14.1126761 6,16.0140845 L6,18.3380282 C6,21.2957746 6.42253521,24.0422535 7.26760563,26.7887324 C7.47887324,27.4225352 7.69014085,28.056338 7.90140845,28.9014085 C8.53521127,31.2253521 8.74647887,33.7605634 8.74647887,36.084507 C8.74647887,37.1408451 8.53521127,39.2535211 8.53521127,39.2535211 C8.32394366,40.7323944 9.38028169,42 10.8591549,42 C11.915493,42 13.1830986,41.1549296 13.8169014,40.3098592 C15.084507,39.0422535 15.7183099,37.3521127 15.7183099,35.6619718 L15.7183099,29.7464789 C15.9295775,28.056338 17.4084507,27 19.0985915,27 L48,27 C49.6568542,27 51,25.6568542 51,24 C51,22.3431458 49.6568542,21 48,21 L36.2112676,21 Z M48,18.9 C50.8166522,18.9 53.1,21.1833478 53.1,24 C53.1,26.8166522 50.8166522,29.1 48,29.1 L19.0985915,29.1 C18.3537538,29.1 17.8679368,29.4802046 17.8183099,29.7464789 L17.8183099,35.6619718 C17.8183099,37.9529545 16.9347467,40.1618623 15.4969014,41.5698592 C14.4382078,42.9814506 12.5739589,44.1 10.8591549,44.1 C8.09324386,44.1 6.06552485,41.6920837 6.44563317,39.0445633 C6.47077159,38.7931791 6.50918012,38.3770866 6.54753299,37.8976759 C6.56590157,37.6680685 6.58234103,37.4461359 6.59635696,37.2358969 C6.62872648,36.7503542 6.64647887,36.3509252 6.64647887,36.084507 C6.64647887,33.6378852 6.40129985,31.3822382 5.8641092,29.4107333 C5.70438679,28.7718436 5.57644809,28.3560429 5.26046972,27.4063127 C4.34612798,24.434702 3.9,21.4791042 3.9,18.3380282 L3.91284416,15.7821783 C4.1544226,13.6079723 5.07511675,11.3720008 6.38607245,9.53705341 C8.64061943,6.28048555 12.3707341,4.25556618 16.7746479,3.9 L22.3235857,3.90074627 C25.9151371,3.99652097 29.403164,5.60232958 31.9919665,8.1911321 C32.4813267,8.6804923 32.8021726,9.12165547 33.3879126,10.0218099 C35.4285337,12.4705553 36.911096,15.4153066 37.8610853,18.9 L48,18.9 Z" id="Combined-Shape"></path>
        </g>
    </g>
</svg>