<?xml version="1.0" encoding="UTF-8" standalone="no"?>
<svg width="48px" height="48px" viewBox="0 0 48 48" version="1.1" xmlns="http://www.w3.org/2000/svg" xmlns:xlink="http://www.w3.org/1999/xlink">
    <!-- Generator: Sketch 3.8.3 (29802) - http://www.bohemiancoding.com/sketch -->
    <title>Select</title>
    <desc>Created with Sketch.</desc>
    <defs></defs>
    <g id="安卓方案" stroke="none" stroke-width="1" fill="none" fill-rule="evenodd">
        <g id="iPhone-6P" transform="translate(-70.000000, -199.000000)" fill="#AAAAAA">
            <g id="New-message-alert-3" transform="translate(69.000000, 98.000000)">
                <g id="check-off-copy" transform="translate(1.000000, 101.673469)">
                    <path d="M0,6.32653061 C0,2.9596575 2.68354127,0.326530612 6,0.326530612 L42,0.326530612 C45.3108491,0.326530612 48,2.95416477 48,6.32653061 L48,41.3265306 C48,44.6934037 45.3164587,47.3265306 42,47.3265306 L6,47.3265306 C2.68915086,47.3265306 0,44.6988964 0,41.3265306 L0,6.32653061 L0,6.32653061 Z M4,6.32653061 C4,5.19839308 4.89153983,4.32653061 6,4.32653061 L42,4.32653061 C43.1057821,4.32653061 44,5.19578195 44,6.32653061 L44,41.3265306 C44,42.4546682 43.1084602,43.3265306 42,43.3265306 L6,43.3265306 C4.89421792,43.3265306 4,42.4572793 4,41.3265306 L4,6.32653061 L4,6.32653061 Z" id="Shape"></path>
                </g>
            </g>
        </g>
    </g>
</svg>