<?xml version="1.0" encoding="UTF-8" standalone="no"?>
<svg width="480px" height="480px" viewBox="0 0 480 480" version="1.1" xmlns="http://www.w3.org/2000/svg" xmlns:xlink="http://www.w3.org/1999/xlink" xmlns:sketch="http://www.bohemiancoding.com/sketch/ns">
    <!-- Generator: Sketch 3.2.2 (9983) - http://www.bohemiancoding.com/sketch -->
    <title>mobile_binded_icon</title>
    <desc>Created with Sketch.</desc>
    <defs></defs>
    <g id="Page-1" stroke="none" stroke-width="1" fill="none" fill-rule="evenodd" sketch:type="MSPage">
        <g id="mobile_binded_icon" sketch:type="MSLayerGroup" transform="translate(133.000000, 30.000000)">
            <g id="Page-1">
                <g id="#646464ff" fill="#646464" sketch:type="MSShapeGroup">
                    <path d="M46,3.02 C71.91,0.31 98,-0.21 124.04,0.1 C144.69,0.44 165.37,1.38 185.86,4.14 C195.27,5.44 204.68,7.21 213.66,10.43 C216.28,11.49 218.85,13.33 219.91,16.05 C221.41,19.5 220.95,23.34 221.01,26.99 C220.99,88.64 221,150.28 221,211.92 C216.38,210.98 211.7,210.39 207,210.14 L207,39 L15,39 L15,349 L117.8,349 C129.92,372.38 152.18,390.21 177.67,396.86 C154.52,399.26 131.24,400.06 107.98,399.99 C85.99,399.85 63.96,399.12 42.11,396.51 C30.89,394.98 19.42,393.55 8.92,389.1 C4.08,387.2 0.57,382.32 0.99,377.03 C1.01,258.68 0.99,140.34 1.01,21.99 C0.73,17.3 3.14,12.48 7.65,10.71 C19.99,6.32 33.03,4.46 46,3.02 L46,3.02 L46,3.02 Z M107.32,365.42 C100.42,367.94 99.4,378.51 105.73,382.26 C111.39,386.41 120.33,382.02 120.53,375.02 C121.36,368.19 113.56,362.44 107.32,365.42 L107.32,365.42 L107.32,365.42 Z" id="Shape"></path>
                </g>
                <g id="mobile_binded_icon"></g>
                <g id="#53c84dff" transform="translate(107.000000, 210.000000)" fill="#53C84D" sketch:type="MSShapeGroup">
                    <path d="M40.42,17.27 C57.6,5.08 78.97,-1.01 100,0.15 C104.7,0.38 109.38,0.98 114,1.92 C135.63,6.26 155.55,18.48 169.25,35.77 C183.48,53.43 190.94,76.34 189.89,98.99 C189.14,118.74 181.97,138.16 169.71,153.66 C159.17,167.15 144.89,177.65 128.9,183.76 C110.4,190.87 89.68,191.87 70.53,186.84 C45.11,180.13 22.9,162.35 10.8,139 C0.54,119.54 -2.54,96.43 2.15,74.94 C7.02,51.8 21.04,30.8 40.42,17.27 L40.42,17.27 Z M135.13,63.07 C116.74,81.31 98.5,99.71 80.14,117.98 C72.24,110.17 64.52,102.18 56.52,94.49 C54.07,92.44 51.79,95.46 50.14,97.03 C48.56,98.77 45.19,101.05 47.29,103.64 C57.14,113.8 67.3,123.67 77.25,133.74 C78.46,135.3 80.95,136.13 82.37,134.34 C102.11,114.74 121.71,95 141.42,75.37 C142.77,73.96 144.36,72.71 145.31,70.98 C145.81,68.15 142.77,66.64 141.25,64.73 C139.8,63.02 137.15,60.79 135.13,63.07 L135.13,63.07 Z" id="Shape"></path>
                </g>
                <g id="#ffffffff" transform="translate(153.000000, 272.000000)" fill="#FFFFFF" sketch:type="MSShapeGroup">
                    <path d="M89.13,1.07 C91.15,-1.21 93.8,1.02 95.25,2.73 C96.77,4.64 99.81,6.15 99.31,8.98 C98.36,10.71 96.77,11.96 95.42,13.37 C75.71,33 56.11,52.74 36.37,72.34 C34.95,74.13 32.46,73.3 31.25,71.74 C21.3,61.67 11.14,51.8 1.29,41.64 C-0.81,39.05 2.56,36.77 4.14,35.03 C5.79,33.46 8.07,30.44 10.52,32.49 C18.52,40.18 26.24,48.17 34.14,55.98 C52.5,37.71 70.74,19.31 89.13,1.07 L89.13,1.07 Z" id="Shape"></path>
                </g>
            </g>
        </g>
    </g>
</svg>