<?xml version="1.0" encoding="UTF-8"?>
<svg width="96px" height="96px" viewBox="0 0 96 96" version="1.1" xmlns="http://www.w3.org/2000/svg" xmlns:xlink="http://www.w3.org/1999/xlink">
    <!-- Generator: Sketch 49.3 (51167) - http://www.bohemiancoding.com/sketch -->
    <title>toolbar_icon_light_more_disabled</title>
    <desc>Created with Sketch.</desc>
    <defs></defs>
    <g id="toolbar_icon_light_more_disabled" stroke="none" stroke-width="1" fill="none" fill-rule="evenodd">
        <rect id="Rectangle-525" fill="#29AC45" opacity="0" x="0" y="0" width="96" height="96"></rect>
        <g id="common_icons_more" opacity="0.2" transform="translate(12.000000, 12.000000)" fill="#000000">
            <path d="M20.25,36 C20.25,38.89905 17.89905,41.25 15,41.25 C12.10095,41.25 9.75,38.89905 9.75,36 C9.75,33.0999 12.10095,30.75 15,30.75 C17.89905,30.75 20.25,33.0999 20.25,36 Z M36,30.75 C38.89905,30.75 41.25,33.0999 41.25,36 C41.25,38.89905 38.89905,41.25 36,41.25 C33.10095,41.25 30.75,38.89905 30.75,36 C30.75,33.0999 33.10095,30.75 36,30.75 Z M57,30.75 C59.89905,30.75 62.25,33.0999 62.25,36 C62.25,38.89905 59.89905,41.25 57,41.25 C54.10095,41.25 51.75,38.89905 51.75,36 C51.75,33.0999 54.10095,30.75 57,30.75 Z" id="Combined-Shape"></path>
        </g>
    </g>
</svg>