<?xml version="1.0" encoding="UTF-8"?>
<svg width="60px" height="54px" viewBox="0 0 60 54" version="1.1" xmlns="http://www.w3.org/2000/svg" xmlns:xlink="http://www.w3.org/1999/xlink">
    <!-- Generator: Sketch 52.5 (67469) - http://www.bohemiancoding.com/sketch -->
    <title>multitask_bar_miniprogram_logo</title>
    <desc>Created with Sketch.</desc>
    <g id="multitask_bar_miniprogram_logo" stroke="none" stroke-width="1" fill="none" fill-rule="evenodd">
        <path d="M43,0 C39.693,0 36.614,0.879 34,2.374 C29.205,5.118 26,9.968 26,15.5 L26,38.5 C26,42.642 21.97,46 17,46 C12.029,46 8,42.642 8,38.5 C8,35.552 10.046,33.009 13.015,31.783 C13.229,31.695 13.446,31.611 13.669,31.537 C15.538,30.787 17.141,29.379 17.736,27.744 C18.615,25.33 16.979,23.374 14.083,23.374 C13.361,23.374 12.629,23.496 11.923,23.716 C11.92,23.717 11.917,23.718 11.913,23.719 C7.726,24.921 4.231,27.557 2.133,31 C0.778,33.225 0,35.78 0,38.5 C0,47.047 7.626,54 17,54 C20.307,54 23.386,53.121 26,51.626 C30.795,48.882 34,44.032 34,38.5 L34,15.5 C34,11.358 38.029,8 43,8 C47.97,8 52,11.358 52,15.5 C52,18.574 49.781,21.216 46.604,22.374 C44.555,23.061 42.876,24.544 42.236,26.301 C41.362,28.703 42.99,30.651 45.873,30.651 C46.526,30.651 47.186,30.539 47.829,30.357 C47.934,30.328 48.038,30.296 48.142,30.265 C52.304,29.056 55.778,26.428 57.866,23 C59.222,20.776 60,18.22 60,15.5 C60,6.953 52.374,0 43,0" id="Mask" fill="#7F7F7F" fill-rule="nonzero"></path>
    </g>
</svg>