<?xml version="1.0" encoding="UTF-8" standalone="no"?>
<svg width="96px" height="84px" viewBox="0 0 96 84" version="1.1" xmlns="http://www.w3.org/2000/svg" xmlns:xlink="http://www.w3.org/1999/xlink" xmlns:sketch="http://www.bohemiancoding.com/sketch/ns">
    <!-- Generator: Sketch 3.3.3 (12081) - http://www.bohemiancoding.com/sketch -->
    <title>navbar_addresslist_icon_normal</title>
    <desc>Created with Sketch.</desc>
    <defs></defs>
    <g id="导航栏" stroke="none" stroke-width="1" fill="none" fill-rule="evenodd" sketch:type="MSPage">
        <g id="navbar_addresslist_icon_normal" sketch:type="MSArtboardGroup" fill="#999999">
            <g sketch:type="MSLayerGroup" transform="translate(12.000000, 11.000000)" id="Shape">
                <path d="M29.155,0.129 C31.969,-0.266 34.897,0.268 37.409,1.59 C40.496,3.189 42.952,5.857 44.559,8.916 C46.526,12.626 47.287,16.928 46.903,21.097 C46.46,25.973 44.359,30.784 40.706,34.105 C40.143,34.615 39.542,35.124 39.19,35.812 C38.932,36.302 39.012,36.871 39,37.403 C39.009,37.78 38.939,38.199 39.174,38.526 C39.647,39.23 40.41,39.656 41.124,40.078 C46.028,43.142 50.932,46.208 55.836,49.273 C56.166,49.474 56.483,49.7 56.837,49.86 C58.464,50.624 59.851,51.889 60.758,53.44 C61.552,54.782 61.984,56.335 61.998,57.894 C62.003,59.263 61.998,60.631 62,62 L0,62 C0.001,60.633 -0.001,59.266 0.001,57.899 C0.018,56.145 0.561,54.401 1.551,52.952 C2.462,51.601 3.751,50.509 5.23,49.829 C5.452,49.725 5.658,49.592 5.864,49.461 C10.951,46.28 16.039,43.102 21.126,39.921 C21.645,39.59 22.148,39.225 22.576,38.78 C22.799,38.539 23.026,38.249 23,37.901 C22.997,37.432 23.01,36.963 22.992,36.495 C22.973,36.076 22.778,35.688 22.529,35.36 C22.019,34.679 21.325,34.175 20.734,33.573 C18.121,30.972 16.375,27.569 15.558,23.989 C14.664,20.05 14.842,15.866 16.112,12.03 C17.173,8.838 19.014,5.874 21.561,3.659 C23.693,1.801 26.34,0.5 29.155,0.129 L29.155,0.129 Z M25.537,5.644 C23.203,7.138 21.471,9.445 20.395,11.976 C18.925,15.46 18.627,19.408 19.454,23.091 C20.234,26.587 22.128,29.917 25.059,32.042 C26.24,32.863 26.985,34.261 27.004,35.7 C26.995,36.801 27.004,37.902 26.999,39.003 C26.997,39.498 26.916,39.995 26.732,40.457 C26.297,41.59 25.329,42.401 24.328,43.029 C18.816,46.524 13.315,50.038 7.767,53.476 C7.065,53.929 6.3,54.302 5.693,54.888 C4.837,55.676 4.258,56.817 4.326,58 C22.109,58 39.892,58.001 57.674,57.999 C57.693,56.974 57.242,55.989 56.572,55.232 C55.782,54.306 54.668,53.772 53.662,53.125 C48.332,49.807 43.038,46.434 37.737,43.071 C36.995,42.599 36.267,42.066 35.753,41.342 C35.279,40.695 35.013,39.901 35.004,39.099 C34.992,37.999 35.008,36.899 34.995,35.798 C34.991,34.475 35.583,33.154 36.606,32.307 C37.047,31.948 37.514,31.621 37.937,31.238 C39.451,29.895 40.627,28.197 41.46,26.357 C43.112,22.665 43.424,18.412 42.447,14.496 C41.692,11.477 40.113,8.607 37.725,6.577 C36.017,5.119 33.859,4.151 31.605,4.022 C29.475,3.878 27.324,4.488 25.537,5.644 L25.537,5.644 Z" sketch:type="MSShapeGroup"></path>
                <path d="M56,17 L72,17 L72,21 L56,21 L56,17 L56,17 Z" sketch:type="MSShapeGroup"></path>
                <path d="M52,29 L72,29 L72,33 L52,33 L52,29 L52,29 Z" sketch:type="MSShapeGroup"></path>
                <path d="M56,41 L72,41 L72,45 L56,45 L56,41 L56,41 Z" sketch:type="MSShapeGroup"></path>
            </g>
        </g>
    </g>
</svg>