<?xml version="1.0" encoding="UTF-8" standalone="no"?>
<svg width="96px" height="84px" viewBox="0 0 96 84" version="1.1" xmlns="http://www.w3.org/2000/svg" xmlns:xlink="http://www.w3.org/1999/xlink" xmlns:sketch="http://www.bohemiancoding.com/sketch/ns">
    <!-- Generator: Sketch 3.3.3 (12081) - http://www.bohemiancoding.com/sketch -->
    <title>navbar_me_icon_normal</title>
    <desc>Created with Sketch.</desc>
    <defs></defs>
    <g id="导航栏" stroke="none" stroke-width="1" fill="none" fill-rule="evenodd" sketch:type="MSPage">
        <g id="navbar_me_icon_normal" sketch:type="MSArtboardGroup" fill="#999999">
            <g sketch:type="MSLayerGroup" transform="translate(16.900000, 11.000000)" id="Shape">
                <path d="M24.496,1.694 C27.29,0.163 30.624,-0.37 33.751,0.264 C36.855,0.865 39.674,2.588 41.815,4.89 C44.433,7.703 46.105,11.33 46.761,15.102 C47.716,20.528 46.661,26.362 43.544,30.943 C42.692,32.194 41.686,33.342 40.546,34.339 C40.051,34.793 39.54,35.269 39.254,35.889 C39.036,36.362 39.113,36.896 39.1,37.401 C39.108,37.778 39.039,38.197 39.274,38.525 C39.747,39.23 40.511,39.656 41.225,40.079 C46.19,43.181 51.155,46.285 56.12,49.388 C56.386,49.557 56.652,49.73 56.941,49.862 C58.565,50.625 59.95,51.889 60.857,53.438 C61.652,54.781 62.084,56.336 62.098,57.897 C62.103,59.264 62.098,60.632 62.1,62 L0.1,62 C0.101,60.632 0.098,59.265 0.101,57.898 C0.118,56.073 0.708,54.26 1.772,52.777 C2.712,51.443 4.034,50.401 5.517,49.733 C10.635,46.55 15.741,43.345 20.855,40.154 C21.542,39.728 22.232,39.279 22.774,38.671 C22.988,38.436 23.139,38.131 23.102,37.805 C23.061,37.112 23.229,36.357 22.865,35.725 C22.432,34.954 21.711,34.416 21.083,33.815 C18.607,31.451 16.873,28.367 15.939,25.086 C14.334,19.407 15.024,13.05 18.073,7.967 C19.632,5.377 21.82,3.129 24.496,1.694 L24.496,1.694 Z M25.701,5.603 C23.46,7.016 21.765,9.183 20.671,11.576 C19.128,14.973 18.74,18.853 19.431,22.509 C20.011,25.53 21.374,28.444 23.543,30.649 C24.104,31.232 24.744,31.729 25.386,32.219 C26.474,33.064 27.114,34.433 27.105,35.807 C27.092,36.906 27.108,38.006 27.096,39.106 C27.088,39.932 26.799,40.747 26.302,41.405 C25.54,42.434 24.384,43.041 23.333,43.725 C18.229,46.961 13.133,50.211 7.997,53.397 C7.212,53.905 6.348,54.315 5.687,54.991 C4.887,55.77 4.364,56.868 4.424,57.998 C22.208,58 39.993,58.003 57.777,57.997 C57.797,56.211 56.486,54.729 55.008,53.892 C49.227,50.324 43.506,46.663 37.768,43.027 C36.747,42.387 35.761,41.552 35.341,40.386 C35.055,39.659 35.099,38.867 35.1,38.102 C35.098,37.333 35.104,36.565 35.095,35.796 C35.094,34.665 35.523,33.534 36.292,32.702 C36.728,32.226 37.282,31.886 37.769,31.469 C39.748,29.809 41.181,27.561 42.051,25.142 C43.416,21.301 43.449,17.001 42.148,13.139 C41.223,10.411 39.583,7.874 37.266,6.13 C35.61,4.881 33.59,4.089 31.509,4.012 C29.467,3.916 27.42,4.509 25.701,5.603 L25.701,5.603 Z" sketch:type="MSShapeGroup"></path>
            </g>
        </g>
    </g>
</svg>