<?xml version="1.0" encoding="UTF-8" standalone="no"?>
<svg width="96px" height="84px" viewBox="0 0 96 84" version="1.1" xmlns="http://www.w3.org/2000/svg" xmlns:xlink="http://www.w3.org/1999/xlink">
    <!-- Generator: Sketch 3.7.2 (28276) - http://www.bohemiancoding.com/sketch -->
    <title>1</title>
    <desc>Created with Sketch.</desc>
    <defs></defs>
    <g id="Tabbar" stroke="none" stroke-width="1" fill="none" fill-rule="evenodd">
        <g id="-" transform="translate(-194.000000, -155.000000)">
            <g id="Group" transform="translate(194.000000, 155.000000)">
                <rect id="Rectangle-234" x="0" y="0" width="96" height="84"></rect>
                <path d="M26.949,16.8418261 C33.649,12.6785411 41.638,10.7386699 49.503,11.0282029 C57.468,11.2957713 65.408,13.8885894 71.778,18.7138068 C74.781,20.9841449 77.423,23.748686 79.47,26.9105862 C81.411,29.8987665 82.805,33.2483639 83.491,36.7467214 C84.316,40.9219871 84.131,45.2919388 82.953,49.3823414 C81.294,55.2089436 77.656,60.36962 73.004,64.2144187 C67.825,68.5144831 61.43,71.2630499 54.799,72.3463027 C45.676,73.8448857 36.002,72.303372 27.968,67.6698454 C22.646,69.4120354 17.323,71.1562222 12,72.8994106 C14.104,68.4196361 16.21,63.9418583 18.312,59.4610854 C15.922,56.4679131 14.079,53.024467 13.034,49.3364155 C11.356,43.5168019 11.74,37.1410854 14.082,31.5570918 C16.618,25.418992 21.327,20.318219 26.949,16.8418261 L26.949,16.8418261 Z M39.728,15.9033398 C33.562,17.2851111 27.702,20.3052399 23.271,24.8409243 C20.666,27.504628 18.584,30.699475 17.338,34.2158036 C15.605,39.0440161 15.557,44.4502963 17.208,49.3074622 C18.376,52.793839 20.372,55.9757069 22.882,58.6553849 C21.586,61.4059485 20.294,64.1575105 19.001,66.9090725 C22.312,65.8068503 25.624,64.7056264 28.935,63.6024058 C31.917,65.4634042 35.193,66.8431788 38.596,67.7227601 C46.704,69.8034042 55.538,69.1524541 63.176,65.6870435 C68.381,63.3248535 73.04,59.6078486 76.146,54.7826312 C78.169,51.6526796 79.492,48.059475 79.873,44.3484606 C80.256,40.7472689 79.764,37.0612142 78.465,33.6806667 C77.237,30.4638551 75.308,27.5315846 72.929,25.047591 C70.65,22.6664316 67.965,20.684628 65.056,19.1381224 C57.369,15.0547085 48.197,14.0123897 39.728,15.9033398 L39.728,15.9033398 Z" id="Shape" fill="#1AAD19"></path>
            </g>
        </g>
    </g>
</svg>