<?xml version="1.0" encoding="UTF-8" ?>
<!DOCTYPE svg PUBLIC "-//W3C//DTD SVG 1.1//EN" "http://www.w3.org/Graphics/SVG/1.1/DTD/svg11.dtd">
<svg width="96pt" height="96pt" viewBox="0 0 96 96" version="1.1" xmlns="http://www.w3.org/2000/svg">
<g id="#ffffffff">
<path fill="#ffffff" opacity="1.00" d=" M 46.17 15.12 C 47.39 15.11 48.62 15.11 49.84 15.13 C 50.08 18.38 50.08 21.64 49.84 24.88 C 48.61 24.90 47.38 24.89 46.16 24.88 C 45.92 21.63 45.92 18.37 46.17 15.12 Z" />
<path fill="#ffffff" opacity="1.00" d=" M 23.47 26.01 C 24.33 25.13 25.19 24.25 26.06 23.37 C 28.53 25.47 30.76 27.82 33.01 30.16 C 32.12 31.12 31.18 32.03 30.19 32.88 C 27.90 30.64 25.60 28.41 23.47 26.01 Z" />
<path fill="#ffffff" opacity="1.00" d=" M 62.98 30.19 C 65.23 27.89 67.45 25.55 69.91 23.46 C 70.77 24.32 71.63 25.18 72.49 26.05 C 70.41 28.49 68.08 30.70 65.80 32.96 C 64.77 32.13 63.83 31.20 62.98 30.19 Z" />
<path fill="#ffffff" opacity="1.00" d=" M 43.40 30.61 C 52.10 28.08 62.04 33.34 64.93 41.90 C 67.60 48.98 65.13 57.57 59.11 62.15 C 53.41 66.76 44.83 67.26 38.63 63.36 C 32.72 59.85 29.25 52.74 30.13 45.92 C 30.87 38.73 36.39 32.37 43.40 30.61 Z" />
<path fill="#ffffff" opacity="1.00" d=" M 15.14 46.17 C 18.37 45.92 21.61 45.93 24.84 46.15 C 24.88 47.36 24.91 48.57 24.93 49.78 C 21.67 50.11 18.37 50.09 15.10 49.81 C 15.10 48.59 15.11 47.38 15.14 46.17 Z" />
<path fill="#ffffff" opacity="1.00" d=" M 71.11 46.20 C 74.35 45.90 77.62 45.91 80.87 46.18 C 80.89 47.38 80.90 48.59 80.90 49.80 C 77.64 50.10 74.35 50.10 71.09 49.79 C 71.09 48.59 71.09 47.39 71.11 46.20 Z" />
<path fill="#ffffff" opacity="1.00" d=" M 23.34 69.91 C 25.40 67.35 27.82 65.14 30.16 62.85 C 31.16 63.74 32.10 64.68 32.85 65.79 C 30.52 67.84 28.67 70.49 26.02 72.12 C 25.03 71.52 24.14 70.78 23.34 69.91 Z" />
<path fill="#ffffff" opacity="1.00" d=" M 62.91 65.80 C 63.70 64.70 64.66 63.77 65.79 63.02 C 67.84 65.38 70.62 67.20 72.15 69.96 C 71.47 70.86 70.74 71.71 69.95 72.53 C 67.40 70.50 65.20 68.09 62.91 65.80 Z" />
<path fill="#ffffff" opacity="1.00" d=" M 46.17 71.13 C 47.39 71.11 48.60 71.10 49.82 71.11 C 50.09 74.36 50.08 77.64 49.82 80.89 C 48.61 80.90 47.39 80.90 46.18 80.89 C 45.91 77.64 45.92 74.38 46.17 71.13 Z" />
</g>
</svg>
