<?xml version="1.0" encoding="UTF-8" standalone="no"?>
<svg width="96px" height="96px" viewBox="0 0 96 96" version="1.1" xmlns="http://www.w3.org/2000/svg" xmlns:xlink="http://www.w3.org/1999/xlink" xmlns:sketch="http://www.bohemiancoding.com/sketch/ns">
    <!-- Generator: Sketch 3.3.3 (12081) - http://www.bohemiancoding.com/sketch -->
    <title>ofm_bottle_icon</title>
    <desc>Created with Sketch.</desc>
    <defs></defs>
    <g id="Page-1" stroke="none" stroke-width="1" fill="none" fill-rule="evenodd" sketch:type="MSPage">
        <g id="#ffffffff" sketch:type="MSLayerGroup" transform="translate(16.000000, 18.000000)" fill="#FFFFFF">
            <path d="M49,1 C50.0363636,0.746507289 51.0380165,0.398137221 52,3.55271368e-15 C53.9933884,0.826134733 55.7785124,2.00063954 58,3 C57.7123967,4.23020797 57.8115702,5.39475934 58,7 C56.8198347,8.44050908 56.1454545,10.958727 54,12 C52.3371901,12.7901582 51.7619835,14.6514497 51,16 C51.2561983,20.2253708 52.5454545,24.3460911 52,29 C51.0181818,31.7613968 48.9355372,34.5981245 47,38 C42.261157,39.5648863 36.7173554,40.7692514 31,39 C27.9603306,38.6690776 25.014876,36.6485312 22,35 C25.4909091,29.1934117 28.5652893,23.1616328 32,18 C35.646281,14.820658 40.1983471,14.1040111 44,12 C44.8396694,10.9786339 45.6033058,9.66478104 46,8 C45.0479339,5.60378138 47.9933884,3.36425952 49,1 L49,1 Z" id="Shape" sketch:type="MSShapeGroup"></path>
            <path d="M0,43 C3.57385743,39.3372924 8.59522695,36.5524175 14,37 C21.1736079,36.9999867 26.1051318,43.3753609 33,44 C39.2425519,44.976664 45.0625487,42.4304927 51,41 C55.2350647,38.9593451 59.8571206,40.6700539 64,42 C60.6158166,42.241519 57.0918733,41.9530856 54,43 C48.96584,45.0761238 44.8029949,48.4080276 40,50 C37.525503,53.6694519 35.8683513,57.6478446 33,61 C31.5956949,61.2980198 30.2280455,60.2437458 29,60 C24.2682889,57.2798432 19.586336,55.0618893 15,53 C13.6864764,52.0383109 12.8678833,50.3474941 14,49 C14.6847606,46.6177509 16.2321011,44.4594729 17,42 C11.7697707,39.1881027 5.24099204,40.113079 0,43 L0,43 Z" id="Shape" sketch:type="MSShapeGroup"></path>
        </g>
    </g>
</svg>