<?xml version="1.0" encoding="UTF-8" standalone="no"?>
<svg width="96px" height="96px" viewBox="0 0 96 96" version="1.1" xmlns="http://www.w3.org/2000/svg" xmlns:xlink="http://www.w3.org/1999/xlink" xmlns:sketch="http://www.bohemiancoding.com/sketch/ns">
    <!-- Generator: Sketch 3.3.3 (12081) - http://www.bohemiancoding.com/sketch -->
    <title>ofm_eliminate_icon</title>
    <desc>Created with Sketch.</desc>
    <defs></defs>
    <g id="Page-1" stroke="none" stroke-width="1" fill="none" fill-rule="evenodd" sketch:type="MSPage">
        <g id="#ffffffff" sketch:type="MSLayerGroup" transform="translate(23.000000, 12.000000)" fill="#FFFFFF">
            <path d="M12,3 C19.7509809,-0.980212707 29.3848199,-1.15026113 37,3 C44.4808355,7.07208031 49.6428925,15.3144274 50,24 C50.3131596,31.6790875 47.3919955,39.1012011 44,46 C38.7385472,54.7256504 32.1459201,62.6779149 25,70 C18.0202912,62.8579662 11.6077359,55.0757501 7,46 C3.11435136,40.1214916 0.283223189,33.2195262 -3.55271368e-15,26 C-0.28700404,16.9348889 4.58493738,7.93232528 12,3 L12,3 Z M14,18 C16.5612245,21.426405 19.7857143,24.0758252 23,27 C19.8265306,29.8652988 16.6734694,32.4950937 14,36 C14.9285714,36.4397859 15.7244898,37.2247993 17,38 C19.8469388,35.5664585 22.5714286,32.5049063 26,30 C28.377551,32.4656557 31.2142857,35.1641392 34,38 C35.3673469,37.381802 36.3367347,36.4397859 37,35 C34.0714286,32.455843 31.255102,29.7181088 28,27 C31.2857143,24.1248885 34.4591837,21.5049063 37,18 C36.2040816,17.5504014 35.3979592,16.7752007 35,16 C31.2653061,18.4335415 28.5510204,21.4950937 26,24 C22.7244898,21.514719 19.8673469,18.7966102 17,16 C16.0204082,16.765388 15.0204082,17.4915254 14,18 L14,18 Z" id="Shape" sketch:type="MSShapeGroup"></path>
        </g>
    </g>
</svg>