<?xml version="1.0" encoding="UTF-8" standalone="no"?>
<svg width="96px" height="96px" viewBox="0 0 96 96" version="1.1" xmlns="http://www.w3.org/2000/svg" xmlns:xlink="http://www.w3.org/1999/xlink" xmlns:sketch="http://www.bohemiancoding.com/sketch/ns">
    <!-- Generator: Sketch 3.3 (11970) - http://www.bohemiancoding.com/sketch -->
    <title>ofm_favourite_icon</title>
    <desc>Created with Sketch.</desc>
    <defs></defs>
    <g id="OFM菜单" stroke="none" stroke-width="1" fill="none" fill-rule="evenodd" sketch:type="MSPage">
        <g id="ofm_favourite_icon" sketch:type="MSArtboardGroup" fill="#FFFFFF">
            <path d="M44.1040702,48.5720858 L20.9999259,35.2311507 C19.9589645,34.6297318 19.0039999,35.2585803 19,36.4624341 L19.0039999,62.931979 C19,64.1348169 19.8469686,65.6149983 20.8869301,66.219465 L44.10907,79.7402162 C45.1490315,80.3456988 46,79.85603 46,78.6531921 L46,51.8524604 C45.999,50.6486066 45.1460316,49.1724888 44.1040702,48.5720858 Z M73.2169369,29.4583991 L50.0732469,16.4451016 C49.0269698,15.8567792 47.3111969,15.8508465 46.2598556,16.4322475 L22.7890141,29.4139041 C21.7386856,29.9943164 21.7366599,30.9484864 22.7849627,31.5338426 L46.1433775,44.5609829 C47.1916803,45.146339 48.9074532,45.146339 49.9567689,44.5609829 L73.2128855,31.5911916 C74.2611883,31.0068243 74.2622012,30.0467216 73.2169369,29.4583991 Z M76.997,36.350919 C77.001,35.1477404 76.151,34.6553003 75.11,35.2563819 L51.895,48.6649692 C50.853,49.2670662 50,50.7433713 50,51.9465499 L50,78.6449298 C50,79.8491237 50.854,80.3446099 51.898,79.7455589 L74.994,66.5156715 C76.037,65.9176359 76.996,64.286999 77,63.0828051 L76.997,36.350919 Z" id="Path" sketch:type="MSShapeGroup"></path>
        </g>
    </g>
</svg>