<?xml version="1.0" encoding="UTF-8" standalone="no"?>
<svg width="96px" height="96px" viewBox="0 0 96 96" version="1.1" xmlns="http://www.w3.org/2000/svg" xmlns:xlink="http://www.w3.org/1999/xlink" xmlns:sketch="http://www.bohemiancoding.com/sketch/ns">
    <!-- Generator: Sketch 3.3.3 (12072) - http://www.bohemiancoding.com/sketch -->
    <title>ofm_send_icon</title>
    <desc>Created with Sketch.</desc>
    <defs></defs>
    <g id="OFM菜单" stroke="none" stroke-width="1" fill="none" fill-rule="evenodd" sketch:type="MSPage">
        <g id="ofm_send_icon" sketch:type="MSArtboardGroup" fill="#FFFFFF">
            <path d="M68,71 L22,71 L22,37 L31.521,37 C32.823,34.063 34.368,31.769 36.079,30 L18,30 C16.343,30 15,31.343 15,33 L15,75 C15,76.657 16.343,78 18,78 L72,78 C73.656,78 75,76.657 75,75 L75,53.22 L68,59.13 L68,71 L68,71 Z M60,19 L60,30.019 C58.325,30.008 56.583,30 55,30 C41.334,30 32.055,43.333 32.055,61 C36.721,50.16 41.284,45 60,45 L60,56 L74.452,43.848 L75,44.357 L75,43.386 L82,37.5 L60,19 L60,19 Z" id="Shape" sketch:type="MSShapeGroup"></path>
        </g>
    </g>
</svg>