<?xml version="1.0" encoding="UTF-8" standalone="no"?>
<svg width="66px" height="80px" viewBox="0 0 66 80" version="1.1" xmlns="http://www.w3.org/2000/svg" xmlns:xlink="http://www.w3.org/1999/xlink">
    <!-- Generator: Sketch 40.1 (33804) - http://www.bohemiancoding.com/sketch -->
    <title>Combined Shape Copy 14</title>
    <desc>Created with Sketch.</desc>
    <defs></defs>
    <g id="过龙哥后改版0906" stroke="none" stroke-width="1" fill="none" fill-rule="evenodd">
        <g id="图标-copy-4" transform="translate(-416.000000, -1269.000000)" fill="#7C8186">
            <path d="M482,1311.72024 L482,1271.99009 C482,1270.33834 480.653548,1269 478.992615,1269 L419.007385,1269 C417.348283,1269 416,1270.33871 416,1271.99009 L416,1346.00991 C416,1347.66166 417.346452,1349 419.007385,1349 L478.992615,1349 C480.651717,1349 482,1347.66129 482,1346.00991 L482,1316.93719 L449.525472,1336.60065 L449.281578,1336.74803 C448.979657,1336.90777 448.639655,1337 448.278801,1337 C447.443758,1337 446.717516,1336.51697 446.335808,1335.8048 L446.189834,1335.46915 L440.106987,1321.47091 C440.0408,1321.31783 440,1321.14572 440,1320.97838 C440,1320.33371 440.498668,1319.8098 441.114297,1319.8098 C441.364538,1319.8098 441.594832,1319.89632 441.780699,1320.0418 L448.958803,1325.40168 C449.483765,1325.76204 450.110274,1325.97313 450.783929,1325.97313 C451.185584,1325.97313 451.569105,1325.89421 451.926333,1325.75824 L482,1311.72024 Z M428,1294.5 L452,1294.5 L452,1299 L428,1299 L428,1294.5 Z M428,1281 L452,1281 L452,1285.5 L428,1285.5 L428,1281 Z" id="Combined-Shape-Copy-14"></path>
        </g>
    </g>
</svg>