<?xml version="1.0" encoding="UTF-8"?>
<svg width="192px" height="192px" viewBox="0 0 192 192" version="1.1" xmlns="http://www.w3.org/2000/svg" xmlns:xlink="http://www.w3.org/1999/xlink">
    <!-- Generator: Sketch 50.2 (55047) - http://www.bohemiancoding.com/sketch -->
    <title>chatromm_toolpanel_icon_voipvoice@3x</title>
    <desc>Created with Sketch.</desc>
    <defs></defs>
    <g id="chatromm_toolpanel_icon_voipvoice" stroke="none" stroke-width="1" fill="none" fill-rule="evenodd">
        <g id="Picture" transform="translate(48.000000, 48.000000)" fill="#333333">
            <g id="ICON" transform="translate(9.000000, 15.000000)">
                <path d="M28.1486001,43.8513999 C35.6331398,51.3359396 42.7248257,54.8464517 45.3473614,54.6408768 C47.9698971,54.4353019 54.5007421,49.9440272 57.5838348,50.0038074 C59.0655955,50.0325383 68.7484421,56.5810473 69.9205511,57.3381625 C71.0926601,58.0952777 72.1794644,58.9796819 71.9751086,60.0988096 C71.7707527,61.2179373 67.5152532,73.5451031 56.6509701,71.8380735 C45.786687,70.1310438 30.6403582,58.4191625 22.0096077,49.9903923 L28.1486001,43.8513999 L28.1486001,43.8513999 Z M28.1486001,43.8513999 C20.6640604,36.3668602 17.1535483,29.2751743 17.3591232,26.6526386 C17.5646981,24.0301029 22.0559728,17.4992579 21.9961926,14.4161652 C21.9674617,12.9344045 15.4189527,3.25155786 14.6618375,2.07944887 C13.9047223,0.907339889 13.0203181,-0.179464383 11.9011904,0.0248914421 C10.7820627,0.229247267 -1.54510313,4.48474683 0.161926516,15.3490299 C1.86895616,26.213313 13.5808375,41.3596418 22.0096077,49.9903923 L28.1486001,43.8513999 L28.1486001,43.8513999 Z" id="Path-29"></path>
            </g>
        </g>
    </g>
</svg>