<?xml version="1.0" encoding="UTF-8"?>
<svg width="192px" height="192px" viewBox="0 0 192 192" version="1.1" xmlns="http://www.w3.org/2000/svg" xmlns:xlink="http://www.w3.org/1999/xlink">
    <!-- Generator: Sketch 50.2 (55047) - http://www.bohemiancoding.com/sketch -->
    <title>chatromm_toolpanel_icon_location@3x</title>
    <desc>Created with Sketch.</desc>
    <defs></defs>
    <g id="chatromm_toolpanel_icon_location" stroke="none" stroke-width="1" fill="none" fill-rule="evenodd">
        <g id="Location" transform="translate(48.000000, 48.000000)" fill="#333333">
            <path d="M45.7818452,85.0154582 C45.7818452,85.0154582 18,61.5685425 18,39 C18,22.4314575 31.4314575,9 48,9 C64.5685425,9 78,22.4314575 78,39 C78,61.5685425 50.2303666,85.0041868 50.2303666,85.0041868 C49.0153439,86.1089498 47.0068983,86.1114904 45.7818452,85.0154582 Z M48,51 C54.627417,51 60,45.627417 60,39 C60,32.372583 54.627417,27 48,27 C41.372583,27 36,32.372583 36,39 C36,45.627417 41.372583,51 48,51 Z" id="Combined-Shape"></path>
        </g>
    </g>
</svg>