<?xml version="1.0" encoding="UTF-8"?>
<svg width="192px" height="192px" viewBox="0 0 192 192" version="1.1" xmlns="http://www.w3.org/2000/svg" xmlns:xlink="http://www.w3.org/1999/xlink">
    <!-- Generator: Sketch 50.2 (55047) - http://www.bohemiancoding.com/sketch -->
    <title>chatromm_toolpanel_icon_pay@3x</title>
    <desc>Created with Sketch.</desc>
    <defs></defs>
    <g id="chatromm_toolpanel_icon_pay" stroke="none" stroke-width="1" fill="none" fill-rule="evenodd">
        <g id="Picture" transform="translate(48.000000, 48.000000)" fill="#333333">
            <g id="ICON" transform="translate(9.000000, 9.000000)">
                <g id="Group-3">
                    <path d="M57,42 L71.8360704,42 C73.4929246,42 74.8360704,43.3431458 74.8360704,45 C74.8360704,45.9556306 74.3807867,46.8540898 73.6101614,47.419215 L39.9859066,72.0770018 C39.3178589,72.5669035 38.3791554,72.4224876 37.8892537,71.7544398 C37.5930675,71.3505496 37.518008,70.8254779 37.689171,70.3547797 L44.7272727,51 L3,51 C1.34314575,51 2.02906125e-16,49.6568542 0,48 L0,45 C-2.02906125e-16,43.3431458 1.34314575,42 3,42 L57,42 Z" id="Combined-Shape"></path>
                    <path d="M30.2727273,24 L75,24 C76.6568542,24 78,25.3431458 78,27 L78,30 C78,31.6568542 76.6568542,33 75,33 L21,33 L3.16392961,33 C1.50707536,33 0.16392961,31.6568542 0.16392961,30 C0.16392961,29.0443694 0.619213311,28.1459102 1.38983862,27.580785 L35.0140934,2.92299821 C35.6821411,2.43309651 36.6208446,2.57751243 37.1107463,3.24556021 C37.4069325,3.64945044 37.481992,4.17452209 37.310829,4.6452203 L30.2727273,24 Z" id="Combined-Shape"></path>
                </g>
            </g>
        </g>
    </g>
</svg>