<?xml version="1.0" encoding="UTF-8"?>
<svg width="192px" height="192px" viewBox="0 0 192 192" version="1.1" xmlns="http://www.w3.org/2000/svg" xmlns:xlink="http://www.w3.org/1999/xlink">
    <!-- Generator: Sketch 50.2 (55047) - http://www.bohemiancoding.com/sketch -->
    <title>chatromm_toolpanel_icon_multitalk@3x</title>
    <desc>Created with Sketch.</desc>
    <defs></defs>
    <g id="chatromm_toolpanel_icon_multitalk" stroke="none" stroke-width="1" fill="none" fill-rule="evenodd">
        <g id="Picture" transform="translate(48.000000, 48.000000)" fill="#333333">
            <g id="ICON" transform="translate(9.000000, 12.000000)">
                <path d="M28.1486001,46.8513999 C35.6331398,54.3359396 42.7248257,57.8464517 45.3473614,57.6408768 C47.9698971,57.4353019 54.5007421,52.9440272 57.5838348,53.0038074 C59.0655955,53.0325383 68.7484421,59.5810473 69.9205511,60.3381625 C71.0926601,61.0952777 72.1794644,61.9796819 71.9751086,63.0988096 C71.7707527,64.2179373 67.5152532,76.5451031 56.6509701,74.8380735 C45.786687,73.1310438 30.6403582,61.4191625 22.0096077,52.9903923 L28.1486001,46.8513999 L28.1486001,46.8513999 Z M28.1486001,46.8513999 C20.6640604,39.3668602 17.1535483,32.2751743 17.3591232,29.6526386 C17.5646981,27.0301029 22.0559728,20.4992579 21.9961926,17.4161652 C21.9674617,15.9344045 15.4189527,6.25155786 14.6618375,5.07944887 C13.9047223,3.90733989 13.0203181,2.82053562 11.9011904,3.02489144 C10.7820627,3.22924727 -1.54510313,7.48474683 0.161926516,18.3490299 C1.86895616,29.213313 13.5808375,44.3596418 22.0096077,52.9903923 L28.1486001,46.8513999 L28.1486001,46.8513999 Z" id="Path-29"></path>
                <path d="M36,2.55289529 C36,1.9161688 36.5379962,1.4 37.1984953,1.4 L60.0015047,1.4 C60.6634154,1.4 61.2,1.91417784 61.2,2.55289529 L61.2,19.8471047 C61.2,20.4838312 60.6620038,21 60.0015047,21 L37.1984953,21 C36.5365846,21 36,20.4858222 36,19.8471047 L36,2.55289529 Z M71.9625,22.3158432 C71.6030964,21.9290127 67.1618988,17.7136479 64,14.820552 L64,7.49036063 C67.0866229,4.63630345 71.4308873,0.54194108 71.9625,0.0708027421 C72.8587195,-0.187137309 73.8,0.264884386 73.8,1.34194791 L73.8,21.0446981 C73.8,22.0069377 72.9488091,22.6358375 71.9625,22.3158432 Z" id="Path"></path>
            </g>
        </g>
    </g>
</svg>