<?xml version="1.0" encoding="UTF-8" standalone="no"?>
<svg width="78px" height="79px" viewBox="0 0 78 79" version="1.1" xmlns="http://www.w3.org/2000/svg" xmlns:xlink="http://www.w3.org/1999/xlink" xmlns:sketch="http://www.bohemiancoding.com/sketch/ns">
    <!-- Generator: Sketch 3.4.2 (15857) - http://www.bohemiancoding.com/sketch -->
    <title>fts_moment@2x</title>
    <desc>Created with Sketch.</desc>
    <defs></defs>
    <g id="search－new" stroke="none" stroke-width="1" fill="none" fill-rule="evenodd" sketch:type="MSPage">
        <g id="Artboard-45" sketch:type="MSArtboardGroup" transform="translate(-98.000000, -237.000000)" fill="#555555">
            <g id="朋友圈-+-朋友圈" sketch:type="MSLayerGroup" transform="translate(98.000000, 237.000000)">
                <g id="朋友圈" sketch:type="MSShapeGroup">
                    <path d="M39,78.490566 C60.5391052,78.490566 78,60.9198543 78,39.245283 C78,17.5707117 60.5391052,0 39,0 C17.4608948,0 0,17.5707117 0,39.245283 C0,60.9198543 17.4608948,78.490566 39,78.490566 Z M39,49.8113208 C44.7989899,49.8113208 49.5,45.0807445 49.5,39.245283 C49.5,33.4098215 44.7989899,28.6792453 39,28.6792453 C33.2010101,28.6792453 28.5,33.4098215 28.5,39.245283 C28.5,45.0807445 33.2010101,49.8113208 39,49.8113208 Z M5.54117647,25.5597484 L39.4235294,25.5597484 L21.6352941,7.28079911 C14.5103188,11.1762461 8.75628857,17.5023054 5.54117647,25.5597484 Z M38.6235294,3.01886792 C42.6183133,3.01886792 46.2316934,3.57822461 49.4,4.7236404 L49.4,30.2952275 L25.0705882,5.57602664 C29.3325911,3.96969737 33.9922215,3.01886792 38.6235294,3.01886792 Z M3,39.6714761 C3,44.3200561 3.94945508,49.0156832 5.55,53.3096559 L30.2,28.7798742 L4.7,28.7798742 C3.55473675,32.0098138 3,35.6394327 3,39.6714761 Z M25.4,72.9145394 L25.4,38.8190899 L7.23529412,56.7192009 C11.1053588,63.9010794 17.3857563,69.6845498 25.4,72.9145394 Z M39.4235294,75.4716981 C44.0375177,75.4716981 48.7066683,74.5150187 52.9764706,72.9145394 L28.6,48.1953385 L28.6,73.7669256 C31.8073477,74.9144921 35.4113232,75.4716981 39.4235294,75.4716981 Z M72.4588235,52.8301887 L38.5764706,52.8301887 L56.3647059,71.2097669 C63.5013374,67.3178783 69.2469126,61.0038367 72.4588235,52.8301887 Z M75,39.6714761 C75,35.0167503 74.0473464,30.3248987 72.45,26.0332963 L47.8,49.8113208 L73.3,49.8113208 C74.4413121,47.3298217 75,43.6966651 75,39.6714761 Z M52.6,6.38105808 L52.6,40.4765076 L70.7647059,22.5763966 C66.8949613,15.4072058 60.6124133,9.61856993 52.6,6.38105808 Z" id="Path-3"></path>
                </g>
            </g>
        </g>
    </g>
</svg>