<?xml version="1.0" encoding="UTF-8" standalone="no"?>
<svg width="96px" height="96px" viewBox="0 0 96 96" version="1.1" xmlns="http://www.w3.org/2000/svg" xmlns:xlink="http://www.w3.org/1999/xlink" xmlns:sketch="http://www.bohemiancoding.com/sketch/ns">
    <!-- Generator: Sketch 3.3.3 (12081) - http://www.bohemiancoding.com/sketch -->
    <title>searchbar_icon</title>
    <desc>Created with Sketch.</desc>
    <defs></defs>
    <g id="Page-1" stroke="none" stroke-width="1" fill="none" fill-rule="evenodd" sketch:type="MSPage">
        <g id="searchbar_icon" sketch:type="MSLayerGroup" transform="translate(18.000000, 18.000000)" fill="#AAAAAA">
            <path d="M3.35,12.4 C7.25,5.36 14.93,0.63 22.96,0.27 C31.48,-0.27 40.05,4.2 44.53,11.46 C49.92,19.74 49.24,31.19 43.22,38.97 C48.42,44.2 53.65,49.4 58.86,54.62 C57.46,56.07 56.03,57.5 54.53,58.84 C49.4,53.57 44.14,48.41 38.95,43.2 C34.16,46.84 28.05,48.71 22.04,48.11 C13.48,47.41 5.55,41.7 2.22,33.77 C-0.77,26.99 -0.35,18.82 3.35,12.4 L3.35,12.4 Z M22.25,6.34 C12.73,7.14 5.11,16.55 6.33,26.04 C7.03,35.6 16.43,43.3 25.94,42.13 C35.7,41.45 43.55,31.72 42.08,22.03 C41.15,12.55 31.71,5.05 22.25,6.34 L22.25,6.34 Z" id="Shape" sketch:type="MSShapeGroup"></path>
        </g>
    </g>
</svg>