<?xml version="1.0" encoding="UTF-8" standalone="no"?>
<svg width="96px" height="96px" viewBox="0 0 96 96" version="1.1" xmlns="http://www.w3.org/2000/svg" xmlns:xlink="http://www.w3.org/1999/xlink" xmlns:sketch="http://www.bohemiancoding.com/sketch/ns">
    <!-- Generator: Sketch 3.3.3 (12081) - http://www.bohemiancoding.com/sketch -->
    <title>share_to_friend_icon</title>
    <desc>Created with Sketch.</desc>
    <defs></defs>
    <g id="Page-1" stroke="none" stroke-width="1" fill="none" fill-rule="evenodd" sketch:type="MSPage">
        <g id="share_to_friend_icon" sketch:type="MSLayerGroup" transform="translate(1.000000, 11.000000)" fill="#3CB2EF">
            <path d="M27.39,1.59 C34.1,-0.34 42.03,2.41 45.55,8.57 C50.69,17.75 47.8,30.26 40.07,37.12 C38.37,38.32 38.73,41.26 40.63,42.07 C48.12,45.88 55.8,50.27 60.7,57.32 C63.44,60.98 63.18,65.75 62.92,70.07 C62.88,71.98 60.86,73.2 59.09,72.98 C41.02,73.01 22.93,73.01 4.86,72.98 C3.09,73.2 1.11,71.94 1.08,70.05 C0.85,65.98 0.57,61.52 2.96,57.98 C7.67,50.59 15.53,46.13 23.04,42.09 C25.09,41.02 25.02,38.06 23.18,36.81 C16.97,30.9 14.24,21.58 16.21,13.24 C17.51,7.74 21.84,2.97 27.39,1.59 L27.39,1.59 Z" id="Shape" sketch:type="MSShapeGroup"></path>
            <path d="M57.39,12.35 C61.78,5.69 72.63,5.2 77.63,11.4 C82.95,18.02 81.57,28.16 76.57,34.55 C75.23,36.15 72.17,38.3 74.42,40.47 C80.64,43.86 87.25,47.44 91.24,53.54 C93.55,56.87 93.11,61.13 92.88,64.96 C92.77,66.27 91.38,67.11 90.15,66.98 C82.44,67.05 74.73,66.97 67.02,67 C66.74,57.77 60.71,49.78 52.66,45.67 C55.44,43.69 58.58,42.3 61.36,40.34 C62.61,39.12 61.92,37.31 60.74,36.34 C54.71,30.25 52.54,19.75 57.39,12.35 L57.39,12.35 Z" id="Shape" sketch:type="MSShapeGroup"></path>
        </g>
    </g>
</svg>