<?xml version="1.0" encoding="UTF-8" standalone="no"?>
<svg width="90px" height="90px" viewBox="0 0 90 90" version="1.1" xmlns="http://www.w3.org/2000/svg" xmlns:xlink="http://www.w3.org/1999/xlink" xmlns:sketch="http://www.bohemiancoding.com/sketch/ns">
    <!-- Generator: Sketch 3.3.3 (12081) - http://www.bohemiancoding.com/sketch -->
    <title>sight_icon_keyboard</title>
    <desc>Created with Sketch.</desc>
    <defs></defs>
    <g id="Page-1" stroke="none" stroke-width="1" fill="none" fill-rule="evenodd" sketch:type="MSPage">
        <g id="#ffffffff" sketch:type="MSLayerGroup" transform="translate(16.000000, 30.000000)" fill="#FFFFFF">
            <path d="M1.77635684e-15,0 L6,0 C5.99001664,2 5.99001664,4 6,6 L1.77635684e-15,6 L1.77635684e-15,0 L1.77635684e-15,0 Z" id="Shape" sketch:type="MSShapeGroup"></path>
            <path d="M10,0 L16,0 L16,6 L10,6 C10.0099834,4 10.0099834,2 10,0 L10,0 Z" id="Shape" sketch:type="MSShapeGroup"></path>
            <path d="M21,0 L27,0 L27,6 L21,6 L21,0 L21,0 Z" id="Shape" sketch:type="MSShapeGroup"></path>
            <path d="M31,0 L37,0 L37,6 L31,6 C31.0099834,4 31.0099834,2 31,0 L31,0 Z" id="Shape" sketch:type="MSShapeGroup"></path>
            <path d="M42,0 L48,0 C47.9900166,2 47.9900166,4 48,6 L42,6 L42,0 L42,0 Z" id="Shape" sketch:type="MSShapeGroup"></path>
            <path d="M52,0 L58,0 L58,6 L52,6 C52.0099834,4 52.0099834,2 52,0 L52,0 Z" id="Shape" sketch:type="MSShapeGroup"></path>
            <path d="M1.77635684e-15,12 L6,12 C5.99001664,14 5.99001664,16 6,18 L1.77635684e-15,18 L1.77635684e-15,12 L1.77635684e-15,12 Z" id="Shape" sketch:type="MSShapeGroup"></path>
            <path d="M10,12 L16,12 L16,18 L10,18 C10.0099834,16 10.0099834,14 10,12 L10,12 Z" id="Shape" sketch:type="MSShapeGroup"></path>
            <path d="M21,12 L27,12 L27,18 L21,18 L21,12 L21,12 Z" id="Shape" sketch:type="MSShapeGroup"></path>
            <path d="M31,12 L37,12 L37,18 L31,18 L31,12 L31,12 Z" id="Shape" sketch:type="MSShapeGroup"></path>
            <path d="M42,12 L48,12 L48,18 L42,18 L42,12 L42,12 Z" id="Shape" sketch:type="MSShapeGroup"></path>
            <path d="M52,12 L58,12 L58,18 L52,18 C52.0099834,16 52.0099834,14 52,12 L52,12 Z" id="Shape" sketch:type="MSShapeGroup"></path>
            <path d="M10,24 L48,24 C47.9898721,25.9985196 47.9898721,27.9970392 48,30 C35.3299574,30.0055514 22.6700426,29.9955588 10,30 C10.0101279,27.9970392 10.0101279,25.9985196 10,24 L10,24 Z" id="Shape" sketch:type="MSShapeGroup"></path>
        </g>
    </g>
</svg>