<?xml version="1.0" encoding="UTF-8" standalone="no"?>
<svg width="40px" height="40px" viewBox="0 0 40 40" version="1.1" xmlns="http://www.w3.org/2000/svg" xmlns:xlink="http://www.w3.org/1999/xlink">
    <!-- Generator: Sketch 47.1 (45422) - http://www.bohemiancoding.com/sketch -->
    <title>questions</title>
    <desc>Created with Sketch.</desc>
    <defs></defs>
    <g id="安卓" stroke="none" stroke-width="1" fill="none" fill-rule="evenodd">
        <g id="questions">
            <g id="Group-2" transform="translate(3.000000, 2.000000)">
                <g id="Group" transform="translate(16.000000, 18.500000) scale(-1, 1) translate(-16.000000, -18.500000) " stroke="#BFBFBF" stroke-width="2.375" stroke-linecap="round" stroke-linejoin="round">
                    <path d="M26.9668519,0 L4.33749596,0 C2.00192121,0 0,2.02903226 0,4.65483871 L0,24.4677419 C0,26.9741935 1.89070337,29.1225806 4.33749596,29.1225806 L8.23012053,29.1225806 L8.23012053,36.4032258 L16.7938946,29.1225806 L26.9668519,29.1225806 C29.3024266,29.1225806 31.3043478,27.0935484 31.3043478,24.4677419 L31.3043478,4.65483871 C31.19313,2.1483871 29.3024266,0 26.9668519,0 Z" id="Shape"></path>
                </g>
                <path d="M14.5996055,19.0886501 L17.5384615,19.0886501 L17.5384615,22 L14.5996055,22 L14.5996055,19.0886501 Z M12.9625247,7.76561451 C13.7383339,7.25520228 14.6916446,7 15.8224852,7 C17.3083572,7 18.5427301,7.36265588 19.525641,8.08797851 C20.5085519,8.81330114 21,9.88783707 21,11.3116185 C21,12.1846921 20.7863269,12.9200776 20.3589744,13.5177972 C20.1091375,13.8804585 19.6291949,14.3438521 18.9191321,14.9079919 L18.2189349,15.4620551 C17.8376049,15.7642728 17.5844845,16.1168549 17.4595661,16.519812 C17.3806702,16.7750181 17.3379356,17.1712532 17.3313609,17.7085292 L14.6686391,17.7085292 C14.708087,16.5735336 14.8132799,15.7894582 14.9842209,15.3562794 C15.1551619,14.9231006 15.5956572,14.4244488 16.3057199,13.8603089 L17.025641,13.2860981 C17.2623286,13.1047674 17.4529907,12.9066498 17.5976331,12.6917394 C17.8606193,12.3223622 17.9921105,11.9160533 17.9921105,11.4728005 C17.9921105,10.9623883 17.8458266,10.4973157 17.5532544,10.0775688 C17.2606823,9.65782194 16.7264996,9.44795165 15.9506903,9.44795165 C15.1880304,9.44795165 14.6472731,9.70651185 14.3284024,10.22364 C14.0095316,10.7407682 13.8500986,11.2780362 13.8500986,11.83546 L11,11.83546 C11.0788959,9.9214142 11.7330642,8.56481259 12.9625247,7.76561451 Z" id="?" fill="#BFBFBF"></path>
            </g>
        </g>
    </g>
</svg>