<?xml version="1.0" encoding="UTF-8" standalone="no"?>
<svg width="42px" height="42px" viewBox="0 0 42 42" version="1.1" xmlns="http://www.w3.org/2000/svg" xmlns:xlink="http://www.w3.org/1999/xlink">
    <!-- Generator: Sketch 44 (41411) - http://www.bohemiancoding.com/sketch -->
    <title>search</title>
    <desc>Created with Sketch.</desc>
    <defs></defs>
    <g id="Page-1" stroke="none" stroke-width="1" fill="none" fill-rule="evenodd">
        <g id="search" stroke="#BFBFBF" stroke-width="1.5" fill="#BFBFBF" fill-rule="nonzero">
            <g id="Group" transform="translate(1.000000, 1.000000)">
                <path d="M16.8379447,33.5896739 C7.7312253,33.5896739 0.268774704,26.0543478 0.268774704,16.8586957 C0.268774704,7.66304348 7.7312253,0.127717391 16.8379447,0.127717391 C25.944664,0.127717391 33.4071146,7.66304348 33.4071146,16.8586957 C33.4071146,26.1820652 25.944664,33.5896739 16.8379447,33.5896739 Z M16.8379447,1.4048913 C8.36363636,1.4048913 1.53359684,8.30163043 1.53359684,16.8586957 C1.53359684,25.4157609 8.36363636,32.3125 16.8379447,32.3125 C25.312253,32.3125 32.1422925,25.4157609 32.1422925,16.8586957 C32.1422925,8.42934783 25.1857708,1.4048913 16.8379447,1.4048913 Z" id="Shape"></path>
                <path d="M39.3517787,40.2309783 C39.2252964,40.2309783 38.972332,40.2309783 38.8458498,40.1032609 L27.8418972,28.9918478 C27.5889328,28.736413 27.5889328,28.3532609 27.8418972,28.0978261 C28.0948617,27.8423913 28.4743083,27.8423913 28.7272727,28.0978261 L39.7312253,39.2092391 C39.9841897,39.4646739 39.9841897,39.8478261 39.7312253,40.1032609 C39.6047431,40.2309783 39.4782609,40.2309783 39.3517787,40.2309783 Z" id="Shape"></path>
            </g>
        </g>
    </g>
</svg>