<?xml version="1.0" encoding="UTF-8"?>
<svg width="60px" height="60px" viewBox="0 0 60 60" version="1.1" xmlns="http://www.w3.org/2000/svg" xmlns:xlink="http://www.w3.org/1999/xlink">
    <!-- Generator: Sketch 47.1 (45422) - http://www.bohemiancoding.com/sketch -->
    <title>spannable_app_brand_link_logo</title>
    <desc>Created with Sketch.</desc>
    <defs></defs>
    <g id="Page-1" stroke="none" stroke-width="1" fill="none" fill-rule="evenodd">
        <g id="spannable_app_brand_link_logo">
            <rect id="Rectangle" fill="#F4F4F4" fill-rule="nonzero" x="0" y="0" width="60" height="60" rx="30"></rect>
            <g id="minigame" transform="translate(11.000000, 13.000000)" fill="#FA7402">
                <path d="M24.4757423,18.70696 C23.1230387,21.0281559 19.5751855,21.6981374 16.5511275,20.2032681 C13.5270694,18.7079192 12.1717624,15.6145901 13.5239454,13.2929147 C14.8766491,10.9717188 18.4250229,10.3017373 21.449081,11.7970862 C24.473139,13.2919555 25.828446,16.3857642 24.4757423,18.70696 M25.1039323,10.6352921 C18.3855325,4.6469287 8.63892013,4.43260935 3.33473859,10.1568229 C-1.96944294,15.8805527 -0.82257955,25.375916 5.8958202,31.3642794 C12.6147132,37.3531266 22.3608323,37.5674459 27.6655072,31.8432324 C32.9691954,26.1195026 31.8228253,16.6241392 25.1039323,10.6352921" id="Fill-1"></path>
                <path d="M30.5032372,0.138840059 C33.136945,-0.566680279 35.9426317,1.48592709 36.7693206,4.72269198 C37.5960094,7.95945687 36.1304705,11.1561238 33.4967628,11.8611366 C30.8625594,12.5666569 28.0573683,10.5145571 27.2306794,7.27728468 C26.4039906,4.0405198 27.8695295,0.844867965 30.5032372,0.138840059" id="Fill-3"></path>
            </g>
        </g>
    </g>
</svg>