<?xml version="1.0" encoding="UTF-8" standalone="no"?>
<svg width="60px" height="60px" viewBox="0 0 60 60" version="1.1" xmlns="http://www.w3.org/2000/svg" xmlns:xlink="http://www.w3.org/1999/xlink" xmlns:sketch="http://www.bohemiancoding.com/sketch/ns">
    <!-- Generator: Sketch 3.4.2 (15857) - http://www.bohemiancoding.com/sketch -->
    <title>star_mark</title>
    <desc>Created with Sketch.</desc>
    <defs></defs>
    <g id="Page-1" stroke="none" stroke-width="1" fill="none" fill-rule="evenodd" sketch:type="MSPage">
        <g id="star_mark" sketch:type="MSLayerGroup" fill="#FFC000">
            <g id="Page-1" transform="translate(3.000000, 3.000000)" sketch:type="MSShapeGroup">
                <g id="star_mark">
                    <g id="Page-1">
                        <g id="star_mark">
                            <path d="M26.87,0.42 C28.24,1.13 33.5634894,13.02894 35.87,18.42 C41.7334894,18.56894 48.16,18.15 53.87,19.42 C50.37,25.09 45.03,29.01 40.87,33.42 C42.32,40.56 44.71,47.31 45.87,54.42 C43.24,54.42 31.38,45.55 27.87,42.42 C23.65,45.43 12,54.43 8.87,54.42 C10.3,47.31 12.76,40.59 14.87,33.42 C9.97,29.01 4.64,25.09 0.87,19.42 C6.83,18.15 13.348559,18.55894 18.87,18.42 C22.098559,12.01894 23.88,6.36 26.87,0.42 L26.87,0.42 L26.87,0.42 Z" id="Shape"></path>
                        </g>
                    </g>
                </g>
            </g>
        </g>
    </g>
</svg>