<?xml version="1.0" encoding="UTF-8" standalone="no"?>
<svg width="46px" height="46px" viewBox="0 0 46 46" version="1.1" xmlns="http://www.w3.org/2000/svg" xmlns:xlink="http://www.w3.org/1999/xlink" xmlns:sketch="http://www.bohemiancoding.com/sketch/ns">
    <!-- Generator: Sketch 3.3.3 (12081) - http://www.bohemiancoding.com/sketch -->
    <title>status_accountkey</title>
    <desc>Created with Sketch.</desc>
    <defs></defs>
    <g id="Page-1" stroke="none" stroke-width="1" fill="none" fill-rule="evenodd" sketch:type="MSPage">
        <g id="status_accountkey" sketch:type="MSLayerGroup">
            <g id="#45c01aff" fill="#45C01A" sketch:type="MSShapeGroup">
                <path d="M21.72,0 L24.06,0 C35.45,0.38 45.34,10.09 46,21.46 L46,24.3 C45.5,35.7 35.65,45.5 24.26,46 L21.93,46 C10.47,45.63 0.54,35.78 0,24.34 L0,21.82 C0.44,10.39 10.3,0.51 21.72,0 L21.72,0 Z M17.58,13.59 C15.96,15.34 16.17,17.82 15.82,20 L12.99,20 C13,24.34 13,28.67 13,33 L33,33 C33,28.67 33,24.34 33.01,20 L30.18,20 C29.83,17.83 30.07,15.34 28.43,13.6 C25.84,10.18 20.17,10.17 17.58,13.59 L17.58,13.59 Z" id="Shape"></path>
                <path d="M18.82,20 C18.8,17.38 19.71,13.9 22.99,14 C26.26,13.87 27.22,17.37 27.18,20 L18.82,20 L18.82,20 Z" id="Shape"></path>
            </g>
            <g id="#ffffffff" transform="translate(12.000000, 11.000000)" fill="#FFFFFF" sketch:type="MSShapeGroup">
                <path d="M5.58,2.59 C8.17,-0.83 13.84,-0.82 16.43,2.6 C18.07,4.34 17.83,6.83 18.18,9 L21.01,9 C21,13.34 21,17.67 21,22 L1,22 C1,17.67 1,13.34 0.99,9 L3.82,9 C4.17,6.82 3.96,4.34 5.58,2.59 L5.58,2.59 Z M6.82,9 L15.18,9 C15.22,6.37 14.26,2.87 10.99,3 C7.71,2.9 6.8,6.38 6.82,9 L6.82,9 Z" id="Shape"></path>
            </g>
        </g>
    </g>
</svg>