<?xml version="1.0" encoding="UTF-8" standalone="no"?>
<svg width="96px" height="96px" viewBox="0 0 96 96" version="1.1" xmlns="http://www.w3.org/2000/svg" xmlns:xlink="http://www.w3.org/1999/xlink" xmlns:sketch="http://www.bohemiancoding.com/sketch/ns">
    <!-- Generator: Sketch 3.3 (11970) - http://www.bohemiancoding.com/sketch -->
    <title>userguide_nearfriends_icon</title>
    <desc>Created with Sketch.</desc>
    <defs></defs>
    <g id="提示" stroke="none" stroke-width="1" fill="none" fill-rule="evenodd" sketch:type="MSPage">
        <g id="userguide_nearfriends_icon" sketch:type="MSArtboardGroup" fill="#3CB2EF">
            <path d="M85.0956286,39.7288136 L69.0857143,39.7288136 L69.0857143,35.4414576 C69.0857143,34.9549492 68.9896571,34.4941695 68.8338571,34.0649661 C72.4383429,32.3914237 74.9428571,28.7543051 74.9428571,24.5254237 C74.9428571,18.7118814 70.2231714,14 64.4,14 C58.5768286,14 53.8571429,18.7118814 53.8571429,24.5254237 C53.8571429,28.7554746 56.3616571,32.3925932 59.9661429,34.0649661 C59.8103429,34.4941695 59.7142857,34.9549492 59.7142857,35.4414576 L59.7142857,39.7288136 L36.2857143,39.7288136 L36.2857143,35.4414576 C36.2857143,34.9549492 36.1896571,34.4941695 36.0338571,34.0649661 C39.6383429,32.3914237 42.1428571,28.7543051 42.1428571,24.5254237 C42.1428571,18.7118814 37.4231714,14 31.6,14 C25.7768286,14 21.0571429,18.7118814 21.0571429,24.5254237 C21.0571429,28.7554746 23.5616571,32.3925932 27.1661429,34.0649661 C27.0103429,34.4941695 26.9142857,34.9549492 26.9142857,35.4414576 L26.9142857,39.7288136 L10.9043714,39.7288136 C8.74777143,39.7288136 7,41.5614068 7,43.8220339 C7,46.0838305 8.74777143,47.9152542 10.9043714,47.9152542 L26.9142857,47.9152542 L26.9142857,50.5758475 L12.7154,76.5373898 C11.6857143,78.4179322 12.2972,80.8259153 14.0801143,81.9135424 C15.8630286,83 18.1426286,82.3544407 19.1723143,80.4738983 L31.1150286,58.640661 L43.654,80.4738983 C44.5501429,82.0328305 46.3459429,82.7251695 48.0011714,82.3041525 C49.6552286,82.7251695 51.4510286,82.0328305 52.3471714,80.4738983 L64.8861429,58.640661 L76.8288571,80.4738983 C77.8585429,82.3544407 80.1369714,83 81.9222286,81.9135424 C83.7039714,80.8259153 84.3154571,78.4191017 83.2857714,76.5373898 L69.0868857,50.5781864 L69.0868857,47.9152542 L85.0968,47.9152542 C87.2534,47.9152542 89.0011714,46.0838305 89.0011714,43.8220339 C89,41.5614068 87.2522286,39.7288136 85.0956286,39.7288136 L85.0956286,39.7288136 Z M47.9988286,72.300322 L36.2130857,51.7769153 C36.2576,51.536 36.2857143,51.2892373 36.2857143,51.0342881 L36.2857143,47.9152542 L59.7142857,47.9152542 L59.7142857,51.0342881 C59.7142857,51.2892373 59.7412286,51.536 59.7869143,51.7769153 L47.9988286,72.300322 L47.9988286,72.300322 Z" id="Shape" sketch:type="MSShapeGroup"></path>
        </g>
    </g>
</svg>