<?xml version="1.0" encoding="UTF-8" standalone="no"?>
<svg width="96px" height="96px" viewBox="0 0 96 96" version="1.1" xmlns="http://www.w3.org/2000/svg" xmlns:xlink="http://www.w3.org/1999/xlink" xmlns:sketch="http://www.bohemiancoding.com/sketch/ns">
    <!-- Generator: Sketch 3.3.3 (12081) - http://www.bohemiancoding.com/sketch -->
    <title>userguide_contacts_icon</title>
    <desc>Created with Sketch.</desc>
    <defs></defs>
    <g id="Page-1" stroke="none" stroke-width="1" fill="none" fill-rule="evenodd" sketch:type="MSPage">
        <g id="#fb9530ff" sketch:type="MSLayerGroup" transform="translate(12.000000, 12.000000)" fill="#FB9530">
            <path d="M3,1 C4.82890696,-0.0699352956 6.44755602,0.0699352956 8,0 C27.3501105,0.0799260521 46.7339325,-0.0599445391 66,0 C69.6248275,-0.00999075652 72.3525509,3.41683873 72,7 C71.9329011,26.5754123 72.0328177,46.3471195 72,66 C71.9728678,69.2259519 69.1652111,72.0033822 66,72 C46.3442577,72.013373 26.6407026,71.9234562 7,72 C3.50001607,72.3930217 -0.00705688282,69.6655452 0,66 C-0.0270402045,46.3571102 0.0528930822,26.6153754 0,7 C-0.186906778,4.35596984 1.05205917,1.69842861 3,1 L3,1 Z M32,18 C26.9957002,19.4673781 26.4981046,26.3185455 28,31 C28.7770925,34.0385928 31.7427623,35.9161722 32,39 C32.1408387,42.55761 27.8217089,43.3965284 25,45 C22.4476765,47.1217259 17.5811915,48.6597431 18,53 C17.7006145,54.6620049 19.6412373,55.151374 21,55 C31.5636279,54.8717345 42.2320775,55.1114255 53,55 C54.6819194,53.6133568 54.0947566,50.497374 53,49 C48.9993777,45.9432452 44.2324118,44.3852538 40,41 C38.0124668,39.0521293 40.7990022,36.225773 42,34 C44.8593823,31.0424554 45.0584205,26.5482494 44,23 C42.8391441,17.8095154 36.7983336,15.8620261 32,18 L32,18 Z" id="Shape" sketch:type="MSShapeGroup"></path>
        </g>
    </g>
</svg>