<?xml version="1.0" encoding="UTF-8" standalone="no"?>
<svg width="96px" height="96px" viewBox="0 0 96 96" version="1.1" xmlns="http://www.w3.org/2000/svg" xmlns:xlink="http://www.w3.org/1999/xlink" xmlns:sketch="http://www.bohemiancoding.com/sketch/ns">
    <!-- Generator: Sketch 3.3 (11970) - http://www.bohemiancoding.com/sketch -->
    <title>userguide_moments_icon</title>
    <desc>Created with Sketch.</desc>
    <defs></defs>
    <g id="提示" stroke="none" stroke-width="1" fill="none" fill-rule="evenodd" sketch:type="MSPage">
        <g id="userguide_moments_icon" sketch:type="MSArtboardGroup">
            <g id="Group" sketch:type="MSLayerGroup" transform="translate(14.000000, 14.000000)">
                <path d="M44.3084845,25.2957601 C44.6106492,25.6038174 44.8972385,25.9267466 45.1713673,26.2624229 L45.1713673,1.65288719 C41.8953198,0.586371291 38.4095221,0 34.7876983,0 C30.2884545,0 25.9968841,0.898677739 22.0604352,2.51119879 L44.3209449,25.2840751 L44.3084845,25.2957601 L44.3084845,25.2957601 Z" id="Path-9" fill="#F86161" sketch:type="MSShapeGroup"></path>
                <path d="M34.4578248,20.9493339 C34.4660878,20.9493339 34.4743507,20.9483068 34.4826137,20.9483068 C34.8988609,20.9483068 35.3099438,20.9729594 35.7168951,21.0099383 L18.8170522,4.20198766 C11.8389726,7.80127013 6.26869682,13.724062 3.15149075,20.9472796 L34.4578248,20.9472796 L34.4578248,20.9493339 L34.4578248,20.9493339 Z" id="Path-2" fill="#FFC000" sketch:type="MSShapeGroup"></path>
                <path d="M48.3854862,3.15149075 L48.3854862,34.4578302 C48.3854862,34.8830226 48.3618723,35.3020229 48.3228581,35.7168951 L65.1308087,18.8216888 C61.5343118,11.8400707 55.6113342,6.26819241 48.3854862,3.15149075 L48.3854862,3.15149075 Z" id="Path-3" fill="#6C5AF1" sketch:type="MSShapeGroup"></path>
                <path d="M4.20198766,50.5179924 C7.79496557,57.4923115 13.7069541,63.0606178 20.9206271,66.1813056 L20.9206271,34.900101 L20.9473178,34.900101 C20.9473178,34.8918424 20.9462913,34.8846162 20.9462913,34.87739 C20.9462913,34.451044 20.9699023,34.0308919 21.0099383,33.6159013 L4.20198766,50.5179924 L4.20198766,50.5179924 Z" id="Path-4" fill="#B1EB4C" sketch:type="MSShapeGroup"></path>
                <path d="M25.0495919,44.0635305 C24.7379558,43.7473331 24.4419015,43.4162807 24.161429,43.0703735 L24.161429,67.6732905 C27.4471122,68.7439052 30.9426303,69.3327964 34.5752682,69.3327964 C39.0628279,69.3327964 43.3436689,68.4404406 47.2723612,66.8382323 L25.0121956,44.1017288 L25.0495919,44.0635305 L25.0495919,44.0635305 Z" id="Path-5" fill="#5AED56" sketch:type="MSShapeGroup"></path>
                <path d="M66.8307037,22.0604352 L44.0752428,44.3192127 L44.0518984,44.2963779 C43.7399327,44.6025723 43.4109892,44.8942354 43.0703735,45.1713673 L67.6742846,45.1713673 C68.7449426,41.8893783 69.3327964,38.396686 69.3327964,34.7669847 C69.3327964,30.2747493 68.4372212,25.9901033 66.8307037,22.0604352 L66.8307037,22.0604352 Z" id="Path-6" fill="#3CB2EF" sketch:type="MSShapeGroup"></path>
                <path d="M34.9001562,48.386474 C34.4669136,48.386474 34.0388286,48.3628746 33.6159013,48.3228581 L50.5133954,65.1308087 C57.4906648,61.5406116 63.0609272,55.6274061 66.1813056,48.4121256 L34.9001562,48.4121256 L34.9001562,48.386474 L34.9001562,48.386474 Z" id="Path-7" fill="#56E2EE" sketch:type="MSShapeGroup"></path>
                <path d="M25.2840751,25.0374808 C25.5953193,24.7309147 25.9235598,24.4388974 26.2624229,24.161429 L1.65288719,24.161429 C0.586371291,27.4401282 0,30.9287473 0,34.5535025 C0,39.0501527 0.895490939,43.3389614 2.50376292,47.2723612 L25.2575185,25.0115007 L25.2840751,25.0374808 L25.2840751,25.0374808 Z" id="Path-8" fill="#EED94D" sketch:type="MSShapeGroup"></path>
            </g>
        </g>
    </g>
</svg>