<?xml version="1.0" encoding="UTF-8" standalone="no"?>
<svg width="96px" height="96px" viewBox="0 0 96 96" version="1.1" xmlns="http://www.w3.org/2000/svg" xmlns:xlink="http://www.w3.org/1999/xlink" xmlns:sketch="http://www.bohemiancoding.com/sketch/ns">
    <!-- Generator: Sketch 3.3 (11970) - http://www.bohemiancoding.com/sketch -->
    <title>userguide_autoadd_icon</title>
    <desc>Created with Sketch.</desc>
    <defs></defs>
    <g id="提示" stroke="none" stroke-width="1" fill="none" fill-rule="evenodd" sketch:type="MSPage">
        <g id="userguide_autoadd_icon" sketch:type="MSArtboardGroup" fill="#3CB2EF">
            <path d="M50.8419125,59.4953621 C47.724425,57.7721552 41.1502625,55.0581552 45.4878125,48.8122931 C45.827,48.3240172 46.0406375,47.8296379 46.16315,47.3383103 C48.7723625,44.2418276 50.6880125,40.1932069 50.818625,36.430431 L50.842925,36.430431 L50.842925,31.0675345 L50.78015,31.0675345 C50.1473375,22.4667586 43.1003375,19 37.45565,19 C31.803875,19 24.748775,22.2714483 24.1281125,31.0675345 L24.06635,31.0675345 L24.06635,36.430431 L24.0916625,36.430431 C24.222275,40.1962586 26.13185,44.2438621 28.7511875,47.3433966 C28.8726875,47.8326897 29.082275,48.3250345 29.42045,48.8122931 C33.7590125,55.0581552 27.1838375,57.7721552 24.06635,59.4953621 C12.092525,66.1145517 9.04085,68.2039655 8.265275,71.0003621 C8.10125,71.2943448 8,71.6269828 8,71.9870862 L8,75.9645 C8,77.0875345 8.9072,77.9989828 10.025,77.9989828 L64.884275,77.9989828 C66.002075,77.9989828 66.909275,77.0875345 66.909275,75.9645 L66.909275,71.9870862 C66.909275,71.6269828 66.808025,71.2933276 66.644,71.0003621 C65.8674125,68.2039655 62.814725,66.1135345 50.8419125,59.4953621 L50.8419125,59.4953621 Z M88.9422875,67.3494828 C88.6567625,64.8206207 86.956775,63.5063448 76.949225,57.9756034 C74.61035,56.6826897 69.679475,54.6461724 72.93365,49.9617759 C73.186775,49.5965862 73.344725,49.2273276 73.43585,48.8601034 C75.3990875,46.5357069 76.831775,43.5002586 76.9299875,40.6763966 L76.949225,40.6763966 L76.949225,36.6532069 L76.90265,36.6532069 C76.4277875,30.2028793 71.14355,27.6028103 66.9082625,27.6028103 C62.6699375,27.6028103 57.3786125,30.0574138 56.9128625,36.6532069 L56.8673,36.6532069 L56.8673,40.6763966 L56.8865375,40.6763966 C56.98475,43.5002586 58.4174375,46.5367241 60.3816875,48.8601034 C60.4728125,49.2273276 60.62975,49.5965862 60.8838875,49.9617759 C63.809,54.1731552 60.1235,56.2412069 57.64895,57.5565 C73.08755,66.0942069 74.195225,67.3647414 74.2671125,71.8517931 L87.0205625,71.8517931 C88.1140625,71.8517931 89,70.9627241 89,69.8651207 L89,67.8072414 C88.9989875,67.6485517 88.9767125,67.4969828 88.9422875,67.3494828 L88.9422875,67.3494828 Z" id="Shape" sketch:type="MSShapeGroup"></path>
        </g>
    </g>
</svg>