<?xml version="1.0" encoding="UTF-8" standalone="no"?>
<svg width="39px" height="39px" viewBox="0 0 39 39" version="1.1" xmlns="http://www.w3.org/2000/svg" xmlns:xlink="http://www.w3.org/1999/xlink" xmlns:sketch="http://www.bohemiancoding.com/sketch/ns">
    <!-- Generator: Sketch 3.2.2 (9983) - http://www.bohemiancoding.com/sketch -->
    <title>webview_logo_qqbrowser</title>
    <desc>Created with Sketch.</desc>
    <defs></defs>
    <g id="Page-1" stroke="none" stroke-width="1" fill="none" fill-rule="evenodd" sketch:type="MSPage">
        <path d="M15.9118165,28.2100059 C12.5923906,26.9608014 10.2307692,23.7561938 10.2307692,20 C10.2307692,15.1568876 14.1568876,11.2307692 19,11.2307692 C23.8431124,11.2307692 27.7692308,15.1568876 27.7692308,20 C27.7692308,20.1948788 27.7628739,20.3882729 27.7503562,20.5799862 C30.7749058,21.1108611 33.2029785,23.3740317 33.9738652,26.3087888 C34.5411979,26.4844963 35.0773257,26.7311882 35.5718685,27.0384846 C36.4913045,24.8764385 37,22.4976254 37,20 C37,10.0588745 28.9411255,2 19,2 C9.0588745,2 1,10.0588745 1,20 C1,29.9411255 9.0588745,38 19,38 C19.099164,38 19.1981406,37.9991981 19.2969239,37.9976005 C19.3516003,37.9991965 19.4064756,38 19.4615385,38 L32.3846154,38 L32.3846154,37.9793032 C34.9722308,37.7461207 37,35.5714043 37,32.9230769 C37,30.2692758 34.9638397,28.0910453 32.3685632,27.8654296 C32.1421843,24.7582298 29.5495767,22.3076923 26.3846154,22.3076923 C23.4960965,22.3076923 21.0843137,24.3488425 20.5129476,27.0674625 C20.2169535,26.9793179 19.868599,26.9294286 19.4615385,26.9230769 C18.110815,26.9230769 16.8730251,27.4066026 15.9118165,28.2100059 Z" id="Oval-1" opacity="0.3" fill="#000000" sketch:type="MSShapeGroup"></path>
    </g>
</svg>