<?xml version="1.0" encoding="UTF-8"?>
<svg width="84px" height="67px" viewBox="0 0 84 67" version="1.1" xmlns="http://www.w3.org/2000/svg" xmlns:xlink="http://www.w3.org/1999/xlink">
    <!-- Generator: Sketch 41.2 (35397) - http://www.bohemiancoding.com/sketch -->
    <title>connectkeyboad_banner_icon_webview</title>
    <desc>Created with Sketch.</desc>
    <defs></defs>
    <g id="安卓手机登录" stroke="none" stroke-width="1" fill="none" fill-rule="evenodd">
        <g id="connectkeyboad_banner_icon_webview">
            <g id="Page-1" transform="translate(16.000000, 2.000000)"></g>
            <path d="M66.83,3.1693 C66.65,2.9883 66.452,2.8253 66.239,2.6813 C65.814,2.3943 65.331,2.1873 64.811,2.0813 C64.551,2.0283 64.282,2.0003 64.006,2.0003 L19.994,2.0003 C19.443,2.0003 18.918,2.1123 18.44,2.3143 C17.007,2.9213 16,4.3433 16,6.0003 L16,60.9993 C16,63.2163 17.788,65.0003 19.994,65.0003 L64.006,65.0003 C66.21,65.0003 68,63.2093 68,60.9993 L68,6.0003 C68,4.8923 67.553,3.8923 66.83,3.1693 Z M65,60.9993 C65,61.5513 64.554,62.0003 64.006,62.0003 L19.994,62.0003 C19.446,62.0003 19,61.5513 19,60.9993 L19,6.0003 C19,5.5093 19.329,5.1963 19.611,5.0763 C19.731,5.0253 19.86,5.0003 19.994,5.0003 L64.006,5.0003 C64.076,5.0003 64.145,5.0073 64.211,5.0203 C64.336,5.0463 64.453,5.0953 64.56,5.1673 C64.613,5.2033 64.663,5.2443 64.708,5.2903 C64.841,5.4233 65,5.6543 65,6.0003 L65,60.9993 Z M27,12 C25.3425,12 24,13.3425 24,15 C24,16.6575 25.3425,18 27,18 C28.6575,18 30,16.6575 30,15 C30,13.3425 28.6575,12 27,12 Z M24,42 L39,42 L39,45 L24,45 L24,42 Z M24,33 L39,33 L39,36 L24,36 L24,33 Z M24,24 L51,24 L51,27 L24,27 L24,24 Z" id="Combined-Shape" fill="#6E7378"></path>
        </g>
    </g>
</svg>