<?xml version="1.0" encoding="UTF-8" standalone="no"?>
<svg width="96px" height="96px" viewBox="0 0 96 96" version="1.1" xmlns="http://www.w3.org/2000/svg" xmlns:xlink="http://www.w3.org/1999/xlink" xmlns:sketch="http://www.bohemiancoding.com/sketch/ns">
    <!-- Generator: Sketch 3.3.3 (12081) - http://www.bohemiancoding.com/sketch -->
    <title>actionbar_icon</title>
    <desc>Created with Sketch.</desc>
    <defs></defs>
    <g id="Page-1" stroke="none" stroke-width="1" fill="none" fill-rule="evenodd" sketch:type="MSPage">
        <g id="actionbar_loud_icon" sketch:type="MSLayerGroup" transform="translate(13.000000, 20.000000)" fill="#CCCCCC">
            <g id="Page-1" sketch:type="MSShapeGroup">
                <g id="#cccccccc">
                    <path d="M14.9870037,13.9750446 C21.005089,9.32335116 27.0031806,4.6516934 33.0212659,0 L37,0 L37,56 C35.340528,55.7404635 33.401145,56.1397504 32.0315808,54.9618538 C26.3233969,50.6196078 20.6452035,46.2474153 14.9370196,41.9151515 C10.6483841,41.8352941 6.33975489,42.1347594 2.06111618,41.7853832 C0.22170141,41.6057041 -0.068206348,39.4994652 0.01176821,38.0320856 C0.00177139,31.314082 0.00177139,24.5960784 0.01176821,17.8780749 C-0.058209529,16.4406417 0.2117046,14.2745098 2.05111937,14.1447415 C6.34975171,13.7354724 10.6783745,14.0748663 14.9870037,13.9750446 L14.9870037,13.9750446 L14.9870037,13.9750446 Z" id="Shape"></path>
                    <path d="M52.3399412,7.68428838 C49.137049,5.60128715 52.2698779,0.393784092 55.5828696,2.48670437 C67.5336614,9.85656109 72.3580178,26.4808947 66.5327575,39.1475259 C64.2707149,44.4244624 60.2070453,48.6698172 55.5828696,51.9927002 C52.5000858,52.151405 49.9978262,49.7013988 51.3990916,46.6860066 C59.5064126,42.3712183 64.4108414,32.8390079 62.6892868,23.8027502 C61.7584463,17.2065797 57.504605,11.6816669 52.3399412,7.68428838 L52.3399412,7.68428838 L52.3399412,7.68428838 Z" id="Shape"></path>
                    <path d="M44.386759,13.4486673 C47.0414596,11.830107 48.8816498,14.9872987 50.4402808,16.6358324 C54.5128328,20.9919577 56.161965,27.556119 54.1307168,33.2110891 C52.9843688,36.6180586 50.4402808,39.3656147 47.5744108,41.4637485 C46.0258355,42.6826643 43.4817474,41.6935441 43.0594087,39.8052237 C42.8080166,38.6062901 43.4214133,37.4673032 43.6526941,36.3183252 C45.3018263,35.149365 47.1621278,34.0203692 48.0369723,32.1120666 C50.2391671,27.815888 48.3486985,22.3207758 44.4772602,19.6431574 C43.3007451,17.834766 41.9432278,14.8574143 44.386759,13.4486673 L44.386759,13.4486673 L44.386759,13.4486673 Z" id="Shape"></path>
                </g>
            </g>
        </g>
    </g>
</svg>