<?xml version="1.0" encoding="UTF-8" standalone="no"?>
<svg width="96px" height="96px" viewBox="0 0 96 96" version="1.1" xmlns="http://www.w3.org/2000/svg" xmlns:xlink="http://www.w3.org/1999/xlink" xmlns:sketch="http://www.bohemiancoding.com/sketch/ns">
    <!-- Generator: Sketch 3.3.3 (12081) - http://www.bohemiancoding.com/sketch -->
    <title>actionbar_voip_video_icon</title>
    <desc>Created with Sketch.</desc>
    <defs></defs>
    <g id="Page-1" stroke="none" stroke-width="1" fill="none" fill-rule="evenodd" sketch:type="MSPage">
        <g id="#ffffffff" sketch:type="MSLayerGroup" transform="translate(14.000000, 27.000000)" fill="#FFFFFF">
            <path d="M2.39584012,1.50919765 C3.7837738,0.710456236 5.51120204,1.13977975 7.0389276,1 C20.0495577,1.08985841 33.0601878,0.930110126 46.0608327,1.06988987 C48.0678447,0.950078661 49.2460906,3.13663329 48.9565217,4.91383295 C48.9365514,15.956433 49.0463879,27.0090174 48.906596,38.0616018 C48.9764919,40.0384868 46.8895988,41.276536 45.0822895,40.9470551 C31.3727,40.9270866 17.6631106,41.0269293 3.95352108,40.9071181 C1.95649421,41.0269293 0.738307818,38.890296 1.04784698,37.0931278 C1.00790645,26.7194736 1.06781725,16.3358352 1.01789158,5.95219679 C1.06781725,4.40463529 0.828174027,2.42775028 2.39584012,1.50919765 L2.39584012,1.50919765 Z" id="Shape" sketch:type="MSShapeGroup"></path>
            <path d="M52.0163367,14.4576613 C57.0332589,10.0221774 61.7409871,5.20362903 66.9673633,1 C68.3537493,3.06653226 67.9248673,5.61693548 67.9747373,7.95564516 C67.9448153,17.7137097 67.9747373,27.4717742 67.9747373,37.2298387 C68.0146333,38.5907258 67.6755173,39.8407258 66.9573893,41 C61.7310131,36.8366935 57.0831289,31.9979839 52.0362847,27.6129032 C51.9764407,23.2278226 52.0063627,18.8427419 52.0163367,14.4576613 L52.0163367,14.4576613 Z" id="Shape" sketch:type="MSShapeGroup"></path>
        </g>
    </g>
</svg>