<?xml version="1.0" encoding="UTF-8" standalone="no"?>
<svg width="96px" height="96px" viewBox="0 0 96 96" version="1.1" xmlns="http://www.w3.org/2000/svg" xmlns:xlink="http://www.w3.org/1999/xlink" xmlns:sketch="http://www.bohemiancoding.com/sketch/ns">
    <!-- Generator: Sketch 3.3.3 (12081) - http://www.bohemiancoding.com/sketch -->
    <title>actionbar_voip_voice_icon</title>
    <desc>Created with Sketch.</desc>
    <defs></defs>
    <g id="Page-1" stroke="none" stroke-width="1" fill="none" fill-rule="evenodd" sketch:type="MSPage">
        <g id="#ffffffff" sketch:type="MSLayerGroup" transform="translate(18.000000, 18.000000)" fill="#FFFFFF">
            <path d="M1.81129565,10.1793024 C4.15680946,5.84570949 8.31884887,2.8101974 12.401041,0.243991465 C14.2974139,-0.774502721 15.3753521,1.6519099 16.3435004,2.8101974 C18.9684797,6.8442332 22.2122754,10.4688743 24.4879228,14.7026148 C24.3481901,15.1020243 24.0687246,15.9208137 23.9190109,16.3302085 C21.0544898,18.586872 17.6809423,20.0646871 14.3672802,21.5225318 C15.724684,27.0843088 19.487487,31.6176065 23.36008,35.6616275 C27.6319094,39.9652647 32.4826316,44.0891676 38.4512157,45.7067761 C40.1379894,42.2618693 41.4454886,38.4075677 44.2401434,35.6915832 C47.5438245,35.5817456 49.819472,38.9268001 52.584184,40.4146004 C54.9696214,42.5813968 58.8022908,43.7496696 60,46.7951669 C58.4230162,50.6694389 55.3389151,53.914641 52.2348521,56.7005221 C49.480121,59.2367724 45.4278716,59.6162114 42.064305,58.128411 C24.3980946,51.348435 9.91579444,36.9896641 2.50995934,19.6153515 C1.31225016,16.6697065 0.184407349,13.194844 1.81129565,10.1793024 L1.81129565,10.1793024 Z" id="Shape" sketch:type="MSShapeGroup"></path>
        </g>
    </g>
</svg>