<?xml version="1.0" encoding="UTF-8" standalone="no"?>
<svg width="96px" height="96px" viewBox="0 0 96 96" version="1.1" xmlns="http://www.w3.org/2000/svg" xmlns:xlink="http://www.w3.org/1999/xlink" xmlns:sketch="http://www.bohemiancoding.com/sketch/ns">
    <!-- Generator: Sketch 3.3.3 (12081) - http://www.bohemiancoding.com/sketch -->
    <title>actionbar_loud_icon</title>
    <desc>Created with Sketch.</desc>
    <defs></defs>
    <g id="Page-1" stroke="none" stroke-width="1" fill="none" fill-rule="evenodd" sketch:type="MSPage">
        <g id="#cccccccc" sketch:type="MSLayerGroup" transform="translate(13.000000, 19.000000)" fill="#CCCCCC" opacity="0.8">
            <path d="M15.9870037,13.9750446 C22.005089,9.32335116 28.0031806,4.6516934 34.0212659,0 L38,0 L38,56 C36.340528,55.7404635 34.401145,56.1397504 33.0315808,54.9618538 C27.3233969,50.6196078 21.6452035,46.2474153 15.9370196,41.9151515 C11.6483841,41.8352941 7.33975489,42.1347594 3.06111618,41.7853832 C1.22170141,41.6057041 0.931793652,39.4994652 1.01176821,38.0320856 C1.00177139,31.314082 1.00177139,24.5960784 1.01176821,17.8780749 C0.941790471,16.4406417 1.2117046,14.2745098 3.05111937,14.1447415 C7.34975171,13.7354724 11.6783745,14.0748663 15.9870037,13.9750446 L15.9870037,13.9750446 Z" id="Shape" sketch:type="MSShapeGroup"></path>
            <path d="M53.3399412,7.68428838 C50.137049,5.60128715 53.2698779,0.393784092 56.5828696,2.48670437 C68.5336614,9.85656109 73.3580178,26.4808947 67.5327575,39.1475259 C65.2707149,44.4244624 61.2070453,48.6698172 56.5828696,51.9927002 C53.5000858,52.151405 50.9978262,49.7013988 52.3990916,46.6860066 C60.5064126,42.3712183 65.4108414,32.8390079 63.6892868,23.8027502 C62.7584463,17.2065797 58.504605,11.6816669 53.3399412,7.68428838 L53.3399412,7.68428838 Z" id="Shape" sketch:type="MSShapeGroup"></path>
            <path d="M45.386759,13.4486673 C48.0414596,11.830107 49.8816498,14.9872987 51.4402808,16.6358324 C55.5128328,20.9919577 57.161965,27.556119 55.1307168,33.2110891 C53.9843688,36.6180586 51.4402808,39.3656147 48.5744108,41.4637485 C47.0258355,42.6826643 44.4817474,41.6935441 44.0594087,39.8052237 C43.8080166,38.6062901 44.4214133,37.4673032 44.6526941,36.3183252 C46.3018263,35.149365 48.1621278,34.0203692 49.0369723,32.1120666 C51.2391671,27.815888 49.3486985,22.3207758 45.4772602,19.6431574 C44.3007451,17.834766 42.9432278,14.8574143 45.386759,13.4486673 L45.386759,13.4486673 Z" id="Shape" sketch:type="MSShapeGroup"></path>
        </g>
    </g>
</svg>