<?xml version="1.0" encoding="UTF-8" standalone="no"?>
<svg width="96px" height="96px" viewBox="0 0 96 96" version="1.1" xmlns="http://www.w3.org/2000/svg" xmlns:xlink="http://www.w3.org/1999/xlink">
    <!-- Generator: Sketch 41 (35326) - http://www.bohemiancoding.com/sketch -->
    <title>Mask</title>
    <desc>Created with Sketch.</desc>
    <defs>
        <rect id="path-1" x="0" y="0" width="96" height="96"></rect>
    </defs>
    <g id="Page-1" stroke="none" stroke-width="1" fill="none" fill-rule="evenodd">
        <g id="Group">
            <mask id="mask-2" fill="white">
                <use xlink:href="#path-1"></use>
            </mask>
            <g id="Mask"></g>
            <g mask="url(#mask-2)" id="120*120">
                <g transform="translate(12.000000, 17.000000)">
                    <g transform="translate(0.000000, 0.067056)">
                        <path d="M57.4653065,52.2951538 C57.3834351,52.2765272 57.3008194,52.2601358 57.2182038,52.2467246 C57.1355881,52.2325684 57.0522281,52.2206473 56.9681239,52.2117065 C54.519425,51.7549816 52.1779032,50.5792688 50.2836969,48.6823329 C50.1467484,48.545986 50.0142656,48.4066588 49.8855042,48.2650965 L49.8847599,48.2658415 C49.4984758,47.8784077 48.8717875,47.8784077 48.4855034,48.2658415 C48.1237807,48.6271981 48.1007079,49.1994082 48.4155406,49.5883322 C48.4371249,49.6151545 48.4601977,49.6412318 48.4855034,49.666564 C48.528672,49.7097778 48.575562,49.747031 48.6239405,49.780559 C48.7199533,49.8714569 48.8159661,49.963845 48.9097461,50.0577232 C50.7622724,51.9121903 51.9263347,54.1943249 52.4041659,56.585984 C52.4123531,56.7208408 52.4272388,56.8549525 52.4488231,56.9883192 C52.4718959,57.135097 52.5031559,57.2811298 52.542603,57.4256724 C52.7256972,58.0977212 53.0799771,58.7332617 53.6076754,59.2615129 C55.2242632,60.8797944 57.8448921,60.8797944 59.4607356,59.2615129 C61.0773235,57.6432314 61.0773235,55.0198571 59.4607356,53.4023206 C58.8913573,52.8316007 58.1961948,52.4635385 57.4653065,52.2951538" id="Fill-4" fill="#FFFFFF"></path>
                        <path d="M71.1649953,41.7150798 C69.5491518,40.0967983 66.9277787,40.0967983 65.3111908,41.7150798 C64.7418125,42.2857997 64.3741355,42.9809455 64.205927,43.7125994 C64.1873199,43.7945566 64.1709456,43.8772588 64.1568042,43.9599611 C64.1434071,44.0434083 64.1314985,44.1268556 64.1225671,44.2103029 C63.6663201,46.6615673 62.4918378,49.0055422 60.5968872,50.9024781 C60.460683,51.038825 60.3207574,51.1714466 60.1800874,51.3003428 L60.1808317,51.3010879 C59.7938033,51.6877767 59.7938033,52.3151216 60.1808317,52.7018104 C60.5418101,53.063912 61.1134213,53.0870091 61.5026825,52.7718465 C61.5287325,52.7502396 61.5547825,52.7271426 61.5800882,52.7018104 C61.6232568,52.6585966 61.660471,52.6124026 61.6947082,52.5639733 C61.7847667,52.4671149 61.8763138,52.3717465 61.9708381,52.2771232 C63.8233644,50.4226561 66.1023662,49.2573742 68.4922665,48.7797875 C68.6269822,48.7715917 68.7609536,48.7566904 68.8941806,48.7350836 C69.0408049,48.7119865 69.1866848,48.6799487 69.3310762,48.6404603 C70.0031659,48.4571743 70.6380413,48.1025232 71.1649953,47.5750171 C72.7815832,45.9567356 72.7815832,43.3333613 71.1649953,41.7150798" id="Fill-6" fill="#FFFFFF"></path>
                        <path d="M53.6369258,29.9987069 C52.0210823,31.6169884 52.0210823,34.2403627 53.6369258,35.8586442 C54.2063041,36.4286191 54.9014667,36.7966812 55.6323549,36.965066 C55.7142263,36.9836926 55.796842,37.000084 55.8794577,37.0142403 C55.9628176,37.0276514 56.0461776,37.0395725 56.1295375,37.0485133 C58.5789807,37.5052382 60.9197582,38.680951 62.8139645,40.5778868 C62.950913,40.7142338 63.0833958,40.854306 63.2129015,40.9951233 L63.2129015,40.9951233 C63.5999299,41.3818121 64.2258739,41.3818121 64.6129023,40.9951233 C64.9738807,40.6330217 64.9969535,40.0608116 64.6821208,39.6718876 C64.6605366,39.6450653 64.6374637,39.618988 64.6129023,39.5936558 C64.5697337,39.550442 64.5228438,39.5131888 64.4744652,39.4796608 C64.3777081,39.3887629 64.2824396,39.2963748 64.1879153,39.2024966 C62.335389,37.3480295 61.1713267,35.06664 60.6934955,32.6742358 C60.6860526,32.539379 60.6711669,32.4052673 60.6495826,32.2719006 C60.6265098,32.1251228 60.5945055,31.97909 60.5558027,31.8345474 C60.3719642,31.1624986 60.0176844,30.5269581 59.4907303,29.9987069 C57.8741425,28.3804254 55.2535137,28.3804254 53.6369258,29.9987069" id="Fill-8" fill="#FFFFFF"></path>
                        <path d="M48.9407828,45.3003332 C48.9549242,45.2168859 48.9660885,45.1334387 48.9750199,45.0499914 C49.4320111,42.598727 50.6064935,40.2547521 52.5006998,38.3578162 C52.6376483,38.2214693 52.7768296,38.0888477 52.9182438,37.9599515 L52.9174996,37.9592064 C53.3037837,37.5725176 53.3037837,36.9451727 52.9174996,36.5584839 C52.5557769,36.1963823 51.9841657,36.1732852 51.5956487,36.4884478 C51.5688545,36.5100547 51.5428045,36.5331517 51.5182431,36.5584839 C51.4750745,36.6016977 51.4371159,36.6478917 51.4036231,36.696321 C51.3128203,36.7931794 51.2212732,36.8885478 51.1267489,36.9831711 C49.2749669,38.8376382 46.9952208,40.0029201 44.6053205,40.4805068 C44.4713491,40.4887025 44.3373777,40.5036039 44.2034064,40.5252107 C44.0567821,40.5483078 43.9109022,40.5803456 43.7672551,40.619834 C43.0951654,40.80312 42.46029,41.157771 41.9325917,41.6852772 C40.3160038,43.3035587 40.3160038,45.926933 41.9325917,47.5452145 C43.5491795,49.163496 46.1698083,49.163496 47.7863962,47.5452145 C48.3557745,46.9752397 48.7241957,46.2793488 48.8924042,45.5476949 C48.9110114,45.4657377 48.9273856,45.3830355 48.9407828,45.3003332" id="Fill-10" fill="#FFFFFF"></path>
                        <path d="M53.1526937,9.70991247 C48.3527973,4.74107303 41.6333889,1.54027317 34.2322151,0.697604494 C32.9036657,0.547101335 31.5870249,0.470359625 30.3180183,0.470359625 C29.1085546,0.470359625 27.8484794,0.540395748 26.5705414,0.67972293 C19.1358748,1.48886368 12.3792521,4.6732721 7.54437431,9.6450918 C5.6360266,11.6083385 4.08121445,13.8010652 2.92236211,16.1629217 C1.34968711,19.3674469 0.55181318,22.7701594 0.55181318,26.2742007 C0.55181318,30.7863152 1.92353113,35.2350992 4.51885425,39.1407307 C5.83326223,41.1196237 7.9827584,43.6111216 9.96032465,45.3672401 L9.0671822,52.4021452 C9.0314565,52.4982586 8.99349794,52.5928819 8.97116938,52.6942107 C8.95107368,52.7851087 8.94437511,52.880477 8.93544368,52.9751003 C8.9294894,53.0466265 8.91385941,53.1166627 8.91385941,53.1904241 C8.91385941,53.2686559 8.9294894,53.3431625 8.93693226,53.4206492 C9.05452935,54.5769903 10.0183789,55.4837346 11.2047698,55.4837346 C11.6185925,55.4837346 12.0011552,55.3652693 12.3360836,55.1730424 C12.4172107,55.1268484 12.4670778,55.1015162 12.5139678,55.0687333 L14.6485783,53.9965846 L21.0099854,50.8002551 C22.8386946,51.325526 24.6532623,51.6608054 26.5660757,51.8716588 C27.8097766,52.0087508 29.0720846,52.0780418 30.3180183,52.0780418 C31.5885135,52.0780418 32.9058986,52.0013001 34.2322151,51.850797 C36.8416797,51.553516 39.35141,50.9515033 41.7338675,50.0954235 C41.4763447,50.009741 41.2232877,49.8979812 40.9784178,49.757909 C39.5203627,48.923436 38.7664017,47.3364473 38.916003,45.7651049 C37.2138224,46.3060222 35.4357246,46.6942011 33.598084,46.9035644 C32.4824002,47.0302255 31.3793693,47.0950462 30.3180183,47.0950462 C29.2752745,47.0950462 28.2191336,47.0369311 27.1778783,46.922191 C26.9612913,46.898349 26.7447042,46.864821 26.5281172,46.8357635 C25.098345,46.6450268 23.684947,46.3529613 22.3191834,45.9528613 C22.0415649,45.8641985 21.7460836,45.8187496 21.444648,45.8187496 C20.9735154,45.8187496 20.5165242,45.9439205 20.0535787,46.1838315 C19.9932916,46.2151242 19.9337487,46.2412015 19.8734616,46.2762196 L14.6485783,49.3585541 L14.4223155,49.4926658 C14.3032298,49.5619569 14.2392213,49.586544 14.181167,49.586544 C13.9891414,49.586544 13.8335858,49.4241198 13.8335858,49.2251874 L14.0352871,48.4100861 C14.0918528,48.1947623 14.1714913,47.8922659 14.2675041,47.5242037 C14.3806355,47.0920659 14.5138626,46.5839315 14.6485783,46.0720717 C14.796691,45.5058222 14.9462924,44.9351023 15.0728209,44.45081 C15.1256652,44.2623085 15.1792537,44.0358087 15.1792537,43.7817415 C15.1792537,43.079145 14.843581,42.415292 14.2838784,42.0077414 C13.9995614,41.7968879 13.7152444,41.5763486 13.4167859,41.3327123 C12.9590504,40.9594347 12.5214106,40.5712558 12.1001451,40.1711558 C10.9167314,39.0475975 9.87770897,37.8212203 9.00466222,36.5069254 C6.94969029,33.41416 5.86303364,29.9049032 5.86303364,26.357648 C5.86303364,23.6046323 6.49195479,20.9276133 7.73193423,18.4003523 C8.65856952,16.5131023 9.90599182,14.7554936 11.4407083,13.1767006 C15.4151922,9.0892732 21.0040311,6.46813403 27.1778783,5.79683033 C28.2518821,5.67985511 29.3087674,5.6202499 30.3180183,5.6202499 C31.3778807,5.6202499 32.4816559,5.6843255 33.598084,5.81173164 C39.7429041,6.51060274 45.2989944,9.14515309 49.2437069,13.2288551 C50.7717248,14.8113735 52.0124485,16.5727075 52.9323853,18.4644279 C54.152269,20.9752974 54.7707702,23.6307096 54.7707702,26.357648 C54.7707702,26.6407728 54.7529073,26.9231525 54.7395102,27.2062772 C56.3330252,26.2294968 58.4393528,26.4209786 59.8200022,27.8023293 C59.8892207,27.8723655 59.9480193,27.9483621 60.0112835,28.0221236 C60.0566849,27.4409727 60.0827349,26.8583318 60.0827349,26.2742007 C60.0827349,22.8021972 59.2975138,19.4270521 57.7501445,16.2433887 C56.5994793,13.8755717 55.05211,11.6776295 53.1526937,9.70991247 Z" id="Fill-12" fill="#FFFFFF"></path>
                    </g>
                </g>
            </g>
        </g>
    </g>
</svg>