<?xml version="1.0" encoding="UTF-8"?>
<svg width="90px" height="90px" viewBox="0 0 90 90" version="1.1" xmlns="http://www.w3.org/2000/svg" xmlns:xlink="http://www.w3.org/1999/xlink">
    <!-- Generator: Sketch 48.2 (47327) - http://www.bohemiancoding.com/sketch -->
    <title>app_attach_file_icon_number</title>
    <desc>Created with Sketch.</desc>
    <defs></defs>
    <g id="-----Android" stroke="none" stroke-width="1" fill="none" fill-rule="evenodd">
        <g id="app_attach_file_icon_number">
            <g id="Group" transform="translate(11.000000, 0.000000)">
                <path d="M46,0 L68,22 L68,87 C68,88.6568542 66.6568542,90 65,90 L3,90 C1.34314575,90 2.02906125e-16,88.6568542 0,87 L0,3 C-2.02906125e-16,1.34314575 1.34314575,3.04359188e-16 3,0 L46,0 Z" id="Combined-Shape" fill="#1DCC25"></path>
                <path d="M68,22 L49,22 C47.3431458,22 46,20.6568542 46,19 L46,0 L68,22 Z" id="Rectangle" fill="#17A31D"></path>
                <path d="M19.75,62 L24.25,62 C24.6642136,62 25,62.3357864 25,62.75 L25,65.25 C25,65.6642136 24.6642136,66 24.25,66 L19.75,66 C19.3357864,66 19,65.6642136 19,65.25 L19,62.75 C19,62.3357864 19.3357864,62 19.75,62 Z M27.75,55 L32.25,55 C32.6642136,55 33,55.3357864 33,55.75 L33,65.25 C33,65.6642136 32.6642136,66 32.25,66 L27.75,66 C27.3357864,66 27,65.6642136 27,65.25 L27,55.75 C27,55.3357864 27.3357864,55 27.75,55 Z M35.75,44 L40.25,44 C40.6642136,44 41,44.3357864 41,44.75 L41,65.25 C41,65.6642136 40.6642136,66 40.25,66 L35.75,66 C35.3357864,66 35,65.6642136 35,65.25 L35,44.75 C35,44.3357864 35.3357864,44 35.75,44 Z M19,68 L49,68 C49.5522847,68 50,68.4477153 50,69 C50,69.5522847 49.5522847,70 49,70 L19,70 C18.4477153,70 18,69.5522847 18,69 C18,68.4477153 18.4477153,68 19,68 Z M43.75,50 L48.25,50 C48.6642136,50 49,50.3357864 49,50.75 L49,65.25 C49,65.6642136 48.6642136,66 48.25,66 L43.75,66 C43.3357864,66 43,65.6642136 43,65.25 L43,50.75 C43,50.3357864 43.3357864,50 43.75,50 Z" id="Combined-Shape" fill="#FFFFFF"></path>
            </g>
        </g>
    </g>
</svg>