<?xml version="1.0" encoding="UTF-8"?>
<svg width="215px" height="64px" viewBox="0 0 215 64" version="1.1" xmlns="http://www.w3.org/2000/svg" xmlns:xlink="http://www.w3.org/1999/xlink">
    <!-- Generator: Sketch 47 (45396) - http://www.bohemiancoding.com/sketch -->
    <title>小游戏logo</title>
    <desc>Created with Sketch.</desc>
    <defs></defs>
    <g id="1:玩的开心-:-)" stroke="none" stroke-width="1" fill="none" fill-rule="evenodd">
        <g id="loading" transform="translate(-433.000000, -1775.000000)">
            <g id="Group" transform="translate(433.000000, 1775.000000)">
                <g id="小游戏logo-copy">
                    <g id="小游戏logotype" transform="translate(0.691140, 0.292830)">
                        <path d="M100.181801,48.3087741 L100.181801,13.8171825 L102.979526,13.8171825 L102.979526,48.833782 C102.979526,51.8677563 101.288231,53.3865292 97.9092066,53.3865292 L92.3146484,53.3865292 C92.0801674,52.4508008 91.8474694,51.7356115 91.615663,50.9204206 C93.5476801,50.9204206 95.2264934,50.9347065 97.2102212,50.9347065 C99.1903827,50.9347065 100.181801,50.0596933 100.181801,48.3087741 Z M145.288026,30.4500226 L146.861635,30.4500226 L147.560621,30.4500226 C147.32614,39.9046295 147.211128,45.6823952 147.211128,47.7833197 C147.093442,51.1672993 145.637519,52.8610749 142.839794,52.8610749 L140.026021,52.8610749 L139.407277,50.5869334 C140.633176,50.5869334 141.635293,50.5842548 142.66594,50.5842548 C144.178922,50.5842548 144.937642,49.5940613 144.937642,47.6083171 C145.040172,43.1457498 145.144485,38.1233526 145.248798,32.5509471 L139.693468,32.5509471 L139.693468,33.4259603 C139.693468,41.4805461 138.119859,48.3083276 134.972642,53.9110907 C134.387777,53.4432265 133.749417,52.9182186 133.04954,52.3351741 C135.962277,46.8502699 137.420874,40.60464 137.420874,33.600963 L137.420874,23.2713429 L134.09891,23.2713429 L134.09891,20.9954157 L148.60999,20.9954157 L148.60999,23.2713429 L139.693468,23.2713429 L139.693468,30.4500226 L145.288026,30.4500226 Z M125.182566,26.9483627 L126.756175,25.1974434 C129.203516,27.0653287 130.894811,28.6992819 132.621768,30.3698428 L130.951871,32.3761231 C129.203516,30.5100235 127.280414,28.6992819 125.182566,26.9483627 Z M143.364747,18.1940342 L141.092152,19.0690474 C140.393167,17.2038407 139.75035,15.5100652 139.169051,13.9912923 L141.266899,13.1162791 C141.965884,14.7529109 142.665761,16.443115 143.364747,18.1940342 Z M131.826227,20.4697828 C130.309678,18.8367225 128.619274,17.2608059 126.755908,15.7429258 L128.329516,13.9920066 C130.427364,15.8598919 132.175719,17.3786648 133.574582,18.5438609 L131.826227,20.4697828 Z M159.099408,35.0020555 L159.099408,37.1315519 L166.791814,37.1315519 L166.791814,39.4074791 L159.099408,39.4074791 L159.099408,47.433493 C159.099408,50.9353315 157.815557,52.8603606 155.253205,52.8603606 L151.791266,52.8603606 L151.060184,50.587112 C152.676588,50.5862191 153.636801,50.587112 154.553328,50.587112 C156.496044,50.587112 156.826814,48.951373 156.826814,46.7325896 L156.826814,39.4074791 L149.309154,39.4074791 L149.309154,37.1315519 L156.826814,37.1315519 L156.826814,33.9520397 L161.372002,29.0492872 L152.242397,29.0492872 L152.242397,26.5974645 L164.693966,26.5974645 L164.693966,29.0492872 L159.099408,35.0020555 Z M209.012139,19.5428938 L207.212073,21.3455996 C205.229237,19.3616411 203.306136,17.6107218 201.442769,16.0928418 L203.016378,14.5169252 C204.996539,16.153557 206.857231,17.7660813 209.012139,19.5428938 Z M109.468411,24.7178826 L111.779342,23.3812553 C115.092391,29.5679557 118.350162,36.0921613 121.553548,42.9511933 L119.038449,44.4047866 C115.960773,37.8993314 112.768086,31.3367324 109.468411,24.7178826 Z M89.9771484,23.275718 L92.45926,24.7105611 C89.9530762,31.9178126 87.0189422,38.6920219 83.6417013,45.0224745 L81,43.4947729 C84.1053141,38.1795142 87.0973997,31.4401268 89.9771484,23.275718 Z M126.537386,52.0476697 C127.94873,46.8333054 129.050702,42.8011017 130.158023,37.4894145 L132.419027,38.7974699 C131.611271,42.3698452 130.487901,47.2609904 129.043569,53.4967987 L126.537386,52.0476697 Z M153.121032,21.6956942 C152.15012,24.0055504 151.099859,26.1448684 149.978272,28.127934 L147.656642,26.7859495 C150.050489,22.8724976 152.049373,18.3385007 153.657753,13.1839587 L155.762733,14.4018342 C155.217097,16.1438247 154.641147,17.8206357 154.030426,19.419767 L166.441876,19.419767 L166.441876,21.6956942 L153.121032,21.6956942 Z M183.806314,37.409949 C185.799849,40.0689177 187.753264,42.6805642 189.639811,45.2127452 L187.204061,46.6208022 C185.655416,44.3698754 184.106771,42.1493062 182.558126,39.9448086 C180.133075,44.4886272 176.977833,48.5208308 173.080811,52.0342767 L171.618647,49.4976313 C175.4702,46.0279361 178.558574,42.0528762 180.886445,37.5724514 C178.141323,33.6938215 175.3962,29.8803712 172.651077,26.148172 L174.513553,25.0713701 C177.114242,28.5089219 179.635582,31.8536152 182.078465,35.10545 C183.982844,30.7794919 185.225683,26.0151343 185.816789,20.8204131 L172.246308,20.8204131 L172.246308,18.5444859 L185.882765,18.5444859 L187.281627,18.5444859 L188.155359,18.5444859 L188.155359,20.9954157 C187.504518,27.0258638 186.047704,32.4920177 183.806314,37.409949 Z M211.051679,43.1207494 L213.405405,44.4814842 C213.091575,46.939557 212.757239,48.2601126 212.177723,50.1565698 C211.466256,52.4860692 210.184188,53.9110907 208.435833,53.9110907 C207.037862,53.9110907 205.639,53.3262604 204.240137,52.1610643 C202.13694,50.437824 200.473283,48.077967 199.233119,45.1002435 C196.25619,47.2440259 192.951166,49.0824464 189.327854,50.6253269 L187.940581,48.2181477 C191.792134,46.7493755 195.265663,44.9011334 198.343339,42.6555638 C197.045223,38.7135401 196.162576,33.7768585 195.704312,27.8383761 L188.94359,28.6535669 L188.767952,26.3776398 L195.573253,25.5570917 C195.40653,22.0248956 195.323615,17.9980491 195.323615,13.4667308 L197.946594,13.4667308 C197.946594,17.2525022 198.040208,21.18024 198.219412,25.2329796 L212.806275,23.4463456 L212.981913,25.7222727 L198.342448,27.5151569 C198.771289,33.1063127 199.474733,37.6054877 200.449211,41.0126819 C204.023487,38.0153153 207.007549,34.4259754 209.398721,30.2437695 L211.629412,31.5330747 C208.877157,36.1751089 205.428591,40.1680263 201.289955,43.5189697 C202.276915,45.9591851 203.780091,48.1985045 205.813746,50.2342495 C206.744538,50.935153 207.56121,51.2851582 208.261087,51.2851582 C208.960072,51.2851582 209.425468,50.679792 209.834695,49.534239 C210.621054,47.3306343 210.862668,45.4520346 211.051679,43.1207494 Z" id="Combined-Shape" fill="#4D4D4D"></path>
                        <g id="小游戏symbol" fill="#F06B1F">
                            <path d="M43.8340402,32.4679897 C41.5512238,36.6132059 35.5639163,37.8086731 30.4611059,35.1401672 C25.3582955,32.4701926 23.0709587,26.9459301 25.3530217,22.8007138 C27.6358381,18.6554976 33.6231456,17.4600304 38.725956,20.1292707 C43.8295198,22.7992452 46.1168566,28.3227734 43.8340402,32.4679897 M44.4129614,16.9113538 C32.5262158,6.04825745 15.2838869,5.65996722 5.90020482,16.0429683 C-3.48422561,26.4259693 -1.45558428,43.6499518 10.4304131,54.5130482 C22.3171587,65.375392 39.5602359,65.7651872 48.943918,55.3814337 C58.3276001,44.9984326 56.2997071,27.7744501 44.4129614,16.9113538" id="oval-2"></path>
                            <path d="M55.9888883,0.236102821 C60.6560654,-0.963652462 65.626707,2.52681386 67.091318,8.03118156 C68.5559291,13.5362894 65.9595389,18.9710846 61.2923617,20.1708399 C56.6251846,21.3705952 51.6552961,17.880869 50.189932,12.3757612 C48.7253209,6.87065332 51.3217111,1.43659824 55.9888883,0.236102821" id="oval-1"></path>
                        </g>
                    </g>
                </g>
            </g>
        </g>
    </g>
</svg>