<?xml version="1.0" encoding="UTF-8"?>
<svg width="90px" height="90px" viewBox="0 0 90 90" version="1.1" xmlns="http://www.w3.org/2000/svg" xmlns:xlink="http://www.w3.org/1999/xlink">
    <!-- Generator: Sketch 48.2 (47327) - http://www.bohemiancoding.com/sketch -->
    <title>app_attach_file_icon_page</title>
    <desc>Created with Sketch.</desc>
    <defs></defs>
    <g id="-----Android" stroke="none" stroke-width="1" fill="none" fill-rule="evenodd">
        <g id="app_attach_file_icon_page">
            <g id="Group" transform="translate(11.000000, 0.000000)">
                <path d="M46,0 L68,22 L68,87 C68,88.6568542 66.6568542,90 65,90 L3,90 C1.34314575,90 2.02906125e-16,88.6568542 0,87 L0,3 C-2.02906125e-16,1.34314575 1.34314575,3.04359188e-16 3,0 L46,0 Z" id="Combined-Shape" fill="#FF9200"></path>
                <path d="M68,22 L49,22 C47.3431458,22 46,20.6568542 46,19 L46,0 L68,22 Z" id="Rectangle" fill="#CC7400"></path>
                <path d="M37.1062095,52.971057 C34.7769436,55.2130345 30.9734356,58.6249826 25.6956857,63.2069013 L24.5280186,62.0392343 C29.1099373,56.7614843 32.5218854,52.9579763 34.7638629,50.6287104 L37.1062095,52.971057 Z M38.0175319,52.0785154 L35.6564046,49.7173881 C37.8351569,47.5386357 40.3351384,45.1876967 43.1563492,42.6645709 L43.1563307,42.6645502 C43.6545135,42.2190046 44.4139602,42.2401676 44.8865578,42.7127652 L45.0221537,42.8484133 C45.494727,43.3209865 45.5158889,44.0803942 45.0703663,44.5785514 C42.547234,47.3997701 40.1962892,49.8997581 38.0175319,52.0785154 Z M24.7294654,64.0445451 C24.4119876,64.319398 24.0895158,64.5982142 23.76205,64.8809937 L21.8246297,66.2616113 C21.7113349,66.3423458 21.5540431,66.3159506 21.4733086,66.2026558 C21.4109662,66.1151708 21.4109662,65.9977753 21.4733086,65.9102903 L22.8539262,63.9728699 C23.1367058,63.6454041 23.415522,63.3229323 23.6903748,63.0054545 L24.7294654,64.0445451 Z M21.0769231,67.4461538 L47.6615385,67.4461538 C48.0693795,67.4461538 48.4,67.7767743 48.4,68.1846154 C48.4,68.5924564 48.0693795,68.9230769 47.6615385,68.9230769 L21.0769231,68.9230769 C20.669082,68.9230769 20.3384615,68.5924564 20.3384615,68.1846154 C20.3384615,67.7767743 20.669082,67.4461538 21.0769231,67.4461538 Z" id="Combined-Shape" fill="#FFFFFF"></path>
            </g>
        </g>
    </g>
</svg>