<?xml version="1.0" encoding="UTF-8"?>
<svg width="90px" height="90px" viewBox="0 0 90 90" version="1.1" xmlns="http://www.w3.org/2000/svg" xmlns:xlink="http://www.w3.org/1999/xlink">
    <!-- Generator: Sketch 48.2 (47327) - http://www.bohemiancoding.com/sketch -->
    <title>app_attach_file_icon_location</title>
    <desc>Created with Sketch.</desc>
    <defs></defs>
    <g id="-----Android" stroke="none" stroke-width="1" fill="none" fill-rule="evenodd">
        <g id="app_attach_file_icon_location">
            <rect id="bg" fill="#F2F2F2" x="0" y="0" width="90" height="90"></rect>
            <g id="Group" opacity="0.600000024" transform="translate(30.000000, 24.000000)" fill="#000000" fill-rule="nonzero">
                <path d="M29.25,16.5964912 C29.25,9.49669102 23.53672,3.75 16.5,3.75 C9.46328002,3.75 3.75,9.49669102 3.75,16.5964912 C3.75,23.0314299 7.89781451,30.2460172 16.4999998,38.1461169 C25.1021881,30.2460128 29.25,23.0314279 29.25,16.5964912 Z M17.8254956,41.999668 C17.0687393,42.6694194 15.9312659,42.6694194 15.1745073,41.9996706 C5.0581691,33.0464177 0,24.5786913 0,16.5964912 C4.35874773e-16,7.43050222 7.38730163,0 16.5,0 C25.6126984,0 33,7.43050222 33,16.5964912 C33,24.5786905 27.9418319,33.0464161 17.8254956,41.999668 Z" id="Combined-Shape"></path>
                <path d="M16.5,19.6140351 C18.1568542,19.6140351 19.5,18.2630347 19.5,16.5964912 C19.5,14.9299478 18.1568542,13.5789474 16.5,13.5789474 C14.8431458,13.5789474 13.5,14.9299478 13.5,16.5964912 C13.5,18.2630347 14.8431458,19.6140351 16.5,19.6140351 Z M16.5,23.3640351 C12.7671674,23.3640351 9.75,20.3292235 9.75,16.5964912 C9.75,12.863759 12.7671674,9.82894737 16.5,9.82894737 C20.2328326,9.82894737 23.25,12.863759 23.25,16.5964912 C23.25,20.3292235 20.2328326,23.3640351 16.5,23.3640351 Z" id="Oval-8"></path>
            </g>
        </g>
    </g>
</svg>