<?xml version="1.0" encoding="UTF-8"?>
<svg width="130px" height="96px" viewBox="0 0 130 96" version="1.1" xmlns="http://www.w3.org/2000/svg" xmlns:xlink="http://www.w3.org/1999/xlink">
    <!-- Generator: Sketch 47.1 (45422) - http://www.bohemiancoding.com/sketch -->
    <title>Wechatsystem voice @3x light</title>
    <desc>Created with Sketch.</desc>
    <defs></defs>
    <g id="Titlebar替换" stroke="none" stroke-width="1" fill="none" fill-rule="evenodd">
        <g id="Slice" transform="translate(-238.000000, -292.000000)" fill="#000000">
            <g id="Wechatsystem-Voice-@3x-Copy" transform="translate(238.000000, 292.000000)">
                <path d="M61,44 L61,50 C61,58.2292902 67.9395864,65 77,65 C85.0604136,65 92,58.2292902 92,50 L92,44 L94.9967579,44 C95.5620117,44 96,44.4503689 96,45.0059271 L96,50.25 C96,60.0175306 88.3659013,67.9131369 79,68.896765 L79,72 L91.0036849,72 C91.5617743,72 92,72.4519098 92,73.0093689 L92,74.9906311 C92,75.5566468 91.5539345,76 91.0036849,76 L61.9963151,76 C61.4382257,76 61,75.5480902 61,74.9906311 L61,73.0093689 C61,72.4433532 61.4460655,72 61.9963151,72 L74,72 L74,68.7967778 C64.2081799,67.4648076 57,59.7411471 57,50.25 L57,44.9975052 C57,44.4474688 57.4491668,44 58.0032421,44 L61,44 Z M76.5,21 C82.3002649,21 87,25.7052765 87,31.5095291 L87,50.4904709 C87,56.2938678 82.2989899,61 76.5,61 C70.6997351,61 66,56.2947235 66,50.4904709 L66,31.5095291 C66,25.7061322 70.7010101,21 76.5,21 Z" id="Path-2"></path>
            </g>
        </g>
    </g>
</svg>