<?xml version="1.0" encoding="UTF-8" standalone="no"?>
<svg width="40px" height="40px" viewBox="0 0 40 40" version="1.1" xmlns="http://www.w3.org/2000/svg" xmlns:xlink="http://www.w3.org/1999/xlink">
    <!-- Generator: Sketch 39.1 (31720) - http://www.bohemiancoding.com/sketch -->
    <title>avatar-default</title>
    <desc>Created with Sketch.</desc>
    <defs></defs>
    <g id="尝试版" stroke="none" stroke-width="1" fill="none" fill-rule="evenodd">
        <g id="SLICE" transform="translate(-637.000000, -1392.000000)">
            <g id="Avatar-/--Default-" transform="translate(637.000000, 1392.000000)">
                <rect id="Rectangle-14" fill="#F1F1F1" x="0" y="0" width="40" height="40"></rect>
                <path d="M16.955261,20.4349627 C18.2405293,22.4766748 16.1066374,23.4011209 15.2154101,23.9146645 C11.3812622,26.0959421 9.70588235,26.9128945 9.70588235,27.9743165 L9.70588235,29.4241922 C9.70588235,29.8903151 10.0545234,30.2941176 10.5758078,30.2941176 L29.4241922,30.2941176 C29.9454766,30.2941176 30.2941176,29.8903151 30.2941176,29.4241922 L30.2941176,27.9743165 C30.2941176,26.9128945 28.6187378,26.0959421 24.7845899,23.9146645 C23.8933626,23.4011209 21.7594707,22.4766748 23.044739,20.4349627 C24.1861475,18.7399433 25.076778,18.0494908 25.074565,15.2154101 C25.076778,12.524936 23.0871305,9.70588235 20.1449876,9.70588235 C16.9128695,9.70588235 14.923222,12.524936 14.925435,15.2154101 C14.923222,18.0494908 15.8138525,18.7399433 16.955261,20.4349627 Z" id="Fill-24" fill="#C9C9C9"></path>
            </g>
        </g>
    </g>
</svg>