<?xml version="1.0" encoding="UTF-8"?>
<svg width="90px" height="90px" viewBox="0 0 90 90" version="1.1" xmlns="http://www.w3.org/2000/svg" xmlns:xlink="http://www.w3.org/1999/xlink">
    <!-- Generator: Sketch 48.2 (47327) - http://www.bohemiancoding.com/sketch -->
    <title>app_attach_file_icon_rar</title>
    <desc>Created with Sketch.</desc>
    <defs></defs>
    <g id="-----Android" stroke="none" stroke-width="1" fill="none" fill-rule="evenodd">
        <g id="app_attach_file_icon_rar">
            <g id="Group" transform="translate(11.000000, 0.000000)">
                <path d="M46,0 L68,22 L68,87 C68,88.6568542 66.6568542,90 65,90 L3,90 C1.34314575,90 2.02906125e-16,88.6568542 0,87 L0,3 C-2.02906125e-16,1.34314575 1.34314575,3.04359188e-16 3,0 L46,0 Z" id="Combined-Shape" fill="#8B572A"></path>
                <path d="M68,22 L49,22 C47.3431458,22 46,20.6568542 46,19 L46,0 L68,22 Z" id="Rectangle" fill="#6F4521"></path>
                <path d="M32.7142857,22.6744186 L32.7142857,15.1162791 L29.5,15.1162791 C28.6715729,15.1162791 28,14.4447062 28,13.6162791 L28,9.05813953 C28,8.22971241 28.6715729,7.55813953 29.5,7.55813953 L32.7142857,7.55813953 L32.7142857,0 L37.5,2.22044605e-16 C38.3284271,-6.65926084e-16 39,0.671572875 39,1.5 L39,6.05813953 C39,6.88656666 38.3284271,7.55813953 37.5,7.55813953 L34.2857143,7.55813953 L34.2857143,15.1162791 L37.5,15.1162791 C38.3284271,15.1162791 39,15.7878519 39,16.6162791 L39,21.1744186 C39,22.0028457 38.3284271,22.6744186 37.5,22.6744186 L34.2857143,22.6744186 L34.2857143,30.2325581 L37.5,30.2325581 C38.3284271,30.2325581 39,30.904131 39,31.7325581 L39,36.2906977 C39,37.1191248 38.3284271,37.7906977 37.5,37.7906977 L32.7142857,37.7906977 L32.7142857,30.2325581 L29.5,30.2325581 C28.6715729,30.2325581 28,29.5609853 28,28.7325581 L28,24.1744186 C28,23.3459915 28.6715729,22.6744186 29.5,22.6744186 L32.7142857,22.6744186 Z M29.5,42.3255814 L37.5,42.3255814 C38.3284271,42.3255814 39,42.9971543 39,43.8255814 L39,63.5 C39,64.3284271 38.3284271,65 37.5,65 L29.5,65 C28.6715729,65 28,64.3284271 28,63.5 L28,43.8255814 C28,42.9971543 28.6715729,42.3255814 29.5,42.3255814 Z M30.3571429,54.4186047 L30.3571429,62.7325581 L36.6428571,62.7325581 L36.6428571,54.4186047 L30.3571429,54.4186047 Z" id="Combined-Shape" fill="#FFFFFF"></path>
            </g>
        </g>
    </g>
</svg>