<?xml version="1.0" encoding="UTF-8"?>
<svg width="26px" height="24px" viewBox="0 0 26 24" version="1.1" xmlns="http://www.w3.org/2000/svg" xmlns:xlink="http://www.w3.org/1999/xlink">
    <!-- Generator: Sketch 50.2 (55047) - http://www.bohemiancoding.com/sketch -->
    <title>WADMOff@3x</title>
    <desc>Created with Sketch.</desc>
    <defs></defs>
    <g id="=slice=" stroke="none" stroke-width="1" fill="none" fill-rule="evenodd">
        <g id="iPhone-X-Copy-2" transform="translate(-510.000000, -60.000000)">
            <g id="WADM" transform="translate(510.000000, 60.000000)">
                <rect id="Rectangle-6" stroke="#979797" fill="#D8D8D8" opacity="0" x="0.5" y="0.5" width="23" height="23"></rect>
                <rect id="Rectangle-5-Copy" fill="#FFFFFF" x="12" y="11" width="14" height="8" rx="4"></rect>
                <circle id="Oval-2" fill="#000000" opacity="0.300000012" cx="16" cy="15" r="4"></circle>
                <path d="M4.44,13.1000003 C4.47000015,14.0700051 4.4350005,14.884997 4.335,15.5450003 C4.2349995,16.2050036 4.085001,16.7399982 3.885,17.1500003 C3.684999,17.5600023 3.44250142,17.8549994 3.1575,18.0350003 C2.87249858,18.2150012 2.5600017,18.3050003 2.22,18.3050003 C1.8399981,18.3050003 1.3900026,18.1600017 0.87,17.8700003 C0.51999825,17.6899994 0.28000065,17.4875014 0.15,17.2625003 C0.01999935,17.0374992 0.0449991,16.750002 0.225,16.4000003 C0.33500055,16.1999993 0.507498825,16.0750005 0.7425,16.0250003 C0.977501175,15.975 1.2149988,16.0449993 1.455,16.2350003 C1.6350009,16.385001 1.7949993,16.485 1.935,16.5350003 C2.0750007,16.5850005 2.19749947,16.5975004 2.3025,16.5725003 C2.40750052,16.5475002 2.49749962,16.4900007 2.5725,16.4000003 C2.64750037,16.3099998 2.70999975,16.2000009 2.76,16.0700003 C2.83000035,15.8499992 2.88749977,15.5625021 2.9325,15.2075003 C2.97750022,14.8524985 3,14.3450036 3,13.6850003 C3,13.424999 2.9800002,13.2625006 2.94,13.1975003 C2.8999998,13.1325 2.8100007,13.1000003 2.67,13.1000003 L1.32,13.1000003 C1.06999875,13.1000003 0.8550009,13.0875004 0.675,13.0625003 C0.4949991,13.0375002 0.352500525,12.9700008 0.2475,12.8600003 C0.142499475,12.7499997 0.072500175,12.5900013 0.0375,12.3800003 C0.002499825,12.1699992 0.00999975,11.8750022 0.06,11.4950003 L0.255,9.48500029 C0.2950002,9.18499879 0.337499775,8.93750126 0.3825,8.74250029 C0.427500225,8.54749931 0.492499575,8.39250086 0.5775,8.27750029 C0.662500425,8.16249971 0.77999925,8.08250051 0.93,8.03750029 C1.08000075,7.99250006 1.2849987,7.97000029 1.545,7.97000029 L2.61,7.97000029 C2.7300006,7.97000029 2.81249977,7.94250056 2.8575,7.88750029 C2.90250022,7.83250001 2.925,7.70500129 2.925,7.50500029 L2.925,6.84500029 C2.925,6.67499944 2.90750017,6.55500064 2.8725,6.48500029 C2.83749983,6.41499994 2.7500007,6.38000029 2.61,6.38000029 L0.765,6.38000029 C0.49499865,6.38000029 0.3000006,6.31500094 0.18,6.18500029 C0.0599994,6.05499964 0,5.84000179 0,5.54000029 C0,5.22999874 0.0599994,5.01750086 0.18,4.90250029 C0.3000006,4.78749971 0.49499865,4.73000029 0.765,4.73000029 L3.075,4.73000029 C3.5550024,4.73000029 3.88999905,4.86749891 4.08,5.14250029 C4.27000095,5.41750166 4.365,5.82499759 4.365,6.36500029 L4.365,8.16500029 C4.365,8.73500314 4.26250103,9.12749921 4.0575,9.34250029 C3.85249898,9.55750136 3.52500225,9.66500029 3.075,9.66500029 L2.025,9.66500029 C1.87499925,9.66500029 1.7800002,9.68500009 1.74,9.72500029 C1.6999998,9.76500049 1.67500005,9.85499959 1.665,9.99500029 L1.545,11.0900003 C1.5249999,11.240001 1.53999975,11.3325001 1.59,11.3675003 C1.64000025,11.4025005 1.7449992,11.4200003 1.905,11.4200003 L3.09,11.4200003 C3.3300012,11.4200003 3.53499915,11.4425001 3.705,11.4875003 C3.87500085,11.5325005 4.01249947,11.6149997 4.1175,11.7350003 C4.22250052,11.8550009 4.29999975,12.0249992 4.35,12.2450003 C4.40000025,12.4650014 4.42999995,12.7499985 4.44,13.1000003 Z M10.1034088,16.1150003 L10.05,16.1150003 L10.05,17.6600003 C10.05,18.000002 9.99500055,18.2349996 9.885,18.3650003 C9.77499945,18.4950009 9.5500017,18.5600003 9.21,18.5600003 C8.93999865,18.5600003 8.74250062,18.4950009 8.6175,18.3650003 C8.49249937,18.2349996 8.43,18.000002 8.43,17.6600003 L8.43,16.1150003 L5.145,16.1150003 C5.0249994,16.1150003 4.92750037,16.0900005 4.8525,16.0400003 C4.77749962,15.99 4.72250017,15.9050009 4.6875,15.7850003 C4.65249983,15.6649997 4.635,15.4900014 4.635,15.2600003 C4.64500005,14.9499987 4.72499925,14.7475008 4.875,14.6525003 C5.02500075,14.5574998 5.2599984,14.5100003 5.58,14.5100003 L8.43,14.5100003 L8.43,13.4750003 L6.57,13.4750003 C5.99999715,13.4750003 5.61250102,13.3550015 5.4075,13.1150003 C5.20249897,12.8749991 5.1,12.4700031 5.1,11.9000003 L5.1,7.41500029 C5.1,6.84499744 5.21749883,6.44000149 5.4525,6.20000029 C5.68750117,5.95999909 6.0649974,5.83000039 6.585,5.81000029 C6.55499985,5.76000004 6.52250018,5.71000054 6.4875,5.66000029 C6.45249982,5.61000004 6.42000015,5.56000054 6.39,5.51000029 C6.21999915,5.23999894 6.1449999,5.00500129 6.165,4.80500029 C6.1850001,4.60499929 6.3249987,4.41000124 6.585,4.22000029 C6.81500115,4.04999944 7.0499988,3.98000014 7.29,4.01000029 C7.5300012,4.04000044 7.7399991,4.21999864 7.92,4.55000029 C8.03000055,4.75000129 8.13249953,4.95249926 8.2275,5.15750029 C8.32250047,5.36250131 8.4199995,5.57999914 8.52,5.81000029 L9.93,5.81000029 C10.0600007,5.59999924 10.1749995,5.40250121 10.275,5.21750029 C10.3750005,5.03249936 10.4799994,4.83000139 10.59,4.61000029 C10.7500008,4.28999869 10.932499,4.09750061 11.1375,4.03250029 C11.342501,3.96749996 11.5649988,3.99999964 11.805,4.13000029 C12.0550012,4.27000099 12.2124997,4.43499934 12.2775,4.62500029 C12.3425003,4.81500124 12.2900009,5.06499874 12.12,5.37500029 C12.0799998,5.44500064 12.0425002,5.51499994 12.0075,5.58500029 C11.9724998,5.65500064 11.9300002,5.72999989 11.88,5.81000029 L11.94,5.81000029 C12.5100028,5.81000029 12.897499,5.93249906 13.1025,6.17750029 C13.307501,6.42250151 13.41,6.83499739 13.41,7.41500029 L13.41,9.58625971 C12.7946311,9.88119231 12.2373549,10.2779554 11.76,10.7547203 L11.76,10.3400003 L10.05,10.3400003 L10.05,11.8550003 L10.8893192,11.8550003 C10.583056,12.3516252 10.3471556,12.8962587 10.1955185,13.4750003 L10.05,13.4750003 L10.05,14.2218357 C10.0170126,14.4765585 10,14.7362925 10,15 C10,15.3810044 10.0355128,15.7537143 10.1034088,16.1150003 Z M11.76,7.53500029 C11.76,7.44499984 11.7100005,7.40000029 11.61,7.40000029 L10.05,7.40000029 L10.05,8.93000029 L11.76,8.93000029 L11.76,7.53500029 Z M6.735,8.93000029 L8.43,8.93000029 L8.43,7.40000029 L6.915,7.40000029 C6.8349996,7.40000029 6.7850001,7.41250016 6.765,7.43750029 C6.7449999,7.46250041 6.735,7.50999994 6.735,7.58000029 L6.735,8.93000029 Z M6.735,11.6900003 C6.735,11.7600006 6.7449999,11.8050002 6.765,11.8250003 C6.7850001,11.8450004 6.8349996,11.8550003 6.915,11.8550003 L8.43,11.8550003 L8.43,10.3400003 L6.735,10.3400003 L6.735,11.6900003 Z" id="弹-copy" fill="#FFFFFF"></path>
            </g>
        </g>
    </g>
</svg>