<?xml version="1.0" encoding="UTF-8"?>
<svg width="96px" height="96px" viewBox="0 0 96 96" version="1.1" xmlns="http://www.w3.org/2000/svg" xmlns:xlink="http://www.w3.org/1999/xlink">
    <!-- Generator: Sketch 41.2 (35397) - http://www.bohemiancoding.com/sketch -->
    <title>app_brand_banner_icon</title>
    <desc>Created with Sketch.</desc>
    <defs></defs>
    <g id="安卓手机登录" stroke="none" stroke-width="1" fill="none" fill-rule="evenodd">
        <g id="app_brand_banner_icon" fill="#6F7378">
            <g transform="translate(15.000000, 15.000000)" id="connectkeyboad_banner_icon_miniprogram">
                <g>
                    <g id="安卓手机登录">
                        <g id="connectkeyboad_banner_icon_miniprogram">
                            <g id="Group">
                                <path d="M33,66 C51.2253967,66 66,51.2253967 66,33 C66,14.7746033 51.2253967,0 33,0 C14.7746033,0 0,14.7746033 0,33 C0,51.2253967 14.7746033,66 33,66 Z M33,63 C49.5685425,63 63,49.5685425 63,33 C63,16.4314575 49.5685425,3 33,3 C16.4314575,3 3,16.4314575 3,33 C3,49.5685425 16.4314575,63 33,63 Z" id="Combined-Shape"></path>
                                <path d="M25.401,47.627 C20.217,47.627 16,44.08 16,39.72 C16,35.36 20.217,31.814 25.401,31.814 C26.23,31.814 26.901,32.485 26.901,33.314 C26.901,34.142 26.23,34.814 25.401,34.814 C21.871,34.814 19,37.015 19,39.72 C19,42.426 21.871,44.627 25.401,44.627 C28.931,44.627 31.802,42.426 31.802,39.72 L31.802,26.907 C31.802,22.547 36.02,19 41.204,19 C46.388,19 50.605,22.547 50.605,26.907 C50.605,31.267 46.388,34.814 41.204,34.814 C40.375,34.814 39.704,34.142 39.704,33.314 C39.704,32.485 40.375,31.814 41.204,31.814 C44.734,31.814 47.605,29.612 47.605,26.907 C47.605,24.201 44.734,22 41.204,22 C37.674,22 34.802,24.201 34.802,26.907 L34.802,39.72 C34.802,44.08 30.585,47.627 25.401,47.627" id="Fill-1"></path>
                            </g>
                        </g>
                    </g>
                </g>
            </g>
        </g>
    </g>
</svg>