<?xml version="1.0" encoding="UTF-8"?>
<svg width="22px" height="27px" viewBox="0 0 22 27" version="1.1" xmlns="http://www.w3.org/2000/svg" xmlns:xlink="http://www.w3.org/1999/xlink">
    <!-- Generator: Sketch 52.5 (67469) - http://www.bohemiancoding.com/sketch -->
    <title>Artboard@3x</title>
    <desc>Created with Sketch.</desc>
    <defs>
        <polygon id="path-1" points="0.181954807 0.122477294 11.0174837 0.122477294 11.0174837 8.71497585 0.181954807 8.71497585"></polygon>
        <polygon id="path-3" points="3.73364176e-06 0.0788599034 21.9018228 0.0788599034 21.9018228 20.519113 3.73364176e-06 20.519113"></polygon>
    </defs>
    <g id="Artboard" stroke="none" stroke-width="1" fill="none" fill-rule="evenodd">
        <g id="附件-copy">
            <path d="M14.830475,11.2640638 C14.830475,13.443658 13.0719557,15.2106725 10.9028404,15.2106725 C8.733725,15.2106725 6.97520577,13.443658 6.97520577,11.2640638 C6.97520577,9.08446957 8.733725,7.31745508 10.9028404,7.31745508 C13.0719557,7.31745508 14.830475,9.08446957 14.830475,11.2640638" id="Fill-1" fill="#D8D8D8"></path>
            <g id="Group-5" transform="translate(6.134616, 17.988773)">
                <g id="Fill-3-Clipped">
                    <mask id="mask-2" fill="white">
                        <use xlink:href="#path-1"></use>
                    </mask>
                    <g id="path-1"></g>
                    <path d="M4.43192116,8.57504734 L0.321094231,4.44393623 C0.135575,4.25730821 0.135575,3.95483479 0.321094231,3.76841932 L2.14751731,1.93317294 C2.33324807,1.74654492 2.63426731,1.74675749 2.81978654,1.93317294 L4.43192116,3.55352077 C4.61765193,3.74014879 4.91867116,3.74014879 5.10419039,3.55373334 L8.37965193,0.26244831 C8.56517116,0.0758202899 8.86619039,0.0758202899 9.05192116,0.26244831 L10.8783442,2.09769469 C11.0638635,2.28411014 11.0638635,2.58658357 10.8783442,2.7732116 L5.10419039,8.57504734 C4.91867116,8.76167537 4.61765193,8.76167537 4.43192116,8.57504734" id="Fill-3" fill="#D8D8D8" mask="url(#mask-2)"></path>
                </g>
            </g>
            <g id="Group-8" transform="translate(0.000000, 0.133700)">
                <g id="Fill-6-Clipped">
                    <mask id="mask-4" fill="white">
                        <use xlink:href="#path-3"></use>
                    </mask>
                    <g id="path-3"></g>
                    <path d="M4.54522116,20.379142 L3.32802884,19.1560696 C-1.02289423,14.7841276 -1.16927885,7.4824657 3.25272116,3.18279421 C7.55224039,-0.997843478 14.4365481,-0.955969082 18.6840289,3.31203092 C22.8583173,7.50627247 22.9712789,14.2603787 19.0229134,18.592997 C18.8420481,18.791741 18.5274904,18.7915285 18.3381634,18.601287 L16.5108943,16.7651903 C16.3293943,16.5828135 16.330875,16.2943691 16.5011634,16.1013642 C17.7120096,14.7284367 18.3734904,12.9807652 18.3734904,11.130427 C18.3734904,8.83498744 17.3553557,6.69769275 15.5335866,5.23761545 C12.8775096,3.10903574 9.00381731,3.0884174 6.32870193,5.19297778 C4.36583654,6.73722898 3.31681731,9.0594512 3.44268269,11.5281275 C3.540625,13.4490357 4.43183654,15.2436831 5.78547116,16.603857 L7.04391346,17.8683787 C7.22943269,18.0550067 7.22943269,18.3574802 7.04391346,18.5438956 L5.21749039,20.379142 C5.03175961,20.56577 4.73095193,20.56577 4.54522116,20.379142" id="Fill-6" fill="#D8D8D8" mask="url(#mask-4)"></path>
                </g>
            </g>
        </g>
    </g>
</svg>