<?xml version="1.0" encoding="UTF-8" standalone="no"?>
<svg width="56px" height="18px" viewBox="0 0 56 18" version="1.1" xmlns="http://www.w3.org/2000/svg" xmlns:xlink="http://www.w3.org/1999/xlink">
    <!-- Generator: Sketch 44 (41411) - http://www.bohemiancoding.com/sketch -->
    <title>Menuwhite@3x</title>
    <desc>Created with Sketch.</desc>
    <defs></defs>
    <g id="=-Slice-=" stroke="none" stroke-width="1" fill="none" fill-rule="evenodd">
        <g id="Artboard" transform="translate(-507.000000, -423.000000)" fill="#FFFFFF">
            <path d="M535,404 C537.755805,404 540,406.238576 540,409 C540,411.755805 537.761424,414 535,414 C532.244195,414 530,411.761424 530,409 C530,406.244195 532.238576,404 535,404 Z M535,423 C539.971656,423 544,427.029437 544,432 C544,436.971656 539.970563,441 535,441 C530.028344,441 526,436.970563 526,432 C526,427.028344 530.029437,423 535,423 Z M535,450 C537.755805,450 540,452.238576 540,455 C540,457.755805 537.761424,460 535,460 C532.244195,460 530,457.761424 530,455 C530,452.244195 532.238576,450 535,450 Z" id="Menuwhite@3x" transform="translate(535.000000, 432.000000) rotate(90.000000) translate(-535.000000, -432.000000) "></path>
        </g>
    </g>
</svg>