<?xml version="1.0" encoding="UTF-8"?>
<svg width="90px" height="90px" viewBox="0 0 90 90" version="1.1" xmlns="http://www.w3.org/2000/svg" xmlns:xlink="http://www.w3.org/1999/xlink">
    <!-- Generator: Sketch 48.2 (47327) - http://www.bohemiancoding.com/sketch -->
    <title>app_attach_file_icon_video</title>
    <desc>Created with Sketch.</desc>
    <defs></defs>
    <g id="-----Android" stroke="none" stroke-width="1" fill="none" fill-rule="evenodd">
        <g id="app_attach_file_icon_video">
            <g id="Group" transform="translate(11.000000, 0.000000)">
                <path d="M46,0 L68,22 L68,87 C68,88.6568542 66.6568542,90 65,90 L3,90 C1.34314575,90 2.02906125e-16,88.6568542 0,87 L0,3 C-2.02906125e-16,1.34314575 1.34314575,3.04359188e-16 3,0 L46,0 Z" id="Combined-Shape" fill="#404040"></path>
                <path d="M68,22 L49,22 C47.3431458,22 46,20.6568542 46,19 L46,0 L68,22 Z" id="Rectangle" fill="#333333"></path>
                <path d="M14.5,42.2 C14.5,41.5372583 15.0372583,41 15.7,41 L52.3,41 C52.9627417,41 53.5,41.5372583 53.5,42.2 L53.5,69.8 C53.5,70.4627417 52.9627417,71 52.3,71 L15.7,71 C15.0372583,71 14.5,70.4627417 14.5,69.8 L14.5,42.2 Z M38.3139434,56.6240377 C38.3963326,56.5691116 38.4670298,56.4984144 38.521956,56.4160251 C38.7517203,56.0713786 38.6585899,55.6057266 38.3139434,55.3759623 L31.4160251,50.7773501 C31.2928245,50.6952163 31.1480687,50.6513878 31,50.6513878 C30.5857864,50.6513878 30.25,50.9871743 30.25,51.4013878 L30.25,60.5986122 C30.25,60.7466809 30.2938285,60.8914367 30.3759623,61.0146373 C30.6057266,61.3592838 31.0713786,61.4524142 31.4160251,61.2226499 L38.3139434,56.6240377 Z M17.5,45.5 L17.5,48.5 L22,48.5 L22,45.5 L17.5,45.5 Z M46,45.5 L46,48.5 L50.5,48.5 L50.5,45.5 L46,45.5 Z M17.5,51.5 L17.5,54.5 L22,54.5 L22,51.5 L17.5,51.5 Z M46,51.5 L46,54.5 L50.5,54.5 L50.5,51.5 L46,51.5 Z M17.5,57.5 L17.5,60.5 L22,60.5 L22,57.5 L17.5,57.5 Z M46,57.5 L46,60.5 L50.5,60.5 L50.5,57.5 L46,57.5 Z M17.5,63.5 L17.5,66.5 L22,66.5 L22,63.5 L17.5,63.5 Z M46,63.5 L46,66.5 L50.5,66.5 L50.5,63.5 L46,63.5 Z" id="Combined-Shape" fill="#FFFFFF"></path>
            </g>
        </g>
    </g>
</svg>