<?xml version="1.0" encoding="UTF-8" ?>
<!DOCTYPE svg PUBLIC "-//W3C//DTD SVG 1.1//EN" "http://www.w3.org/Graphics/SVG/1.1/DTD/svg11.dtd">
<svg width="60px" height="60px" viewBox="0 0 60 60" version="1.1" xmlns="http://www.w3.org/2000/svg">
<g id="#cf413dff">
<path fill="#cf413d" opacity="1.00" d=" M 28.00 0.00 L 31.91 0.00 C 46.53 0.77 59.15 13.36 60.00 27.97 L 60.00 31.80 C 59.30 46.69 46.27 59.57 31.35 60.00 L 28.48 60.00 C 13.76 59.47 0.96 46.87 0.00 32.20 L 0.00 28.26 C 0.67 13.56 13.33 0.84 28.00 0.00 M 13.35 25.51 C 11.47 26.71 12.06 29.22 11.97 31.09 C 11.70 32.88 12.89 35.05 14.89 34.94 C 24.63 35.08 34.38 34.97 44.13 34.99 C 45.92 35.31 47.97 34.09 47.96 32.14 C 47.98 29.78 48.76 26.29 45.99 25.15 C 36.69 24.77 27.35 25.14 18.04 24.98 C 16.50 25.15 14.73 24.65 13.35 25.51 Z" />
</g>
<g id="#f5d9d8ff">
<path fill="#f5d9d8" opacity="1.00" d=" M 13.35 25.51 C 14.73 24.65 16.50 25.15 18.04 24.98 C 27.35 25.14 36.69 24.77 45.99 25.15 C 48.76 26.29 47.98 29.78 47.96 32.14 C 47.97 34.09 45.92 35.31 44.13 34.99 C 34.38 34.97 24.63 35.08 14.89 34.94 C 12.89 35.05 11.70 32.88 11.97 31.09 C 12.06 29.22 11.47 26.71 13.35 25.51 Z" />
</g>
</svg>
