<?xml version="1.0" encoding="UTF-8" ?>
<!DOCTYPE svg PUBLIC "-//W3C//DTD SVG 1.1//EN" "http://www.w3.org/Graphics/SVG/1.1/DTD/svg11.dtd">
<svg width="60px" height="60px" viewBox="0 0 60 60" version="1.1" xmlns="http://www.w3.org/2000/svg">
<g id="#ee524dff">
<path fill="#ee524d" opacity="1.00" d=" M 28.12 0.00 L 31.27 0.00 C 46.17 0.38 59.22 13.21 60.00 28.08 L 60.00 31.41 C 59.54 46.48 46.34 59.63 31.27 60.00 L 28.62 60.00 C 13.75 59.56 0.77 46.74 0.00 31.91 L 0.00 28.41 C 0.57 13.61 13.35 0.76 28.12 0.00 M 13.33 25.52 C 11.45 26.76 12.08 29.29 11.98 31.17 C 11.71 32.93 12.93 35.04 14.88 34.94 C 24.96 35.04 35.06 35.05 45.14 34.93 C 47.09 35.04 48.25 32.90 48.02 31.17 C 48.05 29.08 48.46 26.07 46.00 25.17 C 36.68 24.75 27.32 25.15 17.99 24.97 C 16.46 25.14 14.70 24.67 13.33 25.52 Z" />
</g>
<g id="#ffffffff">
<path fill="#ffffff" opacity="1.00" d=" M 13.33 25.52 C 14.70 24.67 16.46 25.14 17.99 24.97 C 27.32 25.15 36.68 24.75 46.00 25.17 C 48.46 26.07 48.05 29.08 48.02 31.17 C 48.25 32.90 47.09 35.04 45.14 34.93 C 35.06 35.05 24.96 35.04 14.88 34.94 C 12.93 35.04 11.71 32.93 11.98 31.17 C 12.08 29.29 11.45 26.76 13.33 25.52 Z" />
</g>
</svg>
