<?xml version="1.0" encoding="UTF-8"?>
<svg width="96px" height="96px" viewBox="0 0 96 96" version="1.1" xmlns="http://www.w3.org/2000/svg" xmlns:xlink="http://www.w3.org/1999/xlink">
    <!-- Generator: Sketch Beta 47 (45292) - http://www.bohemiancoding.com/sketch -->
    <title>read </title>
    <desc>Created with Sketch Beta.</desc>
    <defs>
        <polygon id="path-1" points="0 0 0 72 73 72 73 0 6.10701052e-21 0"></polygon>
    </defs>
    <g id="Buttonsheet" stroke="none" stroke-width="1" fill="none" fill-rule="evenodd">
        <g id="read-">
            <g id="Page-1" transform="translate(12.000000, 12.000000)">
                <mask id="mask-2" fill="white">
                    <use xlink:href="#path-1"></use>
                </mask>
                <g id="Clip-2"></g>
            </g>
            <g id="Page-1" transform="translate(18.000000, 8.000000)" fill="#7B8085">
                <path d="M16.3293,71.9602 C13.4363,68.3632 11.7613,63.5762 11.7333,58.8262 C11.7123,55.3172 9.3753,52.2362 6.6693,48.6682 C6.0453,47.8462 5.4243,47.0262 4.8313,46.2012 C1.7113,41.8592 0.0413,36.3052 0.0003,30.1402 C-0.0897,16.2672 9.4763,3.9412 22.7473,0.8312 C31.8983,-1.3138 41.2843,0.7372 48.4973,6.4552 C55.7073,12.1712 59.8433,20.7212 59.8433,29.9132 C59.8433,35.8332 58.1123,41.5582 54.8373,46.4712 L47.3483,41.4782 C49.6353,38.0492 50.8433,34.0502 50.8433,29.9132 C50.8433,23.4862 47.9503,17.5062 42.9063,13.5082 C37.8603,9.5082 31.2613,8.0822 24.8013,9.5942 C15.5823,11.7542 8.9373,20.3702 9.0003,30.0812 C9.0293,34.3712 10.1153,38.1302 12.1403,40.9502 C12.6883,41.7122 13.2633,42.4692 13.8393,43.2292 C17.0523,47.4652 20.6943,52.2662 20.7333,58.7732 C20.7353,59.2312 20.9243,69.9922 31.7853,69.9922 C38.5203,69.9922 40.5293,65.0932 41.1263,62.1732 C42.2533,56.6692 38.7963,52.3462 31.1283,49.6692 C21.6763,46.0542 16.3273,38.8702 16.3273,29.9132 C16.3273,21.8642 22.0113,16.2422 30.1513,16.2422 C37.4623,16.2422 43.4103,22.3752 43.4103,29.9132 C43.4103,34.2002 41.3043,36.9812 40.5103,38.0272 L32.9394531,33.4216309 C34.1613,32.0405273 34.4103,31.1762 34.4103,29.9132 C34.4103,27.6672 33.2148437,25.2619629 30,25.2619629 C26.7851562,25.2619629 25.3273,27.5095215 25.3273,29.9132 C25.3273,36.4132 30.1173,39.6352 34.1613,41.1962 C51.8603,47.4082 50.7173,60.2012 49.9443,63.9782 C48.0473,73.2392 41.0893,78.9922 31.7853,78.9922 C23.6863,78.9922 18.9103,75.1682 16.3293,71.9602 Z" id="Fill-1"></path>
            </g>
        </g>
    </g>
</svg>