<?xml version="1.0" encoding="UTF-8" standalone="no"?>
<svg width="96px" height="96px" viewBox="0 0 96 96" version="1.1" xmlns="http://www.w3.org/2000/svg" xmlns:xlink="http://www.w3.org/1999/xlink">
    <!-- Generator: Sketch 39.1 (31720) - http://www.bohemiancoding.com/sketch -->
    <title>actionbar_setting_icon</title>
    <desc>Created with Sketch.</desc>
    <defs></defs>
    <g id="Buttonsheet" stroke="none" stroke-width="1" fill="none" fill-rule="evenodd">
        <g id="actionbar_setting_icon" fill="#7C8085">
            <path d="M48,72 C34.7453333,72 24,61.2546667 24,48 C24,34.7453333 34.7453333,24 48,24 C61.2546667,24 72,34.7453333 72,48 C72,61.2546667 61.2546667,72 48,72 M84,55 C81.9944618,53.2806663 80.6878138,51.2054303 80,49 C80.164164,45.7745796 81.5595128,43.0116331 84,41 C83.8616808,41.3851574 83.86033,41.3743979 84,41 L84,41 C84.5388685,40.9718138 84.6334226,40.9135333 85,41 L88,39 L76,18 L72,20 C71.6727527,20.3916062 71.6574439,20.3772602 72,20 C69.5768027,21.3070592 67.1305522,21.3913418 65,20 C62.1637588,19.1358845 60.4613341,16.5630223 60,14 C60.1853261,13.7736255 60.1709179,13.7695907 60,14 L60,9 L36,9 L36,14 C35.8254801,13.7704873 35.8083703,13.7776603 36,14 C35.5773881,16.0331176 34.42788,18.1809801 32,20 C29.9932912,21.3290265 26.9166798,21.5141793 24,20 C24.3502105,20.3759153 24.3308494,20.3907096 24,20 L20,18 L8,39 L11,41 C11.3742317,40.9121883 11.5484815,41.0153001 12,41 L12,41 C12.1423715,41.3752946 12.1410207,41.3856057 12,41 C13.9911299,42.7045394 15.2865215,44.7708091 16,47 C15.8083703,50.1810376 14.4215764,52.9354661 12,55 C12.1351674,54.5807709 12.1383192,54.6085662 12,55 L8,57 L20,78 L23,76 C23.5316419,76.0136678 23.8630316,75.8182038 24,76 L24,76 C24.3119386,75.5994275 24.3159909,75.6025657 24,76 C26.3867264,74.6570759 28.83838,74.571 31,76 C33.820032,76.8327337 35.5260587,79.4203901 36,82 C35.7998154,82.2250296 35.8209775,82.2339958 36,82 L36,87 L60,87 L60,83 C60.1425516,83.0615797 60.1407506,82.77466 60,82 L60,82 C60.1637137,82.2339958 60.1700173,82.231306 60,82 C60.3780364,79.9623993 61.5311466,77.7934661 64,76 C65.9968032,74.6234525 69.0995295,74.4459209 72,76 C71.6696008,75.6164634 71.6822081,75.6074972 72,76 L76,78 L88,57 L84,55 C83.8562777,54.6184291 83.8580788,54.6031865 84,55" id="Page-1"></path>
        </g>
    </g>
</svg>