<?xml version="1.0" encoding="UTF-8" standalone="no"?>
<svg width="96px" height="96px" viewBox="0 0 96 96" version="1.1" xmlns="http://www.w3.org/2000/svg" xmlns:xlink="http://www.w3.org/1999/xlink">
    <!-- Generator: Sketch 39.1 (31720) - http://www.bohemiancoding.com/sketch -->
    <title>Complain</title>
    <desc>Created with Sketch.</desc>
    <defs></defs>
    <g id="Buttonsheet" stroke="none" stroke-width="1" fill="none" fill-rule="evenodd">
        <g id="Complain" fill="#7C8085">
            <path d="M88,74 L88,74 L56,15 L56,15 C54.97,11.5776491 51.7897667,9 48,9 C44.2102333,9 41.0295444,11.5776491 40,15 L40,15 L8,74 L8,74 C7.50703333,75.5435789 7,77.1067719 7,79 C7,83.3239649 10.6713222,87 15,87 C15.4979333,87 15.7913111,86.9822105 16,87 L16,87 L48,87 L48,79 L44,79 L44,71 L48,71 L48,62 L44,62 L42,34 L48,34 L48,25 L48,25 L48,25 L48,34 L54,34 L52,62 L48,62 L48,71 L52,71 L52,79 L48,79 L48,87 L80,87 L80,87 C80.2082333,86.9822105 80.5020667,87 81,87 C85.3286778,87 89,83.3239649 89,79 C89,77.1067719 88.4925111,75.5435789 88,74" id="Fill-1"></path>
        </g>
    </g>
</svg>