<?xml version="1.0" encoding="UTF-8" standalone="no"?>
<svg width="96px" height="96px" viewBox="0 0 96 96" version="1.1" xmlns="http://www.w3.org/2000/svg" xmlns:xlink="http://www.w3.org/1999/xlink">
    <!-- Generator: Sketch 39.1 (31720) - http://www.bohemiancoding.com/sketch -->
    <title>actionbar_member_icon</title>
    <desc>Created with Sketch.</desc>
    <defs></defs>
    <g id="Buttonsheet" stroke="none" stroke-width="1" fill="none" fill-rule="evenodd">
        <g id="actionbar_member_icon" fill="#7C8085">
            <path d="M65,53 C65,55.2093333 62.7616667,57 60,57 L55,57 L55,41 L60,41 C62.7616667,41 65,42.7911111 65,45 L65,53 Z M60,33 L48,33 L48,65 L60,65 C66.6275556,65 72,59.6275556 72,53 L72,45 C72,38.3728889 66.6275556,33 60,33 L60,33 Z M48.5,78 C32.7598571,78 20,65.2401429 20,49.5 C20,42.1822857 22.7604286,35.5114762 27.2932857,30.4647143 L29.4647143,28.2937381 C34.5114762,23.7604286 41.1822857,21 48.5,21 C55.8177143,21 62.4885238,23.7604286 67.5352857,28.2937381 L69.7067143,30.4647143 C74.2395714,35.5114762 77,42.1822857 77,49.5 C77,65.2401429 64.2401429,78 48.5,78 L48.5,78 Z M89,28.3207075 L84.5436136,23.8620827 L78.9461221,29.462836 C78.1052605,28.1892006 77.1896757,26.9696091 76.200718,25.8139695 L81.3476193,20.6644831 L76.8912328,16.2058583 L71.7123716,21.3877711 C70.7036078,20.5541434 69.6453285,19.779964 68.5496877,19.0566759 L74.1453786,13.4586248 L69.6889921,9 L62.7536845,15.9392415 C58.3747221,14.0760768 53.5586738,13.040685 48.5,13.040685 C43.4413262,13.040685 38.6252779,14.0760768 34.2463155,15.9392415 L27.3110079,9 L22.8546214,13.4586248 L28.4503123,19.0566759 C27.3546715,19.779964 26.2963922,20.5541434 25.2876284,21.3877711 L20.1087672,16.2058583 L15.6523807,20.6644831 L20.799282,25.8139695 C19.8103243,26.9696091 18.8947395,28.1892006 18.0538779,29.462836 L12.4563864,23.8620827 L8,28.3207075 L14.9371082,35.2613001 C13.0730783,39.6406605 12.0386565,44.4586774 12.0386565,49.5203425 C12.0386565,69.6674719 28.3629852,86 48.5,86 C68.6370148,86 84.9613435,69.6674719 84.9613435,49.5203425 C84.9613435,44.4586774 83.9269217,39.6406605 82.0628918,35.2613001 L89,28.3207075 Z M36,53 C36,55.2093333 34.2093333,57 32,57 L28,57 L28,65 L32,65 C38.6275556,65 44,59.6275556 44,53 L44,33 L36,33 L36,53 Z" id="Fill-1"></path>
        </g>
    </g>
</svg>