<?xml version="1.0" encoding="UTF-8" standalone="no"?>
<svg width="96px" height="96px" viewBox="0 0 96 96" version="1.1" xmlns="http://www.w3.org/2000/svg" xmlns:xlink="http://www.w3.org/1999/xlink">
    <!-- Generator: Sketch 39.1 (31720) - http://www.bohemiancoding.com/sketch -->
    <title>ofm_jd_index_icon</title>
    <desc>Created with Sketch.</desc>
    <defs></defs>
    <g id="Buttonsheet" stroke="none" stroke-width="1" fill="none" fill-rule="evenodd">
        <g id="ofm_jd_index_icon" fill="#7C8085">
            <path d="M69,73 C69,75.1887168 67.1641111,77 65,77 L57,77 L57,57 L40,57 L40,77 L32,77 C29.8354333,77 28,75.1887168 28,73 L28,38 L49,18 L69,38 L69,73 Z M52,9 L52,9 C50.7898799,8.53224561 49.7083977,8 49,8 C47.2916023,8 46.2101201,8.53224561 45,9 L45,9 L8,47 L14,53 L20,46 L20,73 C20.1465346,79.5568655 25.5867995,85 32,85 L40,85 L57,85 L65,85 C71.4132005,85 76.8534654,79.5568655 77,73 L77,46 L83,53 L89,47 L52,9 Z" id="Fill-1"></path>
        </g>
    </g>
</svg>