<?xml version="1.0" encoding="UTF-8" standalone="no"?>
<svg width="96px" height="96px" viewBox="0 0 96 96" version="1.1" xmlns="http://www.w3.org/2000/svg" xmlns:xlink="http://www.w3.org/1999/xlink">
    <!-- Generator: Sketch 39.1 (31720) - http://www.bohemiancoding.com/sketch -->
    <title>ofm_addtag_icon copy</title>
    <desc>Created with Sketch.</desc>
    <defs></defs>
    <g id="Buttonsheet" stroke="none" stroke-width="1" fill="none" fill-rule="evenodd">
        <g id="ofm_addtag_icon-copy" fill="#7C8085">
            <path d="M80,73 L80,73 L79,73 C79.2983395,73.1983333 79.2735556,73.1920247 79,73 L57,67 L57,62 C56.6111111,60.6436852 57.962963,59.3148148 58,59 L58,59 C63.8885802,54.7761975 67.9044815,45.9815 68,35 C67.8842037,21.3890617 59.2012593,12 49,12 C37.7987407,12 29.1311173,21.3890617 29,35 C29.1513951,45.9801481 33.1799136,54.7752963 39,59 L39,59 C39.037037,59.3148148 40.3888889,60.6436852 40,62 L40,65 C40.3888889,66.181321 39.2524321,66.8824815 38,67 L18,73 C17.7259938,73.1920247 17.7016605,73.1983333 18,73 L17,73 L17,73 C14.2589444,74.4195062 12,77.4143086 12,81 L12,85 L13,85 L27,85 L70,85 L84,85 L85,85 L85,81 C85,77.4143086 82.7406049,74.4195062 80,73" id="Page-1"></path>
        </g>
    </g>
</svg>