<?xml version="1.0" encoding="UTF-8" standalone="no"?>
<svg width="96px" height="96px" viewBox="0 0 96 96" version="1.1" xmlns="http://www.w3.org/2000/svg" xmlns:xlink="http://www.w3.org/1999/xlink">
    <!-- Generator: Sketch 39.1 (31720) - http://www.bohemiancoding.com/sketch -->
    <title>actionbar_facefriend_icon</title>
    <desc>Created with Sketch.</desc>
    <defs></defs>
    <g id="Buttonsheet" stroke="none" stroke-width="1" fill="none" fill-rule="evenodd">
        <g id="actionbar_facefriend_icon" fill="#7C8085">
            <path d="M88.9888649,65.8230769 C88.8986908,63.1703462 87.2552679,60.9174538 84.9404988,59.9616538 L84.9404988,59.7170308 L68.1090526,54.4810077 L68.7154734,54.4810077 C68.7154734,54.4810077 66.4602193,54.0975077 66.4602193,52.2063308 L66.4602193,53.9681615 L66.4462423,53.9636231 L66.4462423,49.6702385 C66.450751,49.6670615 66.4548088,49.6638846 66.4593175,49.6607077 L66.4593175,51.2927385 C66.4593175,50.1440538 67.3615094,49.0330385 67.3615094,49.0330385 L67.3362606,49.0330385 C72.1957427,45.3010615 75.4852938,38.0399769 75.4785307,29.2707615 C75.4690625,17.7412538 68.3962571,10 59.679578,10 C53.0008335,10 47.2991253,14.5475385 45.0001367,21.8576385 C54.3444275,25.2741923 61.0412069,34.6284154 61.0524786,47.2503308 C61.0601434,55.7141077 58.6362637,63.1649 54.6758173,68.6759538 L55.6762989,69 L76.6246435,69 L88.3008365,69 L89.0001367,69 L89.0001367,65.8230769 L88.9888649,65.8230769 Z M61.9137059,77.9616538 L61.9137059,77.7174846 L44.971629,72.4810077 L45.5815982,72.4810077 C45.5815982,72.4810077 43.3114597,72.0975077 43.3114597,70.2063308 L43.3114597,71.9677077 L43.2973905,71.9636231 L43.2973905,68.1240846 C43.301929,68.1209077 43.3060136,68.1177308 43.3105521,68.1150077 L43.3105521,69.7465846 C43.3105521,68.5974462 44.2186982,67.4868846 44.2186982,67.4868846 L44.1910136,67.4868846 C49.083929,63.7104308 52.3960982,56.0413385 52.3888367,47.2707615 C52.3797597,35.7412538 45.2602751,28 36.4860674,28 C27.7114059,28 20.604629,35.7412538 20.6141597,47.2707615 C20.6214213,56.4121308 24.2353982,63.9119385 29.4768674,67.4868846 L29.2358751,67.4868846 C29.2358751,67.4868846 30.1440213,68.5974462 30.1440213,69.7465846 L30.1440213,67.9284769 C30.1481059,67.9312 30.1521905,67.9343769 30.156729,67.9371 L30.156729,71.9636231 L30.1431136,71.9677077 L30.1431136,70.2063308 C30.1431136,72.0975077 27.8729751,72.4810077 27.8729751,72.4810077 L28.4829444,72.4810077 L11.5408674,77.7174846 L11.5408674,77.7973615 C8.97754436,78.6347077 7.10815205,81.0019692 7.01148282,83.8230769 L7.00013667,83.8230769 L7.00013667,87 L7.7045059,87 L19.4573059,87 L53.5429674,87 L65.2957674,87 L66.0001367,87 L66.0001367,83.8230769 L65.9887905,83.8230769 C65.8980213,81.1708 64.2437521,78.9174538 61.9137059,77.9616538 L61.9137059,77.9616538 Z" id="Fill-1"></path>
        </g>
    </g>
</svg>