<?xml version="1.0" encoding="UTF-8" standalone="no"?>
<svg width="47px" height="50px" viewBox="0 0 47 50" version="1.1" xmlns="http://www.w3.org/2000/svg" xmlns:xlink="http://www.w3.org/1999/xlink" xmlns:sketch="http://www.bohemiancoding.com/sketch/ns">
    <!-- Generator: Sketch 3.3.3 (12072) - http://www.bohemiancoding.com/sketch -->
    <title>c2c_msg_icon</title>
    <desc>Created with Sketch.</desc>
    <defs></defs>
    <g id="Page-1" stroke="none" stroke-width="1" fill="none" fill-rule="evenodd" sketch:type="MSPage">
        <g id="c2c_msg_icon" sketch:type="MSLayerGroup" fill="#CCCCCC">
            <g id="Page-1" sketch:type="MSShapeGroup">
                <g id="c2c_msg_icon">
                    <path d="M25,0 C32.22,3.53 39.56,5.91 47,8 L47,17 C45.57,25.23 44.3351562,42.1625 23.5,50 C2.34843755,42.6714859 1.27,23.62 0,16 L0,8 C7.48,5.95 14.89,3.62 22,0 L25,0 Z M13.7234778,35.0335102 C15.0339219,34.6241779 18,33 18,33 C18,33 21.6328125,34.0324974 24,33.9198189 C29.6948959,34.0324965 37.0793926,29.3530977 37.0339219,22.234169 C37.0018337,17.4745461 31.7148159,12 24,12 C17.7458292,12 11.2914606,15.6447132 11.0421464,22.234169 C11.0421464,26.7923517 12.7337582,29.7979031 14.7127878,31.3061275 C14.7127878,31.3061275 14.1484074,33.5176811 13.7234778,35.0335102 Z" id="Shape"></path>
                    <path d="M20,23 C21.1045695,23 22,22.1045695 22,21 C22,19.8954305 21.1045695,19 20,19 C18.8954305,19 18,19.8954305 18,21 C18,22.1045695 18.8954305,23 20,23 L20,23 Z" id="Oval-1"></path>
                    <path d="M29,23 C30.1045695,23 31,22.1045695 31,21 C31,19.8954305 30.1045695,19 29,19 C27.8954305,19 27,19.8954305 27,21 C27,22.1045695 27.8954305,23 29,23 L29,23 Z" id="Oval-1-Copy"></path>
                </g>
            </g>
        </g>
    </g>
</svg>