<?xml version="1.0" encoding="UTF-8" standalone="no"?>
<svg width="102px" height="102px" viewBox="0 0 102 102" version="1.1" xmlns="http://www.w3.org/2000/svg" xmlns:xlink="http://www.w3.org/1999/xlink">
    <!-- Generator: Sketch 3.6.1 (26313) - http://www.bohemiancoding.com/sketch -->
    <title>queren3x</title>
    <desc>Created with Sketch.</desc>
    <defs></defs>
    <g id="红包／卡券" stroke="none" stroke-width="1" fill="none" fill-rule="evenodd">
        <g id="queren3x" fill="#FFFFFF">
            <path d="M51,102 C79.1665222,102 102,79.1665222 102,51 C102,22.8334778 79.1665222,0 51,0 C22.8334778,0 0,22.8334778 0,51 C0,79.1665222 22.8334778,102 51,102 Z M51,98 C76.9573832,98 98,76.9573832 98,51 C98,25.0426168 76.9573832,4 51,4 C25.0426168,4 4,25.0426168 4,51 C4,76.9573832 25.0426168,98 51,98 Z" id="Oval-91"></path>
            <g id="C2C-ICON-Copy" transform="translate(11.000000, 6.000000)">
                <g id="Fill-3-+-Fill-36" transform="translate(12.656250, 21.515625)">
                    <path d="M1.87857559,23.757034 C1.29739208,23.1639789 1.22349296,22.150277 1.72505228,21.4773922 L3.06397343,19.6811148 C3.56036835,19.0151584 4.49450558,18.8771152 5.16204269,19.3815642 L18.2107687,29.2423139 C18.8731054,29.742833 19.9223526,29.7277718 20.5747989,29.191859 L54.4864853,1.33714429 C55.1297665,0.808759711 56.1276197,0.844279394 56.7306632,1.43148538 L57.7083606,2.38350578 C58.3045047,2.9639935 58.3040873,3.90391248 57.7140618,4.47643683 L20.4825942,40.6035563 C19.8895988,41.1789624 18.9402386,41.1672062 18.3565552,40.5716002 L1.87857559,23.757034 Z" id="Fill-36"></path>
                </g>
            </g>
        </g>
    </g>
</svg>