<?xml version="1.0" encoding="UTF-8"?>
<svg width="72px" height="72px" viewBox="0 0 72 72" version="1.1" xmlns="http://www.w3.org/2000/svg" xmlns:xlink="http://www.w3.org/1999/xlink">
    <!-- Generator: Sketch 50.2 (55047) - http://www.bohemiancoding.com/sketch -->
    <title>Icons/pause Copy 14</title>
    <desc>Created with Sketch.</desc>
    <defs></defs>
    <g id="Icons/pause-Copy-14" stroke="none" stroke-width="1" fill="none" fill-rule="evenodd">
        <path d="M45.4242,69 L39.6252,63.291 C47.0982,56.445 51.7692,46.713 51.7692,35.919 C51.7692,25.209 47.1732,15.546 39.8022,8.709 L45.6012,3 C54.4722,11.295 60.0012,22.977 60.0012,35.919 C60.0012,48.945 54.4002,60.696 45.4242,69 M31.8912,55.674 L26.0892,49.959 C30.0582,46.524 32.5602,41.505 32.5602,35.919 C32.5602,30.417 30.1332,25.467 26.2692,22.035 L32.0712,16.323 C37.4382,21.213 40.7922,28.185 40.7922,35.919 C40.7922,43.737 37.3632,50.775 31.8912,55.674 M19.3032,43.278 L12.0012,36.087 L19.4952,28.707 C21.6102,30.429 22.9572,33.018 22.9572,35.919 C22.9572,38.904 21.5292,41.562 19.3032,43.278" id="Fill-1" fill="#1AAD19"></path>
    </g>
</svg>