<?xml version="1.0" encoding="UTF-8" standalone="no"?>
<svg width="48px" height="60px" viewBox="0 0 48 60" version="1.1" xmlns="http://www.w3.org/2000/svg" xmlns:xlink="http://www.w3.org/1999/xlink" xmlns:sketch="http://www.bohemiancoding.com/sketch/ns">
    <!-- Generator: Sketch 3.3 (11970) - http://www.bohemiancoding.com/sketch -->
    <title>chat_mute_notify_normal</title>
    <desc>Created with Sketch.</desc>
    <defs></defs>
    <g id="聊天" stroke="none" stroke-width="1" fill="none" fill-rule="evenodd" sketch:type="MSPage">
        <g id="chat_mute_notify_normal" sketch:type="MSArtboardGroup" fill="#D8D8D8">
            <path d="M41.4081711,42.8971006 C41.2071433,42.5436816 40.9275778,42.2113206 40.6503819,42.022016 L40.2804499,41.7693794 L38,39.4889294 L38,27 L37.9671954,27 L37.9671954,27 C37.5422907,20.5444845 33.0334597,15.2044629 27,13.5392327 L27,13.5392327 L27,12.0016655 C27,10.3390201 25.6568542,9 24,9 C22.3465171,9 21,10.3438914 21,12.0016655 L21,13.1321713 C18.5225325,13.4622601 16.2362359,14.3970648 14.2943831,15.7833125 L5.92332846,7.4122579 C5.14949961,6.63842904 3.88075193,6.63031864 3.10321448,7.40785609 L2.40785609,8.10321448 C1.62770905,8.88336151 1.6322894,10.14336 2.4122579,10.9233285 L42.4003514,50.911422 C43.1741802,51.6852508 44.4429279,51.6933612 45.2204654,50.9158238 L45.9158238,50.2204654 C46.6959708,49.4403183 46.6913905,48.1803199 45.911422,47.4003514 L41.4081711,42.8971006 Z M31.4889294,47 L18.0145845,47 L8.9995332,47 L8.9995332,47 L6.606894,47 C5.49785434,47 4.78866498,46.1265826 5.0140425,45.0491676 L5.32509323,43.5621927 C5.43821524,43.021414 5.89707444,42.3310703 6.34961805,42.022016 L8,40.8949253 L8,27 L8.03280455,27 C8.09980474,25.982076 8.26834717,24.9918874 8.52839785,24.0394684 L31.4889294,47 L31.4889294,47 Z M29,49 C29,51.7614237 26.7614237,54 24,54 C21.2385763,54 19,51.7614237 19,49 L29,49 L29,49 Z" id="静音" sketch:type="MSShapeGroup"></path>
        </g>
    </g>
</svg>