<?xml version="1.0" encoding="UTF-8" standalone="no"?>
<svg width="42px" height="42px" viewBox="0 0 42 42" version="1.1" xmlns="http://www.w3.org/2000/svg" xmlns:xlink="http://www.w3.org/1999/xlink">
    <!-- Generator: Sketch 40.3 (33839) - http://www.bohemiancoding.com/sketch -->
    <title>Rejected @3x</title>
    <desc>Created with Sketch.</desc>
    <defs></defs>
    <g id="Slice" stroke="none" stroke-width="1" fill="none" fill-rule="evenodd" opacity="0.15">
        <g id="SLICE" transform="translate(-1538.000000, -387.000000)" fill="#000000">
            <path d="M1539.76426,389.763893 C1539.50167,389.207842 1539.59897,388.52538 1540.06217,388.062174 C1540.6488,387.475551 1541.59447,387.470127 1542.18714,388.062789 L1548.12435,394 L1570.99258,394 C1572.65353,394 1574,395.343123 1574,397.00793 L1574,416.99207 C1574,417.790923 1573.68714,418.517041 1573.17999,419.055647 L1577.24431,423.119964 C1577.83127,423.706926 1577.83564,424.654215 1577.24493,425.244927 C1576.78408,425.705773 1576.10164,425.807929 1575.54284,425.543208 C1575.47056,425.390145 1575.37101,425.24666 1575.24431,425.119964 L1540.18714,390.062789 C1540.06007,389.935718 1539.91677,389.836142 1539.76426,389.763893 Z M1540.03593,394.160274 C1538.85128,394.564218 1538,395.686575 1538,397.00793 L1538,416.99207 C1538,418.656877 1539.34174,420 1540.99687,420 L1547,420 L1547,426.887526 C1547,428.087629 1547.68354,428.369015 1548.52673,427.520498 L1556,420 L1565.87565,420 L1540.03593,394.160274 Z" id="ChatRoomRejected-@3x"></path>
        </g>
    </g>
</svg>