<?xml version="1.0" encoding="UTF-8"?>
<svg width="48px" height="48px" viewBox="0 0 48 48" version="1.1" xmlns="http://www.w3.org/2000/svg" xmlns:xlink="http://www.w3.org/1999/xlink">
    <!-- Generator: Sketch 52.2 (67145) - http://www.bohemiancoding.com/sketch -->
    <title>Artboard</title>
    <desc>Created with Sketch.</desc>
    <g id="Artboard" stroke="none" stroke-width="1" fill="none" fill-rule="evenodd">
        <g id="Group">
            <rect id="Rectangle" fill-rule="nonzero" x="0" y="0" width="48" height="48"></rect>
            <g id="Group-Copy-2">
                <g id="分组" transform="translate(10.000000, 2.000000)" fill="#232323" fill-rule="nonzero" opacity="0.300000012">
                    <path d="M10.7403679,0.206876305 L12.7068576,0.206876305 C13.3143709,0.206876305 13.8068576,0.699363081 13.8068576,1.30687631 C13.8067581,1.32500161 13.8067581,1.32500161 13.8062604,1.34312035 L13.5392274,9.44312035 C13.5196752,10.0362025 13.033229,10.5068763 12.4398247,10.5068763 L11.0074009,10.5068763 C10.4139966,10.5068763 9.92755032,10.0362025 9.90799816,9.44312035 L9.64096519,1.34312035 C9.62094816,0.735936988 10.0969405,0.227490606 10.7041239,0.207473572 C10.7222426,0.206975863 10.7222426,0.206975863 10.7403679,0.206876305 Z M25.7076183,6.40651921 C26.137195,6.83609593 26.137195,7.53257741 25.7076183,7.96215413 C25.6947314,7.97490026 25.6947314,7.97490026 25.6815675,7.98736021 L19.7651818,13.5261043 C19.331984,13.9316512 18.6551978,13.9204984 18.2355976,13.5008982 L17.2227211,12.4880217 C16.8031208,12.0684215 16.7919681,11.3916353 17.197515,10.9584375 L22.7362591,5.04205175 C23.1514484,4.59855409 23.8475517,4.57560563 24.2910493,4.99079493 C24.3042132,5.00325488 24.3042132,5.00325488 24.3171001,5.01600101 L25.7076183,6.40651921 Z M30.5167348,18.0167651 L30.5167348,19.9832548 C30.5167348,20.590768 30.024248,21.0832548 29.4167348,21.0832548 C29.3986095,21.0831552 29.3986095,21.0831552 29.3804907,21.0826575 L21.2804907,20.8156245 C20.6874086,20.7960724 20.2167348,20.3096261 20.2167348,19.7162218 L20.2167348,18.283798 C20.2167348,17.6903937 20.6874086,17.2039475 21.2804907,17.1843953 L29.3804907,16.9173623 C29.9876741,16.8973453 30.4961205,17.3733377 30.5161375,17.980521 C30.5166352,17.9986398 30.5166352,17.9986398 30.5167348,18.0167651 Z M4,10 L4,38 L20,38 L20,26 L24,26 L24,40 C24,41.1045695 23.1045695,42 22,42 L2,42 C0.8954305,42 -3.55271368e-15,41.1045695 -7.10542736e-15,40 L-7.10542736e-15,8 C-1.0658141e-14,6.8954305 0.8954305,6 2,6 L6,6 L6,10 L4,10 Z" id="形状"></path>
                </g>
                <rect id="Rectangle" x="0" y="0" width="48" height="48"></rect>
            </g>
        </g>
    </g>
</svg>