<?xml version="1.0" encoding="UTF-8"?>
<svg height="60px"
    version="1.1"
    viewBox="0 0 60 60"
    width="60px"
    xmlns="http://www.w3.org/2000/svg">
    <!-- Generator: Sketch 40.1 (33804) - http://www.bohemiancoding.com/sketch -->
    <title>Checkbox_selected_grey</title>
    <desc>Created with Sketch.</desc>
    <defs></defs>
    <g
        fill="none"
        fill-rule="evenodd"
        id="Symbols"
        stroke="none"
        stroke-width="1">
        <rect
            height="60"
            id="bond"
            width="60"
            x="0"
            y="0"></rect>
        <g
            fill="#AAAAAA"
            id="Checkbox_selected_grey">
            <g
                id="Group-2"
                transform="translate(6.000000, 6.000000)">
                <path
                    d="M0,5.87755102 C0,2.68915086 2.68354127,0 5.87755102,0 L42.122449,0 C45.3108491,0 48,2.68354127 48,5.87755102 L48,42.122449 C48,45.3108491 45.3164587,48 42.122449,48 L5.87755102,48 C2.68915086,48 0,45.3164587 0,42.122449 L0,5.87755102 L0,5.87755102 Z M4,5.9047619 C4,4.89421792 4.89153983,4 5.9047619,4 L42.0952381,4 C43.1057821,4 44,4.89153983 44,5.9047619 L44,42.0952381 C44,43.1057821 43.1084602,44 42.0952381,44 L5.9047619,44 C4.89421792,44 4,43.1084602 4,42.0952381 L4,5.9047619 L4,5.9047619 Z"
                    id="Shape"></path>
                <polygon
                    id="Shape"
                    points="10.2 22.5384615 19 30.9230769 37.8 13 42 17.0384615 19 39 6 26.5769231"></polygon>
            </g>
        </g>
    </g>
</svg>