<?xml version="1.0" encoding="UTF-8" standalone="no"?>
<svg width="192px" height="192px" viewBox="0 0 192 192" version="1.1" xmlns="http://www.w3.org/2000/svg" xmlns:xlink="http://www.w3.org/1999/xlink" xmlns:sketch="http://www.bohemiancoding.com/sketch/ns">
    <!-- Generator: Sketch 3.3 (11970) - http://www.bohemiancoding.com/sketch -->
    <title>default_qqfriend</title>
    <desc>Created with Sketch.</desc>
    <defs></defs>
    <g id="模块/插件" stroke="none" stroke-width="1" fill="none" fill-rule="evenodd" sketch:type="MSPage">
        <g id="default_qqfriend" sketch:type="MSArtboardGroup">
            <rect id="Rectangle-17" fill="#18B4ED" sketch:type="MSShapeGroup" x="0" y="0" width="192" height="192"></rect>
            <path d="M142.545455,100.831314 C139.216346,92.1810581 135.365916,85.4122117 136.125392,75.0643057 C134.937214,54.3058763 117.50597,36.5975017 97.6050157,36.4137931 C74.4945639,36.5975017 57.06332,54.3058763 55.8746082,75.0643057 C56.6317507,85.4122117 52.7813205,92.1810581 49.4545455,100.831314 C40.5317764,114.370788 42.7921388,131.660676 46.2445141,133.040075 C48.9373423,131.660676 53.5039482,128.932709 59.0846395,123.377446 C59.0469619,129.886008 62.2149103,134.896501 65.5047022,139.481827 C60.4133592,140.688641 56.32277,143.902478 55.8746082,145.923579 C56.7521886,152.38712 65.8051085,156.042851 75.1347962,155.586207 C85.1913185,155.149133 92.27135,152.361585 94.3949843,149.144455 C95.2729793,148.797355 95.6235398,148.818634 97.6050157,149.144455 C96.3877473,148.818634 96.7469105,148.797355 97.6050157,149.144455 C99.7528413,152.361585 106.822119,155.149133 116.865204,155.586207 C126.196142,156.042851 135.246194,152.38712 136.125392,145.923579 C135.677047,143.901059 131.587175,140.688641 126.495298,139.481827 C129.789208,134.896501 132.949271,129.890973 132.915361,123.377446 C138.502321,128.934837 143.061041,131.660676 145.755486,133.040075 C149.209829,131.660676 151.468757,114.370788 142.545455,100.831314" id="Imported-Layers-3" fill="#FFFFFF" sketch:type="MSShapeGroup"></path>
            <path d="M176.666667,125.333333 C176.666667,141.902333 163.235667,155.333333 146.666667,155.333333 C130.097667,155.333333 116.666667,141.902333 116.666667,125.333333 C116.666667,108.764333 130.097667,95.3333333 146.666667,95.3333333 C163.235667,95.3333333 176.666667,108.764333 176.666667,125.333333 Z" id="Path" fill="#18B4ED" sketch:type="MSShapeGroup"></path>
            <path d="M144,128 L133.333333,128 L133.333333,122.666667 L144,122.666667 L144,112 L149.333333,112 L149.333333,122.666667 L160,122.666667 L160,128 L149.333333,128 L149.333333,138.666667 L144,138.666667 L144,128 Z M122.666667,125.335509 C122.666667,126.548038 122.756597,127.739554 122.930152,128.903756 C124.653741,140.465562 134.624912,149.333333 146.666667,149.333333 C159.923126,149.333333 170.666667,138.589792 170.666667,125.335509 C170.666667,112.07905 159.923126,101.333333 146.666667,101.333333 C133.412383,101.333333 122.666667,112.07905 122.666667,125.335509 Z" id="Path-3" fill="#FFFFFF" sketch:type="MSShapeGroup"></path>
        </g>
    </g>
</svg>