<svg height="120" viewBox="0 0 120 120" width="120" xmlns="http://www.w3.org/2000/svg"><g fill="none" fill-rule="evenodd"><path d="m0 0h120v120h-120z" fill="#f1f1f1"/><path d="m50.8657829 61.3048882c3.8558049 6.1251361-2.5458708 8.8984745-5.2195526 10.4391052-11.5024438 6.5438328-16.5285832 8.99469-16.5285832 12.1789561v4.3496271c0 1.3983687 1.0459231 2.6097763 2.6097763 2.6097763h56.5451532c1.5638532 0 2.6097763-1.2114076 2.6097763-2.6097763v-4.3496271c0-3.1842661-5.0261394-5.6351233-16.5285832-12.1789561-2.6736818-1.5406307-9.0753575-4.3139691-5.2195526-10.4391052 3.4242253-5.0850582 6.096117-7.1564158 6.089478-15.6586579.006639-8.0714222-5.9623035-16.5285832-14.7887324-16.5285832-9.6963543 0-15.6652968 8.457161-15.6586578 16.5285832-.006639 8.5022421 2.6652527 10.5735997 6.089478 15.6586579z" fill="#c9c9c9"/></g></svg>