<?xml version="1.0" encoding="UTF-8"?>
<svg width="192px" height="192px" viewBox="0 0 192 192" version="1.1" xmlns="http://www.w3.org/2000/svg" xmlns:xlink="http://www.w3.org/1999/xlink">
<!-- Generator: Sketch 50.2 (55047) - http://www.bohemiancoding.com/sketch -->
<title>default_downloaderapp</title>
<desc>Created with Sketch.</desc>
<defs></defs>
<g id="模块/插件" stroke="none" stroke-width="1" fill="none" fill-rule="evenodd">
	<g id="default_downloaderapp">
		<polygon id="Shape" fill="#2DA243" fill-rule="nonzero" points="0 0 192 0 192 192 0 192"></polygon>
		<g id="Group" transform="translate(42.666667, 48.375000)">
			<path d="M88.1013945,78.8514431 C99.326584,70.6170764 106.5,58.4375844 106.5,44.908269 C106.5,20.1052642 82.6588119,0 53.25,0 C23.8411881,0 0,20.1052642 0,44.908269 C0,69.7090538 23.8411881,89.8165381 53.25,89.8165381 C59.3265634,89.8165381 65.1925311,88.9373768 70.6307263,87.3522224 C71.1265037,87.2012553 71.6529929,87.1168913 72.1970318,87.1168913 C73.2192984,87.1168913 74.1494294,87.4321461 75.0247178,87.9449902 L86.6798735,94.7562701 C87.0067356,94.9449789 87.3226292,95.0892857 87.7087213,95.0892857 C88.6893075,95.0892857 89.4812351,94.285608 89.4812351,93.2954415 C89.4812351,92.8492005 89.3079324,92.4051797 89.1960534,91.9811397 C89.1280485,91.7280479 87.6933653,86.3065532 86.7961399,82.9231143 C86.6952295,82.5412564 86.609675,82.1749392 86.609675,81.7775405 C86.609675,80.5720239 87.1997817,79.5019337 88.1013945,78.8514431" id="Fill-25" fill="#FFFFFF" transform="translate(53.250000, 47.544643) scale(-1, 1) translate(-53.250000, -47.544643) "></path>
			<polygon id="Shape" fill="#2DA243" fill-rule="nonzero" points="49.501551 52.7156044 49.501551 27 57.2429711 27 57.2429711 52.6242891 69.2422601 40.6250001 74.4032068 45.7859468 53.3484467 66.8407069 53.3266035 66.8188637 53.3047601 66.8407069 32.25 45.7859468 37.4109467 40.6250001"></polygon>
		</g>
	</g>
</g>
</svg>