<?xml version="1.0" encoding="UTF-8" standalone="no"?>
<svg width="191px" height="191px" viewBox="0 0 191 191" version="1.1" xmlns="http://www.w3.org/2000/svg" xmlns:xlink="http://www.w3.org/1999/xlink" xmlns:sketch="http://www.bohemiancoding.com/sketch/ns">
    <!-- Generator: Sketch 3.3.3 (12081) - http://www.bohemiancoding.com/sketch -->
    <title>default_notify_message_contact</title>
    <desc>Created with Sketch.</desc>
    <defs></defs>
    <g id="Page-1" stroke="none" stroke-width="1" fill="none" fill-rule="evenodd" sketch:type="MSPage">
        <g id="default_notify_message_contact" sketch:type="MSLayerGroup" fill="#F5862D">
            <g id="联系人/头像" sketch:type="MSShapeGroup">
                <g id="default_notify_message_contact">
                    <path d="M71.7023992,113.948408 L70.5046619,117.918324 C68.7712264,123.663818 71.968991,129.747522 77.6381115,131.503881 L96.8813106,137.465648 C102.554442,139.22325 108.558548,135.990764 110.292086,130.244931 L111.371895,126.665889 L143.502052,136.966365 C146.293025,137.861111 148.555556,136.225971 148.555556,133.264749 L148.555556,55.6580805 C148.555556,52.7189881 146.293596,51.0470309 143.502052,51.9240602 L55.1777778,79.6732144 L55.1777778,108.650847 L71.7023992,113.948408 L71.7023992,113.948408 Z M105.589224,124.812046 L104.679206,127.869808 C103.855744,130.636729 101.00234,132.194169 98.3045342,131.34686 L80.0157398,125.602834 C77.3202691,124.756258 75.8006788,121.823362 76.6235924,119.058283 L77.5832512,115.833726 L105.589224,124.812046 L105.589224,124.812046 Z M0,0 L191,0 L191,191 L0,191 L0,0 L0,0 Z M47.0369172,77.7669891 C44.5005646,76.3118215 42.4444444,77.5184672 42.4444444,80.42022 L42.4444444,108.457385 C42.4444444,111.377891 44.4903735,112.57163 47.0369172,111.110616 L53.0555556,107.657576 L53.0555556,81.2200291 L47.0369172,77.7669891 L47.0369172,77.7669891 Z" id="Fill-22"></path>
                </g>
            </g>
        </g>
    </g>
</svg>