<?xml version="1.0" encoding="UTF-8" standalone="no"?>
<svg width="140px" height="140px" viewBox="0 0 140 140" version="1.1" xmlns="http://www.w3.org/2000/svg" xmlns:xlink="http://www.w3.org/1999/xlink" xmlns:sketch="http://www.bohemiancoding.com/sketch/ns">
    <!-- Generator: Sketch 3.2.2 (9983) - http://www.bohemiancoding.com/sketch -->
    <title>default_qq_avatar</title>
    <desc>Created with Sketch.</desc>
    <defs></defs>
    <g id="Page-1" stroke="none" stroke-width="1" fill="none" fill-rule="evenodd" sketch:type="MSPage">
        <g id="default_qq_avatar" sketch:type="MSLayerGroup">
            <g id="#eeeeeeff" fill="#EEEEEE" sketch:type="MSShapeGroup">
                <path d="M0,0 L140,0 L140,140 L0,140 L0,0 L0,0 Z M45.812839,48.3214483 C43.5079275,53.3723197 44.7157414,59.1219283 42.853695,64.2726192 C40.6293044,70.7509108 35.7477233,76.2609523 35.2243373,83.3082156 C35.0532304,86.8118833 34.328542,91.2039453 36.9052116,93.988912 C40.0455277,94.218497 42.1290066,91.293783 44.3634623,89.5469401 C45.732318,92.9408062 47.8258621,95.9653399 49.9898619,98.9100179 C47.7856016,100.287528 44.2829414,101.155959 43.9709228,104.190474 C43.8501414,107.115188 47.1716296,108.452771 49.4966713,109.231364 C56.4516662,110.73864 64.4333028,110.199614 69.9993118,105.348382 C75.7263625,110.199614 83.8690411,110.878387 90.9347522,109.11158 C93.1490777,108.303042 96.3397193,107.025351 95.9874403,104.140565 C95.7257473,101.036175 92.0620452,100.177727 89.787329,98.8601081 C92.3338033,96.0851234 94.3669566,92.8908965 95.8364635,89.4271566 C98.0004634,91.293783 100.33557,94.7974507 103.636928,93.7693089 C105.5493,90.2157314 104.995719,85.9534348 104.653505,82.1003985 C103.767775,74.4142898 97.5072727,68.6447174 96.4202402,61.0284825 C95.8263984,56.6763482 95.9270496,52.1445387 94.135459,48.0419535 C90.8341011,39.1879556 82.4901202,32.2604759 72.9483906,31.2123701 C61.2728565,29.5853108 49.6677782,37.5010045 45.812839,48.3214483 L45.812839,48.3214483 Z" id="Shape"></path>
            </g>
            <g id="#b4b5b4ff" transform="translate(35.000000, 30.000000)" fill="#B4B5B4" sketch:type="MSShapeGroup">
                <path d="M10.812839,18.3214483 C14.6677782,7.50100448 26.2728565,-0.414689221 37.9483906,1.21237014 C47.4901202,2.26047586 55.8341011,9.18795559 59.135459,18.0419535 C60.9270496,22.1445387 60.8263984,26.6763482 61.4202402,31.0284825 C62.5072727,38.6447174 68.7677746,44.4142898 69.6535048,52.1003985 C69.9957187,55.9534348 70.5493001,60.2157314 68.6369281,63.7693089 C65.3355702,64.7974507 63.0004634,61.293783 60.8364635,59.4271566 C59.3669566,62.8908965 57.3338033,66.0851234 54.787329,68.8601081 C57.0620452,70.1777267 60.7257473,71.0361752 60.9874403,74.1405645 C61.3397193,77.0253508 58.1490777,78.3030416 55.9347522,79.1115803 C48.8690411,80.8783871 40.7263625,80.1996138 34.9993118,75.3483816 C29.4333028,80.1996138 21.4516662,80.7386396 14.4966713,79.2313638 C12.1716296,78.452771 8.85014141,77.1151884 8.9709228,74.1904743 C9.28294138,71.1559587 12.7856016,70.2875283 14.9898619,68.9100179 C12.8258621,65.9653399 10.732318,62.9408062 9.36346231,59.5469401 C7.12900664,61.293783 5.04552771,64.218497 1.90521164,63.988912 C-0.671457954,61.2039453 0.0532303693,56.8118833 0.224337335,53.3082156 C0.747723346,46.2609523 5.62930442,40.7509108 7.85369497,34.2726192 C9.71574135,29.1219283 8.50792748,23.3723197 10.812839,18.3214483 L10.812839,18.3214483 Z" id="Shape"></path>
            </g>
        </g>
    </g>
</svg>