<?xml version="1.0" encoding="UTF-8"?>
<svg width="120px" height="120px" viewBox="0 0 120 120" version="1.1" xmlns="http://www.w3.org/2000/svg" xmlns:xlink="http://www.w3.org/1999/xlink">
    <!-- Generator: Sketch 52.5 (67469) - http://www.bohemiancoding.com/sketch -->
    <title>avatar_contacts_newfriends</title>
    <desc>Created with Sketch.</desc>
    <g id="avatar_contacts_newfriends" stroke="none" stroke-width="1" fill="none" fill-rule="evenodd">
        <rect id="Rectangle-8" fill="#FA9D3B" x="0" y="0" width="120" height="120" rx="12"></rect>
        <path d="M84.2128972,73.1666667 L77.898056,73.1666667 L77.898056,76.3333333 L84.2128972,76.3333333 L84.2128972,82.6666667 L87.3703177,82.6666667 L87.3703177,76.3333333 L93.6851589,76.3333333 L93.6851589,73.1666667 L87.3703177,73.1666667 L87.3703177,66.8333333 L84.2128972,66.8333333 L84.2128972,73.1666667 Z M67.4237145,70.0792818 C67.0471432,71.5735655 66.847084,73.1383435 66.847084,74.75 C66.847084,80.4248923 69.3275241,85.5185611 73.2604085,89 L30.7443108,89 C28.9980226,89 27.7836504,87.6004775 28.0322875,85.8716249 L28.3334505,83.7775437 C28.6389069,81.6536081 30.4365587,79.1211231 32.3580172,78.116164 L49.0482741,69.3868447 C51.5982508,68.0531587 52.1271173,65.2265519 50.2271163,63.0707024 L48.8335666,61.4895014 C46.4602803,58.7966355 44.5363517,53.7177607 44.5363517,50.1466932 L44.5363517,44.9555432 C44.5363517,37.8003943 50.3736553,32 57.5778713,32 C64.7805036,32 70.6193908,37.8019202 70.6193908,44.9555432 L70.6193908,50.1466932 C70.6193908,53.7182873 68.6945062,58.7988335 66.322176,61.4919868 L64.9286263,63.0739938 C63.0297061,65.2297152 63.5603416,68.0594882 66.1074686,69.3911409 L67.4237145,70.0792818 Z M71.5832149,74.7512918 C71.5832149,66.8802692 77.9448549,60.5 85.7916074,60.5 C93.639648,60.5 100,66.8802692 100,74.7512918 C100,82.6210226 93.639648,89 85.7916074,89 C78.6626918,89 72.7595954,83.7347609 71.7392024,76.8699383 C71.6364552,76.1786938 71.5832149,75.4712308 71.5832149,74.7512918 Z" id="Path" fill="#FFFFFF"></path>
    </g>
</svg>