<?xml version="1.0" encoding="UTF-8" standalone="no"?>
<svg width="192px" height="192px" viewBox="0 0 192 192" version="1.1" xmlns="http://www.w3.org/2000/svg" xmlns:xlink="http://www.w3.org/1999/xlink" xmlns:sketch="http://www.bohemiancoding.com/sketch/ns">
    <!-- Generator: Sketch 3.3 (11970) - http://www.bohemiancoding.com/sketch -->
    <title>default_nearby</title>
    <desc>Created with Sketch.</desc>
    <defs></defs>
    <g id="模块/插件" stroke="none" stroke-width="1" fill="none" fill-rule="evenodd" sketch:type="MSPage">
        <g id="default_nearby" sketch:type="MSArtboardGroup">
            <rect id="Rectangle-147" fill="#2782D7" sketch:type="MSShapeGroup" x="0" y="0" width="192" height="192"></rect>
            <path d="M57.1566436,93.2068966 L57.1566436,95.1190211 L57.1566436,95.1190211 L30.811816,142.922136 C30.2982951,145.274793 30.9211968,147.504249 32.6935894,148.658509 L38.3389096,152.482759 C39.4354157,152.493543 40.4103122,152.620089 42.1024564,152.482759 C42.4577791,152.046907 43.2281132,151.432783 43.9842298,150.570634 L65.6918301,111.181843 L65.6918301,111.181843 L90.2308565,150.570634 C91.1681669,151.446695 93.2970611,152.758792 95.0251137,152.65048 C96.7538945,152.762458 98.885608,151.455663 99.82381,150.630388 L124.294164,111.057237 L124.294164,111.057237 L146.070437,150.570634 C146.828855,151.432791 147.59916,152.04691 147.95221,152.482759 C149.644709,152.620088 150.619569,152.493542 151.715757,152.482759 L157.361077,148.658509 C159.133474,147.506147 159.756352,145.274846 159.242851,142.922136 L132.898023,95.1190211 L132.898023,95.1190211 L132.898023,93.2068966 L152.099349,93.2068966 C153.162059,93.2068966 155.949747,90.2286961 155.949747,89.0905172 L155.949747,80.8577586 C155.949747,78.5855172 154.224769,76.7413793 152.099349,76.7413793 L34.6622139,76.7413793 C33.5995041,76.7413793 30.811816,79.7195797 30.811816,80.8577586 L30.811816,89.0905172 C30.811816,91.3627586 32.5367943,93.2068966 34.6622139,93.2068966 L57.1566436,93.2068966 Z M73.6221609,93.2068966 L73.6221609,95.3488438 L95.089294,129.806789 L95.089294,129.806789 L116.432506,95.2908136 L116.432506,93.2068966 L73.6221609,93.2068966 Z M66.2611061,40.5172414 C73.572958,40.5172414 80.2083678,47.1509077 80.2083678,56.2079108 C80.2083678,63.5215061 73.572958,70.1551724 66.2611061,70.1551724 C57.2041031,70.1551724 50.5704367,63.5197627 50.5704367,56.2079108 C50.5704367,47.1509077 57.2041031,40.5172414 66.2611061,40.5172414 Z M125.536968,40.5172414 C132.84882,40.5172414 139.48423,47.1509077 139.48423,56.2079108 C139.48423,63.5215061 132.84882,70.1551724 125.536968,70.1551724 C116.479965,70.1551724 109.846299,63.5197627 109.846299,56.2079108 C109.846299,47.1509077 116.479965,40.5172414 125.536968,40.5172414 Z" id="Shape" fill="#FFFFFF" sketch:type="MSShapeGroup"></path>
        </g>
    </g>
</svg>