<?xml version="1.0" encoding="UTF-8" standalone="no"?>
<svg width="75px" height="36px" viewBox="0 0 75 36" version="1.1" xmlns="http://www.w3.org/2000/svg" xmlns:xlink="http://www.w3.org/1999/xlink" xmlns:sketch="http://www.bohemiancoding.com/sketch/ns">
    <!-- Generator: Sketch 3.2.2 (9983) - http://www.bohemiancoding.com/sketch -->
    <title>emoji_store_small_new</title>
    <desc>Created with Sketch.</desc>
    <defs></defs>
    <g id="Page-1" stroke="none" stroke-width="1" fill="none" fill-rule="evenodd" sketch:type="MSPage">
        <g id="emoji_store_small_new" sketch:type="MSLayerGroup" transform="translate(0.000000, -1.000000)">
            <g id="#ff4f4dff" fill="#FF4F4D" sketch:type="MSShapeGroup">
                <path d="M17.77,1 L57.09,1 C66.55,0.93 74.9,9.15 75,18.61 L75,19.27 C74.97,28.72 66.67,37 57.21,37 L17.88,37 C8.43,37.06 0.1,28.83 0,19.39 L0,18.71 C0.04,9.26 8.33,1.01 17.77,1 L17.77,1 Z M14.96,11.01 C14.95,16 14.95,21 14.96,26 L18.03,26 C18.04,22.64 18.03,19.29 18.04,15.93 C20.16,19.27 22.22,22.65 24.32,26 C25.42,26 26.51,25.99 27.61,25.99 C27.6,20.99 27.61,16 27.6,11.01 C26.84,11.01 25.3,11 24.54,11 C24.52,14.37 24.53,17.74 24.52,21.11 C22.4,17.75 20.33,14.36 18.21,11 C17.4,11 15.77,11.01 14.96,11.01 L14.96,11.01 Z M30.45,11.02 C30.44,16 30.46,20.99 30.44,25.98 C34.24,26.02 38.04,26.01 41.84,25.98 C41.84,25.29 41.83,23.92 41.83,23.24 C39.14,23.24 36.44,23.23 33.75,23.22 L33.75,19.56 C36.16,19.55 38.58,19.55 40.99,19.55 C41,18.91 41.01,17.64 41.02,17.01 C38.59,17 36.17,16.99 33.74,16.98 C33.74,16.18 33.75,14.59 33.75,13.79 C36.38,13.78 39.01,13.77 41.63,13.78 C41.65,13.1 41.68,11.72 41.7,11.04 C37.95,10.99 34.2,11 30.45,11.02 L30.45,11.02 Z M42.58,11.01 C43.89,16.01 45.2,21.02 46.55,26.01 C47.65,26.01 48.75,26 49.86,26 C50.72,22.58 51.53,19.16 52.39,15.74 C53.27,19.16 54.09,22.58 54.96,26 L58.22,26 C59.58,21.01 60.92,16.01 62.25,11.01 L59.04,11.01 C58.2,14.46 57.39,17.93 56.55,21.39 C55.66,17.93 54.84,14.46 53.95,11.01 L50.89,11.01 C50,14.43 49.14,17.86 48.26,21.28 C47.44,17.86 46.67,14.42 45.84,11 C45.02,11 43.39,11 42.58,11.01 L42.58,11.01 Z" id="Shape"></path>
            </g>
            <g id="#ffffffff" transform="translate(14.000000, 11.000000)" fill="#FFFFFF" sketch:type="MSShapeGroup">
                <path d="M0.96,0.01 C1.77,0.01 3.4,0 4.21,0 C6.33,3.36 8.4,6.75 10.52,10.11 C10.53,6.74 10.52,3.37 10.54,0 C11.3,0 12.84,0.01 13.6,0.01 C13.61,5 13.6,9.99 13.61,14.99 C12.51,14.99 11.42,15 10.32,15 C8.22,11.65 6.16,8.27 4.04,4.93 C4.03,8.29 4.04,11.64 4.03,15 L0.96,15 C0.95,10 0.95,5 0.96,0.01 L0.96,0.01 Z" id="Shape"></path>
                <path d="M16.45,0.02 C20.2,1.01307851e-15 23.95,-0.01 27.7,0.04 C27.68,0.72 27.65,2.1 27.63,2.78 C25.01,2.77 22.38,2.78 19.75,2.79 C19.75,3.59 19.74,5.18 19.74,5.98 C22.17,5.99 24.59,6 27.02,6.01 C27.01,6.64 27,7.91 26.99,8.55 C24.58,8.55 22.16,8.55 19.75,8.56 L19.75,12.22 C22.44,12.23 25.14,12.24 27.83,12.24 C27.83,12.92 27.84,14.29 27.84,14.98 C24.04,15.01 20.24,15.02 16.44,14.98 C16.46,9.99 16.44,5 16.45,0.02 L16.45,0.02 Z" id="Shape"></path>
                <path d="M28.58,0.01 C29.39,1.77635684e-15 31.02,1.77635684e-15 31.84,1.77635684e-15 C32.67,3.42 33.44,6.86 34.26,10.28 C35.14,6.86 36,3.43 36.89,0.01 L39.95,0.01 C40.84,3.46 41.66,6.93 42.55,10.39 C43.39,6.93 44.2,3.46 45.04,0.01 L48.25,0.01 C46.92,5.01 45.58,10.01 44.22,15 L40.96,15 C40.09,11.58 39.27,8.16 38.39,4.74 C37.53,8.16 36.72,11.58 35.86,15 C34.75,15 33.65,15.01 32.55,15.01 C31.2,10.02 29.89,5.01 28.58,0.01 L28.58,0.01 Z" id="Shape"></path>
            </g>
        </g>
    </g>
</svg>