<?xml version="1.0" encoding="UTF-8" standalone="no"?>
<svg width="135px" height="135px" viewBox="0 0 135 135" version="1.1" xmlns="http://www.w3.org/2000/svg" xmlns:xlink="http://www.w3.org/1999/xlink" xmlns:sketch="http://www.bohemiancoding.com/sketch/ns">
    <!-- Generator: Sketch 3.3.3 (12072) - http://www.bohemiancoding.com/sketch -->
    <title>fav_search_pic_pressed</title>
    <desc>Created with Sketch.</desc>
    <defs></defs>
    <g id="Page-1" stroke="none" stroke-width="1" fill="none" fill-rule="evenodd" sketch:type="MSPage">
        <g id="#737f88ff" sketch:type="MSLayerGroup" fill="#737F88">
            <path d="M64.33,0 L70.46,0 C86.43,0.79 102.07,7.27 113.68,18.29 C126.44,30.11 134.1,47.02 135,64.36 L135,70.12 C134.28,87.64 126.56,104.77 113.68,116.71 C102.13,127.69 86.58,134.14 70.7,135 L64.53,135 C48.56,134.21 32.91,127.73 21.31,116.7 C8.45,104.79 0.76,87.69 0,70.21 L0,64.57 C0.83,47.17 8.5,30.16 21.31,18.31 C32.87,7.31 48.43,0.86 64.33,0 L64.33,0 Z M38.3,45.37 C36.95,46.02 36.95,47.67 36.99,48.94 C37,61.3 37.02,73.65 36.98,86.01 C37.11,87.41 36.63,89.13 37.77,90.25 C38.88,91.38 40.6,90.88 42,91.02 C59.04,90.96 76.07,91.03 93.11,90.99 C94.74,91.22 96.21,89.68 95.98,88.06 C96.01,74.68 96.01,61.3 95.98,47.92 C96.22,46.28 94.7,44.79 93.07,45.02 C76.38,44.97 59.68,45.03 42.99,44.98 C41.44,45.11 39.75,44.69 38.3,45.37 L38.3,45.37 Z" id="Shape" sketch:type="MSShapeGroup"></path>
            <path d="M42,50 L91,50 C91.01,58.8 90.99,67.6 91.01,76.4 C88.58,72.83 86.13,68.76 81.95,67.06 C78.44,66.25 75.78,69.53 73.18,71.35 C73.84,72.68 74.47,74.03 75.09,75.39 C70.89,70.42 67.58,64.27 61.69,61.07 C59.23,59.62 56.51,61.03 54.45,62.49 C49.5,65.99 45.24,70.47 41.98,75.59 C42.02,67.06 41.99,58.53 42,50 L42,50 Z" id="Shape" sketch:type="MSShapeGroup"></path>
        </g>
    </g>
</svg>