<?xml version="1.0" encoding="UTF-8" standalone="no"?>
<svg width="690px" height="414px" viewBox="0 0 690 414" version="1.1" xmlns="http://www.w3.org/2000/svg" xmlns:xlink="http://www.w3.org/1999/xlink" xmlns:sketch="http://www.bohemiancoding.com/sketch/ns">
    <!-- Generator: Sketch 3.5.2 (25235) - http://www.bohemiancoding.com/sketch -->
    <title>fav_list_img_default</title>
    <desc>Created with Sketch.</desc>
    <defs></defs>
    <g id="Page-1" stroke="none" stroke-width="1" fill="none" fill-rule="evenodd" sketch:type="MSPage">
        <g id="fav_list_img_default" sketch:type="MSLayerGroup" transform="translate(225.000000, 114.000000)" fill="#EBEBEB">
            <g id="Asset" sketch:type="MSShapeGroup">
                <g id="fav_list_img_default">
                    <path d="M228,119.822878 L228,12 L12,12 L12,119.51874 L80.738315,55.3358779 L162.560277,130.408505 L150.844774,106.321461 L184.215507,80.5119453 L228,119.822878 L228,119.822878 Z M5.9924948,0 C2.6829313,0 0,2.6830428 0,6.004041 L0,179.995959 C0,183.311899 2.6953125,186 5.9924948,186 L234.007505,186 C237.317069,186 240,183.316957 240,179.995959 L240,6.004041 C240,2.6881007 237.304688,0 234.007505,0 L5.9924948,0 L5.9924948,0 Z" id="Rectangle-40"></path>
                </g>
            </g>
        </g>
    </g>
</svg>