<?xml version="1.0" encoding="UTF-8" standalone="no"?>
<svg width="135px" height="135px" viewBox="0 0 135 135" version="1.1" xmlns="http://www.w3.org/2000/svg" xmlns:xlink="http://www.w3.org/1999/xlink" xmlns:sketch="http://www.bohemiancoding.com/sketch/ns">
    <!-- Generator: Sketch 3.3.3 (12072) - http://www.bohemiancoding.com/sketch -->
    <title>fav_search_voice</title>
    <desc>Created with Sketch.</desc>
    <defs></defs>
    <g id="Page-1" stroke="none" stroke-width="1" fill="none" fill-rule="evenodd" sketch:type="MSPage">
        <g id="#5e6971ff" sketch:type="MSLayerGroup" fill="#5E6971">
            <path d="M64.25,0 L70.53,0 C86.47,0.81 102.08,7.28 113.67,18.29 C126.42,30.08 134.07,46.96 135,64.26 L135,70.55 C134.14,87.93 126.45,104.9 113.65,116.74 C102.12,127.68 86.62,134.11 70.79,135 L64.41,135 C48.49,134.17 32.91,127.71 21.33,116.72 C8.58,104.93 0.94,88.04 0,70.73 L0,64.48 C0.86,47.1 8.53,30.12 21.33,18.28 C32.87,7.32 48.39,0.88 64.25,0 L64.25,0 Z M57.52,3.77 C42.5,6.08 28.42,13.93 18.57,25.5 C8.68,36.91 3.06,51.91 3.01,67.01 C2.84,81.94 8.09,96.86 17.62,108.37 C28.03,121.18 43.53,129.71 59.94,131.55 C73.75,133.2 88.08,130.26 100.06,123.18 C112.83,115.74 122.9,103.78 127.99,89.9 C133.51,75.11 133.31,58.27 127.42,43.62 C121.38,28.33 109.23,15.59 94.26,8.81 C82.86,3.56 69.91,1.85 57.52,3.77 L57.52,3.77 Z" id="Shape" sketch:type="MSShapeGroup"></path>
            <path d="M71.48,36.66 C72.83,35.99 74.57,36.22 75.64,37.3 C83.56,45.03 88.42,55.92 88.48,67.02 C88.67,78.18 84.03,89.26 76.17,97.15 C74.45,99.09 70.93,98.32 70.08,95.91 C68.99,93.68 70.93,91.82 72.27,90.3 C79.57,82.18 82.68,70.48 80.12,59.83 C78.66,53.24 74.97,47.37 70.39,42.5 C68.62,40.81 69.29,37.63 71.48,36.66 L71.48,36.66 Z" id="Shape" sketch:type="MSShapeGroup"></path>
            <path d="M59.3,46.31 C60.57,45.47 62.43,45.46 63.59,46.49 C68.45,50.72 71.98,56.57 73.07,62.95 C74.85,72.35 70.86,82.39 63.57,88.45 C61.49,90.24 57.87,88.68 57.65,85.97 C57.22,83.91 59.11,82.64 60.26,81.26 C65.65,75.95 67.57,67.36 64.59,60.34 C63.43,57.09 61.06,54.54 58.76,52.06 C56.99,50.55 57.36,47.51 59.3,46.31 L59.3,46.31 Z" id="Shape" sketch:type="MSShapeGroup"></path>
            <path d="M46.43,61.47 C46.3,59.41 46.86,56.89 49.2,56.39 C52.91,55.56 55.53,59.18 57.13,62 C60.25,67.57 57.7,75.02 52.41,78.25 C49.41,79.96 45.5,77.16 46.46,73.72 C48.18,72.01 50.78,70.71 50.99,68 C51.36,64.94 48.63,62.98 46.43,61.47 L46.43,61.47 Z" id="Shape" sketch:type="MSShapeGroup"></path>
        </g>
    </g>
</svg>