<?xml version="1.0" encoding="UTF-8" standalone="no"?>
<svg width="84px" height="84px" viewBox="0 0 84 84" version="1.1" xmlns="http://www.w3.org/2000/svg" xmlns:xlink="http://www.w3.org/1999/xlink" xmlns:sketch="http://www.bohemiancoding.com/sketch/ns">
    <!-- Generator: Sketch 3.3.3 (12072) - http://www.bohemiancoding.com/sketch -->
    <title>fav_addtab_disable</title>
    <desc>Created with Sketch.</desc>
    <defs></defs>
    <g id="Page-1" stroke="none" stroke-width="1" fill="none" fill-rule="evenodd" sketch:type="MSPage">
        <g id="#acacacff" sketch:type="MSLayerGroup" transform="translate(11.000000, 11.000000)" fill="#ACACAC">
            <path d="M35.18,1.25 C37.03,0.39 38.77,1.7 39.98,3 C46.58,9.72 53.34,16.29 59.91,23.03 C61.61,24.5 61.14,27.15 59.49,28.45 C49.33,38.64 39.13,48.78 28.98,58.99 C27.92,60.05 26.72,61.2 25.07,60.98 C19.04,61.07 13,60.94 6.97,61.03 C5.32,60.88 3.3,61.34 2.04,59.98 C0.69,58.72 1.09,56.7 0.97,55.06 C1.06,49.01 0.93,42.95 1.02,36.9 C0.82,35.29 1.94,34.09 2.99,33.05 C12.19,23.88 21.37,14.69 30.54,5.51 C32.04,4.04 33.4,2.39 35.18,1.25 L35.18,1.25 Z M16.16,38.3 C12,39.44 10.56,45.35 13.77,48.24 C16.69,51.44 22.64,49.97 23.72,45.78 C25.35,41.39 20.52,36.64 16.16,38.3 L16.16,38.3 Z" id="Shape" sketch:type="MSShapeGroup"></path>
        </g>
    </g>
</svg>