<?xml version="1.0" encoding="UTF-8" standalone="no"?>
<svg width="96px" height="96px" viewBox="0 0 96 96" version="1.1" xmlns="http://www.w3.org/2000/svg" xmlns:xlink="http://www.w3.org/1999/xlink" xmlns:sketch="http://www.bohemiancoding.com/sketch/ns">
    <!-- Generator: Sketch 3.3.3 (12072) - http://www.bohemiancoding.com/sketch -->
    <title>find_more_friend_qq_icon</title>
    <desc>Created with Sketch.</desc>
    <defs></defs>
    <g id="Page-1" stroke="none" stroke-width="1" fill="none" fill-rule="evenodd" sketch:type="MSPage">
        <g id="find_more_friend_qq_icon" sketch:type="MSLayerGroup" transform="translate(22.000000, 18.000000)" fill="#4EC326">
            <g id="未标题-1" sketch:type="MSShapeGroup">
                <path d="M41.9338065,49.9149057 C41.5706452,50.3112736 41.2276129,50.7292925 40.8384516,51.0973585 C40.4877312,51.4290566 40.5242151,51.5704245 40.9757204,51.7342925 C42.136914,52.1558491 43.2832903,52.6048585 44.1970645,53.5085377 C45.8154946,55.1090094 45.7045054,56.7919811 43.8329247,58.1013679 C42.3812581,59.1168396 40.7085914,59.5700943 38.9932903,59.7771226 C36.1015591,60.1260849 33.2306559,59.9667453 30.4527097,58.9940094 C29.0622688,58.5070755 27.7494086,57.8742453 26.7011613,56.7595755 C26.3437312,56.3794811 25.7283978,56.3893868 25.3828495,56.7427358 C23.6358172,58.5290094 21.4055484,59.2400943 19.0743548,59.6482075 C16.2751613,60.1382547 13.4713548,60.0778302 10.7164731,59.2611792 C9.56492473,58.919717 8.47977419,58.4412736 7.6105914,57.5784906 C6.42605376,56.4026887 6.42032258,55.0899057 7.53315054,53.8320283 C8.45349462,52.7916509 9.66668817,52.2658019 10.9123118,51.7863679 C11.107172,51.7113679 11.3052473,51.6451415 11.5964194,51.5409906 C9.6181828,49.4049057 7.89491398,47.1468396 7.03467742,44.2399528 C6.19037634,45.195283 5.39472043,46.0734906 4.44082796,46.7803302 C3.77950538,47.2703774 3.08477419,47.6808962 2.27122581,47.8717925 C1.73501075,47.9975943 1.36248387,47.8242453 1.09703226,47.3636321 C0.382591398,46.1241509 0.237354839,44.7386321 0.15488172,43.3532547 C-0.122451613,38.6936321 1.32278495,34.5148585 3.57989247,30.5275472 C4.86227957,28.2622642 5.96532258,25.8932547 6.50447312,23.3005189 C6.75105376,22.1149528 6.7516129,20.9128302 6.81870968,19.7170755 C7.0933871,14.8258019 8.74913978,10.514717 11.9103763,6.77971698 C14.7653441,3.40641509 18.3782258,1.30061321 22.6169247,0.454669811 C27.0571935,-0.431603774 31.3158817,0.337216981 35.2494301,2.69589623 C40.8236344,6.03834906 43.9018387,11.0666038 45.0185806,17.4396226 C45.2762043,18.9100472 45.219172,20.3963208 45.3509892,21.8715566 C45.5661183,24.2810377 46.480172,26.4632547 47.4905376,28.6212736 C48.358043,30.4739151 49.4743656,32.1960849 50.252828,34.0927358 C51.8637097,38.0175 52.4436774,42.0476887 51.4425376,46.2353774 C51.409828,46.3720755 51.3685914,46.5075 51.3213441,46.6396698 C50.854043,47.947217 50.2694624,48.2091509 49.0302688,47.6341981 C47.6036237,46.972217 46.4861828,45.9111792 45.4622581,44.7367925 C45.3417634,44.5985377 45.2311935,44.4512264 45.0459785,44.2209906 C44.432043,46.2870283 43.3482903,48 42.1584409,49.6529717 C42.153828,49.8014151 42.0322151,49.8479717 41.9338065,49.9149057 L41.9338065,49.9149057 Z" id="Shape"></path>
            </g>
        </g>
    </g>
</svg>