<?xml version="1.0" encoding="UTF-8" standalone="no"?>
<svg width="46px" height="46px" viewBox="0 0 46 46" version="1.1" xmlns="http://www.w3.org/2000/svg" xmlns:xlink="http://www.w3.org/1999/xlink" xmlns:sketch="http://www.bohemiancoding.com/sketch/ns">
    <!-- Generator: Sketch 3.2.2 (9983) - http://www.bohemiancoding.com/sketch -->
    <title>fts_more_button_icon</title>
    <desc>Created with Sketch.</desc>
    <defs></defs>
    <g id="Page-1" stroke="none" stroke-width="1" fill="none" fill-rule="evenodd" sketch:type="MSPage">
        <path d="M30.430653,34.1783189 C27.2499077,36.5774923 23.2910761,38 19,38 C8.50658975,38 0,29.4934102 0,19 C0,8.50658975 8.50658975,0 19,0 C29.4934102,0 38,8.50658975 38,19 C38,23.2910761 36.5774923,27.2499077 34.1783189,30.430653 L45.6191649,41.8714989 L41.8714989,45.6191649 L30.430653,34.1783189 Z M27.0627144,30.4466218 C24.7832635,32.055154 22.001972,33 19,33 C11.2680135,33 5,26.7319865 5,19 C5,11.2680135 11.2680135,5 19,5 C26.7319865,5 33,11.2680135 33,19 C33,22.001972 32.055154,24.7832635 30.4466218,27.0627144 L27.0627144,30.4466218 Z" id="Oval-1" fill="#7A93AF" sketch:type="MSShapeGroup"></path>
    </g>
</svg>