<?xml version="1.0" encoding="UTF-8" standalone="no"?>
<svg width="60px" height="60px" viewBox="0 0 60 60" version="1.1" xmlns="http://www.w3.org/2000/svg" xmlns:xlink="http://www.w3.org/1999/xlink" xmlns:sketch="http://www.bohemiancoding.com/sketch/ns">
    <!-- Generator: Sketch 3.3.3 (12072) - http://www.bohemiancoding.com/sketch -->
    <title>ic_sex_female</title>
    <desc>Created with Sketch.</desc>
    <defs></defs>
    <g id="Page-1" stroke="none" stroke-width="1" fill="none" fill-rule="evenodd" sketch:type="MSPage">
        <path d="M23.3571429,31.2678571 C25.8252197,35.6727122 21.368434,37.6034839 19.5178571,38.9464286 C11.4991504,43.2318104 8,44.9380738 8,46.625 L8,50.4642857 C8,51.1566295 8.72816173,52 9.53571429,52 L49.4642857,52 C50.2718383,52 51,51.1566295 51,50.4642857 L51,46.625 C51,44.9380738 47.5008496,43.2318104 39.4821429,38.9464286 C37.631566,37.6034839 33.1747803,35.6727122 35.6428571,31.2678571 C38.243068,27.8682816 40.1032135,26.4262222 40.25,20.5178571 C40.1032135,14.887795 35.9476926,9 29.5,9 C23.0523074,9 18.8967865,14.887795 18.75,20.5178571 C18.8967865,26.4262222 20.756932,27.8682816 23.3571429,31.2678571 Z" id="Fill-24" fill="#EE7357" sketch:type="MSShapeGroup"></path>
        <path d="M43,35 L43,24.8709209 L43,20.5018507 C43,13.0461288 36.9558441,7 29.5,7 C24.7587299,7 29.5,7 29.5,7 C22.0400634,7 16,13.045625 16,20.5032813 C16,20.5032813 16,26.2110007 16,24.4261913 L16,35 L43,35 Z" id="Rectangle-1" fill="#EE7357" sketch:type="MSShapeGroup"></path>
        <path d="M22.2006836,38.1157227 C22.2006836,38.1157227 21.6909182,42.9619141 23.9619141,45.8999023 C26.2300721,48.8342193 29.4635869,44.6429453 29.5835487,43.118624 C26.5898437,42.5580254 22.2006836,38.1157227 22.2006836,38.1157227 Z" id="Path-4" fill="#FFFFFF" sketch:type="MSShapeGroup"></path>
        <path d="M29.706408,38.1157227 C29.706408,38.1157227 29.1966426,42.9619141 31.4676385,45.8999023 C33.7386344,48.8378906 37.0222168,44.6324463 37.1345215,43.112915 C34.1403809,42.5580254 29.706408,38.1157227 29.706408,38.1157227 Z" id="Path-4-Copy" fill="#FFFFFF" sketch:type="MSShapeGroup" transform="translate(33.395996, 42.516683) scale(-1, 1) translate(-33.395996, -42.516683) "></path>
    </g>
</svg>