<?xml version="1.0" encoding="UTF-8" standalone="no"?>
<svg width="61px" height="61px" viewBox="0 0 61 61" version="1.1" xmlns="http://www.w3.org/2000/svg" xmlns:xlink="http://www.w3.org/1999/xlink" xmlns:sketch="http://www.bohemiancoding.com/sketch/ns">
    <!-- Generator: Sketch 3.3.3 (12072) - http://www.bohemiancoding.com/sketch -->
    <title>ic_sex_male</title>
    <desc>Created with Sketch.</desc>
    <defs></defs>
    <g id="Page-1" stroke="none" stroke-width="1" fill="none" fill-rule="evenodd" sketch:type="MSPage">
        <path d="M24.3571429,31.2678571 C26.8252197,35.6727122 22.368434,37.6034839 20.5178571,38.9464286 C12.4991504,43.2318104 9,44.9380738 9,46.625 L9,50.4642857 C9,51.1566295 9.72816173,52 10.5357143,52 L50.4642857,52 C51.2718383,52 52,51.1566295 52,50.4642857 L52,46.625 C52,44.9380738 48.5008496,43.2318104 40.4821429,38.9464286 C38.631566,37.6034839 34.1747803,35.6727122 36.6428571,31.2678571 C39.243068,27.8682816 41.1032135,26.4262222 41.25,20.5178571 C41.1032135,14.887795 36.9476926,9 30.5,9 C24.0523074,9 19.8967865,14.887795 19.75,20.5178571 C19.8967865,26.4262222 21.756932,27.8682816 24.3571429,31.2678571 Z M30.7144527,42.9216797 C26.3096178,42.9216797 23.0074463,38.0115966 23.0074463,38.0115966 C23.0074463,38.0115966 24.6229486,50.7193357 30.7144527,50.7193357 C36.8059568,50.7193357 38.0793457,38.0115966 38.0793457,38.0115966 C38.0793457,38.0115966 35.1192876,42.9216797 30.7144527,42.9216797 Z" id="Fill-24" fill="#589BEE" sketch:type="MSShapeGroup"></path>
    </g>
</svg>