<?xml version="1.0" encoding="UTF-8"?>
<svg width="72px" height="72px" viewBox="0 0 72 72" version="1.1" xmlns="http://www.w3.org/2000/svg" xmlns:xlink="http://www.w3.org/1999/xlink">
    <!-- Generator: Sketch 52.2 (67145) - http://www.bohemiancoding.com/sketch -->
    <title>icons_outlined_search-logo</title>
    <desc>Created with Sketch.</desc>
    <g id="icons_outlined_search-logo" stroke="none" stroke-width="1" fill="none" fill-rule="evenodd">
        <g id="icons_outlined_searchlogo" transform="translate(3.000000, 3.000000)" fill="#000000" fill-rule="nonzero">
            <path d="M34.9121698,25.6343863 L62.8813884,22.1042908 C63.703295,22.000555 64.4536763,22.5827475 64.5574121,23.404654 C64.5626663,23.4462835 64.5661715,23.4881151 64.5679183,23.5300384 L64.7342684,27.5224422 C64.7687563,28.3501512 64.1257236,29.0490998 63.2980146,29.0835877 C63.2724066,29.0846547 63.2467755,29.0850651 63.2211464,29.0848187 L35.0855776,28.8142844 C34.2628153,28.8063732 33.6,28.1371541 33.6,27.3143537 L33.6,27.1225798 C33.6,26.3667777 34.1623165,25.729028 34.9121698,25.6343863 Z M25.7666811,20.0618379 L29.3428634,3.45813438 C29.5172937,2.64827911 30.3152149,2.13316545 31.1250702,2.30759582 C31.1850113,2.32050622 31.2441045,2.33707981 31.302017,2.3572233 L35.0620975,3.66507739 C35.8445443,3.93723278 36.2582171,4.79215676 35.9860617,5.57460352 C35.9725962,5.61331698 35.9575495,5.65146224 35.9409595,5.68894325 L29.0855337,21.1771275 C28.7587803,21.9153482 27.9063664,22.2625466 27.1568047,21.9627219 L26.6759677,21.7703871 C25.9968462,21.4987385 25.6126727,20.7768767 25.7666811,20.0618379 Z M17.2664678,28.8233953 L3.16492679,29.0707908 C2.33662712,29.0853223 1.65337741,28.425633 1.63884583,27.5973333 C1.63793103,27.5451893 1.63973625,27.4930331 1.64425416,27.4410771 L1.95280127,23.8927854 C2.02456759,23.0674727 2.75179385,22.4566027 3.57710657,22.528369 C3.63907028,22.5337571 3.70063888,22.542994 3.76145578,22.5560262 L17.5882508,25.5189109 C18.3351785,25.6789668 18.8425223,26.374777 18.766513,27.1348701 L18.7327118,27.4728817 C18.6570322,28.229678 18.0269216,28.810054 17.2664678,28.8233953 Z M23.3482274,37.991796 L17.2010869,62.313091 C16.9980877,63.1162615 16.1824261,63.6027966 15.3792556,63.3997974 C15.3369907,63.3891151 15.2952115,63.3765953 15.2540371,63.3622738 L11.4069772,62.024166 C10.6245304,61.7520106 10.2108575,60.8970866 10.4830129,60.1146398 C10.4931493,60.0854977 10.5041825,60.0566753 10.5160966,60.0282136 L20.1786184,36.9455228 C20.4750088,36.237479 21.258097,35.8674291 21.9933017,36.0879905 L22.3249804,36.1874941 C23.0939519,36.4181856 23.5449541,37.2134424 23.3482274,37.991796 Z M33.3179637,35.5121138 L54.7491251,59.1413431 C55.3056748,59.7549748 55.2594007,60.7035943 54.645769,61.260144 C54.6302436,61.2742251 54.6144249,61.2879793 54.5983231,61.3013974 L51.640293,63.7664225 C51.0038777,64.2967686 50.0580306,64.2107825 49.5276845,63.5743672 C49.5041571,63.5461342 49.4816752,63.5170462 49.4602843,63.4871619 L30.8538529,37.4928827 C30.37924,36.8298206 30.5212495,35.9090629 31.1735849,35.4198113 L31.3068851,35.3198362 C31.9263809,34.8552143 32.7977305,34.9385233 33.3179637,35.5121138 Z" id="Combined-Shape"></path>
        </g>
    </g>
</svg>