<?xml version="1.0" encoding="UTF-8"?>
<svg width="72px" height="72px" viewBox="0 0 72 72" version="1.1" xmlns="http://www.w3.org/2000/svg" xmlns:xlink="http://www.w3.org/1999/xlink">
    <!-- Generator: Sketch 52.4 (67378) - http://www.bohemiancoding.com/sketch -->
    <title>支付</title>
    <desc>Created with Sketch.</desc>
    <g id="支付" stroke="none" stroke-width="1" fill="none" fill-rule="evenodd">
        <path d="M59.3675004,24.3116863 L28.0402227,43.0519787 L27.8208261,43.1816784 C27.5499044,43.3198552 27.2449098,43.4012354 26.9216322,43.4012354 C26.1711959,43.4012354 25.5188232,42.9799233 25.1764315,42.3577039 L25.045957,42.0660915 L19.5834788,29.8404122 C19.5244744,29.7073216 19.4879083,29.5564292 19.4879083,29.4097753 C19.4879083,28.8468956 19.9358431,28.3908274 20.4876589,28.3908274 C20.713704,28.3908274 20.9189728,28.4662736 21.0868445,28.5934302 L27.5316214,33.2736393 C28.0011635,33.5872921 28.565445,33.772093 29.1704479,33.772093 C29.5302917,33.772093 29.8751766,33.7042761 30.1951301,33.584749 L57.2231083,21.4839178 C52.4333664,16.1186355 44.7475615,12.6 36,12.6 C21.301022,12.6 9.6,22.5351529 9.6,34.4725258 C9.6,40.7463457 12.826998,46.6369321 18.4435961,50.7916814 L20.1522473,52.0556168 L19.3682477,57.9283649 L26.0026563,54.7505236 L27.3207235,55.1318016 C30.0849289,55.9314049 33.0062733,56.3450517 36,56.3450517 C50.698978,56.3450517 62.4,46.4098988 62.4,34.4725258 C62.4,30.8228545 61.3062608,27.3603383 59.3675004,24.3116863 Z M36,59.9450517 C32.61305,59.9450517 29.3571917,59.4684859 26.3203625,58.5900205 L17.4211261,62.8527006 C17.1579272,62.9787713 16.8636238,63.025393 16.5742917,62.986851 C15.7531338,62.8774642 15.176225,62.123826 15.2857298,61.3035528 L16.3026719,53.68589 C9.98976296,49.0160608 6,42.1399067 6,34.4725258 C6,20.4044383 19.4314575,9 36,9 C52.5685425,9 66,20.4044383 66,34.4725258 C66,48.5406134 52.5685425,59.9450517 36,59.9450517 Z" id="Combined-Shape" fill="#000000" fill-rule="nonzero"></path>
    </g>
</svg>