<?xml version="1.0" encoding="UTF-8"?>
<svg width="72px" height="72px" viewBox="0 0 72 72" version="1.1" xmlns="http://www.w3.org/2000/svg" xmlns:xlink="http://www.w3.org/1999/xlink">
    <!-- Generator: Sketch 50.2 (55047) - http://www.bohemiancoding.com/sketch -->
    <title>icons_outlined_discover_press</title>
    <desc>Created with Sketch.</desc>
    <defs></defs>
    <g id="icons_outlined_discover_press" stroke="none" stroke-width="1" fill="none" fill-rule="evenodd">
        <g id="common_icons_discover" fill="#00C777" fill-rule="nonzero">
            <path d="M36,62.4 C50.5803174,62.4 62.4,50.5803174 62.4,36 C62.4,21.4196826 50.5803174,9.6 36,9.6 C21.4196826,9.6 9.6,21.4196826 9.6,36 C9.6,50.5803174 21.4196826,62.4 36,62.4 Z M36,66 C19.4314575,66 6,52.5685425 6,36 C6,19.4314575 19.4314575,6 36,6 C52.5685425,6 66,19.4314575 66,36 C66,52.5685425 52.5685425,66 36,66 Z" id="Combined-Shape"></path>
            <path d="M33.3700669,33.3700669 L27.8020849,44.1979151 L38.6299331,38.6299331 L44.1979151,27.8020849 L33.3700669,33.3700669 Z M30.6966991,30.6966991 L48.3730503,21.6070256 C48.8035648,21.385643 49.3144579,21.385643 49.7449724,21.6070256 C50.4816999,21.9858714 50.7718202,22.8902223 50.3929744,23.6269497 L41.3033009,41.3033009 L23.6269497,50.3929744 C23.1964352,50.614357 22.6855421,50.614357 22.2550276,50.3929744 C21.5183001,50.0141286 21.2281798,49.1097777 21.6070256,48.3730503 L30.6966991,30.6966991 Z" id="Combined-Shape"></path>
        </g>
    </g>
</svg>