<?xml version="1.0" encoding="UTF-8"?>
<svg width="72px" height="72px" viewBox="0 0 72 72" version="1.1" xmlns="http://www.w3.org/2000/svg" xmlns:xlink="http://www.w3.org/1999/xlink">
    <!-- Generator: Sketch 50.2 (55047) - http://www.bohemiancoding.com/sketch -->
    <title>icons_outlined_voice</title>
    <desc>Created with Sketch.</desc>
    <defs></defs>
    <g id="icons_outlined_voice" stroke="none" stroke-width="1" fill="none" fill-rule="evenodd">
        <g id="icon24">
            <path d="M36,66 C19.4314575,66 6,52.5685425 6,36 C6,19.4314575 19.4314575,6 36,6 C52.5685425,6 66,19.4314575 66,36 C66,52.5685425 52.5685425,66 36,66 Z M36,62.4 C50.5803174,62.4 62.4,50.5803174 62.4,36 C62.4,21.4196826 50.5803174,9.6 36,9.6 C21.4196826,9.6 9.6,21.4196826 9.6,36 C9.6,50.5803174 21.4196826,62.4 36,62.4 Z M36.9249783,50.4249783 C40.7283655,46.6215912 42.9,41.4872706 42.9,36 C42.9,30.5127294 40.7283655,25.3784088 36.9249783,21.5750217 L39.4705627,19.0294373 C43.8137085,23.372583 46.5,29.372583 46.5,36 C46.5,42.627417 43.8137085,48.627417 39.4705627,52.9705627 L36.9249783,50.4249783 Z M30.9852814,44.4852814 C33.2235297,42.2470331 34.5,39.2291182 34.5,36 C34.5,32.7708818 33.2235297,29.7529669 30.9852814,27.5147186 L33.5308658,24.9691342 C36.3539105,27.792179 38.1,31.692179 38.1,36 C38.1,40.307821 36.3539105,44.207821 33.5308658,47.0308658 L30.9852814,44.4852814 Z M27.5911688,41.0911688 L22.5,36 L27.5911688,30.9088312 C28.8941125,32.2117749 29.7,34.0117749 29.7,36 C29.7,37.9882251 28.8941125,39.7882251 27.5911688,41.0911688 Z" id="Combined-Shape" fill="#000000" fill-rule="nonzero"></path>
            <g id="Group-12" transform="translate(22.500000, 18.000000)"></g>
        </g>
    </g>
</svg>