<?xml version="1.0" encoding="UTF-8"?>
<svg width="72px" height="72px" viewBox="0 0 72 72" version="1.1" xmlns="http://www.w3.org/2000/svg" xmlns:xlink="http://www.w3.org/1999/xlink">
    <!-- Generator: Sketch 50.2 (55047) - http://www.bohemiancoding.com/sketch -->
    <title>icons_filled_discover_hl</title>
    <desc>Created with Sketch.</desc>
    <defs></defs>
    <g id="icons_filled_discover_hl" stroke="none" stroke-width="1" fill="none" fill-rule="evenodd">
        <g id="common_icons_discover" fill="#00C777" fill-rule="nonzero">
            <path d="M36,66 C19.4314575,66 6,52.5685425 6,36 C6,19.4314575 19.4314575,6 36,6 C52.5685425,6 66,19.4314575 66,36 C66,52.5685425 52.5685425,66 36,66 Z M30.6966991,30.6966991 L21.6070256,48.3730503 C21.2281798,49.1097777 21.5183001,50.0141286 22.2550276,50.3929744 C22.6855421,50.614357 23.1964352,50.614357 23.6269497,50.3929744 L41.3033009,41.3033009 L50.3929744,23.6269497 C50.7718202,22.8902223 50.4816999,21.9858714 49.7449724,21.6070256 C49.3144579,21.385643 48.8035648,21.385643 48.3730503,21.6070256 L30.6966991,30.6966991 Z" id="Combined-Shape"></path>
        </g>
    </g>
</svg>