<?xml version="1.0" encoding="UTF-8"?>
<svg width="72px" height="72px" viewBox="0 0 72 72" version="1.1" xmlns="http://www.w3.org/2000/svg" xmlns:xlink="http://www.w3.org/1999/xlink">
    <!-- Generator: Sketch 50.2 (55047) - http://www.bohemiancoding.com/sketch -->
    <title>icons_outlined_news</title>
    <desc>Created with Sketch.</desc>
    <defs></defs>
    <g id="icons_outlined_news" stroke="none" stroke-width="1" fill="none" fill-rule="evenodd">
        <g id="common_icons_news" fill="#000000" fill-rule="nonzero">
            <path d="M23.2592195,14.4354255 L31.8445686,5.94526341 C34.0388468,3.77531359 37.5818321,3.77531359 39.7761103,5.94526341 L48.3614597,14.4354258 L60.092003,17.5470193 C63.0860006,18.3334826 64.8732238,21.3941158 64.0720173,24.3769594 L60.927946,35.9685868 L64.0731687,47.5644789 C64.8732238,50.543057 63.0860006,53.6036902 60.096193,54.3890474 L48.4468922,57.4790858 L39.7761103,66.023323 C37.5818321,68.1932728 34.0388468,68.1932728 31.8445686,66.023323 L23.2592192,57.5331606 L11.5286759,54.421567 C8.53467827,53.6351038 6.74745511,50.5744706 7.54866158,47.591627 L10.6928989,35.9993878 L7.54751024,24.3726939 C6.74745511,21.3941158 8.53467827,18.3334826 11.5244859,17.5481254 L23.2592195,14.4354255 Z M25.9929643,19.1695044 L26.0158206,27.1727749 C26.0158206,29.1622029 24.947032,31.0086622 23.2222399,32.0228438 L16.2073938,35.9999504 L23.1908813,39.9591388 C24.9336799,40.9373278 26.0158206,42.7939612 26.0158206,44.7958115 L25.9929633,52.7991088 L32.9920236,48.7729677 C34.7275677,47.752464 36.8782132,47.752464 38.6423986,48.7625103 L45.6277522,52.7808321 L45.6048583,44.7643979 C45.6048583,42.7999252 46.6792121,40.9566519 48.3984391,39.9457426 L55.4132852,35.968636 L48.4297976,32.0094476 C46.686999,31.0312585 45.6048583,29.1746252 45.6048583,27.1727749 L45.6277156,19.1694775 L38.6286553,23.1956187 C36.8928512,24.2162753 34.7372488,24.2178629 33.0001388,23.2003812 L25.9929643,19.1695044 Z M22.415828,27.1779166 L22.3907259,18.390293 L12.4432954,21.0288969 C11.3754978,21.3093859 10.7431643,22.3922618 11.0234318,23.4356993 L13.6891769,33.2894175 L21.4078702,28.9134298 C22.0326053,28.5412693 22.4158207,27.8753912 22.415828,27.1779166 Z M21.4221331,43.0946563 L13.6878082,38.7098065 L11.0242742,48.5297619 C10.7431643,49.5763246 11.3754978,50.6592004 12.4474855,50.9407955 L22.3907259,53.5782924 L22.4158194,44.7936587 C22.4150408,44.0917261 22.0334865,43.4378126 21.4221331,43.0946563 Z M34.8019323,51.8848701 L27.1300943,56.2980946 L34.3759234,63.463588 C35.167631,64.2465178 36.453048,64.2465178 37.2470306,63.4613421 L44.5185721,56.2959211 L36.852347,51.8859254 C36.2026152,51.5145519 35.4314444,51.5148103 34.8019323,51.8848701 Z M49.204851,44.7592562 L49.2299531,53.5468798 L59.1773835,50.9082759 C60.2451812,50.6277868 60.8775146,49.544911 60.597556,48.5026138 L57.9328698,38.6783934 L50.2128107,43.0551555 C49.5901387,43.4260925 49.2048583,44.0908 49.204851,44.7592562 Z M50.1985458,28.8739301 L57.9328707,33.2587799 L60.5964047,23.4388245 C60.8775146,22.3922618 60.2451812,21.3093859 59.1731934,21.0277908 L49.2299531,18.390294 L49.2048595,27.1749277 C49.2056382,27.8768603 49.5871924,28.5307738 50.1985458,28.8739301 Z M34.8019323,20.0837163 C35.4289201,20.4522917 36.1917588,20.4522917 36.8187467,20.0837163 L44.4905846,15.6704918 L37.2447555,8.50499837 C36.453048,7.72206861 35.167631,7.72206861 34.3759234,8.50499837 L27.1300943,15.6704918 L34.8019323,20.0837163 Z" id="Combined-Shape"></path>
        </g>
    </g>
</svg>