<?xml version="1.0" encoding="UTF-8" standalone="no"?>
<svg width="96px" height="96px" viewBox="0 0 96 96" version="1.1" xmlns="http://www.w3.org/2000/svg" xmlns:xlink="http://www.w3.org/1999/xlink" xmlns:sketch="http://www.bohemiancoding.com/sketch/ns">
    <!-- Generator: Sketch 3.3.3 (12081) - http://www.bohemiancoding.com/sketch -->
    <title>login_showpassword_icon_activa</title>
    <desc>Created with Sketch.</desc>
    <defs></defs>
    <g id="Page-1" stroke="none" stroke-width="1" fill="none" fill-rule="evenodd" sketch:type="MSPage">
        <g id="#45c01aff" sketch:type="MSLayerGroup" transform="translate(14.000000, 27.000000)" fill="#45C01A">
            <path d="M0,21 C6.57101025,9.04351942 19.2450952,0.234674836 33,0 C47.5203514,-0.53522418 61.1103953,8.48359287 68,21 C61.5783309,32.6004296 49.4617862,41.2792912 36,42 C21.2163982,42.9590709 7.01903367,33.8502656 0,21 L0,21 Z M30,10 C25.9254236,10.9985323 22.4417373,15.1902543 22,20 C21.2239443,26.6576078 27.203108,33.1747374 34,33 C40.8084504,33.2046783 46.7676503,26.6675881 46,20 C45.479984,12.5654379 37.3547098,7.15612058 30,10 L30,10 Z" id="Shape" sketch:type="MSShapeGroup"></path>
        </g>
    </g>
</svg>