<?xml version="1.0" encoding="UTF-8"?>
<svg width="48px" height="48px" viewBox="0 0 20 20" version="1.1" xmlns="http://www.w3.org/2000/svg" xmlns:xlink="http://www.w3.org/1999/xlink">
    <!-- Generator: Sketch 50.2 (55047) - http://www.bohemiancoding.com/sketch -->
    <title>默认勾选</title>
    <desc>Created with Sketch.</desc>
    <defs></defs>
    <g id="C（增加隐私功能）-hom" stroke="none" stroke-width="1" fill="none" fill-rule="evenodd">
        <g id="默认勾选" fill="#000000">
            <path d="M19.5,10.1234568 C19.5,4.75317941 15.2468206,0.5 9.87654321,0.5 C4.71724997,0.5 0.5,4.78979607 0.5,10.1234568 C0.5,15.2468206 4.75317941,19.5 9.87654321,19.5 C15.2102039,19.5 19.5,15.28275 19.5,10.1234568 Z" id="Fill-3" stroke="#C9C9C9" fill-opacity="0.0500000007"></path>
            <path d="M5.45643521,10.3688304 L5.50693805,10.3001121 C5.66335898,10.0872732 5.96270325,10.0415373 6.1755422,10.1979583 C6.17813168,10.1998613 6.18070191,10.2017905 6.1832525,10.2037453 L8.3418352,11.8581752 C8.51923828,11.9941445 8.76715979,11.9891051 8.93889103,11.846039 L15.0176202,6.78196597 C15.1948266,6.63433874 15.4551535,6.64535304 15.6192568,6.80742092 L15.6192568,6.80742092 C15.7767589,6.96296947 15.7783425,7.21674715 15.622794,7.37424924 C15.6214582,7.37560184 15.6201127,7.37694492 15.6187578,7.37827838 L8.9890175,13.9029331 C8.80075896,14.0882076 8.49795059,14.0857886 8.31267607,13.8975301 C8.31164898,13.8964865 8.31062669,13.8954381 8.30960923,13.8943851 L5.49787515,10.9843797 C5.33587921,10.8167219 5.31837328,10.5566886 5.45643521,10.3688304 Z" id="Fill-36" opacity="0.300000012"></path>
        </g>
    </g>
</svg>