<?xml version="1.0" encoding="UTF-8"?>
<svg width="96px" height="96px" viewBox="0 0 96 96" version="1.1" xmlns="http://www.w3.org/2000/svg" xmlns:xlink="http://www.w3.org/1999/xlink">
    <!-- Generator: Sketch 41.2 (35397) - http://www.bohemiancoding.com/sketch -->
    <title>connectkeyboad_banner_icon_music</title>
    <desc>Created with Sketch.</desc>
    <defs></defs>
    <g id="安卓手机登录" stroke="none" stroke-width="1" fill="none" fill-rule="evenodd">
        <g id="connectkeyboad_banner_icon_music" fill="#6F7378">
            <g id="Page-1" transform="translate(20.000000, 16.000000)">
                <path d="M53,46.7158 C53,48.5108 51.705,50.4728 49.974,51.3188 C49.355,51.5178 46.938,52.0728 46.36,52.1898 C45.499,52.3608 44.713,52.1748 44.02,51.6328 C43.17,50.9718 42.587,49.8498 42.534,48.7778 C42.435,46.7368 43.718,45.0968 44.979,44.8438 L50.365,43.7648 C51.329,43.5708 52.227,43.1428 53,42.5478 L53,46.7158 Z M13.471,55.4638 C13.471,57.2588 12.174,59.2228 10.446,60.0668 C9.822,60.2678 7.39,60.8258 6.832,60.9378 C5.972,61.1088 5.185,60.9208 4.489,60.3808 C3.641,59.7188 3.058,58.5988 3.006,57.5248 C2.906,55.4858 4.187,53.8458 5.449,53.5928 L10.835,52.5128 C11.8,52.3198 12.697,51.8908 13.471,51.2958 L13.471,55.4638 Z M13.161,9.3678 L13.161,13.2228 L13.178,13.2188 L13.178,45.9798 C13.178,47.6388 11.86,49.2478 10.245,49.5708 L4.859,50.6508 C2.161,51.1918 -0.164,54.1378 0.009,57.6718 C0.182,61.2058 3.328,64.6998 7.421,63.8788 C7.847,63.7938 11.11,63.0668 11.626,62.8268 C14.405,61.5358 16.471,58.5378 16.471,55.4638 L16.471,52.1628 L16.471,12.4988 L52.708,4.5748 L52.708,37.2318 C52.708,38.8898 51.389,40.4988 49.775,40.8228 L44.388,41.9028 C41.691,42.4438 39.365,45.3898 39.539,48.9238 C39.712,52.4568 42.857,55.9518 46.951,55.1308 C47.377,55.0448 50.639,54.3188 51.156,54.0788 C53.934,52.7868 56,49.7898 56,46.7158 L56,43.4148 L56,3.3078 L56,-0.0002 L13.161,9.3678 Z" id="Fill-1"></path>
            </g>
        </g>
    </g>
</svg>