<?xml version="1.0" encoding="UTF-8" standalone="no"?>
<svg width="96px" height="84px" viewBox="0 0 96 84" version="1.1" xmlns="http://www.w3.org/2000/svg" xmlns:xlink="http://www.w3.org/1999/xlink">
    <!-- Generator: Sketch 3.7.2 (28276) - http://www.bohemiancoding.com/sketch -->
    <title>2</title>
    <desc>Created with Sketch.</desc>
    <defs></defs>
    <g id="Tabbar" stroke="none" stroke-width="1" fill="none" fill-rule="evenodd">
        <g id="-" transform="translate(-426.000000, -155.000000)">
            <g id="Group-2" transform="translate(426.000000, 155.000000)">
                <rect id="Rectangle-234" x="0" y="0" width="96" height="84"></rect>
                <path d="M41.155,11.1273507 C43.969,10.7323507 46.897,11.2663507 49.409,12.5883507 C52.496,14.1873507 54.952,16.8553507 56.559,19.9143507 C58.526,23.6243507 59.287,27.9263507 58.903,32.0953507 C58.46,36.9713507 56.359,41.7823507 52.706,45.1033507 C52.143,45.6133507 51.542,46.1223507 51.19,46.8103507 C50.932,47.3003507 51.012,47.8693507 51,48.4013507 C51.009,48.7783507 50.939,49.1973507 51.174,49.5243507 C51.647,50.2283507 52.41,50.6543507 53.124,51.0763507 C58.028,54.1403507 62.932,57.2063507 67.836,60.2713507 C68.166,60.4723507 68.483,60.6983507 68.837,60.8583507 C70.464,61.6223507 71.851,62.8873507 72.758,64.4383507 C73.552,65.7803507 73.984,67.3333507 73.998,68.8923507 C74.003,70.2613507 73.998,71.6293507 74,72.9983507 L12,72.9983507 C12.001,71.6313507 11.999,70.2643507 12.001,68.8973507 C12.018,67.1433507 12.561,65.3993507 13.551,63.9503507 C14.462,62.5993507 15.751,61.5073507 17.23,60.8273507 C17.452,60.7233507 17.658,60.5903507 17.864,60.4593507 C22.951,57.2783507 28.039,54.1003507 33.126,50.9193507 C33.645,50.5883507 34.148,50.2233507 34.576,49.7783507 C34.799,49.5373507 35.026,49.2473507 35,48.8993507 C34.997,48.4303507 35.01,47.9613507 34.992,47.4933507 C34.973,47.0743507 34.778,46.6863507 34.529,46.3583507 C34.019,45.6773507 33.325,45.1733507 32.734,44.5713507 C30.121,41.9703507 28.375,38.5673507 27.558,34.9873507 C26.664,31.0483507 26.842,26.8643507 28.112,23.0283507 C29.173,19.8363507 31.014,16.8723507 33.561,14.6573507 C35.693,12.7993507 38.34,11.4983507 41.155,11.1273507 L41.155,11.1273507 Z M37.537,16.6423507 C35.203,18.1363507 33.471,20.4433507 32.395,22.9743507 C30.925,26.4583507 30.627,30.4063507 31.454,34.0893507 C32.234,37.5853507 34.128,40.9153507 37.059,43.0403507 C38.24,43.8613507 38.985,45.2593507 39.004,46.6983507 C38.995,47.7993507 39.004,48.9003507 38.999,50.0013507 C38.997,50.4963507 38.916,50.9933507 38.732,51.4553507 C38.297,52.5883507 37.329,53.3993507 36.328,54.0273507 C30.816,57.5223507 25.315,61.0363507 19.767,64.4743507 C19.065,64.9273507 18.3,65.3003507 17.693,65.8863507 C16.837,66.6743507 16.258,67.8153507 16.326,68.9983507 C34.109,68.9983507 51.892,68.9993507 69.674,68.9973507 C69.693,67.9723507 69.242,66.9873507 68.572,66.2303507 C67.782,65.3043507 66.668,64.7703507 65.662,64.1233507 C60.332,60.8053507 55.038,57.4323507 49.737,54.0693507 C48.995,53.5973507 48.267,53.0643507 47.753,52.3403507 C47.279,51.6933507 47.013,50.8993507 47.004,50.0973507 C46.992,48.9973507 47.008,47.8973507 46.995,46.7963507 C46.991,45.4733507 47.583,44.1523507 48.606,43.3053507 C49.047,42.9463507 49.514,42.6193507 49.937,42.2363507 C51.451,40.8933507 52.627,39.1953507 53.46,37.3553507 C55.112,33.6633507 55.424,29.4103507 54.447,25.4943507 C53.692,22.4753507 52.113,19.6053507 49.725,17.5753507 C48.017,16.1173507 45.859,15.1493507 43.605,15.0203507 C41.475,14.8763507 39.324,15.4863507 37.537,16.6423507 Z M68,27.9983507 L84,27.9983507 L84,31.9983507 L68,31.9983507 L68,27.9983507 Z M64,39.9983507 L84,39.9983507 L84,43.9983507 L64,43.9983507 L64,39.9983507 Z M68,51.9983507 L84,51.9983507 L84,55.9983507 L68,55.9983507 L68,51.9983507 Z" id="Combined-Shape" fill="#1AAD19"></path>
            </g>
        </g>
    </g>
</svg>