<?xml version="1.0" encoding="UTF-8"?>
<svg width="90px" height="90px" viewBox="0 0 90 90" version="1.1" xmlns="http://www.w3.org/2000/svg" xmlns:xlink="http://www.w3.org/1999/xlink" style="background: #FFFFFF;">
    <!-- Generator: Sketch 46 (44423) - http://www.bohemiancoding.com/sketch -->
    <title>朋友圈卡片</title>
    <desc>Created with Sketch.</desc>
    <defs></defs>
    <g id="Page-2" stroke="none" stroke-width="1" fill="none" fill-rule="evenodd">
        <g id="朋友圈卡片">
            <g id="Group" fill="#FFFFFF">
                <rect id="Rectangle-525" x="0" y="0" width="90" height="90" rx="4"></rect>
            </g>
            <g id="Group-3" transform="translate(25.000000, 23.000000)">
                <path d="M1.33048904,10.2189085 L18.6996404,20.085167 C19.4192167,20.4939104 20.5895437,20.4918296 21.3054568,20.085167 L38.6746082,10.2189085 C39.3941845,9.81016515 39.3797052,9.1835291 38.6358856,8.81612532 L21.3441793,0.275023818 C20.6032171,-0.0909685719 19.4047375,-0.0923799611 18.6609179,0.275023818 L1.36921155,8.81612532 C0.628249394,9.18211771 0.614575945,9.81224598 1.33048904,10.2189085 Z" id="Path" fill="#00B1FE"></path>
                <path d="M22.3059469,22.0624091 C21.5846924,22.4681636 21,23.4696709 21,24.2947159 L21,42.5973179 C21,43.4244324 21.5790066,43.7470577 22.2835687,43.3237368 L38.7164313,33.4504066 C39.4253267,33.0244821 40,32.006467 40,31.1832241 L40,13.604286 C40,12.7780802 39.4105331,12.439923 38.6940531,12.8429914 L22.3059469,22.0624091 L22.3059469,22.0624091 Z" id="Path" fill="#FA5452"></path>
                <path d="M17.6940531,22.0624091 C18.4153076,22.4681636 19,23.4696709 19,24.2947159 L19,42.5973179 C19,43.4244324 18.4209934,43.7470577 17.7164313,43.3237368 L1.28356871,33.4504066 C0.574673285,33.0244821 0,32.006467 0,31.1832241 L0,13.604286 C0,12.7780802 0.589466929,12.439923 1.30594695,12.8429914 L17.6940531,22.0624091 L17.6940531,22.0624091 Z" id="Path" fill="#FFC817"></path>
            </g>
        </g>
    </g>
</svg>