<?xml version="1.0" encoding="UTF-8" standalone="no"?>
<svg width="96px" height="96px" viewBox="0 0 96 96" version="1.1" xmlns="http://www.w3.org/2000/svg" xmlns:xlink="http://www.w3.org/1999/xlink" xmlns:sketch="http://www.bohemiancoding.com/sketch/ns">
    <!-- Generator: Sketch 3.3.3 (12081) - http://www.bohemiancoding.com/sketch -->
    <title>ofm_groupmessage_icon</title>
    <desc>Created with Sketch.</desc>
    <defs></defs>
    <g id="Page-1" stroke="none" stroke-width="1" fill="none" fill-rule="evenodd" sketch:type="MSPage">
        <g id="#ffffffff" sketch:type="MSLayerGroup" transform="translate(19.000000, 19.000000)" fill="#FFFFFF">
            <path d="M1,5 C1.0122918,2.44201304 3.55991866,0.722163962 6,1 C21.2834091,1.04028633 36.6790679,1.04028633 52,1 C54.412549,0.712222637 57.0001386,2.42213039 57,5 C57.0401014,17.5727084 56.9601759,30.2478967 57,43 C57.2199339,44.9709978 55.881181,47.1978544 54,47 C49.0975,47.8937471 44.4518275,47.4165635 40,48 C34.5110874,48.0329256 32.6528184,53.9977201 29,57 C25.9990165,54.3655491 24.1807102,50.5381393 21,48 C15.4588347,46.8300254 9.77413007,48.1522215 4,47 C2.1012774,47.1779717 0.772515154,44.9212912 1,43 C1.05225457,30.1981901 0.972329026,17.5528258 1,5 L1,5 Z M26,12 C22.0311108,13.3565302 21.9612023,19.3734471 24,23 C24.7375707,24.3426421 26.4952716,25.8593441 25,28 C22.5803924,30.1500145 18.6055915,31.0979533 16,34 C14.5508952,34.7300557 15.1700853,36.4463238 15,38 C23.0298045,38.2025052 30.9993801,37.8432863 39,38 C40.4669962,37.9231127 43.4031556,38.4719194 43,36 C42.2147101,30.4194287 33.4461796,31.1977364 32,26 C33.4262057,23.1851589 35.6932404,20.3812557 35,17 C35.2238543,12.5482877 30.070595,9.73440615 26,12 L26,12 Z M11,17 C10.0190113,19.9320353 12.6825786,22.2272035 13,25 C10.49501,27.8398419 4.47919664,28.1605641 5,33 C7.90233626,33.0014648 10.7684561,33.041555 14,33 C16.2171221,30.9668833 19.1136249,29.463498 22,28 C20.3897065,27.0380364 18.7996683,26.0458021 17,25 C18.6274985,21.9565941 20.7543013,18.5890111 19,15 C17.4020551,11.5431453 10.8393495,12.665673 11,17 L11,17 Z M39,15 C37.2539417,18.590093 39.3674403,21.9569347 41,25 C39.1955289,26.0452424 37.6179893,27.0272379 36,28 C38.8921559,29.4621859 41.7843118,30.9652402 44,33 C47.2349133,33.0394552 50.1068444,33.0093941 53,33 C53.4843971,28.1595388 47.4978366,27.8388872 45,25 C45.3236634,22.2274845 47.9731209,19.9228012 47,17 C47.1135641,12.6981201 40.5809323,11.5257378 39,15 L39,15 Z" id="Shape" sketch:type="MSShapeGroup"></path>
        </g>
    </g>
</svg>