<?xml version="1.0" encoding="UTF-8" standalone="no"?>
<svg width="96px" height="96px" viewBox="0 0 96 96" version="1.1" xmlns="http://www.w3.org/2000/svg" xmlns:xlink="http://www.w3.org/1999/xlink" xmlns:sketch="http://www.bohemiancoding.com/sketch/ns">
    <!-- Generator: Sketch 3.3.3 (12081) - http://www.bohemiancoding.com/sketch -->
    <title>ofm_gamecenter_icon</title>
    <desc>Created with Sketch.</desc>
    <defs></defs>
    <g id="Page-1" stroke="none" stroke-width="1" fill="none" fill-rule="evenodd" sketch:type="MSPage">
        <g id="#ffffffff" sketch:type="MSLayerGroup" transform="translate(18.000000, 18.000000)" fill="#FFFFFF">
            <path d="M23,7.10542736e-15 C25.038055,-0.452121545 27.0333888,0.897972828 27,3 C27.1039309,7.22528079 26.9124595,11.7994811 27,16 C21.813273,17.7439265 17.7419857,21.8244356 16,27 C11.7862164,26.9124778 7.21105698,27.1039091 3,27 C0.28785313,27.0736831 -0.971827337,23.7185979 1,22 C7.19090209,15.7691616 13.7412405,9.50230562 20,3 C21.1179293,1.98610859 22.1055188,0.847596172 23,7.10542736e-15 L23,7.10542736e-15 Z" id="Shape" sketch:type="MSShapeGroup"></path>
            <path d="M33,3 C32.901677,0.267210376 36.2878266,-0.963187859 38,1 C44.8942901,7.95215673 51.9991574,15.0622449 59,22 C60.9885783,23.6548621 59.7389279,27.093926 57,27 C52.77515,27.1040112 48.199817,26.9123918 44,27 C42.2538996,21.81935 38.1824579,17.724746 33,16 C33.0830779,11.7845447 32.901677,7.21593484 33,3 L33,3 Z" id="Shape" sketch:type="MSShapeGroup"></path>
            <path d="M1,38 C-0.680848635,36.5243716 -0.106408045,33.781909 2,33 C6.65586627,32.8038984 11.5134165,33.1467062 16,33 C17.7415619,38.1879978 21.8130355,42.2815265 27,44 C26.9124555,48.2302506 27.1039357,52.7976607 27,57 C27.0837799,59.7243953 23.7479933,60.9443879 22,59 C15.1213065,52.0616322 7.98614974,44.9634936 1,38 L1,38 Z" id="Shape" sketch:type="MSShapeGroup"></path>
            <path d="M44,33 C48.4787131,33.1444084 53.3140781,32.8015331 58,33 C60.0835891,33.7192289 60.6880097,36.4824009 59,38 C52.0347211,44.9332699 44.9025578,52.0428912 38,59 C36.4708901,60.6551133 33.7308499,60.100462 33,58 C32.8040716,53.3438006 33.1465766,48.4931228 33,44 C38.1934888,42.2709436 42.2733281,38.1967776 44,33 L44,33 Z" id="Shape" sketch:type="MSShapeGroup"></path>
        </g>
    </g>
</svg>