<?xml version="1.0" encoding="UTF-8" standalone="no"?>
<svg width="96px" height="96px" viewBox="0 0 96 96" version="1.1" xmlns="http://www.w3.org/2000/svg" xmlns:xlink="http://www.w3.org/1999/xlink" xmlns:sketch="http://www.bohemiancoding.com/sketch/ns">
    <!-- Generator: Sketch 3.3.3 (12081) - http://www.bohemiancoding.com/sketch -->
    <title>ofm_emostore_icon</title>
    <desc>Created with Sketch.</desc>
    <defs></defs>
    <g id="Page-1" stroke="none" stroke-width="1" fill="none" fill-rule="evenodd" sketch:type="MSPage">
        <g id="#ffffffff" sketch:type="MSLayerGroup" transform="translate(16.000000, 16.000000)" fill="#FFFFFF">
            <path d="M24.45,1.72 C40.07,-2.09 57.26,8.51 60.97,24.12 C65.19,38.86 56.54,55.72 42.15,60.92 C28.52,66.5 11.52,60.56 4.31,47.73 C-2.87,36 -0.8,19.65 9.09,10.08 C13.27,5.9 18.67,2.96 24.45,1.72 L24.45,1.72 Z M17.17,17.07 C13.49,18.92 13.95,25.17 17.95,26.36 C21.46,27.53 24.61,23.5 23.56,20.23 C23.05,17.48 19.71,15.55 17.17,17.07 L17.17,17.07 Z M41.36,17.28 C38.2,19.32 38.58,24.76 42.09,26.21 C45.34,27.7 48.8,24.25 48.24,20.98 C48.14,17.74 44.14,15.22 41.36,17.28 L41.36,17.28 Z M10.9,36.58 C12.04,40.99 14.08,45.33 17.62,48.33 C23.73,53.55 32.94,54.15 40.17,51.04 C46.02,48.47 49.67,42.62 51.09,36.57 C44.43,35.73 37.76,34.82 31.03,34.74 C24.29,34.82 17.59,35.73 10.9,36.58 L10.9,36.58 Z" id="Shape" sketch:type="MSShapeGroup"></path>
        </g>
    </g>
</svg>