<?xml version="1.0" encoding="UTF-8" standalone="no"?>
<svg width="96px" height="96px" viewBox="0 0 96 96" version="1.1" xmlns="http://www.w3.org/2000/svg" xmlns:xlink="http://www.w3.org/1999/xlink" xmlns:sketch="http://www.bohemiancoding.com/sketch/ns">
    <!-- Generator: Sketch 3.3.3 (12081) - http://www.bohemiancoding.com/sketch -->
    <title>ofm_radar_icon</title>
    <desc>Created with Sketch.</desc>
    <defs></defs>
    <g id="Page-1" stroke="none" stroke-width="1" fill="none" fill-rule="evenodd" sketch:type="MSPage">
        <g id="#ffffffff" sketch:type="MSLayerGroup" transform="translate(16.000000, 27.000000)" fill="#FFFFFF">
            <path d="M7,1 C10.5264939,-1.38533476 15.4768206,1.57662897 14,5 C7.39298807,12.569689 5.92320033,23.5229911 11,32 C11.9350405,34.3868379 14.650065,36.6331594 14,40 C12.9148989,42.3185394 8.9648444,42.7956342 7,41 C-2.66076834,29.5164949 -2.18104596,11.8341678 7,1 L7,1 Z" id="Shape" sketch:type="MSShapeGroup"></path>
            <path d="M51,2 C51.8179196,-0.550293914 54.6040086,-0.161870438 57,1 C66.1769937,11.769702 66.6566501,29.4678691 57,41 C55.2367467,42.5049544 51.8383305,42.5049544 51,40 C49.1338851,38.0629834 50.8279905,35.7125234 52,34 C57.3900976,26.2509259 57.5125631,15.4447856 52,8 C50.9912778,6.01306687 48.9603924,3.78212178 51,2 L51,2 Z" id="Shape" sketch:type="MSShapeGroup"></path>
            <path d="M18,7 C20.8196089,5.52119041 24.6817556,10.0513954 22,13 C19.615078,16.2370582 18.6686609,20.8763053 20,25 C20.6953319,26.9925776 23.0852742,28.1127377 23,30 C22.9896765,33.4260634 19.0606114,35.2103893 17,33 C11.5848721,25.7038979 11.508394,14.2148223 18,7 L18,7 Z" id="Shape" sketch:type="MSShapeGroup"></path>
            <path d="M43,7 C44.4833607,6.77822344 45.848653,6.9965995 47,8 C51.1570622,13.7662572 52.436427,22.2233661 49,29 C48.1305051,30.9584083 47.3667053,33.9164112 45,34 C41.7623236,34.3630895 39.6714215,29.975716 42,28 C45.8200105,23.7917032 45.0180206,16.9724147 42,13 C40.2060814,11.0266303 41.2181162,7.97929174 43,7 L43,7 Z" id="Shape" sketch:type="MSShapeGroup"></path>
            <path d="M30,13 C35.0267011,11.3798923 41.0303394,16.4277662 40,22 C39.2392539,27.1483001 31.9548395,29.9945472 28,26 C23.1895275,23.1020671 24.520334,15.1583598 30,13 L30,13 Z" id="Shape" sketch:type="MSShapeGroup"></path>
        </g>
    </g>
</svg>