<?xml version="1.0" encoding="UTF-8" standalone="no"?>
<svg width="96px" height="96px" viewBox="0 0 96 96" version="1.1" xmlns="http://www.w3.org/2000/svg" xmlns:xlink="http://www.w3.org/1999/xlink" xmlns:sketch="http://www.bohemiancoding.com/sketch/ns">
    <!-- Generator: Sketch 3.3.3 (12072) - http://www.bohemiancoding.com/sketch -->
    <title>ofm_camera_icon</title>
    <desc>Created with Sketch.</desc>
    <defs></defs>
    <g id="Page-1" stroke="none" stroke-width="1" fill="none" fill-rule="evenodd" sketch:type="MSPage">
        <g id="camera" sketch:type="MSLayerGroup" transform="translate(15.000000, 21.000000)" fill="#FFFFFF">
            <g id="操作栏" sketch:type="MSShapeGroup">
                <g id="actionbar_camera_icon">
                    <path d="M51.3620257,6 L61.9954293,6 C64.2004301,6 66,7.7952903 66,10.0098932 L66,49.9901068 C66,52.2059475 64.2070926,54 61.9954293,54 L4.0045707,54 C1.7995699,54 0,52.2047097 0,49.9901068 L0,10.0098932 C0,7.7940525 1.7929074,6 4.0045707,6 L14.6379743,6 L21,0 L45,0 L51.3620257,6 L51.3620257,6 Z M33,48 C44.045695,48 53,39.045695 53,28 C53,16.954305 44.045695,8 33,8 C21.954305,8 13,16.954305 13,28 C13,39.045695 21.954305,48 33,48 L33,48 Z M33,41 C40.1797017,41 46,35.1797017 46,28 C46,20.8202983 40.1797017,15 33,15 C25.8202983,15 20,20.8202983 20,28 C20,35.1797017 25.8202983,41 33,41 L33,41 Z" id="camera"></path>
                </g>
            </g>
        </g>
    </g>
</svg>