<?xml version="1.0" encoding="UTF-8"?>
<svg width="192px" height="192px" viewBox="0 0 192 192" version="1.1" xmlns="http://www.w3.org/2000/svg" xmlns:xlink="http://www.w3.org/1999/xlink">
    <!-- Generator: Sketch 50.2 (55047) - http://www.bohemiancoding.com/sketch -->
    <title>chatromm_toolpanel_icon_friendcard@3x</title>
    <desc>Created with Sketch.</desc>
    <defs></defs>
    <g id="chatromm_toolpanel_icon_friendcard" stroke="none" stroke-width="1" fill="none" fill-rule="evenodd">
        <g id="Picture" transform="translate(48.000000, 48.000000)" fill="#333333">
            <g id="ICON" transform="translate(12.000000, 12.000000)">
                <path d="M3.0020839,68.2105263 C1.34407874,68.2105263 2.12812937e-14,66.872334 1.42513564e-14,65.2056943 L0,61.8270189 C-1.17800506e-14,59.2308923 1.88772975,56.2051246 4.22184357,55.0661029 L25.6716029,44.5988577 C28.7824817,43.0807833 29.5058238,39.7184682 27.2593714,37.0558948 L25.8893534,35.4321018 C23.1018352,32.1282385 20.8421053,25.9559867 20.8421053,21.6352062 L20.8421053,15.1563046 C20.8421053,6.7857087 27.6455602,0 36,0 C44.3714741,0 51.1578947,6.79445138 51.1578947,15.1586809 L51.1578947,21.6385984 C51.1578947,25.9552268 48.8877438,32.1455761 46.1106461,35.4375399 L44.7406279,37.0615556 C42.5066491,39.7097078 43.2045008,43.0802436 46.3283962,44.6040393 L67.7781563,55.066955 C70.1098162,56.2043086 72,59.211171 72,61.8270189 L72,65.2056943 C72,66.8652172 70.6575923,68.2105263 68.9979161,68.2105263 L3.0020839,68.2105263 Z" id="Path-67"></path>
            </g>
        </g>
    </g>
</svg>