<?xml version="1.0" encoding="UTF-8" standalone="no"?>
<svg width="96px" height="96px" viewBox="0 0 96 96" version="1.1" xmlns="http://www.w3.org/2000/svg" xmlns:xlink="http://www.w3.org/1999/xlink" xmlns:sketch="http://www.bohemiancoding.com/sketch/ns">
    <!-- Generator: Sketch 3.3.3 (12072) - http://www.bohemiancoding.com/sketch -->
    <title>qqmail_attach_icon_pressed</title>
    <desc>Created with Sketch.</desc>
    <defs></defs>
    <g id="Page-1" stroke="none" stroke-width="1" fill="none" fill-rule="evenodd" sketch:type="MSPage">
        <path d="M62,28.5179036 L62,66 L67,66 L67,28.5179036 C66.9999791,28.5119407 67,28.5059728 67,28.5 C67,27.1192881 65.8807119,26 64.5,26 C63.1192881,26 62,27.1192881 62,28.5 C62,28.5059728 62.0000209,28.5119407 62.0000628,28.5179036 Z M40,39.4821429 L40,66 L45,66 L45,39.4821429 C44.9903365,38.1096503 43.8747546,37 42.5,37 C41.1252454,37 40.0096635,38.1096503 40.0000624,39.4821429 L40,39.4821429 Z M55.9974772,24 C55.8569998,16.7967998 49.8677658,11 42.5,11 C35.1322342,11 29.1430002,16.7967998 29.0025228,24 L34.0144618,24 C34.2732707,19.5383103 37.973427,16 42.5,16 C47.026573,16 50.7267293,19.5383103 50.9855382,24 L55.9974772,24 L55.9974772,24 Z M67,66 C67,76.4934102 58.4934102,85 48,85 C37.5065898,85 29,76.4934102 29,66 L34,66 C34,73.7319865 40.2680135,80 48,80 C55.7319865,80 62,73.7319865 62,66 L67,66 L67,66 Z M56,66 C56,70.418278 52.418278,74 48,74 C43.581722,74 40,70.418278 40,66 L45,66 C45,67.6568542 46.3431458,69 48,69 C49.6568542,69 51,67.6568542 51,66 L56,66 L56,66 Z M29,24 L34,24 L34,66 L29,66 L29,24 Z M51,24 L56,24 L56,66 L51,66 L51,24 Z" id="Oval-1" fill="#5D6F93" sketch:type="MSShapeGroup" transform="translate(48.000000, 48.000000) rotate(-315.000000) translate(-48.000000, -48.000000) "></path>
    </g>
</svg>