<?xml version="1.0" encoding="UTF-8" standalone="no"?>
<svg width="78px" height="78px" viewBox="0 0 78 78" version="1.1" xmlns="http://www.w3.org/2000/svg" xmlns:xlink="http://www.w3.org/1999/xlink" xmlns:sketch="http://www.bohemiancoding.com/sketch/ns">
    <!-- Generator: Sketch 3.4.2 (15857) - http://www.bohemiancoding.com/sketch -->
    <title>gongzhonghao_hl</title>
    <desc>Created with Sketch.</desc>
    <defs></defs>
    <g id="search－new" stroke="none" stroke-width="1" fill="none" fill-rule="evenodd" sketch:type="MSPage">
        <g id="Artboard-45" sketch:type="MSArtboardGroup" transform="translate(-326.000000, -362.000000)">
            <g id="朋友圈-+-朋友圈-+-文章-+-文章-+-公众号-+-公众号-copy" sketch:type="MSLayerGroup" transform="translate(98.000000, 362.000000)">
                <g id="公众号-+-公众号" transform="translate(228.000000, 0.000000)" sketch:type="MSShapeGroup">
                    <g id="公众号">
                        <path d="M28.7209302,39.7906977 C33.1887195,47.180103 26.1407794,50.2334164 22.3953488,52.4418605 C10.5335402,59.1340258 5,61.8323028 5,65.0930233 L5,69.8372093 C5,71.6662979 6.15151157,73 8.1627907,73 L69.8372093,73 C71.8484884,73 73,71.6662979 73,69.8372093 L73,65.0930233 C73,61.8323028 67.4664598,59.1340258 55.6046512,52.4418605 C51.8592206,50.2334164 44.8112805,47.180103 49.2790698,39.7906977 C52.8262471,34.8382128 55.7678726,32.5577468 55.6046512,23.9767442 C55.7678726,14.3109316 49.1963512,5 39.7906977,5 C28.8036488,5 22.2321274,14.3109316 22.3953488,23.9767442 C22.2321274,32.5577468 25.1737529,34.8382128 28.7209302,39.7906977 Z" id="Path-3" stroke="#555555" stroke-width="3"></path>
                        <path d="M33.032785,62.0245212 C32.4952157,63.5925327 33.032785,65.7908198 34.2317968,66.9329301 L37.8624572,70.39129 C38.4659049,70.9660999 39.4416314,70.9806014 40.0611148,70.40576 L43.83273,66.9059402 C45.048246,65.7780184 45.5908233,63.6054577 45.0344505,62.0245212 L38.955096,44.75 L33.032785,62.0245212 Z" id="Path" fill="#555555"></path>
                    </g>
                </g>
            </g>
        </g>
    </g>
</svg>