<?xml version="1.0" encoding="UTF-8" standalone="no"?>
<svg width="60px" height="60px" viewBox="0 0 60 60" version="1.1" xmlns="http://www.w3.org/2000/svg" xmlns:xlink="http://www.w3.org/1999/xlink" xmlns:sketch="http://www.bohemiancoding.com/sketch/ns">
    <!-- Generator: Sketch 3.3.3 (12081) - http://www.bohemiancoding.com/sketch -->
    <title>sight_icon_location_normal</title>
    <desc>Created with Sketch.</desc>
    <defs></defs>
    <g id="Page-1" stroke="none" stroke-width="1" fill="none" fill-rule="evenodd" sketch:type="MSPage">
        <g id="sight_icon_location_normal" sketch:type="MSLayerGroup" transform="translate(12.000000, 6.000000)">
            <g id="#dddddddd" fill="#DDDDDD" opacity="0.87" sketch:type="MSShapeGroup">
                <path d="M13.4086459,1.68991885 C22.3190565,-1.12990417 32.5665275,5.02787189 34.522228,14.0851833 C36.098762,19.3461958 33.4845094,24.5175321 30.8902129,28.9515294 C27.1384611,35.0196291 22.7880254,40.7190594 17.988577,46 C11.8420899,39.0052447 5.84527383,31.6019637 2.09352201,23.0129622 C-1.61831757,14.4040325 4.60799398,3.93182761 13.4086459,1.68991885 L13.4086459,1.68991885 Z M3.26914744,20.0838233 C6.01925923,28.8869275 12.3555974,35.9133505 18.006926,43 C23.2754551,36.4955399 28.8461944,29.981042 32.0798423,22.1716747 C35.4243006,14.2719677 29.1786255,4.79633445 20.9786585,3.38101211 C11.3985988,0.971952797 1.20404519,10.3973973 3.26914744,20.0838233 L3.26914744,20.0838233 Z" id="Shape"></path>
            </g>
            <g id="#edededed" transform="translate(9.000000, 8.000000)" fill="#E2E2E2" opacity="0.93" sketch:type="MSShapeGroup">
                <path d="M7.29509928,0.192573994 C12.6207741,-1.0085815 18.1654486,3.58757549 17.9962215,9.01759249 C18.1754031,14.7454166 11.9239568,19.4706234 6.44896403,17.5745846 C1.84997009,16.3337214 -1.09657148,11.0327542 0.386653838,6.49615864 C1.27260722,3.30962215 4.05987627,0.837822816 7.29509928,0.192573994 L7.29509928,0.192573994 Z M6.40852844,2.55508146 C1.61624067,4.34910863 0.317490414,11.2946999 4.58625095,14.3515618 C8.46236606,18.0699086 15.2279488,15.0130467 15.9125613,10.0017976 C16.7783948,5.10079599 11.0397309,0.350131859 6.40852844,2.55508146 L6.40852844,2.55508146 Z" id="Shape"></path>
            </g>
        </g>
    </g>
</svg>