<?xml version="1.0" encoding="UTF-8" standalone="no"?>
<svg width="90px" height="90px" viewBox="0 0 90 90" version="1.1" xmlns="http://www.w3.org/2000/svg" xmlns:xlink="http://www.w3.org/1999/xlink" xmlns:sketch="http://www.bohemiancoding.com/sketch/ns">
    <!-- Generator: Sketch 3.3.3 (12081) - http://www.bohemiancoding.com/sketch -->
    <title>sight_icon_mention</title>
    <desc>Created with Sketch.</desc>
    <defs></defs>
    <g id="Page-1" stroke="none" stroke-width="1" fill="none" fill-rule="evenodd" sketch:type="MSPage">
        <g id="sight_icon_mention" sketch:type="MSLayerGroup" fill="#FFFFFF">
            <path d="M25,20 C37.3554715,8.72235833 58.4883418,9.41699809 70,22 C76.1421413,29.2796682 77.2753244,39.9811474 75,49 C73.5974495,53.7027994 70.824133,57.7901 67,60 C62.7228681,62.3908299 56.8183878,63.6593025 53,60 C51.7389444,58.9679674 51.9576288,57.1457964 52,56 C49.0053887,59.0082363 45.3970952,61.9680057 41,62 C36.5403749,62.7834524 31.8386591,59.8941537 31,55 C28.9560004,48.920859 31.0335027,41.9341925 34,36 C37.4349931,30.0951149 44.7112213,25.4641832 52,28 C54.5719021,28.9575164 55.6056831,31.9978238 57,34 C57.4943216,32.7226653 57.8621091,30.9508305 58,29 C58.8461891,29.1085251 60.168236,28.9675837 61,29 C58.4287006,36.1555951 56.5897632,43.5952875 54,51 C53.8263869,53.4511183 53.0311707,56.712905 55,59 C58.2895378,61.3337694 62.6135258,59.9847589 66,58 C69.8201726,55.7565169 72.0865388,51.2463921 73,47 C74.6113502,39.9610129 74.0248782,32.4407825 70,27 C61.0529141,12.1552881 38.8166812,10.0008982 27,22 C18.031718,29.3904079 13.956235,42.3872184 17,54 C19.015798,58.6156139 21.3517456,63.5284284 25,67 C32.176626,74.3607817 43.0412673,77.3306183 53,75 C59.3034384,73.7869488 65.2079187,70.1426069 70,65 C70.625329,63.6291008 71.9573161,64.4445475 73,66 C66.9971551,72.0050468 59.3431992,76.9279286 51,78 C38.4687742,79.4246048 24.910338,73.9278902 19,63 C10.666028,49.3537505 13.0119157,30.1051821 25,20 L25,20 Z M43,30 C37.2547542,32.7480234 34.1667447,38.9051245 33,45 C31.7952341,49.1228591 31.169559,54.5472143 35,58 C37.7088732,60.8264396 42.6839996,60.572014 46,58 C50.7774102,53.9874778 53.3406599,47.6777214 55,42 C55.0158546,38.3860961 55.5103398,34.7528976 53,32 C51.1608885,28.6568587 46.3270435,28.2803088 43,30 L43,30 Z" id="Shape" sketch:type="MSShapeGroup"></path>
        </g>
    </g>
</svg>