<?xml version="1.0" encoding="UTF-8" standalone="no"?>
<svg width="480px" height="480px" viewBox="0 0 480 480" version="1.1" xmlns="http://www.w3.org/2000/svg" xmlns:xlink="http://www.w3.org/1999/xlink" xmlns:sketch="http://www.bohemiancoding.com/sketch/ns">
    <!-- Generator: Sketch 3.3.3 (12072) - http://www.bohemiancoding.com/sketch -->
    <title>success_icon</title>
    <desc>Created with Sketch.</desc>
    <defs></defs>
    <g id="Page-1" stroke="none" stroke-width="1" fill="none" fill-rule="evenodd" sketch:type="MSPage">
        <g id="success_icon" sketch:type="MSLayerGroup" transform="translate(90.000000, 90.000000)">
            <g id="#53c84dff" fill="#53C84D" sketch:type="MSShapeGroup">
                <path d="M141.270397,0.263944633 C172.251749,-1.59630898 203.763124,6.41478319 229.954266,23.0870562 C255.805394,39.2992664 276.426294,63.6325838 288.266811,91.7464166 C300.647351,120.970401 303.297466,154.154925 295.897144,185.009131 C288.776833,214.993219 272.056103,242.57698 248.82509,262.829741 C228.124187,281.052225 202.29306,293.393908 175.071872,297.904523 C145.150566,302.975214 113.699194,298.804645 86.2479965,285.812874 C55.9966766,271.650943 30.7455749,247.05759 15.8549252,217.153514 C0.844270294,187.469467 -3.64592561,152.714729 2.97436323,120.150289 C9.45464597,87.7458712 27.1154165,57.7417807 52.2265121,36.2688532 C76.8675872,14.9059408 108.698976,2.03418597 141.270397,0.263944633 L141.270397,0.263944633 Z M215.608261,93.2258192 C185.548401,123.492424 155.538641,153.809172 125.488801,184.085806 C112.052043,170.587181 98.6854256,157.008326 85.2286282,143.529759 C82.7035999,140.731752 77.964162,140.75181 75.4291138,143.529759 C70.5594164,148.383648 65.6997391,153.247565 60.9102014,158.181684 C58.3350733,160.728972 58.3751531,165.251914 60.9603011,167.779146 C80.749709,187.806452 100.589217,207.773586 120.418704,227.770806 C122.963773,230.699185 127.88357,230.759357 130.468718,227.851035 C165.959392,192.118791 201.379928,156.316346 236.860583,120.584102 C239.074992,118.257445 242.191198,115.960873 241.990799,112.3706 C242.060938,109.642795 240.066968,107.616998 238.263376,105.861976 C233.834557,101.549637 229.626176,97.0166663 225.147257,92.7544704 C222.532049,90.1770955 218.00303,90.5280999 215.608261,93.2258192 L215.608261,93.2258192 Z" id="Shape"></path>
            </g>
            <g id="#ffffffff" transform="translate(58.000000, 90.000000)" fill="#FFFFFF" sketch:type="MSShapeGroup">
                <path d="M157.608261,3.22581915 C160.00303,0.528099907 164.532049,0.177095545 167.147257,2.75447044 C171.626176,7.01666627 175.834557,11.5496369 180.263376,15.8619762 C182.066968,17.616998 184.060938,19.6427946 183.990799,22.3706 C184.191198,25.9608732 181.074992,28.2574446 178.860583,30.584102 C143.379928,66.3163462 107.959392,102.118791 72.4687176,137.851035 C69.8835697,140.759357 64.9637726,140.699185 62.4187044,137.770806 C42.5892167,117.773586 22.749709,97.8064518 2.96030112,77.7791458 C0.375153148,75.2519144 0.335073335,70.7289724 2.91020135,68.1816836 C7.69973906,63.2475652 12.5594164,58.3836476 17.4291138,53.5297587 C19.964162,50.7518099 24.7035999,50.7317525 27.2286282,53.5297587 C40.6854256,67.0083262 54.0520434,80.5871807 67.4888008,94.0858056 C97.538641,63.8091721 127.548401,33.4924239 157.608261,3.22581915 L157.608261,3.22581915 Z" id="Shape"></path>
            </g>
        </g>
    </g>
</svg>