<?xml version="1.0" encoding="UTF-8" standalone="no"?>
<svg width="48px" height="49px" viewBox="0 0 48 49" version="1.1" xmlns="http://www.w3.org/2000/svg" xmlns:xlink="http://www.w3.org/1999/xlink" xmlns:sketch="http://www.bohemiancoding.com/sketch/ns">
    <!-- Generator: Sketch 3.3.3 (12081) - http://www.bohemiancoding.com/sketch -->
    <title>tags_icon</title>
    <desc>Created with Sketch.</desc>
    <defs></defs>
    <g id="Page-1" stroke="none" stroke-width="1" fill="none" fill-rule="evenodd" sketch:type="MSPage">
        <g id="tags_icon" sketch:type="MSLayerGroup" transform="translate(0.000000, 1.000000)" fill="#9E9E9F">
            <path d="M26,0 C27.7161869,-0.389320365 29.0242953,0.747945983 30,2 C35.2353136,7.01288692 40.4078336,12.2004176 46,17 C46.7187075,18.5750948 48.4162527,19.8320734 48,22 C47.1780433,23.2638245 45.800036,24.3611867 45,26 C37.2324256,32.7809481 30.1326924,40.3228197 23,47 C17.9802659,48.6029168 12.8776448,47.5654106 8,48 C5.47834486,47.6152907 1.54403423,48.9919816 0,46 C-0.0736264868,39.2853135 -0.0636409268,32.5914037 0,26 C5.85779614,19.4031045 12.418309,13.6269886 18,7 C21.0258617,4.99773076 23.1727571,2.10468478 26,0 L26,0 Z M4,27 C4.01978136,32.7967734 4.00989068,38.3934426 4,44 C8.94534097,43.9901119 13.8807913,43.9802238 19,44 C26.5606455,36.5048139 34.2852681,28.9799636 42,21 C36.8568454,16.3034088 31.7038001,11.1517044 27,6 C19.0338365,13.0699974 11.5070276,20.1202186 4,27 L4,27 Z" id="Shape" sketch:type="MSShapeGroup"></path>
            <path d="M12,31 C14.2872056,29.916078 17.7270313,32.5469503 17,35 C16.3552579,37.9230807 12.7595489,38.9213564 11,37 C9.35089996,35.4377903 9.82894219,32.5053555 12,31 L12,31 Z" id="Shape" sketch:type="MSShapeGroup"></path>
        </g>
    </g>
</svg>