<?xml version="1.0" encoding="UTF-8" standalone="no"?>
<svg width="144px" height="144px" viewBox="0 0 144 144" version="1.1" xmlns="http://www.w3.org/2000/svg" xmlns:xlink="http://www.w3.org/1999/xlink">
    <!-- Generator: Sketch 3.8.3 (29802) - http://www.bohemiancoding.com/sketch -->
    <title>textfield_icon_article_normal</title>
    <desc>Created with Sketch.</desc>
    <defs></defs>
    <g id="Keyboard" stroke="none" stroke-width="1" fill="none" fill-rule="evenodd">
        <g id="textfield_icon_article_normal">
            <g id="TextField_Icon_Article_normal" transform="translate(24.000000, 24.000000)">
                <rect id="Rectangle-125" x="0" y="0" width="96" height="96"></rect>
                <path d="M7,13.001155 C7,9.68680862 9.68166671,7 12.9964335,7 L83.0035665,7 C86.3153053,7 89,9.68396269 89,13.001155 L89,62.998845 C89,66.3131914 86.3183333,69 83.0035665,69 L12.9964335,69 C9.68469471,69 7,66.3160373 7,62.998845 L7,13.001155 Z M9,13.0094586 C9,10.7950958 10.7944236,9 13.0022777,9 L82.9977223,9 C85.2081192,9 87,10.7994254 87,13.0094586 L87,62.9905414 C87,65.2049042 85.2055764,67 82.9977223,67 L13.0022777,67 C10.7918808,67 9,65.2005746 9,62.9905414 L9,13.0094586 Z" id="Combined-Shape" fill="#6F7378"></path>
                <polygon id="Rectangle-589" fill="#6F7378" points="39 80 57 80 48 90.5058594"></polygon>
                <circle id="Oval-54" fill="#6F7378" cx="24" cy="24" r="4"></circle>
                <circle id="Oval-54-Copy" fill="#6F7378" cx="24" cy="38" r="4"></circle>
                <circle id="Oval-54-Copy-2" fill="#6F7378" cx="24" cy="52" r="4"></circle>
                <rect id="Rectangle-586" fill="#6F7378" x="34" y="21" width="42" height="6" rx="2"></rect>
                <rect id="Rectangle-586-Copy" fill="#6F7378" x="34" y="35" width="42" height="6" rx="2"></rect>
                <rect id="Rectangle-586-Copy-2" fill="#6F7378" x="34" y="49" width="42" height="6" rx="2"></rect>
            </g>
        </g>
    </g>
</svg>