<?xml version="1.0" encoding="UTF-8" standalone="no"?>
<svg width="144px" height="144px" viewBox="0 0 144 144" version="1.1" xmlns="http://www.w3.org/2000/svg" xmlns:xlink="http://www.w3.org/1999/xlink">
    <!-- Generator: Sketch 3.8.3 (29802) - http://www.bohemiancoding.com/sketch -->
    <title>textfield_icon_listtotexticon_pressed</title>
    <desc>Created with Sketch.</desc>
    <defs></defs>
    <g id="Keyboard" stroke="none" stroke-width="1" fill="none" fill-rule="evenodd">
        <g id="textfield_icon_listtotexticon_pressed">
            <g id="TextField_Icon_listtotexticon_pressed" transform="translate(72.000000, 72.000000) rotate(-180.000000) translate(-72.000000, -72.000000) translate(24.000000, 24.000000)">
                <rect id="Rectangle-125" transform="translate(48.000000, 48.000000) rotate(-360.000000) translate(-48.000000, -48.000000) " x="0" y="0" width="96" height="96"></rect>
                <path d="M26,22.9981014 C26,21.8945804 26.8867064,21 27.9981014,21 L32.0018986,21 C33.1054196,21 34,21.8867064 34,22.9981014 L34,27.0018986 C34,28.1054196 33.1132936,29 32.0018986,29 L27.9981014,29 C26.8945804,29 26,28.1132936 26,27.0018986 L26,22.9981014 Z M26,34.9981014 C26,33.8945804 26.8867064,33 27.9981014,33 L32.0018986,33 C33.1054196,33 34,33.8867064 34,34.9981014 L34,39.0018986 C34,40.1054196 33.1132936,41 32.0018986,41 L27.9981014,41 C26.8945804,41 26,40.1132936 26,39.0018986 L26,34.9981014 Z M50,22.9981014 C50,21.8945804 50.8867064,21 51.9981014,21 L56.0018986,21 C57.1054196,21 58,21.8867064 58,22.9981014 L58,27.0018986 C58,28.1054196 57.1132936,29 56.0018986,29 L51.9981014,29 C50.8945804,29 50,28.1132936 50,27.0018986 L50,22.9981014 Z M50,34.9981014 C50,33.8945804 50.8867064,33 51.9981014,33 L56.0018986,33 C57.1054196,33 58,33.8867064 58,34.9981014 L58,39.0018986 C58,40.1054196 57.1132936,41 56.0018986,41 L51.9981014,41 C50.8945804,41 50,40.1132936 50,39.0018986 L50,34.9981014 Z M38,22.9981014 C38,21.8945804 38.8867064,21 39.9981014,21 L44.0018986,21 C45.1054196,21 46,21.8867064 46,22.9981014 L46,27.0018986 C46,28.1054196 45.1132936,29 44.0018986,29 L39.9981014,29 C38.8945804,29 38,28.1132936 38,27.0018986 L38,22.9981014 Z M38,34.9981014 C38,33.8945804 38.8867064,33 39.9981014,33 L44.0018986,33 C45.1054196,33 46,33.8867064 46,34.9981014 L46,39.0018986 C46,40.1054196 45.1132936,41 44.0018986,41 L39.9981014,41 C38.8945804,41 38,40.1132936 38,39.0018986 L38,34.9981014 Z M62,22.9981014 C62,21.8945804 62.8867064,21 63.9981014,21 L68.0018986,21 C69.1054196,21 70,21.8867064 70,22.9981014 L70,27.0018986 C70,28.1054196 69.1132936,29 68.0018986,29 L63.9981014,29 C62.8945804,29 62,28.1132936 62,27.0018986 L62,22.9981014 Z M62,34.9981014 C62,33.8945804 62.8867064,33 63.9981014,33 L68.0018986,33 C69.1054196,33 70,33.8867064 70,34.9981014 L70,39.0018986 C70,40.1054196 69.1132936,41 68.0018986,41 L63.9981014,41 C62.8945804,41 62,40.1132936 62,39.0018986 L62,34.9981014 Z M34,48.9981014 C34,47.8945804 34.8998975,47 35.9912443,47 L60.0087557,47 C61.1084896,47 62,47.8867064 62,48.9981014 L62,53.0018986 C62,54.1054196 61.1001025,55 60.0087557,55 L35.9912443,55 C34.8915104,55 34,54.1132936 34,53.0018986 L34,48.9981014 Z" id="Rectangle-28" fill="#6F7378" transform="translate(48.000000, 38.000000) rotate(-180.000000) translate(-48.000000, -38.000000) "></path>
                <rect id="Rectangle-585" fill-opacity="0.1" fill="#000000" transform="translate(48.000000, 38.000000) rotate(-360.000000) translate(-48.000000, -38.000000) " x="7" y="7" width="82" height="62" rx="6"></rect>
                <path d="M7,13.001155 C7,9.68680862 9.68166671,7 12.9964335,7 L83.0035665,7 C86.3153053,7 89,9.68396269 89,13.001155 L89,62.998845 C89,66.3131914 86.3183333,69 83.0035665,69 L12.9964335,69 C9.68469471,69 7,66.3160373 7,62.998845 L7,13.001155 Z M9,13.0094586 C9,10.7950958 10.7944236,9 13.0022777,9 L82.9977223,9 C85.2081192,9 87,10.7994254 87,13.0094586 L87,62.9905414 C87,65.2049042 85.2055764,67 82.9977223,67 L13.0022777,67 C10.7918808,67 9,65.2005746 9,62.9905414 L9,13.0094586 Z" id="Combined-Shape" fill="#6F7378"></path>
                <polygon id="Rectangle-589" fill="#6F7378" transform="translate(48.000000, 85.252930) rotate(-360.000000) translate(-48.000000, -85.252930) " points="39 80 57 80 48 90.5058594"></polygon>
            </g>
        </g>
    </g>
</svg>