<?xml version="1.0" encoding="UTF-8"?>
<svg width="96px" height="96px" viewBox="0 0 96 96" version="1.1" xmlns="http://www.w3.org/2000/svg" xmlns:xlink="http://www.w3.org/1999/xlink">
    <!-- Generator: Sketch 44.1 (41455) - http://www.bohemiancoding.com/sketch -->
    <title>function_receiver_btn</title>
    <desc>Created with Sketch.</desc>
    <defs></defs>
    <g id="Tipsbar" stroke="none" stroke-width="1" fill="none" fill-rule="evenodd">
        <g id="function_receiver_btn">
            <g>
                <rect id="bond" x="0" y="0" width="96" height="96"></rect>
                <path d="M49.1613909,74.9756536 C39.7680341,74.3669945 36.3119478,66.2374249 36.2812506,60.92039 C36.2632556,57.9152015 34.3790799,55.4308135 32.3848176,52.8014059 C31.9529391,52.2319126 31.5221192,51.6645364 31.1114112,51.092926 C29.1023295,48.2962694 28.0268674,44.6940656 28.0004043,40.6737395 C27.9421854,31.6168909 34.1779601,23.5720044 42.8292903,21.5438461 C48.8131359,20.1423422 54.9451751,21.4792753 59.6545558,25.2116793 C64.3607609,28.9430247 67.0600014,34.524694 67.0600014,40.5244856 C67.0600014,44.3870897 65.9305545,48.1226693 63.7933912,51.3289799 L62.9137563,52.650035 L60.2706177,50.8896868 L61.1513111,49.5675732 C62.939161,46.8852387 63.8844244,43.7572598 63.8844244,40.5244856 C63.8844244,35.4996072 61.6234135,30.8261632 57.681464,27.7003014 C53.7384559,24.5744396 48.58767,23.4566238 43.5533219,24.6358348 C36.3320598,26.3284365 31.1262306,33.0639119 31.1759813,40.6525687 C31.1982103,44.0113088 32.0672599,46.9805071 33.6910383,49.2394265 C34.0858683,49.7888076 34.4986933,50.335013 34.9146939,50.882277 C37.0317453,53.6746995 39.4324815,56.8386687 39.4568276,60.9023949 C39.4779981,64.4527304 41.5759959,71.3014693 49.3656863,71.8053332 C54.1840952,72.1334799 57.4739929,68.5937298 58.239307,64.9544772 C59.3676954,59.5834569 56.0132275,55.4858575 49.0364848,53.7138654 L48.8607696,53.6577629 C47.0051741,52.9474841 37.7526012,48.9779677 37.7526012,40.5244856 C37.7526012,34.6760648 41.6818485,30.7467729 47.5302028,30.7467729 C52.8302408,30.7467729 57.3078044,35.2243874 57.3078044,40.5244856 C57.3078044,42.8702052 56.567895,44.732173 55.9232528,46.0923939 L55.2426208,47.5267125 L52.3729577,46.1664916 L53.0535898,44.732173 C53.5870867,43.6069474 54.1322274,42.2266143 54.1322274,40.5244856 C54.1322274,37.0069649 51.0466251,33.922386 47.5302028,33.922386 C43.3956016,33.922386 40.9281782,36.3898374 40.9281782,40.5244856 C40.9281782,46.8714777 48.6691764,50.1709397 49.9129441,50.6599841 C62.7401581,53.9636803 61.9092155,62.9326702 61.3471384,65.607595 C60.1817016,71.1553911 55.4479748,75 49.9319976,75 C49.6768929,75 49.4196711,74.9915317 49.1613909,74.9756536 Z" id="Fill-1" fill="#1AAD19"></path>
            </g>
        </g>
    </g>
</svg>