<?xml version="1.0" encoding="UTF-8" standalone="no"?>
<svg width="96px" height="96px" viewBox="0 0 96 96" version="1.1" xmlns="http://www.w3.org/2000/svg" xmlns:xlink="http://www.w3.org/1999/xlink" xmlns:sketch="http://www.bohemiancoding.com/sketch/ns">
    <!-- Generator: Sketch 3.3.3 (12081) - http://www.bohemiancoding.com/sketch -->
    <title>userguide_grounpmessage_icon</title>
    <desc>Created with Sketch.</desc>
    <defs></defs>
    <g id="Page-1" stroke="none" stroke-width="1" fill="none" fill-rule="evenodd" sketch:type="MSPage">
        <g id="#3cb2efff" sketch:type="MSLayerGroup" transform="translate(13.000000, 14.000000)" fill="#3CB2EF">
            <path d="M3,1 C3.85306207,-0.0568976625 5.48240868,0.103280703 7,0 C25.6643155,0.0732472591 44.3468236,0.02319152 63,0 C65.9381652,-0.337209801 69.0469186,1.83520928 69,5 C69.0569146,20.6962118 68.9669507,36.4537584 69,52 C69.1768665,54.7441255 67.5875038,57.5172135 65,58 C58.3612037,58.5483617 51.6738854,57.5472469 45,58 C40.2684591,60.5205578 38.7590644,66.8876478 34,69 C30.4623914,66.0367002 28.4831851,61.3314608 25,59 C17.8074662,57.3270016 10.8302641,58.6584843 4,58 C1.39404816,57.4971912 -0.175322505,54.7140921 0,52 C0.00460534169,36.7841263 0.0146013332,21.3769698 0,6 C-0.115346556,3.93755032 0.614360823,1.72508665 3,1 L3,1 Z M32,12 C26.2519942,13.5715244 25.5141938,21.7946755 28,26 C29.0819135,28.3530168 31.6793752,30.5727631 30,33 C26.3732765,36.0111416 21.0772846,37.070566 18,41 C16.7616577,42.2667903 16.4685589,45.6670381 19,46 C28.2632583,46.1412566 37.6929537,45.8587434 47,46 C48.7195321,45.7881151 51.0845361,46.5347571 52,45 C52.1558627,42.8822654 52.0345804,40.7432371 50,40 C46.779016,36.5559884 41.422383,35.7084489 38,32 C38.4711815,28.5245427 41.7862298,26.15345 42,23 C42.3016794,20.1904043 42.3825342,17.2441955 41,15 C38.9360968,12.4616512 35.4189114,11.4829449 32,12 L32,12 Z M12,18 C11.0417284,22.1857452 13.1084663,25.9683929 15,29 C12.2694935,33.078186 3.2147258,33.4544703 5,40 C8.52480991,40.2870013 11.8397757,39.8612059 15,40 C18.2343857,36.9796602 22.245085,35.2566741 26,33 C24.0765013,31.8503109 19.0119702,30.681849 21,28 C22.787348,24.5919844 24.1276582,20.7301191 22,17 C20.1374216,13.8381747 13.7325803,14.3134812 12,18 L12,18 Z M46,19 C44.8539282,22.3440894 47.1866182,25.7015992 49,29 C47.7366848,31.2677363 44.9557924,31.9709316 43,33 C46.7384157,35.2492081 50.7314919,36.9725316 54,40 C57.0980037,39.8348335 60.4085899,40.3201372 64,40 C64.1979377,38.1412224 64.2896155,36.0316366 63,35 C59.9400146,32.8821142 56.3034631,31.8421775 54,29 C55.9876841,25.8006408 58.1166456,21.5814692 56,18 C54.1643151,13.7274715 47.3088552,14.2722002 46,19 L46,19 Z" id="Shape" sketch:type="MSShapeGroup"></path>
        </g>
    </g>
</svg>