<?xml version="1.0" encoding="UTF-8" standalone="no"?>
<svg width="96px" height="96px" viewBox="0 0 96 96" version="1.1" xmlns="http://www.w3.org/2000/svg" xmlns:xlink="http://www.w3.org/1999/xlink" xmlns:sketch="http://www.bohemiancoding.com/sketch/ns">
    <!-- Generator: Sketch 3.3 (11970) - http://www.bohemiancoding.com/sketch -->
    <title>userguide_emostore_icon</title>
    <desc>Created with Sketch.</desc>
    <defs></defs>
    <g id="提示" stroke="none" stroke-width="1" fill="none" fill-rule="evenodd" sketch:type="MSPage">
        <g id="userguide_emostore_icon" sketch:type="MSArtboardGroup" fill="#71D01D">
            <path d="M47.999,15 C29.773,15 15,29.774 15,48 C15,66.226 29.773,81 47.999,81 C66.225,81 81,66.226 81,48 C81,29.774 66.225,15 47.999,15 L47.999,15 Z M62,31 C64.762,31 67,33.462 67,36.5 C67,39.538 64.762,42 62,42 C59.238,42 57,39.538 57,36.5 C57,33.462 59.238,31 62,31 L62,31 Z M35,31 C37.762,31 40,33.462 40,36.5 C40,39.538 37.762,42 35,42 C32.238,42 30,39.538 30,36.5 C30,33.462 32.238,31 35,31 L35,31 Z M48,71 C28.667,71 26,53 26,53 C26,53 40.361,51 48,51 C55.639,51 70,53 70,53 C70,53 67.333,71 48,71 L48,71 Z" id="Shape" sketch:type="MSShapeGroup"></path>
        </g>
    </g>
</svg>