<?xml version="1.0" encoding="UTF-8" standalone="no"?>
<svg width="189px" height="189px" viewBox="0 0 189 189" version="1.1" xmlns="http://www.w3.org/2000/svg" xmlns:xlink="http://www.w3.org/1999/xlink">
    <!-- Generator: Sketch 43.2 (39069) - http://www.bohemiancoding.com/sketch -->
    <title>voice input－icon－button</title>
    <desc>Created with Sketch.</desc>
    <defs></defs>
    <g id="语音输入新UI-白色导航-安卓" stroke="none" stroke-width="1" fill="none" fill-rule="evenodd">
        <g id="voice-input－icon－button">
            <g id="Group-2-Copy-2">
                <g id="Group" fill="#2BA245">
                    <circle id="Oval-4" cx="94.5" cy="94.5" r="94.0478469"></circle>
                </g>
                <path d="M73.0024835,72.6053159 L67.427851,69.4069717 L64.8444565,73.8534989 C56.0510336,88.9886991 59.2183878,107.786045 71.6005076,118.515871 L65.4764398,129.056589 L76.6257047,135.453278 L82.7497725,124.91256 L82.7497725,124.91256 C98.2917398,130.203671 116.257064,123.530816 125.050487,108.395616 L127.633882,103.949089 L122.059249,100.750745 L119.475855,105.197272 C111.180616,119.474999 93.6396049,124.464234 80.6380283,117.004816 C66.5463014,108.919943 62.1238508,91.3295699 70.4190889,77.0518431 L73.0024835,72.6053159 L73.0024835,72.6053159 L73.0024835,72.6053159 Z M118.843871,49.9941812 C108.991761,44.3417118 96.3886403,47.7052192 90.7117224,57.4763049 L77.0683947,80.9591397 C71.3835483,90.743872 74.759617,103.256954 84.6138936,108.910666 C94.466004,114.563136 107.069125,111.199628 112.746042,101.428542 L126.38937,77.9457076 C132.074217,68.1609753 128.698148,55.6478935 118.843871,49.9941812 L118.843871,49.9941812 Z M64.3312539,132.806543 C64.2503379,131.963375 64.7841755,131.623767 65.5296044,132.051443 L73.9891456,136.904951 C74.7318923,137.331089 74.7024842,137.963233 73.9302613,138.313799 L66.6421807,141.622362 C65.8669131,141.97431 65.1725214,141.572786 65.0919232,140.73293 L64.3312539,132.806543 L64.3312539,132.806543 Z" id="Path-2" fill="#FFFFFF"></path>
            </g>
        </g>
    </g>
</svg>