<?xml version="1.0" encoding="UTF-8" standalone="no"?>
<svg width="120px" height="180px" viewBox="0 0 120 180" version="1.1" xmlns="http://www.w3.org/2000/svg" xmlns:xlink="http://www.w3.org/1999/xlink" xmlns:sketch="http://www.bohemiancoding.com/sketch/ns">
    <!-- Generator: Sketch 3.3.3 (12081) - http://www.bohemiancoding.com/sketch -->
    <title>Slice 1</title>
    <desc>Created with Sketch.</desc>
    <defs></defs>
    <g id="Page-1" stroke="none" stroke-width="1" fill="none" fill-rule="evenodd" sketch:type="MSPage">
        <path d="M24.0000003,76 L24,98.237793 C24,121.084272 40.6761583,139.715446 62,141.805029 L62,152 L70,152 L70,141.805274 L70,141.805274 C91.3197289,139.718896 108,121.123309 108,98.4340086 L108,76 L99.9999993,76 L99.999999,98.6307607 C99.999999,118.188708 84.7776806,134 65.9999995,134 C47.2181896,134 32,118.164652 32,98.6307607 L32.0000003,76 L24.0000003,76 L24.0000003,76 Z M38,152 C35.790861,152 34,153.790861 34,156 C34,158.209139 35.790861,160 38,160 L94,160 C96.209139,160 98,158.209139 98,156 C98,153.790861 96.209139,152 94,152 L38,152 Z M40.0000001,98.6603356 C40.0000001,113.759615 51.6374394,126 66.0000001,126 C80.3594034,126 92,113.77821 92,98.6603356 L91.9999999,45.3396644 C91.9999999,30.2403846 80.3625606,18 65.9999999,18 C51.6405966,18 40,30.22179 40,45.3396644 L40.0000001,98.6603356 Z" id="Oval-3" fill="#FFFFFF" sketch:type="MSShapeGroup"></path>
        <path d="M104,80 C106.209139,80 108,78.209139 108,76 C108,73.790861 106.209139,72 104,72 C101.790861,72 100,73.790861 100,76 C100,78.209139 101.790861,80 104,80 Z" id="Oval-5" fill="#FFFFFF" sketch:type="MSShapeGroup"></path>
        <path d="M28,80 C30.209139,80 32,78.209139 32,76 C32,73.790861 30.209139,72 28,72 C25.790861,72 24,73.790861 24,76 C24,78.209139 25.790861,80 28,80 Z" id="Oval-5-Copy" fill="#FFFFFF" sketch:type="MSShapeGroup"></path>
    </g>
</svg>