<?xml version="1.0" encoding="UTF-8" standalone="no"?>
<svg width="268px" height="268px" viewBox="0 0 268 268" version="1.1" xmlns="http://www.w3.org/2000/svg" xmlns:xlink="http://www.w3.org/1999/xlink" xmlns:sketch="http://www.bohemiancoding.com/sketch/ns">
    <!-- Generator: Sketch 3.2.2 (9983) - http://www.bohemiancoding.com/sketch -->
    <title>voicesearch_btnbg_normal</title>
    <desc>Created with Sketch.</desc>
    <defs></defs>
    <g id="Page-1" stroke="none" stroke-width="1" fill="none" fill-rule="evenodd" sketch:type="MSPage">
        <g id="voicesearch_btnbg_normal" sketch:type="MSLayerGroup" transform="translate(9.000000, 9.000000)">
            <g id="#d5d5d5ff" fill="#D5D5D5" sketch:type="MSShapeGroup">
                <path d="M19.4411398,1.68145219 C21.5710927,1.18150061 23.7710442,1.0515132 25.9609958,1.0215161 L217.996755,1.0215161 C223.20664,1.0515132 228.63652,0.611555807 233.576411,2.61136213 C242.656211,5.98103579 249.106068,15.2601371 248.986071,24.9691968 C248.996071,91.6427397 249.01607,158.326282 248.976071,224.999824 C249.326063,237.798585 237.846317,249.317469 225.0366,248.977502 C158.348072,249.007499 91.6495452,249.007499 24.9610179,248.977502 C12.1513008,249.30747 0.681554038,237.798585 1.01154675,224.989825 C1.00154697,158.326282 0.991547192,91.6527387 1.01154675,24.9891949 C0.831550725,14.1802417 8.90137252,4.02122559 19.4411398,1.68145219 L19.4411398,1.68145219 Z M20.3727701,4.50996548 C11.1140311,6.48983145 3.80502656,15.3992283 4.01499796,24.9285832 C3.99500068,91.6340675 3.99500068,158.329552 4.01499796,225.025037 C3.70504017,236.204281 13.8136634,246.323596 25.0021395,245.973619 C91.6430631,246.013616 158.283987,246.003617 224.92491,245.973619 C234.503606,246.2536 243.482383,238.934096 245.472112,229.634725 C246.202012,225.794985 245.952046,221.865251 245.982042,217.975515 C245.952046,153.649869 245.992041,89.3242238 245.962045,25.0085778 C246.292,13.8093359 236.173378,3.69002098 224.984902,4.02999797 C158.643938,3.98000135 92.3129719,4.02999797 25.9820061,4 C24.1022621,4.04999662 22.2225181,4.1299912 20.3727701,4.50996548 L20.3727701,4.50996548 Z" id="Shape"></path>
            </g>
            <g id="#ffffffff" transform="translate(3.000000, 3.000000)" fill="#FFFFFF" sketch:type="MSShapeGroup">
                <path d="M17.3727701,1.50996548 C19.2225181,1.1299912 21.1022621,1.04999662 22.9820061,1 C89.3129719,1.02999797 155.643938,0.980001354 221.984902,1.02999797 C233.173378,0.690020985 243.292,10.8093359 242.962045,22.0085778 C242.992041,86.3242238 242.952046,150.649869 242.982042,214.975515 C242.952046,218.865251 243.202012,222.794985 242.472112,226.634725 C240.482383,235.934096 231.503606,243.2536 221.92491,242.973619 C155.283987,243.003617 88.6430631,243.013616 22.0021395,242.973619 C10.8136634,243.323596 0.705040173,233.204281 1.01499796,222.025037 C0.995000681,155.329552 0.995000681,88.6340675 1.01499796,21.9285832 C0.805026555,12.3992283 8.11403108,3.48983145 17.3727701,1.50996548 L17.3727701,1.50996548 Z" id="Shape"></path>
            </g>
        </g>
    </g>
</svg>