<?xml version="1.0" encoding="UTF-8" standalone="no"?>
<svg width="72px" height="72px" viewBox="0 0 72 72" version="1.1" xmlns="http://www.w3.org/2000/svg" xmlns:xlink="http://www.w3.org/1999/xlink" xmlns:sketch="http://www.bohemiancoding.com/sketch/ns">
    <!-- Generator: Sketch 3.2.2 (9983) - http://www.bohemiancoding.com/sketch -->
    <title>webviewtab_refresh_disable</title>
    <desc>Created with Sketch.</desc>
    <defs></defs>
    <g id="Page-1" stroke="none" stroke-width="1" fill="none" fill-rule="evenodd" sketch:type="MSPage">
        <g id="#4d4d4d4d" sketch:type="MSLayerGroup" transform="translate(3.000000, 0.000000)" fill="#FFFFFF" opacity="0.3">
            <path d="M47.9245771,7.74130773 C50.345354,5.19122989 52.6665105,2.53995848 55.0972494,0 C55.7447823,7.23533991 56.4122394,14.4706798 57,21.7060197 C49.4886181,21.9792423 41.9672742,22.2423456 34.4558924,22.4750908 C37.1257204,19.4595226 39.915093,16.575506 42.5649969,13.5498184 C34.6252472,10.1497146 25.04176,10.9693825 18.0484045,16.1707317 C10.9853146,21.1292164 7.15988938,29.9128179 7.50856095,38.5345096 C5.02801177,38.7065387 2.53750054,38.858329 0.0569513652,39 C-0.550733374,28.6984951 3.73294593,18.2249611 11.5531512,11.5967826 C21.4155756,2.85365854 36.4682255,1.44706798 47.9245771,7.74130773 L47.9245771,7.74130773 Z" id="Shape" sketch:type="MSShapeGroup"></path>
            <path d="M44.5121213,57.3522551 C52.9264784,52.8032659 57.977089,43.0987558 57.4580539,33.5155521 C59.9534149,33.3133748 62.4487758,33.1415241 64.9441367,33 C65.5430234,43.2807154 61.3009098,53.7636081 53.455495,60.3646967 C43.5838471,69.1088647 28.4919041,70.5847589 17.0332066,64.2363919 C14.5877529,66.7838258 12.2421136,69.4222395 9.82660421,72 C9.15784748,64.600311 8.60886807,57.2006221 8,49.8009331 C15.3064168,49.7807154 22.6128337,49.7807154 29.9192505,49.8009331 C27.4438525,52.722395 24.778807,55.492224 22.4132048,58.5046656 C29.5000299,61.3452566 37.8145726,61.244168 44.5121213,57.3522551 L44.5121213,57.3522551 Z" id="Shape" sketch:type="MSShapeGroup"></path>
        </g>
    </g>
</svg>